<svg height="512pt" viewBox="0 0 512 512" width="512pt" xmlns="http://www.w3.org/2000/svg"><path d="m384 352v-320c0-17.679688-14.320312-32-32-32h-320c-17.679688 0-32 14.320312-32 32v400c0 44.175781 35.824219 80 80 80h368v-160zm0 0" fill="#fdd835"/><g fill="#fff"><path d="m64 64h96v96h-96zm0 0"/><path d="m64 192h96v96h-96zm0 0"/><path d="m64 320h96v96h-96zm0 0"/></g><path d="m192 352h128v32h-128zm0 0" fill="#57565c"/><path d="m192 96h128v32h-128zm0 0" fill="#57565c"/><path d="m192 224h128v32h-128zm0 0" fill="#57565c"/><path d="m0 400v32c0 44.113281 35.886719 80 80 80h368v-32h-368c-44.113281 0-80-35.886719-80-80zm0 0" fill="#fbc02d"/><path d="m384 448v-96h96c17.679688 0 32 14.320312 32 32v64c0 35.34375-28.65625 64-64 64s-64-28.65625-64-64zm0 0" fill="#c59969"/></svg>