<svg height="511pt" viewBox="-89 0 511 511.96746" width="511pt" xmlns="http://www.w3.org/2000/svg"><path d="m328.933594 493.007812c-1.15625-20.769531-8.589844-154.164062-9.660156-173.410156-.730469-13.09375-9.890626-24.191406-22.609376-27.394531l-41.496093-10.445313c-8.871094-2.578124-15.972657-4.476562-21.347657-6.304687l-18.296874-9.023437-.058594-.027344-3.691406-1.820313c-5.859376-2.886719-9.566407-8.851562-9.566407-15.382812v-14.394531c-8.058593 7.480468-17.371093 14.207031-28.007812 19.105468-4.707031 2.167969-10.292969 2.164063-14.988281 0-10.191407-4.691406-19.160157-11.070312-26.980469-18.175781v13.464844c0 6.53125-3.710938 12.496093-9.570313 15.382812l-2.714844 1.34375-1.144531.5625c-18.339843 8.445313-11.53125 6.742188-24.257812 10.84375-5.417969 1.746094-10.894531 3.328125-16.417969 4.71875l-40.355469 10.15625c-12.71875 3.203125-21.878906 14.300781-22.609375 27.394531-2.234375 40.097657-7.519531 135.050782-9.660156 173.410157-.421875 7.578125 5.613281 13.957031 13.203125 13.957031h297.023437c7.59375-.003906 13.628907-6.382812 13.207032-13.960938zm0 0" fill="#3f3f3f"/><path d="m236.28125 113.777344c-10.691406-3.085938-26.351562-11.84375-35.355469-36.570313-.605469-1.671875-2.800781-2.027343-3.871093-.609375-7.019532 9.28125-29.476563 33.214844-72.890626 30.75-11.863281-.675781-20.910156 2.476563-27.085937 6.964844l-2.234375 22.949219c-3.65625 34.390625 7.882812 68.871093 32.164062 93.492187 8.964844 9.089844 19.675782 17.390625 32.203126 23.15625 4.695312 2.164063 10.28125 2.167969 14.988281 0 12.527343-5.765625 23.238281-14.066406 32.199219-23.15625 24.285156-24.621094 35.824218-59.101562 32.164062-93.492187zm0 0" fill="#fcb275"/><path d="m94.84375 137.261719 2.113281-21.699219c-.910156-.085938-1.832031-.140625-2.761719-.140625-15.617187 0-28.273437 12.660156-28.273437 28.273437 0 15.609376 12.660156 28.269532 28.273437 28.269532.710938 0 1.414063-.054688 2.113282-.105469-2.15625-11.289063-2.703125-22.945313-1.464844-34.597656zm0 0" fill="#fcb275"/><path d="m239.582031 115.421875c-1.058593 0-2.097656.070313-3.125.183594l2.105469 21.65625c1.238281 11.648437.691406 23.296875-1.457031 34.578125.816406.070312 1.640625.125 2.476562.125 15.613281 0 28.269531-12.65625 28.269531-28.269532 0-15.613281-12.65625-28.273437-28.269531-28.273437zm0 0" fill="#fcb275"/><path d="m94.195312 115.421875c.929688 0 1.851563.054687 2.761719.140625l.121094-1.25c6.175781-4.492188 15.21875-7.640625 27.085937-6.96875 43.414063 2.464844 65.871094-21.46875 72.890626-30.746094 1.070312-1.417968 3.265624-1.0625 3.871093.605469 9.003907 24.730469 24.664063 33.484375 35.355469 36.570313l.175781 1.832031c1.027344-.113281 2.070313-.183594 3.125-.183594 10.898438 0 20.335938 6.171875 25.054688 15.207031 8.132812-27.757812 12.261719-63.460937-7.515625-88.808594-39.378906-50.480468-76.226563-36.417968-87.378906-30.351562-1.601563.871094-3.445313.871094-5.046876 0-11.152343-6.0625-48-20.128906-87.378906 30.351562-19.585937 25.109376-15.722656 60.378907-7.75 88.015626 4.847656-8.597657 14.054688-14.414063 24.628906-14.414063zm0 0" fill="#7c292e"/><path d="m259.089844 164.121094c-5.074219 4.847656-11.9375 7.84375-19.507813 7.84375-.835937 0-1.660156-.054688-2.476562-.128906-3.304688 17.324218-10.484375 33.75-21.214844 47.902343 11.710937 2.507813 23.902344 1.554688 34.324219-.5 11.914062-2.351562 18.96875-15.0625 14.097656-26.1875-4.027344-9.199219-5.3125-19.378906-5.222656-28.929687zm0 0" fill="#7c292e"/><path d="m96.304688 171.847656c0 .003906 0 .003906.003906.011719-.699219.050781-1.402344.105469-2.113282.105469-7.316406 0-13.957031-2.800782-18.976562-7.359375.039062 9.40625-1.265625 19.398437-5.226562 28.445312-4.871094 11.125 2.183593 23.835938 14.097656 26.1875 10.191406 2.007813 22.074218 2.960938 33.542968.65625-10.792968-14.183593-18.007812-30.664062-21.328124-48.046875zm0 0" fill="#7c292e"/><path d="m122.660156 264.582031-2.714844 1.34375-1.144531.5625c-1.035156.480469-1.984375.917969-2.867187 1.335938 12.097656 14.535156 30.300781 23.804687 50.691406 23.804687 20.558594 0 38.890625-9.421875 50.984375-24.164062l-2.089844-1.03125-.058593-.027344-3.691407-1.820312c-5.859375-2.886719-9.566406-8.851563-9.566406-15.382813v-14.394531c-8.058594 7.480468-17.371094 14.207031-28.007813 19.105468-4.707031 2.167969-10.292968 2.164063-14.988281 0-10.191406-4.691406-19.160156-11.070312-26.980469-18.175781v13.464844c.003907 6.527344-3.707031 12.492187-9.566406 15.378906zm0 0" fill="#fcb275"/><path d="m215.34375 307.863281c11.925781-5.109375 20.617188-17.363281 26.707031-29.867187-3.082031-.898438-5.835937-1.730469-8.230469-2.542969l-16.226562-8c-10.511719 12.785156-25.714844 21.558594-43.007812 23.644531 8.105468 11.171875 21.683593 24.941406 40.757812 16.765625zm0 0" fill="#e8e6e6"/><path d="m117.90625 307.863281c19.074219 8.175781 32.65625-5.59375 40.753906-16.765625-17.125-2.0625-32.210937-10.695312-42.710937-23.285156-14.777344 6.941406-9.398438 5.648438-21.40625 9.515625-1.058594.339844-2.128907.644531-3.191407.972656 6.082032 12.398438 14.726563 24.496094 26.554688 29.5625zm0 0" fill="#e8e6e6"/><path d="m225.46875 404.464844-24.246094-94.292969c-11.804687-1.324219-20.675781-10.863281-26.609375-19.039063-2.039062.246094-4.113281.382813-6.203125.4375l22.855469 120.816407c.542969 2.867187 3.363281 4.699219 6.203125 4.03125l24.214844-5.695313c2.792968-.65625 4.5-3.480468 3.785156-6.257812zm0 0" fill="#e8e6e6"/><path d="m132.566406 310.117188-24.261718 94.347656c-.714844 2.777344.992187 5.601562 3.785156 6.257812l24.214844 5.699219c2.835937.667969 5.660156-1.167969 6.203124-4.03125l22.855469-120.800781c-2.273437-.042969-4.515625-.1875-6.722656-.457032-5.847656 8.050782-14.535156 17.4375-26.074219 18.984376zm0 0" fill="#e8e6e6"/><g fill="#231f20"><path d="m270.140625 509.125c-2.761719 0-5-2.238281-5-5v-112.316406c0-2.761719 2.238281-5 5-5s5 2.238281 5 5v112.316406c0 2.761719-2.238281 5-5 5zm0 0"/><path d="m64.296875 509.125c-2.761719 0-5-2.238281-5-5v-112.316406c0-2.761719 2.238281-5 5-5s5 2.238281 5 5v112.316406c0 2.761719-2.238281 5-5 5zm0 0"/><path d="m315.730469 511.96875h-297.023438c-4.988281 0-9.816406-2.078125-13.242187-5.703125-3.425782-3.625-5.230469-8.554687-4.953125-13.535156l9.65625-173.410157c.859375-15.363281 11.460937-28.207031 26.378906-31.964843l40.355469-10.15625c5.265625-1.328125 10.683594-2.882813 16.109375-4.632813 6.988281-2.25 7.570312-2.5625 10.367187-4.0625 2.207032-1.183594 5.546875-2.976562 13.328125-6.558594l3.746094-1.847656c4.179687-2.0625 6.777344-6.238281 6.777344-10.898437v-13.464844c0-1.980469 1.164062-3.773437 2.976562-4.574219 1.808594-.796875 3.921875-.457031 5.382813.875 8.148437 7.398438 16.796875 13.230469 25.710937 17.332032 3.375 1.554687 7.417969 1.554687 10.804688 0 9.289062-4.277344 18.273437-10.410157 26.695312-18.230469 1.457031-1.347657 3.574219-1.710938 5.402344-.917969 1.824219.792969 3 2.59375 3 4.585938v14.394531c0 4.664062 2.597656 8.839843 6.777344 10.898437l21.753906 10.726563c3.617187 1.21875 8.148437 2.507812 13.378906 4 2.328125.664062 4.808594 1.371093 7.453125 2.136719l41.316406 10.398437c14.921876 3.753906 25.523438 16.601563 26.378907 31.964844l9.65625 173.40625c.28125 4.980469-1.527344 9.914062-4.953125 13.535156-3.421875 3.621094-8.25 5.703125-13.234375 5.703125zm-178.5-265.570312v2.800781c0 8.496093-4.734375 16.109375-12.355469 19.867187l-3.867188 1.90625c-7.621093 3.511719-10.796874 5.21875-12.902343 6.34375-3.375 1.8125-4.460938 2.332032-12.027344 4.769532-5.628906 1.8125-11.261719 3.429687-16.734375 4.808593l-40.355469 10.15625c-10.652343 2.683594-18.222656 11.855469-18.835937 22.828125l-9.65625 173.410156c-.125 2.277344.667968 4.445313 2.234375 6.105469 1.570312 1.660157 3.691406 2.574219 5.976562 2.574219h297.023438c2.285156 0 4.402343-.914062 5.972656-2.574219 1.570313-1.660156 2.363281-3.828125 2.234375-6.105469l-9.65625-173.410156c-.613281-10.96875-8.183594-20.144531-18.835938-22.824218l-41.496093-10.445313c-2.796875-.808594-5.261719-1.511719-7.574219-2.167969-5.507812-1.570312-10.261719-2.925781-14.164062-4.25-.207032-.070312-.40625-.15625-.601563-.25l-22.046875-10.875c-7.621094-3.757812-12.355469-11.371094-12.355469-19.867187v-3.582031c-6.71875 5.222656-13.722656 9.519531-20.917969 12.835937-6.003906 2.761719-13.167968 2.761719-19.167968 0-6.824219-3.140625-13.480469-7.175781-19.890625-12.054687zm0 0"/><path d="m167.851562 213.121094c-6.292968 0-12.023437-2.222656-15.71875-6.101563-1.90625-2-1.832031-5.160156.164063-7.066406 2-1.90625 5.164063-1.835937 7.070313.164063 1.765624 1.851562 5.019531 3.003906 8.484374 3.003906 3.460938 0 6.710938-1.152344 8.484376-3.003906 1.90625-2 5.070312-2.070313 7.066406-.160157 2 1.90625 2.070312 5.070313.164062 7.066407-3.699218 3.875-9.429687 6.097656-15.714844 6.097656zm0 0"/><path d="m184.933594 140.753906c-1.789063 0-3.519532-.960937-4.417969-2.652344-1.296875-2.4375-.375-5.464843 2.0625-6.761718 3.03125-1.609375 7.601563-2.535156 12.546875-2.535156s9.519531.925781 12.542969 2.535156c2.441406 1.296875 3.367187 4.324218 2.066406 6.761718-1.292969 2.441407-4.328125 3.363282-6.761719 2.066407-1.179687-.625-3.945312-1.363281-7.847656-1.363281-3.90625 0-6.667969.734374-7.847656 1.363281-.746094.398437-1.550782.585937-2.34375.585937zm0 0"/><path d="m150.507812 140.753906c-.789062 0-1.597656-.1875-2.34375-.585937-1.179687-.625-3.945312-1.359375-7.847656-1.359375s-6.667968.734375-7.851562 1.363281c-2.4375 1.292969-5.464844.371094-6.761719-2.070313-1.296875-2.4375-.371094-5.464843 2.066406-6.761718 3.027344-1.609375 7.601563-2.53125 12.542969-2.53125 4.949219 0 9.519531.921875 12.546875 2.53125 2.4375 1.300781 3.363281 4.328125 2.0625 6.765625-.890625 1.6875-2.621094 2.648437-4.414063 2.648437zm0 0"/><path d="m141.128906 160.464844c-3.3125 0-6-2.683594-6-6v-1.117188c0-3.3125 2.6875-6 6-6 3.316406 0 6 2.6875 6 6v1.117188c0 3.3125-2.683594 6-6 6zm0 0"/><path d="m194.570312 161.316406c-3.316406 0-6-2.683594-6-6v-1.113281c0-3.316406 2.683594-6 6-6 3.3125 0 6 2.683594 6 6v1.113281c0 3.316406-2.6875 6-6 6zm0 0"/><path d="m166.703125 260.523438c-3.292969 0-6.582031-.691407-9.585937-2.070313-11.929688-5.492187-23.257813-13.628906-33.667969-24.1875-25.214844-25.566406-37.449219-61.117187-33.574219-97.535156l2.226562-22.902344c.136719-1.425781.878907-2.71875 2.035157-3.5625 5.609375-4.078125 15.449219-8.753906 30.308593-7.914063 40.523438 2.316407 61.492188-19.355468 68.621094-28.773437 1.597656-2.109375 4.21875-3.171875 6.824219-2.78125 2.628906.394531 4.824219 2.195313 5.734375 4.695313 8.144531 22.378906 21.917969 30.558593 32.039062 33.476562 1.96875.570312 3.390626 2.28125 3.589844 4.320312l2.285156 23.488282c3.871094 36.371094-8.367187 71.921875-33.578124 97.484375-10.410157 10.558593-21.742188 18.699219-33.671876 24.1875-3.003906 1.382812-6.292968 2.074219-9.585937 2.074219zm-64.878906-143.375-2 20.59375c-3.5625 33.472656 7.644531 66.074218 30.746093 89.5 9.558594 9.695312 19.898438 17.140624 30.730469 22.125 3.386719 1.558593 7.421875 1.558593 10.804688 0 10.832031-4.984376 21.171875-12.425782 30.730469-22.125 23.101562-23.421876 34.308593-56.027344 30.75-89.453126l-1.96875-20.273437c-11.132813-4.027344-24.753907-13.25-33.632813-34.140625-10.226563 11.777344-33.503906 31.25-74.105469 28.964844-10.402344-.585938-17.550781 2.054687-22.054687 4.808594zm0 0"/><path d="m94.191406 176.964844c-18.347656 0-33.269531-14.921875-33.269531-33.269532 0-18.34375 14.921875-33.269531 33.269531-33.269531 1.058594 0 2.125.054688 3.25.164063 2.75.269531 4.757813 2.710937 4.492188 5.460937l-2.113282 21.695313c0 .015625-.003906.03125-.003906.046875-1.167968 10.988281-.699218 22.132812 1.402344 33.128906.265625 1.402344-.078125 2.847656-.945312 3.980469-.871094 1.132812-2.179688 1.839844-3.601563 1.945312-.890625.0625-1.675781.117188-2.480469.117188zm-2.746094-56.378906c-11.542968 1.363281-20.523437 11.207031-20.523437 23.109374 0 11.53125 8.433594 21.132813 19.457031 22.957032-1.390625-9.953125-1.5625-19.984375-.507812-29.902344zm3.398438 16.675781h.023438zm0 0"/><path d="m239.582031 176.964844c-.980469 0-1.949219-.058594-2.910156-.144532-1.410156-.121093-2.703125-.835937-3.554687-1.960937-.851563-1.128906-1.1875-2.566406-.921876-3.957031 2.097657-10.988282 2.5625-22.125 1.394532-33.109375l-2.109375-21.703125c-.265625-2.722656 1.707031-5.15625 4.425781-5.453125 1.292969-.144531 2.496094-.214844 3.675781-.214844 18.34375 0 33.273438 14.925781 33.273438 33.273437-.003907 18.34375-14.929688 33.269532-33.273438 33.269532zm2.378907-56.417969 1.578124 16.230469c1.050782 9.90625.878907 19.957031-.519531 29.933594 11.207031-1.664063 19.832031-11.351563 19.832031-23.015626 0-12.03125-9.175781-21.957031-20.890624-23.148437zm0 0"/><path d="m264.636719 135.628906c-1.847657 0-3.5625-1.027344-4.429688-2.683594-4.039062-7.722656-11.941406-12.523437-20.625-12.523437-.808593 0-1.65625.050781-2.578125.152344-1.34375.144531-2.664062-.246094-3.703125-1.085938-.625-.507812-1.113281-1.15625-1.429687-1.878906-11.179688-3.976563-24.941406-13.179687-33.886719-34.230469-10.230469 11.777344-33.503906 31.25-74.105469 28.960938-10.542968-.597656-17.726562 2.121094-22.21875 4.914062-.753906 2.105469-2.847656 3.511719-5.195312 3.289063-.796875-.078125-1.542969-.117188-2.273438-.117188-8.378906 0-16.144531 4.550781-20.273437 11.871094-.984375 1.753906-2.941407 2.746094-4.933594 2.511719-2-.234375-3.667969-1.644532-4.226563-3.582032-11.21875-38.894531-8.242187-70.875 8.613282-92.480468 41.988281-53.824219 82.339844-37.847656 93.707031-31.667969.117187.0625.15625.0625.273437 0 11.367188-6.179687 51.714844-22.160156 93.707032 31.667969 16.976562 21.765625 19.875 54.023437 8.375 93.292968-.574219 1.957032-2.277344 3.367188-4.308594 3.570313-.160156.011719-.324219.019531-.488281.019531zm-24.644531-25.203125c8.496093.105469 16.445312 3.414063 22.417968 9.066407 5.621094-23.898438 7.285156-53.425782-9.230468-74.597657-36.140626-46.324219-68.722657-35.738281-81.050782-29.03125-3.074218 1.671875-6.75 1.671875-9.824218 0-12.328126-6.707031-44.90625-17.292969-81.046876 29.03125-16.4375 21.070313-14.847656 50.421875-9.347656 74.117188 5.96875-5.382813 13.78125-8.519531 22.023438-8.585938.066406-.054687.132812-.109375.207031-.160156 5.609375-4.074219 15.445313-8.753906 30.308594-7.910156 40.519531 2.316406 61.492187-19.355469 68.617187-28.773438 1.597656-2.113281 4.21875-3.175781 6.828125-2.785156 2.625.398437 4.820313 2.195313 5.734375 4.699219 8.144532 22.378906 21.917969 30.554687 32.039063 33.476562.914062.261719 1.710937.777344 2.324219 1.453125zm0 0"/><path d="m230.855469 226.246094c-5.632813 0-10.980469-.539063-16.015625-1.617188-1.671875-.359375-3.042969-1.546875-3.636719-3.148437-.597656-1.601563-.332031-3.398438.703125-4.761719 10.09375-13.3125 17.109375-29.15625 20.289062-45.816406.476563-2.519532 2.765626-4.265625 5.347657-4.042969.671875.058594 1.351562.105469 2.039062.105469 5.992188 0 11.695313-2.292969 16.054688-6.460938 1.453125-1.382812 3.59375-1.769531 5.441406-.96875 1.84375.796875 3.035156 2.621094 3.011719 4.632813-.097656 10.332031 1.519531 19.375 4.800781 26.875 2.878906 6.566406 2.601563 14.011719-.753906 20.425781-3.457031 6.609375-9.636719 11.226562-16.957031 12.671875-7.105469 1.40625-13.898438 2.105469-20.324219 2.105469zm-6.21875-10.257813c7.515625.648438 15.753906.089844 24.609375-1.65625 4.328125-.855469 7.984375-3.585937 10.03125-7.496093 1.941406-3.710938 2.109375-8.007813.457031-11.78125-2.792969-6.386719-4.5625-13.625-5.28125-21.605469-4.117187 2.066406-8.632813 3.257812-13.304687 3.476562-3.167969 13.917969-8.800782 27.226563-16.511719 39.0625zm0 0"/><path d="m103.410156 226.242188c-6.417968 0-13.199218-.699219-20.289062-2.097657-7.320313-1.445312-13.5-6.0625-16.957032-12.671875-3.355468-6.417968-3.628906-13.859375-.753906-20.425781 3.234375-7.386719 4.851563-16.277344 4.804688-26.417969-.007813-1.980468 1.15625-3.78125 2.96875-4.585937 1.808594-.808594 3.925781-.46875 5.390625.863281 4.304687 3.910156 9.851562 6.0625 15.617187 6.0625.480469 0 .953125-.035156 1.425782-.070312.074218-.011719.140624-.019532.214843-.023438 2.585938-.25 4.871094 1.484375 5.375 3.992188.003907.023437.007813.050781.015625.078124 3.191406 16.714844 10.242188 32.59375 20.386719 45.925782 1.039063 1.371094 1.304687 3.179687.699219 4.792968-.609375 1.613282-2.003906 2.796876-3.695313 3.136719-4.796875.957031-9.875 1.441407-15.203125 1.441407zm-23.582031-52.558594c-.726563 7.890625-2.488281 15.050781-5.257813 21.371094-1.652343 3.773437-1.484374 8.066406.457032 11.78125 2.042968 3.910156 5.699218 6.640624 10.03125 7.496093 8.511718 1.679688 16.472656 2.253907 23.75 1.714844-7.734375-11.851563-13.375-25.1875-16.550782-39.140625-4.339843-.25-8.554687-1.355469-12.429687-3.222656zm0 0"/><path d="m166.625 296.625c-21.109375 0-40.988281-9.332031-54.535156-25.605469-.992188-1.1875-1.375-2.773437-1.039063-4.285156.335938-1.511719 1.355469-2.78125 2.757813-3.4375.894531-.421875 1.847656-.867187 2.898437-1.351563l3.742188-1.847656c4.179687-2.058594 6.777343-6.234375 6.777343-10.898437v-13.464844c0-1.976563 1.167969-3.769531 2.976563-4.570313 1.8125-.800781 3.917969-.457031 5.382813.871094 8.148437 7.398438 16.800781 13.230469 25.710937 17.335938 3.378906 1.554687 7.417969 1.554687 10.804687 0 9.292969-4.28125 18.273438-10.410156 26.699219-18.230469 1.453125-1.351563 3.574219-1.714844 5.402344-.917969 1.820313.792969 3 2.59375 3 4.582032v14.398437c0 4.660156 2.597656 8.835937 6.777344 10.898437l5.835937 2.878907c1.371094.671875 2.355469 1.933593 2.679688 3.425781.320312 1.492188-.050782 3.050781-1.023438 4.230469-13.546875 16.515625-33.539062 25.988281-54.847656 25.988281zm-42.425781-27.226562c11.335937 11.015624 26.46875 17.226562 42.425781 17.226562 16.164062 0 31.449219-6.351562 42.824219-17.617188-7.554688-3.777343-12.242188-11.355468-12.242188-19.808593v-3.582031c-6.71875 5.222656-13.722656 9.523437-20.917969 12.835937-6.003906 2.761719-13.167968 2.761719-19.167968 0-6.824219-3.140625-13.480469-7.179687-19.890625-12.054687v2.800781c0 8.496093-4.734375 16.109375-12.355469 19.867187zm0 0"/><path d="m203.882812 315.394531c-11.859374 0-23.03125-7.144531-33.339843-21.359375-1.042969-1.433594-1.246094-3.3125-.539063-4.9375.710938-1.621094 2.226563-2.75 3.984375-2.960937 15.585938-1.882813 29.703125-9.644531 39.742188-21.859375 1.476562-1.792969 3.992187-2.335938 6.074219-1.308594l15.929687 7.855469c1.960937.660156 4.359375 1.398437 7.710937 2.371093 1.414063.410157 2.578126 1.425782 3.175782 2.773438s.570312 2.890625-.078125 4.214844c-8.066407 16.5625-17.902344 27.421875-29.230469 32.277344-4.5625 1.957031-9.042969 2.933593-13.429688 2.933593zm-20.132812-20.898437c9.570312 10.496094 19.117188 13.269531 29.625 8.769531 7.90625-3.382813 15.105469-10.851563 21.453125-22.222656-.953125-.300781-1.8125-.582031-2.617187-.855469-.207032-.070312-.40625-.152344-.601563-.25l-12.773437-6.296875c-9.480469 10.324219-21.636719 17.527344-35.085938 20.855469zm0 0"/><path d="m129.367188 315.394531c-4.386719 0-8.867188-.976562-13.429688-2.933593-11.253906-4.824219-21.039062-15.574219-29.074219-31.957032-.644531-1.308594-.683593-2.839844-.105469-4.183594.578126-1.339843 1.71875-2.363281 3.117188-2.792968l1.3125-.398438c.609375-.183594 1.21875-.367187 1.820312-.5625 6.996094-2.25 7.578126-2.5625 10.378907-4.066406 1.859375-.996094 4.671875-2.503906 10.433593-5.210938 2.054688-.96875 4.507813-.421874 5.964844 1.324219 10.027344 12.019531 24.042969 19.664063 39.472656 21.523438 1.761719.210937 3.277344 1.335937 3.984376 2.960937.707031 1.625.503906 3.5-.535157 4.9375-10.308593 14.214844-21.480469 21.359375-33.339843 21.359375zm-30.808594-34.113281c6.316406 11.238281 13.472656 18.625 21.316406 21.988281 10.511719 4.5 20.054688 1.726563 29.625-8.773437-13.304688-3.292969-25.363281-10.386719-34.804688-20.539063-3.292968 1.59375-5.140624 2.589844-6.582031 3.359375-2.972656 1.59375-4.171875 2.1875-9.554687 3.964844zm0 0"/><path d="m196.3125 421.554688c-1.945312 0-3.878906-.5625-5.53125-1.632813-2.300781-1.5-3.914062-3.90625-4.425781-6.605469l-22.859375-120.816406c-.273438-1.4375.101562-2.925781 1.023437-4.066406.917969-1.140625 2.292969-1.820313 3.757813-1.859375 2.070312-.058594 3.945312-.1875 5.734375-.40625 1.804687-.21875 3.582031.558593 4.648437 2.027343 7.664063 10.558594 15.226563 16.125 23.121094 17.007813 2.058594.226563 3.769531 1.710937 4.285156 3.722656l24.246094 94.292969c.683594 2.65625.277344 5.410156-1.140625 7.757812-1.421875 2.34375-3.671875 3.984376-6.34375 4.613282l-24.210937 5.699218c-.757813.179688-1.53125.265626-2.304688.265626zm-21.265625-121.8125 21.128906 111.71875 24.363281-5.601563.089844-.148437-23.441406-91.160157c-7.8125-1.796875-15.117188-6.679687-22.140625-14.808593zm0 0"/><path d="m137.460938 421.554688c-.769532 0-1.542969-.089844-2.304688-.265626l-24.207031-5.699218c-2.671875-.628906-4.925781-2.269532-6.34375-4.617188-1.421875-2.34375-1.824219-5.101562-1.140625-7.753906l24.261718-94.347656c.503907-1.972656 2.160157-3.441406 4.175782-3.710938 7.734375-1.035156 15.15625-6.585937 22.691406-16.960937 1.070312-1.46875 2.847656-2.25 4.648438-2.027344 1.960937.238281 4.050781.378906 6.214843.417969 1.46875.03125 2.855469.707031 3.785157 1.847656.929687 1.140625 1.308593 2.636719 1.035156 4.082031l-22.855469 120.800781c-.511719 2.703126-2.125 5.109376-4.429687 6.605469-1.652344 1.070313-3.585938 1.628907-5.53125 1.628907zm-.839844-107.132813-23.476563 91.289063 24.304688 5.84375 21.417969-112.585938c-7.0625 8.398438-14.398438 13.492188-22.246094 15.453125zm0 0"/></g></svg>