<svg height="512pt" viewBox="-91 0 512 512" width="512pt" xmlns="http://www.w3.org/2000/svg"><path d="m316.421875 359.269531c-.726563-13.074219-9.875-24.160156-22.574219-27.359375l-41.4375-10.429687c-7.1875-1.808594-14.300781-3.910157-21.320312-6.296875l-6.46875-3.1875c.015625.601562-.179688 1.207031-.613282 1.683594-22.15625 24.175781-47.921874 24.21875-47.921874 24.21875h-23.011719s-25.769531-.046876-47.921875-24.21875c-.4375-.476563-.628906-1.082032-.617188-1.683594l-5.40625 2.664062c-7.722656 2.738282-15.570312 5.109375-23.519531 7.109375l-40.296875 10.144531c-12.703125 3.195313-21.847656 14.28125-22.578125 27.359376l-7.722656 138.609374c-.273438 4.953126 3.664062 9.117188 8.625 9.117188h301.882812c4.960938 0 8.898438-4.164062 8.625-9.117188zm0 0" fill="#e8e6e6"/><path d="m232.328125 165.851562v54.992188c13.550781-1.851562 24-13.441406 24-27.496094.003906-14.058594-10.449219-25.644531-24-27.496094zm0 0" fill="#fcb275"/><path d="m227.035156 157.804688c-3.265625-1.140626-6.902344-2.878907-10.585937-5.46875h-48.945313c-5.621094 2.707031-12.71875 5.074218-21.859375 6.8125-33.546875 6.390624-52.132812 27.929687-51.074219 48.414062v21.875c0 32.628906 26.449219 59.082031 59.082032 59.082031h19.59375c32.628906 0 59.082031-26.453125 59.082031-59.082031v-64.273438c0-3.339843-2.140625-6.261718-5.292969-7.359374zm0 0" fill="#fcb275"/><path d="m255.636719 152.335938h-39.1875c3.683593 2.589843 7.320312 4.328124 10.585937 5.46875 3.152344 1.097656 5.292969 4.019531 5.292969 7.359374v.6875c11.632813 1.589844 20.960937 10.359376 23.371094 21.703126v-35.191407c0-.011719 0-.023437 0-.035156-.019531 0-.042969.007813-.0625.007813zm0 0" fill="#7c292e"/><path d="m73.523438 152.335938c-.238282 0-.46875-.03125-.695313-.070313v.097656 64.808594c0 19.917969 12.519531 37.6875 31.28125 44.386719-6.015625-9.25-9.539063-20.265625-9.539063-32.121094v-21.875c-1.058593-20.484375 17.527344-42.023438 51.074219-48.410156 9.140625-1.742188 16.238281-4.109375 21.859375-6.8125h-93.980468zm0 0" fill="#7c292e"/><path d="m255.699219 216.613281v-17.476562c-2.410157 11.34375-11.738281 20.117187-23.371094 21.707031v8.59375c0 11.855469-3.519531 22.871094-9.535156 32.121094l.929687-.316406c19.117188-6.488282 31.976563-24.4375 31.976563-44.628907zm0 0" fill="#7c292e"/><path d="m255.636719 128.335938h-182.113281c-2.183594 0-3.957032 1.769531-3.957032 3.953124v16.089844c0 2.183594 1.769532 3.957032 3.957032 3.957032h182.109374c2.183594 0 3.957032-1.773438 3.957032-3.957032v-16.089844c0-2.183593-1.769532-3.953124-3.953125-3.953124zm0 0" fill="#30a9e5"/><path d="m248.261719 88.242188c9.621093-7.273438 15.542969-19.175782 14.375-32.414063-1.550781-17.523437-15.84375-31.667969-33.375-33.082031-9.15625-.734375-17.640625 1.949218-24.402344 6.863281-7.523437-14.605469-22.71875-24.609375-40.28125-24.609375-17.558594 0-32.753906 10.003906-40.277344 24.609375-6.765625-4.914063-15.246093-7.597656-24.40625-6.863281-17.53125 1.414062-31.824219 15.558594-33.371093 33.078125-1.171876 13.242187 4.75 25.144531 14.375 32.414062 1.503906 1.136719 2.183593 3.058594 1.722656 4.886719l-8.800782 35.210938h181.519532l-8.804688-35.210938c-.457031-1.828125.222656-3.746094 1.726563-4.882812zm0 0" fill="#e8e6e6"/><path d="m223.839844 310.222656-13.449219-12.390625c-2.191406-2.015625-5.59375-1.75-7.484375.542969-3.863281 4.683594-11.222656 11.554688-22.082031 13.164062-2.722657.40625-4.742188 2.738282-4.742188 5.492188v20.867188s25.769531-.046876 47.921875-24.222657c.910156-.988281.824219-2.542969-.164062-3.453125zm0 0" fill="#30a9e5"/><path d="m148.332031 311.542969c-10.859375-1.609375-18.21875-8.484375-22.078125-13.164063-1.894531-2.292968-5.296875-2.5625-7.484375-.542968l-13.453125 12.390624c-.988281.910157-1.070312 2.464844-.164062 3.453126 22.15625 24.175781 47.921875 24.222656 47.921875 24.222656v-20.867188c0-2.753906-2.019531-5.089844-4.742188-5.492187zm0 0" fill="#30a9e5"/><path d="m199.519531 282.359375c-7.917969 3.9375-16.832031 6.164063-26.273437 6.164063h-19.59375c-8.554688 0-16.671875-1.832032-24.011719-5.101563v5.546875c0 3.5625-1.140625 6.9375-3.097656 9.753906 3.933593 4.667969 11.1875 11.25 21.789062 12.820313 2.722657.40625 4.738281 2.738281 4.738281 5.492187v3.109375h23.011719v-3.109375c0-2.753906 2.019531-5.085937 4.742188-5.492187 10.601562-1.570313 17.855469-8.152344 21.785156-12.820313-1.957031-2.816406-3.09375-6.191406-3.09375-9.753906v-6.609375zm0 0" fill="#fcb275"/><path d="m153.074219 320.140625h23.007812v17.757813h-23.007812zm0 0" fill="#e8e6e6"/><path d="m187.847656 376.480469c0 5.25-4.253906 9.503906-9.503906 9.503906s-9.507812-4.253906-9.507812-9.503906 4.257812-9.507813 9.507812-9.507813 9.503906 4.257813 9.503906 9.507813zm0 0" fill="#fcc494"/><path d="m187.847656 422.109375c0 5.25-4.253906 9.507813-9.503906 9.507813s-9.507812-4.257813-9.507812-9.507813 4.257812-9.503906 9.507812-9.503906 9.503906 4.253906 9.503906 9.503906zm0 0" fill="#fcc494"/><path d="m187.847656 467.738281c0 5.25-4.253906 9.503907-9.503906 9.503907s-9.507812-4.253907-9.507812-9.503907 4.257812-9.507812 9.507812-9.507812 9.503906 4.257812 9.503906 9.507812zm0 0" fill="#fcc494"/><g fill="#231f20"><path d="m164.695312 254.933594c-5.878906 0-11.242187-2.082032-14.714843-5.722656-1.90625-1.996094-1.832031-5.160157.164062-7.070313 1.996094-1.90625 5.164063-1.832031 7.070313.164063 1.210937 1.269531 3.816406 2.628906 7.484375 2.628906 3.664062 0 6.269531-1.359375 7.484375-2.628906 1.90625-1.996094 5.070312-2.070313 7.070312-.160157 1.996094 1.90625 2.066406 5.070313.160156 7.070313-3.476562 3.632812-8.839843 5.71875-14.71875 5.71875zm0 0"/><path d="m180.367188 188.558594c-1.789063 0-3.519532-.960938-4.417969-2.65625-1.296875-2.4375-.371094-5.464844 2.066406-6.761719 2.835937-1.503906 7.097656-2.371094 11.703125-2.371094s8.867188.863281 11.703125 2.371094c2.4375 1.296875 3.359375 4.328125 2.066406 6.761719-1.296875 2.441406-4.328125 3.367187-6.761719 2.066406-1.125-.597656-3.726562-1.199219-7.003906-1.199219-3.28125 0-5.882812.605469-7.007812 1.203125-.753906.398438-1.554688.585938-2.347656.585938zm0 0"/><path d="m148.789062 188.558594c-.789062 0-1.59375-.1875-2.34375-.585938-1.121093-.597656-3.722656-1.203125-7.003906-1.203125s-5.882812.605469-7.007812 1.203125c-2.4375 1.292969-5.460938.371094-6.761719-2.070312-1.296875-2.4375-.371094-5.464844 2.070313-6.761719 2.832031-1.503906 7.097656-2.371094 11.699218-2.371094 4.605469 0 8.871094.863281 11.703125 2.371094 2.4375 1.296875 3.363281 4.324219 2.070313 6.761719-.902344 1.691406-2.632813 2.65625-4.425782 2.65625zm0 0"/><path d="m140.1875 206.71875c-3.316406 0-6-2.6875-6-6v-1.023438c0-3.3125 2.683594-6 6-6 3.3125 0 6 2.6875 6 6v1.023438c0 3.3125-2.6875 6-6 6zm0 0"/><path d="m189.203125 207.503906c-3.3125 0-6-2.6875-6-6v-1.023437c0-3.316407 2.6875-6 6-6s6 2.683593 6 6v1.023437c0 3.3125-2.6875 6-6 6zm0 0"/><path d="m267.359375 512c-2.761719 0-5-2.238281-5-5v-112.160156c0-2.761719 2.238281-5 5-5s5 2.238281 5 5v112.160156c0 2.761719-2.238281 5-5 5zm0 0"/><path d="m61.800781 512c-2.765625 0-5-2.238281-5-5v-112.160156c0-2.761719 2.234375-5 5-5 2.761719 0 5 2.238281 5 5v112.160156c0 2.761719-2.238281 5-5 5zm0 0"/><path d="m119.101562 133.335938c-2.761718 0-5-2.238282-5-5v-26.003907c0-2.761719 2.238282-5 5-5 2.761719 0 5 2.238281 5 5v26.003907c0 2.761718-2.238281 5-5 5zm0 0"/><path d="m163.105469 133.335938c-2.761719 0-5-2.238282-5-5v-26.003907c0-2.761719 2.238281-5 5-5s5 2.238281 5 5v26.003907c0 2.761718-2.238281 5-5 5zm0 0"/><path d="m207.109375 133.335938c-2.761719 0-5-2.238282-5-5v-26.003907c0-2.761719 2.238281-5 5-5s5 2.238281 5 5v26.003907c0 2.761718-2.238281 5-5 5zm0 0"/><path d="m153.074219 512c-2.761719 0-5-2.238281-5-5v-176.019531c0-2.761719 2.238281-5 5-5s5 2.238281 5 5v176.019531c0 2.761719-2.238281 5-5 5zm0 0"/><path d="m315.519531 512h-301.882812c-3.730469 0-7.34375-1.554688-9.90625-4.265625-2.566407-2.710937-3.917969-6.40625-3.7109378-10.128906l7.7226568-138.613281c.851562-15.34375 11.441406-28.175782 26.347656-31.925782l40.300781-10.144531c7.667969-1.929687 15.335937-4.242187 22.792969-6.875l5.140625-2.535156c1.5625-.773438 3.417969-.671875 4.890625.265625 1.136718.71875 1.921875 1.863281 2.203125 3.152344 20.296875 21.675781 43.429687 21.96875 43.664062 21.96875h23c.207031 0 23.507813-.464844 43.65625-21.96875.28125-1.289063 1.0625-2.429688 2.203125-3.152344 1.46875-.9375 3.324219-1.039063 4.890625-.265625l6.175781 3.042969c6.757813 2.292968 13.691407 4.335937 20.621094 6.078124l41.4375 10.429688c14.90625 3.75 25.496094 16.582031 26.347656 31.929688l7.722657 138.613281c.207031 3.722656-1.144531 7.414062-3.710938 10.125-2.5625 2.714843-6.171875 4.269531-9.90625 4.269531zm-212.753906-193.554688-1.425781.699219c-.175782.085938-.355469.164063-.539063.230469-7.839843 2.773438-15.902343 5.210938-23.96875 7.242188l-40.300781 10.144531c-10.636719 2.675781-18.191406 11.832031-18.800781 22.785156l-7.722657 138.613281c-.054687 1.007813.296876 1.964844.988282 2.699219.695312.734375 1.632812 1.136719 2.644531 1.136719h301.882813c1.007812 0 1.949218-.402344 2.640624-1.136719.695313-.734375 1.042969-1.691406.988282-2.699219l-7.71875-138.613281c-.609375-10.949219-8.167969-20.105469-18.804688-22.785156l-41.4375-10.429688c-7.292968-1.835937-14.597656-3.992187-21.707031-6.414062-.207031-.070313-.40625-.152344-.601563-.25l-2.484374-1.226563c-23.0625 24.125-49.179688 24.457032-50.300782 24.457032h-23.019531c-1.136719 0-27.25-.332032-50.3125-24.453126zm0 0"/><path d="m232.328125 225.84375c-1.203125 0-2.371094-.4375-3.289063-1.234375-1.085937-.953125-1.710937-2.324219-1.710937-3.765625v-54.992188c0-1.445312.625-2.816406 1.710937-3.765624 1.089844-.949219 2.535157-1.382813 3.964844-1.1875 16.148438 2.203124 28.324219 16.152343 28.324219 32.449218s-12.175781 30.246094-28.324219 32.449219c-.222656.03125-.449218.046875-.675781.046875zm5-53.488281v41.984375c8.277344-3.46875 14-11.679688 14-20.992188 0-9.316406-5.722656-17.523437-14-20.992187zm0 0"/><path d="m173.246094 293.519531h-19.59375c-35.335938 0-64.082032-28.746093-64.082032-64.082031v-21.75c-1.210937-25.0625 21.4375-47.03125 55.136719-53.449219 8.035157-1.53125 14.972657-3.6875 20.628907-6.410156.675781-.324219 1.417968-.492187 2.167968-.492187h48.941406c1.03125 0 2.035157.316406 2.878907.90625 2.945312 2.074218 6.09375 3.703124 9.355469 4.835937 5.171874 1.808594 8.648437 6.664063 8.648437 12.085937v64.269532c0 35.339844-28.746094 64.085937-64.082031 64.085937zm-4.625-136.183593c-6.285156 2.898437-13.507813 5.101562-22.039063 6.726562-24.238281 4.617188-48.171875 20.953125-47.019531 43.242188.003906.085937.007812.171874.007812.257812v21.875c0 29.824219 24.261719 54.085938 54.082032 54.085938h19.59375c29.820312 0 54.082031-24.261719 54.082031-54.085938v-64.273438c0-1.191406-.761719-2.226562-1.941406-2.640624-3.640625-1.269532-7.15625-3.011719-10.472657-5.1875zm0 0"/><path d="m255.695312 192.554688c-2.332031 0-4.386718-1.628907-4.882812-3.957032-1.988281-9.351562-9.691406-16.5-19.160156-17.792968-2.476563-.335938-4.324219-2.453126-4.324219-4.953126v-.6875c0-1.191406-.761719-2.226562-1.941406-2.640624-4.132813-1.441407-8.109375-3.492188-11.8125-6.097657-1.785157-1.253906-2.550781-3.519531-1.890625-5.597656.65625-2.082031 2.585937-3.492187 4.765625-3.492187h38.992187.042969c1.34375-.0625 2.691406.4375 3.675781 1.382812.949219.910156 1.503906 2.160156 1.539063 3.472656v.171875 35.195313c0 2.558594-1.929688 4.707031-4.472657 4.972656-.179687.015625-.355468.023438-.53125.023438zm-18.863281-30.898438c5.238281 1.367188 9.980469 4.003906 13.867188 7.574219v-11.894531h-16.078125c1 1.28125 1.753906 2.746093 2.210937 4.320312zm0 0"/><path d="m104.109375 266.558594c-.5625 0-1.128906-.09375-1.679687-.292969-20.695313-7.390625-34.601563-27.121094-34.601563-49.097656v-64.804688c0-.054687.003906-.152343.003906-.203125.042969-1.453125.71875-2.835937 1.84375-3.75 1.117188-.90625 2.570313-1.3125 3.984375-1.074218h93.847656c2.332032 0 4.355469 1.613281 4.875 3.886718.519532 2.273438-.605468 4.605469-2.707031 5.621094-6.523437 3.140625-14.078125 5.503906-23.09375 7.21875-24.238281 4.617188-48.167969 20.953125-47.015625 43.242188.003906.085937.003906.171874.003906.257812v21.878906c0 10.445313 3.019532 20.609375 8.734376 29.394532 1.167968 1.796874 1.058593 4.140624-.269532 5.824218-.96875 1.222656-2.425781 1.898438-3.925781 1.898438zm-26.28125-109.222656v59.835937c0 12.597656 5.652344 24.28125 14.910156 32.140625-2.089843-6.378906-3.167969-13.078125-3.167969-19.875v-21.75c-1.0625-21.941406 16.167969-41.511719 43.089844-50.351562zm-4.125-9.992188h.019531zm0 0"/><path d="m222.792969 266.558594c-1.511719 0-2.980469-.6875-3.945313-1.929688-1.308594-1.683594-1.40625-4.007812-.246094-5.792968 5.707032-8.785157 8.726563-18.949219 8.726563-29.398438v-8.59375c0-2.5 1.84375-4.617188 4.324219-4.953125 9.46875-1.292969 17.167968-8.441406 19.15625-17.789063.53125-2.503906 2.859375-4.207031 5.414062-3.933593 2.542969.269531 4.476563 2.414062 4.476563 4.972656v17.472656c0 22.34375-14.214844 42.183594-35.375 49.367188l-.921875.3125c-.527344.179687-1.070313.265625-1.609375.265625zm14.535156-41.65625v4.535156c0 7.167969-1.195313 14.226562-3.515625 20.917969 10.210938-7.640625 16.613281-19.679688 16.878906-32.882813-3.761718 3.453125-8.324218 6.03125-13.363281 7.429688zm0 0"/><path d="m255.636719 157.335938h-182.113281c-4.9375 0-8.957032-4.019532-8.957032-8.957032v-16.089844c0-4.9375 4.019532-8.953124 8.957032-8.953124h182.113281c4.9375 0 8.953125 4.015624 8.953125 8.953124v16.089844c0 4.9375-4.015625 8.957032-8.953125 8.957032zm-181.066407-10h180.019532v-14h-180.019532zm181.066407-14h.019531zm0 0"/><path d="m255.339844 133.335938h-181.519532c-1.542968 0-2.996093-.710938-3.945312-1.925782-.945312-1.210937-1.28125-2.792968-.90625-4.289062l8.753906-35.011719c-11.398437-8.699219-17.445312-22.410156-16.183594-36.722656 1.753907-19.84375 18.070313-36.019531 37.953126-37.621094 8.027343-.648437 16.0625 1.066406 23.09375 4.871094 9.261718-14.085938 24.90625-22.636719 41.992187-22.636719s32.730469 8.550781 41.992187 22.632812c7.035157-3.804687 15.070313-5.515624 23.09375-4.871093 19.882813 1.601562 36.199219 17.777343 37.953126 37.621093 1.265624 14.3125-4.78125 28.023438-16.179688 36.722657l8.75 35.011719c.375 1.496093.039062 3.078124-.910156 4.289062-.945313 1.21875-2.398438 1.929688-3.9375 1.929688zm-175.117188-10h168.710938l-7.25-28.996094c-.941406-3.777344.457031-7.734375 3.5625-10.085938 8.734375-6.601562 13.371094-17.0625 12.40625-27.984375-1.328125-15.054687-13.707032-27.320312-28.792969-28.539062-7.597656-.601563-14.882813 1.4375-21.0625 5.921875-1.179687.859375-2.679687 1.15625-4.09375.820312-1.417969-.335937-2.621094-1.277344-3.289063-2.574218-6.960937-13.507813-20.691406-21.898438-35.835937-21.898438s-28.875 8.390625-35.835937 21.894531c-.667969 1.296875-1.871094 2.238281-3.289063 2.574219-1.414063.339844-2.914063.039062-4.09375-.816406-6.175781-4.488282-13.472656-6.535156-21.0625-5.921875-15.085937 1.214843-27.464844 13.484375-28.792969 28.535156-.964844 10.921875 3.675782 21.382813 12.410156 27.988281 3.109376 2.351563 4.503907 6.308594 3.558594 10.085938zm171.054688-31.105469c0-.003907 0-.003907 0 0zm0 0"/><path d="m176.082031 342.898438c-1.324219 0-2.59375-.523438-3.53125-1.457032-.941406-.9375-1.46875-2.210937-1.46875-3.542968v-20.867188c0-5.1875 3.875-9.671875 9.007813-10.433594 9-1.335937 15.277344-6.9375 18.957031-11.402344 1.78125-2.160156 4.394531-3.503906 7.175781-3.699218 2.761719-.1875 5.515625.777344 7.554688 2.65625l13.453125 12.390625c3.015625 2.78125 3.226562 7.496093.460937 10.511719-23.425781 25.566406-50.597656 25.871093-51.609375 25.84375zm26.824219-44.523438 3.855469 3.179688c-3.925781 4.761718-12.417969 13.039062-25.203125 14.929687-.273438.042969-.476563.277344-.476563.546875v15.308594c7.757813-1.308594 23.269531-5.667969 37.480469-20.1875l-11.5625-10.644532zm17.546875 15.527344h.023437zm-.003906-.003906h.003906zm0 0"/><path d="m153.074219 342.898438c-.003907 0-.007813 0-.007813 0-1.144531 0-28.234375-.34375-51.601562-25.84375-2.761719-3.015626-2.554688-7.730469.464844-10.507813l13.453124-12.394531c2.035157-1.875 4.785157-2.84375 7.550782-2.65625 2.78125.191406 5.394531 1.539062 7.175781 3.699218 3.679687 4.464844 9.957031 10.066407 18.957031 11.402344 5.132813.761719 9.007813 5.246094 9.007813 10.433594v20.867188c0 1.328124-.53125 2.601562-1.46875 3.542968-.9375.933594-2.207031 1.457032-3.53125 1.457032zm-42.476563-30.742188c14.207032 14.515625 29.710938 18.878906 37.476563 20.1875v-15.3125c0-.269531-.207031-.503906-.476563-.542969-12.78125-1.894531-21.277344-10.167969-25.203125-14.929687l-3.625-3.726563 3.386719 3.679688zm0 0"/><path d="m176.085938 325.140625h-23.011719c-2.761719 0-5-2.238281-5-5v-3.109375c0-.269531-.207031-.503906-.476563-.542969-11.925781-1.769531-20.109375-8.886719-24.878906-14.546875-1.457031-1.726562-1.570312-4.21875-.28125-6.074218 1.4375-2.074219 2.203125-4.460938 2.203125-6.902344v-5.546875c0-1.695313.855469-3.273438 2.277344-4.195313s3.207031-1.0625 4.757812-.371094c6.953125 3.097657 14.347657 4.667969 21.976563 4.667969h19.59375c8.429687 0 16.523437-1.898437 24.042968-5.640625 1.550782-.769531 3.386719-.6875 4.863282.226563 1.46875.914062 2.367187 2.519531 2.367187 4.25v6.609375c0 2.441406.757813 4.828125 2.199219 6.898437 1.292969 1.855469 1.175781 4.347657-.28125 6.078125-4.765625 5.660156-12.949219 12.777344-24.878906 14.542969-.269532.042969-.472656.277344-.472656.546875v3.109375c0 2.761719-2.238282 5-5 5zm-18.183594-10h13.355468c.808594-4.351563 4.335938-7.878906 8.835938-8.542969 7.183594-1.066406 12.636719-4.871094 16.386719-8.585937-1.164063-2.5625-1.824219-5.308594-1.941407-8.117188-6.808593 2.410157-13.941406 3.628907-21.292968 3.628907h-19.589844c-6.535156 0-12.925781-.972657-19.078125-2.898438-.191406 2.554688-.835937 5.046875-1.898437 7.386719 3.75 3.714843 9.203124 7.523437 16.390624 8.585937 4.496094.664063 8.023438 4.191406 8.832032 8.542969zm0 0"/><path d="m176.082031 342.898438h-23.007812c-2.761719 0-5-2.238282-5-5v-17.757813c0-2.761719 2.238281-5 5-5h23.007812c2.761719 0 5 2.238281 5 5v17.757813c0 2.761718-2.238281 5-5 5zm-18.007812-10h13.007812v-7.757813h-13.007812zm0 0"/><path d="m178.34375 390.984375c-8 0-14.507812-6.503906-14.507812-14.503906s6.507812-14.507813 14.507812-14.507813 14.503906 6.507813 14.503906 14.507813-6.503906 14.503906-14.503906 14.503906zm0-19.011719c-2.484375 0-4.507812 2.023438-4.507812 4.507813s2.023437 4.503906 4.507812 4.503906 4.503906-2.019531 4.503906-4.503906-2.019531-4.507813-4.503906-4.507813zm0 0"/><path d="m178.34375 436.617188c-8 0-14.507812-6.507813-14.507812-14.507813s6.507812-14.503906 14.507812-14.503906 14.503906 6.503906 14.503906 14.503906-6.503906 14.507813-14.503906 14.507813zm0-19.011719c-2.484375 0-4.507812 2.019531-4.507812 4.503906s2.023437 4.507813 4.507812 4.507813 4.503906-2.023438 4.503906-4.507813-2.019531-4.503906-4.503906-4.503906zm0 0"/><path d="m178.34375 482.242188c-8 0-14.507812-6.503907-14.507812-14.503907s6.507812-14.507812 14.507812-14.507812 14.503906 6.507812 14.503906 14.507812-6.503906 14.503907-14.503906 14.503907zm0-19.011719c-2.484375 0-4.507812 2.023437-4.507812 4.507812s2.023437 4.503907 4.507812 4.503907 4.503906-2.019532 4.503906-4.503907-2.019531-4.507812-4.503906-4.507812zm0 0"/></g></svg>