<svg height="512pt" viewBox="-91 0 512 512" width="512pt" xmlns="http://www.w3.org/2000/svg"><path d="m316.421875 359.269531c-.726563-13.074219-9.875-24.160156-22.574219-27.359375l-41.4375-10.429687c-7.1875-1.808594-14.300781-3.910157-21.320312-6.296875l-6.46875-3.1875c.015625.601562-.179688 1.207031-.613282 1.683594-22.15625 24.175781-47.921874 24.21875-47.921874 24.21875h-23.011719s-25.769531-.046876-47.921875-24.21875c-.4375-.476563-.628906-1.082032-.617188-1.683594l-5.40625 2.664062c-7.722656 2.738282-15.570312 5.109375-23.519531 7.109375l-40.296875 10.144531c-12.703125 3.195313-21.847656 14.28125-22.578125 27.359376l-7.722656 138.609374c-.273438 4.953126 3.664062 9.117188 8.625 9.117188h301.882812c4.960938 0 8.898438-4.164062 8.625-9.117188zm0 0" fill="#e8e6e6"/><path d="m187.847656 376.480469c0 5.25-4.253906 9.503906-9.503906 9.503906s-9.507812-4.253906-9.507812-9.503906 4.257812-9.507813 9.507812-9.507813 9.503906 4.257813 9.503906 9.507813zm0 0" fill="#fcbd4c"/><path d="m187.847656 422.109375c0 5.25-4.253906 9.507813-9.503906 9.507813s-9.507812-4.257813-9.507812-9.507813 4.257812-9.503906 9.507812-9.503906 9.503906 4.253906 9.503906 9.503906zm0 0" fill="#fcbd4c"/><path d="m187.847656 467.738281c0 5.25-4.253906 9.503907-9.503906 9.503907s-9.507812-4.253907-9.507812-9.503907 4.257812-9.507812 9.507812-9.507812 9.503906 4.257812 9.503906 9.507812zm0 0" fill="#fcbd4c"/><path d="m240.003906 165.65625v55.054688c0 .164062-.011718.328124-.011718.492187 14.558593-.917969 26.09375-12.984375 26.09375-27.773437 0-14.785157-11.527344-26.851563-26.082032-27.773438zm0 0" fill="#fcb275"/><path d="m89.15625 220.714844v-55.058594c-14.554688.921875-26.082031 12.984375-26.082031 27.773438 0 14.792968 11.535156 26.859374 26.09375 27.773437 0-.164063-.011719-.324219-.011719-.488281zm0 0" fill="#fcb275"/><path d="m255.636719 128.335938h-182.113281c-2.183594 0-3.957032 1.769531-3.957032 3.953124v16.089844c0 2.183594 1.769532 3.957032 3.957032 3.957032h182.109374c2.183594 0 3.957032-1.773438 3.957032-3.957032v-16.089844c0-2.183593-1.769532-3.953124-3.953125-3.953124zm0 0" fill="#fc5d4c"/><path d="m255.636719 152.335938h-15.632813v13.320312c5.945313.378906 11.367188 2.636719 15.722656 6.15625v-19.488281c-.03125.003906-.0625.011719-.089843.011719zm0 0" fill="#7c292e"/><path d="m89.15625 152.335938v68.378906c0 37.117187 30.089844 67.207031 67.207031 67.207031h16.433594c37.117187 0 67.207031-30.09375 67.207031-67.207031 0-20.917969 0-38.164063 0-68.378906zm0 0" fill="#fcb275"/><path d="m73.523438 152.335938c-.03125 0-.0625-.007813-.09375-.011719v19.488281c4.355468-3.519531 9.777343-5.777344 15.726562-6.15625 0-4.761719 0-9.273438 0-13.320312zm0 0" fill="#7c292e"/><path d="m248.261719 88.242188c9.621093-7.273438 15.542969-19.175782 14.375-32.414063-1.550781-17.523437-15.84375-31.667969-33.375-33.082031-9.15625-.734375-17.640625 1.949218-24.402344 6.863281-7.523437-14.605469-22.71875-24.609375-40.28125-24.609375-17.558594 0-32.753906 10.003906-40.277344 24.609375-6.765625-4.914063-15.246093-7.597656-24.40625-6.863281-17.53125 1.414062-31.824219 15.558594-33.371093 33.078125-1.171876 13.242187 4.75 25.144531 14.375 32.414062 1.503906 1.136719 2.183593 3.058594 1.722656 4.886719l-8.800782 35.210938h181.519532l-8.804688-35.210938c-.457031-1.828125.222656-3.746094 1.726563-4.882812zm0 0" fill="#e8e6e6"/><path d="m223.839844 310.222656-13.449219-12.390625c-2.191406-2.015625-5.59375-1.75-7.484375.542969-3.863281 4.683594-11.222656 11.554688-22.082031 13.164062-2.722657.40625-4.742188 2.738282-4.742188 5.492188v20.867188s25.769531-.046876 47.921875-24.222657c.910156-.988281.824219-2.542969-.164062-3.453125zm0 0" fill="#fc5d4c"/><path d="m148.332031 311.542969c-10.859375-1.609375-18.21875-8.484375-22.078125-13.164063-1.894531-2.292968-5.296875-2.5625-7.484375-.542968l-13.453125 12.390624c-.988281.910157-1.070312 2.464844-.164062 3.453126 22.15625 24.175781 47.921875 24.222656 47.921875 24.222656v-20.867188c0-2.753906-2.019531-5.089844-4.742188-5.492187zm0 0" fill="#fc5d4c"/><path d="m148.332031 311.542969c2.722657.402343 4.742188 2.738281 4.742188 5.488281v3.109375h23.011719v-3.109375c0-2.75 2.015624-5.085938 4.738281-5.488281 10.601562-1.574219 17.859375-8.152344 21.789062-12.820313-1.957031-2.820312-3.097656-6.191406-3.097656-9.757812v-6.582032c-8.191406 3.554688-17.222656 5.539063-26.722656 5.539063h-16.433594c-9.496094 0-18.527344-1.984375-26.71875-5.539063v6.582032c0 3.566406-1.140625 6.9375-3.097656 9.757812 3.933593 4.667969 11.1875 11.246094 21.789062 12.820313zm0 0" fill="#fcb275"/><path d="m172.730469 216.699219c-4.449219-.125-8.152344 3.382812-8.152344 7.832031v5.007812c0 2.539063 2.054687 4.582032 4.589844 4.589844 6.800781.019532 19.765625.976563 29.390625 7.207032 6.84375 4.429687 14.414062-4.351563 9.210937-10.535157-6.347656-7.546875-17.054687-13.609375-35.039062-14.101562zm0 0" fill="#7c292e"/><path d="m164.578125 229.539062v-5.007812c0-4.449219-3.703125-7.957031-8.152344-7.832031-17.984375.492187-28.691406 6.554687-35.039062 14.101562-5.203125 6.179688 2.359375 14.96875 9.210937 10.535157 9.621094-6.230469 22.585938-7.1875 29.386719-7.207032 2.539063-.007812 4.59375-2.050781 4.59375-4.589844zm0 0" fill="#7c292e"/><path d="m153.074219 320.140625h23.007812v17.757813h-23.007812zm0 0" fill="#e8e6e6"/><g fill="#231f20"><path d="m315.519531 512h-301.882812c-3.730469 0-7.34375-1.554688-9.90625-4.265625-2.566407-2.710937-3.917969-6.40625-3.7109378-10.128906l7.7226568-138.613281c.851562-15.34375 11.441406-28.175782 26.347656-31.925782l40.300781-10.144531c7.667969-1.929687 15.335937-4.242187 22.792969-6.875l5.140625-2.535156c1.5625-.773438 3.417969-.671875 4.890625.265625 1.136718.71875 1.921875 1.863281 2.203125 3.152344 20.296875 21.675781 43.429687 21.96875 43.664062 21.96875h23c.207031 0 23.507813-.464844 43.65625-21.96875.28125-1.289063 1.0625-2.429688 2.203125-3.152344 1.46875-.9375 3.324219-1.039063 4.890625-.265625l6.175781 3.042969c6.757813 2.292968 13.691407 4.335937 20.621094 6.078124l41.4375 10.429688c14.90625 3.75 25.496094 16.582031 26.347656 31.929688l7.722657 138.613281c.207031 3.722656-1.144531 7.414062-3.710938 10.125-2.5625 2.714843-6.171875 4.269531-9.90625 4.269531zm-212.753906-193.554688-1.425781.699219c-.175782.085938-.355469.164063-.539063.230469-7.839843 2.773438-15.902343 5.210938-23.96875 7.242188l-40.300781 10.144531c-10.636719 2.675781-18.191406 11.832031-18.800781 22.785156l-7.722657 138.613281c-.054687 1.007813.296876 1.964844.988282 2.699219.695312.734375 1.632812 1.136719 2.644531 1.136719h301.882813c1.007812 0 1.949218-.402344 2.640624-1.136719.695313-.734375 1.042969-1.691406.988282-2.699219l-7.71875-138.613281c-.609375-10.949219-8.167969-20.105469-18.804688-22.785156l-41.4375-10.429688c-7.292968-1.835937-14.597656-3.992187-21.707031-6.414062-.207031-.070313-.40625-.152344-.601563-.25l-2.484374-1.226563c-23.0625 24.125-49.179688 24.457032-50.300782 24.457032h-23.019531c-1.136719 0-27.25-.332032-50.3125-24.453126zm0 0"/><path d="m164.707031 255.605469c-8.960937 0-17.308593-4.4375-22.332031-11.871094-1.546875-2.289063-.945312-5.394531 1.34375-6.941406 2.289062-1.542969 5.394531-.945313 6.941406 1.34375 3.160156 4.675781 8.410156 7.46875 14.042969 7.46875 5.636719 0 10.886719-2.792969 14.046875-7.46875 1.542969-2.289063 4.648438-2.890625 6.941406-1.34375 2.289063 1.546875 2.890625 4.652343 1.34375 6.941406-5.019531 7.433594-13.367187 11.871094-22.328125 11.871094zm0 0"/><path d="m202.339844 179.53125c-.789063 0-1.59375-.1875-2.34375-.585938-1.1875-.632812-3.96875-1.371093-7.894532-1.371093-3.921874 0-6.703124.738281-7.894531 1.371093-2.433593 1.296876-5.464843.371094-6.761719-2.066406-1.292968-2.4375-.371093-5.464844 2.066407-6.761718 3.039062-1.617188 7.625-2.542969 12.589843-2.542969 4.964844 0 9.554688.925781 12.589844 2.542969 2.4375 1.292968 3.363282 4.324218 2.066406 6.761718-.898437 1.6875-2.628906 2.652344-4.417968 2.652344zm0 0"/><path d="m147.292969 179.53125c-.792969 0-1.597657-.1875-2.34375-.585938-1.1875-.632812-3.96875-1.371093-7.894531-1.371093-3.921876 0-6.707032.738281-7.894532 1.371093-2.433594 1.296876-5.464844.371094-6.761718-2.066406-1.296876-2.4375-.371094-5.464844 2.066406-6.761718 3.035156-1.617188 7.625-2.542969 12.589844-2.542969 4.964843 0 9.554687.925781 12.589843 2.542969 2.4375 1.292968 3.363281 4.324218 2.066407 6.761718-.898438 1.6875-2.628907 2.652344-4.417969 2.652344zm0 0"/><path d="m137.871094 199.320312c-3.3125 0-6-2.6875-6-6v-1.121093c0-3.3125 2.6875-6 6-6s6 2.6875 6 6v1.121093c0 3.3125-2.6875 6-6 6zm0 0"/><path d="m191.542969 200.179688c-3.3125 0-6-2.6875-6-6v-1.121094c0-3.316406 2.6875-6 6-6s6 2.683594 6 6v1.121094c0 3.3125-2.6875 6-6 6zm0 0"/><path d="m267.359375 512c-2.761719 0-5-2.238281-5-5v-112.160156c0-2.761719 2.238281-5 5-5s5 2.238281 5 5v112.160156c0 2.761719-2.238281 5-5 5zm0 0"/><path d="m61.800781 512c-2.765625 0-5-2.238281-5-5v-112.160156c0-2.761719 2.234375-5 5-5 2.761719 0 5 2.238281 5 5v112.160156c0 2.761719-2.238281 5-5 5zm0 0"/><path d="m119.101562 133.335938c-2.761718 0-5-2.238282-5-5v-26.003907c0-2.761719 2.238282-5 5-5 2.761719 0 5 2.238281 5 5v26.003907c0 2.761718-2.238281 5-5 5zm0 0"/><path d="m163.105469 133.335938c-2.761719 0-5-2.238282-5-5v-26.003907c0-2.761719 2.238281-5 5-5s5 2.238281 5 5v26.003907c0 2.761718-2.238281 5-5 5zm0 0"/><path d="m207.109375 133.335938c-2.761719 0-5-2.238282-5-5v-26.003907c0-2.761719 2.238281-5 5-5s5 2.238281 5 5v26.003907c0 2.761718-2.238281 5-5 5zm0 0"/><path d="m153.074219 512c-2.761719 0-5-2.238281-5-5v-176.019531c0-2.761719 2.238281-5 5-5s5 2.238281 5 5v176.019531c0 2.761719-2.238281 5-5 5zm0 0"/><path d="m178.34375 390.984375c-8 0-14.507812-6.503906-14.507812-14.503906s6.507812-14.507813 14.507812-14.507813 14.503906 6.507813 14.503906 14.507813-6.503906 14.503906-14.503906 14.503906zm0-19.011719c-2.484375 0-4.507812 2.023438-4.507812 4.507813s2.023437 4.503906 4.507812 4.503906 4.503906-2.019531 4.503906-4.503906-2.019531-4.507813-4.503906-4.507813zm0 0"/><path d="m178.34375 436.617188c-8 0-14.507812-6.507813-14.507812-14.507813s6.507812-14.503906 14.507812-14.503906 14.503906 6.503906 14.503906 14.503906-6.503906 14.507813-14.503906 14.507813zm0-19.011719c-2.484375 0-4.507812 2.019531-4.507812 4.503906s2.023437 4.507813 4.507812 4.507813 4.503906-2.023438 4.503906-4.507813-2.019531-4.503906-4.503906-4.503906zm0 0"/><path d="m178.34375 482.242188c-8 0-14.507812-6.503907-14.507812-14.503907s6.507812-14.507812 14.507812-14.507812 14.503906 6.507812 14.503906 14.507812-6.503906 14.503907-14.503906 14.503907zm0-19.011719c-2.484375 0-4.507812 2.023437-4.507812 4.507812s2.023437 4.503907 4.507812 4.503907 4.503906-2.019532 4.503906-4.503907-2.019531-4.507812-4.503906-4.507812zm0 0"/><path d="m239.992188 226.203125c-1.273438 0-2.503907-.484375-3.433594-1.363281-1.007813-.953125-1.574219-2.28125-1.566406-3.664063l.007812-.394531.003906-55.121094c0-1.378906.570313-2.699218 1.578125-3.644531 1.003907-.949219 2.34375-1.4375 3.738281-1.34375 17.25 1.089844 30.765626 15.480469 30.765626 32.761719 0 17.285156-13.519532 31.675781-30.78125 32.761718-.105469.003907-.210938.007813-.3125.007813zm5.011718-54.578125v43.609375c9.347656-2.898437 16.082032-11.628906 16.082032-21.800781 0-10.175782-6.738282-18.90625-16.082032-21.808594zm0 0"/><path d="m89.167969 226.203125c-.105469 0-.210938 0-.316407-.007813-17.257812-1.085937-30.78125-15.476562-30.78125-32.761718 0-17.28125 13.515626-31.671875 30.769532-32.761719 1.378906-.09375 2.730468.398437 3.738281 1.34375 1.007813.941406 1.578125 2.261719 1.578125 3.644531l.011719 55.484375c.015625 1.390625-.546875 2.726563-1.558594 3.683594-.929687.882813-2.164063 1.375-3.441406 1.375zm-5.011719-54.578125c-9.347656 2.902344-16.085938 11.632812-16.085938 21.804688 0 10.171874 6.738282 18.90625 16.085938 21.804687zm0 0"/><path d="m255.636719 157.335938h-182.113281c-4.9375 0-8.957032-4.019532-8.957032-8.957032v-16.089844c0-4.9375 4.019532-8.953124 8.957032-8.953124h182.113281c4.9375 0 8.953125 4.015624 8.953125 8.953124v16.089844c0 4.9375-4.015625 8.957032-8.953125 8.957032zm-181.066407-10h180.019532v-14h-180.019532zm181.066407-14h.019531zm0 0"/><path d="m255.726562 176.8125c-1.125 0-2.234374-.375-3.144531-1.109375-3.722656-3.007813-8.179687-4.757813-12.898437-5.054687-2.628906-.167969-4.683594-2.351563-4.683594-4.992188v-13.320312c0-2.761719 2.238281-5 5-5h15.433594c.105468-.007813.199218-.007813.292968-.007813 1.296876 0 2.546876.503906 3.480469 1.410156.972657.941407 1.519531 2.234375 1.519531 3.589844v19.488281c0 1.925782-1.105468 3.679688-2.84375 4.511719-.6875.324219-1.425781.484375-2.15625.484375zm-10.726562-15.507812c1.964844.414062 3.875 1.007812 5.726562 1.769531v-5.738281h-5.726562zm0 0"/><path d="m172.792969 292.921875h-16.433594c-39.816406 0-72.207031-32.394531-72.207031-72.210937v-68.375c0-2.761719 2.238281-5 5-5h150.847656c2.761719 0 5 2.238281 5 5v68.378906c0 39.816406-32.390625 72.207031-72.207031 72.207031zm-78.636719-135.585937v63.378906c0 34.300781 27.90625 62.207031 62.207031 62.207031h16.433594c34.300781 0 62.207031-27.90625 62.207031-62.207031v-63.378906zm0 0"/><path d="m73.429688 176.816406c-.730469 0-1.464844-.160156-2.152344-.488281-1.738282-.832031-2.847656-2.585937-2.847656-4.511719v-19.488281c0-1.355469.550781-2.648437 1.519531-3.589844.972656-.941406 2.28125-1.4375 3.636719-1.410156.042968.003906.089843.007813.136718.007813h15.429688c2.761718 0 5 2.238281 5 5v13.320312c0 2.640625-2.050782 4.824219-4.683594 4.992188-4.714844.296874-9.175781 2.046874-12.894531 5.054687-.90625.734375-2.019531 1.113281-3.144531 1.113281zm5-19.480468v5.738281c1.847656-.761719 3.761718-1.355469 5.726562-1.769531v-3.96875zm0 0"/><path d="m255.339844 133.335938h-181.519532c-1.542968 0-2.996093-.710938-3.945312-1.925782-.945312-1.210937-1.28125-2.792968-.90625-4.289062l8.753906-35.011719c-11.398437-8.699219-17.445312-22.410156-16.183594-36.722656 1.753907-19.84375 18.070313-36.019531 37.953126-37.621094 8.027343-.648437 16.0625 1.066406 23.09375 4.871094 9.261718-14.085938 24.90625-22.636719 41.992187-22.636719s32.730469 8.550781 41.992187 22.632812c7.035157-3.804687 15.070313-5.523437 23.09375-4.871093 19.882813 1.601562 36.199219 17.777343 37.953126 37.621093 1.265624 14.3125-4.78125 28.023438-16.179688 36.722657l8.75 35.011719c.375 1.496093.039062 3.078124-.910156 4.289062-.945313 1.21875-2.398438 1.929688-3.9375 1.929688zm-175.117188-10h168.710938l-7.25-28.996094c-.941406-3.777344.457031-7.734375 3.5625-10.085938 8.734375-6.601562 13.371094-17.0625 12.40625-27.984375-1.328125-15.054687-13.707032-27.320312-28.792969-28.539062-7.597656-.601563-14.882813 1.433593-21.0625 5.921875-1.179687.859375-2.679687 1.15625-4.09375.820312-1.417969-.335937-2.621094-1.277344-3.289063-2.574218-6.960937-13.507813-20.691406-21.898438-35.835937-21.898438s-28.875 8.390625-35.835937 21.894531c-.667969 1.296875-1.871094 2.238281-3.289063 2.574219-1.414063.335938-2.914063.042969-4.09375-.816406-6.175781-4.488282-13.472656-6.53125-21.0625-5.921875-15.085937 1.214843-27.464844 13.484375-28.792969 28.535156-.964844 10.921875 3.675782 21.382813 12.410156 27.988281 3.109376 2.351563 4.503907 6.308594 3.558594 10.085938zm171.054688-31.105469c0-.003907 0-.003907 0 0zm0 0"/><path d="m176.082031 342.898438c-1.324219 0-2.59375-.523438-3.53125-1.457032-.941406-.9375-1.46875-2.210937-1.46875-3.542968v-20.867188c0-5.1875 3.875-9.671875 9.007813-10.433594 9-1.335937 15.277344-6.9375 18.957031-11.402344 1.78125-2.160156 4.394531-3.503906 7.175781-3.699218 2.761719-.191406 5.515625.78125 7.554688 2.65625l13.453125 12.390625c3.015625 2.78125 3.226562 7.496093.460937 10.511719-23.425781 25.566406-50.597656 25.835937-51.609375 25.84375zm26.824219-44.523438 3.855469 3.179688c-3.925781 4.761718-12.417969 13.039062-25.203125 14.929687-.273438.042969-.476563.277344-.476563.546875v15.308594c7.757813-1.308594 23.269531-5.667969 37.480469-20.1875l-11.5625-10.644532zm17.546875 15.527344h.023437zm-.003906-.003906h.003906zm0 0"/><path d="m153.074219 342.898438c-.003907 0-.007813 0-.007813 0-1.144531 0-28.234375-.34375-51.601562-25.84375-2.761719-3.015626-2.554688-7.730469.464844-10.507813l13.453124-12.394531c2.035157-1.875 4.785157-2.84375 7.550782-2.65625 2.78125.191406 5.394531 1.539062 7.175781 3.699218 3.679687 4.464844 9.957031 10.066407 18.957031 11.402344 5.132813.761719 9.007813 5.246094 9.007813 10.433594v20.867188c0 1.328124-.53125 2.601562-1.46875 3.542968-.9375.933594-2.207031 1.457032-3.53125 1.457032zm-42.476563-30.742188c14.207032 14.515625 29.710938 18.878906 37.476563 20.1875v-15.3125c0-.269531-.207031-.503906-.476563-.542969-12.78125-1.894531-21.277344-10.167969-25.203125-14.929687l-3.625-3.726563 3.386719 3.679688zm0 0"/><path d="m176.085938 325.140625h-23.011719c-2.761719 0-5-2.238281-5-5v-3.109375c0-.269531-.207031-.503906-.476563-.542969-11.925781-1.769531-20.113281-8.886719-24.875-14.546875-1.457031-1.726562-1.574218-4.21875-.285156-6.074218 1.441406-2.070313 2.203125-4.457032 2.203125-6.902344v-6.582032c0-1.683593.847656-3.253906 2.257813-4.179687 1.40625-.925781 3.183593-1.078125 4.734374-.40625 7.832032 3.402344 16.152344 5.125 24.730469 5.125h16.433594c8.578125 0 16.898437-1.722656 24.730469-5.125 1.546875-.667969 3.328125-.515625 4.734375.40625 1.410156.925781 2.257812 2.496094 2.257812 4.179687v6.582032c0 2.445312.757813 4.832031 2.199219 6.902344 1.289062 1.855468 1.175781 4.34375-.28125 6.074218-4.761719 5.660156-12.949219 12.777344-24.878906 14.546875-.269532.039063-.472656.273438-.472656.542969v3.109375c0 2.761719-2.238282 5-5 5zm-18.183594-10h13.355468c.808594-4.351563 4.335938-7.878906 8.835938-8.542969 7.1875-1.066406 12.636719-4.871094 16.386719-8.585937-1.207031-2.65625-1.871094-5.507813-1.953125-8.425781-7.003906 2.214843-14.285156 3.335937-21.734375 3.335937h-16.433594c-7.445313 0-14.726563-1.121094-21.730469-3.335937-.082031 2.917968-.746094 5.769531-1.953125 8.425781 3.75 3.714843 9.199219 7.519531 16.386719 8.585937 4.503906.664063 8.03125 4.191406 8.839844 8.542969zm0 0"/><path d="m202.453125 247.53125c-2.25 0-4.535156-.65625-6.613281-2-8.539063-5.527344-20.382813-6.382812-26.683594-6.402344-5.28125-.015625-9.578125-4.320312-9.578125-9.589844v-5.007812c0-3.484375 1.375-6.742188 3.875-9.167969 2.527344-2.460937 5.859375-3.785156 9.414063-3.664062 17.230468.472656 30.265624 5.816406 38.730468 15.882812 3.953125 4.699219 3.871094 11.203125-.203125 15.816407-2.398437 2.722656-5.632812 4.132812-8.941406 4.132812zm-32.875-18.402344c7.492187.058594 21.195313 1.210938 31.699219 8.007813.972656.628906 1.855468.511719 2.621094-.355469.453124-.511719 1.0625-1.558594.046874-2.761719-6.546874-7.789062-17.097656-11.933593-31.351562-12.324219-.046875 0-.0625 0-.089844 0-.785156 0-1.523437.292969-2.078125.835938-.316406.308594-.84375.976562-.84375 2v4.597656zm0 0"/><path d="m126.699219 247.53125c-3.304688 0-6.535157-1.410156-8.933594-4.128906-4.074219-4.613282-4.160156-11.121094-.207031-15.816406 8.46875-10.066407 21.5-15.410157 38.730468-15.882813 3.511719-.105469 6.886719 1.199219 9.414063 3.660156 2.5 2.429688 3.875 5.6875 3.875 9.171875v5.007813c0 5.269531-4.296875 9.570312-9.578125 9.585937-6.304688.019532-18.148438.875-26.683594 6.40625-2.078125 1.339844-4.363281 1.996094-6.617187 1.996094zm29.957031-25.835938c-.03125 0-.058594 0-.089844 0-14.253906.390626-24.804687 4.539063-31.355468 12.324219-1.015626 1.207031-.402344 2.25.050781 2.765625.761719.863282 1.640625.984375 2.617187.351563 10.5-6.800781 24.207032-7.949219 31.699219-8.007813v-4.597656c0-1.027344-.527344-1.695312-.84375-2.003906-.558594-.539063-1.292969-.832032-2.078125-.832032zm0 0"/><path d="m176.082031 342.898438h-23.007812c-2.761719 0-5-2.238282-5-5v-17.757813c0-2.761719 2.238281-5 5-5h23.007812c2.761719 0 5 2.238281 5 5v17.757813c0 2.761718-2.238281 5-5 5zm-18.007812-10h13.007812v-7.757813h-13.007812zm0 0"/></g></svg>