<svg height="512pt" viewBox="-92 0 512 512.00003" width="512pt" xmlns="http://www.w3.org/2000/svg"><path d="m197.902344 80.191406c-.605469-1.660156-2.785156-2.011718-3.851563-.605468-6.976562 9.21875-29.296875 33.011718-72.445312 30.5625-17.425781-.988282-26.757813 6.304687-31.753907 13.957031v50.660156c0 41.050781 33.589844 82.667969 74.640626 82.667969 41.050781 0 74.636718-41.617188 74.636718-82.667969v-56.917969c-9.664062-1.34375-30.34375-7.761718-41.226562-37.65625zm0 0" fill="#fcb275"/><path d="m89.847656 174.765625v-48.753906c-.8125-.066407-1.636718-.105469-2.46875-.105469-16.710937 0-30.253906 13.546875-30.253906 30.253906 0 16.707032 13.542969 30.25 30.253906 30.25 1.125 0 2.230469-.097656 3.320313-.226562-.558594-3.789063-.851563-7.605469-.851563-11.417969zm0 0" fill="#fcb275"/><path d="m239.128906 126.050781v48.714844c0 3.8125-.292968 7.628906-.851562 11.417969 1.09375.128906 2.195312.226562 3.320312.226562 16.710938 0 30.253906-13.542968 30.253906-30.25 0-17.734375-15.183593-31.5625-32.722656-30.109375zm0 0" fill="#fcb275"/><path d="m323.960938 493.234375-9.527344-171c-.71875-12.914063-9.75-23.855469-22.292969-27.015625l-40.917969-10.296875c-7.101562-1.789063-14.125-3.863281-21.054687-6.21875l-18.101563-8.925781-3.640625-1.796875c-5.777343-2.847657-9.433593-8.730469-9.433593-15.171875v-5.671875c-10.335938 6.460937-22.070313 10.296875-34.5 10.296875-12.429688 0-24.167969-3.835938-34.503907-10.296875v5.671875c0 6.441406-3.65625 12.324218-9.433593 15.171875l-2.679688 1.320312-18.015625 8.882813c-7.628906 2.703125-15.378906 5.042968-23.222656 7.019531l-39.796875 10.015625c-12.542969 3.15625-21.574219 14.101562-22.292969 27.015625l-9.527344 171c-.414062 7.476563 5.535157 13.765625 13.019531 13.765625h292.902344c7.484375 0 13.433594-6.289062 13.019532-13.765625zm0 0" fill="#7dbfa3"/><path d="m198.992188 247.136719v5.671875c0 4.832031 2.058593 9.347656 5.519531 12.503906 1.15625 1.054688 2.46875 1.957031 3.914062 2.667969l3.640625 1.796875 18.101563 8.925781c6.832031 2.324219 13.757812 4.367187 20.757812 6.136719.851563-3.386719 1.347657-6.910156 1.347657-10.558594 0-4.371094-.648438-8.585938-1.855469-12.558594-.808594-2.671875.003906-5.589844 2.09375-7.445312 7.28125-6.46875 11.871093-15.898438 11.871093-26.402344 0-7.398438-2.296874-14.246094-6.191406-19.914062-1.628906-2.371094-1.605468-5.441407-.171875-7.933594 2.296875-3.996094 3.535157-8.671875 3.308594-13.664063-.097656-2.199219-.519531-4.320312-1.167969-6.347656-5.125 3.996094-11.554687 6.398437-18.558594 6.398437-1.128906 0-2.230468-.097656-3.320312-.226562 0-.007812 0-.011719 0-.015625-3.632812 24.652344-18.65625 48.070313-39.289062 60.964844zm0 0" fill="#7c292e"/><path d="m76.503906 254.277344c2.085938 1.855468 2.902344 4.773437 2.09375 7.445312-1.203125 3.972656-1.855468 8.1875-1.855468 12.558594 0 3.640625.496093 7.160156 1.34375 10.535156 3.460937-.890625 6.90625-1.84375 10.324218-2.875.070313-.023437.140625-.046875.214844-.066406 1.847656-.5625 3.691406-1.140625 5.523438-1.742188 1.910156-.625 3.816406-1.277343 5.710937-1.945312l1.25-.617188 16.761719-8.265624 2.683594-1.320313c5.773437-2.847656 9.433593-8.730469 9.433593-15.171875v-5.671875c-20.636719-12.894531-35.660156-36.3125-39.289062-60.96875 0 .007813.003906.011719.003906.015625-1.09375.128906-2.195313.230469-3.324219.230469-6.988281 0-13.402344-2.394531-18.527344-6.375-.644531 2.019531-1.0625 4.132812-1.160156 6.324219-.226562 4.988281 1.011719 9.667968 3.304688 13.660156 1.433594 2.496094 1.460937 5.566406-.167969 7.9375-3.898437 5.664062-6.191406 12.515625-6.191406 19.910156 0 10.503906 4.589843 19.933594 11.867187 26.402344zm0 0" fill="#7c292e"/><path d="m210.210938 31.953125c-1.695313-.082031-3.234376-.980469-4.21875-2.464844-7.308594-11.019531-18.066407-19.21875-30.585938-22.773437-7.0625-2.003906-14.457031-2.140625-21.683594-.996094-26.378906 4.175781-110.304687 25.515625-84.101562 125.984375 4.988281-3.632813 11.113281-5.796875 17.757812-5.796875.832032 0 1.65625.035156 2.472656.105469v-1.90625c4.996094-7.65625 14.332032-14.949219 31.753907-13.960938 43.148437 2.449219 65.46875-21.339843 72.445312-30.558593 1.066407-1.410157 3.246094-1.058594 3.851563.601562 10.882812 29.894531 31.5625 36.316406 41.226562 37.65625v8.207031c6.382813-.53125 12.441406.984375 17.585938 3.953125 5.792968-10.574218 5.722656-26.320312 5.722656-39.359375-.003906-31.484375-23.113281-57.292969-52.226562-58.691406zm0 0" fill="#7c292e"/><path d="m99.859375 278.183594c-7.574219 2.683594-15.269531 5.007812-23.058594 6.972656 1.660157 46.949219 40.34375 84.636719 87.6875 84.636719s86.027344-37.6875 87.6875-84.632813l-.953125-.238281c-7.101562-1.789063-14.125-3.863281-21.054687-6.21875l-2.292969-1.132813c.101562 1.472657.171875 2.957032.171875 4.457032 0 35.042968-28.507813 63.554687-63.554687 63.554687-35.046876 0-63.558594-28.511719-63.558594-63.554687 0-1.5.070312-2.984375.175781-4.457032zm0 0" fill="#8bd8b5"/><path d="m212.066406 269.777344-3.640625-1.796875c-5.777343-2.847657-9.433593-8.730469-9.433593-15.171875v-5.671875c-10.335938 6.460937-22.074219 10.292969-34.503907 10.292969-12.429687 0-24.164062-3.832032-34.503906-10.292969v5.671875c0 6.4375-3.65625 12.320312-9.433594 15.167968l-2.679687 1.324219-16.761719 8.261719c-.105469 1.476562-.175781 2.960938-.175781 4.457031 0 35.042969 28.511718 63.554688 63.554687 63.554688 35.046875 0 63.558594-28.507813 63.558594-63.554688 0-1.5-.070313-2.980469-.175781-4.457031zm0 0" fill="#fcb275"/><g fill="#231f20"><path d="m164.617188 219.34375c-6.257813 0-11.960938-2.214844-15.644532-6.074219-1.910156-1.996093-1.835937-5.160156.164063-7.070312 2-1.90625 5.160156-1.832031 7.070312.164062 1.753907 1.835938 4.972657 2.980469 8.410157 2.980469 3.433593 0 6.65625-1.144531 8.414062-2.980469 1.90625-2 5.070312-2.066406 7.066406-.160156s2.070313 5.070313.160156 7.070313c-3.683593 3.855468-9.386718 6.070312-15.640624 6.070312zm0 0"/><path d="m201.859375 147.417969c-.792969 0-1.597656-.191407-2.34375-.589844-1.265625-.671875-4.164063-1.347656-7.789063-1.347656s-6.523437.675781-7.785156 1.347656c-2.441406 1.296875-5.464844.375-6.765625-2.0625-1.292969-2.441406-.371093-5.46875 2.066407-6.761719 3.011718-1.605468 7.5625-2.523437 12.484374-2.523437 4.917969 0 9.46875.917969 12.480469 2.519531 2.4375 1.296875 3.363281 4.324219 2.066407 6.761719-.894532 1.691406-2.625 2.65625-4.414063 2.65625zm0 0"/><path d="m147.382812 147.417969c-.792968 0-1.59375-.191407-2.34375-.589844-1.261718-.671875-4.160156-1.347656-7.789062-1.347656-3.621094 0-6.523438.675781-7.785156 1.347656-2.4375 1.296875-5.464844.375-6.761719-2.066406-1.296875-2.4375-.375-5.464844 2.066406-6.761719 3.011719-1.601562 7.5625-2.519531 12.480469-2.519531 4.921875 0 9.472656.917969 12.484375 2.519531 2.4375 1.296875 3.363281 4.324219 2.070313 6.761719-.902344 1.691406-2.632813 2.65625-4.421876 2.65625zm0 0"/><path d="m138.058594 167.011719c-3.3125 0-6-2.6875-6-6v-1.109375c0-3.3125 2.6875-6 6-6 3.316406 0 6 2.6875 6 6v1.109375c0 3.3125-2.6875 6-6 6zm0 0"/><path d="m191.171875 167.863281c-3.3125 0-6-2.6875-6-6v-1.109375c0-3.3125 2.6875-6 6-6 3.316406 0 6 2.6875 6 6v1.109375c0 3.3125-2.683594 6-6 6zm0 0"/><path d="m164.488281 262.433594c-45.582031 0-79.640625-46.285156-79.640625-87.667969v-50.660156c0-.96875.285156-1.917969.816406-2.734375 5.246094-8.035156 15.804688-17.375 36.222657-16.214844 40.273437 2.292969 61.097656-19.230469 68.175781-28.585938 1.597656-2.105468 4.210938-3.167968 6.8125-2.777343 2.621094.394531 4.8125 2.1875 5.722656 4.683593v.003907c9.757813 26.804687 27.503906 33.066406 37.214844 34.414062 2.472656.339844 4.3125 2.457031 4.3125 4.953125v56.917969c.003906 41.382813-34.054688 87.667969-79.636719 87.667969zm-69.640625-136.773438v49.105469c0 44.453125 36.769532 77.667969 69.640625 77.667969 32.875 0 69.640625-33.214844 69.640625-77.667969v-52.78125c-10.542968-2.5-28.414062-10.449219-39.160156-35.605469-10.183594 11.714844-33.304688 31.054688-73.648438 28.761719-11.976562-.675781-20.871093 2.855469-26.472656 10.519531zm0 0"/><path d="m87.378906 191.414062c-19.4375 0-35.253906-15.8125-35.253906-35.253906 0-19.4375 15.816406-35.25 35.253906-35.25.96875 0 1.933594.042969 2.882813.121094 2.589843.210938 4.585937 2.378906 4.585937 4.984375v48.75c0 3.507813.269532 7.105469.796875 10.691406.199219 1.335938-.152343 2.695313-.972656 3.765625-.820313 1.074219-2.039063 1.769532-3.378906 1.929688-.941407.109375-2.371094.261718-3.914063.261718zm-2.53125-60.378906c-12.738281 1.269532-22.722656 12.054688-22.722656 25.125 0 13.160156 10.121094 24.003906 22.992188 25.152344-.175782-2.199219-.269532-4.386719-.269532-6.546875zm0 0"/><path d="m241.601562 191.414062c-1.191406 0-2.398437-.082031-3.917968-.261718-1.339844-.160156-2.558594-.855469-3.378906-1.929688-.816407-1.070312-1.167969-2.429687-.972657-3.765625.53125-3.589843.796875-7.1875.796875-10.691406v-48.714844c0-2.597656 1.996094-4.765625 4.585938-4.980469 9.789062-.8125 19.542968 2.539063 26.78125 9.199219 7.21875 6.640625 11.359375 16.082031 11.359375 25.890625-.003907 19.441406-15.816407 35.253906-35.253907 35.253906zm2.527344-60.339843v43.691406c0 2.160156-.089844 4.347656-.265625 6.546875 12.867188-1.144531 22.988281-11.992188 22.988281-25.152344 0-7.125-2.886718-13.707031-8.128906-18.535156-4.046875-3.722656-9.195312-6.003906-14.59375-6.550781zm0 0"/><path d="m265.984375 509.199219c-2.761719 0-5-2.238281-5-5v-110.757813c0-2.761718 2.238281-5 5-5s5 2.238282 5 5v110.757813c0 2.761719-2.238281 5-5 5zm0 0"/><path d="m62.996094 509.199219c-2.761719 0-5-2.238281-5-5v-110.757813c0-2.761718 2.238281-5 5-5 2.761718 0 5 2.238282 5 5v110.757813c0 2.761719-2.238282 5-5 5zm0 0"/><path d="m310.941406 512h-292.902344c-4.9375 0-9.714843-2.054688-13.105468-5.640625-3.390625-3.585937-5.179688-8.472656-4.9062502-13.402344l9.5234372-171c.847657-15.179687 11.324219-27.871093 26.066407-31.585937l39.792968-10.015625c7.574219-1.90625 15.140625-4.1875 22.5-6.785157l20.429688-10.074218c4.101562-2.019532 6.644531-6.117188 6.644531-10.6875v-5.671875c0-1.816407.988281-3.492188 2.578125-4.371094 1.585938-.882813 3.53125-.832031 5.074219.128906 10.121093 6.328125 20.839843 9.535157 31.851562 9.535157 11.015625 0 21.730469-3.207032 31.851563-9.535157 1.542968-.960937 3.484375-1.011719 5.074218-.128906 1.589844.878906 2.578126 2.554687 2.578126 4.371094v5.671875c0 4.570312 2.546874 8.664062 6.644531 10.6875l21.449219 10.574218c6.667968 2.257813 13.515624 4.28125 20.355468 6l40.921875 10.300782c14.742188 3.710937 25.214844 16.40625 26.0625 31.585937l9.527344 171c.273437 4.929688-1.515625 9.816407-4.90625 13.402344-3.394531 3.585937-8.171875 5.640625-13.105469 5.640625zm-176.117187-256.5c-.882813 7.300781-5.335938 13.652344-12.0625 16.964844l-20.691407 10.207031c-.175781.085937-.355468.164063-.542968.226563-7.738282 2.742187-15.703125 5.148437-23.671875 7.152343l-39.792969 10.015625c-10.480469 2.640625-17.921875 11.660156-18.523438 22.449219l-9.523437 171c-.125 2.226563.652344 4.347656 2.1875 5.96875 1.53125 1.621094 3.605469 2.511719 5.839844 2.511719h292.898437c2.230469 0 4.304688-.890625 5.839844-2.511719s2.308594-3.746094 2.1875-5.972656l-9.523438-171c-.601562-10.789063-8.046874-19.808594-18.523437-22.445313l-40.921875-10.300781c-7.203125-1.8125-14.417969-3.945313-21.4375-6.332031-.210938-.070313-.40625-.15625-.601562-.25l-21.746094-10.722656c-6.722656-3.316407-11.175782-9.664063-12.058594-16.964844-9.503906 4.554687-19.621094 6.933594-29.664062 6.933594-10.042969 0-20.164063-2.378907-29.667969-6.929688zm0 0"/><path d="m250.929688 289.839844c-.410157 0-.820313-.050782-1.222657-.152344-7.148437-1.804688-14.261719-3.910156-21.148437-6.25-.207032-.070312-.402344-.15625-.597656-.25l-21.746094-10.722656c-1.847656-.910156-3.550782-2.074219-5.066406-3.453125-4.546876-4.144531-7.15625-10.046875-7.15625-16.199219v-5.671875c0-1.722656.890624-3.328125 2.351562-4.242187 19.382812-12.113282 33.558594-34.128907 36.988281-57.457032.382813-2.59375 2.699219-4.460937 5.3125-4.257812.207031.015625.414063.042968.613281.085937.925782.101563 1.660157.148438 2.34375.148438 5.648438 0 11.003907-1.847657 15.484376-5.34375 1.292968-1.003907 2.992187-1.3125 4.546874-.832031 1.5625.480468 2.789063 1.695312 3.289063 3.25.816406 2.546874 1.292969 5.121093 1.402344 7.648437.261719 5.753906-1.113281 11.417969-3.964844 16.382813-.40625.703124-.628906 1.757812-.042969 2.609374 4.625 6.726563 7.070313 14.59375 7.070313 22.746094 0 11.503906-4.9375 22.492188-13.550781 30.140625-.625.558594-.871094 1.445313-.625 2.257813 1.375 4.53125 2.070312 9.242187 2.070312 14.007812 0 3.863282-.503906 7.828125-1.496094 11.777344-.324218 1.289062-1.148437 2.394531-2.289062 3.074219-.785156.464843-1.671875.703125-2.566406.703125zm-18.84375-15.769532c4.882812 1.65625 9.882812 3.183594 14.921874 4.566407.179688-1.46875.269532-2.925781.269532-4.359375 0-3.78125-.550782-7.515625-1.640625-11.105469-1.375-4.539063.023437-9.496094 3.558593-12.632813 6.472657-5.75 10.1875-14.011718 10.1875-22.664062 0-6.121094-1.835937-12.027344-5.308593-17.082031-2.691407-3.914063-2.839844-8.996094-.382813-13.257813 1.636719-2.855468 2.546875-6.0625 2.65625-9.355468-4.339844 2.011718-9.035156 3.109374-13.902344 3.222656-4.730468 23.507812-19.09375 45.386718-38.453124 58.449218v2.957032c0 3.34375 1.417968 6.554687 3.890624 8.808594.824219.75 1.75 1.378906 2.753907 1.875zm0 0"/><path d="m78.085938 289.816406c-.890626 0-1.777344-.238281-2.554688-.699218-1.144531-.679688-1.96875-1.792969-2.292969-3.082032-.992187-3.953125-1.496093-7.910156-1.496093-11.757812 0-4.761719.699218-9.472656 2.070312-14.003906.246094-.816407 0-1.703126-.625-2.257813-8.609375-7.648437-13.546875-18.632813-13.546875-30.140625 0-8.15625 2.445313-16.019531 7.070313-22.746094.582031-.851562.359374-1.90625-.046876-2.609375-2.855468-4.96875-4.226562-10.632812-3.96875-16.382812.113282-2.507813.585938-5.070313 1.394532-7.617188.496094-1.554687 1.722656-2.773437 3.285156-3.253906 1.558594-.484375 3.257812-.171875 4.546875.828125 4.480469 3.480469 9.824219 5.320312 15.457031 5.320312.6875 0 1.425782-.046874 2.355469-.148437.058594-.011719.117187-.023437.179687-.035156 2.707032-.429688 5.253907 1.398437 5.714844 4.101562.003906.042969.011719.082031.019532.125 3.4375 23.324219 17.609374 45.332031 36.988281 57.441407 1.460937.914062 2.347656 2.515624 2.347656 4.238281v5.671875c0 8.40625-4.683594 15.9375-12.222656 19.65625l-20.695313 10.207031c-.175781.085937-.355468.164063-.542968.226563-1.933594.683593-3.871094 1.34375-5.816407 1.984374-1.875.613282-3.753906 1.203126-5.636719 1.773438l-.203124.066406c-3.359376 1.011719-6.800782 1.972656-10.535157 2.9375-.410156.105469-.828125.15625-1.246093.15625zm1.738281-39.277344c3.535156 3.140626 4.929687 8.097657 3.558593 12.632813-1.089843 3.589844-1.640624 7.328125-1.640624 11.109375 0 1.414062.085937 2.855469.261718 4.3125 1.695313-.472656 3.339844-.949219 4.957032-1.4375l.195312-.0625c1.824219-.554688 3.632812-1.121094 5.433594-1.710938 1.777344-.585937 3.554687-1.1875 5.320312-1.8125l20.429688-10.074218c4.101562-2.019532 6.644531-6.113282 6.644531-10.683594v-2.960938c-19.355469-13.0625-33.71875-34.933593-38.449219-58.449218-4.851562-.113282-9.539062-1.203125-13.863281-3.207032.113281 3.285157 1.019531 6.488282 2.660156 9.335938 2.453125 4.265625 2.304688 9.347656-.382812 13.261719-3.476563 5.054687-5.3125 10.960937-5.3125 17.082031 0 8.652344 3.714843 16.914062 10.1875 22.664062zm0 0"/><path d="m69.621094 136.707031c-.566406 0-1.136719-.097656-1.6875-.292969-1.554688-.554687-2.734375-1.847656-3.152344-3.445312-9.089844-34.855469-6.171875-64.035156 8.671875-86.722656 21.65625-33.101563 62.800781-42.820313 79.488281-45.460938 8.46875-1.339844 16.484375-.960937 23.828125 1.121094 13.449219 3.816406 25.304688 12.632812 33.390625 24.820312.046875.070313.164063.226563.289063.234376 31.957031 1.53125 56.988281 29.507812 56.988281 63.6875v.449218c0 13.25.003906 29.738282-6.339844 41.3125-.644531 1.179688-1.742187 2.050782-3.039062 2.414063s-2.683594.1875-3.847656-.484375c-4.472657-2.585938-9.539063-3.722656-14.667969-3.300782-1.40625.113282-2.773438-.359374-3.800781-1.304687-1.027344-.945313-1.613282-2.28125-1.613282-3.679687v-4.066407c-10.542968-2.503906-28.414062-10.453125-39.160156-35.609375-10.1875 11.71875-33.308594 31.0625-73.648438 28.761719-11.976562-.671875-20.871093 2.859375-26.472656 10.523437v.351563c0 1.394531-.582031 2.730469-1.613281 3.675781-1.027344.945313-2.398437 1.414063-3.796875 1.304688-.679688-.054688-1.367188-.085938-2.058594-.085938-5.339844 0-10.464844 1.675782-14.816406 4.839844-.867188.628906-1.902344.957031-2.941406.957031zm93.015625-126.707031c-2.632813 0-5.34375.21875-8.132813.660156-15.367187 2.4375-53.214844 11.308594-72.679687 41.0625-12.339844 18.859375-15.328125 43.160156-8.910157 72.304688 4.09375-1.855469 8.5-2.90625 13.039063-3.085938 5.34375-7.933594 15.878906-16.898437 35.9375-15.785156 40.273437 2.289062 61.09375-19.226562 68.175781-28.585938 1.59375-2.105468 4.207032-3.164062 6.8125-2.777343 2.621094.394531 4.816406 2.191406 5.722656 4.691406 9.757813 26.800781 27.503907 33.066406 37.214844 34.414063 2.472656.339843 4.3125 2.457031 4.3125 4.953124v3.1875c3.457032.246094 6.847656 1.003907 10.089844 2.25 3.21875-9.25 3.214844-21.808593 3.214844-32.1875v-.453124c0-28.832032-20.847656-52.421876-47.464844-53.699219-3.300781-.15625-6.269531-1.871094-8.144531-4.695313-6.765625-10.199218-16.632813-17.5625-27.785157-20.726562-3.582031-1.019532-7.398437-1.527344-11.402343-1.527344zm0 0"/><path d="m164.488281 374.792969c-50.199219 0-90.910156-39.296875-92.683593-89.457031-.082032-2.355469 1.492187-4.449219 3.773437-5.027344 7.523437-1.898438 15.035156-4.164063 22.335937-6.742188l.984376-.484375c1.605468-.792969 3.507812-.664062 4.996093.335938 1.488281.996093 2.328125 2.710937 2.203125 4.496093-.109375 1.585938-.164062 2.890626-.164062 4.109376 0 32.289062 26.269531 58.554687 58.558594 58.554687 32.289062 0 58.554687-26.265625 58.554687-58.554687 0-1.203126-.050781-2.507813-.160156-4.113282-.125-1.785156.714843-3.5 2.203125-4.492187 1.484375-1 3.394531-1.125 4.996094-.332031l2.003906.984374c6.667968 2.257813 13.515625 4.28125 20.355468 6l.953126.242188c2.289062.574219 3.863281 2.667969 3.777343 5.027344-1.777343 50.160156-42.484375 89.453125-92.6875 89.453125zm-82.453125-85.832031c3.519532 42.832031 39.003906 75.832031 82.457032 75.832031 43.441406 0 78.921874-32.988281 82.453124-75.8125-4.679687-1.238281-9.351562-2.601563-13.957031-4.082031-1.511719 36.476562-31.660156 65.679687-68.5 65.679687-36.875 0-67.042969-29.261719-68.5-65.789063-4.601562 1.515626-9.269531 2.910157-13.953125 4.171876zm0 0"/><path d="m164.488281 350.578125c-37.800781 0-68.554687-30.753906-68.554687-68.554687 0-1.453126.058594-2.980469.1875-4.800782.121094-1.777344 1.179687-3.351562 2.777344-4.136718l19.441406-9.589844c4.101562-2.023438 6.648437-6.117188 6.648437-10.6875v-5.671875c0-1.816407.984375-3.492188 2.574219-4.371094 1.589844-.882813 3.53125-.832031 5.074219.128906 10.121093 6.328125 20.839843 9.535157 31.851562 9.535157 11.015625 0 21.730469-3.207032 31.851563-9.535157 1.542968-.960937 3.484375-1.011719 5.074218-.128906 1.589844.878906 2.578126 2.554687 2.578126 4.371094v5.671875c0 4.570312 2.546874 8.664062 6.644531 10.6875l19.445312 9.589844c1.597657.785156 2.65625 2.363281 2.78125 4.136718.125 1.839844.183594 3.367188.183594 4.800782 0 37.800781-30.753906 68.554687-68.558594 68.554687zm-58.535156-69.824219c-.011719.4375-.019531.859375-.019531 1.269532 0 32.289062 26.269531 58.554687 58.554687 58.554687 32.289063 0 58.558594-26.265625 58.558594-58.554687 0-.40625-.007813-.828126-.019531-1.269532l-13.175782-6.496094-3.636718-1.792968c-6.726563-3.316406-11.179688-9.667969-12.0625-16.964844-9.503906 4.554688-19.617188 6.933594-29.664063 6.933594-10.042969 0-20.160156-2.378906-29.664062-6.933594-.882813 7.300781-5.335938 13.648438-12.0625 16.964844zm0 0"/></g></svg>