<svg height="511pt" viewBox="-82 0 511 511.88437" width="511pt" xmlns="http://www.w3.org/2000/svg"><path d="m247.71875 134.0625c-1.261719 3.195312-6.015625 2.261719-5.972656-1.179688l.347656-27.890624c.066406-5.269532-1.402344-10.539063-6.132812-15.941407-4.382813-5.011719-10.496094-4.609375-10.289063-4.5625-2.34375 0-4.621094.652344-6.671875 1.78125-27.21875 14.976563-60.207031 14.910157-87.296875.003907-6.855469-3.773438-13.480469-1.792969-18.339844 3.175781-4.082031 4.175781-6.070312 9.972656-5.996093 15.8125l.34375 27.621093c.046874 3.441407-4.710938 4.375-5.976563 1.175782l-3.042969-7.703125v54.972656c0 37.105469 30.078125 67.183594 67.183594 67.183594h16.425781c37.105469 0 67.183594-30.078125 67.183594-67.183594v-51.734375zm0 0" fill="#fcb275"/><path d="m265.203125 117.289062c-.625 1.183594-2.148437 1.757813-3.363281 1.054688-3.335938-1.9375-7.757813-.375-9.214844 3.3125l-3.140625 7.933594v40.765625c14.832031-2.023438 26.273437-14.710938 26.273437-30.097657 0-9.191406-4.101562-17.398437-10.554687-22.96875zm0 0" fill="#fcb275"/><path d="m96.550781 120.949219c-1.515625-3.835938-6.101562-5.238281-9.414062-3.191407-1.214844.75-2.617188.335938-3.351563-.644531-6.578125 5.5625-10.765625 13.847657-10.765625 23.144531 0 15.179688 11.132813 27.703126 25.671875 29.988282v-43.890625zm0 0" fill="#fcb275"/><path d="m175.640625 5.007812c-50.796875-.695312-92.371094 41.945313-92.371094 92.75v17.855469c0 1.949219 2.136719 3.210938 3.867188 2.144531 3.3125-2.046874 7.898437-.644531 9.414062 3.191407l5.183594 13.113281c1.265625 3.199219 6.019531 2.261719 5.976563-1.179688l-.34375-27.621093c-.074219-5.839844 1.914062-11.636719 5.996093-15.8125 4.855469-4.96875 11.484375-6.949219 18.339844-3.175781 27.089844 14.90625 60.078125 14.976562 87.296875-.003907 2.050781-1.128906 4.328125-1.78125 6.671875-1.78125-.207031-.046875 5.90625-.449219 10.289063 4.5625 4.730468 5.40625 6.199218 10.671875 6.132812 15.941407l-.347656 27.890624c-.042969 3.441407 4.710937 4.375 5.972656 1.179688l4.90625-12.40625c1.460938-3.6875 5.878906-5.253906 9.214844-3.3125 1.566406.910156 3.667968-.300781 3.667968-2.21875v-20.007812c0-49.695313-40.324218-90.429688-89.867187-91.109376zm0 0" fill="#7c292e"/><path d="m17.671875 416.703125h54.128906v24.460937h-54.128906c-6.726563 0-12.230469-5.503906-12.230469-12.230468 0-6.722656 5.503906-12.230469 12.230469-12.230469zm0 0" fill="#fc5d4c"/><path d="m331.105469 416.703125h-54.128907v24.460937h54.128907c6.726562 0 12.230469-5.503906 12.230469-12.230468 0-6.722656-5.503907-12.230469-12.230469-12.230469zm0 0" fill="#fc5d4c"/><path d="m71.777344 441.164062h-55.792969l-2.882813 51.789063c-.421874 7.566406 5.597657 13.929687 13.175782 13.929687h45.515625l-.015625-2.835937zm0 0" fill="#fcb275"/><path d="m326.261719 319.882812c-.375-6.71875-2.984375-12.898437-7.144531-17.765624l-.015626.019531c-3.929687-4.601563-9.234374-8.042969-15.40625-9.597657l-41.414062-10.421874c-7.183594-1.808594-14.292969-3.910157-21.304688-6.292969l-18.324218-9.035157-3.683594-1.816406c-5.847656-2.882812-9.546875-8.835937-9.546875-15.355468v-6.816407c-8.296875 3.664063-17.464844 5.714844-27.121094 5.714844h-16.425781c-9.332031 0-18.21875-1.90625-26.292969-5.34375v6.445313c0 6.519531-3.703125 12.472656-9.550781 15.355468l-2.714844 1.335938-18.230468 8.992187c-7.71875 2.734375-15.5625 5.105469-23.503907 7.105469l-40.28125 10.136719c-6.171875 1.554687-11.46875 4.996093-15.398437 9.601562l-.019532-.023437c-4.160156 4.867187-6.769531 11.046875-7.144531 17.765625l-5.390625 96.824219h54.429688v87.339843l.015625 2.835938h205.410156l.015625-90.179688h54.429688zm0 0" fill="#e04e36"/><path d="m222.652344 266.789062-3.683594-1.816406c-5.847656-2.882812-9.546875-8.835937-9.546875-15.355468v-6.816407c-8.296875 3.664063-17.464844 5.714844-27.121094 5.714844h-16.425781c-9.332031 0-18.21875-1.90625-26.292969-5.34375v6.445313c0 6.519531-3.703125 12.472656-9.550781 15.355468l-2.714844 1.335938-18.230468 8.992187c-.546876.195313-1.097657.371094-1.644532.5625 7.0625 28.152344 26.097656 50.015625 49.957032 56.972657 2.414062.703124 4.082031 2.902343 4.082031 5.417968v44.074219c0 3.226563 2.617187 5.847656 5.847656 5.847656h12.761719c3.226562 0 5.847656-2.621093 5.847656-5.847656v-44.074219c0-2.515625 1.664062-4.714844 4.082031-5.417968 23.992188-6.996094 43.101563-29.070313 50.070313-57.453126zm0 0" fill="#fc5d4c"/><path d="m209.421875 249.617188v-6.820313c-8.296875 3.667969-17.464844 5.71875-27.121094 5.71875h-16.425781c-9.332031 0-18.21875-1.90625-26.292969-5.34375v6.445313c0 6.515624-3.703125 12.472656-9.550781 15.351562l-2.378906 1.175781c6.769531 25.984375 24.828125 44.574219 46.054687 44.574219 21.414063 0 39.601563-18.925781 46.230469-45.273438l-.96875-.476562c-5.847656-2.878906-9.546875-8.835938-9.546875-15.351562zm0 0" fill="#fcb275"/><path d="m333.015625 441.164062h-55.792969v62.882813l-.015625 2.835937h45.515625c7.578125 0 13.597656-6.363281 13.175782-13.929687zm0 0" fill="#fcb275"/><g fill="#231f20"><path d="m173.71875 210.214844c-8.957031 0-17.304688-4.4375-22.328125-11.867188-1.542969-2.289062-.941406-5.398437 1.34375-6.941406 2.289063-1.550781 5.398437-.949219 6.945313 1.34375 3.160156 4.671875 8.40625 7.464844 14.039062 7.464844s10.878906-2.792969 14.039062-7.464844c1.542969-2.289062 4.65625-2.890625 6.941407-1.34375 2.289062 1.542969 2.890625 4.652344 1.34375 6.941406-5.023438 7.429688-13.367188 11.867188-22.324219 11.867188zm0 0"/><path d="m211.339844 140.160156c-.792969 0-1.59375-.1875-2.339844-.582031-1.191406-.632813-3.972656-1.375-7.894531-1.375s-6.707031.738281-7.894531 1.375c-2.441407 1.289063-5.460938.367187-6.761719-2.070313-1.292969-2.4375-.367188-5.46875 2.070312-6.761718 3.039063-1.617188 7.625-2.542969 12.585938-2.542969 4.957031 0 9.546875.925781 12.585937 2.542969 2.4375 1.292968 3.363282 4.324218 2.070313 6.761718-.902344 1.6875-2.632813 2.652344-4.421875 2.652344zm0 0"/><path d="m156.308594 140.160156c-.792969 0-1.597656-.1875-2.34375-.585937-1.1875-.632813-3.96875-1.371094-7.890625-1.371094s-6.703125.738281-7.890625 1.371094c-2.4375 1.296875-5.464844.371093-6.761719-2.066407s-.371094-5.46875 2.066406-6.761718c3.039063-1.617188 7.625-2.542969 12.589844-2.542969 4.960937 0 9.546875.925781 12.585937 2.542969 2.4375 1.292968 3.363282 4.324218 2.066407 6.761718-.902344 1.6875-2.632813 2.652344-4.421875 2.652344zm0 0"/><path d="m146.886719 159.945312c-3.3125 0-6-2.683593-6-6v-1.117187c0-3.316406 2.6875-6 6-6 3.316406 0 6 2.683594 6 6v1.117187c0 3.316407-2.683594 6-6 6zm0 0"/><path d="m200.542969 160.800781c-3.3125 0-6-2.683593-6-6v-1.117187c0-3.3125 2.6875-6 6-6 3.316406 0 6 2.6875 6 6v1.121094c0 3.3125-2.683594 5.996093-6 5.996093zm0 0"/><path d="m244.902344 141.027344c-.535156 0-1.082032-.050782-1.625-.160156-3.894532-.765626-6.582032-4.074219-6.53125-8.042969l.347656-27.894531c.058594-4.761719-1.449219-8.644532-4.894531-12.582032-2.3125-2.644531-5.414063-2.867187-6.042969-2.882812-.160156.015625-.320312.027344-.484375.027344-1.398437 0-2.875.402343-4.257813 1.164062-28.847656 15.871094-63.285156 15.867188-92.121093.003906-5.433594-2.996094-9.714844-.40625-12.351563 2.292969-2.964844 3.03125-4.632812 7.496094-4.574218 12.25l.347656 27.625c.046875 3.96875-2.636719 7.277344-6.53125 8.042969-3.898438.761718-7.636719-1.277344-9.09375-4.96875l-5.1875-13.113282c-.214844-.546874-.628906-.785156-.9375-.886718-.199219-.066406-.714844-.191406-1.199219.109375-2.324219 1.441406-5.25 1.507812-7.628906.183593-2.382813-1.328124-3.863281-3.851562-3.863281-6.582031v-17.855469c0-26.066406 10.726562-51.601562 29.433593-70.054687 18.457031-18.203125 42.570313-28.070313 68.003907-27.6914062 52.269531.7109372 94.796874 43.8281252 94.796874 96.1054692v20.011718c0 2.679688-1.453124 5.175782-3.785156 6.519532-2.296875 1.324218-5.132812 1.332031-7.394531.019531-.429687-.25-.875-.15625-1.105469-.074219-.253906.085938-.71875.324219-.949218.898438l-4.90625 12.40625c-1.253907 3.175781-4.191407 5.128906-7.464844 5.128906zm-18.617188-61.519532c3.496094 0 9.199219 1.414063 13.4375 6.25 5.050782 5.773438 7.460938 12.085938 7.371094 19.296876l-.21875 17.546874 1.101562-2.789062c1.238282-3.128906 3.78125-5.558594 6.96875-6.667969 1.816407-.628906 3.726563-.789062 5.5625-.496093v-16.53125c0-46.839844-38.101562-85.46875-84.929687-86.109376-22.734375-.332031-44.3125 8.503907-60.847656 24.8125-16.8125 16.585938-26.457031 39.523438-26.457031 62.9375v14.269532c1.914062-.378906 3.925781-.253906 5.84375.382812 3.246093 1.078125 5.828124 3.519532 7.085937 6.699219l1.382813 3.492187-.21875-17.277343c-.089844-7.390625 2.613281-14.449219 7.421874-19.367188 6.945313-7.105469 16.039063-8.625 24.324219-4.066406 25.816407 14.207031 56.648438 14.207031 82.476563 0 2.859375-1.570313 6-2.402344 9.082031-2.402344v.035157c.195313-.011719.398437-.015626.613281-.015626zm-141.773437 33.992188s0 .003906-.003907.003906c0 0 .003907-.003906.003907-.003906zm143.851562-24.800781c-.605469.386719-1.300781.648437-2.042969.746093.691407-.070312 1.398438-.328124 2.042969-.746093zm0 0"/><path d="m71.800781 446.164062h-54.128906c-9.5 0-17.230469-7.730468-17.230469-17.230468s7.730469-17.226563 17.230469-17.226563h54.128906c2.761719 0 5 2.238281 5 5v24.457031c0 2.761719-2.238281 5-5 5zm-54.128906-24.457031c-3.988281 0-7.230469 3.242188-7.230469 7.226563s3.246094 7.230468 7.230469 7.230468h49.128906v-14.460937h-49.128906zm0 0"/><path d="m331.105469 446.164062h-54.128907c-2.761718 0-5-2.238281-5-5v-24.460937c0-2.761719 2.238282-5 5-5h54.128907c9.5 0 17.230469 7.730469 17.230469 17.230469s-7.730469 17.230468-17.230469 17.230468zm-49.128907-10h49.128907c3.984375 0 7.230469-3.246093 7.230469-7.230468s-3.246094-7.226563-7.230469-7.226563h-49.128907zm0 0"/><path d="m71.796875 511.882812h-45.519531c-4.980469 0-9.800782-2.074218-13.222656-5.691406-3.421876-3.617187-5.222657-8.546875-4.945313-13.515625l2.882813-51.789062c.148437-2.648438 2.339843-4.722657 4.992187-4.722657h55.792969c2.761718 0 5 2.238282 5 5l.015625 65.6875c.007812 1.332032-.511719 2.609376-1.453125 3.554688-.9375.945312-2.210938 1.476562-3.542969 1.476562zm-51.082031-65.714843-2.621094 47.0625c-.128906 2.273437.664062 4.4375 2.226562 6.089843 1.5625 1.652344 3.679688 2.5625 5.957032 2.5625h40.5v-55.714843zm0 0"/><path d="m277.203125 511.882812h-205.40625c-2.75 0-4.984375-2.214843-5-4.964843l-.019531-2.835938v-82.375h-49.429688c-1.375 0-2.691406-.566406-3.632812-1.5625-.945313-1-1.4375-2.34375-1.359375-3.714843l5.394531-96.824219c.425781-7.6875 3.308594-14.859375 8.332031-20.738281.125-.148438.261719-.285157.402344-.417969 4.699219-5.324219 10.773437-9.039063 17.597656-10.757813l40.277344-10.140625c7.660156-1.925781 15.320313-4.238281 22.78125-6.867187l20.679687-10.195313c4.167969-2.058593 6.761719-6.222656 6.761719-10.871093v-6.445313c0-1.679687.839844-3.246094 2.238281-4.171875 1.402344-.925781 3.175782-1.085938 4.71875-.429688 7.707032 3.28125 15.894532 4.945313 24.335938 4.945313h16.425781c8.710938 0 17.152344-1.78125 25.097657-5.292969 1.546874-.683594 3.335937-.535156 4.75.386719 1.417968.921875 2.273437 2.5 2.273437 4.1875v6.820313c0 4.648437 2.589844 8.8125 6.757813 10.871093l21.710937 10.703125c6.777344 2.296875 13.707031 4.339844 20.613281 6.078125l41.414063 10.421875c6.847656 1.722656 12.933593 5.453125 17.636719 10.796875.125.121094.246093.25.363281.382813 5.023437 5.875 7.90625 13.046875 8.335937 20.734375l5.390625 96.824219c.078125 1.371093-.414062 2.714843-1.359375 3.714843-.945312 1-2.257812 1.5625-3.632812 1.5625h-49.433594l-.015625 85.179688c0 2.757812-2.238281 4.996093-5 4.996093zm-200.425781-10h195.429687l.015625-85.179687c0-2.757813 2.238282-5 5-5h49.144532l-5.097657-91.542969c-.300781-5.328125-2.253906-10.316406-5.660156-14.445312-.109375-.105469-.210937-.214844-.3125-.332032-3.394531-3.972656-7.828125-6.738281-12.820313-7.996093l-41.414062-10.421875c-7.269531-1.832032-14.570312-3.988282-21.699219-6.410156-.207031-.070313-.40625-.15625-.601562-.25l-22.003907-10.851563c-7.480468-3.6875-12.175781-11.09375-12.335937-19.40625-7.125 2.304687-14.539063 3.464844-22.121094 3.464844h-16.429687c-7.300782 0-14.4375-1.074219-21.304688-3.195313-.253906 8.203125-4.925781 15.488282-12.328125 19.136719l-20.945312 10.328125c-.175781.085938-.355469.164062-.542969.230469-7.839844 2.773437-15.898438 5.210937-23.953125 7.238281l-40.277344 10.136719c-4.992187 1.257812-9.425781 4.023437-12.820312 8-.105469.128906-.222657.25-.34375.363281-3.386719 4.125-5.332031 9.09375-5.628907 14.410156l-5.101562 91.546875h49.144531c2.761719 0 5 2.238281 5 5v85.175781zm0 0"/><path d="m182.300781 253.515625h-16.425781c-39.804688 0-72.183594-32.382813-72.183594-72.183594v-54.976562c0-2.398438 1.703125-4.460938 4.0625-4.910157 1.851563-.351562 3.703125.367188 4.835938 1.78125l-.222656-17.902343c-.09375-7.390625 2.613281-14.449219 7.421874-19.371094 6.945313-7.101563 16.039063-8.621094 24.324219-4.0625 25.816407 14.210937 56.652344 14.210937 82.476563 0 2.855468-1.570313 5.996094-2.402344 9.078125-2.402344v.035157c3.433593-.175782 9.558593 1.101562 14.050781 6.238281 5.050781 5.773437 7.460938 12.082031 7.375 19.292969l-.253906 20.296874c1.035156-.648437 2.304687-.910156 3.582031-.671874 2.355469.449218 4.0625 2.511718 4.0625 4.914062v51.738281c0 39.800781-32.378906 72.183594-72.183594 72.183594zm-78.609375-112.535156v40.351562c0 34.285157 27.894532 62.183594 62.183594 62.183594h16.425781c34.292969 0 62.183594-27.898437 62.183594-62.183594v-40.316406c-.398437-.019531-.800781-.070313-1.207031-.148437-3.894532-.769532-6.582032-4.078126-6.53125-8.042969l.347656-27.894531c.058594-4.765626-1.449219-8.648438-4.894531-12.585938-2.3125-2.640625-5.414063-2.863281-6.042969-2.878906-.160156.015625-.320312.023437-.484375.023437-1.398437 0-2.875.402344-4.257813 1.167969-28.847656 15.867188-63.285156 15.867188-92.121093 0-5.433594-2.992188-9.714844-.40625-12.351563 2.292969-2.964844 3.03125-4.632812 7.5-4.574218 12.25l.347656 27.625c.046875 3.96875-2.636719 7.277343-6.53125 8.042969-.847656.167968-1.683594.203124-2.492188.113281zm139.378906-8.761719s0 0-.003906.003906zm-14.707031-43.519531c-.605469.390625-1.300781.648437-2.042969.746093.691407-.070312 1.398438-.328124 2.042969-.746093zm0 0"/><path d="m249.484375 175.355469c-1.199219 0-2.371094-.433594-3.285156-1.234375-1.089844-.949219-1.714844-2.320313-1.714844-3.765625v-40.761719c0-.632812.121094-1.253906.351563-1.839844l3.136718-7.933594c1.238282-3.132812 3.78125-5.5625 6.972656-6.671874 2.457032-.855469 5.09375-.84375 7.480469-.011719.550781-.371094 1.183594-.628907 1.859375-.757813 1.484375-.28125 3.035156.136719 4.1875 1.128906 7.808594 6.742188 12.289063 16.492188 12.289063 26.753907 0 17.601562-13.15625 32.671875-30.597657 35.050781-.226562.027344-.453124.042969-.679687.042969zm5-44.8125v33.398437c9.585937-3.707031 16.277344-13.050781 16.277344-23.679687 0-6.199219-2.285157-12.136719-6.359375-16.75-1.742188.347656-3.53125.050781-5.074219-.84375-.429687-.25-.875-.15625-1.105469-.074219-.253906.085938-.71875.324219-.949218.898438zm6.304687-15.601563v.003906c0-.003906 0-.003906 0-.003906zm0 0"/><path d="m98.691406 175.246094c-.257812 0-.515625-.019532-.777344-.058594-17.324218-2.722656-29.894531-17.410156-29.894531-34.925781 0-10.398438 4.570313-20.226563 12.539063-26.964844 1.050781-.890625 2.414062-1.304687 3.792968-1.152344.621094.070313 1.210938.253907 1.753907.539063 2.519531-1.046875 5.355469-1.15625 8.011719-.273438 3.246093 1.078125 5.828124 3.519532 7.085937 6.703125l2.140625 5.40625c.226562.585938.347656 1.207031.347656 1.839844v43.890625c0 1.460938-.640625 2.847656-1.75 3.796875-.914062.78125-2.066406 1.199219-3.25 1.199219zm-13.917968-52.171875c-4.324219 4.660156-6.753907 10.773437-6.753907 17.1875 0 10.515625 6.320313 19.609375 15.671875 23.4375v-36.390625l-1.789062-4.523438c-.214844-.546875-.628906-.78125-.9375-.886718-.199219-.066407-.71875-.1875-1.203125.113281-1.550781.957031-3.316407 1.296875-4.988281 1.0625zm0 0"/><path d="m180.089844 393.171875h-12.761719c-5.980469 0-10.847656-4.867187-10.847656-10.847656v-44.070313c0-.289062-.195313-.539062-.480469-.621094-25.4375-7.417968-45.898438-30.621093-53.410156-60.554687-.628906-2.515625.761718-5.089844 3.207031-5.941406l1.367187-.464844 20.65625-10.183594c4.171876-2.058593 6.761719-6.222656 6.761719-10.871093v-6.445313c0-1.679687.84375-3.246094 2.242188-4.171875 1.402343-.925781 3.175781-1.085938 4.714843-.429688 7.710938 3.28125 15.898438 4.945313 24.335938 4.945313h16.429688c8.707031 0 17.152343-1.78125 25.09375-5.292969 1.550781-.683594 3.335937-.535156 4.75.386719 1.417968.921875 2.273437 2.5 2.273437 4.1875v6.820313c0 4.648437 2.589844 8.8125 6.761719 10.867187l21.117187 10.414063c2.105469 1.039062 3.207031 3.398437 2.644531 5.675781-7.410156 30.195312-27.921874 53.59375-53.527343 61.058593-.289063.082032-.476563.332032-.476563.621094v44.070313c-.003906 5.980469-4.871094 10.847656-10.851562 10.847656zm-66.671875-114.433594c7.386719 24.503907 24.488281 43.203125 45.378906 49.292969 4.523437 1.320312 7.679687 5.519531 7.679687 10.222656v44.070313c0 .46875.382813.847656.847657.847656h12.765625c.464844 0 .847656-.378906.847656-.847656v-44.070313c0-4.699218 3.15625-8.902344 7.675781-10.21875 21.109375-6.15625 38.304688-25.125 45.578125-49.984375l-13.75-6.777343-3.683594-1.820313c-7.480468-3.683594-12.175781-11.09375-12.335937-19.40625-7.125 2.304687-14.539063 3.464844-22.121094 3.464844h-16.429687c-7.300782 0-14.4375-1.074219-21.304688-3.195313-.253906 8.199219-4.925781 15.488282-12.328125 19.136719zm0 0"/><path d="m185.9375 344.257812c-2.761719 0-5-2.238281-5-5v-16.304687c0-3.988281-3.242188-7.230469-7.230469-7.230469-2.761719 0-5-2.238281-5-5 0-2.761718 2.238281-5 5-5 9.5 0 17.230469 7.730469 17.230469 17.230469v16.304687c0 2.757813-2.238281 5-5 5zm0 0"/><path d="m170.648438 331.003906c-.320313 0-.660157-.039062-.980469-.097656-.320313-.0625-.621094-.160156-.941407-.28125-.296874-.121094-.578124-.28125-.859374-.460938-.257813-.179687-.519532-.398437-.757813-.621093-.921875-.9375-1.460937-2.21875-1.460937-3.539063 0-1.320312.539062-2.597656 1.460937-3.539062.238281-.21875.5-.441406.757813-.621094.28125-.179688.5625-.320312.859374-.460938.320313-.117187.621094-.21875.941407-.277343.640625-.121094 1.320312-.121094 1.960937 0 .320313.058593.640625.160156.9375.277343.300782.140626.582032.28125.863282.460938.277343.179688.519531.402344.757812.621094.21875.238281.441406.5.621094.757812.179687.28125.339844.5625.460937.863282.117188.320312.21875.617187.277344.9375.0625.320312.101563.660156.101563.980468 0 1.320313-.539063 2.621094-1.460938 3.539063-.238281.222656-.480469.441406-.757812.621093-.28125.179688-.5625.339844-.863282.460938-.296875.121094-.617187.21875-.9375.28125-.320312.058594-.660156.097656-.980468.097656zm0 0"/><path d="m173.707031 315.71875c-22.914062 0-43.363281-19.414062-50.894531-48.3125-.597656-2.296875.5-4.699219 2.625-5.746094l2.378906-1.175781c4.171875-2.054687 6.761719-6.222656 6.761719-10.871094v-6.445312c0-1.675781.84375-3.246094 2.242187-4.167969 1.402344-.925781 3.175782-1.085938 4.714844-.429688 7.710938 3.28125 15.898438 4.941407 24.335938 4.941407h16.429687c8.707031 0 17.152344-1.78125 25.09375-5.289063 1.550781-.683594 3.335938-.539062 4.75.382813 1.417969.921875 2.273438 2.5 2.273438 4.191406v6.816406c0 4.648438 2.589843 8.816407 6.761719 10.871094l.96875.476563c2.113281 1.046874 3.207031 3.417968 2.632812 5.707031-7.375 29.339843-27.902344 49.050781-51.074219 49.050781zm-40.109375-46.988281c7.03125 22.285156 22.796875 36.992187 40.109375 36.992187 17.585938 0 33.46875-15.046875 40.363281-37.828125-5.898437-4.003906-9.507812-10.582031-9.644531-17.84375-7.125 2.300781-14.539062 3.464844-22.125 3.464844h-16.425781c-7.300781 0-14.4375-1.074219-21.308594-3.195313-.234375 7.6875-4.359375 14.570313-10.96875 18.410157zm0 0"/><path d="m322.722656 511.882812h-45.519531c-1.332031 0-2.605469-.53125-3.546875-1.472656-.9375-.945312-1.457031-2.226562-1.453125-3.558594l.019531-2.835937v-62.851563c0-2.765624 2.238282-5 5-5h55.792969c2.652344 0 4.84375 2.070313 4.992187 4.71875l2.882813 51.792969c.277344 4.972657-1.527344 9.898438-4.949219 13.515625-3.421875 3.617188-8.238281 5.691406-13.21875 5.691406zm-40.5-10h40.5c2.277344 0 4.390625-.910156 5.957032-2.5625 1.566406-1.652343 2.355468-3.816406 2.226562-6.089843l-2.621094-47.066407h-46.0625zm0 0"/></g></svg>