<svg height="511pt" viewBox="-88 0 511 511.998" width="511pt" xmlns="http://www.w3.org/2000/svg"><path d="m331.242188 492.941406-9.726563-174.640625c-.734375-13.1875-9.957031-24.363281-22.769531-27.589843l-40.640625-10.230469c-8.015625-2.015625-15.929688-4.40625-23.71875-7.167969l-18.394531-9.070312-2.738282-1.347657c-5.902344-2.910156-9.636718-8.917969-9.636718-15.496093v-5.910157c-8.035157 7.480469-17.335938 14.214844-27.960938 19.109375-4.738281 2.179688-10.179688 2.179688-14.914062 0-10.46875-4.820312-19.640626-11.433594-27.597657-18.777344v5.578126c0 6.578124-3.734375 12.585937-9.632812 15.492187l-3.71875 1.835937-18.488281 9.117188c-7.078126 2.40625-14.25 4.523438-21.5 6.347656l-41.789063 10.519532c-12.8125 3.222656-22.035156 14.402343-22.769531 27.589843l-9.726563 174.636719c-.425781 7.632812 5.652344 14.058594 13.296875 14.058594h299.132813c7.644531 0 13.71875-6.421875 13.292969-14.054688zm0 0" fill="#fee3c6"/><path d="m317.945312 506.996094c7.648438 0 13.722657-6.421875 13.296876-14.054688l-9.726563-174.640625c-.738281-13.1875-9.960937-24.363281-22.769531-27.589843l-41.789063-10.515626c-7.25-1.824218-14.421875-3.945312-21.5-6.351562l-18.488281-9.117188-2.425781-1.195312-30.339844 243.464844zm0 0" fill="#1b87c9"/><path d="m213.253906 262.894531c-5.902344-2.910156-9.636718-8.917969-9.636718-15.496093v-5.910157c-8.035157 7.480469-17.335938 14.214844-27.960938 19.109375-4.738281 2.179688-10.179688 2.179688-14.914062 0-10.46875-4.820312-19.640626-11.433594-27.597657-18.777344v5.578126c0 6.578124-3.734375 12.585937-9.632812 15.492187l-1.738281.855469 15.492187 122.402344c10.023437 1.171874 20.425781 1.808593 31.117187 1.808593 10.605469 0 20.929688-.628906 30.878907-1.777343l15.285156-122.652344zm0 0" fill="#fcb275"/><path d="m176.789062 347.605469c0-6.6875-4.066406-12.109375-9.082031-12.109375-5.011719 0-9.078125 5.421875-9.078125 12.109375 0 6.683593 4.066406 12.105469 9.078125 12.105469 5.015625 0 9.082031-5.421876 9.082031-12.105469zm0 0" fill="#f45687"/><path d="m167.707031 364.710938c-7.894531 0-14.078125-7.515626-14.078125-17.105469 0-9.59375 6.183594-17.109375 14.078125-17.109375s14.078125 7.515625 14.078125 17.109375c0 9.589843-6.183594 17.105469-14.078125 17.105469zm0-24.214844c-1.925781 0-4.078125 3.042968-4.078125 7.109375 0 4.066406 2.152344 7.105469 4.078125 7.105469s4.078125-3.039063 4.078125-7.105469c0-4.066407-2.152344-7.109375-4.078125-7.109375zm0 0" fill="#231f20"/><path d="m70.390625 282.5625 9.414063-2.371094c3.625-.910156 7.230468-1.898437 10.8125-2.957031 3.585937-1.054687 7.148437-2.1875 10.6875-3.390625l9.242187-4.558594 9.246094-4.558594 3.71875-1.835937c5.898437-2.90625 9.632812-8.914063 9.632812-15.492187v-5.578126c8.039063 7.421876 17.34375 14.019532 27.390625 18.675782.070313.03125.136719.070312.210938.101562.101562.046875.210937.082032.316406.125 4.433594 1.9375 9.773438 2.117188 15.050781-.347656 10.167969-4.753906 19.386719-11.328125 27.503907-18.886719v5.914063c0 6.578125 3.734374 12.582031 9.636718 15.492187l1.289063.640625 2.429687 1.195313 17.417969 8.585937c5.21875 1.851563 10.503906 3.523438 15.832031 5.039063 1.726563.480469 3.449219.96875 5.183594 1.414062.902344.238281 1.796875.488281 2.695312.710938l7.828126 1.972656v-119.226563c3.734374-7.75 3.738281-16.585937 0-24.347656v-36.109375c0-53.996093-43.773438-97.769531-97.769532-97.769531s-97.769531 43.773438-97.769531 97.769531v37.03125c-3.148437 7.183594-3.152344 15.3125 0 22.503907zm0 0" fill="#7c292e"/><path d="m18.816406 506.996094c-7.648437 0-13.722656-6.421875-13.296875-14.054688l9.726563-174.640625c.738281-13.1875 9.960937-24.363281 22.769531-27.589843l41.789063-10.515626c7.25-1.824218 14.421874-3.945312 21.5-6.351562l18.488281-9.117188 1.980469-.976562 30.785156 243.246094zm0 0" fill="#1b87c9"/><path d="m96.777344 144.660156 2.09375-21.566406c-.902344-.085938-1.816406-.136719-2.746094-.136719-15.515625 0-28.097656 12.578125-28.097656 28.097657 0 15.515624 12.582031 28.097656 28.097656 28.097656.710938 0 1.40625-.054688 2.105469-.105469-2.144531-11.222656-2.6875-22.804687-1.453125-34.386719zm0 0" fill="#fcb275"/><path d="m240.636719 122.953125c-1.054688 0-2.085938.070313-3.109375.179687l2.09375 21.523438c1.230468 11.578125.691406 23.15625-1.449219 34.371094.8125.070312 1.632813.121094 2.464844.121094 15.515625 0 28.097656-12.578126 28.097656-28.097657 0-15.515625-12.582031-28.097656-28.097656-28.097656zm0 0" fill="#fcb275"/><path d="m239.621094 144.660156-1.742188-17.894531c-.335937-3.484375-2.421875-6.566406-5.53125-8.179687-6.269531-3.253907-12.726562-5.992188-19.3125-8.226563-.898437-.304687-1.554687-1.078125-1.695312-2.019531l-4.257813-28.738282c-.121093-.808593-1.269531-.847656-1.441406-.050781l-5.339844 24.554688c-.296875 1.367187-1.644531 2.21875-3.015625 1.929687-5.898437-1.25-11.863281-2.113281-17.851562-2.582031-1.183594-.089844-2.144532-.972656-2.316406-2.144531l-2.320313-15.65625c-.121094-.804688-1.269531-.84375-1.445313-.046875l-3.359374 15.457031c-.25 1.160156-1.273438 1.976562-2.460938 1.984375-21.804688.171875-43.578125 5.488281-63.421875 15.964844-3.050781 1.609375-5.113281 4.632812-5.472656 8.0625l-1.863281 17.589843c-3.636719 34.183594 7.832031 68.449219 31.96875 92.925782 8.902343 9.03125 19.546874 17.277344 31.996093 23.011718 4.734375 2.183594 10.175781 2.183594 14.910157 0 12.449218-5.734374 23.09375-13.980468 32-23.011718 24.140624-24.480469 35.609374-58.746094 31.972656-92.929688zm0 0" fill="#fcb275"/><path d="m90.699219 331.460938 4.394531-55.648438c2.074219-.648438 4.15625-1.269531 6.210938-1.96875l18.488281-9.117188 1.980469-.980468 30.785156 243.25h-16.144532zm0 0" fill="#30a9e5"/><path d="m246.0625 331.460938-4.394531-55.648438c-2.074219-.648438-4.15625-1.269531-6.210938-1.96875l-18.488281-9.117188-2.425781-1.195312-30.339844 243.464844h16.144531zm0 0" fill="#30a9e5"/><path d="m168.378906 387.957031c-10.6875 0-21.09375-.636719-31.117187-1.804687l15.296875 120.847656h31.644531l15.058594-120.816406c-9.949219 1.148437-20.273438 1.773437-30.882813 1.773437zm0 0" fill="#e8e6e6"/><g fill="#231f20"><path d="m168.507812 219.347656c-6.257812 0-11.960937-2.214844-15.644531-6.070312-1.910156-2-1.835937-5.164063.160157-7.070313 1.992187-1.910156 5.160156-1.835937 7.070312.160157 1.753906 1.835937 4.976562 2.980468 8.414062 2.980468 3.433594 0 6.65625-1.140625 8.410157-2.976562 1.90625-2 5.070312-2.070313 7.070312-.167969 1.996094 1.910156 2.070313 5.074219.164063 7.070313-3.628906 3.804687-9.480469 6.074218-15.644532 6.074218zm0 0"/><path d="m205.75 147.421875c-.792969 0-1.59375-.191406-2.34375-.585937-1.261719-.675782-4.160156-1.351563-7.789062-1.351563-3.625 0-6.523438.675781-7.785157 1.351563-2.441406 1.292968-5.46875.371093-6.761719-2.066407-1.296874-2.441406-.375-5.46875 2.066407-6.761719 3.011719-1.605468 7.558593-2.523437 12.480469-2.523437 4.917968 0 9.46875.917969 12.480468 2.523437 2.441406 1.292969 3.363282 4.320313 2.066406 6.761719-.894531 1.6875-2.625 2.652344-4.414062 2.652344zm0 0"/><path d="m151.273438 147.421875c-.792969 0-1.597657-.191406-2.34375-.585937-1.265626-.675782-4.164063-1.351563-7.789063-1.351563s-6.523437.675781-7.789063 1.351563c-2.433593 1.292968-5.464843.371093-6.761718-2.066407-1.296875-2.441406-.371094-5.46875 2.066406-6.761719 3.011719-1.605468 7.5625-2.523437 12.484375-2.523437 4.917969 0 9.46875.917969 12.480469 2.523437 2.441406 1.292969 3.363281 4.320313 2.066406 6.761719-.894531 1.6875-2.625 2.652344-4.414062 2.652344zm0 0"/><path d="m141.949219 167.015625c-3.3125 0-6-2.6875-6-6v-1.109375c0-3.3125 2.6875-6 6-6s6 2.6875 6 6v1.109375c0 3.3125-2.6875 6-6 6zm0 0"/><path d="m195.066406 167.863281c-3.316406 0-6-2.683593-6-6v-1.105469c0-3.316406 2.683594-6 6-6 3.3125 0 6 2.683594 6 6v1.105469c0 3.316407-2.6875 6-6 6zm0 0"/><path d="m317.945312 511.996094h-299.128906c-5.011718 0-9.863281-2.085938-13.304687-5.726563-3.445313-3.644531-5.261719-8.601562-4.984375-13.609375l9.726562-174.636718c.863282-15.460938 11.527344-28.382813 26.539063-32.164063l41.792969-10.515625c6.976562-1.753906 13.972656-3.820312 20.804687-6.132812l21.910156-10.804688c4.222657-2.082031 6.847657-6.300781 6.847657-11.007812v-5.582032c0-1.988281 1.175781-3.785156 2.996093-4.582031 1.820313-.792969 3.9375-.4375 5.394531.910156 8.308594 7.671875 17.15625 13.699219 26.296876 17.90625 3.410156 1.570313 7.316406 1.574219 10.726562 0 9.28125-4.273437 18.246094-10.40625 26.648438-18.226562 1.457031-1.351563 3.574218-1.71875 5.402343-.921875 1.824219.792968 3.003907 2.59375 3.003907 4.582031v5.914063c0 4.707031 2.625 8.925781 6.84375 11.007812l20.871093 10.289062c7.527344 2.65625 15.261719 4.988282 22.996094 6.933594l40.640625 10.230469c15.015625 3.777344 25.679688 16.703125 26.539062 32.160156l9.726563 174.640625c.28125 5.003906-1.535156 9.964844-4.980469 13.605469-3.441406 3.644531-8.292968 5.730469-13.308594 5.730469zm-180.3125-259.796875c-1.421874 6.542969-5.71875 12.125-11.910156 15.179687l-22.207031 10.949219c-.195313.097656-.394531.179687-.601563.25-7.183593 2.445313-14.550781 4.621094-21.890624 6.464844l-41.789063 10.519531c-10.746094 2.707031-18.382813 11.957031-18.996094 23.019531l-9.730469 174.636719c-.125 2.304688.675782 4.5 2.265626 6.179688 1.585937 1.675781 3.730468 2.601562 6.042968 2.601562h299.128906c2.3125 0 4.457032-.925781 6.042969-2.601562 1.589844-1.675782 2.390625-3.871094 2.261719-6.175782l-9.726562-174.640625c-.613282-11.0625-8.25-20.3125-18.996094-23.019531l-40.640625-10.230469c-8.128907-2.042969-16.261719-4.503906-24.167969-7.300781-.183594-.066406-.367188-.144531-.542969-.230469l-21.132812-10.417969c-6.269531-3.09375-10.597657-8.777343-11.960938-15.421874-6.839843 5.378906-13.984375 9.796874-21.332031 13.179687-6.066406 2.792969-13.027344 2.796875-19.097656 0-7.230469-3.332031-14.269532-7.667969-21.019532-12.941406zm0 0"/><path d="m64.730469 509.136719c-2.761719 0-5-2.238281-5-5v-113.113281c0-2.761719 2.238281-5 5-5s5 2.238281 5 5v113.113281c0 2.761719-2.238281 5-5 5zm0 0"/><path d="m272.035156 509.136719c-2.761718 0-5-2.238281-5-5v-113.113281c0-2.761719 2.238282-5 5-5 2.761719 0 5 2.238281 5 5v113.113281c0 2.761719-2.238281 5-5 5zm0 0"/><path d="m152.558594 511.996094h-133.742188c-5.011718 0-9.863281-2.085938-13.308594-5.726563-3.441406-3.644531-5.257812-8.601562-4.980468-13.609375l9.726562-174.636718c.863282-15.457032 11.527344-28.382813 26.539063-32.160157l41.792969-10.519531c6.976562-1.753906 13.972656-3.816406 20.804687-6.128906l20.175781-9.949219c1.449219-.714844 3.152344-.6875 4.578125.082031 1.421875.765625 2.386719 2.171875 2.59375 3.777344l30.78125 243.25c.179688 1.421875-.261719 2.855469-1.207031 3.933594-.957031 1.070312-2.320312 1.6875-3.753906 1.6875zm-34.867188-240.660156-14.175781 6.988281c-.195313.097656-.394531.183593-.601563.25-7.183593 2.445312-14.550781 4.621093-21.890624 6.46875l-41.789063 10.519531c-10.746094 2.707031-18.382813 11.957031-18.996094 23.019531l-9.726562 174.636719c-.128907 2.308594.671875 4.5 2.261719 6.179688 1.585937 1.675781 3.730468 2.601562 6.042968 2.601562h128.070313zm0 0"/><path d="m317.945312 511.996094h-133.742187c-1.433594 0-2.796875-.613282-3.746094-1.6875-.949219-1.074219-1.390625-2.503906-1.210937-3.929688l30.339844-243.46875c.199218-1.605468 1.164062-3.015625 2.585937-3.78125 1.425781-.765625 3.136719-.800781 4.585937-.085937l20.617188 10.167969c6.824219 2.3125 13.824219 4.375 20.804688 6.128906l41.792968 10.519531c15.011719 3.777344 25.675782 16.703125 26.539063 32.160156l9.726562 174.636719c.277344 5.007812-1.539062 9.964844-4.984375 13.609375-3.445312 3.644531-8.296875 5.730469-13.308594 5.730469zm-128.078124-10h128.078124c2.308594 0 4.457032-.921875 6.042969-2.601563 1.589844-1.675781 2.390625-3.871093 2.265625-6.175781l-9.730468-174.640625c-.613282-11.0625-8.25-20.3125-18.996094-23.019531l-41.789063-10.519532c-7.347656-1.847656-14.710937-4.023437-21.890625-6.464843-.207031-.070313-.40625-.152344-.601562-.25l-14.609375-7.203125zm0 0"/><path d="m96.125 184.152344c-18.25 0-33.097656-14.847656-33.097656-33.097656s14.847656-33.097657 33.097656-33.097657c1.050781 0 2.109375.050781 3.230469.160157 2.75.269531 4.761719 2.710937 4.492187 5.460937l-2.09375 21.566406c-.003906.015625-.003906.03125-.003906.046875-1.164062 10.917969-.695312 21.996094 1.390625 32.917969.265625 1.402344-.078125 2.847656-.945313 3.980469-.867187 1.128906-2.175781 1.839844-3.597656 1.945312-.863281.0625-1.660156.117188-2.472656.117188zm-2.765625-56.03125c-11.4375 1.371094-20.332031 11.132812-20.332031 22.929687 0 11.433594 8.351562 20.957031 19.277344 22.785157-1.378907-9.882813-1.546876-19.839844-.5-29.683594zm3.417969 16.539062h.019531zm0 0"/><path d="m240.636719 184.152344c-.980469 0-1.945313-.058594-2.902344-.144532-1.40625-.125-2.699219-.835937-3.550781-1.964843-.851563-1.128907-1.1875-2.5625-.925782-3.953125 2.085938-10.910156 2.554688-21.980469 1.390626-32.902344l-2.097657-21.566406c-.265625-2.722656 1.707031-5.152344 4.425781-5.457032 1.28125-.140624 2.476563-.207031 3.660157-.207031 18.25 0 33.097656 14.847657 33.097656 33.097657s-14.847656 33.097656-33.097656 33.097656zm2.394531-56.074219 1.566406 16.097656c1.042969 9.839844.875 19.816407-.511718 29.71875 11.105468-1.671875 19.644531-11.277343 19.644531-22.84375.003906-11.925781-9.082031-21.769531-20.699219-22.972656zm0 0"/><path d="m168.199219 267.234375c-3.257813 0-6.515625-.699219-9.546875-2.097656-11.863282-5.460938-23.121094-13.546875-33.46875-24.039063-25.0625-25.417968-37.230469-60.761718-33.375-96.96875l1.859375-17.582031c.542969-5.097656 3.578125-9.570313 8.121093-11.960937 19.574219-10.335938 41.574219-16.027344 63.742188-16.511719l2.945312-13.535157c.589844-2.707031 3.074219-4.582031 5.789063-4.511718 2.769531.089844 5.074219 2.144531 5.484375 4.882812l2.03125 13.722656c4.734375.433594 9.480469 1.113282 14.15625 2.019532l4.820312-22.167969c.589844-2.707031 3.066407-4.578125 5.800782-4.511719 2.769531.09375 5.070312 2.15625 5.472656 4.898438l4.039062 27.246094c6.375 2.238281 12.621094 4.9375 18.585938 8.03125 4.628906 2.40625 7.699219 6.941406 8.203125 12.132812l1.738281 17.878906c3.84375 36.195313-8.324218 71.527344-33.378906 96.9375-10.347656 10.492188-21.609375 18.582032-33.46875 24.042969-3.039062 1.394531-6.296875 2.09375-9.550781 2.09375zm5.222656-162.019531c-1.375 1.730468-3.488281 2.808594-5.84375 2.828125-21.242187.167969-42.378906 5.488281-61.125 15.386719-1.589844.835937-2.652344 2.394531-2.839844 4.171874l-1.863281 17.585938c-3.535156 33.210938 7.605469 65.613281 30.554688 88.886719 9.496093 9.628906 19.769531 17.023437 30.53125 21.980469 3.410156 1.570312 7.316406 1.570312 10.726562 0 10.761719-4.957032 21.035156-12.351563 30.53125-21.980469 22.949219-23.277344 34.089844-55.671875 30.554688-88.886719 0-.011719 0-.03125-.003907-.042969l-1.738281-17.894531c-.175781-1.808594-1.246094-3.386719-2.863281-4.226562-5.957031-3.09375-12.21875-5.757813-18.613281-7.929688-2.6875-.910156-4.617188-3.21875-5.035157-6.015625l-.832031-5.632813-.375 1.71875c-.875 4.035157-4.871094 6.625-8.941406 5.757813-5.660156-1.199219-11.453125-2.035156-17.207032-2.484375-2.335937-.1875-4.363281-1.40625-5.617187-3.222656zm0 0"/><path d="m70.390625 287.5625c-1.101563 0-2.1875-.363281-3.074219-1.054688-1.214844-.949218-1.925781-2.402343-1.925781-3.945312v-119.253906c-3.128906-7.847656-3.128906-16.664063 0-24.511719v-36.027344c0-56.664062 46.101563-102.769531 102.769531-102.769531 56.667969 0 102.769532 46.101562 102.769532 102.769531v35.015625c3.734374 8.496094 3.734374 18.039063 0 26.535156v118.128907c0 1.542969-.707032 2.996093-1.925782 3.945312-1.214844.949219-2.804687 1.285157-4.292968.90625l-7.824219-1.972656c-.609375-.148437-1.210938-.3125-1.816407-.472656l-.933593-.25c-1.476563-.382813-2.96875-.796875-4.457031-1.214844l-.796876-.21875c-5.589843-1.59375-11.019531-3.320313-16.160156-5.140625-.1875-.066406-.367187-.144531-.542968-.230469l-21.136719-10.417969c-6.269531-3.09375-10.597657-8.777343-11.960938-15.421874-6.675781 5.246093-13.65625 9.582031-20.847656 12.941406-6.261719 2.925781-13.070313 3.066406-19.171875.40625-.058594-.019532-.21875-.082032-.382812-.15625-.054688-.023438-.21875-.101563-.273438-.128906-7.136719-3.3125-14.097656-7.609376-20.769531-12.820313-1.425781 6.539063-5.71875 12.125-11.914063 15.179687l-22.207031 10.949219c-.195313.097657-.394531.179688-.597656.25-3.578125 1.214844-7.238281 2.378907-10.882813 3.457031-3.617187 1.070313-7.324218 2.082032-11.007812 3.007813l-9.414063 2.371094c-.40625.09375-.816406.144531-1.222656.144531zm97.769531-277.5625c-51.152344 0-92.769531 41.617188-92.769531 92.769531v37.03125c0 .6875-.140625 1.375-.417969 2.003907-2.574218 5.878906-2.574218 12.617187 0 18.496093.277344.632813.417969 1.316407.417969 2.003907v113.839843l3.195313-.800781c3.554687-.894531 7.125-1.875 10.617187-2.90625 3.410156-1.007812 6.835937-2.089844 10.1875-3.226562l21.910156-10.804688c4.222657-2.082031 6.847657-6.300781 6.847657-11.007812v-5.582032c0-1.988281 1.175781-3.785156 2.996093-4.582031 1.820313-.792969 3.9375-.4375 5.394531.910156 8.125 7.5 17.148438 13.660157 26.101563 17.8125.023437.007813.070313.03125.121094.058594.117187.042969.222656.085937.328125.132813 3.40625 1.488281 7.292968 1.382812 10.910156-.308594 9.152344-4.28125 17.972656-10.339844 26.210938-18.015625 1.457031-1.351563 3.570312-1.71875 5.402343-.925781 1.824219.796874 3.003907 2.59375 3.003907 4.585937v5.910156c0 4.710938 2.625 8.925781 6.847656 11.007813l20.871094 10.292968c4.867187 1.714844 10 3.34375 15.257812 4.84375l.777344.214844c1.425781.398438 2.855468.796875 4.292968 1.167969l1 .265625c.550782.148438 1.105469.296875 1.660157.4375l1.609375.40625v-112.804688c0-.753906.171875-1.496093.496094-2.171874 3.066406-6.355469 3.066406-13.644532 0-20-.324219-.675782-.496094-1.417969-.496094-2.171876v-36.113281c-.003906-51.152343-41.621094-92.769531-92.773438-92.769531zm0 0"/><path d="m168.378906 334.445312c-16.769531 0-32.578125-7.488281-44.523437-21.089843-1.820313-2.074219-1.617188-5.234375.460937-7.054688 2.074219-1.824219 5.230469-1.617187 7.054688.457031 10.015625 11.40625 23.15625 17.6875 37.007812 17.6875 13.636719 0 26.636719-6.117187 36.597656-17.222656 1.84375-2.058594 5-2.230468 7.058594-.382812 2.054688 1.84375 2.226563 5.003906.382813 7.058594-11.878907 13.25-27.515625 20.546874-44.039063 20.546874zm0 0"/><path d="m152.558594 511.996094h-16.144532c-2.273437 0-4.265624-1.535156-4.835937-3.738282l-45.714844-175.535156c-.136719-.539062-.191406-1.097656-.144531-1.65625l4.390625-55.644531c.160156-2.035156 1.542969-3.765625 3.484375-4.378906l1.734375-.539063c1.359375-.417968 2.714844-.84375 4.0625-1.292968l20.171875-9.945313c1.449219-.71875 3.15625-.6875 4.578125.082031 1.425781.765625 2.390625 2.171875 2.59375 3.773438l30.785156 243.25c.179688 1.425781-.261719 2.859375-1.210937 3.933594-.953125 1.074218-2.316406 1.691406-3.75 1.691406zm-12.28125-10h6.609375l-29.195313-230.660156-14.175781 6.988281c-.195313.097656-.398437.183593-.601563.25-1.03125.351562-2.066406.683593-3.101562 1.007812l-4.0625 51.4375zm0 0"/><path d="m200.347656 511.996094h-16.144531c-1.433594 0-2.796875-.613282-3.746094-1.6875-.949219-1.074219-1.390625-2.503906-1.210937-3.929688l30.339844-243.46875c.199218-1.605468 1.164062-3.015625 2.585937-3.78125 1.425781-.765625 3.136719-.800781 4.585937-.085937l20.613282 10.167969c1.351562.453124 2.710937.875 4.070312 1.296874l1.726563.535157c1.945312.613281 3.324219 2.34375 3.484375 4.378906l4.390625 55.644531c.046875.558594-.003907 1.117188-.144531 1.65625l-45.710938 175.535156c-.574219 2.203126-2.5625 3.738282-4.839844 3.738282zm-10.480468-10h6.617187l44.527344-170.976563-4.0625-51.4375c-1.035157-.324219-2.070313-.65625-3.097657-1.007812-.207031-.066407-.410156-.152344-.605468-.25l-14.609375-7.203125zm0 0"/><path d="m168.378906 392.957031c-10.574218 0-21.242187-.621093-31.695312-1.839843-2.285156-.265626-4.09375-2.058594-4.378906-4.339844l-15.492188-122.402344c-.269531-2.113281.835938-4.167969 2.75-5.109375l1.734375-.859375c4.222656-2.082031 6.847656-6.296875 6.847656-11.007812v-5.582032c0-1.984375 1.175781-3.78125 2.996094-4.578125s3.9375-.4375 5.394531.90625c8.3125 7.675781 17.160156 13.703125 26.296875 17.910157 3.410157 1.570312 7.320313 1.570312 10.730469 0 9.28125-4.273438 18.246094-10.40625 26.644531-18.226563 1.460938-1.355469 3.574219-1.71875 5.402344-.925781 1.824219.796875 3.003906 2.59375 3.003906 4.585937v5.910157c0 4.710937 2.625 8.925781 6.847657 11.007812l1.292968.636719c1.910156.941406 3.015625 2.992187 2.75 5.105469l-15.28125 122.648437c-.289062 2.289063-2.097656 4.085937-4.386718 4.347656-10.375 1.203125-20.957032 1.8125-31.457032 1.8125zm-26.648437-11.347656c17.558593 1.78125 35.5 1.789063 53.054687.023437l14.371094-115.296874c-5.246094-3.238282-8.851562-8.421876-10.078125-14.375-6.839844 5.378906-13.984375 9.792968-21.332031 13.175781-6.066406 2.796875-13.023438 2.796875-19.09375 0-7.230469-3.328125-14.269532-7.664063-21.019532-12.9375-1.308593 6.015625-5.046874 11.226562-10.457031 14.398437zm0 0"/><path d="m184.203125 511.996094h-31.644531c-2.523438 0-4.644532-1.871094-4.960938-4.371094l-15.292968-120.847656c-.195313-1.523438.324218-3.054688 1.40625-4.144532 1.082031-1.09375 2.613281-1.628906 4.132812-1.449218 20.0625 2.34375 40.78125 2.351562 60.839844.027344 1.53125-.175782 3.046875.355468 4.128906 1.445312 1.078125 1.089844 1.601562 2.617188 1.410156 4.140625l-15.054687 120.816406c-.3125 2.507813-2.441407 4.382813-4.964844 4.382813zm-27.242187-10h22.828124l13.730469-110.195313c-16.742187 1.542969-33.757812 1.535157-50.503906-.019531zm0 0"/></g></svg>