<svg height="511pt" viewBox="-86 0 511 511.814" width="511pt" xmlns="http://www.w3.org/2000/svg"><path d="m229.90625 25.671875c-15.675781-7.703125-36.269531-20.675781-60.308594-20.675781-24.035156 0-44.628906 12.96875-60.304687 20.671875-20.214844 9.929687-32.496094 31.003906-31.261719 53.484375l1.6875 36.203125c5.671875-4.34375 12.855469-6.769531 20.527344-6.363281l.421875-9.167969c1-2.238281 3.007812-3.929688 5.464843-4.660157 3.933594-1.160156 7.171876-3.839843 9.113282-7.296874.832031-1.488282 2.574218-2.152344 4.199218-1.640626 1.296876.410157 2.675782.636719 4.109376.636719 3.863281 0 7.351562-1.609375 9.835937-4.1875.929687-.96875 2.40625-.96875 3.335937 0 2.484376 2.578125 5.96875 4.1875 9.835938 4.1875s7.351562-1.609375 9.839844-4.1875c.929687-.96875 2.402344-.96875 3.332031 0 2.488281 2.578125 5.972656 4.1875 9.839844 4.1875 3.863281 0 7.351562-1.609375 9.835937-4.1875.890625-.929687 2.441406-.929687 3.332032 0 2.488281 2.578125 5.972656 4.1875 9.839843 4.1875 3.863281 0 7.351563-1.609375 9.835938-4.1875.890625-.929687 2.441406-.929687 3.332031 0 2.488281 2.578125 5.972656 4.1875 9.835938 4.1875 1.6875 0 3.304687-.3125 4.796874-.875 1.695313-.640625 3.5625.007813 4.421876 1.609375 1.855468 3.476563 5 6.179688 8.824218 7.4375 2.6875.886719 4.808594 2.875 5.691406 5.460938.074219 2.929687.144532 5.746094.210938 8.46875l.097656.015625c7.421875-.230469 14.351563 2.191406 19.855469 6.40625l1.683594-36.230469c1.234375-22.484375-11.050781-43.554688-31.261719-53.484375zm0 0" fill="#7c292e"/><path d="m239.625 108.980469c2.054688 85.003906 1.347656 55.683593 1.5 62.027343 16.898438-.308593 30.515625-14.082031 30.515625-31.054687-.003906-17.675781-14.691406-31.515625-32.015625-30.972656zm0 0" fill="#fcb275"/><path d="m100.246094 108.992188c-17.617188-.933594-32.683594 13.054687-32.683594 30.957031 0 17 13.652344 30.792969 30.589844 31.0625 2.035156-73.28125 1.300781-39.246094 2.09375-62.019531zm0 0" fill="#fcb275"/><path d="m241.429688 184.730469c0 .015625 0-.015625-.003907-.066407v.019532c.003907.015625.003907.03125.003907.046875zm0 0" fill="#fcb275"/><path d="m241.425781 184.683594c0-.011719 0-.023438 0-.035156v.015624c-.003906-.101562-.007812-.339843-.019531-.777343v.09375c0-.074219-.003906-.125-.003906-.15625-.089844-3.621094-.503906-20.09375-2.089844-83.328125-.878906-2.589844-3-4.578125-5.691406-5.460938-3.824219-1.257812-6.964844-3.960937-8.824219-7.4375-.855469-1.605468-2.722656-2.253906-4.421875-1.613281-1.488281.566406-3.105469.875-4.792969.875-3.867187 0-7.351562-1.605469-9.835937-4.1875-.894532-.925781-2.441406-.925781-3.335938 0-2.484375 2.582031-5.96875 4.1875-9.835937 4.1875-3.863281 0-7.351563-1.605469-9.835938-4.1875-.894531-.925781-2.441406-.925781-3.335937 0-2.484375 2.582031-5.96875 4.1875-9.835938 4.1875-3.867187 0-7.351562-1.605469-9.835937-4.1875-.929688-.964844-2.40625-.964844-3.335938 0-2.484375 2.582031-5.972656 4.1875-9.835937 4.1875-3.867188 0-7.355469-1.605469-9.839844-4.1875-.929688-.964844-2.402344-.964844-3.332031 0-2.488281 2.582031-5.972657 4.1875-9.839844 4.1875-1.433594 0-2.8125-.222656-4.109375-.632813-1.625-.515624-3.363281.152344-4.199219 1.636719-1.9375 3.460938-5.179687 6.136719-9.109375 7.300781-2.460937.726563-4.46875 2.417969-5.46875 4.65625l-1.363281 29.707032-1.535156 55.199218c-1.828125 17.90625 7.5 35.183594 23.585937 43.261719 13.339844 6.699219 21.132813 11.144531 31.625 13.890625 10.90625 2.851563 22.335938 2.851563 33.238282 0 10.492187-2.746094 18.285156-7.191406 31.625-13.890625 16.085937-8.078125 25.414062-25.355469 23.585937-43.261719.007813 0 .007813-.019531.003906-.042968zm0-.0625c-.003906-.234375-.007812-.410156-.011719-.535156.003907.179687.007813.402343.011719.535156zm0 0" fill="#fcb275"/><path d="m333.769531 492.644531-9.804687-176.042969c-.738282-13.292968-10.039063-24.5625-22.953125-27.8125l-42.125-10.601562c-7.308594-1.839844-14.539063-3.976562-21.671875-6.402344l-18.636719-9.1875-3.746094-1.851562c-5.949219-2.929688-9.714843-8.984375-9.714843-15.617188v-10.707031c-6.621094 3.273437-12.214844 5.714844-18.898438 7.464844-5.652344 1.476562-11.445312 2.171875-17.230469 2.121093-.027343 0-.058593.003907-.089843.003907-.386719 0-.765626-.039063-1.148438-.046875-.855469-.023438-1.707031-.035156-2.5625-.09375-6.714844-.402344-13.210938-1.878906-19.375-4.253906-3.851562-1.429688-7.59375-3.152344-11.734375-5.195313v10.707031c0 6.632813-3.765625 12.6875-9.710937 15.617188l-2.761719 1.363281-18.542969 9.144531c-7.851562 2.78125-15.828125 5.191406-23.90625 7.226563l-40.96875 10.3125c-12.914062 3.25-22.210938 14.515625-22.949219 27.8125l-9.808593 176.042969c-.425782 7.695312 5.699218 14.167968 13.402343 14.167968h301.539063c7.703125-.003906 13.828125-6.476562 13.398437-14.171875zm0 0" fill="#fcb275"/><path d="m320.367188 506.8125c7.707031 0 13.832031-6.472656 13.402343-14.167969l-9.804687-176.042969c-.738282-13.292968-10.039063-24.5625-22.953125-27.8125l-42.125-10.601562c-7.308594-1.839844-14.539063-3.976562-21.671875-6.402344l-18.636719-9.1875-1.996094-.988281-31.03125 245.203125zm0 0" fill="#3f3f3f"/><path d="m18.832031 506.8125c-7.707031 0-13.832031-6.472656-13.40625-14.167969l9.808594-176.042969c.738281-13.292968 10.039063-24.5625 22.949219-27.8125l42.128906-10.601562c7.304688-1.839844 14.535156-3.976562 21.671875-6.402344l18.632813-9.1875 2-.988281 31.03125 245.203125zm0 0" fill="#3f3f3f"/><path d="m208.976562 506.8125 33.445313-104.902344c.277344-.863281.238281-1.796875-.105469-2.632812l-12.890625-31.308594c-.648437-1.566406-.191406-3.371094 1.121094-4.445312l18.90625-15.46875c1.046875-.855469 1.570313-2.199219 1.375-3.539063l-10.5-71.742187c-1.035156-.339844-2.082031-.640626-3.109375-.988282l-18.636719-9.1875-2-.988281-31.03125 245.203125zm0 0" fill="#515050"/><path d="m130.222656 506.8125-33.449218-104.902344c-.273438-.863281-.238282-1.796875.109374-2.632812l12.890626-31.308594c.644531-1.566406.191406-3.371094-1.121094-4.445312l-18.910156-15.46875c-1.046876-.855469-1.566407-2.199219-1.371094-3.539063l10.496094-71.742187c1.039062-.339844 2.082031-.640626 3.113281-.988282l18.636719-9.1875 1.996093-.988281 31.035157 245.203125zm0 0" fill="#515050"/><path d="m169.597656 317.648438c-15.1875 0-29.347656-4.328126-41.378906-11.773438l25.429688 200.941406h31.902343l25.425781-200.9375c-12.027343 7.441406-26.191406 11.769532-41.378906 11.769532zm0 0" fill="#e8e6e6"/><g fill="#231f20"><path d="m320.367188 511.8125h-301.539063c-5.113281 0-9.867187-2.042969-13.382813-5.761719-3.460937-3.660156-5.289062-8.648437-5.011718-13.683593l9.808594-176.042969c.867187-15.5625 11.605468-28.578125 26.722656-32.382813l40.964844-10.3125c7.800781-1.964844 15.601562-4.316406 23.183593-6.992187l21.042969-10.371094c4.269531-2.109375 6.921875-6.375 6.921875-11.136719v-10.707031c0-1.726563.894531-3.332031 2.363281-4.246094 1.464844-.914062 3.300782-1.003906 4.855469-.238281 4.628906 2.289062 8 3.78125 11.253906 4.992188 5.878907 2.265624 11.894531 3.585937 17.9375 3.949218.664063.042969 1.292969.058594 1.917969.078125l.484375.011719c.175781 0 .40625.011719.632813.023438l.328124.015624c.300782-.003906.492188 0 .726563 0 5.246094 0 10.398437-.660156 15.371094-1.960937 6.304687-1.648437 11.542969-3.941406 17.957031-7.109375 1.550781-.761719 3.386719-.671875 4.851562.238281 1.46875.910157 2.363282 2.515625 2.363282 4.246094v10.707031c0 4.761719 2.652344 9.027344 6.925781 11.132813l22.089844 10.890625c6.875 2.332031 13.933593 4.410156 20.972656 6.183594l42.125 10.605468c15.117187 3.800782 25.855469 16.816406 26.722656 32.378906l9.804688 176.042969c.28125 5.035157-1.542969 10.023438-5.011719 13.683594-3.464844 3.667969-8.34375 5.765625-13.382812 5.765625zm-181.289063-269.527344v2.84375c0 8.597656-4.792969 16.300782-12.5 20.101563l-21.304687 10.503906c-.175782.085937-.359376.164063-.542969.230469-7.964844 2.820312-16.160157 5.296875-24.359375 7.359375l-40.964844 10.3125c-10.851562 2.734375-18.558594 12.070312-19.179688 23.242187l-9.808593 176.046875c-.125 2.332031.683593 4.554688 2.292969 6.253907 1.609374 1.699218 3.78125 2.632812 6.117187 2.632812h301.539063c2.339843 0 4.511718-.933594 6.121093-2.632812 1.609375-1.703126 2.421875-3.921876 2.292969-6.257813l-9.804688-176.042969c-.625-11.167968-8.332031-20.507812-19.179687-23.242187l-42.125-10.601563c-7.410156-1.867187-14.832031-4.058594-22.0625-6.519531-.207031-.070313-.40625-.152344-.601563-.25l-22.382812-11.039063c-7.710938-3.796874-12.503906-11.503906-12.503906-20.101562v-2.84375c-4.085938 1.78125-8.132813 3.261719-12.632813 4.4375-5.976562 1.5625-12.175781 2.316406-18.417969 2.285156-.425781.015625-.71875-.011718-1.0625-.027344l-.859374-.027343c-.765626-.019531-1.53125-.042969-2.292969-.09375-7.035157-.421875-14.058594-1.964844-20.839844-4.578125-1.589844-.585938-3.199219-1.234375-4.9375-1.992188zm0 0"/><path d="m274.085938 508.929688c-2.761719 0-5-2.238282-5-5v-114.023438c0-2.761719 2.238281-5 5-5 2.761718 0 5 2.238281 5 5v114.023438c0 2.761718-2.238282 5-5 5zm0 0"/><path d="m65.113281 508.929688c-2.761719 0-5-2.238282-5-5v-114.023438c0-2.761719 2.238281-5 5-5s5 2.238281 5 5v114.023438c0 2.761718-2.238281 5-5 5zm0 0"/><path d="m320.367188 511.8125h-134.816407c-1.4375 0-2.800781-.617188-3.75-1.691406-.949219-1.078125-1.390625-2.507813-1.210937-3.933594l31.03125-245.207031c.203125-1.601563 1.167968-3.007813 2.59375-3.773438 1.421875-.765625 3.125-.796875 4.578125-.082031l20.34375 10.027344c6.875 2.332031 13.933593 4.410156 20.972656 6.183594l42.125 10.605468c15.117187 3.800782 25.855469 16.816406 26.722656 32.378906l9.804688 176.042969c.28125 5.035157-1.542969 10.023438-5.011719 13.683594-3.464844 3.667969-8.34375 5.765625-13.382812 5.765625zm-129.144532-10h129.144532c2.339843 0 4.511718-.933594 6.121093-2.632812 1.609375-1.703126 2.421875-3.921876 2.292969-6.257813l-9.804688-176.042969c-.625-11.167968-8.332031-20.507812-19.179687-23.242187l-42.125-10.601563c-7.410156-1.867187-14.832031-4.058594-22.0625-6.519531-.207031-.070313-.40625-.152344-.601563-.25l-14.34375-7.070313zm0 0"/><path d="m153.648438 511.8125h-134.816407c-5.042969 0-9.921875-2.097656-13.386719-5.761719-3.460937-3.664062-5.289062-8.652343-5.011718-13.683593l9.808594-176.046876c.867187-15.5625 11.605468-28.578124 26.722656-32.378906l42.121094-10.605468c7.042968-1.773438 14.101562-3.851563 20.976562-6.183594l20.34375-10.027344c1.449219-.714844 3.15625-.683594 4.578125.082031 1.425781.765625 2.386719 2.171875 2.59375 3.773438l31.027344 245.207031c.179687 1.421875-.261719 2.855469-1.207031 3.933594-.949219 1.074218-2.316407 1.691406-3.75 1.691406zm-35.109376-242.617188-14.34375 7.074219c-.195312.09375-.394531.179688-.601562.25-7.230469 2.457031-14.652344 4.652344-22.0625 6.515625l-42.125 10.605469c-10.847656 2.730469-18.554688 12.070313-19.179688 23.242187l-9.804687 176.042969c-.128906 2.332031.683594 4.554688 2.292969 6.253907 1.609375 1.699218 3.78125 2.636718 6.121094 2.636718h129.144531zm0 0"/><path d="m169.523438 204.964844c-9.082032 0-17.542969-4.5-22.632813-12.035156-1.546875-2.289063-.949219-5.394532 1.339844-6.941407 2.285156-1.542969 5.394531-.949219 6.945312 1.339844 3.230469 4.78125 8.59375 7.632813 14.351563 7.632813 5.757812 0 11.125-2.851563 14.351562-7.632813 1.542969-2.289063 4.65625-2.886719 6.941406-1.34375 2.289063 1.546875 2.890626 4.65625 1.34375 6.945313-5.09375 7.535156-13.554687 12.035156-22.640624 12.035156zm0 0"/><path d="m186.972656 133.707031c-1.789062 0-3.519531-.964843-4.417968-2.652343-1.296876-2.4375-.371094-5.464844 2.066406-6.761719 3.078125-1.636719 7.730468-2.574219 12.761718-2.574219 5.035157 0 9.6875.9375 12.761719 2.574219 2.441407 1.296875 3.363281 4.324219 2.066407 6.761719-1.296876 2.4375-4.324219 3.367187-6.761719 2.066406-1.214844-.648438-4.058594-1.402344-8.066407-1.402344-4.003906 0-6.847656.753906-8.066406 1.402344-.75.398437-1.554687.585937-2.34375.585937zm0 0"/><path d="m130.996094 133.707031c-1.789063 0-3.519532-.964843-4.417969-2.652343-1.296875-2.4375-.371094-5.464844 2.066406-6.761719 3.078125-1.636719 7.730469-2.574219 12.761719-2.574219 5.035156 0 9.6875.9375 12.761719 2.574219 2.441406 1.296875 3.363281 4.324219 2.066406 6.761719s-4.328125 3.367187-6.761719 2.066406c-1.214844-.648438-4.058594-1.402344-8.066406-1.402344-4.003906 0-6.847656.753906-8.066406 1.402344-.746094.398437-1.550782.585937-2.34375.585937zm0 0"/><path d="m142.238281 153.816406c-3.316406 0-6-2.6875-6-6v-1.136718c0-3.316407 2.683594-6 6-6 3.3125 0 6 2.683593 6 6v1.136718c0 3.3125-2.683593 6-6 6zm0 0"/><path d="m196.8125 154.6875c-3.3125 0-6-2.683594-6-6v-1.136719c0-3.316406 2.6875-6 6-6 3.316406 0 6 2.683594 6 6v1.136719c0 3.316406-2.683594 6-6 6zm0 0"/><path d="m241.054688 176.027344c-2.121094 0-3.328126-.882813-4.023438-2.148438-.546875-.777344-.875-1.71875-.902344-2.742187l-.011718-.324219c0-.03125 0-.058594 0-.089844l-.015626-.582031h.023438c.003906-.023437.003906-.042969.003906-.0625-.042968-.644531-.058594-1.285156-.074218-1.882813l-1.425782-59.09375c-.066406-2.746093 2.09375-5.03125 4.839844-5.117187 9.875-.328125 19.167969 3.300781 26.253906 10.167969 7.039063 6.824218 10.917969 15.984375 10.917969 25.800781 0 19.378906-15.65625 35.457031-34.992187 36.042969-.136719.015625-.269532.027344-.402344.027344-.066406.003906-.128906.003906-.191406.003906zm3.699218-61.738282 1.234375 51.148438c11.753907-2.53125 20.648438-13.070312 20.648438-25.488281 0-7.082031-2.796875-13.695313-7.878907-18.621094-3.910156-3.785156-8.761718-6.203125-14.003906-7.039063zm0 0"/><path d="m98.152344 176.011719c-.03125 0-.054688 0-.082032 0-19.582031-.308594-35.511718-16.484375-35.511718-36.058594 0-9.96875 3.980468-19.230469 11.207031-26.085937 7.160156-6.792969 16.933594-10.375 26.742187-9.863282 2.722657.140625 4.828126 2.441406 4.734376 5.167969-.277344 7.890625-.375 9.074219-.464844 10.21875-.148438 1.875-.289063 3.644531-1.628906 51.761719-.078126 2.707031-2.296876 4.859375-4.996094 4.859375zm-3.101563-61.828125c-5.371093.722656-10.363281 3.105468-14.398437 6.933594-5.21875 4.949218-8.089844 11.636718-8.089844 18.835937 0 12.460937 8.9375 23.019531 20.742188 25.507813 1.207031-43.105469 1.339843-44.78125 1.511718-46.878907.050782-.683593.113282-1.433593.234375-4.398437zm0 0"/><path d="m241.40625 188.886719c-2.703125 0-4.917969-2.152344-4.996094-4.855469 0-.011719 0-.027344-.003906-.039062-.058594-1.792969.84375-3.507813 2.371094-4.449219 1.519531-.941407 3.433594-1 5.015625-.140625 1.523437.828125 2.511719 2.46875 2.609375 4.203125v.054687h.003906v.019532.027343.066407c.003906.039062.003906.082031.003906.113281 0 2.742187-2.207031 4.96875-4.945312 5-.019532 0-.039063 0-.058594 0zm-1.789062-5h.132812zm6.789062-.0625h.019531zm0 0"/><path d="m241.417969 189.699219c-2.535157 0-4.691407-1.886719-4.960938-4.441407-.019531-.175781-.03125-.398437-.03125-.574218 0-2.726563 2.179688-4.957032 4.902344-5.007813 2.769531-.082031 4.988281 2.074219 5.09375 4.792969.105469 2.695312-1.945313 5.023438-4.632813 5.21875-.125.007812-.246093.011719-.371093.011719zm0 0"/><path d="m169.597656 249.019531c-6.015625 0-12.03125-.765625-17.882812-2.296875-9.371094-2.453125-16.65625-6.160156-26.738282-11.289062-1.839843-.9375-3.785156-1.925782-5.867187-2.972656-17.714844-8.898438-28.28125-28.1875-26.332031-48.046876l1.53125-55.023437 1.367187-29.792969c.027344-.628906.171875-1.242187.429688-1.8125 1.59375-3.5625 4.730469-6.261718 8.613281-7.410156 2.585938-.765625 4.835938-2.574219 6.167969-4.949219 1.976562-3.523437 6.214843-5.179687 10.074219-3.960937 3.066406.972656 6.5625.09375 8.835937-2.257813 2.796875-2.90625 7.726563-2.90625 10.53125 0 1.652344 1.714844 3.867187 2.65625 6.238281 2.65625 2.367188 0 4.585938-.941406 6.238282-2.65625 2.796874-2.90625 7.726562-2.90625 10.53125 0 1.652343 1.714844 3.867187 2.65625 6.238281 2.65625 2.367187 0 4.585937-.941406 6.234375-2.65625 1.363281-1.414062 3.28125-2.226562 5.269531-2.226562 1.984375 0 3.902344.8125 5.265625 2.226562 1.652344 1.710938 3.867188 2.65625 6.238281 2.65625 2.367188 0 4.585938-.945312 6.234375-2.65625 1.363282-1.417969 3.28125-2.230469 5.269532-2.230469h.003906c1.984375 0 3.90625.816407 5.265625 2.230469 2.371093 2.457031 6.089843 3.296875 9.253906 2.101563 4.109375-1.550782 8.5625.101562 10.605469 3.933594 1.289062 2.40625 3.40625 4.199218 5.976562 5.042968 4.246094 1.398438 7.476563 4.53125 8.863282 8.601563.164062.480469.253906.980469.265624 1.484375l2.089844 83.320312v.0625l.019532.660156c1.945312 19.863282-8.621094 39.148438-26.335938 48.046876-2.074219 1.042968-4.015625 2.027343-5.851562 2.964843-10.089844 5.132813-17.378907 8.84375-26.753907 11.292969-5.855469 1.535156-11.875 2.300781-17.890625 2.300781zm-63.992187-147.777343-1.304688 28.519531-1.535156 55.109375c-.003906.121094-.011719.246094-.023437.367187-1.613282 15.824219 6.769531 31.210938 20.855468 38.285157 2.097656 1.050781 4.058594 2.050781 5.914063 2.996093 9.878906 5.027344 16.40625 8.347657 24.734375 10.527344 10.039062 2.628906 20.660156 2.628906 30.703125 0 8.335937-2.179687 14.867187-5.503906 24.75-10.535156 1.855469-.945313 3.808593-1.941407 5.898437-2.988281 14.089844-7.078126 22.472656-22.460938 20.855469-38.289063-.007813-.097656-.015625-.195313-.019531-.292969-.003906-.039062-.003906-.078125-.003906-.117187 0-.023438-.003907-.050781-.003907-.082031l-.011719-.507813c0-.035156-.003906-.074219-.003906-.109375 0-.007812 0-.011719 0-.019531 0-.042969-.003906-.242188-.003906-.285157l-2.066406-82.257812c-.453125-.8125-1.257813-1.449219-2.28125-1.785156-4.621094-1.519532-8.5-4.597656-11.042969-8.734375-1.757813.542969-3.578125.8125-5.433594.8125-4.234375 0-8.234375-1.390625-11.503906-3.964844-3.265625 2.574219-7.269531 3.964844-11.503906 3.964844s-8.234375-1.390625-11.503907-3.964844c-3.265624 2.574219-7.269531 3.964844-11.503906 3.964844s-8.234375-1.390625-11.503906-3.964844c-3.265625 2.574219-7.269531 3.964844-11.503906 3.964844s-8.234375-1.390625-11.503906-3.964844c-3.269532 2.574219-7.269532 3.964844-11.503907 3.964844-1.539062 0-3.058593-.1875-4.539062-.558594-2.660157 4.1875-6.691407 7.246094-11.460938 8.660156-.804687.242188-1.488281.695313-1.945312 1.285157zm96.542969-15.097657s.003906.003907.003906.003907-.003906-.003907-.003906-.003907zm0 0"/><path d="m100.246094 114.003906c-2.761719 0-5-2.238281-5-5 0-2.765625 2.238281-5.007812 5-5.007812 2.761718 0 5 2.234375 5 4.996094v.011718c0 2.761719-2.238282 5-5 5zm0 0"/><path d="m259.480469 120.386719c-1.078125 0-2.148438-.347657-3.039063-1.027344-4.773437-3.65625-10.640625-5.546875-16.664062-5.382813-.3125.015626-.628906-.007812-.945313-.058593-2.378906-.378907-4.246093-2.417969-4.304687-4.828125l-.1875-7.523438c-.457032-.8125-1.261719-1.449218-2.28125-1.785156-4.625-1.519531-8.5-4.597656-11.042969-8.734375-1.757813.542969-3.582031.8125-5.433594.8125-4.234375 0-8.238281-1.390625-11.503906-3.964844-3.269531 2.574219-7.269531 3.964844-11.503906 3.964844s-8.238281-1.390625-11.503907-3.964844c-3.269531 2.574219-7.269531 3.964844-11.503906 3.964844s-8.238281-1.390625-11.503906-3.964844c-3.269531 2.574219-7.269531 3.964844-11.503906 3.964844s-8.238282-1.390625-11.503906-3.964844c-3.269532 2.574219-7.273438 3.964844-11.503907 3.964844-1.539062 0-3.058593-.1875-4.539062-.558594-2.660157 4.1875-6.691407 7.246094-11.460938 8.660157-.808593.238281-1.492187.691406-1.949219 1.28125l-.367187 7.980468c-.058594 1.332032-.648437 2.582032-1.636719 3.476563-.988281.894531-2.292968 1.359375-3.621094 1.289062-6.195312-.328125-12.296874 1.570313-17.222656 5.339844-1.476562 1.132813-3.460937 1.347656-5.148437.566406-1.6875-.785156-2.796875-2.441406-2.882813-4.300781l-1.6875-36.203125c-1.355468-24.515625 12.011719-47.378906 34.046875-58.207031 2.410157-1.183594 4.933594-2.492188 7.574219-3.863282 14.890625-7.714843 33.421875-17.320312 54.9375-17.320312 21.511719 0 40.042969 9.605469 54.9375 17.320312 2.636719 1.371094 5.164062 2.679688 7.574219 3.863282 22.039062 10.828125 35.398437 33.691406 34.042969 58.25l-1.679688 36.1875c-.085938 1.859375-1.199219 3.515625-2.882812 4.304687-.667969.308594-1.386719.460938-2.105469.460938zm-15.070313-16.214844c3.601563.386719 7.132813 1.320313 10.457032 2.757813l1.300781-28.007813c1.132812-20.585937-10.042969-39.710937-28.46875-48.765625-2.46875-1.210938-5.058594-2.554688-7.765625-3.957031-13.929688-7.21875-31.261719-16.203125-50.335938-16.203125-19.078125 0-36.410156 8.984375-50.335937 16.203125-2.707031 1.402343-5.292969 2.746093-7.765625 3.957031-18.429688 9.054688-29.605469 28.179688-28.472656 48.722656l1.304687 28.019532c3.53125-1.523438 7.292969-2.476563 11.136719-2.8125l.207031-4.492188c.027344-.625.171875-1.242188.429687-1.8125 1.59375-3.5625 4.730469-6.261719 8.613282-7.410156 2.585937-.765625 4.835937-2.574219 6.167968-4.949219 1.976563-3.523437 6.214844-5.179687 10.070313-3.960937 3.070313.972656 6.566406.09375 8.839844-2.257813 2.796875-2.90625 7.726562-2.90625 10.53125 0 1.652343 1.710937 3.867187 2.65625 6.238281 2.65625 2.367188 0 4.585938-.945313 6.238281-2.65625 2.796875-2.90625 7.726563-2.90625 10.53125 0 1.652344 1.710937 3.867188 2.65625 6.238281 2.65625 2.367188 0 4.585938-.945313 6.234376-2.65625 1.363281-1.414063 3.28125-2.226563 5.269531-2.226563 1.984375 0 3.902343.8125 5.265625 2.226563 1.652344 1.710937 3.867187 2.65625 6.238281 2.65625 2.367187 0 4.585937-.945313 6.234375-2.65625 1.363281-1.417969 3.28125-2.230469 5.269531-2.230469h.003907c1.984374 0 3.90625.816406 5.265624 2.230469 2.371094 2.457031 6.089844 3.296875 9.253907 2.101563 4.109375-1.550782 8.5625.101562 10.605469 3.933593 1.289062 2.40625 3.40625 4.199219 5.976562 5.042969 4.246094 1.398438 7.476562 4.53125 8.863281 8.601562.164063.480469.253907.980469.265625 1.488282zm-42.261718-18.027344s.003906.003907.003906.003907-.003906-.003907-.003906-.003907zm0 0"/><path d="m208.976562 511.8125h-23.425781c-1.4375 0-2.800781-.617188-3.75-1.691406-.953125-1.078125-1.390625-2.507813-1.210937-3.933594l31.027344-245.207031c.207031-1.601563 1.167968-3.007813 2.59375-3.773438 1.425781-.765625 3.128906-.796875 4.578124-.082031l20.332032 10.023438c.449218.148437.898437.289062 1.347656.425781.472656.144531.945312.292969 1.410156.445312 1.804688.585938 3.121094 2.148438 3.394532 4.027344l10.5 71.746094c.449218 3.050781-.757813 6.167969-3.152344 8.128906l-18.25 14.933594 12.566406 30.515625c.792969 1.929687.878906 4.082031.25 6.058594l-33.449219 104.902343c-.660156 2.074219-2.585937 3.480469-4.761719 3.480469zm-17.753906-10h14.101563l32.207031-101.019531-12.726562-30.917969c-1.496094-3.628906-.460938-7.738281 2.578124-10.222656l18.402344-15.054688-9.953125-68c-.074219-.027344-.152343-.050781-.226562-.078125-.207031-.070312-.40625-.152343-.601563-.25l-14.34375-7.070312zm0 0"/><path d="m153.648438 511.8125h-23.425782c-2.175781 0-4.105468-1.40625-4.765625-3.480469l-33.449219-104.902343c-.628906-1.976563-.539062-4.128907.246094-6.050782l12.570313-30.523437-18.25-14.929688c-2.394531-1.964843-3.601563-5.082031-3.152344-8.140625l10.5-71.738281c.273437-1.875 1.589844-3.4375 3.394531-4.027344.464844-.15625.9375-.300781 1.410156-.445312.449219-.140625.898438-.277344 1.347657-.425781l20.332031-10.023438c1.449219-.714844 3.15625-.683594 4.578125.082031 1.425781.765625 2.386719 2.171875 2.59375 3.773438l31.027344 245.207031c.179687 1.421875-.261719 2.855469-1.207031 3.933594-.949219 1.074218-2.316407 1.691406-3.75 1.691406zm-19.769532-10h14.097656l-29.4375-232.617188-14.34375 7.074219c-.195312.09375-.394531.179688-.601562.25-.078125.023438-.152344.046875-.230469.074219l-9.949219 68.003906 18.402344 15.054688c3.039063 2.484375 4.074219 6.589844 2.578125 10.222656l-12.730469 30.914062zm0 0"/><path d="m185.550781 511.8125h-31.902343c-2.519532 0-4.644532-1.871094-4.960938-4.371094l-25.425781-200.9375c-.242188-1.914062.636719-3.792968 2.257812-4.835937 1.621094-1.042969 3.695313-1.058594 5.335938-.042969 11.648437 7.210938 25.046875 11.023438 38.746093 11.023438 13.699219 0 27.09375-3.808594 38.746094-11.023438 1.640625-1.011719 3.714844-.996094 5.335938.046875s2.5 2.921875 2.257812 4.835937l-25.429687 200.9375c-.316407 2.496094-2.441407 4.367188-4.960938 4.367188zm-27.496093-10h23.089843l23.65625-186.933594c-10.996093 5.101563-22.992187 7.769532-35.203125 7.769532-12.207031 0-24.203125-2.667969-35.199218-7.773438zm0 0"/></g></svg>