<svg height="512pt" viewBox="-92 0 512 512.01193" width="512pt" xmlns="http://www.w3.org/2000/svg"><path d="m198.769531 242.367188c-10.289062 6.566406-22.023437 10.464843-34.460937 10.464843s-24.175782-3.898437-34.464844-10.464843v10.753906c0 3.621094-1.191406 7.046875-3.230469 9.871094l.4375.160156s8.53125 13.171875 23.691407 15.488281c2.625.398437 4.566406 2.652344 4.566406 5.304687v15.042969h18v-15.042969c0-2.652343 1.941406-4.902343 4.566406-5.304687 15.160156-2.316406 23.691406-15.488281 23.691406-15.488281l.4375-.160156c-2.042968-2.824219-3.234375-6.25-3.234375-9.871094zm0 0" fill="#fcb275"/><path d="m323.585938 493.265625-9.511719-170.800781c-.71875-12.898438-9.742188-23.828125-22.269531-26.984375l-40.871094-10.285157c-7.089844-1.785156-14.105469-3.855468-21.027344-6.214843l-10.011719-4.933594c-21.195312 24.921875-46.585937 24.941406-46.585937 24.941406v208.023438h137.273437c7.480469 0 13.421875-6.28125 13.003907-13.746094zm0 0" fill="#e8e6e6"/><path d="m108.71875 274.046875-8.96875 4.417969c-7.617188 2.699218-15.355469 5.039062-23.195312 7.011718l-39.746094 10.003907c-12.527344 3.152343-21.550782 14.085937-22.269532 26.984375l-9.511718 170.800781c-.414063 7.464844 5.527344 13.746094 13.003906 13.746094h137.277344v-208.023438c-.003906 0-25.394532-.019531-46.589844-24.941406zm0 0" fill="#e8e6e6"/><path d="m197.109375 78.828125c-.59375-1.628906-2.734375-1.972656-3.78125-.59375-6.847656 9.054687-28.761719 32.410156-71.121094 30.003906-17.109375-.96875-26.269531 6.191407-31.175781 13.703125v49.734375c0 40.300781 32.972656 81.15625 73.277344 81.15625 40.300781 0 73.273437-40.855469 73.273437-81.15625v-55.878906c-9.488281-1.316406-29.789062-7.617187-40.472656-36.96875zm0 0" fill="#fcc494"/><path d="m91.03125 171.675781v-47.863281c-.800781-.066406-1.609375-.101562-2.425781-.101562-16.402344 0-29.699219 13.300781-29.699219 29.699218 0 16.402344 13.296875 29.703125 29.699219 29.703125 1.109375 0 2.191406-.097656 3.261719-.226562-.550782-3.71875-.835938-7.464844-.835938-11.210938zm0 0" fill="#fcb275"/><path d="m246.742188 56.167969c-18.269532-44.097657-49.074219-54.960938-82.433594-50.078125-33.363282-4.882813-64.167969 5.980468-82.433594 50.078125-21.566406 52.050781-44.3125 60.136719-17.726562 115.210937 6.65625 13.789063 7.414062 22.691406 6.191406 28.328125-1.007813 4.660157 2.703125 9.019531 7.472656 9.019531h22.289062c-4.074218-8.144531-6.917968-16.910156-8.234374-25.839843-1.070313.128906-2.152344.226562-3.261719.226562-16.402344 0-29.699219-13.300781-29.699219-29.703125 0-16.398437 13.296875-29.699218 29.699219-29.699218.816406 0 1.625.035156 2.425781.101562v-1.871094c4.90625-7.511718 14.070312-14.671875 31.175781-13.703125 42.359375 2.40625 64.273438-20.949219 71.121094-30.003906 1.046875-1.378906 3.1875-1.035156 3.78125.59375 10.683594 29.347656 30.984375 35.652344 40.472656 36.96875v8.054687c17.222657-1.429687 32.128907 12.148438 32.128907 29.558594 0 16.402344-13.300782 29.699219-29.703126 29.699219-1.105468 0-2.1875-.09375-3.261718-.222656-1.316406 8.929687-4.160156 17.691406-8.234375 25.835937h22.292969c4.765624 0 8.476562-4.359375 7.46875-9.015625-1.21875-5.640625-.464844-14.542969 6.195312-28.332031 26.585938-55.070312 3.835938-63.15625-17.726562-115.207031zm0 0" fill="#7c292e"/><path d="m237.582031 123.855469v47.820312c0 3.746094-.285156 7.492188-.835937 11.210938 1.074218.128906 2.15625.226562 3.261718.226562 16.402344 0 29.703126-13.300781 29.703126-29.703125 0-17.410156-14.910157-30.984375-32.128907-29.554687zm0 0" fill="#fcb275"/><path d="m197.109375 78.828125c-.59375-1.628906-2.734375-1.972656-3.78125-.59375-6.847656 9.054687-28.761719 32.410156-71.121094 30.003906-17.109375-.96875-26.269531 6.191407-31.175781 13.703125v49.734375c0 40.300781 32.972656 81.15625 73.277344 81.15625 40.300781 0 73.273437-40.855469 73.273437-81.15625v-55.878906c-9.488281-1.316406-29.789062-7.617187-40.472656-36.96875zm0 0" fill="#fcb275"/><path d="m86.992188 469.007812v-18h46.003906v18zm0 0" fill="#30a9e5"/><path d="m197.003906 469.007812v-18h46.003906v18zm0 0" fill="#30a9e5"/><path d="m155.304688 298.988281h18.003906v208.023438h-18.003906zm0 0" fill="#30a9e5"/><path d="m120.421875 268.273438-2.679687 1.320312-9.023438 4.449219c21.195312 24.921875 46.585938 24.945312 46.585938 24.945312v-15.042969c0-2.652343-1.941407-4.902343-4.5625-5.304687-15.160157-2.316406-23.691407-15.488281-23.691407-15.488281l-.441406-.160156c-1.582031 2.195312-3.664063 4.039062-6.1875 5.28125zm0 0" fill="#30a9e5"/><path d="m219.898438 274.046875-8.070313-3.980469-3.632813-1.792968c-2.523437-1.242188-4.605468-3.085938-6.191406-5.28125l-.4375.160156s-8.53125 13.171875-23.691406 15.488281c-2.625.398437-4.5625 2.652344-4.5625 5.304687v15.042969c-.003906 0 25.386719-.019531 46.585938-24.941406zm0 0" fill="#30a9e5"/><path d="m242.300781 362.996094c0 12.703125-10.296875 23-23 23s-23.003906-10.296875-23.003906-23 10.300781-23.003906 23.003906-23.003906 23 10.300781 23 23.003906zm0 0" fill="#f9d498"/><path d="m229.300781 362.996094c0 5.523437-4.476562 10-10 10-5.523437 0-10.003906-4.476563-10.003906-10 0-5.523438 4.480469-10.003906 10.003906-10.003906 5.523438 0 10 4.480468 10 10.003906zm0 0" fill="#f9d498"/><g fill="#231f20"><path d="m196.332031 183.847656c-.722656 0-1.449219-.03125-2.183593-.089844-7.171876-.578124-13.6875-3.914062-18.347657-9.390624-4.664062-5.480469-6.910156-12.445313-6.332031-19.617188 1.191406-14.804688 14.175781-25.882812 29.007812-24.679688 7.167969.578126 13.683594 3.914063 18.347657 9.390626 4.660156 5.480468 6.910156 12.445312 6.332031 19.617187-1.136719 14.066406-12.949219 24.769531-26.824219 24.769531zm-.03125-43.867187c-8.726562 0-16.152343 6.726562-16.867187 15.570312-.75 9.308594 6.210937 17.488281 15.515625 18.238281 9.332031.746094 17.488281-6.210937 18.238281-15.519531.75-9.304687-6.210938-17.488281-15.515625-18.238281-.460937-.035156-.917969-.050781-1.371094-.050781zm21.871094 18.695312h.019531zm0 0"/><path d="m132.324219 183.847656c-.726563 0-1.449219-.03125-2.183594-.089844-7.171875-.578124-13.6875-3.914062-18.347656-9.390624-4.664063-5.480469-6.910157-12.445313-6.332031-19.617188 1.191406-14.804688 14.1875-25.882812 29.007812-24.679688 7.167969.578126 13.683594 3.914063 18.347656 9.390626 4.660156 5.480468 6.910156 12.445312 6.332032 19.617187-1.132813 14.066406-12.949219 24.769531-26.824219 24.769531zm-.03125-43.867187c-8.726563 0-16.152344 6.726562-16.867188 15.570312-.75 9.308594 6.210938 17.488281 15.515625 18.238281 9.316406.746094 17.488282-6.210937 18.238282-15.519531.75-9.304687-6.210938-17.484375-15.515626-18.234375-.460937-.039062-.917968-.054687-1.371093-.054687zm21.871093 18.695312h.019532zm0 0"/><path d="m164.308594 166.183594c-5.171875 0-9.929688-1.609375-13.054688-4.410156-2.054687-1.84375-2.222656-5.003907-.378906-7.058594 1.84375-2.054688 5.003906-2.230469 7.058594-.382813.953125.855469 3.195312 1.851563 6.375 1.851563 3.183594 0 5.421875-.996094 6.375-1.851563 2.054687-1.847656 5.214844-1.671875 7.058594.382813 1.84375 2.054687 1.671874 5.214844-.378907 7.058594-3.125 2.800781-7.882812 4.410156-13.054687 4.410156zm0 0"/><path d="m265.679688 509.210938c-2.761719 0-5-2.238282-5-5v-110.625c0-2.761719 2.238281-5 5-5 2.765624 0 5 2.238281 5 5v110.625c0 2.761718-2.234376 5-5 5zm0 0"/><path d="m62.933594 509.210938c-2.761719 0-5-2.238282-5-5v-110.625c0-2.761719 2.238281-5 5-5 2.761718 0 5 2.238281 5 5v110.625c0 2.761718-2.238282 5-5 5zm0 0"/><path d="m92.785156 409.59375h-9.664062c-2.761719 0-5-2.238281-5-5 0-2.765625 2.238281-5 5-5h9.664062c2.761719 0 5 2.234375 5 5 0 2.761719-2.238281 5-5 5zm0 0"/><path d="m132.453125 409.59375h-9.664063c-2.761718 0-5-2.238281-5-5 0-2.765625 2.238282-5 5-5h9.664063c2.761719 0 5 2.234375 5 5 0 2.761719-2.238281 5-5 5zm0 0"/><path d="m132.453125 409.59375c-2.761719 0-5-2.238281-5-5v-54.527344c0-10.84375-8.820313-19.667968-19.664063-19.667968s-19.667968 8.824218-19.667968 19.667968v54.527344c0 2.761719-2.238282 5-5 5-2.761719 0-5-2.238281-5-5v-54.527344c0-16.359375 13.308594-29.667968 29.667968-29.667968 16.355469 0 29.664063 13.308593 29.664063 29.667968v54.527344c0 2.761719-2.238281 5-5 5zm0 0"/><path d="m218.996094 343.992188c-2.761719 0-5-2.238282-5-5v-62.621094c0-12.792969-4.8125-24.976563-13.550782-34.308594-1.886718-2.015625-1.785156-5.179688.230469-7.066406 2.019531-1.886719 5.183594-1.785156 7.070313.230468 10.480468 11.195313 16.25 25.804688 16.25 41.144532v62.621094c0 2.761718-2.238282 5-5 5zm0 0"/><path d="m108.589844 330.398438c-2.761719 0-5-2.238282-5-5v-49.023438c0-15.609375 5.953125-30.410156 16.75-41.667969 1.914062-1.992187 5.078125-2.058593 7.070312-.148437 1.996094 1.910156 2.058594 5.078125.148438 7.070312-9.003906 9.390625-13.96875 21.730469-13.96875 34.746094v49.027344c0 2.757812-2.238282 4.996094-5 4.996094zm0 0"/><path d="m173.308594 303.988281h-18c-2.761719 0-5-2.238281-5-5v-15.042969c0-.179687-.136719-.332031-.324219-.363281-14.539063-2.21875-23.617187-12.925781-26.304687-16.539062-.871094-.628907-1.527344-1.535157-1.847657-2.585938-.457031-1.5-.1875-3.125.726563-4.390625 1.496094-2.070312 2.289062-4.472656 2.289062-6.945312v-10.753906c0-1.824219.996094-3.503907 2.597656-4.382813 1.597657-.878906 3.550782-.8125 5.089844.167969 9.925782 6.335937 20.914063 9.683594 31.773438 9.683594s21.84375-3.347657 31.769531-9.679688c1.542969-.984375 3.496094-1.046875 5.09375-.171875 1.601563.878906 2.59375 2.558594 2.59375 4.386719v10.753906c0 2.472656.792969 4.871094 2.289063 6.941406.914062 1.269532 1.1875 2.894532.730468 4.390625-.324218 1.054688-.980468 1.957031-1.851562 2.589844-2.6875 3.609375-11.765625 14.320313-26.308594 16.539063-.183594.027343-.320312.183593-.320312.363281v15.042969c.003906 2.757812-2.234376 4.996093-4.996094 4.996093zm-13-10h8v-10.042969c0-5.15625 3.703125-9.464843 8.808594-10.246093 9.375-1.433594 15.9375-7.96875 18.742187-11.304688-1.378906-2.902343-2.09375-6.046875-2.09375-9.273437v-2.238282c-9.421875 4.566407-19.464844 6.949219-29.457031 6.949219-9.996094 0-20.039063-2.382812-29.464844-6.949219v2.238282c0 3.226562-.710938 6.375-2.089844 9.273437 2.796875 3.328125 9.359375 9.871094 18.742188 11.304688 5.105468.777343 8.8125 5.089843 8.8125 10.246093zm0 0"/><path d="m310.585938 512.011719h-137.277344c-2.761719 0-5-2.238281-5-5v-208.023438c0-2.761719 2.234375-5 4.996094-5 .929687-.007812 23.464843-.472656 42.78125-23.183593 1.484374-1.746094 3.964843-2.257813 6.023437-1.246094l9.714844 4.792968c6.660156 2.253907 13.496093 4.269532 20.332031 5.992188l40.875 10.289062c14.726562 3.707032 25.191406 16.386719 26.039062 31.554688l9.511719 170.796875c.277344 4.921875-1.511719 9.804687-4.902343 13.386719-3.390626 3.585937-8.164063 5.640625-13.09375 5.640625zm-132.277344-10h132.273437c2.230469 0 4.300781-.890625 5.832031-2.511719 1.53125-1.617188 2.304688-3.734375 2.179688-5.957031l-9.511719-170.800781c-.601562-10.769532-8.035156-19.777344-18.496093-22.414063l-40.871094-10.285156c-7.203125-1.816407-14.410156-3.941407-21.417969-6.328125-.207031-.070313-.40625-.152344-.597656-.25l-6.601563-3.253906c-16.296875 17.507812-34.257812 22.125-42.789062 23.339843zm0 0"/><path d="m155.308594 512.011719h-137.277344c-4.933594 0-9.707031-2.054688-13.097656-5.636719-3.386719-3.585938-5.175782-8.464844-4.8984378-13.386719l9.5117188-170.796875c.84375-15.167968 11.3125-27.847656 26.039063-31.554687l39.75-10.003907c7.5625-1.90625 15.121093-4.183593 22.472656-6.777343l8.699218-4.289063c2.054688-1.011718 4.535157-.5 6.019532 1.246094 19.476562 22.898438 42.554687 23.179688 42.785156 23.179688 2.757812.003906 4.996094 2.242187 4.996094 5v208.019531c0 2.761719-2.242188 5-5 5zm-47.792969-231.796875-5.550781 2.734375c-.175782.085937-.355469.164062-.542969.230469-7.734375 2.738281-15.6875 5.140624-23.644531 7.144531l-39.746094 10.003906c-10.464844 2.632813-17.898438 11.640625-18.496094 22.414063l-9.515625 170.796874c-.125 2.226563.652344 4.339844 2.183594 5.957032 1.53125 1.621094 3.601563 2.511718 5.828125 2.511718h132.277344v-198.457031c-8.53125-1.210937-26.496094-5.832031-42.792969-23.335937zm-7.765625-1.75h.019531zm0 0"/><path d="m164.308594 257.832031c-44.800782 0-78.277344-45.484375-78.277344-86.15625v-49.734375c0-.96875.28125-1.917968.8125-2.734375 5.167969-7.910156 15.546875-17.082031 35.644531-15.960937 39.511719 2.25 59.910157-18.855469 66.851563-28.027344 1.585937-2.09375 4.183594-3.152344 6.777344-2.761719 2.605468.390625 4.789062 2.175781 5.691406 4.660157 9.5625 26.269531 26.949218 32.40625 36.460937 33.726562 2.472657.34375 4.3125 2.457031 4.3125 4.953125v55.878906c0 40.671875-33.472656 86.15625-78.273437 86.15625zm-68.277344-134.332031v48.175781c0 43.589844 36.046875 76.15625 68.277344 76.15625 32.230468 0 68.273437-32.566406 68.273437-76.15625v-51.742187c-10.355469-2.476563-27.828125-10.289063-38.375-34.863282-10.0625 11.527344-32.757812 30.390626-72.285156 28.160157-11.710937-.660157-20.410156 2.789062-25.890625 10.269531zm96.378906-42.960938s.003906.003907.003906.003907-.003906-.003907-.003906-.003907zm0 0"/><path d="m88.605469 188.113281c-19.132813 0-34.703125-15.566406-34.703125-34.703125 0-19.132812 15.566406-34.699218 34.703125-34.699218.957031 0 1.902343.042968 2.839843.121093 2.59375.214844 4.585938 2.382813 4.585938 4.980469v47.867188c0 3.433593.261719 6.960937.78125 10.480468.199219 1.335938-.152344 2.695313-.972656 3.769532-.820313 1.070312-2.039063 1.765624-3.378906 1.925781-1.503907.175781-2.691407.257812-3.855469.257812zm-2.574219-59.265625c-12.414062 1.289063-22.125 11.816406-22.125 24.566406 0 12.835938 9.84375 23.417969 22.378906 24.59375-.167968-2.125-.25-4.242187-.25-6.328124v-42.832032zm0 0"/><path d="m250.804688 213.726562h-22.292969c-1.730469 0-3.339844-.898437-4.253907-2.371093-.910156-1.476563-.992187-3.316407-.214843-4.867188 3.921875-7.84375 6.535156-16.03125 7.757812-24.332031.394531-2.679688 2.847657-4.554688 5.539063-4.234375 1.09375.128906 1.917968.1875 2.667968.1875 13.621094 0 24.703126-11.078125 24.703126-24.699219 0-6.96875-2.824219-13.410156-7.953126-18.128906-5.070312-4.664062-11.914062-7.007812-18.761718-6.449219-1.398438.121094-2.769532-.355469-3.796875-1.300781-1.03125-.949219-1.617188-2.28125-1.617188-3.679688v-3.917968c-10.355469-2.476563-27.828125-10.289063-38.375-34.863282-10.0625 11.527344-32.769531 30.394532-72.285156 28.160157-11.710937-.660157-20.410156 2.792969-25.890625 10.269531v.3125c0 1.398438-.582031 2.734375-1.613281 3.679688-1.027344.945312-2.398438 1.417968-3.800781 1.304687-.664063-.054687-1.332032-.085937-2.011719-.085937-13.621094 0-24.703125 11.082031-24.703125 24.699218 0 13.621094 11.082031 24.703125 24.703125 24.703125.753906 0 1.574219-.058593 2.667969-.1875 2.6875-.320312 5.144531 1.554688 5.539062 4.234375 1.226562 8.300782 3.835938 16.484375 7.761719 24.328125.773437 1.550781.691406 3.390625-.21875 4.867188-.910157 1.476562-2.519531 2.371093-4.253907 2.371093h-22.289062c-3.855469 0-7.457031-1.71875-9.878906-4.726562-2.363282-2.929688-3.269532-6.703125-2.476563-10.347656.890625-4.113282.605469-11.804688-5.8125-25.097656-21.085937-43.679688-12.28125-60.25 2.304688-87.695313 4.707031-8.859375 10.039062-18.898437 15.304687-31.601563 16.996094-41.027343 46.273438-58.941406 87.054688-53.21875 40.78125-5.710937 70.058594 12.191407 87.054687 53.210938 5.261719 12.707031 10.597657 22.746094 15.304688 31.605469 14.582031 27.449219 23.386719 44.015625 2.300781 87.695312-6.414062 13.292969-6.703125 20.984375-5.808594 25.097657.789063 3.644531-.113281 7.417968-2.480468 10.347656-2.421876 3.007812-6.023438 4.730468-9.875 4.730468zm-14.566407-10h14.566407c.816406 0 1.578124-.367187 2.09375-1.003906.265624-.335937.6875-1.03125.488281-1.957031-.976563-4.5-.75-9.722656.660156-15.621094-4.035156 1.792969-8.472656 2.835938-13.132813 2.957031-1.066406 5.285157-2.628906 10.511719-4.675781 15.625zm-161.671875-18.582031c1.414063 5.898438 1.636719 11.121094.660156 15.625-.199218.921875.222657 1.621094.492188 1.953125.511719.636719 1.277344 1.003906 2.09375 1.003906h14.566406c-2.046875-5.113281-3.613281-10.339843-4.675781-15.625-4.664063-.121093-9.101563-1.164062-13.136719-2.957031zm168.015625-66.296875c7.746094.578125 15.167969 3.753906 20.949219 9.078125 3.023438 2.78125 5.496094 6.058594 7.339844 9.652344 2.59375-17.621094-3.652344-29.375-13.035156-47.027344-4.808594-9.058593-10.265626-19.324219-15.710938-32.46875-15.332031-37.007812-40.554688-52.398437-77.089844-47.042969-.480468.070313-.96875.070313-1.453125 0-36.539062-5.351562-61.757812 10.039063-77.089843 47.042969-5.445313 13.144531-10.902344 23.410157-15.710938 32.46875-9.378906 17.644531-15.625 29.398438-13.039062 47.007813 5.5625-10.777344 16.601562-18.289063 29.414062-18.816406 5.265625-7.800782 15.597656-16.601563 35.332031-15.496094 39.511719 2.25 59.910157-18.855469 66.851563-28.027344 1.585937-2.09375 4.183594-3.152344 6.777344-2.761719 2.605468.390625 4.789062 2.175781 5.691406 4.660157 9.5625 26.269531 26.949218 32.40625 36.460937 33.726562 2.472657.34375 4.3125 2.457031 4.3125 4.953125zm0 0"/><path d="m240.007812 188.113281c-1.164062 0-2.351562-.082031-3.851562-.257812-1.339844-.160157-2.558594-.859375-3.378906-1.929688-.820313-1.070312-1.171875-2.429687-.972656-3.765625.515624-3.515625.78125-7.042968.78125-10.480468v-47.824219c0-2.601563 1.992187-4.769531 4.585937-4.984375 9.640625-.800782 19.238281 2.5 26.363281 9.054687 7.105469 6.539063 11.179688 15.832031 11.179688 25.484375-.003906 19.136719-15.570313 34.703125-34.707032 34.703125zm2.574219-59.226562v42.792969c0 2.085937-.082031 4.203124-.25 6.328124 12.539063-1.175781 22.378907-11.757812 22.378907-24.59375 0-6.96875-2.824219-13.40625-7.953126-18.128906-3.933593-3.621094-8.933593-5.847656-14.175781-6.398437zm0 0"/><path d="m164.28125 215.53125c-6.167969 0-11.792969-2.183594-15.425781-5.988281-1.90625-2-1.835938-5.164063.164062-7.070313 1.996094-1.910156 5.164063-1.832031 7.070313.164063 1.335937 1.402343 4.191406 2.894531 8.191406 2.894531 4.003906 0 6.855469-1.496094 8.191406-2.894531 1.90625-1.996094 5.070313-2.074219 7.070313-.164063 2 1.90625 2.074219 5.070313.167969 7.070313-3.640626 3.804687-9.261719 5.988281-15.429688 5.988281zm0 0"/><path d="m138.207031 164.175781c-3.3125 0-6-2.6875-6-6v-1.085937c0-3.316406 2.6875-6 6-6s6 2.683594 6 6v1.085937c0 3.3125-2.6875 6-6 6zm0 0"/><path d="m190.351562 165.011719c-3.3125 0-6-2.6875-6-6v-1.089844c0-3.3125 2.6875-6 6-6s6 2.6875 6 6v1.089844c0 3.3125-2.6875 6-6 6zm0 0"/><path d="m164.308594 257.832031c-44.800782 0-78.277344-45.484375-78.277344-86.15625v-49.734375c0-.96875.28125-1.917968.8125-2.734375 5.167969-7.910156 15.546875-17.082031 35.644531-15.960937 39.511719 2.25 59.910157-18.855469 66.851563-28.027344 1.585937-2.09375 4.183594-3.152344 6.777344-2.761719 2.605468.390625 4.789062 2.175781 5.691406 4.660157 9.5625 26.269531 26.949218 32.40625 36.460937 33.726562 2.472657.34375 4.3125 2.457031 4.3125 4.953125v55.878906c0 40.671875-33.472656 86.15625-78.273437 86.15625zm-68.277344-134.332031v48.175781c0 43.589844 36.046875 76.15625 68.277344 76.15625 32.230468 0 68.273437-32.566406 68.273437-76.15625v-51.742187c-10.355469-2.476563-27.828125-10.289063-38.375-34.863282-10.0625 11.527344-32.757812 30.390626-72.285156 28.160157-11.710937-.660157-20.410156 2.789062-25.890625 10.269531zm96.378906-42.960938s.003906.003907.003906.003907-.003906-.003907-.003906-.003907zm0 0"/><path d="m132.996094 474.007812h-46.003906c-2.761719 0-5-2.238281-5-5v-18c0-2.765624 2.238281-5 5-5h46.003906c2.761718 0 5 2.234376 5 5v18c0 2.761719-2.238282 5-5 5zm-41.003906-10h36.003906v-8h-36.003906zm0 0"/><path d="m243.007812 474.007812h-46.003906c-2.761718 0-5-2.238281-5-5v-18c0-2.765624 2.238282-5 5-5h46.003906c2.761719 0 5 2.234376 5 5v18c0 2.761719-2.238281 5-5 5zm-41.003906-10h36.003906v-8h-36.003906zm0 0"/><path d="m173.308594 512.011719h-18c-2.761719 0-5-2.238281-5-5v-208.023438c0-2.761719 2.238281-5 5-5h18c2.761718 0 5 2.238281 5 5v208.023438c0 2.761719-2.238282 5-5 5zm-13-10h8v-198.023438h-8zm0 0"/><path d="m155.308594 303.988281h-.003906c-1.132813 0-27.960938-.328125-50.394532-26.703125-1-1.175781-1.402344-2.746094-1.089844-4.253906s1.304688-2.789062 2.6875-3.472656l11.703126-5.769532c1.707031-.839843 3.171874-2.09375 4.347656-3.722656 1.3125-1.816406 3.671875-2.539062 5.773437-1.765625l.441407.160157c1.015624.375 1.886718 1.066406 2.472656 1.976562.066406.097656 7.589844 11.332031 20.25 13.261719 5.105468.78125 8.8125 5.089843 8.8125 10.25v15.039062c0 1.328125-.527344 2.601563-1.46875 3.539063-.9375.933594-2.207032 1.460937-3.53125 1.460937zm-38.371094-28.421875c12.808594 12.664063 26.296875 16.625 33.367188 17.863282v-9.484376c0-.179687-.132813-.332031-.320313-.363281-11.292969-1.722656-19.289063-8.566406-23.558594-13.226562-1.183593.933593-2.453125 1.742187-3.792969 2.402343zm0 0"/><path d="m173.308594 303.988281c-1.328125 0-2.597656-.527343-3.535156-1.460937-.9375-.9375-1.464844-2.210938-1.464844-3.539063v-15.042969c0-5.15625 3.703125-9.464843 8.808594-10.246093 12.660156-1.933594 20.183593-13.164063 20.257812-13.277344.589844-.894531 1.460938-1.59375 2.46875-1.960937l.441406-.160157c2.097656-.765625 4.457032-.046875 5.765625 1.765625 1.179688 1.628906 2.640625 2.882813 4.347657 3.722656l11.703124 5.769532c1.382813.683594 2.375 1.964844 2.6875 3.472656s-.085937 3.078125-1.085937 4.253906c-22.4375 26.375-49.261719 26.703125-50.394531 26.703125zm28.875-33.632812c-4.265625 4.660156-12.265625 11.503906-23.554688 13.226562-.183594.027344-.320312.183594-.320312.363281v9.503907c7.066406-1.207031 20.507812-5.132813 33.367187-17.882813l-5.695312-2.808594c-1.339844-.660156-2.609375-1.464843-3.796875-2.402343zm0 0"/><path d="m219.300781 390.996094c-15.441406 0-28.003906-12.558594-28.003906-28s12.5625-28.003906 28.003906-28.003906c15.4375 0 28 12.5625 28 28.003906s-12.5625 28-28 28zm0-46.003906c-9.925781 0-18.003906 8.078124-18.003906 18.003906 0 9.925781 8.078125 18 18.003906 18s18-8.074219 18-18c0-9.925782-8.074219-18.003906-18-18.003906zm0 0"/><path d="m219.300781 377.996094c-8.273437 0-15-6.730469-15-15 0-8.269532 6.730469-15 15-15s15 6.730468 15 15c0 8.269531-6.730469 15-15 15zm0-20.003906c-2.757812 0-5 2.246093-5 5 0 2.757812 2.242188 5 5 5 2.753907 0 5-2.242188 5-5 0-2.753907-2.242187-5-5-5zm0 0"/></g></svg>