<svg height="512pt" viewBox="-92 0 512 512.02208" width="512pt" xmlns="http://www.w3.org/2000/svg"><path d="m323.59375 493.273438-9.515625-170.796876c-.71875-12.898437-9.738281-23.832031-22.269531-26.984374l-40.867188-10.289063c-7.089844-1.78125-14.105468-3.855469-21.027344-6.210937l-10.011718-4.9375c-21.199219 24.921874-46.589844 24.945312-46.589844 24.945312v208.023438h137.277344c7.476562 0 13.417968-6.285157 13.003906-13.75zm0 0" fill="#e8e6e6"/><path d="m108.722656 274.054688-8.964844 4.421874c-7.621093 2.699219-15.359374 5.039063-23.199218 7.007813l-39.746094 10.003906c-12.527344 3.15625-21.546875 14.085938-22.269531 26.984375l-9.511719 170.800782c-.414062 7.464843 5.527344 13.75 13.003906 13.75h137.277344v-208.023438c-.003906 0-25.394531-.023438-46.589844-24.945312zm0 0" fill="#e8e6e6"/><path d="m238.039062 121.070312v48.5625c0 3.804688-.292968 7.609376-.847656 11.386719 1.089844.128907 2.1875.230469 3.3125.230469 16.65625 0 30.160156-13.503906 30.160156-30.160156 0-17.683594-15.140624-31.46875-32.625-30.019532zm0 0" fill="#fcb275"/><path d="m89.222656 169.632812v-48.601562c-.8125-.066406-1.632812-.101562-2.464844-.101562-16.65625 0-30.160156 13.5-30.160156 30.160156 0 16.65625 13.503906 30.160156 30.160156 30.160156 1.125 0 2.222657-.101562 3.3125-.230469-.554687-3.777343-.847656-7.582031-.847656-11.386719zm0 0" fill="#fcb275"/><path d="m233.8125 114.8125c-.015625.003906-.03125.003906-.046875.007812-53.699219 11.828126-93.796875-13.773437-108.367187-25.144531-2.503907-1.957031-6.136719-.746093-7.101563 2.277344-4.132813 12.988281-18.675781 18.808594-25.046875 20.777344-1.847656.570312-3.875 2.21875-4.027344 4.144531v52.757812c0 40.921876 33.484375 82.410157 74.410156 82.410157 40.921876 0 74.40625-41.484375 74.40625-82.410157v-51.15625c0-2.253906-2.023437-4.125-4.226562-3.664062zm0 0" fill="#fcb275"/><path d="m255.445312 67.421875c-7.0625-22.351563-23.839843-40.273437-45.304687-49.683594-92.980469-40.777343-117.601563 29.5625-117.601563 29.5625-27.300781 11.496094-33.148437 51.792969-25.371093 80.386719l.554687.015625c5.195313-4.230469 11.816406-6.773437 19.035156-6.773437.832032 0 1.652344.035156 2.464844.101562 0-1.320312 0-2.691406 0-4.152344.152344-1.925781 2.175782-3.574218 4.023438-4.144531 6.375-1.96875 20.917968-7.789063 25.050781-20.777344.964844-3.027343 4.59375-4.234375 7.101563-2.28125 14.566406 11.371094 54.664062 36.972657 108.363281 25.148438.015625-.003907.03125-.007813.046875-.011719 2.207031-.460938 4.230468 1.410156 4.230468 3.664062v2.597657c8.523438-.707031 16.476563 2.226562 22.402344 7.449219 2.945313-25.25-.109375-45.632813-4.996094-61.101563zm0 0" fill="#7c292e"/><path d="m242.304688 363.007812c0 12.703126-10.296876 23-23 23-12.703126 0-23.003907-10.296874-23.003907-23 0-12.707031 10.300781-23.003906 23.003907-23.003906 12.703124 0 23 10.296875 23 23.003906zm0 0" fill="#f9d498"/><path d="m229.304688 363.007812c0 5.523438-4.476563 10-10 10-5.523438 0-10.003907-4.476562-10.003907-10 0-5.527343 4.480469-10.003906 10.003907-10.003906 5.523437 0 10 4.476563 10 10.003906zm0 0" fill="#f9d498"/><path d="m155.308594 299h18.003906v208.019531h-18.003906zm0 0" fill="#fc5d4c"/><path d="m86.996094 469.019531v-18.003906h46.003906v18.003906zm0 0" fill="#fc5d4c"/><path d="m197.007812 469.019531v-18.003906h46.007813v18.003906zm0 0" fill="#fc5d4c"/><path d="m120.425781 268.285156-2.675781 1.320313-9.027344 4.449219c21.195313 24.921874 46.585938 24.945312 46.585938 24.945312v-15.042969c0-2.65625-1.941406-4.90625-4.5625-5.308593-15.160156-2.3125-23.691406-15.484376-23.691406-15.484376l-.441407-.160156c-1.582031 2.195313-3.664062 4.039063-6.1875 5.28125zm0 0" fill="#fc5d4c"/><path d="m219.902344 274.054688-8.066406-3.976563-3.636719-1.792969c-2.519531-1.242187-4.605469-3.085937-6.1875-5.28125l-.4375.160156s-8.535157 13.171876-23.695313 15.484376c-2.621094.402343-4.5625 2.652343-4.5625 5.308593v15.042969c-.003906 0 25.386719-.023438 46.585938-24.945312zm0 0" fill="#fc5d4c"/><path d="m177.878906 278.652344c15.160156-2.3125 23.691406-15.484375 23.691406-15.484375l.4375-.160157c-2.042968-2.828124-3.234374-6.25-3.234374-9.875v-11.808593c-10.480469 6.726562-22.453126 10.71875-35.140626 10.71875-12.144531 0-23.625-3.675781-33.78125-9.886719v10.972656c0 3.625-1.191406 7.046875-3.234374 9.875l.441406.15625s8.53125 13.171875 23.691406 15.488282c2.625.398437 4.566406 2.652343 4.566406 5.304687v15.042969h18v-15.042969c-.003906-2.652344 1.9375-4.902344 4.5625-5.300781zm0 0" fill="#fcb275"/><g fill="#231f20"><path d="m196.335938 183.855469c-.722657 0-1.449219-.03125-2.183594-.085938-7.167969-.578125-13.6875-3.914062-18.347656-9.394531-4.664063-5.476562-6.910157-12.445312-6.332032-19.613281 1.191406-14.804688 14.175782-25.898438 29.007813-24.679688 7.171875.574219 13.6875 3.910157 18.347656 9.390625 4.664063 5.476563 6.910156 12.445313 6.332031 19.617188-1.132812 14.0625-12.949218 24.765625-26.824218 24.765625zm-.03125-43.867188c-8.726563 0-16.152344 6.726563-16.867188 15.574219-.75 9.304688 6.210938 17.484375 15.515625 18.234375 9.332031.753906 17.488281-6.210937 18.238281-15.515625.75-9.308594-6.207031-17.488281-15.515625-18.238281-.460937-.035157-.917969-.054688-1.371093-.054688zm21.871093 18.695313h.019531zm0 0"/><path d="m132.328125 183.855469c-.722656 0-1.449219-.03125-2.183594-.085938-7.171875-.578125-13.6875-3.914062-18.347656-9.394531-4.664063-5.476562-6.914063-12.445312-6.332031-19.613281.578125-7.171875 3.914062-13.6875 9.390625-18.351563 5.480469-4.660156 12.441406-6.914062 19.617187-6.328125 7.167969.574219 13.6875 3.910157 18.347656 9.390625 4.664063 5.476563 6.910157 12.445313 6.332032 19.617188-1.132813 14.0625-12.949219 24.765625-26.824219 24.765625zm-.046875-43.867188c-4.011719 0-7.855469 1.410157-10.945312 4.039063-3.445313 2.929687-5.542969 7.027344-5.90625 11.535156-.363282 4.507812 1.050781 8.890625 3.984374 12.332031 2.929688 3.445313 7.027344 5.542969 11.535157 5.90625 9.316406.753907 17.488281-6.210937 18.238281-15.515625.75-9.308594-6.210938-17.488281-15.515625-18.238281-.46875-.039063-.929687-.058594-1.390625-.058594zm21.890625 18.695313h.019531zm0 0"/><path d="m164.3125 166.191406c-5.175781 0-9.933594-1.605468-13.054688-4.410156-2.054687-1.84375-2.226562-5.003906-.382812-7.058594 1.847656-2.054687 5.007812-2.226562 7.0625-.378906.953125.851562 3.191406 1.847656 6.375 1.847656s5.421875-.996094 6.375-1.851562c2.054688-1.84375 5.214844-1.671875 7.058594.382812 1.84375 2.054688 1.671875 5.214844-.382813 7.058594-3.121093 2.804688-7.878906 4.410156-13.050781 4.410156zm0 0"/><path d="m164.3125 214.3125c-8.863281 0-17.121094-4.390625-22.085938-11.742188-1.546874-2.289062-.945312-5.394531 1.34375-6.941406 2.289063-1.542968 5.394532-.945312 6.941407 1.34375 3.105469 4.59375 8.265625 7.339844 13.800781 7.339844s10.695312-2.746094 13.800781-7.339844c1.546875-2.289062 4.652344-2.890625 6.941407-1.34375 2.289062 1.546875 2.890624 4.652344 1.34375 6.941406-4.964844 7.351563-13.222657 11.742188-22.085938 11.742188zm0 0"/><path d="m265.6875 509.222656c-2.761719 0-5-2.238281-5-5v-110.625c0-2.761718 2.238281-5 5-5s5 2.238282 5 5v110.625c0 2.761719-2.238281 5-5 5zm0 0"/><path d="m62.9375 509.222656c-2.761719 0-5-2.238281-5-5v-110.625c0-2.761718 2.238281-5 5-5s5 2.238282 5 5v110.625c0 2.761719-2.238281 5-5 5zm0 0"/><path d="m240.503906 186.246094c-1.183594 0-2.390625-.082032-3.910156-.265625-1.339844-.160157-2.558594-.855469-3.378906-1.925781-.816406-1.074219-1.167969-2.429688-.972656-3.765626.527343-3.582031.792968-7.164062.792968-10.65625v-48.5625c0-2.597656 1.996094-4.765624 4.585938-4.980468 9.765625-.816406 19.496094 2.535156 26.710937 9.171875 7.199219 6.625 11.328125 16.039062 11.328125 25.828125.003906 19.382812-15.769531 35.15625-35.15625 35.15625zm2.535156-60.148438v43.535156c0 2.148438-.089843 4.324219-.265624 6.511719 12.816406-1.152343 22.890624-11.949219 22.890624-25.054687 0-7.101563-2.878906-13.660156-8.105468-18.46875-4.023438-3.707032-9.148438-5.980469-14.519532-6.523438zm0 0"/><path d="m86.757812 186.246094c-19.386718 0-35.160156-15.773438-35.160156-35.160156 0-19.386719 15.773438-35.160157 35.160156-35.160157.96875 0 1.929688.042969 2.875.121094 2.59375.214844 4.585938 2.382813 4.585938 4.984375v48.601562c0 3.496094.269531 7.082032.796875 10.652344.195313 1.335938-.15625 2.695313-.972656 3.765625-.820313 1.074219-2.039063 1.769531-3.378907 1.929688-1.515624.1875-2.722656.265625-3.90625.265625zm-2.535156-60.191406c-12.6875 1.277343-22.625 12.015624-22.625 25.035156 0 13.105468 10.074219 23.902344 22.886719 25.054687-.175781-2.183593-.265625-4.359375-.265625-6.511719v-43.578124zm0 0"/><path d="m138.679688 164.71875c-3.3125 0-6-2.6875-6-6v-1.105469c0-3.3125 2.6875-6 6-6 3.316406 0 6 2.6875 6 6v1.105469c0 3.3125-2.6875 6-6 6zm0 0"/><path d="m191.628906 165.5625c-3.3125 0-6-2.683594-6-6v-1.105469c0-3.3125 2.6875-6 6-6 3.316406 0 6 2.6875 6 6v1.105469c0 3.316406-2.6875 6-6 6zm0 0"/><path d="m163.628906 257.042969c-45.445312 0-79.40625-46.148438-79.40625-87.410157v-52.757812c0-.128906.003906-.261719.015625-.390625.34375-4.367187 4.144531-7.484375 7.53125-8.53125 5.398438-1.667969 18.324219-6.714844 21.761719-17.515625.957031-3.007812 3.320312-5.359375 6.320312-6.289062 2.957032-.914063 6.179688-.324219 8.617188 1.582031 14.171875 11.0625 52.695312 35.558593 104.21875 24.210937.039062-.007812.078125-.019531.117188-.027344 2.460937-.507812 5 .121094 6.976562 1.726563 2.070312 1.679687 3.257812 4.171875 3.257812 6.832031v51.160156c0 41.261719-33.960937 87.410157-79.410156 87.410157zm-69.40625-139.269531v51.859374c0 44.308594 36.644532 77.414063 69.40625 77.414063 32.765625 0 69.410156-33.105469 69.410156-77.414063v-49.542968c-54.105468 11.183594-94.625-14.058594-110.167968-26.046875-5.09375 14.890625-21.335938 21.359375-28.148438 23.46875-.171875.050781-.355468.15625-.5.261719zm139.589844-2.960938h.019531zm0 0"/><path d="m260.441406 133.519531c-1.195312 0-2.375-.429687-3.304687-1.246093-5.195313-4.578126-11.835938-6.785157-18.683594-6.21875-1.402344.117187-2.773437-.355469-3.800781-1.300782-1.03125-.949218-1.613282-2.28125-1.613282-3.679687v-.980469c-54.113281 11.175781-94.625-14.0625-110.167968-26.046875-5.09375 14.886719-21.335938 21.359375-28.148438 23.464844-.171875.050781-.355468.160156-.5.261719v3.257812c0 1.398438-.585937 2.734375-1.613281 3.679688-1.027344.945312-2.417969 1.417968-3.800781 1.304687-.675782-.058594-1.359375-.085937-2.050782-.085937-5.847656 0-11.335937 1.953124-15.875 5.648437-.921874.753906-2.066406 1.148437-3.273437 1.125l-.554687-.011719c-2.210938-.050781-4.128907-1.550781-4.710938-3.6875-4.300781-15.8125-4.476562-33.734375-.484375-49.167968 4.53125-17.519532 13.769531-30.003907 26.789063-36.261719 2.828124-6.578125 13.214843-26.875 37.234374-37.328125 23.480469-10.21875 52.507813-7.890625 86.269532 6.914062 23.160156 10.160156 40.679687 29.386719 48.0625 52.757813 6.085937 19.277343 7.835937 40.535156 5.195312 63.183593-.214844 1.847657-1.441406 3.421876-3.175781 4.089844-.582031.21875-1.191406.328125-1.792969.328125zm-103.101562-123.519531c-9.941406 0-19.0625 1.78125-27.320313 5.347656-24.296875 10.496094-32.683593 33.386719-32.765625 33.617188-.472656 1.324218-1.480468 2.402344-2.777344 2.945312-17.332031 7.296875-30.601562 34.832032-24 68.023438 4.273438-2.230469 8.980469-3.574219 13.8125-3.917969.566407-4.121094 4.214844-7.050781 7.480469-8.058594 5.398438-1.667969 18.324219-6.71875 21.761719-17.515625.957031-3.007812 3.320312-5.359375 6.320312-6.289062 2.953126-.914063 6.175782-.324219 8.617188 1.582031 14.171875 11.058594 52.695312 35.554687 104.21875 24.207031.066406-.015625.136719-.03125.203125-.042968 2.359375-.496094 4.90625.132812 6.890625 1.742187 1.414062 1.152344 2.417969 2.683594 2.910156 4.390625 4.746094.28125 9.332032 1.523438 13.546875 3.648438 1.222657-18.136719-.640625-35.171876-5.5625-50.75-6.515625-20.621094-22.023437-37.613282-42.542969-46.613282-18.710937-8.207031-35.695312-12.316406-50.792968-12.316406zm0 0"/><path d="m92.789062 409.601562h-9.664062c-2.761719 0-5-2.238281-5-5 0-2.761718 2.238281-5 5-5h9.664062c2.761719 0 5 2.238282 5 5 0 2.761719-2.238281 5-5 5zm0 0"/><path d="m132.457031 409.601562h-9.664062c-2.761719 0-5-2.238281-5-5 0-2.761718 2.238281-5 5-5h9.664062c2.761719 0 5 2.238282 5 5 0 2.761719-2.238281 5-5 5zm0 0"/><path d="m132.457031 409.601562c-2.761719 0-5-2.238281-5-5v-54.527343c0-10.84375-8.820312-19.664063-19.664062-19.664063s-19.667969 8.820313-19.667969 19.664063v54.527343c0 2.761719-2.238281 5-5 5s-5-2.238281-5-5v-54.527343c0-16.355469 13.308594-29.664063 29.667969-29.664063s29.664062 13.308594 29.664062 29.664063v54.527343c0 2.761719-2.238281 5-5 5zm0 0"/><path d="m219.003906 344.003906c-2.761718 0-5-2.238281-5-5v-62.621094c0-13.082031-5.003906-25.46875-14.089844-34.875-1.917968-1.984374-1.867187-5.152343.121094-7.070312 1.988282-1.917969 5.152344-1.863281 7.070313.121094 10.894531 11.28125 16.898437 26.132812 16.898437 41.824218v62.621094c0 2.761719-2.238281 5-5 5zm0 0"/><path d="m108.597656 330.410156c-2.761718 0-5-2.238281-5-5v-49.027344c0-15.609374 5.949219-30.40625 16.75-41.667968 1.910156-1.992188 5.078125-2.058594 7.070313-.148438 1.992187 1.914063 2.054687 5.078125.148437 7.070313-9.007812 9.390625-13.96875 21.730469-13.96875 34.75v49.023437c0 2.761719-2.242187 5-5 5zm0 0"/><path d="m219.304688 391.007812c-15.441407 0-28.003907-12.5625-28.003907-28 0-15.441406 12.5625-28.003906 28.003907-28.003906 15.441406 0 28 12.5625 28 28.003906 0 15.4375-12.558594 28-28 28zm0-46.003906c-9.925782 0-18.003907 8.078125-18.003907 18.003906 0 9.925782 8.078125 18 18.003907 18 9.925781 0 18-8.074218 18-18 0-9.925781-8.074219-18.003906-18-18.003906zm0 0"/><path d="m219.304688 378.007812c-8.273438 0-15-6.730468-15-15 0-8.273437 6.730468-15 15-15 8.269531 0 15 6.726563 15 15 0 8.269532-6.726563 15-15 15zm0-20.003906c-2.757813 0-5 2.246094-5 5 0 2.757813 2.242187 5 5 5 2.753906 0 5-2.242187 5-5 0-2.753906-2.242188-5-5-5zm0 0"/><path d="m173.3125 512.023438h-18c-2.761719 0-5-2.238282-5-5v-208.023438c0-2.765625 2.238281-5 5-5h18.003906c2.761719 0 5 2.234375 5 5v208.023438c-.003906 2.757812-2.242187 5-5.003906 5zm-13-10h8v-198.023438h-8zm0 0"/><path d="m133 474.019531h-46.003906c-2.761719 0-5-2.238281-5-5v-18.003906c0-2.761719 2.238281-5 5-5h46.003906c2.761719 0 5 2.238281 5 5v18.003906c0 2.757813-2.238281 5-5 5zm-41.003906-10h36.003906v-8.003906h-36.003906zm0 0"/><path d="m243.011719 474.019531h-46.003907c-2.761718 0-5-2.238281-5-5v-18.003906c0-2.761719 2.238282-5 5-5h46.003907c2.761719 0 5 2.238281 5 5v18.003906c0 2.757813-2.238281 5-5 5zm-41.003907-10h36.003907v-8.003906h-36.003907zm0 0"/><path d="m155.3125 304h-.003906c-1.132813 0-27.960938-.328125-50.394532-26.707031-1-1.171875-1.398437-2.742188-1.085937-4.25.308594-1.511719 1.300781-2.789063 2.683594-3.472657l11.703125-5.769531c1.710937-.84375 3.171875-2.097656 4.347656-3.726562 1.3125-1.8125 3.675781-2.539063 5.777344-1.765625l.4375.164062c1.015625.375 1.886718 1.066406 2.476562 1.976563.0625.097656 7.589844 11.328125 20.25 13.261719 5.105469.777343 8.808594 5.089843 8.808594 10.246093v15.042969c0 1.328125-.527344 2.601562-1.464844 3.539062-.9375.933594-2.210937 1.460938-3.535156 1.460938zm-38.371094-28.425781c12.8125 12.667969 26.296875 16.628906 33.367188 17.863281v-9.480469c0-.183593-.132813-.335937-.320313-.363281-11.292969-1.726562-19.289062-8.566406-23.554687-13.230469-1.183594.9375-2.457032 1.746094-3.796875 2.40625zm0 0"/><path d="m173.3125 304c-1.324219 0-2.597656-.527344-3.535156-1.464844s-1.464844-2.210937-1.464844-3.535156v-15.042969c0-5.160156 3.703125-9.46875 8.808594-10.25 12.660156-1.929687 20.183594-13.164062 20.257812-13.273437.589844-.898438 1.464844-1.59375 2.472656-1.964844l.4375-.160156c2.097657-.765625 4.457032-.042969 5.765626 1.765625 1.179687 1.632812 2.640624 2.882812 4.351562 3.726562l11.703125 5.769531c1.382813.683594 2.375 1.960938 2.683594 3.472657.3125 1.507812-.085938 3.078125-1.085938 4.25-22.433593 26.378906-49.261719 26.707031-50.390625 26.707031 0 0 0 0-.003906 0zm28.878906-33.636719c-4.269531 4.664063-12.265625 11.503907-23.558594 13.230469-.183593.027344-.320312.179688-.320312.363281v9.503907c7.066406-1.207032 20.507812-5.136719 33.371094-17.882813l-5.699219-2.808594c-1.335937-.660156-2.609375-1.46875-3.792969-2.40625zm0 0"/><path d="m173.3125 304h-18c-2.761719 0-5-2.238281-5-5v-15.042969c0-.183593-.132812-.335937-.320312-.363281-14.542969-2.222656-23.621094-12.925781-26.304688-16.539062-.871094-.628907-1.527344-1.535157-1.851562-2.589844-.457032-1.496094-.1875-3.121094.730468-4.390625 1.492188-2.066407 2.285156-4.46875 2.285156-6.941407v-10.976562c0-1.804688.976563-3.472656 2.554688-4.359375s3.511719-.851563 5.054688.09375c9.929687 6.074219 20.414062 9.152344 31.171874 9.152344 11.101563 0 22.316407-3.429688 32.445313-9.925781 1.539063-.988282 3.492187-1.054688 5.097656-.179688 1.601563.875 2.601563 2.5625 2.601563 4.386719v11.808593c0 2.472657.792968 4.875 2.289062 6.941407.914063 1.273437 1.183594 2.898437.726563 4.394531-.324219 1.054688-.976563 1.957031-1.851563 2.585938-2.6875 3.613281-11.761718 14.320312-26.304687 16.539062-.1875.03125-.320313.183594-.320313.363281v15.042969c-.003906 2.761719-2.242187 5-5.003906 5zm-13-10h8v-10.042969c0-5.160156 3.703125-9.46875 8.808594-10.25 9.378906-1.429687 15.9375-7.964843 18.738281-11.304687-1.375-2.898438-2.089844-6.042969-2.089844-9.269532v-3.261718c-9.632812 4.714844-19.90625 7.171875-30.140625 7.171875-9.878906 0-19.527344-2.1875-28.78125-6.519531v2.609374c0 3.226563-.714844 6.375-2.089844 9.269532 2.792969 3.332031 9.359376 9.875 18.742188 11.304687 5.105469.78125 8.808594 5.089844 8.808594 10.25v10.042969zm0 0"/><path d="m310.589844 512.023438h-137.277344c-2.761719 0-5-2.238282-5-5v-208.023438c0-2.761719 2.234375-5 4.996094-5 .929687-.011719 23.464844-.472656 42.785156-23.183594 1.484375-1.746094 3.960938-2.257812 6.019531-1.246094l9.71875 4.792969c6.65625 2.253907 13.496094 4.269531 20.332031 5.992188l40.871094 10.285156c14.730469 3.710937 25.191406 16.390625 26.039063 31.554687l9.515625 170.796876c.273437 4.925781-1.511719 9.804687-4.902344 13.390624-3.394531 3.582032-8.167969 5.640626-13.097656 5.640626zm-132.277344-10h132.277344c2.226562 0 4.296875-.894532 5.828125-2.511719 1.53125-1.621094 2.304687-3.734375 2.183593-5.960938l-9.515624-170.796875c-.597657-10.773437-8.035157-19.78125-18.496094-22.414062l-40.871094-10.289063c-7.203125-1.8125-14.410156-3.941406-21.417969-6.324219-.203125-.070312-.402343-.15625-.597656-.25l-6.597656-3.253906c-16.300781 17.503906-34.261719 22.125-42.792969 23.339844zm0 0"/><path d="m155.3125 512.023438h-137.277344c-4.933594 0-9.707031-2.054688-13.09375-5.640626-3.390625-3.582031-5.175781-8.460937-4.9023435-13.382812l9.5117185-170.800781c.847657-15.164063 11.3125-27.84375 26.042969-31.554688l39.746094-10.003906c7.5625-1.902344 15.121094-4.179687 22.472656-6.773437l8.699219-4.292969c2.054687-1.011719 4.535156-.5 6.019531 1.246093 19.476562 22.898438 42.554688 23.183594 42.785156 23.183594 2.761719.003906 4.996094 2.238282 4.996094 5v208.019532c0 2.757812-2.238281 5-5 5zm-47.792969-231.800782-5.550781 2.738282c-.175781.085937-.355469.164062-.542969.226562-7.730469 2.742188-15.6875 5.144531-23.644531 7.148438l-39.746094 10.003906c-10.460937 2.632812-17.898437 11.640625-18.496094 22.414062l-9.515624 170.796875c-.121094 2.222657.652343 4.339844 2.183593 5.957031 1.53125 1.617188 3.601563 2.511719 5.828125 2.511719h132.277344v-198.460937c-8.53125-1.210938-26.496094-5.828125-42.792969-23.335938zm-7.761719-1.746094h.019532zm0 0"/></g></svg>