<svg height="511pt" viewBox="-83 0 511 511.90346" width="511pt" xmlns="http://www.w3.org/2000/svg"><path d="m67.144531 289.714844 17.613281-4.433594c5.445313-1.371094 10.839844-2.929688 16.179688-4.648438 12.535156-4.039062 5.828125-2.363281 23.898438-10.683593l1.125-.554688 2.679687-1.324219c5.773437-2.84375 9.425781-8.722656 9.425781-15.15625v-13.265624c7.710938 7 16.546875 13.285156 26.585938 17.90625 4.628906 2.128906 10.132812 2.136718 14.765625 0 10.484375-4.824219 19.660156-11.457032 27.601562-18.828126v14.183594c0 6.4375 3.652344 12.3125 9.425781 15.160156l3.636719 1.792969.058594.027344 18.027344 8.890625c5.296875 1.800781 12.296875 3.671875 21.039062 6.214844l18.773438 4.726562c6.089843-11.046875 1.367187-36.484375-3.75-47.316406-26-55.046875 26.003906-126.410156-6-187.574219-32-61.167969-96.011719-48.929687-96.011719-48.929687s-64.007812-12.234375-96.007812 48.933594c-32.003907 61.164062 20 132.527343-6 187.574218-5.121094 10.835938-9.1875 36.59375-3.066407 47.304688zm0 0" fill="#7c292e"/><path d="m240.589844 119.476562c-10.53125-3.039062-25.960938-11.664062-34.832032-36.03125-.597656-1.644531-2.761718-1.996093-3.816406-.601562-6.917968 9.144531-29.042968 32.726562-71.820312 30.300781-11.691406-.664062-20.601563 2.4375-26.6875 6.863281l-2.199219 22.613282c-3.605469 33.882812 7.761719 67.855468 31.691406 92.121094 8.828125 8.953124 19.382813 17.132812 31.730469 22.816406 4.628906 2.128906 10.132812 2.132812 14.765625 0 12.347656-5.683594 22.898437-13.863282 31.730469-22.816406 23.925781-24.265626 35.296875-58.238282 31.691406-92.121094zm0 0" fill="#fcb275"/><path d="m327.394531 417.875h-53.4375v24.144531h53.4375c6.640625 0 12.074219-5.433593 12.074219-12.070312 0-6.640625-5.433594-12.074219-12.074219-12.074219zm0 0" fill="#f982ad"/><path d="m71.128906 417.875h-53.605468c-6.640626 0-12.070313 5.429688-12.070313 12.070312 0 6.640626 5.429687 12.070313 12.070313 12.070313h53.605468zm0 0" fill="#f982ad"/><path d="m331.886719 493.148438-2.855469-51.253907c-.539062.074219-1.082031.125-1.636719.125h-53.4375l.003907 64.882813h44.917968c7.480469 0 13.421875-6.285156 13.007813-13.753906zm0 0" fill="#fcb275"/><path d="m17.523438 442.019531c-.496094 0-.984376-.039062-1.46875-.101562l-2.851563 51.230469c-.417969 7.46875 5.527344 13.753906 13.007813 13.753906h44.917968v-64.886719h-53.605468zm0 0" fill="#fcb275"/><path d="m327.394531 417.875c.101563 0 .199219.011719.300781.015625l-5.324218-95.605469c-.722656-12.902344-9.746094-23.839844-22.277344-26.992187l-40.886719-10.292969c-8.742187-2.542969-15.742187-4.414062-21.039062-6.214844l-18.027344-8.890625-.058594-.027343-3.636719-1.792969c-5.777343-2.847657-9.425781-8.722657-9.425781-15.160157v-14.183593c-7.941406 7.371093-17.117187 14.003906-27.601562 18.828125-4.632813 2.136718-10.136719 2.132812-14.765625 0-10.039063-4.625-18.875-10.910156-26.585938-17.90625v13.265625c0 6.433593-3.652344 12.3125-9.425781 15.15625l-2.679687 1.324219-1.125.554687c-18.070313 8.324219-11.363282 6.644531-23.898438 10.683594-5.34375 1.71875-10.734375 3.277343-16.179688 4.648437l-39.765624 10.007813c-12.53125 3.15625-21.554688 14.089843-22.273438 26.996093l-5.324219 95.59375c.042969 0 .085938-.003906.128907-.003906h53.605468v89.027344h202.828125v-89.027344h53.4375zm0 0" fill="#f45687"/><path d="m101.234375 142.621094 2.078125-21.378906c-.898438-.085938-1.804688-.140626-2.722656-.140626-15.382813 0-27.855469 12.472657-27.855469 27.859376 0 15.382812 12.472656 27.855468 27.855469 27.855468.703125 0 1.394531-.054687 2.082031-.105468-2.121094-11.125-2.660156-22.609376-1.4375-34.089844zm0 0" fill="#fcb275"/><path d="m243.847656 121.101562c-1.042968 0-2.066406.070313-3.082031.183594l2.074219 21.335938c1.21875 11.476562.683594 22.953125-1.4375 34.070312.808594.070313 1.621094.125 2.445312.125 15.382813 0 27.855469-12.472656 27.855469-27.855468 0-15.386719-12.472656-27.859376-27.855469-27.859376zm0 0" fill="#fcb275"/><path d="m238.167969 278.789062-5.867188-2.894531c-8.660156 21.597657-28.582031 37.425781-52.496093 40.3125 7.984374 11.003907 21.363281 24.574219 40.160156 16.515625 18.335937-7.855468 28.953125-32.867187 34.097656-49.195312-4.257812-1.246094-10.863281-3.03125-15.894531-4.738282zm0 0" fill="#f982ad"/><path d="m111.808594 276.375c-3.332032 1.371094-.160156.808594-10.871094 4.257812-3.628906 1.171876-7.292969 2.234376-10.96875 3.246094 5.1875 16.335938 15.777344 41.042969 33.988281 48.847656 18.792969 8.054688 32.175781-5.511718 40.15625-16.519531-23.738281-2.863281-43.542969-18.480469-52.304687-39.832031zm0 0" fill="#f982ad"/><path d="m220.082031 269.867188-3.636719-1.792969c-5.773437-2.847657-9.425781-8.722657-9.425781-15.160157v-14.183593c-7.941406 7.371093-17.117187 14.003906-27.597656 18.828125-4.636719 2.136718-10.140625 2.132812-14.765625 0-10.042969-4.625-18.878906-10.910156-26.585938-17.90625v13.265625c0 6.433593-3.65625 12.3125-9.425781 15.15625l-2.679687 1.324219-1.128906.554687-13.027344 6.425781c9.714844 23.671875 32.980468 40.347656 60.152344 40.347656 27.355468 0 50.746093-16.90625 60.34375-40.828124l-12.164063-5.996094zm0 0" fill="#fcb275"/><path d="m179.808594 316.207031c-2.574219.324219-5.1875.515625-7.847656.515625-2.664063 0-5.285157-.175781-7.863282-.492187-.855468 1.179687-1.777344 2.386719-2.757812 3.59375v187.078125h22.242187v-185.871094c-1.367187-1.613281-2.628906-3.242188-3.773437-4.824219zm0 0" fill="#f982ad"/><path d="m135.597656 455.335938h-37.621094c-2.179687 0-3.960937-1.785157-3.960937-3.964844v-43.15625c0-2.179688 1.78125-3.964844 3.960937-3.964844h37.621094c2.179688 0 3.964844 1.785156 3.964844 3.964844v43.15625c0 2.179687-1.785156 3.964844-3.964844 3.964844zm0 0" fill="#e8e6e6"/><path d="m127.71875 373.230469c0-6.046875-4.894531-10.949219-10.929688-10.949219-6.039062 0-10.933593 4.902344-10.933593 10.949219s4.894531 10.945312 10.933593 10.945312c6.035157 0 10.929688-4.898437 10.929688-10.945312zm0 0" fill="#fcbd4c"/><path d="m135.601562 404.246094h-37.628906c-2.179687 0-3.960937 1.789062-3.960937 3.96875v14.277344h45.550781v-14.277344c0-2.183594-1.78125-3.96875-3.960938-3.96875zm0 0" fill="#30a9e5"/><g fill="#231f20"><path d="m277.980469 294.726562c-.40625 0-.816407-.050781-1.222657-.152343l-18.773437-4.726563c-2.777344-.800781-5.21875-1.5-7.511719-2.152344-5.410156-1.539062-10.078125-2.871093-13.914062-4.175781-.203125-.066406-.40625-.152343-.597656-.25l-21.726563-10.710937c-7.535156-3.714844-12.214844-11.238282-12.214844-19.640625v-3.378907c-6.585937 5.105469-13.453125 9.3125-20.503906 12.5625-5.9375 2.730469-13.019531 2.730469-18.949219 0-6.6875-3.078124-13.210937-7.027343-19.496094-11.792968v2.609375c0 8.402343-4.683593 15.925781-12.214843 19.640625l-3.804688 1.875c-7.511719 3.460937-10.644531 5.140625-12.714843 6.253906-3.332032 1.789062-4.402344 2.300781-11.863282 4.703125-5.542968 1.789063-11.09375 3.382813-16.492187 4.742187l-17.613281 4.433594c-2.179688.546875-4.453126-.421875-5.5625-2.371094-7.664063-13.414062-2.113282-41.335937 2.882812-51.917968 11.734375-24.84375 6.585938-53.628906 1.128906-84.105469-6.171875-34.5-12.550781-70.175781 4.964844-103.65625 31.183594-59.605469 92.136719-52.898437 100.4375-51.675781 8.304688-1.21875 69.253906-7.929688 100.441406 51.675781 17.515625 33.480469 11.132813 69.15625 4.960938 103.65625-5.453125 30.476563-10.601563 59.261719 1.128906 84.105469 5.1875 10.976562 10.992188 38.464844 3.609375 51.863281-.894531 1.621094-2.589844 2.585937-4.378906 2.585937zm-119.679688-284.90625c-19.449219 0-56.039062 6.007813-77.660156 47.332032-15.929687 30.449218-9.855469 64.414062-3.980469 97.257812 5.492188 30.679688 11.167969 62.40625-1.929687 90.132813-4.1875 8.859375-7.386719 28.855469-4.59375 39.261719l13.402343-3.375c5.1875-1.304688 10.527344-2.839844 15.863282-4.558594 6.882812-2.214844 7.457031-2.523438 10.207031-3.996094 2.179687-1.167969 5.46875-2.9375 13.136719-6.46875l3.683594-1.820312c4.097656-2.019532 6.640624-6.109376 6.640624-10.671876v-13.265624c0-1.980469 1.164063-3.773438 2.976563-4.574219 1.804687-.796875 3.917969-.457031 5.382813.875 8.023437 7.285156 16.542968 13.027343 25.316406 17.066406 3.3125 1.527344 7.273437 1.527344 10.582031 0 9.148437-4.210937 17.996094-10.253906 26.289063-17.949219 1.457031-1.351562 3.578124-1.714844 5.398437-.917968 1.824219.792968 3.003906 2.59375 3.003906 4.582031v14.183593c0 4.566407 2.539063 8.65625 6.636719 10.675782l21.429688 10.566406c3.542968 1.191406 7.992187 2.460938 13.125 3.921875 2.308593.65625 4.773437 1.359375 7.390624 2.121094l14.324219 3.601562c2.660157-10.414062-.78125-29.859375-5.214843-39.257812-13.097657-27.726563-7.421876-59.453125-1.933594-90.132813 5.875-32.847656 11.953125-66.8125-3.976563-97.257812-29.9375-57.2109378-90.042969-46.457032-90.640625-46.339844-.621094.121094-1.257812.121094-1.878906 0-.675781-.125-5.59375-.992188-12.980469-.992188zm0 0"/><path d="m273.957031 509.101562c-2.761719 0-5-2.234374-5-5v-110.667968c0-2.761719 2.238281-5 5-5s5 2.238281 5 5v110.667968c0 2.761719-2.238281 5-5 5zm0 0"/><path d="m71.128906 509.101562c-2.761718 0-5-2.234374-5-5v-110.667968c0-2.761719 2.238282-5 5-5 2.761719 0 5 2.238281 5 5v110.667968c0 2.761719-2.238281 5-5 5zm0 0"/><path d="m116.785156 409.246094c-2.761718 0-5-2.238282-5-5v-20.070313c0-2.761719 2.238282-5 5-5 2.761719 0 5 2.238281 5 5v20.070313c0 2.761718-2.238281 5-5 5zm0 0"/><path d="m241.800781 379.890625h-22.003906c-2.761719 0-5-2.238281-5-5s2.238281-5 5-5h22.003906c2.761719 0 5 2.238281 5 5s-2.238281 5-5 5zm0 0"/><path d="m173.167969 217.441406c-6.214844 0-11.878907-2.199218-15.539063-6.03125-1.910156-2-1.835937-5.164062.160156-7.070312 2-1.90625 5.160157-1.835938 7.070313.164062 1.355469 1.417969 4.25 2.9375 8.304687 2.9375 4.058594 0 6.953126-1.519531 8.308594-2.9375 1.90625-2 5.070313-2.070312 7.070313-.164062 1.996093 1.90625 2.070312 5.070312.160156 7.070312-3.65625 3.832032-9.320313 6.03125-15.535156 6.03125zm0 0"/><path d="m210.085938 146.136719c-.789063 0-1.59375-.1875-2.34375-.585938-1.25-.664062-4.113282-1.335937-7.699219-1.335937-3.585938 0-6.453125.671875-7.703125 1.335937-2.433594 1.292969-5.464844.371094-6.761719-2.066406-1.292969-2.4375-.371094-5.46875 2.066406-6.761719 2.996094-1.59375 7.511719-2.507812 12.394531-2.507812 4.882813 0 9.402344.914062 12.398438 2.507812 2.4375 1.292969 3.363281 4.324219 2.0625 6.761719-.890625 1.6875-2.621094 2.652344-4.414062 2.652344zm0 0"/><path d="m156.082031 146.136719c-.789062 0-1.59375-.1875-2.34375-.585938-1.25-.664062-4.113281-1.335937-7.699219-1.335937-3.585937 0-6.453124.671875-7.703124 1.335937-2.4375 1.292969-5.464844.371094-6.761719-2.066406-1.292969-2.4375-.371094-5.46875 2.066406-6.761719 2.996094-1.59375 7.511719-2.507812 12.394531-2.507812 4.882813 0 9.402344.914062 12.398438 2.507812 2.4375 1.292969 3.363281 4.324219 2.0625 6.761719-.894532 1.6875-2.625 2.652344-4.414063 2.652344zm0 0"/><path d="m146.835938 165.570312c-3.3125 0-6-2.6875-6-6v-1.097656c0-3.316406 2.6875-6 6-6 3.316406 0 6 2.683594 6 6v1.097656c0 3.3125-2.683594 6-6 6zm0 0"/><path d="m199.496094 166.410156c-3.3125 0-6-2.683594-6-6v-1.097656c0-3.3125 2.6875-6 6-6s6 2.6875 6 6v1.097656c0 3.316406-2.6875 6-6 6zm0 0"/><path d="m172.039062 264.148438c-3.253906 0-6.507812-.679688-9.476562-2.046876-11.765625-5.417968-22.9375-13.441406-33.199219-23.847656-24.859375-25.207031-36.921875-60.257812-33.105469-96.164062l2.199219-22.566406c.136719-1.421876.875-2.71875 2.035157-3.558594 5.535156-4.023438 15.207031-8.640625 29.910156-7.8125 39.921875 2.265625 60.539062-19.054688 67.550781-28.324219 1.589844-2.101563 4.191406-3.164063 6.792969-2.769531 2.613281.390625 4.800781 2.183594 5.707031 4.671875 8.015625 22.023437 21.566406 30.070312 31.523437 32.941406 1.96875.566406 3.394532 2.28125 3.589844 4.320313l2.25 23.140624c3.816406 35.859376-8.25 70.910157-33.109375 96.117188-10.261719 10.40625-21.429687 18.429688-33.199219 23.847656-2.960937 1.367188-6.214843 2.050782-9.46875 2.050782zm-63.859374-141.300782-1.96875 20.253906c-3.507813 32.960938 7.527343 65.0625 30.273437 88.128907 9.414063 9.542969 19.59375 16.871093 30.261719 21.785156 3.3125 1.527344 7.273437 1.527344 10.582031 0 10.667969-4.914063 20.847656-12.242187 30.261719-21.785156 22.746094-23.066407 33.78125-55.167969 30.28125-88.082031l-1.9375-19.933594c-10.960938-3.972656-24.347656-13.046875-33.09375-33.554688-10.125 11.625-33.078125 30.75-73.003906 28.476563-10.226563-.574219-17.230469 2.007812-21.65625 4.710937zm0 0"/><path d="m327.394531 447.019531h-53.4375c-2.761719 0-5-2.238281-5-5v-24.144531c0-2.761719 2.238281-5 5-5h53.4375c9.414063 0 17.074219 7.65625 17.074219 17.070312 0 9.414063-7.660156 17.074219-17.074219 17.074219zm-48.4375-10h48.4375c3.902344 0 7.074219-3.171875 7.074219-7.074219 0-3.898437-3.171875-7.070312-7.074219-7.070312h-48.4375zm0 0"/><path d="m71.128906 447.019531h-53.605468c-9.414063 0-17.070313-7.660156-17.070313-17.074219 0-9.414062 7.65625-17.070312 17.070313-17.070312h53.605468c2.761719 0 5 2.238281 5 5v24.144531c0 2.761719-2.238281 5-5 5zm-53.605468-24.144531c-3.898438 0-7.070313 3.171875-7.070313 7.070312 0 3.898438 3.171875 7.074219 7.070313 7.074219h48.605468v-14.144531zm0 0"/><path d="m318.878906 511.902344h-44.921875c-2.761719 0-5-2.238282-5-5v-64.882813c0-1.324219.527344-2.597656 1.460938-3.535156.941406-.9375 2.210937-1.464844 3.539062-1.464844h53.4375c.328125 0 .644531-.035156.960938-.078125 1.390625-.183594 2.78125.210938 3.859375 1.097656 1.074218.886719 1.730468 2.183594 1.808594 3.578126l2.855468 51.253906c.277344 4.925781-1.511718 9.804687-4.902344 13.390625-3.394531 3.585937-8.164062 5.640625-13.097656 5.640625zm-39.921875-10h39.921875c2.226563 0 4.296875-.890625 5.832032-2.511719 1.53125-1.621094 2.304687-3.738281 2.183593-5.960937l-2.585937-46.410157h-45.351563zm0 0"/><path d="m71.128906 511.902344h-44.917968c-4.933594 0-9.710938-2.054688-13.097657-5.640625-3.390625-3.582031-5.179687-8.460938-4.902343-13.386719l2.851562-51.230469c.078125-1.382812.722656-2.671875 1.789062-3.558593 1.058594-.886719 2.4375-1.296876 3.816407-1.125.285156.035156.566406.0625.859375.0625h53.605468c2.761719 0 5 2.238281 5 5v64.878906c-.003906 2.761718-2.242187 5-5.003906 5zm-50.347656-64.882813-2.585938 46.410157c-.125 2.226562.648438 4.339843 2.183594 5.960937 1.53125 1.621094 3.601563 2.511719 5.832032 2.511719h39.917968v-54.882813zm0 0"/><path d="m273.957031 511.902344h-202.828125c-1.324218 0-2.597656-.523438-3.535156-1.460938-.9375-.941406-1.464844-2.210937-1.464844-3.539062l.003906-84.027344h-48.480468c-.09375.003906-.183594.003906-.257813.003906-1.375 0-2.6875-.566406-3.628906-1.5625-.945313-1-1.4375-2.34375-1.363281-3.714844l5.324218-95.59375c.847657-15.171874 11.3125-27.855468 26.046876-31.5625l39.765624-10.011718c5.1875-1.304688 10.527344-2.839844 15.863282-4.558594 6.882812-2.21875 7.457031-2.527344 10.207031-4 2.179687-1.167969 5.46875-2.933594 13.136719-6.464844l3.683594-1.820312c4.097656-2.019532 6.640624-6.109375 6.640624-10.675782v-13.265624c0-1.976563 1.164063-3.769532 2.976563-4.570313 1.808594-.800781 3.917969-.457031 5.382813.871094 8.023437 7.285156 16.542968 13.027343 25.316406 17.066406 3.3125 1.53125 7.273437 1.527344 10.582031 0 9.148437-4.210937 17.996094-10.25 26.289063-17.949219 1.457031-1.351562 3.578124-1.714844 5.398437-.917968 1.824219.796874 3.003906 2.59375 3.003906 4.585937v14.183594c0 4.566406 2.539063 8.65625 6.636719 10.671875l21.429688 10.566406c3.542968 1.195312 7.992187 2.460938 13.125 3.921875 2.308593.660156 4.773437 1.363281 7.390624 2.125l40.710938 10.242187c14.730469 3.707032 25.203125 16.390626 26.046875 31.5625l5.324219 95.605469c.078125 1.386719-.429688 2.746094-1.390625 3.75-.96875 1-2.296875 1.578125-3.699219 1.527344-.066406 0-.214844-.007813-.320312-.015625h-48.320313l.003906 84.03125c0 1.324219-.53125 2.597656-1.464843 3.535156-.9375.933594-2.207032 1.460938-3.535157 1.460938zm-197.828125-10h192.828125v-84.027344c0-2.761719 2.238281-5 5-5h48.449219l-5.027344-90.3125c-.601562-10.777344-8.042968-19.789062-18.507812-22.421875l-40.886719-10.292969c-2.777344-.800781-5.21875-1.5-7.511719-2.152344-5.410156-1.539062-10.078125-2.871093-13.914062-4.175781-.203125-.066406-.402344-.152343-.597656-.25l-21.726563-10.710937c-7.535156-3.714844-12.214844-11.238282-12.214844-19.640625v-3.375c-6.585937 5.105469-13.453125 9.3125-20.503906 12.558593-5.9375 2.730469-13.019531 2.730469-18.949219 0-6.6875-3.074218-13.210937-7.027343-19.496094-11.792968v2.609375c0 8.402343-4.683593 15.929687-12.214843 19.644531l-3.804688 1.875c-7.511719 3.460938-10.644531 5.140625-12.714843 6.253906-3.332032 1.785156-4.402344 2.296875-11.863282 4.703125-5.542968 1.785157-11.09375 3.382813-16.492187 4.738281l-39.761719 10.011719c-10.46875 2.632813-17.90625 11.644531-18.503906 22.421875l-5.03125 90.308594h48.449218c1.328126 0 2.597657.527344 3.535157 1.464844.941406.9375 1.464843 2.207031 1.464843 3.535156zm251.265625-79.027344h.019531zm0 0"/><path d="m100.589844 181.816406c-18.117188 0-32.855469-14.742187-32.855469-32.855468 0-18.117188 14.738281-32.859376 32.855469-32.859376 1.039062 0 2.085937.054688 3.203125.164063 1.320312.128906 2.535156.777344 3.378906 1.796875.84375 1.023438 1.242187 2.34375 1.117187 3.664062l-2.078124 21.375c-.003907.019532-.003907.035157-.003907.046876-1.152343 10.820312-.691406 21.796874 1.375 32.621093.269531 1.402344-.074219 2.847657-.941406 3.980469s-2.175781 1.835938-3.59375 1.945312c-.859375.0625-1.652344.121094-2.457031.121094zm-2.789063-55.542968c-11.292969 1.382812-20.066406 11.027343-20.066406 22.6875 0 11.289062 8.234375 20.699218 19.011719 22.53125-1.355469-9.78125-1.523438-19.632813-.488282-29.378907zm3.433594 16.347656h.019531zm0 0"/><path d="m243.847656 181.816406c-.972656 0-1.933594-.0625-2.882812-.144531-1.40625-.125-2.695313-.839844-3.550782-1.964844-.851562-1.128906-1.183593-2.5625-.921874-3.953125 2.066406-10.820312 2.53125-21.789062 1.378906-32.605468l-2.078125-21.382813c-.265625-2.722656 1.707031-5.152344 4.429687-5.453125 1.277344-.140625 2.464844-.210938 3.625-.210938 18.117188 0 32.855469 14.742188 32.855469 32.859376 0 18.113281-14.738281 32.855468-32.855469 32.855468zm2.421875-55.585937 1.546875 15.90625c1.039063 9.734375.871094 19.609375-.5 29.414062 10.960938-1.675781 19.382813-11.167969 19.382813-22.589843.003906-11.785157-8.960938-21.515626-20.429688-22.730469zm0 0"/><path d="m208.667969 340.21875c-11.707031 0-22.730469-7.046875-32.910157-21.078125-1.039062-1.433594-1.242187-3.3125-.535156-4.933594.710938-1.625 2.226563-2.75 3.984375-2.964843 21.730469-2.621094 40.296875-16.875 48.453125-37.207032.519532-1.292968 1.554688-2.3125 2.855469-2.808594 1.296875-.5 2.75-.429687 4 .183594l5.570313 2.75c3.570312 1.203125 8.050781 2.476563 11.671874 3.503906 1.347657.382813 2.605469.742188 3.707032 1.066407 1.292968.375 2.375 1.257812 3.007812 2.441406.632813 1.1875.761719 2.578125.359375 3.859375-6.058593 19.238281-17.378906 43.929688-36.894531 52.292969-4.511719 1.925781-8.9375 2.894531-13.269531 2.894531zm-19.699219-20.628906c9.382812 10.242187 18.734375 12.949218 29.027344 8.539062 15.0625-6.457031 24.632812-26.882812 29.675781-41.234375-3.5625-1.015625-7.695313-2.210937-11.113281-3.375-.203125-.070312-.40625-.152343-.597656-.25l-1.210938-.597656c-9.117188 18.484375-25.902344 31.960937-45.78125 36.917969zm0 0"/><path d="m135.25 340.21875c-4.332031 0-8.753906-.964844-13.265625-2.898438-19.414063-8.320312-30.714844-32.832031-36.78125-51.929687-.414063-1.296875-.28125-2.707031.371094-3.902344.648437-1.195312 1.757812-2.074219 3.070312-2.433593 4.121094-1.132813 7.542969-2.144532 10.753907-3.179688 6.828124-2.199219 7.546874-2.621094 8.019531-2.902344.585937-.34375 1.214843-.699218 2.488281-1.222656 1.230469-.503906 2.605469-.5 3.828125.011719s2.195313 1.488281 2.699219 2.714843c8.242187 20.082032 26.738281 34.171876 48.277344 36.765626 1.761718.214843 3.277343 1.339843 3.984374 2.964843.707032 1.621094.507813 3.5-.535156 4.933594-10.171875 14.027344-21.199218 21.078125-32.910156 21.078125zm-38.871094-52.960938c5.042969 14.238282 14.589844 34.460938 29.542969 40.871094 10.296875 4.414063 19.644531 1.707032 29.03125-8.539062-19.71875-4.925782-36.4375-18.261719-45.597656-36.539063-1.410157.535157-3.511719 1.253907-6.886719 2.34375-1.933594.621094-3.929688 1.234375-6.089844 1.863281zm0 0"/><path d="m171.960938 321.722656c-28.519532 0-53.945313-17.054687-64.777344-43.453125-.996094-2.429687.054687-5.21875 2.414062-6.378906l16.828125-8.300781c4.101563-2.019532 6.640625-6.109375 6.640625-10.671875v-13.265625c0-1.980469 1.167969-3.773438 2.976563-4.574219 1.8125-.796875 3.921875-.457031 5.382812.875 8.027344 7.285156 16.542969 13.027344 25.316407 17.066406 3.316406 1.527344 7.273437 1.527344 10.582031 0 9.152343-4.210937 17.996093-10.253906 26.289062-17.949219 1.457031-1.351562 3.578125-1.714843 5.402344-.917968 1.820313.792968 3 2.59375 3 4.582031v14.183594c0 4.566406 2.542969 8.65625 6.636719 10.675781l15.859375 7.816406c2.34375 1.15625 3.402343 3.921875 2.429687 6.347656-10.710937 26.707032-36.21875 43.964844-64.980468 43.964844zm-53.59375-43.007812c10.152343 20.195312 30.710937 33.007812 53.59375 33.007812 23.105468 0 43.757812-12.992187 53.820312-33.472656l-7.851562-3.871094s-.058594-.027344-.058594-.027344l-3.636719-1.792968c-7.535156-3.714844-12.214844-11.242188-12.214844-19.644532v-3.375c-6.585937 5.105469-13.453125 9.3125-20.503906 12.5625-5.9375 2.730469-13.019531 2.730469-18.949219 0-6.6875-3.078124-13.210937-7.027343-19.496094-11.792968v2.609375c0 8.402343-4.683593 15.925781-12.214843 19.640625zm0 0"/><path d="m183.582031 511.902344h-22.242187c-2.761719 0-5-2.238282-5-5v-187.074219c0-1.148437.390625-2.257813 1.117187-3.148437.921875-1.136719 1.789063-2.277344 2.597657-3.386719 1.066406-1.46875 2.835937-2.253907 4.652343-2.027344 4.863281.601563 9.324219.628906 14.484375-.019531 1.8125-.230469 3.601563.554687 4.667969 2.027344 1.167969 1.613281 2.359375 3.132812 3.539063 4.523437.765624.902344 1.1875 2.046875 1.1875 3.234375v185.871094c-.003907 2.761718-2.242188 5-5.003907 5zm-17.246093-10h12.246093v-179.070313c-.359375-.441406-.714843-.890625-1.070312-1.351562-3.808594.328125-7.371094.320312-11.113281.011719-.019532.023437-.042969.050781-.0625.078124zm0 0"/><path d="m135.597656 460.335938h-37.621094c-4.945312 0-8.964843-4.023438-8.964843-8.964844v-43.160156c0-4.945313 4.023437-8.964844 8.964843-8.964844h37.621094c4.941406 0 8.960938 4.023437 8.960938 8.964844v43.160156c.003906 4.941406-4.019532 8.964844-8.960938 8.964844zm-36.585937-10h35.546875v-41.089844h-35.546875zm0 0"/><path d="m116.785156 389.175781c-8.785156 0-15.929687-7.15625-15.929687-15.949219 0-8.792968 7.144531-15.945312 15.929687-15.945312s15.933594 7.152344 15.933594 15.945312c0 8.792969-7.148438 15.949219-15.933594 15.949219zm0-21.894531c-3.269531 0-5.929687 2.667969-5.929687 5.949219 0 3.277343 2.660156 5.945312 5.929687 5.945312 3.273438 0 5.933594-2.667969 5.933594-5.945312 0-3.28125-2.660156-5.949219-5.933594-5.949219zm0 0"/><path d="m139.5625 427.492188h-45.550781c-2.761719 0-5-2.238282-5-5v-14.277344c0-4.945313 4.019531-8.96875 8.960937-8.96875h37.625c4.941406 0 8.960938 4.023437 8.960938 8.96875v14.277344c.003906 2.761718-2.234375 5-4.996094 5zm-40.550781-10h35.546875v-8.246094h-35.546875zm36.589843-8.246094h.019532zm0 0"/></g></svg>