<svg height="512pt" viewBox="-84 0 512 512" width="512pt" xmlns="http://www.w3.org/2000/svg"><path d="m219.691406 269.992188-.058594-.027344-3.640624-1.792969c-5.773438-2.847656-9.425782-8.722656-9.425782-15.160156v-13.070313c-6.191406 3.003906-11.628906 5.277344-18.085937 6.921875-10.984375 2.796875-22.472657 2.742188-33.4375-.128906-6.183594-1.617187-11.453125-3.824219-17.421875-6.707031v12.984375c0 6.4375-3.65625 12.3125-9.425782 15.160156l-2.679687 1.320313-1.128906.554687 38.898437 37.273437c.640625.617188.863282 1.476563.734375 2.300782h15.988281c-.128906-.824219.09375-1.683594.730469-2.300782zm0 0" fill="#fcb275"/><path d="m124.492188 269.871094-16.902344 8.253906c-2.332032.816406-4.683594 1.589844-7.039063 2.335938l44.179688 45.285156c2.320312 1.753906 5.613281 1.347656 7.4375-.917969l11.300781-14.015625c.847656-1.054688.753906-2.585938-.222656-3.523438zm0 0" fill="#fc5d4c"/><path d="m237.792969 279.128906-17.996094-8.957031-39.09375 37.183594c-.980469.933593-1.085937 2.460937-.246094 3.519531l11.195313 14.101562c1.808594 2.28125 5.101562 2.710938 7.433594.972657l44.511718-44.953125c-1.9375-.617188-3.882812-1.207032-5.804687-1.867188zm0 0" fill="#fc5d4c"/><path d="m326.945312 417.96875h-53.4375v24.148438h53.4375c6.640626 0 12.074219-5.433594 12.074219-12.074219s-5.433593-12.074219-12.074219-12.074219zm0 0" fill="#fc5d4c"/><path d="m70.679688 417.96875h-53.605469c-6.640625 0-12.070313 5.433594-12.070313 12.074219s5.429688 12.070312 12.070313 12.070312h53.605469zm0 0" fill="#fc5d4c"/><path d="m331.4375 493.246094-2.859375-51.253906c-.535156.074218-1.078125.125-1.632813.125h-53.4375v64.882812h44.917969c7.480469 0 13.425781-6.285156 13.011719-13.753906zm0 0" fill="#fcb275"/><path d="m17.074219 442.117188c-.5 0-.984375-.042969-1.46875-.101563l-2.851563 51.230469c-.417968 7.46875 5.527344 13.75 13.007813 13.75h44.917969v-64.882813h-53.605469zm0 0" fill="#fcb275"/><path d="m243.46875 111.113281c2.097656 86.742188 1.375 56.824219 1.53125 63.292969 17.246094-.3125 31.136719-14.367188 31.136719-31.691406 0-18.03125-14.988281-32.160156-32.667969-31.601563zm0 0" fill="#fcb275"/><path d="m101.238281 111.125c-17.980469-.953125-33.355469 13.324219-33.355469 31.589844 0 17.347656 13.929688 31.425781 31.214844 31.695312 2.082032-74.78125 1.332032-40.046875 2.140625-63.285156zm0 0" fill="#fcb275"/><path d="m245.285156 187.488281c0 .023438.003906.042969.003906.0625-.003906-.085937-.003906-.121093-.003906-.0625zm0 0" fill="#fcb275"/><path d="m245.308594 188.300781c-.003906-.132812-.007813-.359375-.015625-.542969v.011719c.003906.128907.007812.300781.015625.53125zm0 0" fill="#fcb275"/><path d="m245.308594 188.363281c0-.007812 0-.011719 0-.019531-.003906-.082031-.007813-.285156-.015625-.574219 0-.003906 0-.011719 0-.015625 0-.042968 0-.074218 0-.121094-.003907-.066406-.003907-.117187-.003907-.144531-.089843-3.597656-.492187-19.625-2.007812-79.992187-.078125-3.054688-1.375-5.96875-3.625-8.039063-6.03125-5.558593-18.101562-18.46875-21.707031-35.621093-.746094-3.550782-5.074219-4.863282-7.746094-2.410157-9.929687 9.113281-31.582031 22.960938-69.515625 19.871094-9.054688-.738281-18.222656 1.167969-25.761719 6.234375-2.324219 1.558594-4.667969 3.460938-6.902343 5.773438-4.097657 4.25-6.417969 9.910156-6.691407 15.804687l-1.054687 22.96875-1.566406 56.332031c-1.863282 18.277344 7.652343 35.902344 24.066406 44.148438 13.613281 6.835937 21.5625 11.371094 32.265625 14.171875 10.964843 2.871093 22.453125 2.925781 33.4375.128906 10.003906-2.546875 17.527343-6.578125 29.277343-12.542969 17.230469-8.742187 27.945313-26.585937 27.550782-45.90625zm0 0" fill="#fcb275"/><path d="m233.550781 26.09375c-16-7.859375-37.011719-21.09375-61.539062-21.09375-24.53125 0-45.542969 13.234375-61.542969 21.09375-20.625 10.132812-33.164062 31.636719-31.898438 54.582031l1.71875 36.941407c5.789063-4.433594 13.121094-6.910157 20.949219-6.496094v.011718l.09375-2.023437c.269531-5.894531 2.59375-11.558594 6.691407-15.804687 2.234374-2.316407 4.578124-4.214844 6.902343-5.773438 7.539063-5.066406 16.707031-6.972656 25.761719-6.234375 37.933594 3.089844 59.585938-10.757813 69.515625-19.871094 2.671875-2.453125 7-1.140625 7.746094 2.410157 3.605469 17.152343 15.675781 30.066406 21.707031 35.621093 2.253906 2.070313 3.546875 4.984375 3.625 8.039063l.1875 3.613281c7.574219-.238281 14.644531 2.234375 20.265625 6.539063l1.714844-36.972657c1.265625-22.945312-11.273438-44.449219-31.898438-54.582031zm0 0" fill="#7c292e"/><path d="m152.265625 324.90625c-1.816406 2.269531-5.109375 2.6875-7.433594.945312l-44.347656-45.121093c-5.339844 1.722656-10.730469 3.28125-16.175781 4.648437l-39.765625 10.007813c-12.53125 3.15625-21.558594 14.09375-22.273438 26.996093l-5.324219 95.59375c.042969 0 .085938-.003906.128907-.003906h53.605469v89.03125h90.207031v-192.871094zm0 0" fill="#e04e36"/><path d="m326.945312 417.96875c.101563 0 .199219.011719.296876.015625l-5.320313-95.601563c-.722656-12.902343-9.746094-23.839843-22.277344-26.996093l-40.886719-10.289063-15.222656-4.371094-44.347656 45.121094c-2.324219 1.746094-5.617188 1.328125-7.433594-.945312l-8.621094-10.773438v192.871094h90.378907l-.003907-64.882812v-24.148438zm0 0" fill="#e04e36"/><path d="m180.503906 310.847656c-.292968-.367187-.429687-.792968-.5-1.226562h-15.988281c-.070313.433594-.210937.859375-.5 1.226562l-2.628906 3.28125v192.871094h22.246093v-192.871094zm0 0" fill="#fc5d4c"/><path d="m136.988281 442.992188h-41.304687c-2.390625 0-4.347656-1.957032-4.347656-4.351563v-47.304687c0-2.390626 1.957031-4.351563 4.347656-4.351563h41.304687c2.394531 0 4.351563 1.960937 4.351563 4.351563v47.304687c0 2.394531-1.957032 4.351563-4.351563 4.351563zm0 0" fill="#e8e6e6"/><path d="m136.988281 386.984375h-41.304687c-2.390625 0-4.347656 1.960937-4.347656 4.351563v15.652343h50.003906v-15.652343c0-2.390626-1.957032-4.351563-4.351563-4.351563zm0 0" fill="#1b87c9"/><path d="m128.339844 352.980469c0 6.628906-5.375 12.003906-12 12.003906-6.628906 0-12.003906-5.375-12.003906-12.003906 0-6.628907 5.375-12 12.003906-12 6.625 0 12 5.371093 12 12zm0 0" fill="#fcbd4c"/><g fill="#231f20"><path d="m273.507812 509.199219c-2.765624 0-5-2.238281-5-5v-110.667969c0-2.761719 2.234376-5 5-5 2.761719 0 5 2.238281 5 5v110.667969c0 2.761719-2.238281 5-5 5zm0 0"/><path d="m70.679688 509.199219c-2.761719 0-5-2.238281-5-5v-110.667969c0-2.761719 2.238281-5 5-5 2.761718 0 5 2.238281 5 5v110.667969c0 2.761719-2.238282 5-5 5zm0 0"/><path d="m189.738281 136.242188c-1.789062 0-3.523437-.960938-4.421875-2.652344-1.292968-2.441406-.367187-5.46875 2.070313-6.761719 3.128906-1.664063 7.855469-2.617187 12.976562-2.617187 5.121094 0 9.851563.953124 12.976563 2.617187 2.4375 1.296875 3.359375 4.324219 2.0625 6.765625-1.296875 2.433594-4.328125 3.359375-6.765625 2.0625-1.25-.667969-4.167969-1.445312-8.277344-1.445312-4.105469 0-7.027344.777343-8.285156 1.445312-.738281.398438-1.542969.585938-2.335938.585938zm0 0"/><path d="m132.621094 136.242188c-1.792969 0-3.519532-.960938-4.417969-2.652344-1.296875-2.4375-.375-5.464844 2.066406-6.761719 3.121094-1.664063 7.855469-2.617187 12.972657-2.617187 5.125 0 9.851562.953124 12.976562 2.617187 2.4375 1.296875 3.359375 4.324219 2.0625 6.765625-1.296875 2.433594-4.324219 3.359375-6.761719 2.0625-1.253906-.667969-4.171875-1.445312-8.28125-1.445312-4.105469 0-7.023437.777343-8.277343 1.445312-.746094.398438-1.550782.585938-2.339844.585938zm0 0"/><path d="m144.089844 156.742188c-3.316406 0-6-2.6875-6-6v-1.164063c0-3.3125 2.683594-6 6-6 3.3125 0 6 2.6875 6 6v1.164063c0 3.3125-2.6875 6-6 6zm0 0"/><path d="m199.78125 157.632812c-3.3125 0-6-2.6875-6-6v-1.164062c0-3.3125 2.6875-6 6-6 3.316406 0 6 2.6875 6 6v1.164062c0 3.3125-2.683594 6-6 6zm0 0"/><path d="m172.140625 212.371094c-9.109375 0-17.59375-4.511719-22.699219-12.066406-1.546875-2.289063-.945312-5.398438 1.34375-6.941407 2.285156-1.546875 5.398438-.949219 6.941406 1.34375 3.242188 4.796875 8.632813 7.664063 14.414063 7.664063s11.167969-2.867188 14.410156-7.664063c1.546875-2.292969 4.65625-2.890625 6.941407-1.34375 2.292968 1.542969 2.890624 4.652344 1.347656 6.941407-5.105469 7.554687-13.59375 12.066406-22.699219 12.066406zm0 0"/><path d="m116.335938 391.984375c-2.761719 0-5-2.238281-5-5v-22c0-2.761719 2.238281-5 5-5 2.761718 0 5 2.238281 5 5v22c0 2.761719-2.238282 5-5 5zm0 0"/><path d="m241.351562 379.984375h-22.003906c-2.761718 0-5-2.238281-5-5s2.238282-5 5-5h22.003906c2.761719 0 5 2.238281 5 5s-2.238281 5-5 5zm0 0"/><path d="m180.007812 314.621094h-15.992187c-1.464844 0-2.855469-.640625-3.804687-1.753906-.652344-.761719-1.050782-1.699219-1.164063-2.675782l-38.117187-36.53125c-1.179688-1.128906-1.730469-2.761718-1.484376-4.371094.25-1.613281 1.265626-3 2.726563-3.722656l3.808594-1.878906c4.09375-2.019531 6.636719-6.109375 6.636719-10.671875v-12.988281c0-1.722656.886718-3.324219 2.34375-4.238282 1.457031-.914062 3.28125-1.011718 4.835937-.261718 6.558594 3.171875 11.34375 5.019531 16.507813 6.371094 10.140624 2.652343 20.835937 2.695312 30.941406.121093 6.625-1.691406 12.152344-4.15625 17.140625-6.574219 1.546875-.75 3.375-.65625 4.835937.261719 1.460938.914063 2.34375 2.515625 2.34375 4.238281v13.070313c0 4.566406 2.542969 8.65625 6.640625 10.675781l3.636719 1.792969c1.460938.722656 2.511719 2.125 2.757812 3.738281.25 1.613282-.277343 3.253906-1.453124 4.386719l-38.179688 36.582031c-.109375.980469-.511719 1.914063-1.164062 2.679688-.945313 1.109375-2.335938 1.75-3.796876 1.75zm-12.460937-10h8.929687c.242188-.324219.507813-.628906.804688-.910156l33.949219-32.53125c-6.023438-4.035157-9.660157-10.757813-9.660157-18.164063v-5.304687c-3.574218 1.492187-7.472656 2.882812-11.851562 3.996093-11.746094 2.992188-24.175781 2.945313-35.941406-.136719-4.117188-1.078124-7.789063-2.386718-11.15625-3.785156v5.230469c0 7.445313-3.675782 14.203125-9.757813 18.230469l33.875 32.46875c.296875.277344.566407.582031.808594.90625zm0 0"/><path d="m148.070312 331.945312c-2.167968 0-4.359374-.683593-6.238281-2.09375-.203125-.152343-.390625-.316406-.566406-.496093l-44.34375-45.121094c-1.214844-1.238281-1.707031-3.015625-1.292969-4.699219.414063-1.683594 1.671875-3.035156 3.324219-3.566406 2.210937-.710938 4.421875-1.445312 6.613281-2.214844l16.609375-8.191406c1.886719-.929688 4.152344-.578125 5.671875.875l38.890625 37.273438c2.871094 2.75 3.160157 7.160156.675781 10.261718l-11.242187 14.054688c-2.058594 2.574218-5.058594 3.917968-8.101563 3.917968zm-.09375-10.03125c.132813.035157.289063-.015624.382813-.132812l9.886719-12.355469-34.792969-33.34375-13.730469 6.769531c-.03125.015626-.066406.03125-.097656.046876zm-40.460937-43.546874h.019531zm0 0"/><path d="m195.949219 331.945312c-3.042969 0-6.042969-1.34375-8.101563-3.917968l-11.246094-14.058594c-2.480468-3.101562-2.191406-7.507812.679688-10.257812l38.953125-37.328126c1.515625-1.453124 3.785156-1.804687 5.667969-.875l17.734375 8.746094c1.21875.40625 2.449219.789063 3.675781 1.171875l1.726562.535157c1.65625.523437 2.925782 1.875 3.347657 3.558593.417969 1.6875-.066407 3.472657-1.285157 4.714844l-44.347656 45.121094c-.179687.175781-.367187.34375-.566406.496093-1.882812 1.410157-4.070312 2.09375-6.238281 2.09375zm-10.175781-22.519531 9.882812 12.355469c.097656.117188.25.167969.382812.132812l38.40625-39.070312-13.824218-6.816406zm0 0"/><path d="m326.945312 447.117188h-53.4375c-2.765624 0-5-2.238282-5-5v-24.148438c0-2.761719 2.234376-5 5-5h53.4375c9.414063 0 17.074219 7.660156 17.074219 17.074219 0 9.414062-7.660156 17.074219-17.074219 17.074219zm-48.4375-10h48.4375c3.902344 0 7.074219-3.171876 7.074219-7.074219 0-3.902344-3.171875-7.074219-7.074219-7.074219h-48.4375zm0 0"/><path d="m70.679688 447.117188h-53.605469c-9.414063 0-17.074219-7.660157-17.074219-17.074219 0-9.414063 7.660156-17.074219 17.074219-17.074219h53.605469c2.761718 0 5 2.238281 5 5v24.148438c0 2.761718-2.238282 5-5 5zm-53.605469-24.148438c-3.898438 0-7.074219 3.171875-7.074219 7.074219 0 3.898437 3.175781 7.074219 7.074219 7.074219h48.605469v-14.148438zm0 0"/><path d="m318.429688 512h-44.921876c-2.761718 0-5-2.238281-5-5v-64.882812c0-1.328126.527344-2.597657 1.460938-3.539063.9375-.9375 2.210938-1.460937 3.539062-1.460937h53.4375c.324219 0 .636719-.035157.949219-.078126 1.394531-.191406 2.789063.203126 3.867188 1.089844 1.078125.890625 1.734375 2.1875 1.8125 3.582032l2.855469 51.253906c.277343 4.925781-1.515626 9.808594-4.902344 13.394531-3.394532 3.585937-8.164063 5.640625-13.097656 5.640625zm-39.921876-10h39.921876c2.226562 0 4.296874-.890625 5.832031-2.511719 1.53125-1.621093 2.304687-3.738281 2.183593-5.964843l-2.585937-46.40625h-45.351563zm0 0"/><path d="m70.679688 512h-44.917969c-4.9375 0-9.710938-2.054688-13.101563-5.640625-3.386718-3.582031-5.175781-8.464844-4.898437-13.390625l2.851562-51.230469c.078125-1.382812.722657-2.671875 1.785157-3.558593 1.0625-.886719 2.441406-1.296876 3.820312-1.125.285156.035156.566406.0625.855469.0625h53.609375c2.761718 0 5 2.238281 5 5v64.882812c-.003906 2.761719-2.242188 5-5.003906 5zm-50.351563-64.882812-2.585937 46.410156c-.121094 2.226562.652343 4.34375 2.1875 5.960937 1.53125 1.621094 3.601562 2.511719 5.832031 2.511719h39.917969v-54.882812zm0 0"/><path d="m245.003906 179.425781c-1.289062 0-2.523437-.503906-3.457031-1.390625-.363281-.347656-.671875-.746094-.914063-1.179687-.386718-.691407-.613281-1.480469-.632812-2.324219 0-.011719 0-.019531-.003906-.03125l-.257813-10.699219-1.269531-52.570312c-.066406-2.746094 2.097656-5.03125 4.84375-5.117188 10.050781-.308593 19.503906 3.359375 26.710938 10.347657 7.167968 6.945312 11.113281 16.269531 11.113281 26.253906 0 19.71875-15.925781 36.078125-35.59375 36.679687-.140625.015625-.28125.027344-.421875.03125-.042969 0-.078125 0-.117188 0zm3.59375-63.015625 1.269532 52.441406c12.097656-2.546874 21.269531-13.375 21.269531-26.132812 0-7.257812-2.863281-14.03125-8.070313-19.074219-4.035156-3.914062-9.050781-6.398437-14.46875-7.234375zm0 0"/><path d="m99.101562 179.410156c-.027343 0-.054687 0-.078124 0-19.929688-.3125-36.140626-16.773437-36.140626-36.695312 0-10.144532 4.050782-19.570313 11.40625-26.546875 7.285157-6.90625 17.199219-10.550781 27.214844-10.039063 2.71875.144532 4.824219 2.441406 4.730469 5.167969-.28125 8.050781-.375 9.257813-.46875 10.425781-.15625 1.914063-.300781 3.722656-1.667969 52.828125-.074218 2.710938-2.296875 4.859375-4.996094 4.859375zm-3.058593-63.109375c-5.546875.722657-10.703125 3.167969-14.871094 7.125-5.347656 5.066407-8.289063 11.917969-8.289063 19.289063 0 12.808594 9.214844 23.65625 21.371094 26.15625 1.230469-44.097656 1.371094-45.8125 1.539063-47.953125.058593-.710938.121093-1.484375.25-4.617188zm0 0"/><path d="m245.285156 192.550781c-2.710937 0-4.933594-2.167969-4.996094-4.890625-.0625-2.75 2.109376-5.125 4.859376-5.199218 2.734374-.105469 5.046874 2.113281 5.136718 4.867187.003906.054687.003906.109375.003906.160156v.0625c0 2.738281-2.207031 4.96875-4.945312 5-.019531 0-.039062 0-.058594 0zm0 0"/><path d="m245.300781 193.378906c-2.535156 0-4.691406-1.882812-4.960937-4.441406-.019532-.175781-.03125-.402344-.03125-.574219 0-2.726562 2.183594-4.957031 4.90625-5.007812 2.664062-.042969 4.988281 2.082031 5.089844 4.800781.101562 2.695312-1.949219 5.019531-4.636719 5.207031-.125.011719-.246094.015625-.367188.015625zm0 0"/><path d="m245.296875 193.203125c-2.691406 0-4.90625-2.050781-4.988281-4.757813l-.011719-.523437c-.085937-2.761719 2.082031-5.070313 4.84375-5.15625 2.789063-.042969 5.066406 2.074219 5.152344 4.832031l.007812.378906c.070313 2.757813-2.101562 5.148438-4.859375 5.222657-.050781.003906-.097656.003906-.144531.003906zm0 0"/><path d="m245.289062 192.640625c-2.648437 0-4.851562-2.066406-4.988281-4.730469-.003906-.070312-.007812-.210937-.011719-.304687 0-.019531 0-.039063 0-.054688 0-2.761719 2.238282-5 5-5 2.738282 0 4.957032 2.203125 5 4.925781.003907.054688.003907.109376.003907.160157 0 2.710937-2.160157 4.933593-4.871094 5.003906-.042969 0-.089844 0-.132813 0zm0-5.089844h.308594zm5 0h.019532zm0 0h.019532zm0 0"/><path d="m172.027344 253.914062c-6.136719 0-12.28125-.78125-18.25-2.34375-9.550782-2.5-16.976563-6.28125-27.257813-11.511718-1.878906-.957032-3.863281-1.964844-5.984375-3.03125-18.042968-9.0625-28.800781-28.710938-26.816406-48.933594l1.558594-56.152344 1.058594-23.058594c.332031-7.222656 3.207031-13.988281 8.089843-19.046874 2.316407-2.402344 4.914063-4.574219 7.707031-6.457032 8.066407-5.417968 18.34375-7.929687 28.957032-7.066406 36.34375 2.96875 56.785156-10.363281 65.726562-18.570312 2.574219-2.363282 6.234375-3.171876 9.558594-2.105469 3.328125 1.066406 5.746094 3.75 6.464844 7.167969 3.375 16.085937 15.25 28.417968 20.199218 32.972656 3.21875 2.960937 5.125 7.1875 5.234376 11.597656l2.007812 79.988281c.003906.042969.007812.230469.007812.269531l.015626.59375c.429687 21.1875-11.457032 40.996094-30.285157 50.550782l-2.507812 1.273437c-10.445313 5.316407-17.992188 9.15625-27.800781 11.65625-5.777344 1.472657-11.730469 2.207031-17.683594 2.207031zm-35.039063-167.769531c-7.152343 0-13.898437 1.921875-19.28125 5.539063-2.207031 1.484375-4.257812 3.199218-6.089843 5.097656-3.191407 3.308594-5.074219 7.769531-5.292969 12.5625l-1.054688 22.96875-1.5625 56.238281c-.003906.125-.011719.246094-.023437.371094-1.648438 16.1875 6.925781 31.929687 21.339844 39.167969 2.136718 1.074218 4.136718 2.09375 6.03125 3.054687 10.085937 5.132813 16.75 8.523438 25.253906 10.75 10.136718 2.652344 20.835937 2.695313 30.9375.121094 8.734375-2.226563 15.496094-5.667969 25.734375-10.878906l2.515625-1.277344c15.429687-7.832031 25.167968-24.058594 24.816406-41.347656 0-.035157-.003906-.117188-.003906-.152344l-.011719-.457031c-.003906-.042969-.003906-.222656-.003906-.269532l-.003907-.144531-2.007812-79.863281c-.042969-1.71875-.773438-3.351562-2.007812-4.488281-6.953126-6.398438-19.113282-19.746094-23.085938-37.667969-10.34375 9.335938-33.296875 24.039062-72.90625 20.8125-1.105469-.089844-2.207031-.136719-3.292969-.136719zm0 0"/><path d="m263.730469 122.648438c-1.078125 0-2.152344-.347657-3.039063-1.027344-4.890625-3.746094-10.996094-5.671875-17.066406-5.511719-2.6875.117187-5.007812-2.019531-5.148438-4.734375l-.191406-3.613281c-.046875-1.851563-.78125-3.488281-2.015625-4.625-6.949219-6.398438-19.113281-19.742188-23.082031-37.664063-10.347656 9.332032-33.296875 24.035156-72.910156 20.808594-8.363282-.679688-16.375 1.238281-22.570313 5.402344-2.207031 1.484375-4.257812 3.199218-6.089843 5.097656-3.191407 3.308594-5.074219 7.769531-5.292969 12.5625l-.09375 2.019531c-.121094 2.714844-2.359375 4.8125-5.105469 4.773438-.164062-.003907-.324219-.015625-.480469-.035157-6.203125-.253906-12.359375 1.691407-17.316406 5.488282-1.472656 1.128906-3.457031 1.347656-5.144531.5625-1.691406-.785156-2.800782-2.441406-2.886719-4.300782l-1.71875-36.941406c-1.375-24.976562 12.238281-48.273437 34.6875-59.300781 2.457031-1.207031 5.039063-2.542969 7.726563-3.9375 15.1875-7.875 34.085937-17.671875 56.019531-17.671875 21.929687 0 40.828125 9.796875 56.015625 17.664062 2.691406 1.398438 5.269531 2.734376 7.730468 3.941407 22.449219 11.027343 36.0625 34.324219 34.683594 59.34375l-1.714844 36.929687c-.085937 1.859375-1.195312 3.515625-2.882812 4.300782-.675781.316406-1.394531.46875-2.113281.46875zm-15.515625-16.355469c3.761718.390625 7.445312 1.367187 10.90625 2.878906l1.335937-28.730469c1.15625-21.050781-10.269531-40.601562-29.109375-49.863281-2.523437-1.234375-5.164062-2.605469-7.921875-4.035156-14.222656-7.367188-31.921875-16.542969-51.414062-16.542969-19.492188 0-37.195313 9.175781-51.417969 16.542969-2.757812 1.429687-5.398438 2.800781-7.917969 4.039062-18.84375 9.257813-30.269531 28.8125-29.113281 49.816407l1.339844 28.742187c3.695312-1.609375 7.640625-2.605469 11.675781-2.9375.839844-6.207031 3.570313-11.9375 7.847656-16.367187 2.316407-2.402344 4.914063-4.574219 7.707031-6.457032 8.066407-5.417968 18.34375-7.929687 28.957032-7.066406 36.34375 2.96875 56.785156-10.363281 65.726562-18.570312 2.574219-2.363282 6.234375-3.171876 9.558594-2.105469 3.328125 1.066406 5.746094 3.75 6.464844 7.167969 3.375 16.085937 15.25 28.417968 20.199218 32.972656 2.957032 2.71875 4.808594 6.503906 5.175782 10.515625zm0 0"/><path d="m160.886719 512h-90.207031c-2.761719 0-5-2.238281-5-5v-84.03125h-48.480469c-.105469.007812-.183594.007812-.253907.007812-1.355468 0-2.652343-.546874-3.597656-1.527343-.964844-1-1.472656-2.359375-1.394531-3.75l5.324219-95.597657c.847656-15.167968 11.3125-27.855468 26.046875-31.5625l39.765625-10.007812c5.191406-1.308594 10.53125-2.84375 15.863281-4.5625 1.792969-.578125 3.773437-.09375 5.101563 1.253906l43.925781 44.691406c.128906.035157.285156-.015624.382812-.132812l8.621094-10.773438c1.328125-1.664062 3.566406-2.292968 5.558594-1.597656 2.003906.703125 3.34375 2.597656 3.34375 4.71875v192.871094c0 2.761719-2.238281 5-5 5zm-85.207031-10h80.207031v-173.632812c-3.566407 4.105468-9.652344 4.78125-14.050781 1.484374-.203126-.152343-.390626-.316406-.566407-.496093l-42.199219-42.933594c-4.554687 1.410156-9.097656 2.6875-13.542968 3.804687l-39.761719 10.007813c-10.46875 2.636719-17.90625 11.648437-18.503906 22.421875l-5.035157 90.3125h48.453126c2.761718 0 5 2.238281 5 5zm0 0"/><path d="m273.507812 512h-90.375c-2.761718 0-5-2.238281-5-5v-192.871094c0-2.121094 1.339844-4.015625 3.34375-4.71875 1.996094-.699218 4.234376-.0625 5.558594 1.597656l8.621094 10.773438c.097656.121094.253906.167969.382812.136719l43.929688-44.691407c1.285156-1.304687 3.183594-1.808593 4.945312-1.300781l15.222657 4.367188 40.726562 10.25c14.734375 3.710937 25.203125 16.394531 26.046875 31.5625l5.324219 95.605469c.078125 1.390624-.425781 2.746093-1.390625 3.75-.964844 1-2.292969 1.542968-3.699219 1.527343-.0625 0-.207031-.007812-.308593-.015625h-48.328126v84.03125c0 1.324219-.527343 2.597656-1.464843 3.535156-.9375.933594-2.207031 1.460938-3.535157 1.460938zm-85.375-10h80.375v-84.03125c0-2.761719 2.234376-5 5-5h48.449219l-5.027343-90.308594c-.605469-10.777344-8.042969-19.789062-18.507813-22.425781l-40.886719-10.289063-12.519531-3.589843-42.261719 43c-.179687.175781-.367187.34375-.566406.496093-4.398438 3.296876-10.484375 2.621094-14.054688-1.484374zm138.8125-79.03125h.019532zm0 0"/><path d="m183.132812 512h-22.246093c-2.761719 0-5-2.238281-5-5v-192.871094c0-1.136718.386719-2.238281 1.097656-3.125l2.230469-2.789062c.617187-2.105469 2.554687-3.59375 4.800781-3.59375h15.992187c2.246094 0 4.183594 1.488281 4.796876 3.597656l2.230468 2.789062c.707032.882813 1.09375 1.984376 1.09375 3.121094v192.871094c.003906 2.761719-2.238281 5-4.996094 5zm-17.246093-10h12.242187v-186.117188l-1.007812-1.261718h-10.226563l-1.007812 1.261718zm-6.277344-194.277344s0 .003906-.003906.003906zm0 0"/><path d="m136.988281 447.992188h-41.304687c-5.15625 0-9.347656-4.195313-9.347656-9.351563v-47.304687c0-5.15625 4.191406-9.351563 9.347656-9.351563h41.304687c5.15625 0 9.351563 4.195313 9.351563 9.351563v47.304687c0 5.15625-4.195313 9.351563-9.351563 9.351563zm-40.652343-10h40.003906v-46.007813h-40.003906zm0 0"/><path d="m141.339844 411.988281h-50.003906c-2.765626 0-5-2.238281-5-5v-15.652343c0-5.15625 4.191406-9.351563 9.347656-9.351563h41.304687c5.15625 0 9.351563 4.195313 9.351563 9.351563v15.652343c0 2.761719-2.238282 5-5 5zm-45.003906-10h40.003906v-10.003906h-40.003906zm40.652343-10.003906h.023438zm0 0"/><path d="m116.335938 369.984375c-9.375 0-17-7.625-17-17.003906 0-9.371094 7.625-17 17-17s17.003906 7.628906 17.003906 17c0 9.378906-7.628906 17.003906-17.003906 17.003906zm0-24.003906c-3.859376 0-7 3.140625-7 7 0 3.863281 3.140624 7.003906 7 7.003906 3.863281 0 7.003906-3.140625 7.003906-7.003906 0-3.859375-3.140625-7-7.003906-7zm0 0"/></g></svg>