<svg height="512pt" viewBox="-90 0 512 512" width="512pt" xmlns="http://www.w3.org/2000/svg"><path d="m82.816406 91.324219c-4.34375 0-8.355468-2.832031-9.660156-7.207031-1.589844-5.335938 1.449219-10.953126 6.785156-12.542969 25.824219-7.695313 55.433594-11.761719 85.621094-11.761719 30.179688 0 59.816406 4.066406 85.691406 11.761719 5.339844 1.585937 8.382813 7.203125 6.792969 12.539062-1.585937 5.339844-7.191406 8.382813-12.539063 6.792969-24.039062-7.144531-51.683593-10.925781-79.945312-10.925781-28.265625 0-55.878906 3.78125-79.863281 10.925781-.957031.28125-1.929688.417969-2.882813.417969zm0 0" fill="#515050"/><path d="m81.765625 71.074219c22.339844-6.46875 47.402344-10.265625 73.191406-11.082031 3.519531-.117188 7.058594-.179688 10.605469-.179688s7.082031.0625 10.605469.179688c25.820312.816406 50.9375 4.621093 73.347656 11.105468 3.898437-.441406 7.34375-3.152344 8.53125-7.152344 1.589844-5.335937-1.453125-10.953124-6.792969-12.539062-25.875-7.695312-55.511718-11.761719-85.691406-11.761719-30.1875 0-59.796875 4.070313-85.621094 11.761719-5.335937 1.59375-8.375 7.207031-6.785156 12.542969 1.199219 4.019531 4.683594 6.707031 8.609375 7.125zm0 0" fill="#515050"/><path d="m79.941406 51.410156c25.824219-7.695312 55.433594-11.761718 85.621094-11.761718 30.179688 0 59.816406 4.066406 85.691406 11.761718.355469.105469.667969.273438 1.003906.410156-21.574218-28.785156-52.40625-46.820312-86.65625-46.820312s-65.078124 18.035156-86.652343 46.816406c.328125-.136718.640625-.300781.992187-.40625zm0 0" fill="#fc5d4c"/><path d="m77.132812 283.652344c7.902344-1.988282 15.707032-4.347656 23.386719-7.066406l10.566407-5.210938c-.25.859375.0625 1.808594.871093 2.289062l20.4375 12.261719c10.183594 6.109375 21.835938 9.335938 33.710938 9.335938s23.53125-3.226563 33.714843-9.335938l20.4375-12.261719c.640626-.382812.949219-1.0625.945313-1.753906l10.539063 5.195313c6.976562 2.375 14.050781 4.460937 21.199218 6.261719l31.210938 7.855468c-3.457032-125.109375-27.574219-189.457031-32.15625-200.609375-2.007813.773438-4.261719.953125-6.484375.289063-24.039063-7.144532-51.683594-10.921875-79.949219-10.921875s-55.875 3.777343-79.859375 10.921875c-.960937.289062-1.929687.421875-2.886719.421875-1.253906 0-2.46875-.257813-3.609375-.699219-4.597656 11.183594-28.699219 75.535156-32.15625 200.601562zm0 0" fill="#fc5d4c"/><path d="m165.601562 249.9375c-41.257812 0-75.015624-41.824219-75.015624-83.082031v113.011719c3.332031-1.03125 6.644531-2.117188 9.933593-3.28125l10.566407-5.210938c-.25.859375.0625 1.808594.871093 2.289062l20.4375 12.261719c10.183594 6.109375 21.835938 9.335938 33.710938 9.335938s23.53125-3.226563 33.714843-9.335938l20.4375-12.261719c.640626-.382812.949219-1.0625.945313-1.753906l10.539063 5.195313c2.941406 1 5.90625 1.921875 8.878906 2.820312v-113.066406c-.003906 41.257813-33.761719 83.078125-75.019532 83.078125zm0 0" fill="#e04e36"/><path d="m326.183594 493.136719-9.59375-172.191407c-.722656-13.003906-9.816406-24.023437-22.449219-27.207031l-41.203125-10.371093c-7.148438-1.800782-14.222656-3.886719-21.203125-6.261719l-10.539063-5.195313c.007813.691406-.304687 1.371094-.945312 1.753906l-20.4375 12.261719c-10.183594 6.109375-21.835938 9.335938-33.710938 9.335938s-23.527343-3.226563-33.714843-9.335938l-20.4375-12.261719c-.808594-.480468-1.117188-1.429687-.867188-2.289062l-10.566406 5.210938c-7.683594 2.71875-15.484375 5.078124-23.386719 7.066406l-40.074218 10.085937c-12.632813 3.183594-21.726563 14.203125-22.449219 27.207031l-9.59375 172.195313c-.421875 7.523437 5.570312 13.859375 13.109375 13.859375h294.945312c7.546875 0 13.539063-6.335938 13.117188-13.863281zm0 0" fill="#e8e6e6"/><path d="m129.703125 258.953125 30.503906 15.25c3.5625 1.78125 5.8125 5.421875 5.8125 9.40625 0-3.984375 2.25-7.625 5.8125-9.40625l30.441407-15.21875c-1.277344-2.410156-2.015626-5.117187-2.015626-7.949219v-11.902344c-10.566406 6.777344-22.632812 10.804688-35.429687 10.804688-12.246094 0-23.820313-3.707031-34.054687-9.964844v11.0625c0 2.699219-.671876 5.289063-1.835938 7.617188.25.105468.511719.171875.765625.300781zm0 0" fill="#fcb275"/><path d="m231.183594 110.125c-20.960938-6.726562-42.941406-10.394531-65.582032-10.394531-22.640624 0-44.621093 3.667969-65.578124 10.394531-5.648438 1.8125-9.4375 7.128906-9.4375 13.058594v43.667968c0 41.257813 33.753906 83.085938 75.015624 83.085938 41.261719 0 75.015626-41.828125 75.015626-83.085938v-43.667968c0-5.929688-3.789063-11.246094-9.433594-13.058594zm0 0" fill="#fcb275"/><path d="m218.21875 224.265625c.40625-9.3125-1.210938-42.378906-44.496094-43.519531-4.46875-.117188-8.121094 3.347656-8.121094 7.8125v5.136718c0 2.558594 2.066407 4.613282 4.625 4.621094 11.128907.035156 38.695313 2.535156 41.519532 26.308594.214844 1.78125 1.742187 3.035156 3.421875 2.914062 1.042969-1.0625 2.0625-2.152343 3.050781-3.273437zm0 0" fill="#7c292e"/><path d="m165.601562 188.558594c0-4.464844-3.652343-7.929688-8.117187-7.8125-43.285156 1.140625-44.90625 34.210937-44.5 43.523437.988281 1.121094 2.007813 2.207031 3.050781 3.273438 1.679688.117187 3.207032-1.136719 3.421875-2.917969 2.824219-23.769531 30.394531-26.273438 41.519531-26.304688 2.558594-.007812 4.625-2.066406 4.625-4.625zm0 0" fill="#7c292e"/><path d="m227.203125 211.425781s-15.453125 15.269531-31.585937 15.269531c-7.0625 0-9.875.773438-12.496094 1.984376-11.238282 5.179687-24.265625 5.179687-35.503906 0-2.621094-1.210938-5.429688-1.984376-12.496094-1.984376-16.09375 0-31.503906-15.1875-31.578125-15.261718 13.527343 22.242187 36.332031 38.503906 62.058593 38.503906 25.648438 0 48.390626-16.167969 61.9375-38.3125zm0 0" fill="#7c292e"/><path d="m220.90625 270.824219-5.5-8.375c-2.816406-4.289063-8.394531-5.792969-12.984375-3.496094l-30.503906 15.25c-3.5625 1.78125-5.8125 5.421875-5.8125 9.40625v11.652344c11.875 0 23.527343-3.226563 33.710937-9.335938l20.4375-12.261719c.988282-.589843 1.28125-1.878906.652344-2.839843zm0 0" fill="#e8e6e6"/><path d="m111.304688 270.824219 5.5-8.375c2.816406-4.289063 8.394531-5.792969 12.984374-3.496094l30.503907 15.25c3.5625 1.78125 5.816406 5.421875 5.816406 9.40625v11.652344c-11.878906 0-23.53125-3.226563-33.714844-9.335938l-20.4375-12.261719c-.988281-.589843-1.28125-1.878906-.652343-2.839843zm0 0" fill="#e8e6e6"/><g fill="#231f20"><path d="m248.40625 96.328125c-1.445312 0-2.898438-.207031-4.324219-.632813-23.585937-7.007812-50.734375-10.714843-78.523437-10.714843-27.785156 0-54.90625 3.707031-78.433594 10.714843-1.40625.417969-2.855469.628907-4.308594.628907-6.617187 0-12.5625-4.429688-14.453125-10.777344-2.371093-7.96875 2.179688-16.386719 10.148438-18.761719 26.28125-7.832031 56.378906-11.972656 87.046875-11.972656 30.664062 0 60.789062 4.140625 87.121094 11.96875 3.863281 1.148438 7.046874 3.730469 8.964843 7.273438 1.917969 3.542968 2.34375 7.625 1.191407 11.484374-1.144532 3.863282-3.726563 7.046876-7.265626 8.964844-2.238281 1.210938-4.6875 1.824219-7.164062 1.824219zm-82.847656-21.351563c28.738281 0 56.878906 3.851563 81.375 11.132813 1.300781.386719 2.679687.25 3.871094-.398437 1.191406-.648438 2.0625-1.722657 2.449218-3.023438.386719-1.300781.246094-2.675781-.402344-3.871094-.644531-1.191406-1.71875-2.0625-3.019531-2.449218-25.421875-7.558594-54.5625-11.554688-84.269531-11.554688-29.710938 0-58.828125 3.996094-84.191406 11.554688-2.683594.800781-4.222656 3.640624-3.421875 6.324218.777343 2.609375 3.664062 4.210938 6.328125 3.417969 24.433594-7.28125 52.542968-11.132813 81.28125-11.132813zm0 0"/><path d="m249.515625 76.097656c-.472656 0-.941406-.066406-1.390625-.199218-21.90625-6.339844-46.839844-10.109376-72.117188-10.910157-6.976562-.230469-13.925781-.230469-20.882812 0-25.242188.796875-50.125 4.5625-71.972656 10.886719-.621094.179688-1.269532.238281-1.917969.167969-6.082031-.644531-11.128906-4.832031-12.867187-10.664063-2.375-7.96875 2.179687-16.386718 10.148437-18.761718 26.28125-7.832032 56.378906-11.96875 87.046875-11.96875 30.660156 0 60.785156 4.136718 87.121094 11.96875 3.859375 1.148437 7.042968 3.730468 8.960937 7.273437s2.34375 7.621094 1.195313 11.484375c-1.726563 5.8125-6.738282 10.011719-12.765625 10.691406-.1875.019532-.375.03125-.558594.03125zm-83.957031-21.285156c3.558594 0 7.183594.0625 10.773437.179688 25.652344.8125 51.019531 4.605468 73.433594 10.972656 1.65625-.46875 2.984375-1.753906 3.484375-3.445313.390625-1.300781.246094-2.675781-.398438-3.871093-.648437-1.191407-1.722656-2.0625-3.023437-2.449219-25.421875-7.558594-54.5625-11.554688-84.269531-11.554688-29.710938 0-58.824219 3.996094-84.191406 11.554688-2.683594.796875-4.222657 3.636719-3.421876 6.324219.503907 1.691406 1.851563 2.96875 3.535157 3.425781 22.367187-6.363281 47.683593-10.148438 73.316406-10.960938 3.582031-.113281 7.203125-.175781 10.761719-.175781zm0 0"/><path d="m252.253906 56.820312c-.644531 0-1.300781-.125-1.925781-.386718l-.621094-.273438c-25.300781-7.515625-54.4375-11.511718-84.148437-11.511718-29.671875 0-58.75 3.984374-84.097656 11.527343l-.589844.257813c-2.082032.875-4.484375.238281-5.871094-1.542969-1.382812-1.777344-1.40625-4.265625-.054688-6.070313 23.253907-31.027343 56.296876-48.820312 90.65625-48.820312 34.359376 0 67.402344 17.792969 90.65625 48.820312 1.351563 1.804688 1.328126 4.292969-.054687 6.070313-.972656 1.246094-2.441406 1.929687-3.949219 1.929687zm-86.695312-22.171874c25.085937 0 49.820312 2.773437 72.40625 8.066406-20.21875-20.957032-45.910156-32.714844-72.363282-32.714844-26.449218 0-52.140624 11.753906-72.355468 32.707031 22.539062-5.292969 47.238281-8.058593 72.3125-8.058593zm0 0"/><path d="m166.105469 300.261719c-12.78125 0-25.324219-3.476563-36.285157-10.050781l-20.4375-12.257813c-.046874-.027344-.097656-.058594-.144531-.089844l-6.507812 3.207031c-.175781.085938-.355469.164063-.539063.230469-7.796875 2.757813-15.816406 5.183594-23.835937 7.203125l-30.082031 7.570313c-1.515626.382812-3.125.035156-4.347657-.945313-1.222656-.980468-1.914062-2.476562-1.871093-4.039062 3.476562-125.695313 27.703124-190.625 32.527343-202.363282 1.035157-2.519531 3.894531-3.746093 6.425781-2.765624 1.160157.445312 2.226563.460937 3.269532.152343 24.4375-7.285156 52.546875-11.132812 81.285156-11.132812s56.878906 3.851562 81.375 11.132812c1.316406.394531 2.503906.128907 3.257812-.164062 2.535157-.976563 5.390626.25 6.425782 2.765625 4.820312 11.738281 29.050781 76.65625 32.527344 202.375.042968 1.5625-.648438 3.058594-1.867188 4.039062-1.222656.980469-2.832031 1.328125-4.347656.945313l-31.214844-7.855469c-7.25-1.824219-14.515625-3.96875-21.589844-6.375-.207031-.070312-.40625-.152344-.601562-.25l-7.003906-3.453125-20.128907 12.074219c-10.960937 6.570312-23.507812 10.046875-36.289062 10.046875zm-50.148438-30.027344 19.007813 11.402344c9.40625 5.640625 20.171875 8.625 31.140625 8.625s21.738281-2.984375 31.140625-8.625l19.3125-11.582031c.386718-.96875 1.070312-1.808594 1.980468-2.378907 1.46875-.921875 3.320313-1.019531 4.875-.25l10.246094 5.050781c6.71875 2.277344 13.617188 4.3125 20.5 6.042969l24.792969 6.242188c-3.730469-109.808594-23.324219-170.523438-30.089844-188.457031-1.609375.054687-3.210937-.144532-4.777343-.609376-23.585938-7.007812-50.734376-10.714843-78.519532-10.714843s-54.910156 3.707031-78.433594 10.714843c-1.5625.460938-3.171874.667969-4.785156.621094-6.769531 17.9375-26.359375 78.671875-30.089844 188.445313l23.660157-5.957031c7.625-1.917969 15.246093-4.214844 22.660156-6.832032l10.304687-5.082031c1.773438-.875 3.90625-.617187 5.421876.65625.839843.707031 1.410156 1.65625 1.652343 2.6875zm-38.824219 13.417969h.019532zm0 0"/><path d="m166.105469 300.261719c-12.78125 0-25.324219-3.476563-36.285157-10.050781l-20.4375-12.257813c-.050781-.027344-.097656-.058594-.148437-.089844l-6.503906 3.207031c-.175781.085938-.355469.164063-.542969.230469-3.144531 1.113281-6.457031 2.207031-10.125 3.339844-1.511719.472656-3.164062.195313-4.445312-.75-1.277344-.941406-2.035157-2.4375-2.035157-4.023437v-113.011719c0-2.761719 2.238281-5 5-5 2.765625 0 5 2.238281 5 5 0 44.691406 36.964844 78.082031 70.019531 78.082031 33.046876 0 70.011719-33.390625 70.015626-78.078125 0-2.761719 2.238281-5 5-5 2.761718 0 5 2.238281 5 5v113.066406c0 1.582031-.75 3.070313-2.019532 4.015625-1.273437.941406-2.910156 1.226563-4.429687.769532-2.660157-.804688-5.8125-1.773438-9.042969-2.871094-.207031-.070313-.40625-.152344-.601562-.25l-7.003907-3.453125-20.128906 12.074219c-10.957031 6.574218-23.503906 10.050781-36.285156 10.050781zm-50.148438-30.027344 19.007813 11.402344c9.40625 5.640625 20.171875 8.625 31.140625 8.625s21.738281-2.984375 31.140625-8.625l19.3125-11.582031c.386718-.96875 1.070312-1.808594 1.980468-2.375 1.46875-.925782 3.316407-1.019532 4.875-.253907l10.242188 5.050781c.660156.222657 1.3125.441407 1.960938.652344v-66.070312c-13.378907 26.625-39.050782 47.878906-70.015626 47.878906-30.960937 0-56.632812-21.257812-70.015624-47.878906v65.941406c1.019531-.34375 2.011718-.6875 2.988281-1.03125l10.300781-5.078125c1.777344-.875 3.90625-.621094 5.425781.652344.84375.710937 1.414063 1.660156 1.65625 2.691406zm0 0"/><path d="m165.601562 219.921875c-8.921874 0-17.234374-4.417969-22.234374-11.820313-1.546876-2.289062-.945313-5.394531 1.34375-6.941406 2.289062-1.542968 5.398437-.945312 6.941406 1.34375 3.140625 4.644532 8.351562 7.417969 13.949218 7.417969 5.59375 0 10.804688-2.773437 13.945313-7.417969 1.542969-2.289062 4.652344-2.890625 6.941406-1.34375 2.289063 1.546875 2.890625 4.652344 1.34375 6.941406-4.996093 7.402344-13.308593 11.820313-22.230469 11.820313zm0 0"/><path d="m203.160156 142.15625c-.792968 0-1.597656-.1875-2.34375-.585938-1.179687-.625-3.941406-1.359374-7.839844-1.359374-3.648437 0-6.566406.683593-7.835937 1.359374-2.4375 1.300782-5.46875.375-6.761719-2.0625-1.296875-2.441406-.375-5.46875 2.066406-6.765624 3.023438-1.605469 7.589844-2.53125 12.53125-2.53125 4.941407 0 9.507813.921874 12.535157 2.53125 2.4375 1.296874 3.363281 4.324218 2.066406 6.761718-.894531 1.691406-2.628906 2.652344-4.417969 2.652344zm0 0"/><path d="m128.042969 142.15625c-1.789063 0-3.519531-.960938-4.417969-2.652344-1.296875-2.4375-.371094-5.464844 2.070312-6.761718 3.023438-1.609376 7.589844-2.53125 12.53125-2.53125 4.941407 0 9.511719.921874 12.535157 2.53125 2.4375 1.296874 3.363281 4.324218 2.066406 6.765624-1.296875 2.4375-4.324219 3.363282-6.761719 2.0625-1.273437-.675781-4.191406-1.359374-7.839844-1.359374-3.898437 0-6.660156.734374-7.839843 1.359374-.746094.398438-1.550781.585938-2.34375.585938zm0 0"/><path d="m139.039062 161.847656c-3.316406 0-6-2.6875-6-6v-1.113281c0-3.3125 2.683594-6 6-6 3.3125 0 6 2.6875 6 6v1.113281c0 3.3125-2.6875 6-6 6zm0 0"/><path d="m192.417969 162.703125c-3.3125 0-6-2.6875-6-6v-1.113281c0-3.316406 2.6875-6 6-6 3.316406 0 6 2.683594 6 6v1.113281c0 3.3125-2.683594 6-6 6zm0 0"/><path d="m267.804688 509.179688c-2.761719 0-5-2.238282-5-5v-111.53125c0-2.761719 2.238281-5 5-5 2.761718 0 5 2.238281 5 5v111.53125c0 2.761718-2.238282 5-5 5zm0 0"/><path d="m63.398438 509.179688c-2.761719 0-5-2.238282-5-5v-111.53125c0-2.761719 2.238281-5 5-5 2.761718 0 5 2.238281 5 5v111.53125c0 2.761718-2.238282 5-5 5zm0 0"/><path d="m313.074219 512h-294.945313c-4.960937 0-9.761718-2.066406-13.171875-5.671875-3.410156-3.605469-5.207031-8.511719-4.9296872-13.464844l9.5937502-172.199219c.847656-15.269531 11.386718-28.039062 26.21875-31.773437l40.074218-10.085937c7.625-1.917969 15.246094-4.214844 22.660157-6.832032l10.304687-5.082031c1.773438-.875 3.90625-.617187 5.421875.65625.84375.707031 1.414063 1.65625 1.65625 2.6875l19.007813 11.402344c9.40625 5.640625 20.171875 8.625 31.140625 8.625s21.738281-2.984375 31.140625-8.625l19.3125-11.585938c.386718-.964843 1.074218-1.808593 1.984375-2.375 1.46875-.925781 3.3125-1.019531 4.867187-.25l10.246094 5.050781c6.722656 2.277344 13.617188 4.308594 20.503906 6.042969l41.207032 10.371094c14.832031 3.734375 25.367187 16.5 26.21875 31.773437l9.589843 172.195313c.277344 4.953125-1.519531 9.863281-4.929687 13.464844-3.410156 3.609375-8.210938 5.675781-13.171875 5.675781zm-203.839844-234.136719-6.503906 3.207031c-.175781.085938-.355469.164063-.542969.226563-7.796875 2.761719-15.8125 5.183594-23.832031 7.207031l-40.074219 10.085938c-10.566406 2.65625-18.074219 11.753906-18.679688 22.628906l-9.59375 172.195312c-.121093 2.257813.660157 4.398438 2.210938 6.039063 1.554688 1.640625 3.648438 2.542969 5.90625 2.542969h294.945312c2.257813 0 4.355469-.902344 5.910157-2.542969 1.550781-1.640625 2.335937-3.785156 2.210937-6.039063l-9.589844-172.191406c-.605468-10.878906-8.113281-19.976562-18.679687-22.632812l-41.203125-10.375c-7.253906-1.824219-14.515625-3.96875-21.589844-6.375-.207031-.070313-.40625-.152344-.601562-.25l-7.003906-3.453125-20.132813 12.074219c-10.957031 6.574218-23.503906 10.050781-36.285156 10.050781s-25.324219-3.476563-36.285157-10.050781l-20.4375-12.257813c-.050781-.03125-.097656-.0625-.148437-.089844zm0 0"/><path d="m166.105469 507.964844c-2.761719 0-5-2.238282-5-5v-207.703125c0-2.765625 2.238281-5 5-5s5 2.234375 5 5v207.703125c0 2.761718-2.238281 5-5 5zm0 0"/><path d="m166.019531 288.609375c-2.765625 0-5-2.238281-5-5 0-2.101563-1.167969-3.992187-3.050781-4.933594l-30.386719-15.191406c-.222656-.082031-.375-.136719-.527343-.199219-1.292969-.523437-2.308594-1.5625-2.800782-2.871094-.496094-1.304687-.417968-2.757812.207032-4.003906.867187-1.730468 1.308593-3.539062 1.308593-5.375v-11.0625c0-1.808594.976563-3.476562 2.554688-4.363281s3.507812-.847656 5.054687.097656c10.015625 6.125 20.597656 9.230469 31.445313 9.230469 11.199219 0 22.515625-3.460938 32.730469-10.015625 1.542968-.984375 3.496093-1.054687 5.097656-.179687 1.605468.878906 2.601562 2.5625 2.601562 4.390624v11.902344c0 1.925782.484375 3.8125 1.433594 5.609375.628906 1.191407.753906 2.582031.34375 3.867188-.414062 1.28125-1.324219 2.34375-2.527344 2.945312l-30.441406 15.21875c-1.878906.941407-3.046875 2.832031-3.046875 4.933594.003906 2.761719-2.234375 5-4.996094 5zm-30.851562-32.511719 27.273437 13.632813c1.324219.664062 2.523438 1.492187 3.578125 2.460937 1.050781-.964844 2.253907-1.796875 3.578125-2.460937l26.382813-13.191407c-.476563-1.808593-.722657-3.664062-.722657-5.503906v-3.351562c-9.722656 4.765625-20.097656 7.253906-30.429687 7.253906-9.976563 0-19.714844-2.214844-29.054687-6.59375v2.691406c-.003907 1.710938-.203126 3.40625-.605469 5.0625zm-7.710938 7.324219h.003907s0 0-.003907 0zm0 0"/><path d="m165.601562 254.9375c-45.796874 0-80.015624-46.503906-80.015624-88.082031v-43.671875c0-8.179688 5.1875-15.339844 12.90625-17.820313 43.984374-14.105469 90.238281-14.105469 134.21875 0 7.722656 2.476563 12.910156 9.640625 12.910156 17.820313v43.671875c-.003906 41.578125-34.222656 88.082031-80.019532 88.082031zm0-150.203125c-21.5 0-43.054687 3.414063-64.054687 10.152344-3.566406 1.144531-5.960937 4.480469-5.960937 8.296875v43.671875c0 44.691406 36.964843 78.082031 70.015624 78.082031 33.050782 0 70.019532-33.394531 70.019532-78.082031v-43.671875c0-3.820313-2.398438-7.15625-5.964844-8.300782-21.003906-6.734374-42.550781-10.148437-64.054688-10.148437zm0 0"/><path d="m214.941406 232.546875c-4.132812 0-7.65625-3.117187-8.160156-7.332031-2.339844-19.675782-26.355469-21.867188-36.570312-21.898438-5.300782-.011718-9.609376-4.332031-9.609376-9.621094v-5.136718c0-3.488282 1.367188-6.742188 3.847657-9.160156 2.511719-2.445313 5.882812-3.722657 9.402343-3.652344 16.515626.4375 29.238282 5.316406 37.808594 14.507812 11.246094 12.058594 11.824219 27.957032 11.550782 34.230469-.050782 1.140625-.488282 2.230469-1.242188 3.085937-1.046875 1.1875-2.125 2.335938-3.226562 3.464844-.855469.871094-2 1.40625-3.21875 1.492188-.195313.015625-.390626.019531-.582032.019531zm3.277344-8.28125h.019531zm-47.617188-30.945313c19.3125.128907 33.679688 6.199219 40.980469 16.804688-1.28125-4.386719-3.488281-9.03125-7.234375-13.050781-6.671875-7.15625-17.023437-10.964844-30.757812-11.332031-.820313-.015626-1.597656.273437-2.160156.816406-.375.371094-.828126 1.011718-.828126 2zm0 0"/><path d="m116.265625 232.546875c-.195313 0-.386719-.003906-.585937-.019531-1.21875-.085938-2.367188-.617188-3.21875-1.492188-1.101563-1.125-2.179688-2.277344-3.226563-3.460937-.757813-.859375-1.195313-1.949219-1.246094-3.089844-.273437-6.273437.308594-22.167969 11.554688-34.226563 8.570312-9.191406 21.289062-14.074218 37.808593-14.507812 3.574219-.085938 6.890626 1.203125 9.398438 3.648438 2.484375 2.417968 3.851562 5.671874 3.851562 9.164062v5.132812c0 5.292969-4.3125 9.609376-9.609374 9.625-10.214844.027344-34.234376 2.21875-36.574219 21.894532-.5 4.214844-4.023438 7.332031-8.152344 7.332031zm41.4375-46.804687c-.03125 0-.058594 0-.089844 0-13.738281.363281-24.085937 4.175781-30.757812 11.332031-3.746094 4.019531-5.953125 8.664062-7.234375 13.050781 7.296875-10.605469 21.667968-16.675781 40.980468-16.804688v-4.761718c0-.984375-.449218-1.628906-.828124-2-.542969-.527344-1.277344-.816406-2.070313-.816406zm0 0"/><path d="m165.601562 254.9375c-25.953124 0-50.75-15.292969-66.328124-40.90625-1.3125-2.160156-.8125-4.957031 1.167968-6.519531 1.976563-1.566407 4.816406-1.410157 6.613282.363281.140624.136719 14.226562 13.820312 28.066406 13.820312 7.777344 0 11.242187.898438 14.59375 2.441407 9.949218 4.585937 21.363281 4.585937 31.316406 0 3.351562-1.542969 6.8125-2.441407 14.589844-2.441407 11.546875 0 24.179687-9.980468 28.070312-13.828124 1.617188-1.597657 4.109375-1.90625 6.066406-.742188l.332032.195312c1.152344.683594 1.980468 1.800782 2.300781 3.097657.324219 1.296875.109375 2.671875-.585937 3.8125-15.589844 25.492187-40.335938 40.707031-66.203126 40.707031zm-38.855468-24.324219c11.546875 9.207031 25.042968 14.324219 38.855468 14.324219 13.886719 0 27.464844-5.179688 39.058594-14.496094-2.921875.78125-5.957031 1.253906-9.039062 1.253906-6.570313 0-8.597656.691407-10.40625 1.523438-12.609375 5.816406-27.078125 5.8125-39.6875 0-1.808594-.835938-3.835938-1.523438-10.40625-1.523438-2.847656 0-5.660156-.402343-8.375-1.082031zm0 0"/><path d="m166.105469 300.261719c-2.761719 0-5-2.238281-5-5v-11.652344c0-5.914063 3.289062-11.234375 8.578125-13.878906l30.503906-15.25c6.855469-3.429688 15.195312-1.183594 19.402344 5.222656l5.496094 8.375c1.046874 1.585937 1.402343 3.5625.976562 5.414063-.421875 1.855468-1.601562 3.480468-3.230469 4.457031l-20.441406 12.261719c-10.957031 6.574218-23.503906 10.050781-36.285156 10.050781zm40.839843-37.378907c-.773437 0-1.554687.175782-2.285156.542969l-30.503906 15.25c-1.878906.941407-3.050781 2.832031-3.050781 4.933594v6.441406c9.21875-.761719 18.171875-3.636719 26.140625-8.414062l17.777344-10.664063-3.792969-5.777344c-.976563-1.488281-2.609375-2.3125-4.285157-2.3125zm9.78125 10.6875h.019532zm0 0"/><path d="m166.105469 300.261719c-12.78125 0-25.324219-3.476563-36.285157-10.050781l-20.4375-12.257813c-1.632812-.976563-2.8125-2.601563-3.234374-4.457031-.421876-1.851563-.070313-3.824219.976562-5.417969l5.496094-8.371094c4.207031-6.40625 12.546875-8.65625 19.402344-5.226562l30.503906 15.253906c5.289062 2.644531 8.578125 7.960937 8.578125 13.878906v11.648438c0 2.761719-2.238281 5-5 5zm-48.917969-29.289063 17.777344 10.664063c7.96875 4.78125 16.917968 7.652343 26.140625 8.414062v-6.441406c0-2.101563-1.167969-3.992187-3.050781-4.933594l-30.503907-15.25c-2.320312-1.160156-5.144531-.402343-6.570312 1.769531zm-5.882812-.148437h.019531zm0 0"/></g></svg>