<svg height="512pt" viewBox="-97 0 511 512" width="512pt" xmlns="http://www.w3.org/2000/svg"><path d="m312.679688 492.097656-8.273438-148.539062c-.699219-12.511719-9.449219-23.121094-21.601562-26.179688l-39.65625-9.980468c-6.878907-1.734376-13.6875-3.742188-20.398438-6.027344l-17.542969-8.648438-3.527343-1.742187c-5.597657-2.757813-9.144532-8.457031-9.144532-14.699219v-16.082031c-7.578125 6.804687-16.238281 12.910156-26.046875 17.425781-4.691406 2.15625-10.085937 2.15625-14.773437 0-9.808594-4.515625-18.46875-10.621094-26.046875-17.425781v16.082031c0 6.242188-3.546875 11.9375-9.144531 14.699219l-2.597657 1.285156-17.453125 8.605469c-7.394531 2.617187-14.902344 4.886718-22.507812 6.800781l-38.5625 9.707031c-12.15625 3.0625-20.90625 13.667969-21.605469 26.179688l-8.273437 148.539062c-.449219 8.09375 5.992187 14.902344 14.097656 14.902344h278.960937c8.109375 0 14.550781-6.808594 14.097657-14.902344zm0 0" fill="#fcbd4c"/><path d="m227.652344 139.5625c-3.8125-1.101562-8.261719-2.949219-12.8125-5.988281h-107.089844c-7.152344.933593-12.921875 3.378906-17.246094 6.519531l-2.195312 22.609375c-3.605469 33.882813 7.761718 67.847656 31.6875 92.109375 8.828125 8.957031 19.378906 17.132812 31.726562 22.816406 4.625 2.128906 10.128906 2.132813 14.761719 0 12.34375-5.683594 22.894531-13.859375 31.726563-22.816406 23.921874-24.261719 35.292968-58.226562 31.6875-92.109375zm0 0" fill="#fcb275"/><path d="m88.308594 162.703125 2.074218-21.378906c-.894531-.085938-1.800781-.136719-2.71875-.136719-15.382812 0-27.851562 12.46875-27.851562 27.851562 0 15.382813 12.46875 27.851563 27.851562 27.851563.703126 0 1.394532-.054687 2.082032-.105469-2.121094-11.121094-2.660156-22.601562-1.4375-34.082031zm0 0" fill="#fcb275"/><path d="m230.90625 141.1875c-1.042969 0-2.066406.070312-3.078125.179688l2.074219 21.335937c1.21875 11.476563.683594 22.953125-1.4375 34.066406.804687.070313 1.617187.125 2.441406.125 15.382812 0 27.851562-12.46875 27.851562-27.851562 0-15.382813-12.472656-27.855469-27.851562-27.855469zm0 0" fill="#fcb275"/><path d="m258.316406 133.574219h-198.425781c-5.570313 0-10.125-4.554688-10.125-10.125 0-5.566407 4.554687-10.125 10.125-10.125h198.425781c5.566406 0 10.125 4.558593 10.125 10.125 0 5.570312-4.558594 10.125-10.125 10.125zm0 0" fill="#e8e6e6"/><path d="m174.394531 15.554688v97.769531h75.121094v-8.101563c0-44.65625-32.570313-82.046875-75.121094-89.667968zm0 0" fill="#e8e6e6"/><path d="m67.285156 105.226562v8.097657h77.148438v-98.132813c-43.546875 6.773438-77.148438 44.667969-77.148438 90.035156zm0 0" fill="#e8e6e6"/><path d="m174.394531 113.324219v-99.886719c0-4.660156-3.777343-8.433594-8.4375-8.433594h-13.089843c-4.65625 0-8.433594 3.773438-8.433594 8.433594v99.886719zm0 0" fill="#fcbd4c"/><path d="m227.652344 139.5625.175781 1.804688c1.011719-.113282 2.035156-.179688 3.078125-.179688 12.621094 0 23.269531 8.402344 26.6875 19.917969 1.3125-9.25 2.210938-18.503907 2.160156-27.679688-.472656.066407-.945312.144531-1.4375.144531h-43.476562c4.550781 3.042969 9 4.890626 12.8125 5.992188zm0 0" fill="#7c292e"/><path d="m96.472656 300.871094 17.453125-8.605469 2.597657-1.285156c5.597656-2.757813 9.144531-8.457031 9.144531-14.699219v-16.082031c.003906.003906.007812.007812.011719.011719-1.960938-1.761719-3.867188-3.558594-5.683594-5.398438-15.820313-16.042969-26.113282-36.339844-30.25-58.042969v.015625c-.6875.054688-1.378906.105469-2.082032.105469-9.332031 0-17.570312-4.605469-22.625-11.652344 5.089844 28.492188 9.78125 56.183594-1.703124 80.492188-4.933594 10.445312-8.832032 35.636719-2.4375 45.226562l13.066406-3.289062c7.605468-1.910157 15.113281-4.179688 22.507812-6.796875zm0 0" fill="#7c292e"/><path d="m60.996094 161.027344c3.441406-11.476563 14.074218-19.839844 26.667968-19.839844.917969 0 1.824219.050781 2.722657.136719l.121093-1.230469c4.320313-3.140625 10.09375-5.582031 17.242188-6.519531h-47.859375c-.359375 0-.699219-.066407-1.046875-.105469-.042969 9.136719.84375 18.351562 2.152344 27.558594zm0 0" fill="#7c292e"/><path d="m255.261719 265.730469c-11.488281-24.324219-6.785157-52.03125-1.691407-80.542969-5.050781 7.074219-13.308593 11.703125-22.664062 11.703125-.824219 0-1.636719-.050781-2.445312-.121094v-.003906c-4.136719 21.703125-14.429688 42.003906-30.25 58.046875-1.8125 1.835938-3.714844 3.632812-5.675782 5.390625v16.078125c0 6.242188 3.542969 11.941406 9.140625 14.703125l3.527344 1.738281 17.542969 8.652344c6.714844 2.28125 13.523437 4.292969 20.402344 6.023438l15.042968 3.789062c6.597656-9.800781 2.039063-34.941406-2.929687-45.457031zm0 0" fill="#7c292e"/><path d="m209.152344 357.152344c18.46875-7.914063 29.417968-32.476563 34.988281-49.507813l-.988281-.25c-6.878906-1.730469-13.6875-3.742187-20.402344-6.023437l-1.875-.925782c-9.558594 21.191407-29.664062 36.574219-53.640625 39.464844 8.332031 11.488282 22.296875 25.652344 41.917969 17.242188zm0 0" fill="#f9d498"/><path d="m73.957031 307.675781c5.574219 17.027344 16.515625 41.566407 34.976563 49.476563 19.621094 8.410156 33.585937-5.753906 41.917968-17.242188-23.960937-2.886718-44.050781-18.246094-53.621093-39.414062l-.757813.375c-7.394531 2.617187-14.902344 4.886718-22.507812 6.800781zm0 0" fill="#f9d498"/><path d="m171.175781 507v-162.050781c-1.429687-1.683594-2.742187-3.386719-3.9375-5.035157-2.6875.339844-5.414062.539063-8.195312.539063s-5.515625-.183594-8.207031-.515625c-.894532 1.234375-1.855469 2.496094-2.878907 3.753906v163.308594zm0 0" fill="#f9d498"/><path d="m118.605469 23.34375v89.980469h25.824219v-98.132813c-9.117188 1.417969-17.792969 4.21875-25.824219 8.152344zm0 0" fill="#e04e36"/><path d="m174.394531 15.554688v97.769531h25.203125v-89.253907c-7.828125-4.003906-16.292968-6.917968-25.203125-8.515624zm0 0" fill="#e04e36"/><path d="m159.042969 340.453125c27.542969 0 51.191406-16.4375 61.824219-40.007813l-15.660157-7.722656-3.527343-1.742187c-5.597657-2.757813-9.140626-8.457031-9.140626-14.699219v-16.082031c-7.582031 6.804687-16.242187 12.910156-26.050781 17.425781-4.6875 2.15625-10.082031 2.15625-14.769531 0-9.808594-4.515625-18.46875-10.621094-26.050781-17.425781v16.082031c0 6.242188-3.542969 11.9375-9.140625 14.699219l-2.597656 1.285156-16.691407 8.226563c10.640625 23.546874 34.285157 39.960937 61.804688 39.960937zm0 0" fill="#fcb275"/><g fill="#231f20"><path d="m159.101562 284.214844c-3.253906 0-6.507812-.679688-9.472656-2.046875-11.765625-5.414063-22.933594-13.441407-33.195312-23.84375-24.851563-25.203125-36.917969-60.25-33.097656-96.152344l2.191406-22.5625c.140625-1.425781.882812-2.71875 2.039062-3.5625 5.355469-3.890625 12.109375-6.457031 19.539063-7.429687.214843-.027344.429687-.042969.648437-.042969h107.089844c.988281 0 1.953125.292969 2.777344.847656 3.574218 2.386719 7.414062 4.183594 11.417968 5.339844 1.96875.566406 3.394532 2.28125 3.589844 4.316406l2.25 23.140625c3.816406 35.855469-8.25 70.902344-33.101562 96.105469-10.261719 10.40625-21.429688 18.429687-33.195313 23.847656-2.972656 1.363281-6.226562 2.042969-9.480469 2.042969zm-63.847656-141.277344-1.972656 20.25c-3.503906 32.953125 7.53125 65.054688 30.273438 88.117188 9.410156 9.542968 19.589843 16.871093 30.257812 21.785156 3.3125 1.523437 7.269531 1.523437 10.582031 0 10.667969-4.914063 20.847657-12.242188 30.253907-21.785156 22.742187-23.0625 33.777343-55.164063 30.277343-88.074219l-1.9375-19.933594c-3.335937-1.21875-6.558593-2.796875-9.625-4.722656h-105.277343c-4.820313.667969-9.207032 2.160156-12.832032 4.363281zm0 0"/><path d="m87.664062 201.890625c-18.117187 0-32.851562-14.738281-32.851562-32.851563 0-18.117187 14.734375-32.851562 32.851562-32.851562 1.03125 0 2.078126.050781 3.199219.160156 1.320313.125 2.539063.773438 3.382813 1.792969.84375 1.027344 1.246094 2.34375 1.117187 3.664063l-2.082031 21.382812c0 .011719 0 .027344-.003906.042969-1.148438 10.816406-.683594 21.792969 1.382812 32.621093.265625 1.398438-.078125 2.847657-.945312 3.976563-.867188 1.132813-2.179688 1.84375-3.601563 1.945313-.902343.066406-1.667969.117187-2.449219.117187zm-2.792968-55.53125c-11.289063 1.378906-20.058594 11.023437-20.058594 22.679687 0 11.292969 8.230469 20.699219 19.011719 22.53125-1.359375-9.777343-1.527344-19.628906-.492188-29.375zm3.4375 16.34375h.019531zm0 0"/><path d="m230.90625 201.890625c-.976562 0-1.9375-.054687-2.890625-.144531-1.40625-.125-2.691406-.839844-3.542969-1.964844-.851562-1.128906-1.183594-2.5625-.917968-3.953125 2.0625-10.8125 2.523437-21.785156 1.375-32.597656l-2.082032-21.378907c-.261718-2.71875 1.707032-5.148437 4.421875-5.453124 1.265625-.140626 2.457031-.210938 3.632813-.210938 18.117187 0 32.851562 14.738281 32.851562 32.851562 0 18.117188-14.734375 32.851563-32.847656 32.851563zm2.425781-55.578125 1.542969 15.902344c1.039062 9.734375.871094 19.613281-.5 29.414062 10.960938-1.679687 19.382812-11.171875 19.382812-22.589844 0-11.78125-8.964843-21.507812-20.425781-22.726562zm0 0"/><path d="m258.316406 138.574219h-198.425781c-8.34375 0-15.125-6.785157-15.125-15.125 0-8.335938 6.78125-15.125 15.125-15.125h198.425781c8.339844 0 15.125 6.785156 15.125 15.125 0 8.339843-6.785156 15.125-15.125 15.125zm-198.425781-20.25c-2.828125 0-5.125 2.300781-5.125 5.125 0 2.828125 2.296875 5.125 5.125 5.125h198.425781c2.828125 0 5.125-2.296875 5.125-5.125 0-2.824219-2.296875-5.125-5.125-5.125zm0 0"/><path d="m249.515625 118.324219h-75.125c-2.761719 0-5-2.234375-5-5v-97.769531c0-1.480469.65625-2.882813 1.792969-3.832032 1.136718-.953125 2.632812-1.351562 4.089844-1.089844 45.914062 8.222657 79.242187 48.003907 79.242187 94.59375v8.097657c0 2.765625-2.238281 5-5 5zm-70.121094-10h65.121094v-3.097657c0-39.722656-27.042969-73.925781-65.121094-83.484374zm0 0"/><path d="m144.433594 118.324219h-77.148438c-2.761718 0-5-2.234375-5-5v-8.097657c0-46.929687 34.984375-87.761718 81.378906-94.976562 1.441407-.214844 2.910157.195312 4.019532 1.144531s1.75 2.335938 1.75 3.796875v98.132813c0 2.765625-2.242188 5-5 5zm-72.148438-10h67.144532v-87.089844c-38.664063 8.800781-67.144532 43.914063-67.144532 83.992187zm0 0"/><path d="m174.394531 118.324219h-29.960937c-2.761719 0-5-2.234375-5-5v-99.886719c0-7.410156 6.023437-13.4375 13.433594-13.4375h13.089843c7.40625 0 13.433594 6.027344 13.433594 13.4375v99.886719c.003906 2.765625-2.238281 5-4.996094 5zm-24.960937-10h19.960937v-94.886719c0-1.894531-1.542969-3.4375-3.4375-3.4375h-13.089843c-1.890626 0-3.433594 1.542969-3.433594 3.4375zm0 0"/><path d="m257.589844 166.105469c-2.195313 0-4.15625-1.445313-4.789063-3.574219-2.855469-9.625-11.859375-16.34375-21.894531-16.34375-.804688 0-1.628906.046875-2.527344.148438-1.332031.152343-2.664062-.242188-3.703125-1.085938-.621093-.503906-1.105469-1.140625-1.421875-1.859375-3.910156-1.402344-7.664062-3.296875-11.191406-5.660156-1.832031-1.222657-2.644531-3.503907-2.003906-5.609375.636718-2.105469 2.582031-3.546875 4.78125-3.546875h43.476562c.1875-.003907.371094-.042969.558594-.070313 1.433594-.21875 2.964844.199219 4.0625 1.144532 1.097656.945312 1.808594 2.304687 1.816406 3.753906.042969 8.457031-.660156 17.480468-2.210937 28.40625-.328125 2.324218-2.234375 4.109375-4.582031 4.285156-.121094.007812-.246094.011719-.371094.011719zm-14.480469-27.53125c4.1875 1.695312 7.992187 4.234375 11.160156 7.4375.203125-2.574219.339844-5.042969.414063-7.4375zm0 0"/><path d="m60.898438 315.960938c-1.644532 0-3.21875-.816407-4.160157-2.226563-7.84375-11.769531-3.113281-39.148437 2.078125-50.136719 10.992188-23.269531 6.0625-50.824218 1.300782-77.476562-.414063-2.296875.824218-4.574219 2.976562-5.484375 2.152344-.910157 4.644531-.207031 6.007812 1.691406 4.296876 5.988281 11.234376 9.566406 18.5625 9.566406.480469 0 .957032-.035156 1.429688-.070312 2.597656-.351563 5.0625 1.398437 5.558594 4.011719 4.046875 21.21875 14.042968 40.402343 28.902344 55.46875 1.605468 1.628906 3.375 3.3125 5.410156 5.140624.039062.03125.070312.0625.105468.09375.046876.046876.097657.09375.140626.140626 1.066406 1.0625 1.554687 2.492187 1.453124 3.890624v15.710938c0 8.203125-4.570312 15.554688-11.929687 19.183594l-20.054687 9.890625c-.175782.085937-.359376.164062-.542969.226562-7.511719 2.660157-15.234375 4.992188-22.953125 6.9375l-13.066406 3.289063c-.40625.101562-.8125.152344-1.21875.152344zm11.441406-117.890626c3.886718 23.820313 5.878906 47.863282-4.480469 69.796876-4.105469 8.683593-6.984375 27.863281-4.175781 37.234374l9.0625-2.28125c7.324218-1.84375 14.652344-4.050781 21.78125-6.566406l19.789062-9.757812c3.917969-1.933594 6.355469-5.847656 6.355469-10.214844v-13.871094c-1.535156-1.417968-2.929687-2.765625-4.234375-4.089844-15.28125-15.496093-25.859375-34.957031-30.742188-56.492187-4.707031-.28125-9.257812-1.585937-13.355468-3.757813zm24.132812 102.800782h.019532zm0 0"/><path d="m60.996094 166.027344c-.125 0-.25-.003906-.378906-.011719-2.339844-.179687-4.246094-1.960937-4.574219-4.289063-1.539063-10.871093-2.238281-19.855468-2.199219-28.285156.007812-1.414062.613281-2.757812 1.667969-3.703125 1.050781-.945312 2.453125-1.382812 3.863281-1.246093l.488281.0625 47.886719.015624c2.636719 0 4.820312 2.046876 4.992188 4.675782.167968 2.628906-1.730469 4.945312-4.34375 5.285156-5.015626.65625-9.574219 2.203125-13.3125 4.507812-.761719 2.089844-2.832032 3.480469-5.175782 3.261719-.742187-.070312-1.488281-.113281-2.246094-.113281-10.007812 0-19.003906 6.691406-21.878906 16.277344-.640625 2.128906-2.597656 3.5625-4.789062 3.5625zm2.917968-27.453125c.078126 2.386719.214844 4.847656.414063 7.40625 3.164063-3.183594 6.957031-5.714844 11.132813-7.40625zm0 0"/><path d="m258.195312 316.183594c-.40625 0-.816406-.046875-1.21875-.148438l-15.046874-3.789062c-6.992188-1.761719-13.988282-3.824219-20.789063-6.140625-.207031-.070313-.40625-.152344-.601563-.25l-21.074218-10.386719c-7.355469-3.628906-11.929688-10.980469-11.929688-19.1875v-16.078125c0-1.417969.605469-2.769531 1.660156-3.71875 2.042969-1.835937 3.828126-3.53125 5.457032-5.179687 14.859375-15.066407 24.851562-34.25 28.902344-55.472657.480468-2.523437 2.800781-4.265625 5.355468-4.042969.660156.058594 1.324219.105469 1.996094.105469 7.351562 0 14.300781-3.589843 18.597656-9.609375 1.355469-1.902344 3.855469-2.605468 6.007813-1.707031 2.15625.910156 3.394531 3.191406 2.980469 5.492187-4.765626 26.675782-9.699219 54.257813 1.292968 77.53125v-.003906c5.25 11.113282 10.753906 38.207032 2.558594 50.378906-.945312 1.398438-2.511719 2.207032-4.148438 2.207032zm-33.527343-19.441406c6.449219 2.1875 13.078125 4.136718 19.703125 5.808593l11.0625 2.785157c2.859375-9.382813-.375-28.324219-4.691406-37.464844 0-.003906 0-.003906 0-.003906-10.359376-21.925782-8.367188-45.980469-4.480469-69.808594-4.214844 2.234375-8.902344 3.554687-13.753907 3.796875-4.886718 21.523437-15.457031 40.972656-30.738281 56.46875-1.3125 1.332031-2.707031 2.679687-4.234375 4.085937v13.871094c0 4.371094 2.433594 8.285156 6.351563 10.214844zm0 0"/><path d="m197.371094 364.753906c-12.15625 0-23.605469-7.324218-34.183594-21.90625-1.042969-1.433594-1.246094-3.3125-.535156-4.9375.707031-1.621094 2.222656-2.75 3.980468-2.960937 21.652344-2.613281 40.691407-16.621094 49.6875-36.558594.554688-1.234375 1.59375-2.191406 2.867188-2.648437 1.277344-.457032 2.683594-.375 3.902344.222656l1.578125.777344c6.476562 2.195312 13.105469 4.148437 19.703125 5.804687l.992187.253906c1.34375.339844 2.488281 1.21875 3.15625 2.433594s.804688 2.652344.375 3.96875c-6.3125 19.289063-17.988281 44.070313-37.773437 52.546875-4.671875 2.003906-9.261719 3.003906-13.75 3.003906zm11.78125-7.601562h.019531zm-32.773438-13.839844c9.949219 11 19.863282 13.933594 30.804688 9.246094 15.3125-6.5625 25.199218-27.007813 30.464844-41.429688-4.804688-1.292968-9.609376-2.734375-14.339844-4.300781-9.753906 18.234375-26.984375 31.566406-46.929688 36.484375zm0 0"/><path d="m120.71875 364.753906c-4.492188 0-9.078125-1-13.753906-3.003906-19.773438-8.476562-31.449219-33.238281-37.757813-52.523438-.433593-1.316406-.296875-2.757812.375-3.96875.671875-1.214843 1.816407-2.097656 3.164063-2.4375h.007812c7.316406-1.839843 14.644532-4.046874 21.773438-6.5625l.492187-.242187c1.214844-.601563 2.621094-.683594 3.898438-.226563 1.277343.457032 2.3125 1.414063 2.871093 2.648438 9.003907 19.914062 28.039063 33.902344 49.667969 36.511719 1.757813.210937 3.273438 1.339843 3.984375 2.960937.707032 1.625.503906 3.503906-.535156 4.9375-10.578125 14.582032-22.035156 21.90625-34.1875 21.90625zm-40.273438-53.617187c5.257813 14.414062 15.144532 34.859375 30.460938 41.421875 10.9375 4.691406 20.855469 1.753906 30.800781-9.246094-19.964843-4.921875-37.222656-18.28125-46.964843-36.550781-4.714844 1.59375-9.496094 3.054687-14.296876 4.375zm0 0"/><path d="m171.175781 512h-23.21875c-2.761719 0-5-2.238281-5-5v-163.304688c0-1.148437.394531-2.257812 1.117188-3.148437.960937-1.191406 1.871093-2.378906 2.714843-3.542969 1.070313-1.472656 2.863282-2.246094 4.660157-2.027344 5.058593.625 9.761719.65625 15.167969-.019531 1.800781-.238281 3.59375.546875 4.664062 2.023438 1.230469 1.691406 2.476562 3.285156 3.707031 4.738281.765625.902344 1.1875 2.046875 1.1875 3.230469v162.050781c0 2.761719-2.238281 5-5 5zm-18.21875-10h13.21875v-155.25c-.414062-.511719-.824219-1.03125-1.234375-1.5625-4.046875.359375-7.835937.347656-11.800781.015625-.058594.078125-.121094.15625-.183594.234375zm0 0"/><path d="m144.433594 118.324219h-25.824219c-2.761719 0-5-2.234375-5-5v-89.980469c0-1.910156 1.085937-3.652344 2.800781-4.492188 8.664063-4.242187 17.835938-7.136718 27.253906-8.601562 1.445313-.21875 2.914063.195312 4.023438 1.144531 1.105469.949219 1.746094 2.335938 1.746094 3.796875v98.132813c0 2.765625-2.242188 5-5 5zm-20.828125-10h15.824219v-87.089844c-5.410157 1.234375-10.703126 3.003906-15.824219 5.289063zm0 0"/><path d="m199.597656 118.324219h-25.203125c-2.765625 0-5-2.234375-5-5v-97.769531c0-1.480469.652344-2.882813 1.789063-3.832032 1.136718-.953125 2.636718-1.351562 4.089844-1.089844 9.222656 1.652344 18.171874 4.675782 26.601562 8.984376 1.671875.855468 2.726562 2.574218 2.726562 4.453124v89.253907c-.003906 2.765625-2.242187 5-5.003906 5zm-20.203125-10h15.203125v-81.132813c-4.910156-2.300781-10-4.121094-15.203125-5.441406zm0 0"/><path d="m298.585938 512h-278.964844c-5.308594 0-10.242188-2.125-13.890625-5.980469-3.648438-3.855469-5.496094-8.898437-5.199219-14.203125l8.273438-148.535156c.824218-14.785156 11.023437-27.140625 25.375-30.753906l38.5625-9.707032c7.328124-1.84375 14.652343-4.050781 21.78125-6.566406l19.792968-9.757812c3.917969-1.933594 6.351563-5.847656 6.351563-10.214844v-16.082031c0-1.972657 1.164062-3.761719 2.960937-4.566407 1.804688-.796874 3.910156-.46875 5.378906.847657 7.867188 7.0625 16.214844 12.648437 24.800782 16.605469 3.363281 1.542968 7.222656 1.542968 10.585937 0 8.585938-3.957032 16.929688-9.542969 24.800781-16.605469 1.46875-1.316407 3.574219-1.644531 5.375-.847657 1.800782.804688 2.960938 2.59375 2.960938 4.566407v16.082031c0 4.371094 2.433594 8.285156 6.351562 10.214844l20.78125 10.242187c6.480469 2.195313 13.105469 4.148438 19.703126 5.804688l39.652343 9.984375c14.355469 3.613281 24.554688 15.96875 25.378907 30.75l8.273437 148.539062c.292969 5.300782-1.554687 10.34375-5.199219 14.203125-3.648437 3.855469-8.578125 5.980469-13.886718 5.980469zm-167.917969-241.222656v5.503906c0 8.207031-4.570313 15.558594-11.929688 19.1875l-20.054687 9.886719c-.175782.089843-.359375.164062-.542969.230469-7.511719 2.65625-15.234375 4.992187-22.953125 6.9375l-38.566406 9.707031c-10.085938 2.539062-17.253906 11.222656-17.832032 21.609375l-8.273437 148.535156c-.140625 2.53125.738281 4.9375 2.480469 6.773438 1.738281 1.839843 4.089844 2.855468 6.621094 2.855468h278.964843c2.53125 0 4.882813-1.015625 6.621094-2.855468 1.742187-1.835938 2.625-4.242188 2.480469-6.773438l-8.273438-148.535156c-.578125-10.386719-7.746094-19.070313-17.832031-21.609375l-39.652344-9.984375c-6.960937-1.75-13.957031-3.816406-20.792969-6.136719-.203124-.070313-.40625-.15625-.601562-.25l-21.070312-10.390625c-7.359376-3.625-11.929688-10.976562-11.929688-19.183594v-5.503906c-6.121094 4.585938-12.464844 8.398438-18.957031 11.386719-6.023438 2.777343-12.929688 2.773437-18.953125 0-6.488282-2.988281-12.835938-6.804688-18.953125-11.390625zm0 0"/><path d="m257.457031 511.25c-2.761719 0-5-2.238281-5-5v-133.109375c0-2.761719 2.238281-5 5-5s5 2.238281 5 5v133.109375c0 2.761719-2.238281 5-5 5zm0 0"/><path d="m60.75 511.25c-2.761719 0-5-2.238281-5-5v-133.109375c0-2.761719 2.238281-5 5-5s5 2.238281 5 5v133.109375c0 2.761719-2.238281 5-5 5zm0 0"/><path d="m159.042969 345.453125c-28.53125 0-54.582031-16.839844-66.363281-42.898437-1.109376-2.457032-.074219-5.355469 2.34375-6.542969l19.292968-9.511719c3.917969-1.933594 6.351563-5.847656 6.351563-10.214844v-16.082031c0-1.972656 1.164062-3.761719 2.960937-4.566406 1.804688-.796875 3.910156-.46875 5.378906.847656 7.867188 7.0625 16.214844 12.648437 24.800782 16.605469 3.363281 1.542968 7.21875 1.542968 10.585937 0 8.585938-3.957032 16.929688-9.542969 24.800781-16.605469 1.46875-1.316406 3.574219-1.644531 5.375-.847656 1.800782.804687 2.960938 2.59375 2.960938 4.566406v16.082031c0 4.371094 2.433594 8.285156 6.355469 10.214844l19.1875 9.460938c2.417969 1.191406 3.457031 4.082031 2.347656 6.542968-11.765625 26.089844-37.824219 42.949219-66.378906 42.949219zm-55.09375-42.695313c10.96875 20.007813 32.097656 32.695313 55.09375 32.695313 23.015625 0 44.152343-12.707031 55.113281-32.742187l-14.6875-7.242188c-7.359375-3.628906-11.933594-10.980469-11.933594-19.183594v-5.507812c-6.117187 4.585937-12.460937 8.402344-18.957031 11.386718-6.019531 2.777344-12.925781 2.777344-18.953125 0-6.492188-2.984374-12.839844-6.800781-18.957031-11.386718v5.503906c0 8.207031-4.570313 15.558594-11.929688 19.1875zm0 0"/><path d="m158.730469 237.96875c-8.871094 0-17.132813-4.390625-22.105469-11.75-1.546875-2.289062-.945312-5.398438 1.34375-6.941406 2.285156-1.546875 5.394531-.945313 6.941406 1.34375 3.109375 4.601562 8.277344 7.347656 13.820313 7.347656s10.710937-2.746094 13.816406-7.347656c1.546875-2.292969 4.652344-2.894532 6.945313-1.34375 2.285156 1.542968 2.886718 4.652344 1.34375 6.941406-4.972657 7.359375-13.234376 11.75-22.105469 11.75zm0 0"/><path d="m133.070312 188.320312c-3.316406 0-6-2.683593-6-6v-1.105468c0-3.3125 2.683594-6 6-6 3.3125 0 6 2.6875 6 6v1.105468c0 3.316407-2.6875 6-6 6zm0 0"/><path d="m186.078125 189.171875c-3.316406 0-6-2.6875-6-6v-1.109375c0-3.316406 2.683594-6 6-6 3.3125 0 6 2.683594 6 6v1.109375c0 3.3125-2.6875 6-6 6zm0 0"/><path d="m196.328125 168.792969c-.792969 0-1.59375-.191407-2.34375-.589844-1.179687-.628906-3.945313-1.359375-7.847656-1.359375-3.90625 0-6.667969.730469-7.851563 1.359375-2.433594 1.296875-5.464844.375-6.761718-2.066406-1.292969-2.4375-.371094-5.460938 2.066406-6.761719 3.027344-1.609375 7.597656-2.53125 12.546875-2.53125s9.519531.921875 12.546875 2.53125c2.4375 1.296875 3.359375 4.324219 2.066406 6.761719-.902344 1.6875-2.632812 2.652343-4.421875 2.65625zm0 0"/><path d="m141.519531 168.792969c-.792969 0-1.597656-.191407-2.34375-.589844-1.179687-.628906-3.945312-1.359375-7.851562-1.359375-3.902344 0-6.667969.730469-7.847657 1.359375-2.4375 1.296875-5.464843.375-6.761718-2.066406-1.296875-2.4375-.371094-5.460938 2.066406-6.761719 3.027344-1.609375 7.597656-2.53125 12.546875-2.53125 4.945313 0 9.519531.921875 12.542969 2.53125 2.441406 1.296875 3.363281 4.324219 2.066406 6.761719-.898438 1.6875-2.628906 2.652343-4.417969 2.65625zm0 0"/></g></svg>