<svg height="512pt" viewBox="-100 0 512 512" width="512pt" xmlns="http://www.w3.org/2000/svg"><path d="m224.914062 127.980469h-136.605468c-1.113282 11.523437-2.332032 31.136719-5.949219 67.230469-1.171875 12.578124 3.40625 25.007812 12.453125 33.820312l29.285156 28.519531c8.089844 7.878907 18.929688 12.285157 30.222656 12.285157.226563 0 4.507813 0 4.371094 0 11.292969 0 22.132813-4.40625 30.222656-12.285157l29.28125-28.519531c9.050782-8.8125 13.628907-21.242188 12.457032-33.820312-3.375-36.335938-4.621094-55.867188-5.738282-67.230469zm0 0" fill="#fcb275"/><path d="m225.996094 140.519531c.847656 10.476563 1.96875 25.039063 3.828125 45.707031 10.871093-1.84375 19.164062-11.28125 19.164062-22.679687 0-12.707031-10.289062-23.007813-22.992187-23.027344zm0 0" fill="#fcb275"/><path d="m84.292969 175.09375c1.367187-14.851562 2.25-26 2.9375-34.523438-13.332031.492188-23.988281 10.570313-23.988281 22.976563 0 11.136719 8.597656 20.382813 20 22.519531zm0 0" fill="#fcb275"/><path d="m224.910156 127.980469c.332032 3.382812.679688 7.476562 1.085938 12.539062 7.601562.011719 14.320312 3.722657 18.507812 9.410157v-21.949219zm0 0" fill="#7c292e"/><path d="m88.304688 127.980469h-20.269532v22.0625c4.359375-5.507813 11.296875-9.179688 19.195313-9.472657-.019531.222657-.039063.464844-.054688.691407.429688-5.371094.785157-9.710938 1.128907-13.28125zm0 0" fill="#7c292e"/><path d="m307.515625 493.945312-9.03125-162.1875c-.683594-12.246093-9.25-22.628906-21.144531-25.621093l-38.8125-9.769531c-6.730469-1.691407-13.394532-3.660157-19.964844-5.898438l-17.171875-8.464844-3.453125-1.703125c-5.476562-2.699219-8.945312-8.277343-8.945312-14.386719v-8.441406l-.082032.078125c-8.089844 7.878907-18.933594 12.285157-30.222656 12.285157.136719 0-4.144531 0-4.375 0-11.285156 0-22.128906-4.40625-30.21875-12.285157l-.550781-.535156v8.894531c0 6.109375-3.46875 11.6875-8.949219 14.390625l-2.542969 1.253907-17.085937 8.421874c-7.230469 2.5625-14.582032 4.785157-22.023438 6.65625l-37.746094 9.5c-11.894531 2.996094-20.460937 13.378907-21.144531 25.625l-9.03125 162.183594c-.398437 7.089844 5.246094 13.054688 12.34375 13.054688h277.804688c7.101562.003906 12.746093-5.960938 12.347656-13.050782zm0 0" fill="#fcbd4c"/><path d="m251.167969 127.980469h-189.800781c-5.324219 0-9.683594-4.355469-9.683594-9.683594 0-5.324219 4.359375-9.683594 9.683594-9.683594h189.800781c5.324219 0 9.683593 4.359375 9.683593 9.683594 0 5.328125-4.355468 9.683594-9.683593 9.683594zm0 0" fill="#e8e6e6"/><path d="m170.890625 15.097656v93.519532h71.859375v-7.746094c0-42.71875-31.15625-78.488282-71.859375-85.773438zm0 0" fill="#e8e6e6"/><path d="m68.441406 100.867188v7.746093h73.792969v-93.863281c-41.648437 6.476562-73.792969 42.726562-73.792969 86.117188zm0 0" fill="#e8e6e6"/><path d="m117.535156 22.542969v86.074219h24.703125v-93.867188c-8.726562 1.355469-17.023437 4.035156-24.703125 7.792969zm0 0" fill="#e04e36"/><path d="m170.890625 15.097656v93.519532h24.113281v-85.378907c-7.488281-3.824219-15.585937-6.613281-24.113281-8.140625zm0 0" fill="#e04e36"/><path d="m170.890625 108.617188v-95.550782c0-4.453125-3.609375-8.066406-8.066406-8.066406h-12.523438c-4.453125 0-8.066406 3.613281-8.066406 8.066406v95.546875h28.65625zm0 0" fill="#fcbd4c"/><path d="m224.550781 292.371094c-2-.625-4.003906-1.226563-5.988281-1.902344l-17.171875-8.464844-1.839844-.90625-36.972656 44.128906 28.066406 18zm0 0" fill="#fcbd4c"/><path d="m88.4375 292.179688 34.03125 51.046874 28.070312-18-37.144531-44.335937-1.34375.664063-17.082031 8.421874c-2.167969.769532-4.347656 1.496094-6.53125 2.203126zm0 0" fill="#fcbd4c"/><path d="m188.992188 265.914062v-8.441406l-.082032.078125c-8.085937 7.878907-18.929687 12.285157-30.21875 12.285157.132813 0-4.148437 0-4.375 0-11.289062 0-22.132812-4.40625-30.21875-12.285157l-.554687-.535156v8.894531c0 6.109375-3.46875 11.6875-8.945313 14.390625l-1.203125.589844 37.144531 44.335937h12.039063l36.972656-44.128906-1.613281-.796875c-5.476562-2.699219-8.945312-8.277343-8.945312-14.386719zm0 0" fill="#fcb275"/><path d="m162.578125 325.226562h-12.039063l-14.148437 9.074219c1.257813 9.84375 9.707031 17.523438 19.878906 17.523438 10.285157 0 18.824219-7.855469 19.925781-17.863281zm0 0" fill="#e04e36"/><path d="m167.078125 348.625c-3.125 2.015625-6.832031 3.199219-10.808594 3.199219-3.980469 0-7.683593-1.1875-10.808593-3.207031l-12.578126 118.765624c-.179687 1.691407.417969 3.378907 1.621094 4.582032l17.777344 17.777344c2.203125 2.203124 5.773438 2.203124 7.976562 0l17.773438-17.777344c1.207031-1.203125 1.800781-2.890625 1.621094-4.582032zm0 0" fill="#e04e36"/><g fill="#231f20"><path d="m158.691406 274.835938h-4.375c-12.664062 0-24.632812-4.867188-33.707031-13.703126l-29.285156-28.519531c-10.179688-9.917969-15.261719-23.71875-13.945313-37.867187 2.394532-23.855469 3.71875-40.324219 4.6875-52.351563.492188-6.117187.882813-10.972656 1.265625-14.894531.246094-2.5625 2.402344-4.519531 4.972657-4.519531h136.605468c2.574219 0 4.722656 1.953125 4.976563 4.507812.457031 4.621094.941406 10.679688 1.550781 18.351563.917969 11.488281 2.175781 27.230468 4.1875 48.910156 1.316406 14.144531-3.765625 27.945312-13.941406 37.863281l-29.289063 28.519531c-9.070312 8.835938-21.042969 13.703126-33.703125 13.703126zm-65.816406-141.855469c-.253906 2.949219-.527344 6.324219-.839844 10.21875-.972656 12.066406-2.300781 28.589843-4.699218 52.511719-1.035157 11.089843 2.960937 21.941406 10.964843 29.738281l29.285157 28.519531c7.195312 7.007812 16.6875 10.867188 26.734374 10.867188h4.375c10.039063 0 19.53125-3.859376 26.726563-10.867188l29.285156-28.519531c8.003907-7.796875 12-18.648438 10.960938-29.773438-2.011719-21.746093-3.277344-37.523437-4.195313-49.042969-.425781-5.316406-.789062-9.855468-1.121094-13.652343zm0 0"/><path d="m156.371094 234.773438c-8.570313 0-16.550782-4.246094-21.355469-11.351563-1.546875-2.289063-.945313-5.398437 1.34375-6.945313 2.285156-1.542968 5.394531-.941406 6.941406 1.34375 2.941407 4.355469 7.824219 6.953126 13.066407 6.953126 5.242187 0 10.128906-2.597657 13.070312-6.953126 1.542969-2.285156 4.648438-2.890624 6.941406-1.34375 2.289063 1.546876 2.886719 4.65625 1.339844 6.945313-4.796875 7.105469-12.78125 11.351563-21.347656 11.351563zm0 0"/><path d="m191.980469 168.460938c-.792969 0-1.597657-.1875-2.34375-.585938-1.1875-.628906-3.917969-1.265625-7.34375-1.265625-3.429688 0-6.160157.632813-7.34375 1.265625-2.4375 1.296875-5.464844.371094-6.761719-2.066406s-.375-5.464844 2.066406-6.761719c2.910156-1.550781 7.296875-2.4375 12.039063-2.4375 4.738281 0 9.125.886719 12.039062 2.4375 2.4375 1.296875 3.363281 4.324219 2.066407 6.761719-.898438 1.6875-2.628907 2.652344-4.417969 2.652344zm0 0"/><path d="m139.890625 168.460938c-.792969 0-1.597656-.1875-2.34375-.585938-1.183594-.632812-3.914063-1.265625-7.34375-1.265625-3.425781 0-6.15625.632813-7.34375 1.265625-2.4375 1.296875-5.464844.371094-6.761719-2.066406s-.371094-5.464844 2.066406-6.761719c2.914063-1.550781 7.300782-2.4375 12.039063-2.4375 4.742187 0 9.128906.886719 12.042969 2.4375 2.4375 1.296875 3.359375 4.324219 2.0625 6.761719-.898438 1.691406-2.628906 2.652344-4.417969 2.652344zm0 0"/><path d="m130.976562 187.242188c-3.3125 0-6-2.6875-6-6v-1.058594c0-3.3125 2.6875-6 6-6s6 2.6875 6 6v1.058594c0 3.3125-2.6875 6-6 6zm0 0"/><path d="m181.765625 188.054688c-3.316406 0-6-2.6875-6-6v-1.0625c0-3.3125 2.683594-6 6-6 3.3125 0 6 2.6875 6 6v1.0625c0 3.316406-2.6875 6-6 6zm0 0"/><path d="m229.828125 191.222656c-1.097656 0-2.171875-.359375-3.054687-1.039062-1.101563-.851563-1.800782-2.125-1.925782-3.511719-1.554687-17.234375-2.613281-30.476563-3.386718-40.144531l-.449219-5.605469c-.113281-1.394531.363281-2.773437 1.3125-3.796875.945312-1.023438 2.277343-1.605469 3.671875-1.605469h.007812c15.429688.023438 27.984375 12.597657 27.984375 28.027344 0 13.707031-9.8125 25.316406-23.328125 27.605469-.277344.050781-.554687.070312-.832031.070312zm1.65625-44.839844c.667969 8.371094 1.546875 19.339844 2.765625 33.164063 5.863281-3.015625 9.738281-9.09375 9.738281-16 0-8.007813-5.261719-14.824219-12.503906-17.164063zm0 0"/><path d="m83.238281 191.066406c-.304687 0-.617187-.027344-.921875-.085937-13.949218-2.617188-24.074218-14.15625-24.074218-27.433594 0-15.09375 12.648437-27.375 28.800781-27.972656 1.429687-.050781 2.808593.507812 3.796875 1.542969.988281 1.03125 1.488281 2.433593 1.371094 3.859374l-.175782 2.222657c-.671875 8.347656-1.507812 18.734375-2.761718 32.351562v.019531l-1.054688 10.976563c-.132812 1.394531-.851562 2.671875-1.972656 3.515625-.875.65625-1.933594 1.003906-3.007813 1.003906zm-1.503906-44.546875c-7.894531 2.421875-13.492187 9.128907-13.492187 17.027344 0 6.738281 4.234374 12.804687 10.613281 15.875l.457031-4.792969c1.050781-11.40625 1.808594-20.542968 2.421875-28.109375zm2.558594 28.574219h.019531zm0 0"/><path d="m244.503906 154.933594c-1.558594 0-3.066406-.734375-4.027344-2.039063-3.441406-4.679687-8.722656-7.367187-14.484374-7.375-2.605469-.003906-4.769532-2.003906-4.976563-4.597656-.40625-5.027344-.75-9.09375-1.078125-12.453125-.140625-1.402344.324219-2.800781 1.269531-3.847656.949219-1.046875 2.292969-1.640625 3.707031-1.640625h19.589844c2.761719 0 5 2.238281 5 5v21.949219c0 2.160156-1.386718 4.078124-3.441406 4.75-.515625.171874-1.039062.253906-1.558594.253906zm-13.867187-19.015625c3.121093.539062 6.117187 1.601562 8.867187 3.125v-6.058594h-9.113281c.078125.933594.160156 1.910156.246094 2.933594zm0 0"/><path d="m68.03125 155.042969c-.546875 0-1.101562-.089844-1.640625-.277344-2.011719-.703125-3.359375-2.59375-3.359375-4.722656v-22.0625c0-2.761719 2.238281-5 5-5h20.273438c1.410156 0 2.753906.597656 3.703124 1.640625.945313 1.039062 1.410157 2.4375 1.273438 3.839844-.328125 3.382812-.664062 7.464843-1.066406 12.464843 0 .019531-.003906.042969-.003906.0625l-.050782.621094c0 .015625 0 .035156-.003906.050781-.21875 2.75-2.652344 4.773438-5.378906 4.582032-.621094-.046876-1.203125-.210938-1.738282-.460938-5.246093.761719-9.925781 3.371094-13.085937 7.363281-.964844 1.222657-2.421875 1.898438-3.921875 1.898438zm5.003906-22.0625v6.429687c2.933594-1.617187 6.15625-2.757812 9.546875-3.359375.085938-1.070312.171875-2.09375.253907-3.070312zm0 0"/><path d="m295.167969 512h-277.800781c-4.753907 0-9.351563-1.980469-12.617188-5.433594s-4.988281-8.15625-4.7226562-12.898437l9.0312502-162.1875c.808594-14.511719 10.820312-26.644531 24.917968-30.195313l37.742188-9.5c7.171875-1.804687 14.335938-3.964844 21.304688-6.421875l19.359374-9.546875c3.800782-1.875 6.160157-5.667968 6.160157-9.902344v-8.898437c0-2.007813 1.207031-3.824219 3.058593-4.605469 1.847657-.785156 3.992188-.378906 5.429688 1.023438l.554688.539062c7.195312 7.003906 16.6875 10.867188 26.730468 10.867188h4.375c10.042969 0 19.53125-3.863282 26.730469-10.867188 1.441406-1.402344 3.621094-1.84375 5.472656-1.066406 1.851563.785156 3.097657 2.558594 3.097657 4.566406v8.441406c0 4.234376 2.359374 8.03125 6.160156 9.902344l20.328125 10.027344c6.308593 2.132812 12.789062 4.042969 19.269531 5.675781l38.808594 9.769531c14.097656 3.546876 24.109375 15.679688 24.917968 30.195313l9.035157 162.1875c.261719 4.742187-1.460938 9.445313-4.726563 12.898437-3.265625 3.449219-7.863281 5.429688-12.617187 5.429688zm-166.671875-244.625c-.503906 7.472656-4.886719 14.058594-11.6875 17.410156l-19.628906 9.679688c-.175782.085937-.355469.164062-.542969.226562-7.34375 2.601563-14.90625 4.886719-22.472657 6.792969l-37.746093 9.5c-9.828125 2.472656-16.808594 10.933594-17.371094 21.050781l-9.035156 162.1875c-.113281 2.042969.597656 3.984375 2.003906 5.472656 1.40625 1.484376 3.308594 2.300782 5.351563 2.300782h277.800781c2.046875 0 3.945312-.816406 5.351562-2.300782 1.40625-1.488281 2.117188-3.429687 2.003907-5.472656l-9.03125-162.1875c-.566407-10.121094-7.546876-18.578125-17.375-21.050781l-38.808594-9.769531c-6.847656-1.722656-13.695313-3.746094-20.355469-6.011719-.207031-.070313-.40625-.15625-.601563-.25l-20.625-10.167969c-6.714843-3.3125-11.070312-9.777344-11.664062-17.140625-7.574219 4.695313-16.296875 7.191407-25.371094 7.191407h-4.375c-9.265625 0-18.160156-2.605469-25.820312-7.460938zm0 0"/><path d="m252.53125 509.34375c-2.761719 0-5-2.238281-5-5v-105.046875c0-2.761719 2.238281-5 5-5s5 2.238281 5 5v105.046875c0 2.761719-2.238281 5-5 5zm0 0"/><path d="m60.007812 509.34375c-2.761718 0-5-2.238281-5-5v-105.046875c0-2.761719 2.238282-5 5-5 2.761719 0 5 2.238281 5 5v105.046875c0 2.761719-2.238281 5-5 5zm0 0"/><path d="m251.167969 132.980469h-189.800781c-8.09375 0-14.683594-6.585938-14.683594-14.683594 0-8.09375 6.585937-14.683594 14.683594-14.683594h189.800781c8.09375 0 14.683593 6.589844 14.683593 14.683594 0 8.097656-6.585937 14.683594-14.683593 14.683594zm-189.800781-19.363281c-2.582032 0-4.683594 2.101562-4.683594 4.683593s2.101562 4.683594 4.683594 4.683594h189.800781c2.582031 0 4.683593-2.101563 4.683593-4.683594s-2.101562-4.683593-4.683593-4.683593zm0 0"/><path d="m242.75 113.617188h-71.859375c-2.761719 0-5-2.238282-5-5v-93.519532c0-1.480468.65625-2.882812 1.792969-3.832031 1.136718-.953125 2.636718-1.351563 4.089844-1.089844 44.023437 7.878907 75.976562 46.023438 75.976562 90.695313v7.746094c0 2.757812-2.238281 5-5 5zm-66.859375-10h61.859375v-2.746094c0-37.804688-25.671875-70.363282-61.859375-79.578125zm0 0"/><path d="m142.234375 113.617188h-73.792969c-2.761718 0-5-2.238282-5-5v-7.746094c0-44.996094 33.542969-84.144532 78.023438-91.0625 1.445312-.222656 2.914062.199218 4.023437 1.144531 1.109375.949219 1.75 2.335937 1.75 3.796875v93.867188c-.003906 2.757812-2.242187 5-5.003906 5zm-68.792969-10h63.792969v-82.8125c-36.753906 8.488281-63.792969 41.917968-63.792969 80.0625zm0 0"/><path d="m142.234375 113.617188h-24.703125c-2.761719 0-5-2.238282-5-5v-86.074219c0-1.90625 1.085938-3.648438 2.800781-4.488281 8.304688-4.066407 17.097657-6.84375 26.132813-8.246094 1.441406-.222656 2.910156.195312 4.019531 1.144531s1.75 2.335937 1.75 3.792969v93.867187c0 2.761719-2.238281 5.003907-5 5.003907zm-19.699219-10h14.703125v-82.8125c-5.027343 1.160156-9.945312 2.808593-14.703125 4.921874zm0 0"/><path d="m195.003906 113.617188h-24.113281c-2.761719 0-5-2.238282-5-5v-93.519532c0-1.480468.65625-2.882812 1.792969-3.832031 1.136718-.953125 2.636718-1.351563 4.089844-1.089844 8.835937 1.582031 17.414062 4.476563 25.503906 8.613281 1.671875.855469 2.726562 2.574219 2.726562 4.453126v85.375c0 2.757812-2.238281 5-5 5zm-19.113281-10h14.113281v-77.253907c-4.566406-2.125-9.285156-3.820312-14.113281-5.0625zm0 0"/><path d="m170.890625 113.617188h-28.65625c-2.761719 0-5-2.238282-5-5v-95.550782c0-7.203125 5.863281-13.066406 13.066406-13.066406h12.523438c7.207031 0 13.066406 5.863281 13.066406 13.066406v95.546875c0 2.761719-2.234375 5.003907-5 5.003907zm-23.65625-10h18.65625v-90.550782c0-1.691406-1.375-3.066406-3.066406-3.066406h-12.523438c-1.691406 0-3.066406 1.375-3.066406 3.066406zm0 0"/><path d="m190.640625 348.226562c-.921875 0-1.859375-.253906-2.691406-.789062l-28.070313-18c-1.207031-.777344-2.023437-2.035156-2.242187-3.457031-.21875-1.417969.1875-2.863281 1.109375-3.964844l36.972656-44.132813c1.480469-1.769531 3.976562-2.289062 6.042969-1.273437l18.714843 9.226563c1.367188.460937 2.742188.882812 4.121094 1.3125l1.445313.449218c1.503906.46875 2.699219 1.621094 3.222656 3.105469s.320313 3.128906-.554687 4.441406l-33.90625 50.859375c-.957032 1.441406-2.542969 2.222656-4.164063 2.222656zm-20.582031-24.140624 19.152344 12.28125 27.503906-41.25c-.125-.050782-.246094-.105469-.363282-.164063l-15.492187-7.636719zm0 0"/><path d="m122.476562 348.226562c-1.617187 0-3.203124-.78125-4.167968-2.222656l-34.03125-51.050781c-.871094-1.304687-1.078125-2.941406-.5625-4.421875.515625-1.476562 1.695312-2.628906 3.1875-3.109375 2.046875-.664063 4.089844-1.34375 6.121094-2.058594l18.164062-8.957031c2.066406-1.019531 4.5625-.492188 6.042969 1.277344l37.140625 44.335937c.921875 1.101563 1.328125 2.542969 1.113281 3.964844-.21875 1.417969-1.035156 2.675781-2.246094 3.453125l-28.066406 18c-.835937.535156-1.773437.789062-2.695313.789062zm-26.257812-53.386718 27.6875 41.527344 19.152344-12.28125-30.972656-36.972657-14.90625 7.351563c-.175782.085937-.355469.160156-.542969.226562-.136719.046875-.277344.101563-.417969.148438zm0 0"/><path d="m162.578125 330.226562h-12.039063c-1.480468 0-2.882812-.652343-3.835937-1.789062l-37.140625-44.335938c-.984375-1.175781-1.375-2.738281-1.058594-4.242187.316406-1.5 1.300782-2.773437 2.679688-3.453125l1.199218-.59375c3.800782-1.871094 6.160157-5.667969 6.160157-9.902344v-8.894531c0-2.011719 1.207031-3.824219 3.058593-4.609375 1.847657-.78125 3.992188-.378906 5.429688 1.027344l.554688.535156c7.195312 7.007812 16.6875 10.867188 26.730468 10.867188h4.375c10.042969 0 19.53125-3.859376 26.730469-10.867188 1.441406-1.402344 3.621094-1.84375 5.472656-1.0625 1.851563.78125 3.097657 2.554688 3.097657 4.566406v8.441406c0 4.234376 2.359374 8.03125 6.160156 9.902344l1.609375.792969c1.375.679687 2.367187 1.953125 2.683593 3.453125.316407 1.503906-.074218 3.066406-1.0625 4.242188l-36.96875 44.132812c-.953124 1.136719-2.355468 1.789062-3.835937 1.789062zm-9.707031-10h7.375l31.691406-37.832031c-4.542969-3.585937-7.40625-8.878906-7.878906-14.75-7.574219 4.695313-16.292969 7.191407-25.371094 7.191407h-4.375c-9.265625 0-18.15625-2.605469-25.816406-7.460938-.398438 5.824219-3.144532 11.105469-7.554688 14.742188zm0 0"/><path d="m156.269531 356.824219c-12.566406 0-23.242187-9.410157-24.835937-21.890625-.246094-1.914063.636718-3.796875 2.257812-4.839844l14.148438-9.074219c.804687-.515625 1.742187-.792969 2.699218-.792969h12.039063c.957031 0 1.894531.277344 2.699219.792969l13.617187 8.734375c1.601563 1.023438 2.480469 2.867188 2.273438 4.753906-1.402344 12.722657-12.105469 22.316407-24.898438 22.316407zm-14.234375-20.203125c2.042969 5.984375 7.714844 10.203125 14.234375 10.203125 6.675781 0 12.402344-4.347657 14.34375-10.5l-9.5-6.09375h-9.109375zm0 0"/><path d="m156.269531 496.386719c-2.726562 0-5.449219-1.035157-7.523437-3.109375l-17.777344-17.78125c-2.28125-2.277344-3.394531-5.429688-3.058594-8.636719l12.578125-118.769531c.183594-1.726563 1.25-3.234375 2.816407-3.984375 1.5625-.75 3.410156-.632813 4.871093.308593 4.871094 3.148438 11.324219 3.144532 16.1875.007813 1.460938-.941406 3.304688-1.058594 4.871094-.3125 1.566406.75 2.632813 2.257813 2.816406 3.984375l12.574219 118.761719c.339844 3.210937-.773438 6.363281-3.054688 8.644531l-17.777343 17.777344c-2.078125 2.074218-4.800781 3.109375-7.523438 3.109375zm-6.558593-140.445313-11.855469 111.96875c-.019531.195313.046875.382813.183593.519532l17.777344 17.777343c.246094.246094.652344.246094.902344 0l17.777344-17.777343c.136718-.136719.203125-.324219.183594-.519532l-11.855469-111.964844c-4.25 1.164063-8.859375 1.164063-13.113281-.003906zm0 0"/></g></svg>