<svg height="511pt" viewBox="-90 0 511 511.98676" width="511pt" xmlns="http://www.w3.org/2000/svg"><path d="m326.921875 493.113281-9.597656-172.324219c-.726563-13.015624-9.828125-24.042968-22.464844-27.222656l-41.234375-10.382812c-7.15625-1.800782-14.234375-3.890625-21.21875-6.265625l-18.242188-8.992188-3.667968-1.8125c-5.824219-2.867187-9.507813-8.796875-9.507813-15.285156v-4.089844c-10.402343 6.558594-22.234375 10.453125-34.769531 10.453125-12.539062 0-24.371094-3.894531-34.773438-10.453125v4.089844c0 6.492187-3.683593 12.417969-9.507812 15.289063l-2.699219 1.332031-18.152343 8.949219c-7.6875 2.722656-15.496094 5.082031-23.40625 7.074218l-40.101563 10.09375c-12.640625 3.179688-21.742187 14.210938-22.46875 27.222656l-9.597656 172.324219c-.417969 7.535157 5.578125 13.871094 13.121093 13.871094h295.171876c7.542968.003906 13.535156-6.335937 13.117187-13.871094zm0 0" fill="#1b87c9"/><path d="m267.539062 360.878906h-27.730468v9.226563c0 11.125-9.015625 20.140625-20.140625 20.140625h-106.902344c-11.121094 0-20.140625-9.015625-20.140625-20.140625v-9.226563h-27.730469c-.164062 0-.320312-.035156-.480469-.046875v146.15625h203.605469v-146.15625c-.160156.011719-.316406.046875-.480469.046875zm0 0" fill="#515050"/><path d="m267.539062 337.382812c.164063 0 .320313.035157.480469.050782v-50.625l-14.398437-3.625c-4.640625-1.167969-9.238282-2.503906-13.8125-3.914063v58.113281zm0 0" fill="#515050"/><path d="m64.894531 337.382812h27.730469v-58.171874c-4.941406 1.5625-9.921875 2.992187-14.945312 4.261718l-13.269532 3.339844v50.621094c.164063-.015625.320313-.050782.484375-.050782zm0 0" fill="#515050"/><path d="m267.539062 360.878906h-28.402343c-2.96875 0-5.378907-2.40625-5.378907-5.378906v-12.738281c0-2.96875 2.410157-5.378907 5.378907-5.378907h28.402343c2.96875 0 5.378907 2.410157 5.378907 5.378907v12.738281c-.003907 2.972656-2.410157 5.378906-5.378907 5.378906zm0 0" fill="#1b87c9"/><path d="m93.296875 360.878906h-28.402344c-2.96875 0-5.378906-2.40625-5.378906-5.378906v-12.738281c0-2.96875 2.410156-5.378907 5.378906-5.378907h28.402344c2.96875 0 5.378906 2.410157 5.378906 5.378907v12.738281c-.003906 2.972656-2.410156 5.378906-5.378906 5.378906zm0 0" fill="#1b87c9"/><path d="m223.851562 418.886719h-115.269531c-8.679687 0-15.78125 7.101562-15.78125 15.785156v56.53125c0 8.679687 7.101563 15.785156 15.78125 15.785156h115.265625c8.679688 0 15.785156-7.101562 15.785156-15.785156v-56.53125c0-8.683594-7.101562-15.785156-15.78125-15.785156zm0 0" fill="#3f3f3f"/><path d="m239.808594 279.277344c-2.476563-.75-4.949219-1.523438-7.402344-2.359375l-18.242188-8.996094-3.671874-1.808594c-5.820313-2.871093-9.507813-8.796875-9.507813-15.289062v-4.085938c-10.398437 6.558594-22.234375 10.453125-34.769531 10.453125s-24.367188-3.894531-34.769532-10.453125v4.089844c0 6.488281-3.6875 12.417969-9.507812 15.285156l-2.703125 1.332031-18.152344 8.953126c-2.804687.992187-5.625 1.929687-8.457031 2.824218v24.351563c15 25.007812 42.363281 41.789062 73.589844 41.789062 31.222656 0 58.585937-16.78125 73.589844-41.789062v-24.296875zm0 0" fill="#30a9e5"/><path d="m91.554688 174.5v-48.769531c-.816407-.066407-1.640626-.105469-2.472657-.105469-16.714843 0-30.261719 13.550781-30.261719 30.265625 0 16.710937 13.546876 30.261719 30.261719 30.261719 1.128907 0 2.230469-.097656 3.324219-.230469-.558594-3.789063-.851562-7.605469-.851562-11.421875zm0 0" fill="#fcb275"/><path d="m240.878906 125.773438v48.726562c0 3.8125-.292968 7.632812-.851562 11.421875 1.089844.132813 2.195312.230469 3.324218.230469 16.714844 0 30.261719-13.550782 30.261719-30.261719 0-17.738281-15.191406-31.574219-32.734375-30.117187zm0 0" fill="#fcb275"/><path d="m200.988281 250.828125c0 6.488281 3.683594 12.417969 9.507813 15.285156l3.667968 1.8125 18.242188 8.992188c6.792969 2.3125 13.675781 4.339843 20.628906 6.105469.625-2.898438.996094-5.894532.996094-8.980469 0-4.367188-.648438-8.585938-1.855469-12.558594-.8125-2.671875.003907-5.59375 2.089844-7.449219 7.285156-6.46875 11.875-15.902344 11.875-26.410156 0-7.398438-2.296875-14.25-6.195313-19.917969-1.628906-2.371093-1.605468-5.441406-.167968-7.9375 2.296875-3.996093 3.535156-8.675781 3.308594-13.667969-.097657-2.199218-.519532-4.320312-1.167969-6.347656-5.128907 3.996094-11.5625 6.398438-18.566407 6.398438-1.128906 0-2.234374-.097656-3.324218-.226563 0-.007812 0-.011719 0-.015625-3.613282 24.558594-18.535156 47.878906-39.039063 60.816406zm0 0" fill="#7c292e"/><path d="m66.335938 227.625c0 10.507812 4.589843 19.941406 11.871093 26.410156 2.089844 1.855469 2.902344 4.777344 2.09375 7.449219-1.207031 3.972656-1.859375 8.191406-1.859375 12.558594 0 3.082031.375 6.070312.996094 8.964843 7.304688-1.894531 14.53125-4.089843 21.644531-6.609374l18.152344-8.949219 2.703125-1.332031c5.820312-2.871094 9.507812-8.796876 9.507812-15.289063v-4.101563c-20.507812-12.9375-35.425781-36.257812-39.042968-60.816406v.015625c-1.089844.128907-2.195313.226563-3.320313.226563-6.992187 0-13.410156-2.394532-18.53125-6.375-.648437 2.019531-1.066406 4.132812-1.164062 6.324218-.226563 4.992188 1.011719 9.671876 3.308593 13.667969 1.433594 2.496094 1.460938 5.566407-.171874 7.9375-3.894532 5.667969-6.1875 12.519531-6.1875 19.917969zm0 0" fill="#7c292e"/><path d="m166.21875 121.039062c-46.949219 0-93.898438-5.703124-139.539062-17.117187-5.734376-1.429687-9.21875-7.242187-7.785157-12.972656 1.433594-5.734375 7.246094-9.21875 12.972657-7.785157 87.894531 21.972657 180.804687 21.972657 268.699218 0 5.730469-1.4375 11.539063 2.050782 12.972656 7.785157 1.433594 5.730469-2.050781 11.539062-7.785156 12.972656-45.640625 11.410156-92.589844 17.117187-139.535156 17.117187zm0 0" fill="#9e5f57"/><path d="m257.105469 92.167969-17.34375-77.738281c-1.535157-6.890626-8.632813-10.996094-15.371094-8.890626l-53.878906 16.835938c-2.339844.734375-4.851563.734375-7.195313 0l-53.878906-16.835938c-6.738281-2.105468-13.835938 2-15.371094 8.890626l-17.394531 77.953124c59.660156 9.734376 120.800781 9.664063 180.433594-.214843zm0 0" fill="#8c5046"/><path d="m163.316406 22.375c2.34375.734375 4.855469.734375 7.195313 0l10.648437-3.328125c-.351562-7.363281-6.417968-13.234375-13.875-13.234375-7.53125 0-13.648437 5.992188-13.882812 13.464844zm0 0" fill="#8c5046"/><path d="m67.53125 112.542969c.816406 5.964843 2.054688 12.246093 3.785156 18.886719 4.992188-3.632813 11.117188-5.800782 17.765625-5.800782.832031 0 1.65625.035156 2.472657.105469v-1.90625c1.570312-2.410156 3.574218-4.78125 6.121093-6.871094-10.082031-1.203125-20.132812-2.675781-30.144531-4.414062zm0 0" fill="#7c292e"/><path d="m236.605469 116.742188c1.578125.382812 3.019531.648437 4.273437.820312v8.210938c6.382813-.53125 12.445313.984374 17.589844 3.957031 2.632812-4.808594 4.046875-10.691407 4.816406-16.898438-8.863281 1.511719-17.761718 2.816407-26.679687 3.910157zm0 0" fill="#7c292e"/><path d="m166.21875 121.039062c-22.898438 0-45.796875-1.367187-68.542969-4.082031-2.542969 2.089844-4.546875 4.460938-6.121093 6.867188v50.675781c0 41.0625 33.597656 82.691406 74.664062 82.691406 41.0625 0 74.660156-41.628906 74.660156-82.691406v-56.9375c-1.253906-.171875-2.695312-.4375-4.273437-.820312-23.355469 2.863281-46.871094 4.296874-70.386719 4.296874zm0 0" fill="#fcb275"/><path d="m166.21875 325.183594c30.632812 0 56.421875-21.105469 63.609375-49.535156l-15.664063-7.726563-3.671874-1.808594c-5.820313-2.871093-9.507813-8.796875-9.507813-15.289062v-4.085938c-10.398437 6.558594-22.234375 10.453125-34.769531 10.453125s-24.367188-3.894531-34.769532-10.453125v4.089844c0 6.488281-3.6875 12.417969-9.507812 15.285156l-2.703125 1.332031-16.628906 8.203126c7.1875 28.429687 32.976562 49.535156 63.613281 49.535156zm0 0" fill="#fcb275"/><path d="m223.851562 418.886719h-115.269531c-8.679687 0-15.78125 7.101562-15.78125 15.785156v11.503906c0 8.679688 7.101563 15.78125 15.78125 15.78125h115.265625c8.679688 0 15.785156-7.101562 15.785156-15.78125v-11.503906c0-8.683594-7.101562-15.785156-15.78125-15.785156zm0 0" fill="#515050"/><g fill="#231f20"><path d="m313.800781 511.988281h-295.167969c-4.964843 0-9.769531-2.070312-13.179687-5.675781s-5.207031-8.519531-4.933594-13.472656l9.597657-172.328125c.851562-15.28125 11.394531-28.058594 26.238281-31.796875l40.105469-10.09375c7.632812-1.921875 15.261718-4.21875 22.679687-6.835938l20.589844-10.152344c4.144531-2.042968 6.71875-6.183593 6.71875-10.804687v-4.085937c0-1.824219.988281-3.5 2.582031-4.378907 1.597656-.882812 3.542969-.824219 5.082031.148438 10.191407 6.425781 20.988281 9.683593 32.105469 9.683593 11.113281 0 21.914062-3.257812 32.101562-9.683593 1.539063-.972657 3.484376-1.03125 5.082032-.148438 1.59375.878907 2.582031 2.554688 2.582031 4.378907v4.085937c0 4.621094 2.574219 8.761719 6.71875 10.804687l21.621094 10.660157c6.726562 2.28125 13.628906 4.3125 20.515625 6.046875l41.238281 10.378906c14.839844 3.734375 25.386719 16.515625 26.238281 31.792969l9.597656 172.328125c.273438 4.953125-1.523437 9.867187-4.933593 13.472656-3.410157 3.605469-8.214844 5.675781-13.179688 5.675781zm-177.746093-256.964843c-1.28125 6.710937-5.601563 12.46875-11.902344 15.574218l-20.855469 10.285156c-.179687.085938-.359375.164063-.542969.226563-7.796875 2.761719-15.824218 5.1875-23.855468 7.210937l-40.101563 10.09375c-10.578125 2.660157-18.089844 11.765626-18.695313 22.652344l-9.597656 172.328125c-.125 2.257813.660156 4.402344 2.210938 6.042969 1.554687 1.644531 3.652344 2.546875 5.914062 2.546875h295.171875c2.257813 0 4.359375-.902344 5.914063-2.546875 1.550781-1.640625 2.339844-3.789062 2.210937-6.042969l-9.597656-172.328125c-.605469-10.886718-8.117187-19.992187-18.695313-22.652344l-41.234374-10.382812c-7.253907-1.824219-14.523438-3.96875-21.605469-6.378906-.207031-.070313-.40625-.15625-.601563-.25l-21.914062-10.804688c-6.300782-3.109375-10.621094-8.867187-11.898438-15.578125-9.644531 4.710938-19.9375 7.167969-30.164062 7.167969-10.226563 0-20.515625-2.457031-30.160156-7.164062zm0 0"/><path d="m166.34375 219.089844c-6.261719 0-11.960938-2.214844-15.648438-6.074219-1.910156-2-1.835937-5.164063.164063-7.070313 1.996094-1.910156 5.160156-1.832031 7.066406.164063 1.753907 1.835937 4.980469 2.980469 8.417969 2.980469s6.660156-1.144532 8.414062-2.980469c1.90625-1.996094 5.070313-2.070313 7.070313-.164063 2 1.910157 2.070313 5.074219.164063 7.070313-3.6875 3.859375-9.390626 6.074219-15.648438 6.074219zm0 0"/><path d="m203.597656 147.144531c-.792968 0-1.59375-.191406-2.34375-.585937-1.265625-.675782-4.164062-1.355469-7.789062-1.355469-3.628906 0-6.527344.679687-7.792969 1.355469-2.433594 1.292968-5.46875.367187-6.761719-2.070313-1.296875-2.4375-.371094-5.464843 2.066406-6.761719 3.015626-1.601562 7.566407-2.523437 12.488282-2.523437 4.917968 0 9.46875.917969 12.484375 2.523437 2.4375 1.296876 3.363281 4.324219 2.066406 6.761719-.898437 1.691407-2.628906 2.65625-4.417969 2.65625zm0 0"/><path d="m149.105469 147.144531c-.792969 0-1.597657-.191406-2.34375-.585937-1.265625-.675782-4.164063-1.355469-7.789063-1.355469-3.628906 0-6.527344.679687-7.792968 1.355469-2.4375 1.292968-5.464844.367187-6.761719-2.070313s-.371094-5.464843 2.066406-6.761719c3.015625-1.601562 7.566406-2.523437 12.488281-2.523437 4.917969 0 9.46875.917969 12.484375 2.523437 2.4375 1.296876 3.363281 4.324219 2.066407 6.761719-.898438 1.691407-2.628907 2.65625-4.417969 2.65625zm0 0"/><path d="m139.777344 166.742188c-3.3125 0-6-2.683594-6-6v-1.109376c0-3.3125 2.6875-6 6-6 3.316406 0 6 2.6875 6 6v1.109376c0 3.316406-2.683594 6-6 6zm0 0"/><path d="m192.910156 167.59375c-3.316406 0-6-2.6875-6-6v-1.109375c0-3.3125 2.683594-6 6-6 3.3125 0 6 2.6875 6 6v1.109375c0 3.3125-2.6875 6-6 6zm0 0"/><path d="m268.019531 511.988281h-203.605469c-2.761718 0-5-2.238281-5-5v-146.15625c0-1.40625.589844-2.746093 1.625-3.691406 1.039063-.949219 2.421876-1.414063 3.824219-1.289063.046875.003907.15625.015626.253907.027344h27.507812c2.761719 0 5 2.238282 5 5v9.226563c0 8.347656 6.792969 15.140625 15.140625 15.140625h106.902344c8.347656 0 15.140625-6.792969 15.140625-15.140625v-9.226563c0-2.761718 2.238281-5 5-5l27.757812-.027344c1.402344-.132812 2.789063.339844 3.828125 1.289063 1.035157.945313 1.625 2.285156 1.625 3.691406v146.15625c0 2.757813-2.238281 5-5 5zm-198.605469-10h193.605469v-136.109375h-18.210937v4.226563c0 13.859375-11.277344 25.140625-25.140625 25.140625h-106.902344c-13.863281 0-25.140625-11.28125-25.140625-25.140625v-4.226563h-18.210938zm197.773438-146.09375c-.019531.003907-.035156.003907-.050781.007813zm0 0"/><path d="m268.019531 342.433594c-.160156 0-.320312-.007813-.480469-.023438-.039062-.003906-.132812-.011718-.21875-.027344h-27.507812c-2.761719 0-5-2.234374-5-5v-58.113281c0-1.589843.753906-3.082031 2.03125-4.023437s2.921875-1.226563 4.441406-.753906c5.183594 1.597656 9.492188 2.820312 13.558594 3.84375l14.402344 3.621093c2.222656.5625 3.777344 2.558594 3.777344 4.851563v50.621094c0 1.410156-.59375 2.753906-1.636719 3.703124-.929688.84375-2.128907 1.300782-3.367188 1.300782zm-.480469-.050782h.019532zm-22.730468-10h18.210937v-41.675781l-10.617187-2.675781c-2.417969-.605469-4.90625-1.277344-7.59375-2.050781zm0 0"/><path d="m64.414062 342.433594c-1.238281 0-2.4375-.457032-3.363281-1.296875-1.042969-.949219-1.636719-2.292969-1.636719-3.703125v-50.621094c0-2.292969 1.558594-4.292969 3.777344-4.851562l13.269532-3.339844c4.71875-1.1875 9.652343-2.589844 14.660156-4.175782 1.515625-.480468 3.175781-.207031 4.460937.734376 1.285157.941406 2.046875 2.441406 2.046875 4.035156v58.171875c0 2.761719-2.238281 5-5 5l-27.734375.027343c-.164062.011719-.324219.019532-.480469.019532zm.878907-.070313-.039063.003907c.011719-.003907.023438-.003907.039063-.003907zm4.121093-9.980469h18.210938v-46.433593c-2.960938.863281-5.878906 1.652343-8.726562 2.367187l-9.488282 2.386719v41.679687zm0 0"/><path d="m267.539062 365.878906h-28.402343c-5.722657 0-10.375-4.65625-10.375-10.375v-12.742187c0-5.722657 4.65625-10.375 10.375-10.375h28.402343c5.722657 0 10.375 4.65625 10.375 10.375v12.742187c0 5.71875-4.65625 10.375-10.375 10.375zm-28.402343-23.496094c-.207031 0-.375.171876-.375.378907v12.738281c0 .207031.167969.375.375.375h28.402343c.207032 0 .375-.167969.375-.375v-12.738281c0-.207031-.167968-.378907-.375-.378907zm0 0"/><path d="m93.296875 365.878906h-28.402344c-5.722656 0-10.375-4.65625-10.375-10.375v-12.742187c0-5.722657 4.65625-10.375 10.375-10.375h28.402344c5.722656 0 10.378906 4.65625 10.378906 10.375v12.742187c0 5.71875-4.65625 10.375-10.378906 10.375zm-28.402344-23.496094c-.207031 0-.375.171876-.375.378907v12.738281c0 .207031.167969.375.375.375h28.402344c.207031 0 .378906-.167969.378906-.375v-12.738281c0-.207031-.171875-.378907-.378906-.378907zm0 0"/><path d="m223.847656 511.988281h-115.265625c-11.457031 0-20.78125-9.324219-20.78125-20.785156v-56.535156c0-11.460938 9.324219-20.785157 20.78125-20.785157h115.265625c11.460938 0 20.785156 9.324219 20.785156 20.785157v56.535156c0 11.460937-9.324218 20.785156-20.785156 20.785156zm-115.265625-88.101562c-5.945312 0-10.78125 4.835937-10.78125 10.785156v56.53125c0 5.949219 4.835938 10.785156 10.78125 10.785156h115.265625c5.949219 0 10.785156-4.835937 10.785156-10.785156v-56.53125c0-5.945313-4.835937-10.785156-10.785156-10.785156zm0 0"/><path d="m166.21875 350.363281c-31.675781 0-61.519531-16.941406-77.878906-44.21875-.464844-.777343-.710938-1.664062-.710938-2.570312v-24.351563c0-2.183594 1.414063-4.109375 3.492188-4.769531 2.839844-.894531 5.464844-1.769531 8.019531-2.671875l20.589844-10.152344c4.144531-2.042968 6.71875-6.183594 6.71875-10.804687v-4.085938c0-1.824219.988281-3.5 2.582031-4.378906 1.597656-.882813 3.542969-.824219 5.082031.148437 10.191407 6.425782 20.988281 9.683594 32.105469 9.683594 11.113281 0 21.914062-3.257812 32.101562-9.683594 1.539063-.972656 3.484376-1.03125 5.082032-.148437 1.59375.878906 2.582031 2.554687 2.582031 4.378906v4.085938c0 4.621093 2.574219 8.761719 6.71875 10.804687l21.617187 10.65625c2.296876.78125 4.617188 1.503906 6.9375 2.210938 2.109376.636718 3.550782 2.582031 3.550782 4.78125v24.296875c0 .90625-.246094 1.792969-.714844 2.574219-16.359375 27.273437-46.203125 44.214843-77.875 44.214843zm-68.59375-48.199219c14.707031 23.597657 40.863281 38.199219 68.589844 38.199219 27.726562 0 53.882812-14.601562 68.59375-38.195312v-19.203125c-1.453125-.457032-2.753906-.886719-4.015625-1.316406-.207031-.070313-.40625-.152344-.601563-.25l-21.914062-10.804688c-6.300782-3.105469-10.621094-8.863281-11.898438-15.574219-9.648437 4.707031-19.9375 7.167969-30.164062 7.167969-10.230469 0-20.519532-2.460938-30.164063-7.167969-1.28125 6.710938-5.601562 12.46875-11.902343 15.574219l-20.855469 10.285156c-.179688.085938-.359375.164063-.542969.226563-1.671875.59375-3.371094 1.171875-5.128906 1.753906v19.304687zm0 0"/><path d="m89.082031 191.152344c-19.441406 0-35.261719-15.816406-35.261719-35.261719s15.820313-35.261719 35.261719-35.261719c.976563 0 1.9375.042969 2.890625.121094 2.589844.214844 4.582032 2.382812 4.582032 4.984375v48.765625c0 3.511719.269531 7.109375.796874 10.695312.199219 1.335938-.152343 2.695313-.972656 3.765626-.820312 1.070312-2.039062 1.769531-3.378906 1.929687-1.523438.179687-2.734375.261719-3.917969.261719zm-2.527343-60.398438c-12.746094 1.269532-22.734376 12.058594-22.734376 25.136719 0 13.164063 10.125 24.011719 23 25.160156-.175781-2.199219-.265624-4.386719-.265624-6.550781zm0 0"/><path d="m243.351562 191.152344c-1.1875 0-2.394531-.082032-3.917968-.261719-1.339844-.164063-2.558594-.859375-3.378906-1.929687-.820313-1.070313-1.167969-2.429688-.972657-3.765626.527344-3.59375.796875-7.191406.796875-10.695312v-48.726562c0-2.601563 1.996094-4.769532 4.585938-4.984376 9.804687-.804687 19.550781 2.542969 26.785156 9.203126 7.222656 6.644531 11.363281 16.085937 11.363281 25.898437 0 19.441406-15.816406 35.261719-35.261719 35.261719zm2.527344-60.359375v43.707031c0 2.160156-.089844 4.347656-.265625 6.550781 12.875-1.144531 23-11.992187 23-25.160156 0-7.132813-2.886719-13.714844-8.132812-18.542969-4.050781-3.726562-9.203125-6.007812-14.601563-6.554687zm0 0"/><path d="m253.035156 288.023438c-.410156 0-.824218-.046876-1.230468-.152344-7.148438-1.816406-14.214844-3.910156-21.007813-6.21875-.207031-.070313-.40625-.152344-.601563-.25l-21.914062-10.804688c-7.585938-3.738281-12.292969-11.316406-12.292969-19.769531v-4.101563c0-1.71875.878907-3.316406 2.332031-4.230468 19.257813-12.148438 33.347657-34.113282 36.761719-57.316406.003907-.03125.007813-.0625.015625-.09375.453125-2.707032 2.996094-4.542969 5.707032-4.121094.070312.011718.132812.023437.203124.039062.925782.101563 1.664063.148438 2.34375.148438 5.648438 0 11.003907-1.847656 15.492188-5.34375 1.289062-1.003906 2.988281-1.316406 4.546875-.835938 1.558594.480469 2.789063 1.695313 3.289063 3.25.816406 2.550782 1.289062 5.125 1.402343 7.652344.257813 5.746094-1.113281 11.414062-3.96875 16.378906-.40625.707032-.628906 1.761719-.042969 2.613282 4.625 6.730468 7.070313 14.597656 7.070313 22.753906 0 11.507812-4.941406 22.496094-13.550781 30.148437-.628906.558594-.875 1.445313-.625 2.257813 1.371094 4.539062 2.066406 9.25 2.066406 14.011718 0 3.289063-.359375 6.570313-1.105469 10.035157-.285156 1.328125-1.097656 2.480469-2.253906 3.195312-.800781.5-1.714844.753907-2.636719.753907zm-18.710937-15.734376c4.75 1.609376 9.640625 3.109376 14.597656 4.472657.074219-.914063.109375-1.816407.109375-2.71875 0-3.777344-.550781-7.519531-1.640625-11.113281-1.375-4.535157.023437-9.492188 3.554687-12.632813 6.480469-5.753906 10.195313-14.019531 10.195313-22.671875 0-6.125-1.835937-12.03125-5.3125-17.085938-2.691406-3.914062-2.835937-9-.382813-13.265624 1.640626-2.855469 2.546876-6.0625 2.65625-9.355469-4.335937 2.015625-9.039062 3.113281-13.910156 3.226562-4.707031 23.386719-18.972656 45.195313-38.203125 58.28125v1.402344c0 4.621094 2.574219 8.757813 6.71875 10.800781zm0 0"/><path d="m79.4375 288.003906c-.917969 0-1.828125-.25-2.625-.742187-1.160156-.714844-1.976562-1.871094-2.261719-3.203125-.746093-3.460938-1.105469-6.734375-1.105469-10.015625 0-4.765625.695313-9.480469 2.070313-14.011719.246094-.816406 0-1.699219-.625-2.257812-8.617187-7.652344-13.554687-18.640626-13.554687-30.152344 0-8.152344 2.445312-16.019532 7.074218-22.75.585938-.851563.359375-1.910156-.046875-2.613282-2.855469-4.96875-4.226562-10.632812-3.96875-16.382812.113281-2.511719.585938-5.078125 1.398438-7.621094.496093-1.558594 1.71875-2.769531 3.28125-3.253906s3.257812-.175781 4.546875.828125c4.480468 3.480469 9.828125 5.320313 15.464844 5.320313.679687 0 1.414062-.046876 2.34375-.148438.066406-.011719.132812-.023438.203124-.035156 2.714844-.425782 5.253907 1.410156 5.707032 4.117187.003906.03125.007812.0625.011718.09375 3.417969 23.207031 17.503907 45.167969 36.765626 57.316407 1.453124.917968 2.332031 2.511718 2.332031 4.230468v4.101563c0 8.457031-4.710938 16.035156-12.292969 19.773437l-20.855469 10.28125c-.175781.085938-.359375.164063-.542969.230469-7.113281 2.519531-14.539062 4.785156-22.0625 6.734375-.417968.109375-.839843.160156-1.257812.160156zm-5.0625-100.070312c.109375 3.289062 1.019531 6.488281 2.65625 9.339844 2.457031 4.265624 2.308594 9.347656-.382812 13.261718-3.476563 5.054688-5.3125 10.964844-5.3125 17.085938 0 8.65625 3.71875 16.917968 10.195312 22.671875 3.535156 3.140625 4.929688 8.101562 3.554688 12.636719-1.085938 3.589843-1.640626 7.328124-1.640626 11.109374 0 .886719.035157 1.777344.105469 2.671876 5.304688-1.496094 10.53125-3.148438 15.59375-4.933594l20.585938-10.152344c4.148437-2.042969 6.71875-6.183594 6.71875-10.800781v-1.402344c-19.226563-13.085937-33.492188-34.894531-38.203125-58.28125-4.855469-.113281-9.542969-1.203125-13.871094-3.207031zm0 0"/><path d="m166.21875 126.039062c-47.574219 0-94.925781-5.808593-140.75-17.265624-4.070312-1.015626-7.496094-3.558594-9.65625-7.152344-2.15625-3.597656-2.785156-7.816406-1.765625-11.882813 1.015625-4.070312 3.554687-7.5 7.152344-9.65625 3.597656-2.160156 7.816406-2.789062 11.882812-1.765625 87.097657 21.773438 179.175781 21.773438 266.269531 0 4.058594-1.023437 8.28125-.394531 11.875 1.757813 3.601563 2.160156 6.148438 5.589843 7.164063 9.664062 1.019531 4.070313.390625 8.289063-1.765625 11.882813-2.160156 3.597656-5.589844 6.136718-9.65625 7.152344-45.824219 11.457031-93.179688 17.265624-140.75 17.265624zm-136.953125-38.195312c-1.019531 0-2.027344.273438-2.921875.8125-1.308594.785156-2.230469 2.027344-2.597656 3.503906-.371094 1.476563-.140625 3.007813.640625 4.3125.785156 1.304688 2.027343 2.226563 3.503906 2.597656 45.03125 11.257813 91.574219 16.964844 138.328125 16.964844s93.292969-5.707031 138.324219-16.964844c1.476562-.371093 2.71875-1.292968 3.503906-2.597656.785156-1.304687 1.011719-2.835937.640625-4.3125-.367188-1.480468-1.292969-2.730468-2.601562-3.511718-1.300782-.78125-2.828126-1.007813-4.300782-.636719-88.691406 22.167969-182.445312 22.167969-271.125 0-.464844-.109375-.929687-.167969-1.394531-.167969zm0 0"/><path d="m166.242188 104.65625c-30.191407 0-60.382813-2.445312-90.375-7.335938-1.355469-.222656-2.5625-.996093-3.335938-2.132812-.769531-1.140625-1.035156-2.546875-.734375-3.890625l17.390625-77.953125c1.035156-4.644531 3.992188-8.675781 8.113281-11.058594 4.121094-2.378906 9.089844-2.929687 13.628907-1.511718l53.878906 16.835937c1.375.429687 2.832031.429687 4.210937 0l53.878907-16.835937c4.539062-1.417969 9.511718-.8710942 13.628906 1.511718 4.121094 2.382813 7.078125 6.414063 8.113281 11.058594l17.34375 77.738281c.300781 1.339844.035156 2.746094-.734375 3.882813-.769531 1.140625-1.972656 1.914062-3.328125 2.136718-30.410156 5.035157-61.042969 7.554688-91.679687 7.554688zm-83.527344-16.378906c55.910156 8.574218 112.484375 8.507812 168.355468-.203125l-16.1875-72.554688c-.4375-1.953125-1.628906-3.578125-3.359374-4.578125-1.730469-1-3.730469-1.21875-5.640626-.625l-53.878906 16.835938c-3.328125 1.039062-6.847656 1.039062-10.179687 0l-53.875-16.835938c-1.90625-.59375-3.910157-.375-5.644531.625-1.730469 1-2.921876 2.625-3.359376 4.578125zm0 0"/><path d="m166.914062 27.929688c-1.710937 0-3.421874-.257813-5.089843-.777344l-9.914063-3.097656c-2.144531-.671876-3.578125-2.6875-3.507812-4.933594.328125-10.261719 8.621094-18.304688 18.882812-18.304688 10.097656 0 18.382813 7.90625 18.871094 17.996094.109375 2.273438-1.332031 4.335938-3.503906 5.011719l-10.648438 3.328125c-1.664062.519531-3.375.777344-5.089844.777344zm-7.660156-12.0625 5.554688 1.738281c1.375.429687 2.835937.429687 4.210937 0l6.191407-1.933594c-1.472657-2.894531-4.476563-4.855469-7.925782-4.855469-3.550781 0-6.601562 2.046875-8.03125 5.050782zm0 0"/><path d="m71.316406 136.429688c-.566406 0-1.136718-.097657-1.683594-.292969-1.554687-.554688-2.738281-1.847657-3.152343-3.445313-1.726563-6.613281-3.039063-13.164062-3.902344-19.464844-.21875-1.582031.332031-3.167968 1.480469-4.28125 1.144531-1.105468 2.753906-1.597656 4.328125-1.328124 9.90625 1.71875 19.957031 3.191406 29.882812 4.375 1.988281.238281 3.644531 1.636718 4.207031 3.5625.5625 1.921874-.078124 3.996093-1.628906 5.265624-1.589844 1.304688-3.03125 2.835938-4.292968 4.558594v.351563c0 1.398437-.585938 2.734375-1.617188 3.679687-1.027344.945313-2.402344 1.421875-3.800781 1.300782-.675781-.054688-1.363281-.085938-2.054688-.085938-5.339843 0-10.46875 1.675781-14.824219 4.847656-.863281.628906-1.898437.957032-2.941406.957032zm2.261719-17.804688c.3125 1.695312.660156 3.402344 1.035156 5.121094 3.992188-1.8125 8.285157-2.855469 12.707031-3.074219-4.582031-.628906-9.171874-1.3125-13.742187-2.046875zm0 0"/><path d="m258.46875 134.730469c-.871094 0-1.734375-.230469-2.503906-.671875-4.472656-2.585938-9.554688-3.726563-14.671875-3.300782-1.390625.121094-2.773438-.359374-3.800781-1.304687-1.027344-.945313-1.613282-2.28125-1.613282-3.679687v-4.0625c-.152344-.035157-.304687-.070313-.457031-.109376-2.347656-.570312-3.949219-2.738281-3.808594-5.148437.144531-2.410156 1.988281-4.375 4.382813-4.671875 8.753906-1.074219 17.652344-2.375 26.449218-3.875 1.554688-.269531 3.148438.21875 4.292969 1.316406 1.144531 1.089844 1.703125 2.660156 1.507813 4.226563-.949219 7.683593-2.714844 13.796875-5.394532 18.683593-.648437 1.183594-1.742187 2.050782-3.039062 2.414063-.441406.121094-.894531.183594-1.34375.183594zm-12.589844-13.976563c3.460938.246094 6.855469 1.003906 10.097656 2.253906.441407-1.269531.835938-2.636718 1.179688-4.105468-3.757812.59375-7.523438 1.152344-11.277344 1.671875zm0 0"/><path d="m166.21875 262.191406c-45.59375 0-79.664062-46.296875-79.664062-87.691406v-50.675781c0-.96875.28125-1.917969.8125-2.734375 2-3.0625 4.402343-5.753906 7.136718-8 1.054688-.863282 2.414063-1.257813 3.765625-1.097656 22.503907 2.683593 45.367188 4.042968 67.949219 4.042968 23.253906 0 46.730469-1.429687 69.777344-4.257812.597656-.074219 1.207031-.035156 1.792968.105468 1.273438.3125 2.542969.554688 3.777344.726563 2.46875.34375 4.3125 2.457031 4.3125 4.953125v56.9375c0 41.394531-34.066406 87.691406-79.660156 87.691406zm-69.664062-136.8125v49.121094c0 44.464844 36.777343 77.691406 69.664062 77.691406 32.882812 0 69.660156-33.226562 69.660156-77.691406v-52.632812c-23.023437 2.765624-46.453125 4.167968-69.660156 4.167968-22.226562 0-44.71875-1.292968-66.890625-3.851562-1 .972656-1.925781 2.042968-2.773437 3.195312zm0 0"/><path d="m166.21875 330.183594c-32.375 0-60.527344-21.921875-68.460938-53.3125-.578124-2.285156.519532-4.664063 2.636719-5.707032l19.332031-9.535156c4.148438-2.042968 6.71875-6.183594 6.71875-10.804687v-4.085938c0-1.824219.992188-3.5 2.585938-4.378906 1.59375-.882813 3.542969-.824219 5.082031.148437 10.1875 6.425782 20.988281 9.683594 32.101563 9.683594 11.113281 0 21.914062-3.257812 32.101562-9.683594 1.539063-.972656 3.488282-1.03125 5.082032-.148437 1.59375.878906 2.585937 2.554687 2.585937 4.378906v4.085938c0 4.621093 2.574219 8.761719 6.714844 10.804687l19.335937 9.535156c2.117188 1.039063 3.214844 3.421876 2.636719 5.707032-7.929687 31.390625-36.082031 53.3125-68.453125 53.3125zm-57.652344-51.902344c8.050782 24.863281 31.207032 41.902344 57.648438 41.902344s49.601562-17.039063 57.652344-41.902344l-15.585938-7.683594c-6.300781-3.109375-10.621094-8.867187-11.902344-15.578125-9.644531 4.710938-19.9375 7.167969-30.164062 7.167969-10.226563 0-20.519532-2.457031-30.164063-7.167969-1.28125 6.710938-5.597656 12.46875-11.902343 15.578125zm0 0"/><path d="m223.847656 466.957031h-115.265625c-11.457031 0-20.78125-9.324219-20.78125-20.785156v-11.503906c0-11.460938 9.324219-20.785157 20.78125-20.785157h115.265625c11.460938 0 20.785156 9.324219 20.785156 20.785157v11.503906c0 11.460937-9.324218 20.785156-20.785156 20.785156zm-115.265625-43.070312c-5.945312 0-10.78125 4.835937-10.78125 10.785156v11.503906c0 5.945313 4.835938 10.78125 10.78125 10.78125h115.265625c5.949219 0 10.785156-4.835937 10.785156-10.78125v-11.503906c0-5.945313-4.835937-10.785156-10.785156-10.785156zm0 0"/></g></svg>