<svg height="511pt" viewBox="-89 0 511 511.98591" width="511pt" xmlns="http://www.w3.org/2000/svg"><path d="m163.214844 20.964844c2.152344.671875 4.457031.671875 6.609375 0l9.78125-3.054688c-.324219-6.769531-5.894531-12.160156-12.742188-12.160156-6.917969 0-12.539062 5.507812-12.757812 12.371094zm0 0" fill="#8c5046"/><path d="m166.519531 26.472656c-1.613281 0-3.226562-.246094-4.796875-.734375l-9.109375-2.847656c-2.144531-.667969-3.578125-2.683594-3.503906-4.929687.304687-9.648438 8.101563-17.210938 17.753906-17.210938 9.492188 0 17.285157 7.433594 17.738281 16.917969.109376 2.277343-1.328124 4.335937-3.5 5.015625l-9.78125 3.054687c-1.570312.492188-3.1875.734375-4.800781.734375zm-6.449219-11.730468 4.636719 1.453124c1.183594.371094 2.441407.371094 3.625 0l5.210938-1.628906c-1.351563-2.292968-3.84375-3.816406-6.679688-3.816406-2.933593 0-5.476562 1.601562-6.792969 3.992188zm0 0" fill="#231f20"/><path d="m165.878906 111.601562c-43.125 0-86.253906-5.242187-128.183594-15.726562-5.265624-1.316406-8.464843-6.652344-7.148437-11.917969s6.65625-8.46875 11.917969-7.152343c80.738281 20.183593 166.089844 20.183593 246.832031 0 5.265625-1.320313 10.601563 1.886718 11.917969 7.152343s-1.886719 10.601563-7.148438 11.917969c-41.933594 10.484375-85.058594 15.726562-128.1875 15.726562zm0 0" fill="#9e5f57"/><path d="m249.371094 85.074219-15.929688-71.410157c-1.414062-6.332031-7.933594-10.101562-14.121094-8.164062l-49.492187 15.464844c-2.152344.671875-4.460937.671875-6.613281 0l-49.492188-15.464844c-6.191406-1.933594-12.710937 1.835938-14.121094 8.164062l-15.976562 71.613282c54.800781 8.941406 110.964844 8.875 165.746094-.203125zm0 0" fill="#8c5046"/><path d="m328.210938 493.058594-9.632813-173.015625c-.730469-13.066407-9.867187-24.140625-22.558594-27.332031l-41.402343-10.421876c-7.179688-1.808593-14.285157-3.90625-21.296876-6.292968l-18.316406-9.03125-3.683594-1.816406c-5.847656-2.878907-9.546874-8.832032-9.546874-15.347657v-10.523437c-6.511719 3.214844-12.007813 5.613281-18.578126 7.335937-5.554687 1.453125-11.246093 2.132813-16.929687 2.082031-.03125 0-.0625.003907-.089844.003907-.382812 0-.753906-.035157-1.132812-.042969-.839844-.023438-1.675781-.035156-2.515625-.09375-6.601563-.394531-12.984375-1.84375-19.042969-4.179688-3.785156-1.402343-7.460937-3.09375-11.53125-5.101562v10.523438c0 6.515624-3.699219 12.46875-9.542969 15.347656l-2.714844 1.339844-18.226562 8.984374c-7.71875 2.734376-15.558594 5.101563-23.5 7.101563l-40.261719 10.132813c-12.691406 3.195312-21.828125 14.269531-22.554687 27.335937l-9.636719 173.015625c-.421875 7.5625 5.597656 13.925781 13.171875 13.925781h296.351562c7.574219-.003906 13.59375-6.367187 13.171876-13.929687zm0 0" fill="#fcb275"/><path d="m328.210938 493.058594-9.636719-173.015625c-.726563-13.066407-9.867188-24.140625-22.554688-27.332031l-41.402343-10.421876c-7.183594-1.808593-14.289063-3.90625-21.300782-6.292968l-18.316406-9.03125-.171875-.082032c-7.921875 18.660157-26.414063 31.75-47.964844 31.75s-40.042969-13.089843-47.964843-31.75l-17.429688 8.589844c-7.714844 2.734375-15.554688 5.101563-23.496094 7.101563l-40.265625 10.132812c-12.6875 3.195313-21.828125 14.269531-22.554687 27.335938l-9.636719 173.015625c-.421875 7.5625 5.597656 13.925781 13.171875 13.925781h296.355469c7.570312 0 13.589843-6.363281 13.167969-13.925781zm0 0" fill="#fcbd4c"/><path d="m166.863281 318.285156c29.0625 0 53.898438-18.03125 63.980469-43.507812l-15.84375-7.8125-.171875-.082032c-7.921875 18.660157-26.414063 31.75-47.964844 31.75s-40.042969-13.089843-47.964843-31.75l-16.015626 7.894532c10.078126 25.476562 34.914063 43.507812 63.980469 43.507812zm0 0" fill="#f9d498"/><path d="m93.652344 335.976562h-28.519532c-2.980468 0-5.394531-2.417968-5.394531-5.398437v-12.789063c0-2.984374 2.417969-5.398437 5.394531-5.398437h28.515626c2.980468 0 5.398437 2.417969 5.398437 5.398437v12.789063c0 2.980469-2.417969 5.398437-5.394531 5.398437zm0 0" fill="#fcbd4c"/><path d="m268.589844 335.976562h-27.839844v9.261719c0 11.167969-9.054688 20.222657-20.222656 20.222657h-107.332032c-11.167968 0-20.21875-9.054688-20.21875-20.222657v-9.261719h-27.84375c-.164062 0-.320312-.035156-.480468-.046874v171.054687h204.421875v-171.054687c-.160157.011718-.316407.046874-.484375.046874zm0 0" fill="#515050"/><path d="m268.589844 312.390625c.167968 0 .324218.035156.484375.046875v-26.511719l-14.457031-3.640625c-4.664063-1.171875-9.277344-2.511718-13.867188-3.929687v34.03125h27.839844zm0 0" fill="#515050"/><path d="m65.132812 312.390625h27.84375v-34.089844c-4.960937 1.566407-9.960937 3.003907-15.007812 4.273438l-13.316406 3.351562v26.511719c.160156-.011719.316406-.046875.480468-.046875zm0 0" fill="#515050"/><path d="m235.132812 107.054688c.085938.199218.179688.394531.246094.597656.070313 2.875.140625 5.644531.210938 8.320312l.09375.015625c7.296875-.226562 14.105468 2.152344 19.515625 6.296875l.855469-18.40625c-6.953126 1.203125-13.929688 2.257813-20.921876 3.175782zm0 0" fill="#7c292e"/><path d="m77.6875 104.226562.839844 18.03125c5.574218-4.269531 12.636718-6.65625 20.175781-6.257812l.394531-8.621094c-7.15625-.90625-14.292968-1.949218-21.410156-3.152344zm0 0" fill="#7c292e"/><path d="m235.683594 115.988281c2.019531 83.542969 1.324218 54.730469 1.476562 60.960938 16.609375-.304688 29.988282-13.839844 29.988282-30.519531 0-17.371094-14.4375-30.972657-31.464844-30.441407zm0 0" fill="#fcb275"/><path d="m98.703125 116c-17.316406-.917969-32.125 12.832031-32.125 30.429688 0 16.707031 13.417969 30.261718 30.0625 30.523437 2.003906-72.019531 1.28125-38.570313 2.0625-60.953125zm0 0" fill="#fcb275"/><path d="m237.457031 190.390625c0-.007813 0-.011719 0-.019531-.003906-.078125-.007812-.269532-.015625-.539063 0-.007812 0-.023437 0-.03125v.007813c0-.042969 0-.074219 0-.121094-.003906-.066406-.003906-.117188-.003906-.140625-.089844-3.558594-.496094-19.75-2.054688-81.898437-.070312-.203126-.160156-.398438-.246093-.59375-22.960938 3.019531-46.105469 4.542968-69.253907 4.542968-22.316406 0-44.628906-1.414062-66.78125-4.222656l-1.324218 28.8125-1.507813 54.25c-1.796875 17.597656 7.371094 34.578125 23.179688 42.515625 13.113281 6.585937 20.769531 10.957031 31.082031 13.65625 10.71875 2.800781 21.953125 2.800781 32.667969 0 10.3125-2.699219 17.96875-7.070313 31.082031-13.65625 15.808594-7.9375 24.976562-24.917969 23.179688-42.515625-.003907-.003906-.003907-.023438-.003907-.046875zm0 0" fill="#fcb275"/><g fill="#231f20"><path d="m315.039062 511.984375h-296.355468c-4.976563 0-9.796875-2.074219-13.214844-5.6875-3.421875-3.617187-5.222656-8.542969-4.949219-13.515625l9.636719-173.015625c.855469-15.335937 11.433594-28.15625 26.328125-31.90625l40.265625-10.132813c7.664062-1.929687 15.324219-4.242187 22.769531-6.867187l20.671875-10.195313c4.167969-2.054687 6.757813-6.21875 6.757813-10.863281v-10.523437c0-1.730469.894531-3.335938 2.363281-4.25 1.464844-.910156 3.300781-1 4.851562-.234375 4.558594 2.25 7.863282 3.714843 11.054688 4.898437 5.769531 2.222656 11.671875 3.523438 17.605469 3.875.664062.046875 1.285156.0625 1.914062.078125l.441407.011719c.175781 0 .398437.011719.621093.027344l.335938.011718c.292969-.007812.46875 0 .695312 0 5.152344 0 10.214844-.644531 15.09375-1.921874 6.191407-1.621094 11.335938-3.875 17.625-6.980469 1.550781-.765625 3.386719-.675781 4.855469.234375 1.46875.914062 2.363281 2.519531 2.363281 4.25v10.523437c0 4.644531 2.585938 8.808594 6.753907 10.863281l21.707031 10.703126c6.753906 2.289062 13.683593 4.332031 20.605469 6.074218l41.402343 10.421875c14.890625 3.746094 25.472657 16.570313 26.328125 31.902344l9.636719 173.015625c.277344 4.972656-1.527344 9.898438-4.949219 13.515625-3.417968 3.613281-8.234375 5.6875-13.214844 5.6875zm-178.085937-264.847656v2.664062c0 8.480469-4.726563 16.082031-12.335937 19.832031l-20.9375 10.324219c-.175782.085938-.355469.164063-.542969.230469-7.824219 2.769531-15.882813 5.207031-23.945313 7.238281l-40.261718 10.132813c-10.628907 2.671875-18.175782 11.824218-18.789063 22.761718l-9.632813 173.019532c-.128906 2.269531.664063 4.433594 2.226563 6.085937 1.5625 1.648438 3.675781 2.558594 5.953125 2.558594h296.351562c2.277344 0 4.390626-.910156 5.953126-2.5625s2.355468-3.8125 2.226562-6.082031l-9.632812-173.019532c-.613282-10.941406-8.160157-20.089843-18.789063-22.761718l-41.398437-10.421875c-7.289063-1.835938-14.585938-3.992188-21.691407-6.410157-.207031-.070312-.40625-.152343-.601562-.25l-22-10.84375c-7.605469-3.75-12.332031-11.351562-12.332031-19.835937v-2.664063c-3.980469 1.726563-7.925782 3.164063-12.3125 4.3125-5.878907 1.539063-11.984376 2.269532-18.140626 2.246094-.445312.011719-.699218-.007812-1.03125-.027344l-.808593-.027343c-.765625-.019531-1.527344-.039063-2.289063-.089844-6.921875-.414063-13.835937-1.929687-20.507812-4.503906-1.519532-.5625-3.066406-1.183594-4.730469-1.90625zm0 0"/><path d="m166.789062 210.410156c-8.953124 0-17.296874-4.4375-22.320312-11.867187-1.542969-2.285157-.941406-5.394531 1.347656-6.941407 2.285156-1.542968 5.394532-.945312 6.941406 1.34375 3.15625 4.671876 8.402344 7.460938 14.03125 7.460938 5.628907 0 10.875-2.789062 14.03125-7.460938 1.546876-2.289062 4.648438-2.890624 6.941407-1.34375 2.289062 1.546876 2.890625 4.65625 1.34375 6.941407-5.015625 7.429687-13.359375 11.867187-22.316407 11.867187zm0 0"/><path d="m204.402344 140.378906c-.792969 0-1.597656-.1875-2.347656-.585937-1.1875-.632813-3.964844-1.367188-7.882813-1.367188-3.921875 0-6.703125.734375-7.890625 1.367188-2.4375 1.300781-5.464844.371093-6.761719-2.066407s-.371093-5.460937 2.066407-6.761718c3.035156-1.613282 7.621093-2.539063 12.585937-2.539063 4.960937 0 9.542969.925781 12.582031 2.539063 2.4375 1.296875 3.363282 4.324218 2.066406 6.761718-.902343 1.6875-2.632812 2.652344-4.417968 2.652344zm0 0"/><path d="m149.386719 140.378906c-.792969 0-1.597657-.1875-2.34375-.585937-1.1875-.632813-3.964844-1.367188-7.886719-1.367188-3.917969 0-6.699219.734375-7.886719 1.367188-2.4375 1.300781-5.46875.371093-6.761719-2.066407-1.296874-2.4375-.375-5.460937 2.066407-6.761718 3.035156-1.613282 7.621093-2.539063 12.582031-2.539063s9.546875.925781 12.582031 2.539063c2.4375 1.296875 3.363281 4.324218 2.066407 6.761718-.898438 1.6875-2.628907 2.652344-4.417969 2.652344zm0 0"/><path d="m139.972656 160.15625c-3.3125 0-6-2.683594-6-6v-1.117188c0-3.316406 2.6875-6 6-6s6 2.683594 6 6v1.117188c0 3.316406-2.6875 6-6 6zm0 0"/><path d="m193.609375 161.015625c-3.316406 0-6-2.6875-6-6v-1.121094c0-3.3125 2.683594-6 6-6 3.3125 0 6 2.6875 6 6v1.121094c0 3.3125-2.6875 6-6 6zm0 0"/><path d="m237.261719 181.96875c-.050781 0-.210938-.003906-.449219-.027344-.824219-.058594-1.59375-.3125-2.257812-.71875-.671876-.390625-1.332032-.980468-1.789063-1.875-.371094-.679687-.589844-1.453125-.609375-2.277344 0-.019531 0-.042968 0-.066406 0-.0625-.003906-.164062-.007812-.320312 0-.011719 0-.027344 0-.039063l-.015626-.550781c-.078124-3.285156-.390624-16.210938-1.449218-59.984375-.066406-2.746094 2.097656-5.03125 4.84375-5.117187 9.734375-.316407 18.882812 3.253906 25.859375 10.019531 6.9375 6.71875 10.757812 15.75 10.757812 25.414062 0 19.054688-15.359375 34.871094-34.351562 35.507813-.167969.015625-.335938.027344-.515625.03125 0 .003906-.003906.003906-.015625.003906zm3.554687-60.660156 1.207032 50.0625c11.464843-2.515625 20.125-12.816406 20.125-24.941406 0-6.941407-2.742188-13.414063-7.71875-18.238282-3.804688-3.6875-8.519532-6.050781-13.613282-6.882812zm0 0"/><path d="m96.644531 181.953125c-.027343 0-.054687 0-.082031 0-19.289062-.304687-34.984375-16.242187-34.984375-35.523437 0-9.824219 3.921875-18.953126 11.042969-25.707032 7.054687-6.6875 16.664062-10.222656 26.34375-9.714844 2.722656.144532 4.828125 2.445313 4.734375 5.167969-.269531 7.757813-.363281 8.921875-.457031 10.046875-.148438 1.84375-.289063 3.582032-1.605469 50.867188-.070313 2.714844-2.292969 4.863281-4.992188 4.863281zm-3.140625-60.75c-5.222656.722656-10.070312 3.050781-14 6.777344-5.113281 4.847656-7.925781 11.398437-7.925781 18.449219 0 12.171874 8.703125 22.488281 20.214844 24.964843 1.183593-42.261719 1.316406-43.910156 1.484375-45.972656.054687-.664063.109375-1.386719.226562-4.21875zm0 0"/><path d="m315.039062 511.984375h-296.355468c-4.976563 0-9.796875-2.074219-13.214844-5.6875-3.421875-3.617187-5.222656-8.542969-4.949219-13.515625l9.636719-173.015625c.855469-15.335937 11.4375-28.160156 26.332031-31.90625l40.261719-10.132813c7.667969-1.929687 15.328125-4.242187 22.773438-6.867187l17.164062-8.464844c1.234375-.605469 2.664062-.679687 3.949219-.203125 1.292969.480469 2.324219 1.46875 2.863281 2.734375 7.40625 17.4375 24.425781 28.703125 43.363281 28.703125 18.941407 0 35.960938-11.265625 43.367188-28.703125.539062-1.269531 1.574219-2.257812 2.867187-2.734375 1.292969-.476562 2.726563-.402344 3.957032.210938l18.179687 8.960937c6.753906 2.289063 13.683594 4.332031 20.605469 6.074219l41.402344 10.421875c14.890624 3.75 25.472656 16.570313 26.328124 31.90625l9.636719 173.015625c.277344 4.96875-1.527343 9.894531-4.949219 13.511719-3.421874 3.617187-8.238281 5.691406-13.21875 5.691406zm-198.460937-238.386719-12.898437 6.359375c-.175782.085938-.355469.164063-.542969.230469-7.824219 2.769531-15.882813 5.207031-23.945313 7.238281l-40.261718 10.132813c-10.628907 2.671875-18.175782 11.820312-18.789063 22.761718l-9.632813 173.019532c-.128906 2.269531.664063 4.433594 2.226563 6.085937 1.5625 1.648438 3.675781 2.558594 5.953125 2.558594h296.351562c2.277344 0 4.390626-.910156 5.953126-2.5625s2.355468-3.8125 2.226562-6.082031l-9.636719-173.019532c-.609375-10.941406-8.15625-20.089843-18.785156-22.761718l-41.398437-10.421875c-7.289063-1.835938-14.585938-3.992188-21.691407-6.410157-.207031-.070312-.40625-.152343-.601562-.25l-13.957031-6.878906c-9.890626 18.402344-29.097657 30.03125-50.285157 30.03125-21.183593 0-40.394531-11.628906-50.285156-30.03125zm0 0"/><path d="m166.863281 323.285156c-30.476562 0-57.414062-18.320312-68.628906-46.671875-.957031-2.417969.101563-5.171875 2.4375-6.324219l16.011719-7.894531c1.234375-.609375 2.664062-.679687 3.953125-.203125 1.289062.476563 2.324219 1.464844 2.863281 2.734375 7.402344 17.4375 24.421875 28.703125 43.363281 28.703125 18.9375 0 35.960938-11.265625 43.363281-28.703125.539063-1.269531 1.578126-2.261719 2.871094-2.738281 1.289063-.476562 2.726563-.398438 3.957032.210938l15.996093 7.890624c2.335938 1.152344 3.398438 3.902344 2.441407 6.324219-11.214844 28.351563-38.15625 46.671875-68.628907 46.671875zm-57.492187-46.136718c10.59375 22.097656 32.6875 36.136718 57.492187 36.136718 24.800781 0 46.894531-14.039062 57.488281-36.136718l-7.203124-3.550782c-9.894532 18.402344-29.101563 30.03125-50.285157 30.03125-21.1875 0-40.394531-11.628906-50.285156-30.03125zm0 0"/><path d="m93.652344 340.976562h-28.519532c-5.730468 0-10.398437-4.667968-10.398437-10.398437v-12.789063c0-5.734374 4.667969-10.398437 10.398437-10.398437h28.515626c5.734374 0 10.398437 4.664063 10.398437 10.398437v12.789063c0 5.734375-4.664063 10.398437-10.394531 10.398437zm-28.519532-23.585937c-.21875 0-.398437.175781-.398437.398437v12.789063c0 .21875.179687.398437.398437.398437h28.515626c.21875 0 .398437-.179687.398437-.398437v-12.789063c0-.222656-.179687-.398437-.398437-.398437zm0 0"/><path d="m269.074219 511.984375h-204.421875c-2.765625 0-5-2.238281-5-5v-171.054687c0-1.40625.589844-2.746094 1.625-3.695313 1.039062-.945313 2.417968-1.414063 3.824218-1.285156.046876.003906.15625.015625.253907.027343h27.621093c2.761719 0 5 2.238282 5 5v9.261719c0 8.394531 6.828126 15.222657 15.21875 15.222657h107.335938c8.390625 0 15.21875-6.828126 15.21875-15.222657v-9.261719c0-2.761718 2.238281-5 5-5l27.875-.027343c1.40625-.125 2.789062.339843 3.824219 1.285156 1.039062.949219 1.628906 2.289063 1.628906 3.695313v171.054687c-.003906 2.761719-2.242187 5-5.003906 5zm-199.421875-10h194.421875v-161.007813h-18.324219v4.261719c0 13.90625-11.316406 25.222657-25.222656 25.222657h-107.332032c-13.90625 0-25.222656-11.316407-25.222656-25.222657v-4.261719h-18.324218v161.007813zm198.589844-170.992187c-.019532 0-.035157.003906-.050782.003906zm0 0"/><path d="m269.074219 317.4375c-.148438 0-.300781-.003906-.449219-.019531-.046875-.003907-.160156-.015625-.253906-.027344h-27.621094c-2.761719 0-5-2.238281-5-5v-34.035156c0-1.585938.753906-3.082031 2.03125-4.023438 1.277344-.945312 2.925781-1.222656 4.445312-.753906 5.195313 1.601563 9.519532 2.828125 13.613282 3.859375l14.457031 3.640625c2.222656.558594 3.78125 2.558594 3.78125 4.847656v26.511719c0 1.40625-.589844 2.746094-1.628906 3.691406-.925781.84375-2.128907 1.308594-3.375 1.308594zm-.484375-.046875h.019531zm-22.839844-10h18.324219v-17.566406l-10.675781-2.6875c-2.4375-.613281-4.945313-1.292969-7.648438-2.070313zm0 0"/><path d="m64.652344 317.4375c-1.246094 0-2.449219-.460938-3.375-1.308594-1.035156-.945312-1.625-2.285156-1.625-3.691406v-26.511719c0-2.292969 1.554687-4.289062 3.777344-4.847656l13.324218-3.351563c4.746094-1.195312 9.695313-2.605468 14.714844-4.195312 1.523438-.480469 3.179688-.207031 4.464844.734375s2.042968 2.441406 2.042968 4.035156v34.089844c0 2.761719-2.238281 5-5 5l-27.875.027344c-.152343.015625-.304687.019531-.449218.019531zm.878906-.070312-.050781.007812c.019531-.003906.035156-.007812.050781-.007812zm4.121094-9.976563h18.324218v-22.351563c-2.976562.863282-5.914062 1.664063-8.785156 2.386719l-9.539062 2.398438zm0 0"/><path d="m165.878906 116.601562c-43.734375 0-87.269531-5.339843-129.394531-15.875-3.84375-.957031-7.082031-3.359374-9.121094-6.753906-2.035156-3.398437-2.628906-7.382812-1.667969-11.226562 1.984376-7.929688 10.042969-12.777344 17.980469-10.789063 79.949219 19.984375 164.460938 19.988281 244.40625 0 3.835938-.964843 7.820313-.375 11.214844 1.660157 3.402344 2.039062 5.804687 5.28125 6.769531 9.125.957032 3.84375.367188 7.832031-1.671875 11.226562-2.039062 3.398438-5.277343 5.796875-9.121093 6.757812-42.121094 10.535157-85.660157 15.875-129.394532 15.875zm-125.796875-35.085937c-2.164062 0-4.140625 1.464844-4.6875 3.65625-.3125 1.25-.121093 2.546875.542969 3.65625.664062 1.105469 1.71875 1.886719 2.96875 2.199219 41.335938 10.335937 84.054688 15.574218 126.972656 15.574218 42.917969 0 85.636719-5.238281 126.972656-15.574218 1.25-.3125 2.304688-1.09375 2.96875-2.199219.664063-1.105469.855469-2.402344.542969-3.65625-.316406-1.253906-1.097656-2.308594-2.207031-2.972656-1.105469-.664063-2.394531-.855469-3.644531-.542969-81.539063 20.382812-167.726563 20.386719-249.261719 0-.390625-.097656-.785156-.140625-1.167969-.140625zm0 0"/><path d="m255.199219 127.289062c-1.082031 0-2.152344-.351562-3.039063-1.03125-4.675781-3.582031-10.460937-5.449218-16.320312-5.269531-.324219.011719-.648438-.011719-.96875-.0625-2.367188-.390625-4.21875-2.425781-4.28125-4.824219l-.183594-7.429687c-.464844-1.347656-.328125-2.839844.378906-4.089844.777344-1.359375 2.144532-2.28125 3.699219-2.484375 6.96875-.917968 13.941406-1.976562 20.71875-3.144531 1.492187-.253906 3.027344.175781 4.160156 1.179687 1.136719 1 1.753907 2.464844 1.683594 3.980469l-.855469 18.40625c-.085937 1.859375-1.195312 3.515625-2.886718 4.300781-.671876.3125-1.386719.46875-2.105469.46875zm-14.003907-16.015624c3.230469.421874 6.394532 1.292968 9.390626 2.574218l.1875-4.019531c-3.171876.507813-6.371094.992187-9.578126 1.445313zm-6.0625-4.21875h.023438zm0 0"/><path d="m78.527344 127.257812c-.714844 0-1.4375-.15625-2.109375-.46875-1.6875-.78125-2.800781-2.441406-2.886719-4.300781l-.835938-18.027343c-.070312-1.507813.546876-2.972657 1.675782-3.972657 1.132812-1.003906 2.652344-1.441406 4.148437-1.1875 6.867188 1.15625 14.003907 2.207031 21.210938 3.117188 2.585937.328125 4.484375 2.589843 4.367187 5.191406l-.398437 8.625c-.0625 1.332031-.652344 2.582031-1.636719 3.476563-.984375.894531-2.273438 1.367187-3.621094 1.285156-6.058594-.308594-12.046875 1.539062-16.871094 5.230468-.890624.679688-1.960937 1.03125-3.042968 1.03125zm4.441406-17.109374.171875 3.667968c2.671875-1.136718 5.472656-1.949218 8.339844-2.410156-2.863281-.398438-5.703125-.816406-8.511719-1.257812zm0 0"/><path d="m166.863281 253.707031c-5.921875 0-11.84375-.753906-17.597656-2.261719-9.222656-2.414062-16.386719-6.058593-26.304687-11.105468-1.804688-.917969-3.714844-1.890625-5.757813-2.914063-17.441406-8.761719-27.84375-27.753906-25.925781-47.304687l1.503906-54.074219 1.324219-28.898437c.066406-1.394532.710937-2.699219 1.777343-3.597657 1.066407-.898437 2.460938-1.316406 3.847657-1.132812 21.898437 2.773437 44.15625 4.183593 66.152343 4.183593 22.808594 0 45.890626-1.515624 68.605469-4.5 2.226563-.300781 4.359375.921876 5.242188 2.976563.167969.386719.289062.671875.390625.972656.160156.476563.25.976563.261718 1.476563l2.054688 81.898437h-.003906c.003906.082031.007812.164063.011718.25v.035157l.007813.425781c1.910156 19.546875-8.492187 38.53125-25.929687 47.289062-2.039063 1.023438-3.945313 1.996094-5.75 2.914063-9.917969 5.046875-17.085938 8.695312-26.3125 11.109375-5.757813 1.503906-11.679688 2.257812-17.597657 2.257812zm-63.015625-140.714843-1.078125 23.425781-1.503906 54.160156c-.003906.125-.011719.246094-.023437.371094-1.585938 15.515625 6.632812 30.601562 20.449218 37.542969 2.058594 1.035156 3.980469 2.011718 5.804688 2.941406 9.707031 4.9375 16.121094 8.203125 24.296875 10.34375 9.859375 2.578125 20.28125 2.578125 30.136719 0 8.179687-2.140625 14.59375-5.40625 24.304687-10.347656 1.820313-.925782 3.742187-1.90625 5.796875-2.9375 13.816406-6.9375 22.035156-22.027344 20.453125-37.542969-.019531-.167969-.027344-.335938-.027344-.507813v-.046875l-.011719-.382812c0-.03125 0-.054688 0-.082031 0-.042969-.003906-.078126-.003906-.117188v-.003906s0 0 0-.003906c0-.027344 0-.058594 0-.089844h-.003906l-1.929688-77.03125c-21.4375 2.601562-43.152343 3.917968-64.628906 3.917968-20.613281 0-41.457031-1.214843-62.03125-3.609374zm0 0"/><path d="m165.902344 96.957031c-27.757813 0-55.511719-2.25-83.082032-6.746093-1.359374-.222657-2.566406-.996094-3.335937-2.132813-.769531-1.140625-1.039063-2.546875-.738281-3.890625l15.976562-71.613281c.976563-4.375 3.765625-8.175781 7.648438-10.417969 3.882812-2.2460938 8.566406-2.765625 12.84375-1.425781l49.492187 15.464843c1.191407.371094 2.445313.371094 3.628907 0l49.496093-15.464843c4.285157-1.335938 8.964844-.8164065 12.84375 1.425781 3.886719 2.242188 6.671875 6.042969 7.648438 10.417969l15.933593 71.414062c.296876 1.339844.03125 2.746094-.738281 3.886719-.765625 1.140625-1.972656 1.914062-3.328125 2.136719-27.957031 4.628906-56.125 6.945312-84.289062 6.945312zm-76.238282-15.789062c51.03125 7.78125 102.675782 7.71875 153.671876-.1875l-14.773438-66.226563c-.375-1.679687-1.402344-3.078125-2.890625-3.941406-1.492187-.863281-3.21875-1.050781-4.859375-.539062l-49.492188 15.464843c-3.136718.980469-6.457031.980469-9.597656 0l-49.488281-15.464843c-1.644531-.511719-3.371094-.324219-4.863281.539062-1.488282.863281-2.515625 2.261719-2.890625 3.941406zm0 0"/></g><path d="m224.726562 392.980469h-115.726562c-8.71875 0-15.847656 7.128906-15.847656 15.84375v56.761719c0 8.714843 7.132812 15.847656 15.847656 15.847656h115.730469c8.714843 0 15.84375-7.132813 15.84375-15.847656v-56.761719c0-8.714844-7.132813-15.84375-15.847657-15.84375zm0 0" fill="#3f3f3f"/><path d="m224.726562 392.980469h-115.726562c-8.71875 0-15.847656 7.128906-15.847656 15.84375v11.550781c0 8.71875 7.132812 15.847656 15.847656 15.847656h115.730469c8.714843 0 15.84375-7.128906 15.84375-15.847656v-11.550781c0-8.714844-7.132813-15.84375-15.847657-15.84375zm0 0" fill="#515050"/><path d="m224.726562 486.433594h-115.726562c-11.496094 0-20.847656-9.355469-20.847656-20.847656v-56.761719c0-11.496094 9.351562-20.84375 20.847656-20.84375h115.726562c11.496094 0 20.847657 9.351562 20.847657 20.84375v56.761719c0 11.492187-9.351563 20.847656-20.847657 20.847656zm-115.726562-88.453125c-5.980469 0-10.847656 4.867187-10.847656 10.84375v56.761719c0 5.980468 4.867187 10.847656 10.847656 10.847656h115.726562c5.980469 0 10.847657-4.867188 10.847657-10.847656v-56.761719c0-5.976563-4.867188-10.84375-10.847657-10.84375zm0 0" fill="#231f20"/><path d="m224.726562 441.222656h-115.726562c-11.496094 0-20.847656-9.351562-20.847656-20.84375v-11.550781c0-11.496094 9.351562-20.847656 20.847656-20.847656h115.726562c11.496094 0 20.847657 9.351562 20.847657 20.847656v11.550781c0 11.492188-9.351563 20.84375-20.847657 20.84375zm-115.726562-43.242187c-5.980469 0-10.847656 4.867187-10.847656 10.84375v11.550781c0 5.980469 4.867187 10.847656 10.847656 10.847656h115.726562c5.980469 0 10.847657-4.867187 10.847657-10.847656v-11.550781c0-5.976563-4.867188-10.84375-10.847657-10.84375zm0 0" fill="#231f20"/><path d="m268.589844 335.976562h-28.511719c-2.984375 0-5.398437-2.417968-5.398437-5.398437v-12.789063c0-2.984374 2.417968-5.398437 5.398437-5.398437h28.511719c2.984375 0 5.398437 2.417969 5.398437 5.398437v12.789063c0 2.980469-2.414062 5.398437-5.398437 5.398437zm0 0" fill="#fcbd4c"/><path d="m268.589844 340.976562h-28.511719c-5.734375 0-10.402344-4.667968-10.402344-10.398437v-12.789063c0-5.734374 4.667969-10.398437 10.402344-10.398437h28.511719c5.734375 0 10.398437 4.664063 10.398437 10.398437v12.789063c0 5.734375-4.664062 10.398437-10.398437 10.398437zm-28.515625-23.585937c-.21875 0-.398438.175781-.398438.398437v12.789063c0 .21875.175781.398437.398438.398437h28.515625c.21875 0 .398437-.179687.398437-.398437v-12.789063c0-.222656-.179687-.398437-.398437-.398437zm0 0" fill="#231f20"/></svg>