<svg height="511pt" viewBox="-89 0 511 511.998" width="511pt" xmlns="http://www.w3.org/2000/svg"><path d="m327.46875 493.105469-9.613281-172.617188c-.726563-13.035156-9.84375-24.085937-22.503907-27.269531l-41.304687-10.398438-18.261719-5.328124-27.535156 37.683593c-1.71875 2.355469-4.890625 3.121094-7.5 1.816407l-22.921875-11.460938v34.816406c0 3.003906-2.4375 5.4375-5.4375 5.4375h-11.792969c-3 0-5.433594-2.433594-5.433594-5.4375v-34.816406l-22.925781 11.460938c-2.609375 1.304687-5.777343.539062-7.5-1.816407l-27.589843-37.753906-19.339844 5.683594-40.171875 10.113281c-12.660157 3.183594-21.777344 14.234375-22.503907 27.269531l-9.613281 172.617188c-.421875 7.542969 5.585938 13.890625 13.140625 13.890625h295.667969c7.554687 0 13.5625-6.347656 13.140625-13.890625zm0 0" fill="#1b87c9"/><path d="m155.164062 303.640625-32.78125-38.058594c-.164062.089844.167969-.082031 0 0l-2.945312 1.472657-18.183594 8.96875c-1.363281.480468-2.734375.9375-4.101562 1.398437l27.589844 37.75c1.71875 2.355469 4.886718 3.125 7.5 1.820313l22.921874-11.460938zm0 0" fill="#30a9e5"/><path d="m232.792969 276.542969-20.878907-10.308594c-.167968-.082031.164063.085937 0 0l-34.085937 37.410156v1.886719l22.921875 11.460938c2.609375 1.304687 5.777344.539062 7.5-1.816407l27.535156-37.683593c-.996094-.324219-2-.613282-2.992187-.949219zm0 0" fill="#30a9e5"/><path d="m155.164062 304.96875v35.378906c0 3.003906 2.433594 5.4375 5.433594 5.4375h11.792969c3 0 5.4375-2.433594 5.4375-5.4375v-35.378906zm0 0" fill="#30a9e5"/><path d="m64.816406 367.984375h204.074219v28.183594h-204.074219zm0 0" fill="#30a9e5"/><path d="m64.816406 424.351562h204.074219v28.179688h-204.074219zm0 0" fill="#30a9e5"/><path d="m64.816406 480.710938h204.074219v26.285156h-204.074219zm0 0" fill="#30a9e5"/><path d="m177.828125 303.640625 34.085937-37.410156c.164063.089843-.167968-.082031 0 0-5.832031-2.871094-10.589843-9.324219-10.589843-15.824219v-10.617188c-6.15625 2.992188-11.535157 5.261719-17.875 6.921876-11.125 2.910156-22.785157 2.910156-33.914063 0-6.335937-1.65625-11.71875-3.929688-17.867187-6.921876v10.617188c0 6.503906-3.453125 12.300781-9.285157 15.175781.167969-.082031-.164062.089844 0 0l32.78125 38.058594v1.324219h22.664063zm0 0" fill="#fcb275"/><path d="m237.945312 111.101562c2.097657 86.734376 1.375 56.820313 1.53125 63.289063 17.246094-.3125 31.132813-14.367187 31.132813-31.6875 0-18.03125-14.984375-32.15625-32.664063-31.601563zm0 0" fill="#fcb275"/><path d="m95.730469 111.113281c-17.976563-.953125-33.351563 13.324219-33.351563 31.589844 0 17.34375 13.929688 31.417969 31.210938 31.691406 2.082031-74.773437 1.332031-40.046875 2.140625-63.28125zm0 0" fill="#fcb275"/><path d="m239.761719 187.46875c0 .023438.003906.042969.003906.0625-.003906-.085938-.003906-.121094-.003906-.0625zm0 0" fill="#fcb275"/><path d="m239.785156 188.28125c-.003906-.132812-.007812-.359375-.015625-.546875v.015625c.003907.128906.007813.300781.015625.53125zm0 0" fill="#fcb275"/><path d="m239.785156 188.34375c0-.003906 0-.011719 0-.019531-.003906-.082031-.007812-.285157-.015625-.574219 0-.003906 0-.011719 0-.015625 0-.039063 0-.074219 0-.121094-.003906-.066406-.003906-.117187-.003906-.144531-.089844-3.597656-.492187-19.621094-2.007813-79.980469-.074218-3.054687-1.371093-5.964843-3.621093-8.039062-6.035157-5.554688-18.101563-18.464844-21.707031-35.621094-.746094-3.546875-5.074219-4.859375-7.746094-2.40625-9.929688 9.113281-31.578125 22.957031-69.507813 19.867187-9.054687-.738281-18.222656 1.167969-25.761719 6.234376-2.320312 1.558593-4.664062 3.460937-6.898437 5.773437-4.097656 4.246094-6.421875 9.910156-6.691406 15.804687l-1.054688 22.964844-1.566406 56.324219c-1.863281 18.273437 7.652344 35.898437 24.066406 44.144531 13.609375 6.835938 21.558594 11.371094 32.257813 14.171875 10.964844 2.867188 22.453125 2.925781 33.4375.128907 10-2.550782 17.523437-6.578126 29.273437-12.542969 17.226563-8.742188 27.941407-26.585938 27.546875-45.898438zm0 0" fill="#fcb275"/><path d="m174.808594 172.761719c-4.539063-.125-8.3125 3.449219-8.3125 7.992187v5.105469c0 2.589844 2.09375 4.671875 4.683594 4.679687 6.933593.019532 20.160156.996094 29.976562 7.351563 6.980469 4.519531 14.703125-4.4375 9.394531-10.746094-6.476562-7.699219-17.394531-13.878906-35.742187-14.382812zm0 0" fill="#7c292e"/><path d="m166.496094 185.859375v-5.105469c0-4.542968-3.777344-8.117187-8.316406-7.992187-18.34375.503906-29.265626 6.6875-35.742188 14.386719-5.304688 6.304687 2.410156 15.265624 9.398438 10.742187 9.8125-6.351563 23.039062-7.328125 29.972656-7.351563 2.585937-.007812 4.6875-2.089843 4.6875-4.679687zm0 0" fill="#7c292e"/><path d="m228.03125 26.09375c-16-7.859375-37.011719-21.089844-61.535156-21.089844-24.527344 0-45.539063 13.230469-61.539063 21.089844-20.621093 10.132812-33.15625 31.632812-31.894531 54.574219l1.722656 36.9375c5.785156-4.429688 13.117188-6.90625 20.945313-6.492188v.011719l.09375-2.023438c.269531-5.894531 2.59375-11.558593 6.691406-15.804687 2.234375-2.3125 4.578125-4.214844 6.898437-5.773437 7.539063-5.066407 16.707032-6.972657 25.761719-6.234376 37.929688 3.089844 59.578125-10.753906 69.507813-19.867187 2.671875-2.453125 7-1.140625 7.746094 2.40625 3.605468 17.15625 15.671874 30.066406 21.707031 35.621094 2.25 2.070312 3.546875 4.980469 3.621093 8.039062l.191407 3.613281c7.574219-.238281 14.640625 2.234376 20.257812 6.539063l1.71875-36.96875c1.261719-22.945313-11.273437-44.445313-31.894531-54.578125zm0 0" fill="#7c292e"/><g fill="#231f20"><path d="m268.890625 509.167969c-2.761719 0-5-2.238281-5-5v-146.496094c0-2.761719 2.238281-5 5-5s5 2.238281 5 5v146.496094c0 2.761719-2.238281 5-5 5zm0 0"/><path d="m64.816406 509.167969c-2.761718 0-5-2.238281-5-5v-146.496094c0-2.761719 2.238282-5 5-5 2.765625 0 5 2.238281 5 5v146.496094c0 2.761719-2.234375 5-5 5zm0 0"/><path d="m205.464844 136.230469c-.789063 0-1.59375-.1875-2.339844-.585938-1.253906-.667969-4.175781-1.445312-8.28125-1.445312-4.109375 0-7.03125.777343-8.28125 1.445312-2.4375 1.292969-5.464844.371094-6.761719-2.070312-1.296875-2.4375-.371093-5.464844 2.066407-6.761719 3.125-1.660156 7.851562-2.613281 12.972656-2.613281s9.847656.953125 12.972656 2.613281c2.441406 1.296875 3.367188 4.324219 2.070312 6.761719-.894531 1.691406-2.625 2.65625-4.417968 2.65625zm0 0"/><path d="m148.351562 136.230469c-.792968 0-1.59375-.1875-2.34375-.585938-1.25-.667969-4.171874-1.445312-8.28125-1.445312-4.105468 0-7.023437.777343-8.277343 1.445312-2.4375 1.292969-5.464844.371094-6.761719-2.070312-1.296875-2.4375-.371094-5.464844 2.066406-6.761719 3.125-1.660156 7.855469-2.613281 12.972656-2.613281 5.121094 0 9.851563.953125 12.972657 2.613281 2.4375 1.296875 3.363281 4.324219 2.066406 6.761719-.894531 1.695312-2.625 2.65625-4.414063 2.65625zm0 0"/><path d="m138.578125 156.726562c-3.316406 0-6-2.6875-6-6v-1.164062c0-3.3125 2.683594-6 6-6 3.3125 0 6 2.6875 6 6v1.164062c0 3.3125-2.6875 6-6 6zm0 0"/><path d="m194.261719 157.617188c-3.3125 0-6-2.683594-6-6v-1.160157c0-3.316406 2.6875-6 6-6 3.316406 0 6 2.683594 6 6v1.160157c0 3.3125-2.683594 6-6 6zm0 0"/><path d="m166.625 212.347656c-9.105469 0-17.589844-4.507812-22.695312-12.0625-1.546876-2.289062-.949219-5.398437 1.34375-6.941406 2.285156-1.546875 5.394531-.949219 6.941406 1.339844 3.242187 4.796875 8.628906 7.664062 14.410156 7.664062s11.167969-2.867187 14.410156-7.664062c1.546875-2.289063 4.660156-2.886719 6.941406-1.339844 2.289063 1.542969 2.890626 4.652344 1.34375 6.941406-5.105468 7.554688-13.589843 12.0625-22.695312 12.0625zm0 0"/><path d="m314.328125 511.996094h-295.667969c-4.96875 0-9.78125-2.066406-13.195312-5.679688-3.414063-3.609375-5.210938-8.527344-4.9375-13.492187l9.613281-172.613281c.855469-15.304688 11.410156-28.101563 26.277344-31.839844l40.171875-10.113282 19.152344-5.632812c2.027343-.59375 4.199218.144531 5.445312 1.84375l27.589844 37.753906c.285156.386719.800781.511719 1.230468.296875l22.917969-11.460937c1.550781-.773438 3.390625-.691406 4.867188.21875 1.472656.914062 2.371093 2.519531 2.371093 4.253906v34.816406c0 .238282.195313.433594.4375.433594h11.789063c.242187 0 .4375-.195312.4375-.433594v-34.816406c0-1.734375.894531-3.34375 2.371094-4.253906 1.472656-.910156 3.316406-.996094 4.867187-.21875l22.921875 11.464844c.429688.207031.945313.085937 1.226563-.300782l27.535156-37.679687c1.242188-1.699219 3.421875-2.4375 5.4375-1.847657l18.261719 5.328126 41.125 10.347656c14.863281 3.738281 25.425781 16.535156 26.277343 31.839844l9.613282 172.613281c.277344 4.964843-1.523438 9.882812-4.9375 13.492187-3.421875 3.613282-8.230469 5.679688-13.199219 5.679688zm-219.140625-228.789063-15.96875 4.695313-40.359375 10.164062c-10.597656 2.664063-18.125 11.789063-18.734375 22.699219l-9.613281 172.617187c-.125 2.261719.664062 4.414063 2.21875 6.0625 1.558593 1.644532 3.664062 2.550782 5.929687 2.550782h295.667969c2.265625 0 4.371094-.90625 5.929687-2.550782 1.554688-1.648437 2.34375-3.800781 2.21875-6.066406l-9.613281-172.613281c-.609375-10.914063-8.136719-20.035156-18.734375-22.703125l-41.304687-10.398438-15.074219-4.390624-25.464844 34.847656c-3.167968 4.335937-8.957031 5.746094-13.769531 3.339844l-15.6875-7.84375v26.726562c0 5.753906-4.683594 10.4375-10.4375 10.4375h-11.792969c-5.753906 0-10.433594-4.683594-10.433594-10.4375v-26.726562l-15.6875 7.84375c-4.808593 2.402343-10.605468.996093-13.773437-3.34375zm0 0"/><path d="m129.554688 322.632812c-3.40625 0-6.71875-1.59375-8.851563-4.511718l-27.589844-37.75c-.9375-1.285156-1.207031-2.945313-.726562-4.464844.484375-1.519531 1.660156-2.714844 3.171875-3.222656l.460937-.152344c1.097657-.371094 2.199219-.738281 3.289063-1.125l20.824218-10.289062c.089844-.042969.179688-.085938.273438-.125 2.261719-.976563 4.9375-.175782 6.25 1.886718l32.296875 37.5c.78125.910156 1.210937 2.066406 1.210937 3.261719v1.890625c0 1.894531-1.070312 3.621094-2.765624 4.472656l-22.921876 11.460938c-1.578124.789062-3.261718 1.167968-4.921874 1.167968zm-24.519532-42.902343 23.742188 32.492187c.285156.386719.800781.511719 1.230468.296875l18.3125-9.160156-27.1875-31.566406zm0 0"/><path d="m203.433594 322.632812c-1.660156 0-3.34375-.378906-4.917969-1.167968l-22.925781-11.460938c-1.695313-.847656-2.761719-2.578125-2.761719-4.472656v-1.886719c0-1.246093.460937-2.445312 1.300781-3.367187l33.59375-36.875c1.355469-1.988282 4-2.730469 6.226563-1.734375.066406.03125.132812.058593.199219.09375l20.550781 10.144531c.414062.136719.832031.265625 1.246093.394531.46875.144531.933594.289063 1.394532.4375 1.523437.5 2.710937 1.699219 3.203125 3.222657.488281 1.523437.21875 3.1875-.722657 4.480468l-27.535156 37.679688c-2.128906 2.917968-5.445312 4.511718-8.851562 4.511718zm-18.644532-19.210937 18.195313 9.097656c.429687.210938.945313.089844 1.226563-.296875l23.742187-32.496094-14.878906-7.347656zm0 0"/><path d="m172.390625 350.785156h-11.792969c-5.753906 0-10.433594-4.683594-10.433594-10.4375v-35.378906c0-2.761719 2.234376-5 5-5h22.664063c2.761719 0 5 2.238281 5 5v35.378906c0 5.753906-4.683594 10.4375-10.4375 10.4375zm-12.226563-40.820312v30.382812c0 .238282.195313.433594.433594.433594h11.792969c.238281 0 .4375-.195312.4375-.433594v-30.382812zm0 0"/><path d="m268.890625 401.167969h-204.074219c-2.761718 0-5-2.238281-5-5v-28.183594c0-2.761719 2.238282-5 5-5h204.074219c2.761719 0 5 2.238281 5 5v28.183594c0 2.761719-2.238281 5-5 5zm-199.074219-10h194.074219v-18.183594h-194.074219zm0 0"/><path d="m268.890625 457.53125h-204.074219c-2.761718 0-5-2.238281-5-5v-28.183594c0-2.761718 2.238282-5 5-5h204.074219c2.761719 0 5 2.238282 5 5v28.183594c0 2.761719-2.238281 5-5 5zm-199.074219-10h194.074219v-18.183594h-194.074219zm0 0"/><path d="m268.890625 511.996094h-204.074219c-2.761718 0-5-2.234375-5-5v-26.285156c0-2.761719 2.238282-5 5-5h204.074219c2.761719 0 5 2.238281 5 5v26.285156c0 2.765625-2.238281 5-5 5zm-199.074219-10h194.074219v-16.285156h-194.074219zm0 0"/><path d="m177.828125 309.964844h-22.664063c-2.570312 0-4.6875-1.9375-4.96875-4.429688l-31.167968-36.183594c-.445313-.390624-.828125-.867187-1.117188-1.417968-1.152344-2.191406-.480468-4.867188 1.433594-6.324219.238281-.179687.492188-.34375.769531-.484375.023438-.011719.046875-.023438.070313-.035156 4.0625-2.007813 6.484375-6 6.484375-10.683594v-10.621094c0-1.722656.882812-3.324218 2.347656-4.238281 1.457031-.914063 3.289063-1.011719 4.835937-.257813 5.742188 2.792969 10.820313 4.980469 16.953126 6.585938 10.265624 2.683594 21.117187 2.683594 31.382812 0 6.128906-1.605469 11.207031-3.792969 16.949219-6.585938 1.550781-.753906 3.378906-.65625 4.839843.257813 1.460938.914063 2.347657 2.515625 2.347657 4.238281v10.621094c0 4.269531 3.347656 9.140625 7.789062 11.335938.03125.015624.058594.03125.089844.046874.226563.117188.441406.25.644531.394532 1.988282 1.433594 2.707032 4.160156 1.542969 6.386718-.3125.601563-.734375 1.113282-1.226563 1.519532l-32.378906 35.535156c-.324218 2.449219-2.421875 4.339844-4.957031 4.339844zm-19.230469-10h15.8125l29.945313-32.863282c-4.910157-4.371093-8.03125-10.613281-8.03125-16.695312v-2.835938c-3.523438 1.480469-7.347657 2.863282-11.609375 3.976563-11.921875 3.117187-24.523438 3.121094-36.445313 0-4.261719-1.117187-8.085937-2.5-11.605469-3.976563v2.835938c0 6.269531-2.542968 12.035156-6.894531 16.089844zm0 0"/><path d="m239.476562 179.410156c-1.285156 0-2.519531-.503906-3.453124-1.390625-.394532-.378906-.71875-.8125-.96875-1.289062-.351563-.664063-.558594-1.417969-.578126-2.21875 0-.007813 0-.015625-.003906-.023438l-.257812-10.703125-1.269532-52.5625c-.066406-2.75 2.097657-5.03125 4.84375-5.117187 10.027344-.328125 19.503907 3.359375 26.710938 10.34375 7.164062 6.941406 11.109375 16.265625 11.109375 26.25 0 19.714843-15.921875 36.074219-35.589844 36.675781-.140625.015625-.28125.027344-.421875.027344-.042968.003906-.078125.007812-.121094.007812zm3.597657-63.011718 1.269531 52.433593c12.097656-2.542969 21.265625-13.371093 21.265625-26.128906 0-7.253906-2.863281-14.027344-8.066406-19.070313-4.035157-3.914062-9.054688-6.398437-14.46875-7.234374zm0 0"/><path d="m93.59375 179.394531c-.027344 0-.054688 0-.078125 0-19.925781-.316406-36.136719-16.773437-36.136719-36.691406 0-10.144531 4.050782-19.570313 11.40625-26.546875 7.285156-6.910156 17.234375-10.542969 27.210938-10.035156 2.71875.144531 4.828125 2.441406 4.730468 5.164062-.28125 8.050782-.375 9.257813-.46875 10.425782-.15625 1.914062-.300781 3.722656-1.667968 52.820312-.074219 2.710938-2.296875 4.863281-4.996094 4.863281zm-3.058594-63.101562c-5.542968.722656-10.703125 3.167969-14.867187 7.117187-5.34375 5.070313-8.289063 11.917969-8.289063 19.292969 0 12.808594 9.214844 23.648437 21.367188 26.152344 1.230468-44.097657 1.371094-45.808594 1.539062-47.949219.058594-.707031.121094-1.480469.25-4.613281zm0 0"/><path d="m239.761719 192.53125c-2.710938 0-4.933594-2.167969-4.996094-4.886719-.0625-2.75 2.109375-5.125 4.859375-5.203125h.140625c2.6875 0 4.90625 2.164063 4.996094 4.863282.003906.054687.003906.109374.003906.164062v.0625c0 2.738281-2.207031 4.964844-4.945313 5-.019531 0-.039062 0-.058593 0zm0 0"/><path d="m239.785156 193.398438c-1.25 0-2.460937-.46875-3.390625-1.328126-1.027343-.945312-1.609375-2.28125-1.609375-3.675781v-.050781c0-2.761719 2.238282-5.007812 5-5.007812 2.761719 0 5 2.230468 5 4.992187 0 2.605469-2 4.84375-4.59375 5.054687-.136718.007813-.269531.015626-.40625.015626zm0 0"/><path d="m239.773438 193.183594c-2.691407 0-4.90625-2.046875-4.988282-4.753906l-.011718-.527344c-.085938-2.757813 2.082031-5.070313 4.84375-5.15625 2.792968-.054688 5.066406 2.074218 5.152343 4.832031l.007813.382813c.070312 2.753906-2.101563 5.144531-4.859375 5.222656-.046875 0-.097657 0-.144531 0zm0 0"/><path d="m239.765625 192.625c-2.648437 0-4.851563-2.070312-4.988281-4.730469-.003906-.074219-.007813-.210937-.011719-.308593 0-.019532 0-.039063 0-.050782 0-2.761718 2.238281-5 5-5 2.738281 0 4.957031 2.199219 5 4.925782.003906.050781.003906.105468.003906.15625 0 2.710937-2.160156 4.933593-4.871093 5.007812-.042969-.003906-.089844 0-.132813 0zm0-5.09375h.308594zm5 0h.019531zm0 0h.019531zm0 0"/><path d="m166.515625 253.890625c-6.140625 0-12.28125-.78125-18.253906-2.347656-9.550781-2.5-16.980469-6.277344-27.261719-11.511719-1.878906-.957031-3.859375-1.964844-5.976562-3.027344-18.042969-9.0625-28.796876-28.707031-26.8125-48.929687l1.558593-56.144531 1.058594-23.058594c.332031-7.222656 3.207031-13.984375 8.089844-19.042969 2.308593-2.398437 4.90625-4.570313 7.707031-6.457031 8.066406-5.417969 18.34375-7.925782 28.953125-7.066406 36.34375 2.953124 56.78125-10.359376 65.722656-18.566407 2.574219-2.363281 6.234375-3.175781 9.558594-2.105469 3.328125 1.066407 5.742187 3.75 6.460937 7.167969 3.375 16.082031 15.25 28.414063 20.199219 32.96875 3.214844 2.957031 5.121094 7.183594 5.234375 11.59375l2.003906 79.953125c.003907.058594.003907.117188.007813.148438 0 .050781.003906.222656.003906.269531l.011719.472656c.003906.039063.003906.09375.003906.136719v.046875c.429688 20.996094-11.457031 40.804687-30.285156 50.363281l-2.519531 1.277344c-10.4375 5.3125-17.976563 9.152344-27.785157 11.648438-5.777343 1.472656-11.730468 2.210937-17.679687 2.210937zm-35.042969-167.75c-7.148437 0-13.894531 1.921875-19.269531 5.535156-2.21875 1.484375-4.265625 3.203125-6.089844 5.09375-3.195312 3.308594-5.078125 7.773438-5.296875 12.5625l-1.054687 22.964844-1.5625 56.234375c-.003907.125-.011719.246094-.023438.367188-1.648437 16.191406 6.925781 31.929687 21.335938 39.167968 2.136719 1.070313 4.132812 2.085938 6.023437 3.050782 10.089844 5.132812 16.753906 8.523437 25.257813 10.75 10.132812 2.652343 20.832031 2.695312 30.9375.121093 8.730469-2.222656 15.488281-5.664062 25.71875-10.871093l2.527343-1.285157c15.425782-7.828125 25.164063-24.054687 24.8125-41.339843-.003906-.03125-.003906-.117188-.003906-.152344l-.011718-.457032c0-.023437-.003907-.085937-.003907-.148437-.003906-.046875-.003906-.097656-.003906-.144531l-2.007813-79.976563c-.042968-1.714843-.777343-3.351562-2.007812-4.488281-6.953125-6.398438-19.113281-19.738281-23.082031-37.660156-10.339844 9.335937-33.292969 24.039062-72.902344 20.808594-1.101563-.089844-2.203125-.132813-3.292969-.132813zm0 0"/><path d="m205.125 204.109375c-2.277344 0-4.589844-.664063-6.691406-2.023437-8.726563-5.652344-20.832032-6.53125-27.273438-6.546876-5.328125-.015624-9.667968-4.359374-9.667968-9.679687v-5.109375c0-3.527344 1.390624-6.820312 3.921874-9.28125 2.558594-2.492188 5.9375-3.816406 9.53125-3.707031 17.546876.480469 30.8125 5.917969 39.433594 16.164062 3.996094 4.753907 3.914063 11.335938-.207031 16.003907-2.425781 2.753906-5.703125 4.179687-9.046875 4.179687zm-33.628906-18.570313c7.609375.050782 21.640625 1.203126 32.375 8.152344 1.296875.839844 2.242187.257813 2.800781-.378906.484375-.546875 1.132813-1.660156.050781-2.949219-6.699218-7.964843-17.484375-12.207031-32.050781-12.605469-.011719.003907-.0625 0-.09375 0-.832031 0-1.609375.308594-2.195313.878907-.574218.5625-.890624 1.3125-.890624 2.117187v4.785156zm0 0"/><path d="m127.859375 204.113281c-3.34375 0-6.617187-1.429687-9.042969-4.179687-4.121094-4.667969-4.207031-11.25-.207031-16.003906 8.621094-10.246094 21.886719-15.6875 39.433594-16.167969 3.589843-.113281 6.972656 1.21875 9.53125 3.707031 2.527343 2.460938 3.921875 5.757812 3.921875 9.285156v5.105469c0 5.324219-4.339844 9.664063-9.671875 9.679687-6.441407.019532-18.542969.898438-27.273438 6.550782-2.097656 1.359375-4.414062 2.023437-6.691406 2.023437zm30.550781-26.355469c-.03125 0-.0625 0-.09375 0-14.566406.398438-25.355468 4.640626-32.054687 12.605469-1.082031 1.289063-.429688 2.40625.050781 2.953125.5625.636719 1.5 1.21875 2.804688.375 10.730468-6.949218 24.765624-8.101562 32.375-8.152344v-4.792968c0-.800782-.316407-1.550782-.890626-2.113282-.585937-.566406-1.359374-.875-2.191406-.875zm0 0"/><path d="m258.207031 122.636719c-1.082031 0-2.152343-.347657-3.042969-1.027344-4.886718-3.746094-10.945312-5.679687-17.0625-5.511719-2.78125.09375-5.007812-2.019531-5.148437-4.734375l-.191406-3.613281c-.046875-1.851562-.78125-3.488281-2.015625-4.625-6.949219-6.390625-19.109375-19.734375-23.082032-37.65625-10.339843 9.332031-33.292968 24.023438-72.898437 20.804688-8.359375-.683594-16.375 1.238281-22.5625 5.402343-2.210937 1.484375-4.261719 3.199219-6.09375 5.097657-3.191406 3.308593-5.074219 7.769531-5.292969 12.5625l-.09375 2.019531c-.121094 2.710937-2.367187 4.796875-5.105468 4.769531-.164063-.003906-.324219-.015625-.480469-.03125-6.246094-.261719-12.359375 1.6875-17.308594 5.484375-1.480469 1.132813-3.464844 1.347656-5.148437.5625-1.691407-.785156-2.800782-2.441406-2.886719-4.300781l-1.71875-36.9375c-1.378907-24.976563 12.230469-48.269532 34.679687-59.296875 2.457032-1.207031 5.039063-2.542969 7.730469-3.941407 15.1875-7.871093 34.082031-17.664062 56.011719-17.664062 21.925781 0 40.820312 9.792969 56.007812 17.664062 2.695313 1.394532 5.273438 2.734376 7.730469 3.941407 22.449219 11.027343 36.058594 34.320312 34.683594 59.335937l-1.714844 36.925782c-.085937 1.859374-1.199219 3.515624-2.886719 4.304687-.675781.3125-1.390625.464844-2.109375.464844zm-15.515625-16.355469c3.761719.394531 7.441406 1.367188 10.90625 2.878906l1.332032-28.726562c1.160156-21.046875-10.265626-40.597656-29.105469-49.855469-2.519531-1.234375-5.160157-2.605469-7.921875-4.035156-14.21875-7.371094-31.921875-16.542969-51.40625-16.542969-19.488282 0-37.191406 9.171875-51.410156 16.542969-2.757813 1.429687-5.402344 2.800781-7.921876 4.035156-18.839843 9.257813-30.265624 28.808594-29.109374 49.8125l1.339843 28.738281c3.699219-1.609375 7.640625-2.605468 11.675781-2.9375.839844-6.203125 3.570313-11.933594 7.847657-16.363281 2.316406-2.402344 4.914062-4.574219 7.707031-6.457031 8.066406-5.417969 18.34375-7.925782 28.953125-7.066406 36.34375 2.953124 56.78125-10.359376 65.722656-18.566407 2.574219-2.363281 6.234375-3.175781 9.558594-2.105469 3.328125 1.066407 5.742187 3.75 6.460937 7.167969 3.375 16.085938 15.25 28.414063 20.199219 32.96875 2.953125 2.71875 4.804688 6.503907 5.171875 10.511719zm0 0"/></g></svg>