<svg height="511pt" viewBox="-78 0 511 511.97094" width="511pt" xmlns="http://www.w3.org/2000/svg"><path d="m237.59375 115.910156c-10.898438-3.148437-26.863281-12.074218-36.042969-37.289062-.621093-1.699219-2.859375-2.058594-3.953125-.617188-7.15625 9.460938-30.050781 33.863282-74.316406 31.351563-12.097656-.683594-21.316406 2.527343-27.617188 7.101562l-2.273437 23.398438c-3.730469 35.066406 8.035156 70.21875 32.792969 95.324219 9.140625 9.265624 20.058594 17.730468 32.832031 23.609374 4.789063 2.207032 10.484375 2.210938 15.28125 0 12.777344-5.878906 23.695313-14.34375 32.832031-23.609374 24.761719-25.105469 36.523438-60.257813 32.792969-95.324219zm0 0" fill="#fcb275"/><path d="m93.390625 139.855469 2.152344-22.121094c-.929688-.089844-1.867188-.144531-2.816407-.144531-15.917968 0-28.824218 12.90625-28.824218 28.824218 0 15.917969 12.90625 28.824219 28.824218 28.824219.726563 0 1.441407-.054687 2.15625-.105469-2.199218-11.511718-2.753906-23.394531-1.492187-35.277343zm0 0" fill="#fcb275"/><path d="m240.964844 117.589844c-1.078125 0-2.140625.070312-3.1875.1875l2.144531 22.078125c1.265625 11.878906.710937 23.753906-1.484375 35.253906.832031.074219 1.671875.128906 2.527344.128906 15.917968 0 28.824218-12.90625 28.824218-28.824219 0-15.917968-12.90625-28.824218-28.824218-28.824218zm0 0" fill="#fcb275"/><path d="m92.726562 117.589844c.949219 0 1.886719.054687 2.816407.144531l.121093-1.277344c6.300782-4.578125 15.519532-7.789062 27.617188-7.101562 44.265625 2.511719 67.160156-21.890625 74.316406-31.351563 1.09375-1.445312 3.332032-1.085937 3.953125.617188 9.175781 25.214844 25.140625 34.140625 36.042969 37.285156l.183594 1.867188c1.046875-.113282 2.109375-.183594 3.1875-.183594 11.105468 0 20.730468 6.292968 25.542968 15.5 8.292969-28.300782 12.5-64.699219-7.664062-90.546875-40.148438-51.464844-77.714844-37.128907-89.089844-30.945313-1.632812.890625-3.511718.890625-5.148437 0-11.371094-6.183594-48.9375-20.519531-89.089844 30.949219-19.96875 25.601563-16.03125 61.558594-7.902344 89.742187 4.949219-8.769531 14.332031-14.699218 25.113281-14.699218zm0 0" fill="#7c292e"/><path d="m263.390625 266.082031c-14.445313-36.820312-10.113281-73.089843-3.445313-98.011719-5.074218 4.449219-11.703124 7.167969-18.980468 7.167969-.855469 0-1.695313-.054687-2.527344-.128906-3.925781 20.582031-13.210938 39.933594-27.335938 55.804687l.292969-.3125v9.703126c0 1.625.230469 3.847656.667969 6.308593 1.3125 7.390625 4.484375 16.949219 8.855469 19.105469-.226563-.109375 3.285156 1.621094 3.730469 1.839844.164062.074218.3125.144531.46875.21875 15.960937 7.402344 12.6875 7.183594 23.617187 10.625l15.378906 4.414062 2.703125.902344c.507813-4.386719-.492187-10.15625-3.425781-17.636719zm0 0" fill="#7c292e"/><path d="m108.171875 267.613281c-.222656.109375 3.570313-1.761719 3.84375-1.894531 4.578125-2.261719 7.835937-23.828125 9.027344-36.144531-13.46875-15.613281-22.347657-34.449219-26.164063-54.453125 0 .003906.003906.003906.003906.011718-.714843.050782-1.429687.105469-2.15625.105469-7.417968 0-14.160156-2.824219-19.265624-7.425781 6.707031 24.929688 11.113281 61.324219-3.378907 98.269531-2.875 7.332031-3.890625 13.019531-3.449219 17.371094l1.054688-.355469c29.03125-7.304687 31.804688-11.984375 40.484375-15.484375zm0 0" fill="#7c292e"/><path d="m149.707031 484.746094h-7.480469c-5.558593 0-10.101562-4.546875-10.101562-10.101563 0-5.554687 4.542969-10.101562 10.101562-10.101562h7.378907v-8.082031c0-35.785157 20.964843-66.894532 51.207031-81.703126.007812-.003906.015625-.007812.019531-.011718 2.925781-1.429688 5.933594-2.707032 9.019531-3.824219.09375-.03125.183594-.070313.277344-.101563.765625-.273437 1.535156-.53125 2.308594-.78125.4375-.144531.871094-.285156 1.308594-.425781.660156-.203125 1.320312-.398437 1.984375-.585937.585937-.167969 1.175781-.328125 1.769531-.488282.574219-.148437 1.148438-.300781 1.730469-.441406.746093-.179687 1.5-.347656 2.253906-.507812.457031-.097656.910156-.203125 1.371094-.296875 1.230469-.246094 2.46875-.472657 3.71875-.667969h.007812v-1.75c0-4.648438 3.765625-8.417969 8.414063-8.417969h13.0625c4.648437 0 8.417968 3.769531 8.417968 8.417969v2.117188c1.21875.214843 2.433594.464843 3.640626.734374.449218.101563.890624.210938 1.339843.320313.734375.175781 1.46875.355469 2.199219.546875.566406.152344 1.125.308594 1.6875.472656.578125.164063 1.15625.335938 1.730469.511719.648437.199219 1.292969.40625 1.9375.617187.421875.144532.84375.292969 1.265625.441407.757812.261719 1.515625.53125 2.265625.8125.082031.035156.164062.066406.246093.101562 22.40625 8.574219 40.617188 25.785157 50.515626 47.511719-1.832032-32.882812-3.664063-65.773438-5.488282-98.582031-.730468-13.035157-9.84375-24.082031-22.503906-27.265625l-31.199219-10.398438-15.378906-4.410156c-11.039063-3.476562-7.578125-3.214844-24.082031-10.84375-.445313-.222656-3.957032-1.953125-3.734375-1.839844-5.832031-2.878906-9.519531-18.914062-9.519531-25.414062v-9.703125c-1.378907 1.558593-2.796876 3.089843-4.265626 4.578125-9.136718 9.265625-20.058593 17.730468-32.832031 23.613281-4.796875 2.207031-10.492187 2.203125-15.28125 0-12.773437-5.882813-23.695312-14.347656-32.832031-23.613281-1.785156-1.8125-3.488281-3.691406-5.140625-5.609375-1.191406 12.316406-4.449219 33.890625-9.027344 36.144531-.273437.136719-4.066406 2.007812-3.84375 1.894531-8.679687 3.5-11.453125 8.183594-40.484375 15.488281l-30.066406 10.113282c-12.660156 3.183594-21.777344 14.230468-22.5 27.265625-11.046875 198.296875-8.191406 147.027343-9.617188 172.601562-.417968 7.542969 5.585938 13.890625 13.140626 13.890625h155.199218c-12.652344 0-23.105468-9.828125-24.140625-22.226562zm0 0" fill="#e04e36"/><path d="m220.914062 265.71875c-5.832031-2.878906-9.519531-18.914062-9.519531-25.414062v-9.703126c-1.378906 1.558594-2.796875 3.089844-4.265625 4.578126-9.136718 9.265624-20.058594 17.730468-32.832031 23.609374-4.796875 2.210938-10.492187 2.207032-15.28125 0-12.773437-5.878906-23.695313-14.34375-32.832031-23.609374-1.785156-1.8125-3.488282-3.691407-5.140625-5.609376-1.191407 12.316407-4.449219 33.886719-9.027344 36.144532-.273437.136718-4.066406 2.007812-3.84375 1.894531-.125.050781-.242187.105469-.363281.152344 12.160156 12.929687 39.511718 21.011719 58.660156 21.011719 19.140625 0 46.488281-8.078126 58.648438-21-.15625-.074219-.304688-.144532-.46875-.21875-.445313-.21875-3.957032-1.949219-3.734376-1.835938zm0 0" fill="#fcbd4c"/><path d="m159.015625 258.789062c-12.773437-5.878906-23.695313-14.34375-32.832031-23.609374-1.785156-1.8125-3.488282-3.691407-5.140625-5.609376-1.191407 12.316407-4.449219 33.886719-9.027344 36.144532-.273437.136718-4.066406 2.007812-3.84375 1.894531-.125.050781-.242187.105469-.363281.152344 11.90625 12.660156 38.800781 20.65625 57.472656 20.984375v-24.503906c0-1.347657-.125-2.632813-.304688-3.886719-2.054687-.183594-4.074218-.699219-5.960937-1.566407zm0 0" fill="#fcbd4c"/><path d="m269.011719 370.195312c.421875.140626.84375.289063 1.265625.4375.757812.265626 1.515625.53125 2.265625.816407.082031.03125.164062.066406.246093.097656 22.40625 8.578125 40.617188 25.789063 50.515626 47.515625-1.832032-32.886719-3.664063-65.777344-5.492188-98.585938-.335938-6.007812-2.46875-11.582031-5.894531-16.171874l-30.390625 30.867187c-8.332032 8.460937-13 19.859375-13 31.738281v3.117188c.160156.054687.320312.113281.484375.167968zm0 0" fill="#e04e36"/><path d="m5.507812 493.089844c3.199219-57.429688 6.414063-115.160156 9.613282-172.613282.335937-6.007812 2.46875-11.582031 5.894531-16.171874l30.390625 30.867187c8.332031 8.460937 13.003906 19.859375 13.003906 31.738281v140.058594h-45.761718c-7.554688.003906-13.5625-6.332031-13.140626-13.878906zm0 0" fill="#e04e36"/><path d="m186.140625 383.730469h-121.875v38.386719h92.136719c6.300781-15.3125 16.65625-28.566407 29.738281-38.386719zm0 0" fill="#fcbd4c"/><path d="m9.460938 422.117188h54.804687v-38.386719h-52.667969c-.839844 15.046875-1.542968 27.695312-2.136718 38.386719zm0 0" fill="#fcbd4c"/><path d="m323.304688 419.0625c-.65625-11.785156-1.3125-23.546875-1.96875-35.328125h-26.496094c12.21875 9.152344 22.074218 21.296875 28.464844 35.328125zm0 0" fill="#fcbd4c"/><path d="m340.214844 484.746094h-197.992188c-5.554687 0-10.101562-4.546875-10.101562-10.101563 0-5.554687 4.546875-10.101562 10.101562-10.101562h197.992188c5.554687 0 10.101562 4.546875 10.101562 10.101562 0 5.554688-4.546875 10.101563-10.101562 10.101563zm0 0" fill="#e04e36"/><path d="m149.707031 484.746094c1.035157 12.398437 11.484375 22.226562 24.140625 22.226562h133.339844c12.652344 0 23.105469-9.828125 24.140625-22.226562zm0 0" fill="#e8e6e6"/><path d="m256.476562 366.988281v56.546875c5.0625 4.261719 8.285157 10.640625 8.285157 17.777344 0 7.132812-3.222657 13.511719-8.285157 17.773438v5.457031h74.953126v-8.082031c0-44.558594-32.496094-81.871094-74.953126-89.472657zm0 0" fill="#e04e36"/><path d="m218.292969 441.3125c0-7.136719 3.222656-13.515625 8.285156-17.777344v-56.910156c-43.445313 6.761719-76.976563 44.570312-76.976563 89.839844v8.082031h76.976563v-5.460937c-5.0625-4.261719-8.285156-10.640626-8.285156-17.773438zm0 0" fill="#e04e36"/><path d="m200.8125 464.542969h25.769531v-5.457031c-5.0625-4.261719-8.285156-10.640626-8.285156-17.773438 0-7.136719 3.222656-13.515625 8.285156-17.777344v-56.910156c-9.101562 1.417969-17.757812 4.210938-25.769531 8.132812zm0 0" fill="#fcbd4c"/><path d="m281.625 375.484375c-7.8125-3.992187-16.257812-6.902344-25.148438-8.496094v56.546875c5.0625 4.261719 8.285157 10.640625 8.285157 17.777344 0 7.132812-3.222657 13.511719-8.285157 17.773438v5.457031h25.148438zm0 0" fill="#fcbd4c"/><path d="m241.527344 418.078125c5.695312 0 10.90625 2.054687 14.949218 5.457031v-58.664062c0-4.644532-3.769531-8.414063-8.417968-8.414063h-13.0625c-4.648438 0-8.414063 3.769531-8.414063 8.414063v58.664062c4.039063-3.402344 9.25-5.457031 14.945313-5.457031zm0 0" fill="#e04e36"/><path d="m264.761719 441.3125c0 12.832031-10.402344 23.234375-23.234375 23.234375-12.832032 0-23.234375-10.402344-23.234375-23.234375s10.402343-23.234375 23.234375-23.234375c12.832031 0 23.234375 10.402344 23.234375 23.234375zm0 0" fill="#49c3f2"/><g fill="#231f20"><path d="m166.65625 265.4375c-3.339844 0-6.683594-.703125-9.730469-2.105469-12.15625-5.597656-23.695312-13.886719-34.300781-24.640625-25.683594-26.046875-38.152344-62.261718-34.207031-99.363281l2.269531-23.355469c.140625-1.421875.882812-2.71875 2.039062-3.558594 5.707032-4.144531 15.679688-8.902343 30.839844-8.050781 41.375 2.367188 62.769532-19.761719 70.046875-29.375 1.609375-2.121093 4.230469-3.203125 6.867188-2.796875 2.640625.398438 4.851562 2.207032 5.765625 4.722656 8.320312 22.855469 22.394531 31.207032 32.734375 34.195313 1.96875.566406 3.394531 2.28125 3.589843 4.320313l2.328126 23.945312c3.941406 37.058594-8.523438 73.277344-34.207032 99.320312-10.609375 10.753907-22.148437 19.046876-34.300781 24.640626-3.046875 1.402343-6.390625 2.101562-9.734375 2.101562zm-66.242188-146.144531-2.046874 21.046875c-3.632813 34.152344 7.804687 67.425781 31.378906 91.328125 9.753906 9.894531 20.304687 17.488281 31.359375 22.582031 3.476562 1.597656 7.625 1.597656 11.101562 0 11.054688-5.089844 21.605469-12.6875 31.363281-22.582031 23.574219-23.902344 35.011719-57.175781 31.378907-91.28125l-2.015625-20.734375c-11.371094-4.097656-25.300782-13.515625-34.355469-34.921875-10.363281 11.984375-34.070313 31.957031-75.578125 29.617187-10.683594-.625-17.984375 2.117188-22.585938 4.945313zm0 0"/><path d="m92.726562 180.242188c-18.648437 0-33.824218-15.175782-33.824218-33.824219 0-18.652344 15.175781-33.824219 33.824218-33.824219 1.070313 0 2.148438.054688 3.296876.164062 1.320312.128907 2.539062.777344 3.378906 1.800782.84375 1.019531 1.246094 2.339844 1.117187 3.660156l-2.152343 22.125c-.003907.011719-.003907.027344-.003907.042969-1.191406 11.214843-.710937 22.59375 1.429688 33.804687.269531 1.402344-.074219 2.847656-.945313 3.980469-.867187 1.132813-2.175781 1.839844-3.597656 1.945313-.925781.066406-1.71875.125-2.523438.125zm-2.695312-57.496094c-11.871094 1.339844-21.128906 11.441406-21.128906 23.671875 0 11.851562 8.699218 21.710937 20.050781 23.523437-1.433594-10.179687-1.617187-20.441406-.539063-30.589844zm3.359375 17.109375h.019531zm0 0"/><path d="m240.964844 180.242188c-1.003906 0-1.992188-.0625-2.972656-.148438-1.40625-.125-2.695313-.839844-3.546876-1.96875-.851562-1.125-1.183593-2.558594-.917968-3.949219 2.136718-11.210937 2.617187-22.578125 1.425781-33.789062l-2.152344-22.125c-.261719-2.722657 1.710938-5.152344 4.429688-5.453125 1.320312-.144532 2.539062-.214844 3.734375-.214844 18.648437 0 33.824218 15.171875 33.824218 33.824219 0 18.648437-15.175781 33.824219-33.824218 33.824219zm2.3125-57.539063 1.621094 16.667969c1.082031 10.136718.894531 20.425781-.546876 30.628906 11.539063-1.652344 20.4375-11.597656 20.4375-23.585938 0-12.351562-9.457031-22.542968-21.511718-23.710937zm0 0"/><path d="m266.507812 138.09375c-1.847656 0-3.5625-1.023438-4.429687-2.683594-4.132813-7.90625-12.222656-12.816406-21.113281-12.816406-.824219 0-1.691406.050781-2.640625.15625-1.328125.148438-2.664063-.25-3.699219-1.089844-.636719-.519531-1.132812-1.179687-1.449219-1.917968-11.414062-4.050782-25.476562-13.453126-34.597656-35.007813-10.363281 11.980469-34.070313 31.957031-75.578125 29.613281-10.796875-.621094-18.148438 2.179688-22.738281 5.042969-.742188 2.121094-2.867188 3.527344-5.203125 3.324219-.828125-.082032-1.589844-.121094-2.332032-.121094-8.574218 0-16.527343 4.65625-20.753906 12.152344-.992187 1.75-2.941406 2.722656-4.933594 2.507812-2-.234375-3.667968-1.644531-4.226562-3.578125-11.433594-39.625-8.402344-72.203125 8.761719-94.207031 42.769531-54.824219 83.851562-38.554688 95.421875-32.261719.140625.078125.226562.078125.367187 0 11.570313-6.292969 52.652344-22.5625 95.425781 32.261719 17.289063 22.167969 20.234376 55.027344 8.519532 95.03125-.574219 1.957031-2.28125 3.371094-4.308594 3.570312-.164062.015626-.328125.023438-.492188.023438zm-25.167968-25.5c8.710937.097656 16.855468 3.507812 22.957031 9.335938 5.769531-24.414063 7.511719-54.640626-9.390625-76.308594-36.894531-47.292969-70.167969-36.472656-82.761719-29.625-3.105469 1.6875-6.8125 1.683594-9.917969 0-12.59375-6.847656-45.871093-17.667969-82.761718 29.625-16.820313 21.5625-15.15625 51.609375-9.511719 75.816406 6.089844-5.546875 14.097656-8.785156 22.542969-8.84375.078125-.0625.15625-.121094.234375-.179688 5.707031-4.148437 15.6875-8.90625 30.839843-8.050781 41.375 2.355469 62.769532-19.761719 70.046876-29.375 1.609374-2.121093 4.238281-3.199219 6.863281-2.796875 2.644531.394532 4.851562 2.207032 5.769531 4.722656 8.320312 22.855469 22.394531 31.207032 32.738281 34.195313.925781.265625 1.734375.792969 2.351563 1.484375zm0 0"/><path d="m266.816406 288.714844c-.535156 0-1.066406-.082032-1.582031-.257813l-2.605469-.867187-15.277344-4.382813c-7.160156-2.253906-8.859374-3.144531-12.585937-5.105469-2.347656-1.230468-5.558594-2.917968-11.753906-5.789062l-4.269531-2.089844c-.019532-.011718-.039063-.023437-.058594-.03125-7.4375-3.691406-10.550782-17.105468-11.546875-22.707031-.488281-2.75-.746094-5.234375-.746094-7.183594v-7.707031c-.59375-1.664062-.285156-3.59375.972656-5.007812 13.296875-14.941407 22.34375-33.414063 26.160157-53.414063.480468-2.519531 2.777343-4.292969 5.34375-4.042969.691406.058594 1.386718.109375 2.09375.109375 5.757812 0 11.328124-2.105469 15.683593-5.929687 1.65625-1.457032 4.070313-1.652344 5.9375-.488282 1.871094 1.164063 2.757813 3.410157 2.191407 5.539063-6.28125 23.476563-10.8125 58.996094 3.269531 94.894531 3.148437 8.027344 4.371093 14.578125 3.734375 20.035156-.171875 1.496094-1.011719 2.835938-2.28125 3.644532-.808594.515625-1.742188.78125-2.679688.78125zm-43.183594-27.195313c.308594.125.625.269531.949219.429688l2.660157 1.296875c6.398437 2.96875 9.738281 4.722656 12.171874 6.003906 3.46875 1.820312 4.636719 2.433594 10.820313 4.382812l11.226563 3.21875c-.511719-2.628906-1.417969-5.617187-2.726563-8.945312-12.917969-32.933594-11.25-65.386719-6.316406-89.683594-3.175781 1.148438-6.523438 1.824219-9.9375 1.976563-4.390625 19.398437-13.347657 37.34375-26.089844 52.25v7.851562c0 1.332031.214844 3.3125.589844 5.433594 1.5625 8.78125 4.621093 14.738281 6.144531 15.496094.003906 0 .011719.003906.015625.007812.175781.089844.335937.179688.492187.28125zm0 0"/><path d="m66.632812 288.453125c-.949218 0-1.890624-.269531-2.707031-.792969-1.277343-.824218-2.113281-2.1875-2.265625-3.703125-.546875-5.398437.683594-11.84375 3.765625-19.703125 14.121094-35.996094 9.539063-71.609375 3.207031-95.144531-.574218-2.136719.328126-4.402344 2.214844-5.558594 1.890625-1.160156 4.316406-.9375 5.960938.546875 4.394531 3.957032 10.046875 6.140625 15.917968 6.140625.492188 0 .976563-.035156 1.457032-.070312 2.085937-.277344 4.191406.765625 5.164062 2.714843.210938.421876.363282.871094.449219 1.332032 3.707031 19.390625 12.363281 37.402344 25.03125 52.089844.894531 1.035156 1.324219 2.386718 1.191406 3.746093-3.480469 36.050781-9.738281 39.132813-11.792969 40.148438l-3.816406 1.882812c-.011718.003907-.023437.011719-.035156.015625-.125.0625-.25.121094-.378906.167969-2.097656.851563-3.871094 1.808594-5.917969 2.917969-5.996094 3.246094-13.449219 7.285156-34.980469 12.714844l-.871094.289062c-.515624.179688-1.058593.265625-1.59375.265625zm14.40625-110.308594c4.957032 24.339844 6.625 56.808594-6.300781 89.765625-1.296875 3.300782-2.199219 6.273438-2.710937 8.890625 16.214844-4.410156 22.304687-7.707031 27.292968-10.40625 2.234376-1.210937 4.339844-2.355469 6.984376-3.417969.066406-.027343.132812-.050781.203124-.074218.484376-.28125.9375-.503906 1.300782-.683594l1.597656-.789062c1.894531-2.496094 4.777344-14.382813 6.449219-30.25-12.171875-14.640626-20.761719-32.15625-25.023438-50.996094-3.371093-.1875-6.667969-.878906-9.792969-2.039063zm0 0"/><path d="m166.878906 218.996094c-8.945312 0-17.277344-4.429688-22.289062-11.847656-1.546875-2.289063-.945313-5.394532 1.34375-6.941407 2.289062-1.546875 5.394531-.945312 6.941406 1.34375 3.148438 4.664063 8.382812 7.445313 14.003906 7.445313 5.617188 0 10.851563-2.78125 14-7.445313 1.542969-2.289062 4.652344-2.890625 6.941406-1.34375 2.289063 1.542969 2.890626 4.652344 1.34375 6.941407-5.011718 7.417968-13.34375 11.847656-22.285156 11.847656zm0 0"/><path d="m140.957031 168.835938c-3.316406 0-6-2.6875-6-6v-1.117188c0-3.316406 2.683594-6 6-6 3.3125 0 6 2.683594 6 6v1.117188c0 3.3125-2.6875 6-6 6zm0 0"/><path d="m194.5 169.6875c-3.3125 0-6-2.683594-6-6v-1.117188c0-3.3125 2.6875-6 6-6 3.316406 0 6 2.6875 6 6v1.117188c0 3.316406-2.683594 6-6 6zm0 0"/><path d="m204.855469 149.113281c-.789063 0-1.59375-.191406-2.339844-.585937-1.199219-.636719-4.003906-1.382813-7.953125-1.382813-3.953125 0-6.753906.746094-7.957031 1.382813-2.4375 1.292968-5.464844.371094-6.761719-2.070313-1.292969-2.441406-.367188-5.464843 2.074219-6.761719 3.050781-1.621093 7.660156-2.550781 12.644531-2.550781s9.59375.929688 12.648438 2.550781c2.4375 1.292969 3.363281 4.320313 2.070312 6.761719-.902344 1.691407-2.632812 2.652344-4.425781 2.65625zm0 0"/><path d="m149.492188 149.113281c-.792969 0-1.59375-.191406-2.339844-.585937-1.203125-.636719-4.007813-1.382813-7.957032-1.382813-3.949218 0-6.753906.746094-7.957031 1.382813-2.4375 1.292968-5.464843.371094-6.757812-2.070313-1.296875-2.441406-.371094-5.464843 2.070312-6.761719 3.050781-1.621093 7.664063-2.550781 12.644531-2.550781 4.984376 0 9.597657.929688 12.648438 2.550781 2.4375 1.292969 3.367188 4.320313 2.070312 6.761719-.902343 1.691407-2.632812 2.652344-4.421874 2.65625zm0 0"/><path d="m165.28125 410.609375c-2.761719 0-5-2.238281-5-5v-116.832031c0-2.761719 2.238281-5 5-5s5 2.238281 5 5v116.832031c0 2.761719-2.238281 5-5 5zm0 0"/><path d="m173.847656 511.972656h-155.199218c-4.972657 0-9.78125-2.070312-13.195313-5.683594-3.414063-3.609374-5.214844-8.527343-4.941406-13.488281l9.617187-172.601562c.847656-15.234375 11.316406-27.984375 26.078125-31.789063l29.886719-10.050781c.125-.039063.246094-.078125.375-.109375 20.457031-5.148438 27.328125-8.871094 32.847656-11.859375 2.234375-1.207031 4.34375-2.351563 6.988282-3.414063.058593-.027343.117187-.046874.179687-.070312.480469-.273438.941406-.5 1.324219-.6875l1.59375-.792969c1.980468-2.605469 5.03125-15.4375 6.664062-32.335937.191406-1.992188 1.554688-3.679688 3.460938-4.285156 1.910156-.609376 3.996094-.019532 5.300781 1.5 1.761719 2.039062 3.367187 3.792968 4.917969 5.363281 9.753906 9.890625 20.304687 17.488281 31.359375 22.578125 3.476562 1.597656 7.625 1.597656 11.101562 0 11.054688-5.089844 21.605469-12.683594 31.363281-22.578125 1.339844-1.359375 2.671876-2.792969 4.078126-4.378907 1.375-1.558593 3.578124-2.105468 5.515624-1.367187 1.941407.734375 3.230469 2.597656 3.230469 4.675781v9.703125c0 7.0625 4.027344 19.582031 6.734375 20.929688.003906.003906.011719.007812.015625.007812.167969.085938.332031.179688.488281.28125.308594.125.625.269531.949219.429688l2.265625 1.117187c6.640625 3.066406 10.074219 4.871094 12.582032 6.191406 3.457031 1.816407 4.625 2.429688 10.804687 4.375l15.253906 4.375c.070313.019532.136719.042969.203125.0625l31.027344 10.339844c14.765625 3.800782 25.238281 16.550782 26.085938 31.792969l5.492187 98.582031c.132813 2.398438-1.460937 4.554688-3.796875 5.132813-2.339844.570312-4.75-.597657-5.746094-2.785157-9.339844-20.5-26.746094-36.875-47.753906-44.914062-.023438-.011719-.214844-.085938-.242188-.097656-.699218-.265625-1.417968-.519532-2.136718-.769532-.457032-.160156-.816406-.289062-1.183594-.410156-.621094-.207031-1.230469-.398437-1.847656-.589844-.539063-.167968-1.082032-.328124-1.625-.484374-.523438-.148438-1.050782-.296876-1.582032-.4375-.707031-.191407-1.398437-.355469-2.089843-.523438l-1.261719-.300781c-1.140625-.253907-2.289062-.488281-3.445312-.699219-2.378907-.429688-4.109376-2.5-4.109376-4.917969v-2.117187c0-1.882813-1.535156-3.417969-3.417968-3.417969h-13.0625c-1.882813 0-3.414063 1.535156-3.414063 3.417969v1.753906c0 2.542969-1.894531 4.636719-4.347656 4.957031-1.140625.183594-2.273437.386719-3.398437.613281l-1.289063.28125c-.722656.15625-1.433594.308594-2.136719.480469-.507812.125-1 .25-1.488281.378907-.707031.1875-1.265625.339843-1.816406.496093-.632813.183594-1.261719.367188-1.882813.558594l-1.226562.394531c-.738282.242188-1.464844.484375-2.183594.742188l-.292969.109375c-2.847656 1.027343-5.710937 2.246093-8.488281 3.601562-.023438.011719-.042969.023438-.066406.03125-29.378906 14.410157-48.363282 44.703125-48.363282 77.195313v8.078125c0 2.761719-2.238281 5-5 5h-7.378906c-2.8125 0-5.101562 2.289062-5.101562 5.101562s2.289062 5.101563 5.101562 5.101563h7.484375c2.597657 0 4.765625 1.992187 4.980469 4.582031.828125 9.894531 9.242188 17.644531 19.160156 17.644531 2.761719 0 5 2.234375 5 5 0 2.761719-2.238281 5-5 5zm-104.75-224.070312-29.878906 10.046875c-.125.042969-.246094.078125-.375.113281-10.59375 2.664062-18.121094 11.785156-18.730469 22.695312l-9.613281 172.597657c-.125 2.265625.664062 4.417969 2.222656 6.0625 1.554688 1.648437 3.660156 2.554687 5.925782 2.554687h133.273437c-3.039063-3.457031-5.289063-7.625-6.4375-12.226562h-3.257813c-8.328124 0-15.101562-6.773438-15.101562-15.101563 0-8.324219 6.773438-15.101562 15.101562-15.101562h2.378907v-3.078125c0-36.296875 21.199219-70.132813 54.007812-86.199219.03125-.011719.058594-.027344.085938-.039063 3.105469-1.515624 6.273437-2.855468 9.453125-4.003906l.292968-.109375c.808594-.292969 1.625-.5625 2.445313-.828125l1.367187-.445312c.707032-.214844 1.402344-.421875 2.097657-.621094.621093-.179688 1.242187-.351562 1.871093-.515625.71875-.1875 1.277344-.335937 1.839844-.46875.773438-.1875 1.566406-.363281 2.363282-.535156l.394531-.085938c.328125-.074219.65625-.144531.984375-.210937 1.164062-6.222656 6.632812-10.949219 13.1875-10.949219h13.0625c6.714844 0 12.296875 4.964844 13.265625 11.414063.308593.070312.613281.148437.917969.222656l.382812.089844c.765625.183593 1.546875.375 2.320312.582031.578126.152343 1.171876.320312 1.769532.488281.613281.179688 1.226562.359375 1.832031.546875.6875.210937 1.367187.425781 2.046875.652344.410156.136719.832031.285156 1.253906.433593.878906.304688 1.671875.585938 2.460938.882813l-1.519532 4.777344 1.785157-4.671875c16.921875 6.480468 31.75 17.800781 42.605469 32.207031l-4.359376-78.324219c-.609374-10.910156-8.136718-20.03125-18.730468-22.695312-.121094-.035156-.242188-.066406-.363282-.109375l-31.097656-10.363281-15.277344-4.382813c-7.160156-2.253906-8.859374-3.144531-12.578124-5.101563-2.414063-1.265624-5.714844-3.003906-12.222657-6.011718l-3.808593-1.875c-.011719-.007813-.027344-.011719-.042969-.019532-8.117188-4.003906-11.476563-20.1875-12.171875-27.460937-9.441406 8.804687-19.558594 15.71875-30.140625 20.59375-6.089844 2.808594-13.367188 2.808594-19.464844 0-11.339844-5.222656-22.144531-12.789063-32.152344-22.507813-2.382812 17.230469-5.917969 27.09375-10.542969 29.375l-3.828124 1.886719c-.007813.003907-.015626.007813-.023438.011719-.125.0625-.25.121094-.382812.167969-2.097657.851562-3.867188 1.808593-5.914063 2.917969-5.992187 3.25-13.449219 7.289062-34.980469 12.722656zm0 0"/><path d="m166.46875 293.777344c-20.183594 0-49.003906-8.449219-62.304688-22.585938-1.121093-1.195312-1.589843-2.867187-1.246093-4.472656s1.453125-2.941406 2.96875-3.570312l.464843-.195313c.054688-.019531.105469-.039063.15625-.054687.472657-.273438.910157-.488282 1.242188-.648438l1.652344-.816406c1.980468-2.605469 5.03125-15.441406 6.664062-32.339844.191406-1.992188 1.554688-3.679688 3.460938-4.285156 1.910156-.605469 3.992187-.019532 5.300781 1.496094 1.769531 2.050781 3.378906 3.804687 4.914063 5.367187 9.753906 9.890625 20.308593 17.488281 31.363281 22.578125 3.472656 1.597656 7.621093 1.597656 11.097656 0 11.054687-5.089844 21.609375-12.683594 31.367187-22.578125 1.335938-1.359375 2.671876-2.792969 4.074219-4.378906 1.375-1.558594 3.578125-2.105469 5.515625-1.367188 1.945313.734375 3.230469 2.597657 3.230469 4.675781v9.703126c0 7.0625 4.027344 19.582031 6.734375 20.929687.007812.003906.011719.007813.015625.007813.171875.085937.335937.179687.492187.28125.304688.125.621094.273437.949219.429687l2.65625 1.296875c1.449219.683594 2.488281 2.015625 2.789063 3.589844.300781 1.574218-.171875 3.199218-1.269532 4.363281-13.296874 14.132813-42.113281 22.574219-62.289062 22.574219zm-50.097656-25.125c12.800781 9.449218 34.652344 15.125 50.097656 15.125 15.40625 0 37.199219-5.652344 50.007812-15.0625-6.515624-5.566406-9.320312-19.40625-9.945312-25.976563-9.441406 8.808594-19.558594 15.722657-30.144531 20.59375-6.089844 2.8125-13.367188 2.8125-19.460938 0-11.339843-5.21875-22.144531-12.78125-32.152343-22.503906-2.589844 18.851563-6.019532 25.339844-8.402344 27.824219zm0 0"/><path d="m165.28125 293.746094c-.03125 0-.058594 0-.089844 0-19.898437-.347656-48.164062-8.882813-61.027344-22.554688-1.121093-1.195312-1.589843-2.867187-1.246093-4.46875.34375-1.609375 1.453125-2.941406 2.96875-3.570312l.464843-.195313c.054688-.019531.105469-.039062.15625-.054687.472657-.277344.910157-.488282 1.242188-.652344l1.652344-.816406c1.980468-2.605469 5.03125-15.4375 6.664062-32.339844.191406-1.992188 1.554688-3.675781 3.460938-4.285156 1.910156-.609375 3.992187-.015625 5.300781 1.5 1.769531 2.046875 3.378906 3.800781 4.914063 5.367187 9.753906 9.890625 20.308593 17.484375 31.363281 22.578125 1.320312.609375 2.777343.988282 4.316406 1.125 2.3125.207032 4.171875 1.980469 4.5 4.277344.242187 1.699219.355469 3.15625.355469 4.589844v24.503906c0 1.339844-.539063 2.625-1.496094 3.566406-.929688.917969-2.191406 1.429688-3.5 1.429688zm-48.96875-25.160156c11.121094 8.171874 29.363281 13.621093 43.96875 14.890624v-18.910156c-1.152344-.324218-2.273438-.734375-3.355469-1.234375-11.339843-5.21875-22.144531-12.785156-32.152343-22.507812-2.011719 14.546875-4.847657 23.84375-8.460938 27.761719zm0 0"/><path d="m323.304688 424.0625c-1.921876 0-3.722657-1.117188-4.550782-2.929688-9.339844-20.5-26.746094-36.875-47.75-44.914062-.023437-.011719-.214844-.085938-.242187-.097656-.699219-.265625-1.417969-.519532-2.136719-.769532-.457031-.160156-.820312-.289062-1.1875-.410156-.007812-.003906-.015625-.007812-.027344-.007812l-.28125-.101563c-2.066406-.667969-3.605468-2.636719-3.605468-4.804687v-3.121094c0-13.269531 5.128906-25.789062 14.441406-35.246094l30.386718-30.863281c1.023438-1.039063 2.449219-1.566406 3.90625-1.480469 1.457032.101563 2.792969.828125 3.664063 2 4.125 5.519532 6.5 12.046875 6.882813 18.882813l5.492187 98.582031c.132813 2.398438-1.460937 4.554688-3.796875 5.132812-.398438.097657-.800781.148438-1.195312.148438zm-48.726563-57.1875c16.917969 6.480469 31.746094 17.800781 42.605469 32.207031l-4.363282-78.324219c-.160156-2.867187-.816406-5.664062-1.929687-8.28125l-25.800781 26.203126c-7.355469 7.472656-11.453125 17.332031-11.5625 27.800781.261718.097656.523437.191406.78125.289062l-.785156 2.464844v.386719zm-1.304687 3.152344-.484376 1.519531.582032-1.519531zm-4.210938 0-.050781.167968.054687-.167968zm0 0"/><path d="m64.410156 511.972656h-45.757812c-4.976563 0-9.789063-2.070312-13.203125-5.683594-3.460938-3.660156-5.214844-8.445312-4.933594-13.476562l9.613281-172.613281c.382813-6.835938 2.761719-13.363281 6.882813-18.882813.871093-1.167968 2.210937-1.898437 3.664062-1.996094 1.460938-.089843 2.882813.441407 3.90625 1.480469l30.386719 30.863281c9.3125 9.457032 14.441406 21.972657 14.441406 35.246094v140.0625c0 2.761719-2.238281 5-5 5zm-53.910156-18.605468c-.125 2.257812.660156 4.40625 2.214844 6.050781 1.554687 1.644531 3.664062 2.550781 5.933594 2.550781h40.757812v-135.0625c0-10.628906-4.105469-20.65625-11.5625-28.230469l-25.800781-26.203125c-1.113281 2.621094-1.769531 5.414063-1.929688 8.285156zm0 0"/><path d="m156.402344 427.117188h-92.136719c-2.761719 0-5-2.238282-5-5v-38.382813c0-2.761719 2.238281-5 5-5h121.875c2.152344 0 4.058594 1.375 4.742187 3.417969.683594 2.039062-.019531 4.289062-1.742187 5.578125-12.476563 9.367187-22.199219 21.914062-28.117187 36.289062-.769532 1.875-2.597657 3.097657-4.621094 3.097657zm-87.136719-10h83.851563c4.792968-10.574219 11.460937-20.191407 19.652343-28.382813h-103.503906zm0 0"/><path d="m64.265625 427.117188h-54.804687c-1.375 0-2.691407-.566407-3.632813-1.5625-.945313-1-1.4375-2.34375-1.359375-3.714844l2.136719-38.382813c.148437-2.648437 2.335937-4.722656 4.992187-4.722656h52.667969c2.761719 0 5 2.238281 5 5v38.382813c0 2.761718-2.238281 5-5 5zm-49.519531-10h44.519531v-28.382813h-42.9375zm0 0"/><path d="m323.273438 424.023438c-1.910157 0-3.695313-1.085938-4.519532-2.890626-5.988281-13.144531-15.292968-24.695312-26.910156-33.398437-1.722656-1.292969-2.425781-3.539063-1.746094-5.582031.679688-2.042969 2.589844-3.417969 4.742188-3.417969h26.5c2.652344 0 4.84375 2.070313 4.992187 4.71875l1.960938 35.246094c.132812 2.398437-1.457031 4.601562-3.792969 5.171875-.410156.105468-.820312.152344-1.226562.152344zm-15.050782-35.289063c3.226563 3.222656 6.222656 6.671875 8.960938 10.3125l-.574219-10.3125zm0 0"/><path d="m340.214844 489.746094h-197.992188c-8.328125 0-15.101562-6.773438-15.101562-15.101563 0-8.324219 6.773437-15.101562 15.101562-15.101562h197.992188c8.328125 0 15.101562 6.777343 15.101562 15.101562 0 8.328125-6.773437 15.101563-15.101562 15.101563zm-197.992188-20.203125c-2.8125 0-5.101562 2.289062-5.101562 5.101562s2.289062 5.101563 5.101562 5.101563h197.992188c2.8125 0 5.101562-2.289063 5.101562-5.101563s-2.289062-5.101562-5.101562-5.101562zm0 0"/><path d="m307.1875 511.972656h-133.339844c-15.074218 0-27.867187-11.777344-29.125-26.808594-.117187-1.394531.355469-2.773437 1.300782-3.800781.949218-1.03125 2.285156-1.617187 3.683593-1.617187h181.621094c1.398437 0 2.734375.585937 3.679687 1.617187.949219 1.03125 1.417969 2.40625 1.300782 3.800781-1.253906 15.03125-14.046875 26.808594-29.121094 26.808594zm-151.226562-22.226562c2.839843 7.164062 9.875 12.226562 17.886718 12.226562h133.339844c8.011719 0 15.046875-5.0625 17.886719-12.226562zm0 0"/><path d="m331.429688 469.542969h-74.953126c-2.761718 0-5-2.238281-5-5v-5.457031c0-1.476563.652344-2.878907 1.777344-3.824219 4.136719-3.484375 6.507813-8.566407 6.507813-13.949219 0-5.386719-2.371094-10.46875-6.507813-13.953125-1.125-.949219-1.777344-2.351563-1.777344-3.824219v-56.546875c0-1.480469.65625-2.882812 1.789063-3.832031 1.136719-.953125 2.632813-1.347656 4.089844-1.089844 45.820312 8.207032 79.074219 47.90625 79.074219 94.398438v8.078125c0 2.761719-2.238282 5-5 5zm-68.355469-10h63.355469v-3.078125c0-39.628906-26.972657-73.746094-64.957032-83.292969v48.167969c5.292969 5.28125 8.285156 12.433594 8.285156 19.96875.003907 6.742187-2.394531 13.171875-6.683593 18.234375zm0 0"/><path d="m226.578125 469.542969h-76.976563c-2.761718 0-5-2.238281-5-5v-8.078125c0-46.832032 34.914063-87.578125 81.210938-94.78125 1.441406-.214844 2.910156.199218 4.019531 1.144531 1.109375.949219 1.75 2.335937 1.75 3.796875v56.90625c0 1.476562-.652343 2.878906-1.78125 3.824219-4.132812 3.484375-6.503906 8.566406-6.503906 13.953125 0 5.382812 2.371094 10.464844 6.503906 13.949218 1.128907.949219 1.78125 2.351563 1.78125 3.824219v5.457031c-.003906 2.765626-2.242187 5.003907-5.003906 5.003907zm-71.976563-10h65.378907c-4.292969-5.0625-6.6875-11.492188-6.6875-18.230469 0-7.539062 2.996093-14.691406 8.285156-19.96875v-48.671875c-38.566406 8.785156-66.976563 43.8125-66.976563 83.792969zm0 0"/><path d="m226.578125 469.542969h-25.765625c-2.761719 0-5-2.238281-5-5v-89.785157c0-1.910156 1.085938-3.652343 2.796875-4.492187 8.644531-4.230469 17.796875-7.117187 27.203125-8.582031 1.441406-.222656 2.910156.199218 4.019531 1.144531 1.105469.949219 1.746094 2.335937 1.746094 3.796875v56.90625c0 1.476562-.652344 2.878906-1.777344 3.824219-4.136719 3.484375-6.507812 8.566406-6.507812 13.953125 0 5.382812 2.371093 10.464844 6.507812 13.949218 1.125.949219 1.777344 2.351563 1.777344 3.824219v5.457031c0 2.765626-2.238281 5.003907-5 5.003907zm-20.765625-10h14.167969c-4.292969-5.0625-6.683594-11.492188-6.683594-18.230469 0-7.539062 2.992187-14.691406 8.285156-19.96875v-48.671875c-5.394531 1.230469-10.667969 2.992187-15.769531 5.265625zm0 0"/><path d="m281.625 469.542969h-25.148438c-2.761718 0-5-2.238281-5-5v-5.457031c0-1.476563.652344-2.878907 1.777344-3.824219 4.136719-3.484375 6.507813-8.566407 6.507813-13.949219 0-5.386719-2.371094-10.46875-6.507813-13.953125-1.125-.949219-1.777344-2.351563-1.777344-3.824219v-56.546875c0-1.480469.65625-2.882812 1.789063-3.832031 1.136719-.953125 2.640625-1.351562 4.089844-1.089844 9.199219 1.648438 18.128906 4.667969 26.546875 8.964844 1.671875.855469 2.722656 2.574219 2.722656 4.453125v89.058594c0 2.761719-2.238281 5-5 5zm-18.550781-10h13.550781v-80.941407c-4.894531-2.289062-9.964844-4.101562-15.152344-5.417968v48.15625c5.292969 5.28125 8.285156 12.433594 8.285156 19.96875.003907 6.742187-2.394531 13.171875-6.683593 18.234375zm0 0"/><path d="m256.476562 428.535156c-1.160156 0-2.304687-.398437-3.222656-1.175781-3.28125-2.761719-7.445312-4.285156-11.726562-4.285156s-8.445313 1.523437-11.726563 4.285156c-1.488281 1.253906-3.566406 1.535156-5.328125.707031-1.761718-.820312-2.890625-2.585937-2.890625-4.535156v-58.660156c0-7.398438 6.015625-13.417969 13.414063-13.417969h13.0625c7.398437 0 13.417968 6.019531 13.417968 13.417969v58.660156c0 1.949219-1.128906 3.714844-2.890624 4.535156-.675782.316406-1.394532.46875-2.109376.46875zm-14.949218-15.457031c3.417968 0 6.789062.621094 9.949218 1.816406v-50.023437c0-1.878906-1.535156-3.414063-3.417968-3.414063h-13.0625c-1.882813 0-3.414063 1.535157-3.414063 3.414063v50.023437c3.15625-1.195312 6.527344-1.816406 9.945313-1.816406zm0 0"/><path d="m241.527344 469.542969c-15.566406 0-28.234375-12.664063-28.234375-28.230469 0-15.570312 12.667969-28.234375 28.234375-28.234375s28.234375 12.664063 28.234375 28.234375c0 15.566406-12.667969 28.230469-28.234375 28.230469zm0-46.464844c-10.054688 0-18.234375 8.179687-18.234375 18.234375 0 10.050781 8.179687 18.230469 18.234375 18.230469 10.054687 0 18.234375-8.179688 18.234375-18.230469 0-10.054688-8.179688-18.234375-18.234375-18.234375zm0 0"/></g></svg>