<svg height="512pt" viewBox="-98 0 511 512" width="512pt" xmlns="http://www.w3.org/2000/svg"><path d="m311.40625 493.796875c-3.035156-54.566406-6.09375-109.417969-9.132812-164.003906-.6875-12.382813-9.351563-22.882813-21.382813-25.910157l-29.644531-9.875-14.613282-4.195312c-10.488281-3.300781-7.199218-3.050781-22.886718-10.300781-.421875-.210938-3.757813-1.855469-3.542969-1.75-5.542969-2.734375-9.050781-17.972657-9.050781-24.148438v-7.765625c-10.609375 5.398438-17.695313 9.101563-26.957032 11.457032-10.542968 2.6875-21.574218 2.632812-32.097656-.121094-8.992187-2.355469-15.960937-5.984375-26.320312-11.253906v7.679687c0 6.179687-3.507813 21.417969-9.050782 24.148437-.261718.128907-3.863281 1.90625-3.652343 1.800782-8.246094 3.328125-10.882813 7.777344-38.464844 14.71875l-28.570313 9.605468c-12.027343 3.027344-20.691406 13.523438-21.382812 25.910157-10.496094 188.417969-7.78125 139.703125-9.132812 164.003906-.398438 7.167969 5.304687 13.199219 12.488281 13.199219h280.914062c7.175781.003906 12.878907-6.03125 12.480469-13.199219zm0 0" fill="#e04e36"/><path d="m311.40625 493.808594c-3.039062-54.570313-6.09375-109.425782-9.132812-164.015625-.320313-5.707031-2.347657-11.003907-5.601563-15.363281l-28.878906 29.324218c-7.917969 8.042969-12.355469 18.875-12.355469 30.15625v133.089844h43.480469c7.183593 0 12.886719-6.019531 12.488281-13.191406zm0 0" fill="#e04e36"/><path d="m5.519531 493.808594c3.039063-54.570313 6.09375-109.425782 9.136719-164.015625.316406-5.707031 2.347656-11.003907 5.601562-15.363281l28.875 29.324218c7.917969 8.042969 12.355469 18.875 12.355469 30.15625v133.089844h-43.480469c-7.179687 0-12.886718-6.019531-12.488281-13.191406zm0 0" fill="#e04e36"/><path d="m9.277344 426.371094h52.078125v-36.472656h-50.050781c-.792969 14.296874-1.460938 26.316406-2.027344 36.472656zm0 0" fill="#fcbd4c"/><path d="m305.621094 389.898438h-50.382813v36.472656h52.410157c-.675782-12.164063-1.351563-24.308594-2.027344-36.472656zm0 0" fill="#fcbd4c"/><path d="m61.351562 389.898438h193.886719v36.472656h-193.886719zm0 0" fill="#fcbd4c"/><path d="m210.199219 277.761719c-5.539063-2.734375-9.046875-17.972657-9.046875-24.148438v-7.765625c-10.613282 5.398438-17.695313 9.101563-26.960938 11.457032-10.542968 2.6875-21.574218 2.632812-32.09375-.121094-8.992187-2.355469-15.964844-5.984375-26.324218-11.253906v7.679687c0 6.179687-3.507813 21.417969-9.050782 24.148437-.261718.128907-3.863281 1.90625-3.652344 1.800782-.117187.050781-.230468.097656-.347656.144531 11.554688 12.285156 37.546875 19.96875 55.738282 19.96875 18.191406 0 44.175781-7.679687 55.730468-19.957031-.148437-.070313-.292968-.136719-.445312-.207032-.421875-.207031-3.757813-1.851562-3.546875-1.746093zm0 0" fill="#fcbd4c"/><path d="m252.527344 126.898438h-188.128906c-5.28125 0-9.597657-4.320313-9.597657-9.597657 0-5.277343 4.320313-9.597656 9.597657-9.597656h188.128906c5.28125 0 9.597656 4.320313 9.597656 9.597656 0 5.28125-4.316406 9.597657-9.597656 9.597657zm0 0" fill="#e04e36"/><path d="m228.738281 201.140625c-.003906-.082031-.007812-.277344-.015625-.550781 0-.003906 0-.011719 0-.015625 0-.042969 0-.070313-.003906-.117188 0-.0625 0-.113281-.003906-.136719-.046875-1.894531-.78125-24.148437-1.667969-53.09375-1.886719.503907-3.859375.792969-5.902344.792969h-126.699219c-1.554687 0-3.070312-.160156-4.542968-.460937-1.308594 38.4375-1.703125 48.367187-1.878906 53.648437-1.792969 17.539063 7.34375 34.460938 23.101562 42.375 13.0625 6.558594 20.695312 10.914063 30.96875 13.605469 10.523438 2.753906 21.550781 2.804688 32.097656.121094 9.597656-2.445313 16.824219-6.3125 28.097656-12.035156 16.539063-8.394532 26.824219-25.519532 26.445313-44.0625v-.050782c.003906-.011718.003906-.015625.003906-.019531zm0 0" fill="#fcb275"/><path d="m71.507812 126.898438c.984376 11.78125 10.917969 21.117187 22.9375 21.117187h126.699219c12.023438 0 21.953125-9.335937 22.941407-21.117187zm0 0" fill="#e8e6e6"/><path d="m172.960938 15.007812v53.730469c4.808593 4.050781 7.875 10.109375 7.875 16.890625 0 6.777344-3.066407 12.839844-7.875 16.890625v5.183594h71.222656v-7.675781c0-42.34375-30.878906-77.796875-71.222656-85.019532zm0 0" fill="#e04e36"/><path d="m136.679688 85.628906c0-6.78125 3.0625-12.839844 7.875-16.890625v-54.078125c-41.285157 6.425782-73.144532 42.351563-73.144532 85.363282v7.679687h73.144532v-5.1875c-4.8125-4.046875-7.875-10.109375-7.875-16.886719zm0 0" fill="#e04e36"/><path d="m142.097656 257.183594c-8.992187-2.355469-15.964844-5.984375-26.324218-11.253906v7.683593c0 6.175781-3.507813 21.414063-9.050782 24.148438-.261718.128906-3.863281 1.902343-3.652344 1.800781-.117187.046875-.230468.09375-.347656.144531 11.316406 12.027344 36.871094 19.621094 54.613282 19.933594v-23.28125c0-7.210937-2.871094-13.050781-6.832032-17.574219-2.824218-.347656-5.632812-.875-8.40625-1.601562zm0 0" fill="#fcbd4c"/><path d="m239.199219 139.199219c-3.042969 3.859375-7.277344 6.722656-12.148438 8.023437.628907 20.546875 1.179688 37.710938 1.464844 46.625 14.871094-1.230468 26.5625-13.667968 26.5625-28.859375 0-11.367187-6.53125-21.035156-15.878906-25.789062zm0 0" fill="#fcb275"/><path d="m89.90625 147.558594c-5.222656-1.054688-9.804688-3.90625-13.105469-7.863282-8.847656 4.910157-14.953125 14.304688-14.953125 25.292969 0 15.148438 11.625 27.5625 26.441406 28.855469.261719-7.289062.730469-20.238281 1.617188-46.285156zm0 0" fill="#fcb275"/><path d="m120.070312 107.703125h24.484376v-5.183594c-4.8125-4.050781-7.875-10.113281-7.875-16.890625 0-6.78125 3.0625-12.839844 7.875-16.890625v-54.078125c-8.648438 1.347656-16.871094 4-24.484376 7.726563zm0 0" fill="#fcbd4c"/><path d="m196.859375 23.078125c-7.421875-3.792969-15.449219-6.558594-23.898437-8.070313v53.730469c4.808593 4.050781 7.875 10.109375 7.875 16.890625 0 6.777344-3.066407 12.839844-7.875 16.890625v5.183594h23.898437zm0 0" fill="#fcbd4c"/><path d="m158.757812 63.550781c5.410157 0 10.359376 1.953125 14.199219 5.183594v-55.738281c0-4.414063-3.578125-7.992188-7.996093-7.992188h-12.414063c-4.414063 0-7.996094 3.578125-7.996094 7.992188v55.742187c3.84375-3.230469 8.792969-5.1875 14.207031-5.1875zm0 0" fill="#e04e36"/><path d="m180.832031 85.628906c0 12.191406-9.882812 22.074219-22.074219 22.074219-12.195312 0-22.078124-9.882813-22.078124-22.074219s9.882812-22.078125 22.078124-22.078125c12.191407 0 22.074219 9.886719 22.074219 22.078125zm0 0" fill="#49c3f2"/><g fill="#231f20"><path d="m131.585938 176.804688c-3.316407 0-6-2.6875-6-6v-1.117188c0-3.3125 2.683593-6 6-6 3.3125 0 6 2.6875 6 6v1.117188c0 3.316406-2.691407 6-6 6zm0 0"/><path d="m185.039062 177.660156c-3.3125 0-6-2.6875-6-6v-1.117187c0-3.3125 2.6875-6 6-6 3.316407 0 6 2.6875 6 6v1.117187c0 3.3125-2.6875 6-6 6zm0 0"/><path d="m158.507812 224.398438c-8.808593 0-17.015624-4.363282-21.953124-11.667969-1.542969-2.289063-.941407-5.394531 1.34375-6.941407 2.289062-1.546874 5.398437-.945312 6.945312 1.34375 3.070312 4.550782 8.179688 7.265626 13.664062 7.265626 5.484376 0 10.59375-2.714844 13.667969-7.265626 1.542969-2.289062 4.648438-2.890624 6.941407-1.34375 2.285156 1.542969 2.890624 4.652344 1.34375 6.941407-4.9375 7.308593-13.144532 11.667969-21.953126 11.667969zm0 0"/><path d="m298.921875 512h-280.914063c-4.792968 0-9.425781-1.996094-12.71875-5.476562-3.292968-3.480469-5.027343-8.21875-4.757812-13l9.132812-164.003907c.8125-14.585937 10.832032-26.792969 24.957032-30.433593l28.390625-9.546876c.125-.042968.25-.078124.375-.109374 19.40625-4.882813 25.921875-8.410157 31.15625-11.246094 2.078125-1.125 4.042969-2.191406 6.488281-3.1875.679688-.335938 3.25-1.601563 3.464844-1.710938 2.535156-1.378906 6.28125-13.140625 6.28125-19.671875v-7.683593c0-1.738282.902344-3.355469 2.382812-4.261719 1.484375-.90625 3.332032-.984375 4.882813-.195313l1.121093.570313c9.667969 4.921875 16.054688 8.171875 24.199219 10.300781 9.691407 2.539062 19.925781 2.578125 29.597657.117188 8.363281-2.132813 14.863281-5.441407 24.699218-10.449219l1.226563-.625c1.550781-.785157 3.398437-.710938 4.878906.199219 1.480469.90625 2.386719 2.523437 2.386719 4.261718v7.765625c0 6.527344 3.746094 18.289063 6.261718 19.664063.015626.007812.03125.011718.046876.019531l3.496093 1.726563c6.296875 2.910156 9.5625 4.625 11.945313 5.875 3.277344 1.71875 4.378906 2.300781 10.234375 4.144531l14.488281 4.152343c.066406.019532.132812.042969.199219.0625l29.476562 9.820313c14.128907 3.644531 24.152344 15.851563 24.964844 30.433594l9.132813 164.007812c.265624 4.78125-1.46875 9.519531-4.761719 13-3.289063 3.480469-7.925781 5.480469-12.714844 5.480469zm-232.90625-212.921875-28.386719 9.542969c-.121094.042968-.246094.078125-.371094.113281-9.964843 2.503906-17.039062 11.082031-17.613281 21.339844l-9.132812 164c-.117188 2.082031.609375 4.0625 2.042969 5.578125 1.429687 1.511718 3.367187 2.347656 5.453124 2.347656h280.914063c2.085937 0 4.019531-.835938 5.453125-2.347656 1.433594-1.515625 2.160156-3.496094 2.042969-5.578125l-9.132813-164.003907c-.574218-10.253906-7.648437-18.832031-17.609375-21.335937-.125-.03125-.242187-.066406-.363281-.105469l-29.542969-9.847656-14.507812-4.160156c-6.832031-2.152344-8.453125-3.003906-12-4.867188-2.292969-1.207031-5.425781-2.851562-11.605469-5.707031l-.363281-.179687c-.902344-.441407-1.789063-.882813-2.601563-1.34375-.226562-.074219-.449218-.164063-.667968-.269532l.046874-.105468c-.007812-.003907-.011718-.007813-.019531-.011719l-.050781.101562c-8.667969-4.269531-11.695312-22.894531-11.835938-28.265625-7.183593 3.574219-13.28125 6.277344-20.726562 8.175782-11.308594 2.878906-23.273438 2.832031-34.597656-.132813-7.179688-1.875-13.105469-4.503906-20.0625-7.960937-.167969 5.46875-3.207032 23.933593-11.832032 28.1875-1.292968.644531-2.328124 1.160156-3.191406 1.546874-.144531.089844-.296875.171876-.453125.25l-.023437-.046874c-.121094.050781-.238282.101562-.351563.144531l.027344.058593c-2 .808594-3.6875 1.71875-5.640625 2.777344-5.71875 3.09375-12.816406 6.9375-33.296875 12.105469zm0 0"/><path d="m157.339844 512c-2.765625 0-5-2.238281-5-5v-207.324219c0-2.765625 2.234375-5 5-5 2.761718 0 5 2.234375 5 5v207.324219c0 2.761719-2.242188 5-5 5zm0 0"/><path d="m298.921875 512h-43.480469c-2.761718 0-5-2.238281-5-5v-133.085938c0-12.675781 4.898438-24.632812 13.789063-33.667968l28.878906-29.324219c1.019531-1.039063 2.449219-1.582031 3.902344-1.480469 1.453125.101563 2.792969.828125 3.664062 1.996094 3.945313 5.285156 6.222657 11.535156 6.589844 18.078125l9.132813 164.019531c.273437 4.847656-1.417969 9.460938-4.753907 12.988282-3.292969 3.480468-7.929687 5.476562-12.722656 5.476562zm-38.480469-10h38.480469c2.085937 0 4.027344-.835938 5.457031-2.347656 1.429688-1.511719 2.152344-3.488282 2.039063-5.5625l-9.136719-164.019532c-.144531-2.566406-.710938-5.078124-1.667969-7.4375l-24.253906 24.628907c-7.039063 7.148437-10.917969 16.617187-10.917969 26.648437zm0 0"/><path d="m61.488281 512h-43.480469c-4.796874 0-9.433593-1.996094-12.722656-5.476562-3.335937-3.527344-5.027344-8.140626-4.757812-12.988282l9.136718-164.015625c.367188-6.546875 2.644532-12.796875 6.589844-18.082031.871094-1.167969 2.207032-1.894531 3.664063-1.996094 1.449219-.101562 2.878906.445313 3.902343 1.480469l28.875 29.324219c8.894532 9.035156 13.792969 20.992187 13.792969 33.667968v133.085938c0 2.761719-2.238281 5-5 5zm-50.976562-17.910156c-.117188 2.074218.609375 4.050781 2.039062 5.5625 1.429688 1.511718 3.371094 2.347656 5.457031 2.347656h38.480469v-128.085938c0-10.035156-3.875-19.5-10.917969-26.648437l-24.25-24.632813c-.960937 2.363282-1.527343 4.871094-1.671874 7.441407zm0 0"/><path d="m61.351562 431.375h-52.074218c-1.375 0-2.6875-.566406-3.632813-1.566406-.945312-.996094-1.4375-2.339844-1.359375-3.710938l2.03125-36.472656c.148438-2.652344 2.335938-4.722656 4.992188-4.722656h50.046875c2.761719 0 5 2.238281 5 5v36.472656c-.003907 2.757812-2.242188 5-5.003907 5zm-46.789062-10h41.792969v-26.476562h-40.320313zm0 0"/><path d="m307.652344 431.375h-52.410156c-2.761719 0-5-2.238281-5-5v-36.476562c0-2.761719 2.238281-5 5-5h50.378906c2.652344 0 4.84375 2.074218 4.992187 4.722656l2.03125 36.476562c.074219 1.371094-.417969 2.710938-1.359375 3.710938-.945312.996094-2.257812 1.566406-3.632812 1.566406zm-47.410156-10h42.125l-1.476563-26.476562h-40.648437zm0 0"/><path d="m255.242188 431.375h-193.890626c-2.761718 0-5-2.238281-5-5v-36.476562c0-2.761719 2.238282-5 5-5h193.886719c2.765625 0 5 2.238281 5 5v36.476562c.003907 2.757812-2.234375 5-4.996093 5zm-188.890626-10h183.886719v-26.476562h-183.886719zm0 0"/><path d="m158.464844 304.675781c-19.230469 0-46.699219-8.058593-59.378906-21.542969-1.125-1.195312-1.59375-2.863281-1.25-4.460937.339843-1.605469 1.441406-2.941406 2.953124-3.574219l.214844-.089844c.644532-.316406 3.269532-1.613281 3.492188-1.722656 2.53125-1.378906 6.277344-13.140625 6.277344-19.671875v-7.683593c0-1.738282.90625-3.355469 2.386718-4.261719 1.480469-.90625 3.332032-.984375 4.878906-.195313l1.121094.570313c9.667969 4.921875 16.058594 8.171875 24.203125 10.300781 9.691407 2.539062 19.925781 2.578125 29.59375.117188 8.363281-2.132813 14.863281-5.441407 24.703125-10.449219l1.222656-.625c1.550782-.785157 3.398438-.710938 4.882813.199219 1.480469.90625 2.382813 2.523437 2.382813 4.261718v7.765625c0 6.527344 3.746093 18.289063 6.265624 19.664063.011719.003906.027344.011718.039063.019531l3.777344 1.851563c1.453125.679687 2.53125 2.035156 2.832031 3.609374.300781 1.578126-.128906 3.21875-1.226562 4.382813-12.683594 13.480469-40.148438 21.535156-59.371094 21.535156zm-47.125-24.085937c12.15625 8.800781 32.621094 14.085937 47.125 14.085937 14.5 0 34.972656-5.285156 47.125-14.082031-6.835938-6.160156-9.308594-21.777344-9.433594-26.617188-7.183594 3.574219-13.28125 6.277344-20.726562 8.175782-11.308594 2.878906-23.273438 2.832031-34.601563-.132813-7.175781-1.875-13.101563-4.503906-20.058594-7.960937-.148437 4.925781-2.632812 20.402344-9.429687 26.53125zm0 0"/><path d="m252.527344 131.898438h-188.128906c-8.050782 0-14.597657-6.546876-14.597657-14.597657 0-8.046875 6.546875-14.597656 14.597657-14.597656h188.128906c8.050781 0 14.597656 6.546875 14.597656 14.597656.003906 8.050781-6.546875 14.597657-14.597656 14.597657zm-188.128906-19.195313c-2.535157 0-4.597657 2.0625-4.597657 4.601563 0 2.535156 2.0625 4.597656 4.597657 4.597656h188.128906c2.535156 0 4.597656-2.0625 4.597656-4.597656 0-2.539063-2.0625-4.601563-4.597656-4.601563zm0 0"/><path d="m158.398438 264.28125c-5.90625 0-11.820313-.753906-17.570313-2.257812-9.191406-2.40625-16.332031-6.042969-26.214844-11.074219-1.796875-.914063-3.699219-1.882813-5.730469-2.902344-17.394531-8.734375-27.765624-27.675781-25.847656-47.171875.054688-1.644531.128906-3.738281.246094-6.960938.261719-7.242187.730469-20.191406 1.628906-46.523437.050782-1.46875.742188-2.84375 1.898438-3.753906 1.152344-.910157 2.648437-1.265625 4.089844-.976563 1.179687.238282 2.375.359375 3.546874.359375h126.699219c1.511719 0 3.0625-.210937 4.613281-.625 1.472657-.386719 3.046876-.089843 4.273438.816407 1.226562.914062 1.96875 2.335937 2.015625 3.863281.5625 18.4375 1.066406 34.15625 1.371094 43.628906.171875 5.421875.28125 8.804687.296875 9.496094 0 0 .007812.257812.007812.257812l.015625.5625v.121094.019531c.414063 20.277344-11.039062 39.363282-29.179687 48.570313l-2.414063 1.226562c-10.03125 5.105469-17.28125 8.792969-26.714843 11.199219-5.570313 1.414062-11.296876 2.125-17.03125 2.125zm-63.675782-111.261719c-.78125 22.824219-1.203125 34.511719-1.445312 41.253907-.121094 3.320312-.199219 5.4375-.253906 7.097656-.003907.113281-.011719.230468-.019532.34375-1.578125 15.457031 6.605469 30.484375 20.367188 37.394531 2.050781 1.03125 3.964844 2.007813 5.777344 2.929687 9.675781 4.921876 16.066406 8.175782 24.214843 10.308594 9.691407 2.535156 19.925781 2.578125 29.59375.113282 8.359375-2.125 14.839844-5.425782 24.652344-10.417969l2.421875-1.234375c14.738281-7.480469 24.042969-22.984375 23.707031-39.5l5-.167969-5 .121094-.011719-.53125c0-.003907-.007812-.222657-.007812-.226563-.015625-.746094-.125-4.105468-.296875-9.480468-.273437-8.496094-.707031-22.023438-1.199219-38.027344-.359375.015625-.71875.023437-1.078125.023437zm0 0"/><path d="m221.144531 153.019531h-126.699219c-14.449218 0-26.714843-11.292969-27.917968-25.703125-.121094-1.390625.355468-2.773437 1.300781-3.800781.945313-1.03125 2.28125-1.617187 3.679687-1.617187h172.578126c1.398437 0 2.734374.585937 3.679687 1.617187.949219 1.03125 1.421875 2.410156 1.300781 3.800781-1.203125 14.410156-13.46875 25.703125-27.921875 25.703125zm-143.324219-21.121093c2.75 6.535156 9.246094 11.121093 16.625 11.121093h126.699219c7.382813 0 13.878907-4.585937 16.628907-11.121093zm0 0"/><path d="m244.183594 112.703125h-71.226563c-2.761719 0-5-2.238281-5-5v-5.183594c0-1.476562.652344-2.878906 1.78125-3.824219 3.875-3.261718 6.09375-8.023437 6.09375-13.066406 0-5.042968-2.222656-9.804687-6.09375-13.066406-1.128906-.949219-1.78125-2.351562-1.78125-3.824219v-53.730469c0-1.480468.65625-2.882812 1.792969-3.832031 1.136719-.953125 2.632812-1.351562 4.089844-1.089843 43.65625 7.816406 75.34375 45.640624 75.34375 89.941406v7.675781c0 2.761719-2.238282 5-5 5zm-64.421875-10h59.421875v-2.675781c0-37.429688-25.410156-69.671875-61.226563-78.820313v45.34375c5.03125 5.058594 7.875 11.886719 7.875 19.078125.003907 6.277344-2.167969 12.28125-6.070312 17.074219zm0 0"/><path d="m144.554688 112.703125h-73.144532c-2.761718 0-5-2.238281-5-5v-7.675781c0-44.621094 33.265625-83.441406 77.375-90.304688 1.445313-.214844 2.914063.195313 4.023438 1.144532 1.105468.949218 1.746094 2.335937 1.746094 3.792968v54.074219c0 1.476563-.652344 2.878906-1.777344 3.824219-3.875 3.261718-6.09375 8.027344-6.09375 13.066406 0 5.042969 2.21875 9.804688 6.09375 13.066406 1.125.949219 1.777344 2.351563 1.777344 3.824219v5.1875c0 2.761719-2.238282 5-5 5zm-68.144532-10h61.34375c-3.902344-4.792969-6.074218-10.792969-6.074218-17.074219 0-7.191406 2.84375-14.019531 7.875-19.078125v-45.832031c-36.382813 8.433594-63.144532 41.539062-63.144532 79.304688zm0 0"/><path d="m157.339844 304.640625c-.03125 0-.058594 0-.089844 0-18.957031-.332031-45.898438-8.464844-58.164062-21.507813-1.125-1.195312-1.589844-2.863281-1.25-4.460937.339843-1.605469 1.445312-2.941406 2.953124-3.574219l.21875-.089844c.644532-.316406 3.269532-1.613281 3.488282-1.722656 2.535156-1.378906 6.28125-13.140625 6.28125-19.671875v-7.683593c0-1.738282.902344-3.355469 2.382812-4.261719 1.484375-.90625 3.332032-.984375 4.882813-.195313l1.121093.570313c9.667969 4.921875 16.054688 8.171875 24.199219 10.300781 0 0 0 .003906.003907.003906 2.476562.644532 5.085937 1.140625 7.753906 1.472656 1.21875.152344 2.335937.746094 3.148437 1.667969 5.277344 6.03125 8.070313 13.246094 8.070313 20.871094v23.28125c0 1.34375-.539063 2.628906-1.496094 3.566406-.9375.921875-2.199219 1.433594-3.503906 1.433594zm-45.988282-24.066406c10.492188 7.53125 27.363282 12.5625 40.988282 13.789062v-18.003906c0-4.671875-1.5-9-4.460938-12.886719-2.410156-.367187-4.769531-.855468-7.046875-1.449218-7.175781-1.878907-13.105469-4.507813-20.0625-7.964844-.148437 4.921875-2.628906 20.382812-9.417969 26.515625zm0 0"/><path d="m228.515625 198.847656c-1.222656 0-2.410156-.449218-3.328125-1.269531-1.023438-.910156-1.628906-2.203125-1.667969-3.570313l-.085937-2.613281c-.300782-9.429687-.808594-25.324219-1.382813-44.019531-.070312-2.320312 1.464844-4.386719 3.710938-4.984375 3.71875-.992187 7.097656-3.226563 9.515625-6.289063 1.476562-1.871093 4.066406-2.441406 6.1875-1.359374 11.484375 5.832031 18.617187 17.421874 18.617187 30.246093 0 17.535157-13.683593 32.394531-31.152343 33.839844-.140626.015625-.277344.019531-.414063.019531zm3.644531-48.125c.464844 15.140625.878906 28.203125 1.164063 37.109375 9.726562-3.097656 16.757812-12.285156 16.757812-22.84375 0-7.796875-3.753906-14.957031-9.992187-19.417969-2.335938 2.148438-5.027344 3.898438-7.929688 5.152344zm0 0"/><path d="m88.289062 198.84375c-.144531 0-.292968-.007812-.433593-.023438-17.675781-1.535156-31.007813-16.082031-31.007813-33.832031 0-12.300781 6.714844-23.667969 17.53125-29.664062 2.097656-1.167969 4.726563-.675781 6.261719 1.167969 2.648437 3.171874 6.292969 5.363281 10.257813 6.164062 2.398437.484375 4.089843 2.628906 4.007812 5.070312-.871094 25.449219-1.335938 38.390626-1.601562 45.777344l-.019532.519532c-.050781 1.367187-.660156 2.65625-1.683594 3.566406-.917968.808594-2.097656 1.253906-3.3125 1.253906zm-12.171874-52.722656c-5.792969 4.5-9.269532 11.445312-9.269532 18.871094 0 10.503906 6.988282 19.679687 16.65625 22.8125.261719-7.390626.660156-18.625 1.273438-36.527344-3.15625-1.175782-6.097656-2.925782-8.660156-5.15625zm0 0"/><path d="m144.554688 112.703125h-24.484376c-2.761718 0-5-2.238281-5-5v-85.316406c0-1.90625 1.085938-3.652344 2.800782-4.488281 8.238281-4.03125 16.953125-6.785157 25.914062-8.179688 1.445313-.214844 2.914063.195312 4.019532 1.144531 1.109374.949219 1.75 2.335938 1.75 3.796875v54.074219c0 1.472656-.652344 2.875-1.78125 3.824219-3.875 3.261718-6.09375 8.023437-6.09375 13.066406 0 5.039062 2.222656 9.804688 6.09375 13.066406 1.128906.949219 1.78125 2.347656 1.78125 3.824219v5.183594c0 2.765625-2.238282 5.003906-5 5.003906zm-19.484376-10h12.683594c-3.902344-4.792969-6.074218-10.792969-6.074218-17.074219 0-7.191406 2.84375-14.019531 7.875-19.078125v-45.832031c-4.949219 1.148438-9.796876 2.773438-14.484376 4.851562zm0 0"/><path d="m196.859375 112.703125h-23.898437c-2.761719 0-5-2.238281-5-5v-5.183594c0-1.476562.652343-2.878906 1.777343-3.824219 3.875-3.261718 6.097657-8.023437 6.097657-13.066406 0-5.042968-2.222657-9.804687-6.097657-13.066406-1.125-.949219-1.777343-2.351562-1.777343-3.824219v-53.730469c0-1.480468.65625-2.882812 1.792968-3.832031 1.132813-.953125 2.625-1.351562 4.089844-1.089843 8.761719 1.570312 17.269531 4.445312 25.289062 8.542968 1.671876.855469 2.726563 2.574219 2.726563 4.453125v84.625c0 2.757813-2.238281 4.996094-5 4.996094zm-17.097656-10h12.09375v-76.5c-4.492188-2.089844-9.144531-3.757813-13.898438-4.988281v45.335937c5.03125 5.058594 7.875 11.886719 7.875 19.078125.003907 6.277344-2.167969 12.28125-6.070312 17.074219zm0 0"/><path d="m172.960938 73.734375c-1.15625 0-2.300782-.398437-3.222657-1.171875-3.074219-2.589844-6.972656-4.011719-10.980469-4.011719-4.011718 0-7.910156 1.421875-10.984374 4.011719-1.488282 1.25-3.566407 1.523438-5.332032.707031-1.761718-.820312-2.890625-2.589843-2.890625-4.535156v-55.738281c0-7.167969 5.832031-12.996094 13-12.996094h12.410157c7.167968 0 13 5.828125 13 12.996094v55.738281c0 1.945313-1.125 3.714844-2.890626 4.535156-.675781.3125-1.394531.464844-2.109374.464844zm-20.410157-63.734375c-1.652343 0-3 1.347656-3 2.996094v47.175781c5.867188-2.125 12.542969-2.125 18.40625-.003906v-47.171875c0-1.648438-1.34375-2.996094-2.996093-2.996094zm0 0"/><path d="m158.757812 112.703125c-14.933593 0-27.078124-12.144531-27.078124-27.074219 0-14.929687 12.144531-27.078125 27.078124-27.078125 14.929688 0 27.074219 12.148438 27.074219 27.078125 0 14.929688-12.144531 27.074219-27.074219 27.074219zm0-44.152344c-9.417968 0-17.078124 7.660157-17.078124 17.074219 0 9.417969 7.660156 17.078125 17.078124 17.078125 9.414063 0 17.074219-7.660156 17.074219-17.078125 0-9.414062-7.660156-17.074219-17.074219-17.074219zm0 0"/></g></svg>