<svg height="511pt" viewBox="-86 0 511 511.90146" width="511pt" xmlns="http://www.w3.org/2000/svg"><path d="m316.316406 326.269531c-.707031-12.621093-9.535156-23.320312-21.796875-26.40625l-40.003906-10.070312c-6.9375-1.746094-13.804687-3.777344-20.578125-6.082031l-17.699219-8.726563-3.558593-1.753906c-5.648438-2.78125-9.222657-8.53125-9.222657-14.828125v-16.222656c-7.648437 6.863281-16.382812 13.023437-26.28125 17.578124-4.675781 2.152344-10.230469 2.148438-14.898437 0-9.894532-4.554687-18.632813-10.714843-26.28125-17.582031v16.222657c0 6.296874-3.574219 12.046874-9.222656 14.832031l-2.621094 1.289062-17.613282 8.683594c-7.453124 2.640625-15.03125 4.929687-22.703124 6.863281l-38.902344 9.792969c-12.261719 3.085937-21.09375 13.785156-21.792969 26.40625l-2.09375 37.566406 49.457031 9.160157v133.90625h198.445313c0-31.335938 0-103.582032 0-133.839844l49.460937-9.160156zm0 0" fill="#f45687"/><path d="m65.722656 294.628906 18.113282-4.5625c7.671874-1.929687 15.25-4.21875 22.703124-6.859375l17.613282-8.683593 2.621094-1.292969c5.648437-2.78125 9.222656-8.53125 9.222656-14.828125v-16.222656c7.648437 6.867187 16.386718 13.023437 26.28125 17.578124 4.667968 2.152344 10.222656 2.152344 14.898437 0 9.898438-4.554687 18.632813-10.710937 26.28125-17.578124v16.222656c0 6.296875 3.574219 12.046875 9.222657 14.832031l3.558593 1.753906 17.699219 8.726563c6.777344 2.300781 13.640625 4.332031 20.578125 6.078125l20.144531 5.070312c8.941406-9.023437 3.777344-38.46875-1.847656-50.382812-26.230469-55.527344 26.226562-127.511719-6.054688-189.210938s-96.847656-49.359375-96.847656-49.359375-64.5625-12.339844-96.847656 49.359375 20.175781 133.679688-6.050781 189.210938c-5.605469 11.859375-9.972657 41.472656-1.289063 50.148437zm0 0" fill="#7c292e"/><path d="m70.503906 372.996094-50.652344-9.378906c-6.585937-1.222657-12.972656 3.167968-14.191406 9.753906-1.222656 6.585937 3.167969 12.972656 9.753906 14.191406l55.089844 10.203125zm0 0" fill="#e8e6e6"/><path d="m334.160156 373.371094c-1.222656-6.585938-7.605468-10.976563-14.191406-9.753906l-51.023438 9.445312v24.769531l55.457032-10.269531c6.585937-1.21875 10.976562-7.605469 9.757812-14.191406zm0 0" fill="#e8e6e6"/><path d="m325.625 493.445312-5.847656-105.023437-50.828125 9.414063v109.066406h43.949219c7.320312 0 13.132812-6.148438 12.726562-13.457032zm0 0" fill="#fcb275"/><path d="m19.679688 388.351562-5.855469 105.09375c-.40625 7.304688 5.410156 13.457032 12.726562 13.457032h43.949219v-109.136719zm0 0" fill="#fcb275"/><path d="m233.933594 283.714844-2.894532-1.429688c-6.019531 13.671875-13.097656 25.96875-20.953124 35.816406l20.789062 18.402344c8.996094-11.460937 18.339844-31.367187 19.65625-47.800781-5.582031-1.496094-11.125-3.128906-16.597656-4.988281zm0 0" fill="#e8e6e6"/><path d="m106.453125 283.714844 2.894531-1.429688c6.019532 13.671875 13.097656 25.96875 20.957032 35.816406l-20.792969 18.402344c-8.996094-11.460937-18.335938-31.367187-19.65625-47.800781 5.582031-1.496094 11.125-3.128906 16.597656-4.988281zm0 0" fill="#e8e6e6"/><path d="m238.878906 120.476562c-10.625-3.066406-26.191406-11.769531-35.136718-36.347656-.605469-1.660156-2.785157-2.011718-3.851563-.605468-6.976563 9.21875-29.296875 33.011718-72.449219 30.5625-11.789062-.671876-20.777344 2.460937-26.921875 6.921874l-2.214843 22.8125c-3.636719 34.179688 7.832031 68.449219 31.964843 92.921876 8.910157 9.035156 19.554688 17.285156 32.007813 23.015624 4.667968 2.152344 10.21875 2.152344 14.894531 0 12.453125-5.730468 23.097656-13.980468 32.007813-23.015624 24.136718-24.476563 35.601562-58.742188 31.96875-92.921876zm0 0" fill="#fcb275"/><path d="m98.304688 143.820312 2.097656-21.566406c-.90625-.089844-1.820313-.136718-2.746094-.136718-15.519531 0-28.097656 12.578124-28.097656 28.097656 0 15.515625 12.578125 28.097656 28.097656 28.097656.707031 0 1.40625-.054688 2.101562-.105469-2.140624-11.21875-2.683593-22.804687-1.453124-34.386719zm0 0" fill="#fcb275"/><path d="m242.160156 122.117188c-1.050781 0-2.082031.066406-3.105468.179687l2.09375 21.523437c1.230468 11.578126.6875 23.152344-1.453126 34.367188.816407.070312 1.632813.125 2.464844.125 15.519532 0 28.097656-12.582031 28.097656-28.097656 0-15.519532-12.578124-28.097656-28.097656-28.097656zm0 0" fill="#fcb275"/><path d="m216.238281 274.988281-3.558593-1.753906c-5.648438-2.785156-9.222657-8.535156-9.222657-14.832031v-16.222656c-7.648437 6.867187-16.382812 13.023437-26.28125 17.578124-4.675781 2.152344-10.230469 2.152344-14.898437 0-9.894532-4.554687-18.632813-10.710937-26.28125-17.578124v16.222656c0 6.296875-3.574219 12.046875-9.222656 14.828125l-2.621094 1.292969-14.921875 7.355468c15.085937 34.449219 36.824219 60.28125 61.003906 60.28125 24.074219 0 45.730469-25.652344 60.804687-59.875zm0 0" fill="#fcb275"/><g fill="#231f20"><path d="m274.660156 299.863281c-.40625 0-.816406-.050781-1.222656-.152343l-20.140625-5.070313c-7.039063-1.769531-14.09375-3.855469-20.96875-6.195313-.207031-.070312-.40625-.152343-.601563-.25l-21.253906-10.480468c-7.410156-3.652344-12.015625-11.054688-12.015625-19.316406v-5.640626c-6.191406 4.648438-12.617187 8.511719-19.191406 11.542969-5.96875 2.75-13.101563 2.75-19.078125 0-6.574219-3.027343-12.996094-6.894531-19.191406-11.542969v5.640626c0 8.261718-4.601563 15.664062-12.011719 19.316406l-20.230469 9.976562c-.175781.085938-.355468.164063-.539062.226563-7.570313 2.679687-15.359375 5.035156-23.15625 7l-18.113282 4.558593c-1.707031.429688-3.511718-.070312-4.753906-1.3125-11.503906-11.496093-4.925781-44.757812.300782-55.824218 11.839843-25.066406 6.644531-54.109375 1.144531-84.859375-6.226563-34.796875-12.664063-70.773438 5-104.53125 31.449219-60.113281 92.933593-53.328125 101.273437-52.101563 8.339844-1.226562 69.824219-8.007812 101.277344 52.105469 17.660156 33.753906 11.222656 69.734375 5 104.53125-5.503906 30.75-10.699219 59.792969 1.144531 84.859375 5.015625 10.621094 12.882813 43.933594.875 56.042969-.949219.953125-2.230469 1.476562-3.546875 1.476562zm-38.808594-20.78125c6.523438 2.210938 13.214844 4.179688 19.886719 5.863281l16.84375 4.238282c4.285157-8.820313.925781-31.527344-4.292969-42.570313-13.207031-27.957031-7.480468-59.953125-1.945312-90.894531 5.925781-33.140625 12.058594-67.40625-4.019531-98.132812-30.210938-57.742188-90.871094-46.882813-91.476563-46.765626-.617187.121094-1.257812.121094-1.875 0-2.484375-.460937-61.367187-10.7851558-91.476562 46.765626-16.078125 30.726562-9.949219 64.992187-4.019532 98.132812 5.535157 30.941406 11.261719 62.9375-1.945312 90.894531-4.898438 10.375-8 33.535157-3.734375 42.335938l14.820313-3.730469c7.398437-1.863281 14.792968-4.089844 21.980468-6.628906l19.964844-9.84375c3.96875-1.957032 6.433594-5.921875 6.433594-10.34375v-16.222656c0-1.972657 1.164062-3.761719 2.960937-4.566407 1.804688-.800781 3.910157-.472656 5.378907.847657 7.941406 7.128906 16.363281 12.765624 25.03125 16.757812 3.359374 1.542969 7.363281 1.542969 10.714843 0 8.667969-3.992188 17.089844-9.628906 25.03125-16.757812 1.46875-1.320313 3.578125-1.648438 5.378907-.847657 1.800781.804688 2.960937 2.59375 2.960937 4.566407v16.21875c0 4.425781 2.464844 8.390624 6.433594 10.347656zm0 0"/><path d="m170.863281 219.246094c-6.253906 0-11.957031-2.210938-15.640625-6.070313-1.910156-2-1.835937-5.164062.164063-7.070312s5.160156-1.835938 7.066406.164062c1.753906 1.835938 4.976563 2.976563 8.414063 2.976563s6.65625-1.136719 8.410156-2.976563c1.90625-2 5.070312-2.070312 7.070312-.164062s2.070313 5.070312.164063 7.070312c-3.6875 3.859375-9.390625 6.070313-15.648438 6.070313zm0 0"/><path d="m208.109375 147.320312c-.792969 0-1.59375-.1875-2.34375-.585937-1.265625-.671875-4.164063-1.351563-7.789063-1.351563s-6.523437.679688-7.789062 1.351563c-2.433594 1.296875-5.464844.375-6.761719-2.066406-1.296875-2.4375-.371093-5.464844 2.066407-6.761719 3.015624-1.601562 7.566406-2.523438 12.484374-2.523438 4.917969 0 9.464844.917969 12.480469 2.523438 2.4375 1.296875 3.363281 4.324219 2.066407 6.761719-.894532 1.691406-2.625 2.652343-4.414063 2.652343zm0 0"/><path d="m153.632812 147.320312c-.792968 0-1.59375-.1875-2.34375-.585937-1.265624-.671875-4.164062-1.351563-7.789062-1.351563s-6.523438.679688-7.785156 1.351563c-2.441406 1.296875-5.464844.375-6.765625-2.066406-1.292969-2.4375-.371094-5.464844 2.070312-6.761719 3.011719-1.601562 7.5625-2.523438 12.484375-2.523438 4.917969 0 9.46875.917969 12.480469 2.523438 2.4375 1.296875 3.363281 4.324219 2.070313 6.761719-.902344 1.691406-2.632813 2.652343-4.421876 2.652343zm0 0"/><path d="m144.308594 166.917969c-3.3125 0-6-2.6875-6-6v-1.109375c0-3.3125 2.6875-6 6-6s6 2.6875 6 6v1.109375c0 3.3125-2.6875 6-6 6zm0 0"/><path d="m197.421875 167.765625c-3.3125 0-6-2.6875-6-6v-1.109375c0-3.3125 2.6875-6 6-6 3.316406 0 6 2.6875 6 6v1.109375c0 3.3125-2.683594 6-6 6zm0 0"/><path d="m268.949219 507.503906c-2.761719 0-5-2.238281-5-5v-146.386718c0-2.765626 2.238281-5 5-5s5 2.234374 5 5v146.386718c0 2.761719-2.242188 5-5 5zm0 0"/><path d="m70.503906 507.503906c-2.761718 0-5-2.238281-5-5v-146.386718c0-2.765626 2.238282-5 5-5 2.761719 0 5 2.234374 5 5v146.386718c0 2.761719-2.238281 5-5 5zm0 0"/><path d="m70.503906 402.765625c-.304687 0-.609375-.027344-.910156-.082031l-55.089844-10.203125c-4.5-.832031-8.410156-3.378907-11.015625-7.164063-2.601562-3.789062-3.582031-8.355468-2.746093-12.851562.832031-4.5 3.375-8.414063 7.164062-11.015625 3.789062-2.605469 8.351562-3.582031 12.851562-2.75l50.65625 9.378906c2.367188.4375 4.089844 2.507813 4.089844 4.917969v24.769531c0 1.484375-.660156 2.894531-1.804687 3.84375-.902344.753906-2.039063 1.15625-3.195313 1.15625zm-52.867187-34.355469c-1.4375 0-2.839844.4375-4.0625 1.277344-1.589844 1.09375-2.65625 2.722656-3 4.597656-.347657 1.871094.0625 3.777344 1.15625 5.363282 1.089843 1.589843 2.722656 2.65625 4.59375 3l49.179687 9.109374v-14.601562l-46.566406-8.621094c-.433594-.082031-.867188-.125-1.300781-.125zm0 0"/><path d="m268.949219 402.832031c-1.160157 0-2.292969-.402343-3.199219-1.15625-1.140625-.949219-1.800781-2.355469-1.800781-3.84375v-24.769531c0-2.410156 1.71875-4.476562 4.089843-4.914062l51.019532-9.449219c4.496094-.835938 9.0625.140625 12.851562 2.75 3.789063 2.605469 6.335938 6.515625 7.167969 11.015625 1.726563 9.3125-4.449219 18.292968-13.761719 20.015625l-55.457031 10.269531c-.304687.058594-.609375.082031-.910156.082031zm5-25.609375v14.601563l49.542969-9.175781c1.871093-.34375 3.503906-1.410157 4.597656-3 1.089844-1.585938 1.5-3.492188 1.15625-5.363282-.347656-1.875-1.414063-3.503906-3-4.597656-1.589844-1.089844-3.492188-1.5-5.367188-1.15625zm0 0"/><path d="m312.898438 511.902344h-43.949219c-2.761719 0-5-2.238282-5-5v-109.070313c0-2.410156 1.71875-4.476562 4.089843-4.914062l50.828126-9.414063c1.410156-.265625 2.871093.097656 4 .984375 1.128906.886719 1.824218 2.21875 1.902343 3.652344l5.851563 105.023437c.269531 4.847657-1.488282 9.65625-4.824219 13.183594-3.34375 3.53125-8.042969 5.554688-12.898437 5.554688zm-38.949219-10h38.949219c2.152343 0 4.152343-.859375 5.628906-2.425782 1.476562-1.5625 2.226562-3.605468 2.105468-5.753906l-5.535156-99.351562-41.152344 7.621094v99.910156zm0 0"/><path d="m70.503906 511.902344h-43.949218c-4.859376 0-9.558594-2.023438-12.894532-5.554688-3.335937-3.527344-5.097656-8.332031-4.828125-13.179687l5.851563-105.09375c.082031-1.433594.773437-2.765625 1.90625-3.652344 1.128906-.886719 2.582031-1.25 4-.984375l50.824218 9.410156c2.367188.441406 4.089844 2.507813 4.089844 4.917969v109.136719c0 2.761718-2.238281 5-5 5zm-46.148437-117.597656-5.535157 99.417968c-.121093 2.148438.625 4.191406 2.105469 5.753906 1.476563 1.5625 3.476563 2.421876 5.628907 2.421876h38.949218v-99.976563zm0 0"/><path d="m230.875 341.5c-1.214844 0-2.394531-.441406-3.3125-1.253906l-20.792969-18.398438c-1.992187-1.765625-2.253906-4.78125-.59375-6.863281 7.402344-9.277344 14.230469-20.957031 20.289063-34.714844.550781-1.25 1.585937-2.214843 2.867187-2.683593 1.28125-.464844 2.695313-.386719 3.917969.214843l2.601562 1.28125c4.832032 1.636719 10.0625 3.207031 15.972657 4.792969 2.332031.621094 3.878906 2.824219 3.6875 5.226562-1.476563 18.445313-11.765625 39.101563-20.703125 50.488282-.851563 1.082031-2.109375 1.769531-3.480469 1.890625-.148437.015625-.300781.019531-.453125.019531zm-13.988281-24.054688 13.175781 11.65625c6.59375-9.847656 13-23.984374 14.996094-36.71875-4.113282-1.160156-7.914063-2.324218-11.507813-3.523437-5.082031 10.867187-10.667969 20.449219-16.664062 28.585937zm0 0"/><path d="m109.511719 341.5c-.152344 0-.300781-.003906-.453125-.019531-1.371094-.121094-2.628906-.808594-3.480469-1.890625-8.933594-11.386719-19.226563-32.042969-20.707031-50.488282-.191406-2.402343 1.363281-4.605468 3.691406-5.226562 5.914062-1.585938 11.140625-3.15625 15.972656-4.792969l2.601563-1.28125c1.222656-.601562 2.636719-.679687 3.917969-.214843 1.28125.46875 2.316406 1.433593 2.867187 2.683593 6.058594 13.757813 12.886719 25.4375 20.285156 34.714844 1.664063 2.082031 1.402344 5.097656-.59375 6.863281l-20.789062 18.398438c-.917969.8125-2.097657 1.253906-3.3125 1.253906zm-14.183594-49.117188c1.996094 12.738282 8.402344 26.875 15 36.71875l13.171875-11.652343c-5.992188-8.136719-11.578125-17.722657-16.660156-28.589844-3.59375 1.199219-7.398438 2.363281-11.511719 3.523437zm0 0"/><path d="m169.726562 266.363281c-3.277343 0-6.550781-.6875-9.539062-2.0625-11.863281-5.460937-23.125-13.550781-33.472656-24.046875-25.066406-25.417968-37.234375-60.757812-33.378906-96.960937l2.210937-22.765625c.136719-1.425782.878906-2.71875 2.039063-3.5625 5.578124-4.054688 15.34375-8.707032 30.144531-7.871094 40.292969 2.292969 61.09375-19.230469 68.175781-28.585938 1.59375-2.105468 4.199219-3.167968 6.8125-2.777343 2.617188.394531 4.8125 2.1875 5.722656 4.683593 8.089844 22.234376 21.773438 30.355469 31.824219 33.253907 1.972656.570312 3.394531 2.28125 3.589844 4.320312l2.269531 23.34375c3.847656 36.160157-8.316406 71.503907-33.382812 96.917969-10.347657 10.496094-21.609376 18.585938-33.476563 24.046875-2.988281 1.378906-6.261719 2.066406-9.539063 2.066406zm-64.457031-142.515625-1.988281 20.457032c-3.535156 33.257812 7.601562 65.65625 30.554688 88.929687 9.496093 9.632813 19.769531 17.027344 30.535156 21.984375 3.355468 1.542969 7.359375 1.542969 10.710937 0 10.765625-4.957031 21.039063-12.351562 30.539063-21.984375 22.953125-23.273437 34.085937-55.671875 30.554687-88.886719l-1.957031-20.132812c-11.0625-4.003906-24.582031-13.164063-33.410156-33.898438-10.191406 11.714844-33.316406 31.058594-73.648438 28.761719-10.34375-.59375-17.421875 2.035156-21.890625 4.769531zm0 0"/><path d="m97.65625 183.3125c-18.25 0-33.097656-14.847656-33.097656-33.097656s14.847656-33.097656 33.097656-33.097656c1.039062 0 2.09375.050781 3.226562.160156 1.316407.125 2.535157.773437 3.378907 1.796875.839843 1.023437 1.246093 2.34375 1.117187 3.664062l-2.097656 21.566407c0 .015624 0 .027343-.003906.042968-1.160156 10.921875-.691406 21.996094 1.394531 32.917969.265625 1.402344-.078125 2.851563-.941406 3.980469-.871094 1.132812-2.175781 1.839844-3.597657 1.945312-.894531.066406-1.679687.121094-2.476562.121094zm-2.765625-56.03125c-11.4375 1.371094-20.332031 11.128906-20.332031 22.933594 0 11.433594 8.351562 20.953125 19.273437 22.78125-1.375-9.878906-1.546875-19.835938-.5-29.683594zm3.414063 16.539062h.019531zm0 0"/><path d="m242.160156 183.3125c-.980468 0-1.941406-.0625-2.898437-.144531-1.410157-.125-2.699219-.835938-3.554688-1.964844-.851562-1.128906-1.1875-2.5625-.921875-3.953125 2.085938-10.917969 2.550782-21.988281 1.390625-32.902344l-2.097656-21.566406c-.261719-2.722656 1.707031-5.152344 4.425781-5.457031 1.289063-.140625 2.484375-.210938 3.660156-.210938 18.25 0 33.097657 14.847657 33.097657 33.097657s-14.851563 33.101562-33.101563 33.101562zm2.398438-56.074219 1.566406 16.097657c1.046875 9.835937.875 19.8125-.511719 29.71875 11.105469-1.671876 19.644531-11.277344 19.644531-22.84375 0-11.925782-9.085937-21.769532-20.699218-22.972657zm0 0"/><path d="m170.234375 347.164062c-24.070313 0-47.972656-23.066406-65.582031-63.277343-1.074219-2.449219-.03125-5.308594 2.367187-6.488281l17.542969-8.652344c3.96875-1.957032 6.433594-5.917969 6.433594-10.34375v-16.222656c0-1.972657 1.164062-3.761719 2.960937-4.566407 1.804688-.800781 3.910157-.472656 5.378907.847657 7.941406 7.128906 16.367187 12.765624 25.03125 16.757812 3.355468 1.542969 7.359374 1.542969 10.714843 0 8.667969-3.992188 17.089844-9.628906 25.03125-16.757812 1.46875-1.320313 3.578125-1.648438 5.378907-.847657 1.800781.804688 2.960937 2.59375 2.960937 4.566407v16.21875c0 4.425781 2.464844 8.390624 6.433594 10.347656l3.558593 1.753906 14.800782 7.296875c2.402344 1.183594 3.445312 4.050781 2.367187 6.5-17.59375 39.953125-41.425781 62.867187-65.378906 62.867187zm-54.460937-62.933593c15.648437 33.714843 35.355468 52.933593 54.460937 52.933593 19 0 38.628906-19.074218 54.253906-52.53125l-14.019531-6.914062c-7.410156-3.65625-12.011719-11.058594-12.011719-19.316406v-5.640625c-6.195312 4.648437-12.617187 8.515625-19.191406 11.539062-5.972656 2.753907-13.105469 2.75-19.078125 0-6.574219-3.023437-13-6.890625-19.191406-11.539062v5.640625c0 8.261718-4.605469 15.664062-12.011719 19.316406zm0 0"/><path d="m268.949219 511.902344h-198.445313c-2.761718 0-5-2.238282-5-5v-129.746094l-45.367187-8.402344c-2.476563-.457031-4.222657-2.683594-4.082031-5.195312l2.089843-37.5625c.832031-14.890625 11.105469-27.339844 25.566407-30.984375l38.902343-9.789063c7.402344-1.863281 14.792969-4.09375 21.980469-6.628906l19.964844-9.84375c3.96875-1.957031 6.4375-5.921875 6.4375-10.347656v-16.222656c0-1.972657 1.160156-3.761719 2.960937-4.5625 1.800781-.804688 3.90625-.472657 5.375.84375 7.945313 7.128906 16.367188 12.769531 25.035157 16.757812 3.355468 1.542969 7.359374 1.542969 10.710937 0 8.667969-3.988281 17.089844-9.628906 25.035156-16.757812 1.46875-1.316407 3.574219-1.644532 5.375-.84375 1.800781.800781 2.960938 2.589843 2.960938 4.5625v16.222656c0 4.421875 2.46875 8.390625 6.4375 10.34375l20.960937 10.335937c6.523438 2.210938 13.210938 4.179688 19.882813 5.859375l40.003906 10.070313c14.460937 3.640625 24.738281 16.089843 25.566406 30.980469l2.097657 37.632812c.136718 2.511719-1.609376 4.734375-4.082032 5.191406l-45.375 8.40625v129.679688c.007813 2.761718-2.234375 5-4.992187 5zm-193.445313-10h188.441406v-128.839844c0-2.410156 1.722657-4.476562 4.089844-4.914062l45.136719-8.359376-1.851563-33.238281c-.582031-10.5-7.828124-19.273437-18.023437-21.839843l-40-10.070313c-7.039063-1.769531-14.097656-3.855469-20.972656-6.195313-.207031-.070312-.40625-.152343-.597657-.25l-21.257812-10.480468c-7.410156-3.652344-12.011719-11.054688-12.011719-19.316406v-5.640626c-6.195312 4.648438-12.617187 8.511719-19.191406 11.542969-5.972656 2.75-13.105469 2.75-19.078125 0-6.574219-3.027343-13-6.890625-19.191406-11.542969v5.640626c0 8.261718-4.605469 15.664062-12.011719 19.316406l-20.234375 9.976562c-.175781.085938-.355469.164063-.542969.226563-7.5625 2.679687-15.355469 5.035156-23.148437 7l-38.90625 9.792969c-10.195313 2.566406-17.4375 11.34375-18.023438 21.839843l-1.847656 33.167969 45.132812 8.359375c2.367188.4375 4.089844 2.503906 4.089844 4.914063zm0 0"/></g></svg>