<svg height="511pt" viewBox="-93 0 511 511.996" width="511pt" xmlns="http://www.w3.org/2000/svg"><path d="m257.949219 250.53125c-10.175781-21.539062-7.511719-45.757812-3.222657-70.828125-4.636718 2.957031-10.128906 4.695313-16.035156 4.695313-1.113281 0-2.203125-.09375-3.28125-.222657-3.542968 24.039063-18.054687 46.894531-38.039062 59.71875v11.691407c0 8.226562 5.398437 13.878906 12.929687 16.777343-.199219-.097656 13.6875 6.75 14.53125 7.167969 2.523438 1.105469 2.167969 1.785156 18.9375 6.414062 5.414063 1.496094 11.855469 3.0625 19.125 4.871094 3.246094-11.457031-.691406-31.28125-4.945312-40.285156zm0 0" fill="#7c292e"/><path d="m101.65625 279.527344 6.539062-3.226563c-.199218.097657 12.660157-6.003906 14.882813-7.882812 3.746094-3.164063 6.042969-7.839844 6.042969-12.835938v-10.867187c-20.679688-12.644532-35.769532-35.96875-39.394532-60.542969-1.078124.128906-2.164062.226563-3.28125.226563-5.480468 0-10.597656-1.503907-15.015624-4.078126 4.222656 24.851563 6.761718 48.851563-3.328126 70.210938-4.242187 8.976562-7.699218 28.949219-4.386718 40.261719 38.085937-9.472657 36.027344-10.652344 37.941406-11.265625zm0 0" fill="#7c292e"/><path d="m236.253906 124.8125v48.085938c0 3.765624-.289062 7.535156-.839844 11.277343 1.078126.128907 2.164063.222657 3.277344.222657 16.496094 0 29.867188-13.371094 29.867188-29.863282 0-17.507812-14.992188-31.160156-32.304688-29.722656zm0 0" fill="#fcb275"/><path d="m88.886719 172.898438v-48.125c-.804688-.066407-1.617188-.101563-2.441407-.101563-16.492187 0-29.863281 13.371094-29.863281 29.863281 0 16.492188 13.371094 29.863282 29.863281 29.863282 1.117188 0 2.203126-.097657 3.28125-.226563-.550781-3.738281-.839843-7.507813-.839843-11.273437zm0 0" fill="#fcb275"/><path d="m280.867188 45.347656-116.832032-40.074218c-1.070312-.371094-2.234375-.371094-3.304687 0l-116.832031 40.074218c-4.582032 1.570313-4.582032 8.054688 0 9.625l116.832031 40.074219c1.070312.367187 2.234375.367187 3.304687 0l116.832032-40.074219c4.582031-1.570312 4.582031-8.054687 0-9.625zm0 0" fill="#515050"/><path d="m88.886719 113.304688v59.59375c0 40.527343 33.160156 81.609374 73.683593 81.609374 40.523438 0 73.679688-41.082031 73.679688-81.609374v-59.59375zm0 0" fill="#fcb275"/><path d="m164.035156 95.046875c-1.070312.367187-2.234375.367187-3.304687 0l-84.964844-29.140625v36.328125c0 6.113281 4.960937 11.070313 11.074219 11.066406 98.050781-.023437 136.246094.015625 151.472656.011719 6.109375 0 11.058594-4.953125 11.058594-11.066406v-36.46875zm0 0" fill="#3f3f3f"/><path d="m290.082031 103.902344c-.199219-1.003906-1.082031-1.726563-2.105469-1.726563h-11.808593c-1.023438 0-1.90625.722657-2.105469 1.726563l-3.726562 18.625c-.195313.988281.558593 1.90625 1.566406 1.90625h20.34375c1.003906 0 1.761718-.917969 1.5625-1.90625zm0 0" fill="#fcbd4c"/><path d="m86.839844 113.300781c-5.175782 0-9.507813-3.550781-10.722656-8.347656-2.148438 7.601563-3.738282 15.558594-4.6875 23.792969 4.414062-2.574219 9.535156-4.078125 15.015624-4.078125.824219 0 1.636719.035156 2.441407.101562v-11.464843zm0 0" fill="#7c292e"/><path d="m253.316406 128.558594c-.925781-7.925782-2.4375-15.59375-4.476562-22.929688-1.425782 4.457032-5.597656 7.683594-10.527344 7.683594-.640625 0-1.335938 0-2.0625 0v11.5c6.183594-.515625 12.054688.921875 17.066406 3.746094zm0 0" fill="#7c292e"/><path d="m320.972656 493.382812-9.421875-169.132812c-.710937-12.773438-9.644531-23.597656-22.050781-26.71875-38.179688-9.789062-41.792969-10.121094-56.519531-14.824219-1.589844-.507812-3.191407-.976562-4.773438-1.515625l-9.914062-4.886718c-.34375-.171876-8.199219-4.042969-7.988281-3.941407l-3.601563-1.773437c-2.496094-1.230469-4.558594-3.058594-6.128906-5.230469-2.019531-2.800781-3.199219-6.1875-3.199219-9.773437v-11.695313c-21.589844 13.851563-46.4375 14.167969-68.25.828125v10.867188c0 3.585937-1.183594 6.972656-3.203125 9.773437-1.570313 2.171875-3.632813 4-6.128906 5.230469-.207031.101562-11.796875 5.816406-11.589844 5.710937l-8.878906 4.378907c-1.933594.6875-3.878907 1.347656-5.828125 1.984374-13.691406 4.480469-20.300782 5.601563-56.5 14.867188-12.40625 3.121094-21.339844 13.945312-22.050782 26.71875l-9.421874 169.132812c-.410157 7.394532 5.472656 13.613282 12.878906 13.613282h289.699218c7.398438 0 13.28125-6.222656 12.871094-13.613282zm0 0" fill="#3f3f3f"/><path d="m163.246094 425.320312-39.566406-39.5625v121.238282h79.132812v-121.238282zm0 0" fill="#fcbd4c"/><path d="m163.246094 425.320312-13.933594-13.929687v95.605469h27.863281v-95.605469zm0 0" fill="#f9d498"/><path d="m163.246094 425.320312 127.441406-127.441406c-.394531-.117187-.78125-.25-1.1875-.351562-38.179688-9.785156-41.792969-10.121094-56.519531-14.820313-1.589844-.507812-3.191407-.980469-4.773438-1.515625l-9.914062-4.890625c-.34375-.167969-8.199219-4.039062-7.988281-3.9375l-3.601563-1.777343c-2.496094-1.230469-4.558594-3.054688-6.128906-5.226563-2.023438-2.800781-3.203125-6.191406-3.203125-9.777344v-11.691406c-21.589844 13.847656-46.433594 14.167969-68.25.824219v10.867187c0 3.589844-1.179688 6.976563-3.203125 9.777344-1.570313 2.171875-3.632813 3.996094-6.128907 5.226563-.207031.101562-11.796874 5.816406-11.589843 5.714843l-8.878907 4.378907c-1.933593.683593-3.878906 1.34375-5.828124 1.980468-13.691407 4.484375-20.304688 5.601563-56.5 14.867188-.402344.101562-.792969.234375-1.1875.351562zm0 0" fill="#30a9e5"/><path d="m163.246094 381.089844 92.136718-92.140625c-9.363281-2.335938-14.128906-3.597657-22.402343-6.242188-1.59375-.507812-3.191407-.976562-4.773438-1.515625l-9.914062-4.886718c-.347657-.171876-8.199219-4.042969-7.992188-3.941407l-3.597656-1.773437c-2.496094-1.230469-4.5625-3.058594-6.132813-5.230469-2.019531-2.800781-3.199218-6.1875-3.199218-9.773437v-11.695313c-21.59375 13.851563-46.4375 14.167969-68.25.828125v10.867188c0 3.585937-1.183594 6.972656-3.207032 9.773437-1.566406 2.171875-3.628906 4-6.125 5.230469-.210937.101562-11.800781 5.816406-11.59375 5.710937l-8.875 4.378907c-1.933593.6875-3.878906 1.347656-5.828124 1.984374-7.5625 2.472657-12.972657 3.925782-22.382813 6.285157zm0 0" fill="#1b87c9"/><path d="m224.835938 279.527344-6.542969-3.226563c-.34375-.167969-8.199219-4.039062-7.988281-3.9375l-3.601563-1.777343c-1.167969-.574219-2.234375-1.292969-3.207031-2.105469l-33.957032 34.59375 15.539063 15.902343c8.941406-3.15625 17.335937-8.300781 24.492187-15.453124 7.015626-7.019532 12.097657-15.238282 15.265626-23.996094zm0 0" fill="#e8e6e6"/><path d="m119.789062 270.589844c-.207031.101562-11.796874 5.816406-11.589843 5.710937l-6.542969 3.226563c3.167969 8.757812 8.25 16.976562 15.265625 23.996094 7.175781 7.171874 15.601563 12.335937 24.578125 15.484374l15.585938-15.933593-34.003907-34.65625c-.996093.839843-2.09375 1.578125-3.292969 2.171875zm0 0" fill="#e8e6e6"/><path d="m185.078125 318.976562-15.480469-15.835937-.238281.085937h-11.867187l-.417969-.136718-15.578125 15.921875c14.082031 4.9375 29.507812 4.925781 43.582031-.035157zm0 0" fill="#e04e36"/><path d="m169.625 303.132812-.085938-.054687 33.953126-34.597656c-1.101563-.921875-2.085938-1.964844-2.917969-3.117188-2.023438-2.800781-3.203125-6.191406-3.203125-9.777343v-11.691407c-21.589844 13.847657-46.433594 14.167969-68.25.824219v10.867188c0 3.589843-1.179688 6.976562-3.203125 9.777343-.816407 1.125-1.765625 2.152344-2.839844 3.058594l34.007813 34.65625-.011719.011719.417969.140625h11.871093zm0 0" fill="#fcb275"/><g fill="#231f20"><path d="m262.898438 295.816406c-.398438 0-.804688-.046875-1.210938-.148437l-3.535156-.878907c-5.96875-1.480468-11.125-2.761718-15.707032-4.023437-14.265624-3.9375-16.617187-5.144531-18.695312-6.210937-.292969-.148438-.570312-.292969-.921875-.445313-.070313-.035156-.140625-.0625-.207031-.097656l-12.949219-6.386719c-.421875-.207031-.804687-.414062-1.15625-.625l-.011719.03125c-10.253906-3.949219-16.132812-11.765625-16.132812-21.445312v-11.695313c0-1.703125.867187-3.289063 2.300781-4.207031 18.738281-12.019532 32.453125-33.566406 35.792969-56.238282.390625-2.679687 2.84375-4.558593 5.539062-4.234374 1.097656.128906 1.925782.1875 2.6875.1875 4.722656 0 9.335938-1.351563 13.34375-3.910157 1.667969-1.0625 3.808594-1.046875 5.457032.046875 1.648437 1.09375 2.496093 3.058594 2.164062 5.007813-3.929688 22.996093-6.949219 47.175781 2.816406 67.855469 4.507813 9.542968 8.960938 30.625 5.234375 43.785156-.621093 2.191406-2.621093 3.632812-4.808593 3.632812zm-35.945313-20.820312c.503906.226562.917969.4375 1.359375.660156 1.484375.761719 3.519531 1.804688 16.789062 5.464844 4.042969 1.117187 8.609376 2.261718 13.820313 3.554687.960937-10.445312-2.273437-25.195312-5.492187-32.011719-9.644532-20.421874-8.402344-42.859374-5.121094-64.625-2.832032.816407-5.761719 1.273438-8.734375 1.347657-4.617188 22.851562-18.503907 44.242187-37.203125 57.179687v9.019532c0 6.914062 5.289062 10.402343 9.726562 12.113281.148438.054687.292969.121093.4375.191406zm0 0"/><path d="m63.710938 295.796875c-2.171876 0-4.160157-1.425781-4.796876-3.597656-3.792968-12.984375.160157-34.261719 4.667969-43.804688 9.738281-20.613281 6.785157-44.519531 2.921875-67.238281-.324218-1.914062.488282-3.84375 2.082032-4.949219 1.601562-1.101562 3.691406-1.183593 5.371093-.207031 3.800781 2.222656 8.121094 3.394531 12.492188 3.394531.765625 0 1.59375-.054687 2.6875-.1875 2.691406-.324219 5.144531 1.554688 5.539062 4.234375 3.433594 23.285156 17.632813 45.128906 37.054688 57.007813 1.484375.910156 2.390625 2.527343 2.390625 4.265625v10.867187c0 6.386719-2.847656 12.457031-7.8125 16.652344-.902344.765625-2.710938 1.988281-9.242188 5.289063-3.246094 1.636718-5.273437 2.664062-6.664062 3.246093l.007812.015625-6.539062 3.226563c-.164063.082031-.332032.152343-.5.210937-2.101563 1.175782-6.378906 3.445313-38.449219 11.421875-.40625.101563-.8125.152344-1.210937.152344zm14.074218-107.503906c3.25 21.609375 4.496094 43.929687-5.160156 64.375-3.171875 6.710937-6.089844 21.566406-4.996094 31.988281 17.566406-4.445312 27.910156-7.507812 30.769532-9.109375.320312-.179687.738281-.410156 1.304687-.628906l6.285156-3.101563c.042969-.019531.089844-.039062.132813-.058594 3.957031-1.859374 12.359375-6.078124 13.753906-7.175781 2.691406-2.277343 4.246094-5.558593 4.246094-8.996093v-8.125c-19.425782-12.859376-33.820313-34.589844-38.554688-58.074219-2.632812-.070313-5.242187-.4375-7.78125-1.09375zm25.402344 95.996093c-.003906 0-.003906 0-.007812 0zm-1.53125-4.757812h.019531zm0 0"/><path d="m163.246094 217.191406c-8.792969 0-16.984375-4.355468-21.910156-11.648437-1.546876-2.289063-.945313-5.394531 1.34375-6.941407 2.289062-1.546874 5.394531-.945312 6.941406 1.34375 3.066406 4.539063 8.15625 7.246094 13.625 7.246094 5.464844 0 10.558594-2.707031 13.625-7.246094 1.542968-2.289062 4.652344-2.890624 6.941406-1.34375 2.289062 1.542969 2.890625 4.652344 1.34375 6.941407-4.925781 7.292969-13.117188 11.648437-21.910156 11.648437zm0 0"/><path d="m263.628906 509.222656c-2.761718 0-5-2.238281-5-5v-109.542968c0-2.765626 2.238282-5 5-5 2.761719 0 5 2.234374 5 5v109.542968c0 2.761719-2.238281 5-5 5zm0 0"/><path d="m62.859375 509.222656c-2.761719 0-5-2.238281-5-5v-109.542968c0-2.765626 2.238281-5 5-5 2.765625 0 5 2.234374 5 5v109.542968c0 2.761719-2.238281 5-5 5zm0 0"/><path d="m137.863281 168.089844c-3.3125 0-6-2.6875-6-6v-1.09375c0-3.3125 2.6875-6 6-6s6 2.6875 6 6v1.09375c0 3.3125-2.6875 6-6 6zm0 0"/><path d="m190.296875 168.929688c-3.316406 0-6-2.6875-6-6v-1.09375c0-3.316407 2.683594-6 6-6 3.3125 0 6 2.683593 6 6v1.09375c0 3.3125-2.6875 6-6 6zm0 0"/><path d="m200.4375 148.761719c-.792969 0-1.597656-.191407-2.34375-.589844-1.257812-.667969-4.136719-1.34375-7.742188-1.34375-3.601562 0-6.480468.675781-7.734374 1.34375-2.441407 1.292969-5.46875.371094-6.765626-2.066406-1.292968-2.4375-.371093-5.464844 2.066407-6.761719 3.003906-1.597656 7.539062-2.515625 12.433593-2.515625 4.898438 0 9.433594.917969 12.4375 2.515625 2.4375 1.292969 3.363282 4.324219 2.066407 6.761719-.898438 1.6875-2.628907 2.652343-4.417969 2.65625zm0 0"/><path d="m146.21875 148.761719c-.792969 0-1.59375-.191407-2.34375-.589844-1.253906-.667969-4.136719-1.34375-7.738281-1.34375-3.601563 0-6.484375.675781-7.738281 1.34375-2.4375 1.292969-5.46875.371094-6.761719-2.066406-1.296875-2.4375-.375-5.464844 2.066406-6.761719 3.003906-1.597656 7.535156-2.515625 12.433594-2.515625 4.898437 0 9.429687.917969 12.433593 2.515625 2.4375 1.292969 3.363282 4.324219 2.066407 6.761719-.898438 1.6875-2.628907 2.652343-4.417969 2.65625zm0 0"/><path d="m282.070312 106.433594c-2.761718 0-5-2.238282-5-5v-46.4375h-115.675781c-2.761719 0-5-2.234375-5-5 0-2.761719 2.238281-5 5-5h120.675781c2.761719 0 5 2.238281 5 5v51.4375c0 2.761718-2.238281 5-5 5zm0 0"/><path d="m163.246094 327.707031c-18.835938 0-36.542969-7.332031-49.859375-20.652343-7.371094-7.367188-12.898438-16.054688-16.433594-25.824219-.867187-2.394531.207031-5.058594 2.488281-6.1875l6.542969-3.226563c.007813-.003906.015625-.007812.023437-.011718.507813-.246094 11.21875-5.53125 11.546876-5.691407 1.707031-.839843 3.148437-2.078125 4.304687-3.683593 1.476563-2.042969 2.257813-4.410157 2.257813-6.847657v-10.867187c0-1.808594.976562-3.476563 2.554687-4.363282 1.578125-.882812 3.507813-.84375 5.054687.097657 20.085938 12.285156 43.027344 12.003906 62.941407-.769531 1.539062-.984376 3.492187-1.054688 5.097656-.175782 1.605469.875 2.601563 2.554688 2.601563 4.382813v11.691406c0 2.441406.78125 4.808594 2.253906 6.851563 1.160156 1.605468 2.605468 2.839843 4.289062 3.671874l3.601563 1.773438c.003906.003906.011719.007812.015625.007812l14.519531 7.160157c2.285156 1.125 3.355469 3.792969 2.488281 6.183593-3.535156 9.769532-9.0625 18.460938-16.433594 25.828126-13.3125 13.320312-31.023437 20.652343-49.855468 20.652343zm-55.222656-45.746093c3 6.714843 7.167968 12.761718 12.4375 18.023437 11.429687 11.429687 26.621093 17.722656 42.785156 17.722656 16.164062 0 31.359375-6.292969 42.789062-17.722656 5.265625-5.261719 9.433594-11.308594 12.433594-18.023437l-6.472656-3.191407c-1.121094-.550781-2.1875-1.078125-3.125-1.621093-.261719-.078126-.515625-.175782-.765625-.296876l.058593-.125c-.003906 0-.007812-.003906-.007812-.003906l-.0625.125-3.597656-1.777344c-3.117188-1.539062-5.875-3.882812-7.972656-6.785156-2.714844-3.757812-4.148438-8.152344-4.148438-12.707031v-3.132813c-18.796875 9.21875-39.320312 9.4375-58.25.621094v2.511719c0 4.554687-1.4375 8.953125-4.148438 12.707031-2.09375 2.898438-4.851562 5.246094-7.972656 6.785156-6.03125 3.015626-9.480468 4.738282-11.644531 5.597657l.054687.117187zm0 0"/><path d="m238.691406 189.398438c-1.171875 0-2.367187-.082032-3.871094-.261719-1.34375-.160157-2.5625-.855469-3.382812-1.925781-.816406-1.074219-1.171875-2.433594-.96875-3.769532.519531-3.539062.785156-7.085937.785156-10.542968v-48.085938c0-2.601562 1.996094-4.769531 4.585938-4.984375 9.664062-.8125 19.328125 2.511719 26.484375 9.097656 7.140625 6.570313 11.234375 15.902344 11.234375 25.609375 0 19.222656-15.640625 34.863282-34.867188 34.863282zm2.5625-59.554688v43.054688c0 2.113281-.085937 4.246093-.257812 6.394531 12.632812-1.167969 22.5625-11.828125 22.5625-24.761719 0-7.015625-2.84375-13.496094-8.007813-18.25-3.964843-3.648438-9.007812-5.890625-14.296875-6.4375zm0 0"/><path d="m86.449219 189.398438c-19.222657 0-34.867188-15.640626-34.867188-34.867188s15.640625-34.863281 34.867188-34.863281c.960937 0 1.910156.042969 2.851562.121093 2.59375.210938 4.589844 2.378907 4.589844 4.980469v48.125c0 3.457031.261719 7.003907.785156 10.546875.199219 1.335938-.15625 2.695313-.972656 3.765625-.820313 1.074219-2.039063 1.769531-3.378906 1.929688-1.507813.179687-2.703125.261719-3.875.261719zm-2.5625-59.597657c-12.511719 1.285157-22.304688 11.886719-22.304688 24.730469 0 12.933594 9.925781 23.59375 22.5625 24.761719-.171875-2.148438-.257812-4.285157-.257812-6.394531zm0 0"/><path d="m162.382812 100.320312c-1.113281 0-2.21875-.179687-3.277343-.542968l-116.828125-40.074219c-4.140625-1.417969-6.816406-5.167969-6.816406-9.542969s2.675781-8.125 6.816406-9.542968l116.828125-40.074219c2.117187-.722657 4.441406-.726563 6.550781 0l116.832031 40.074219h-.003906c4.144531 1.417968 6.820313 5.167968 6.820313 9.542968s-2.675782 8.125-6.820313 9.542969l-116.828125 40.074219c-1.054688.363281-2.164062.542968-3.273438.542968zm.027344-90.316406-116.886718 40.070313 116.828124 40.242187 116.890626-40.074218v-.167969zm0 0"/><path d="m162.570312 259.507812c-45.035156 0-78.683593-45.726562-78.683593-86.609374v-59.59375c0-2.761719 2.238281-5 5-5h147.367187c2.761719 0 5 2.238281 5 5v59.59375c0 40.882812-33.652344 86.609374-78.683594 86.609374zm-68.683593-141.203124v54.59375c0 43.84375 36.261719 76.609374 68.683593 76.609374 32.421876 0 68.683594-32.765624 68.683594-76.609374v-54.59375zm0 0"/><path d="m238.3125 118.3125-17.117188-.003906c-21.9375-.007813-61.722656-.027344-134.355468-.007813-8.863282 0-16.074219-7.207031-16.074219-16.066406v-36.328125c0-1.617188.78125-3.128906 2.09375-4.066406 1.316406-.941406 3.003906-1.183594 4.53125-.664063l84.960937 29.140625h.050782.007812l85.335938-29.269531c1.53125-.519531 3.214844-.277344 4.53125.660156s2.09375 2.453125 2.09375 4.070313v36.464844c0 8.863281-7.203125 16.070312-16.058594 16.070312zm-88.253906-10.019531c34.378906 0 56.652344.007812 71.140625.015625l17.113281.003906c3.339844 0 6.058594-2.71875 6.058594-6.066406v-29.464844l-78.714844 27c-2.113281.722656-4.433594.722656-6.546875-.003906l-78.339844-26.871094v29.328125c0 3.34375 2.722657 6.066406 6.070313 6.066406 24.664062-.007812 45.542968-.007812 63.21875-.007812zm0 0"/><path d="m292.242188 129.433594h-20.34375c-1.984376 0-3.84375-.878906-5.101563-2.417969s-1.753906-3.535156-1.363281-5.480469l3.722656-18.609375c.660156-3.328125 3.609375-5.75 7.007812-5.75h11.8125c3.390626 0 6.339844 2.417969 7.007813 5.746094v.003906l3.722656 18.621094c.386719 1.945313-.109375 3.941406-1.367187 5.472656-1.253906 1.535157-3.113282 2.414063-5.097656 2.414063zm-17-5.941406-.003907.015624c.003907-.003906.003907-.011718.003907-.015624zm.8125-4.058594h12.035156l-2.453125-12.257813h-7.128907zm11.921874-12.257813h.019532zm-2.796874-2.289062v.003906zm-6.214844-.011719v.011719c0-.003907 0-.007813 0-.011719zm0 0"/><path d="m71.429688 133.746094c-.953126 0-1.90625-.269532-2.734376-.8125-1.585937-1.035156-2.449218-2.875-2.230468-4.757813.960937-8.359375 2.59375-16.628906 4.84375-24.582031.617187-2.179688 2.652344-3.710938 4.878906-3.640625 2.265625.03125 4.222656 1.578125 4.78125 3.773437.679688 2.695313 3.097656 4.578126 5.875 4.578126h.003906 2.046875c2.757813.003906 4.996094 2.242187 4.996094 5v11.46875c0 1.398437-.585937 2.730468-1.617187 3.675781-1.027344.949219-2.382813 1.421875-3.796876 1.304687-4.933593-.402344-10.121093.742188-14.523437 3.3125-.78125.457032-1.652344.679688-2.523437.679688zm7.121093-17.742188c-.332031 1.59375-.640625 3.199219-.921875 4.8125 2.046875-.542968 4.140625-.890625 6.257813-1.050781v-1.734375c-1.910157-.355469-3.710938-1.050781-5.335938-2.027344zm0 0"/><path d="m253.316406 133.558594c-.84375 0-1.691406-.210938-2.457031-.644532-4.351563-2.453124-9.257813-3.523437-14.195313-3.121093-1.402343.128906-2.769531-.355469-3.796874-1.300781-1.03125-.949219-1.617188-2.28125-1.617188-3.679688v-11.5c0-2.761719 2.238281-5 5-5h2.058594c2.644531 0 4.960937-1.691406 5.769531-4.207031.671875-2.101563 2.578125-3.476563 4.859375-3.476563 2.207031.046875 4.128906 1.535156 4.71875 3.664063 2.128906 7.667969 3.683594 15.640625 4.625 23.6875.214844 1.871093-.628906 3.703125-2.199219 4.742187-.832031.554688-1.796875.835938-2.765625.835938zm-12.0625-13.757813c1.984375.144531 3.949219.460938 5.875.945313-.265625-1.515625-.554687-3.027344-.867187-4.527344-1.535157.875-3.222657 1.496094-5.007813 1.824219zm0 0"/><path d="m308.09375 511.996094h-289.699219c-4.898437 0-9.636719-2.042969-13-5.597656-3.367187-3.558594-5.140625-8.40625-4.871093-13.292969l9.421874-169.132813c.839844-15.039062 11.214844-27.613281 25.820313-31.289062 11.90625-3.046875 20.625-5.21875 27.445313-6.914063 13.941406-3.46875 19.707031-4.902343 28.722656-7.855469 1.816406-.597656 3.632812-1.210937 5.441406-1.847656l8.613281-4.246094c0-.003906.003907-.003906.007813-.003906.226562-.113281 11.230468-5.539062 11.5625-5.703125 1.703125-.839843 3.144531-2.074219 4.304687-3.679687 1.476563-2.042969 2.257813-4.410156 2.257813-6.847656v-10.871094c0-1.808594.972656-3.476563 2.550781-4.359375 1.578125-.882813 3.511719-.847657 5.054687.09375 20.089844 12.289062 43.03125 12.007812 62.941407-.765625 1.542969-.984375 3.492187-1.058594 5.097656-.179688 1.605469.875 2.605469 2.558594 2.605469 4.386719v11.691406c0 2.4375.777344 4.804688 2.253906 6.847657 1.160156 1.609374 2.601562 2.84375 4.285156 3.671874l3.589844 1.769532s.003906 0 .003906.003906l.007813.003906c.007812.003906.011719.003906.019531.007813l17.589844 8.671875c.871094.292968 1.746094.5625 2.621094.832031l1.761718.550781c9.402344 3.003906 14.144532 4.183594 26.820313 7.332032 6.863281 1.703124 16.015625 3.972656 29.421875 7.410156 14.582031 3.671875 24.960937 16.246094 25.800781 31.285156l9.417969 169.136719c.273437 4.886719-1.5 9.730469-4.867188 13.289062-3.367187 3.5625-8.105468 5.601563-13.003906 5.601563zm-197.742188-231.324219.058594.117187-8.878906 4.375c-.175781.085938-.355469.160157-.542969.226563-1.96875.703125-3.953125 1.375-5.941406 2.023437-9.363281 3.066407-15.648437 4.628907-29.421875 8.054688-6.800781 1.695312-15.5 3.859375-27.394531 6.902344-10.359375 2.609375-17.707031 11.511718-18.300781 22.15625l-9.417969 169.128906c-.121094 2.191406.640625 4.277344 2.144531 5.867188 1.507812 1.59375 3.542969 2.46875 5.738281 2.46875h289.699219c2.195312 0 4.230469-.875 5.738281-2.46875 1.507813-1.59375 2.269531-3.675782 2.148438-5.867188l-9.421875-169.128906c-.59375-10.644532-7.9375-19.546875-18.28125-22.148438-13.390625-3.433594-22.519532-5.703125-29.367188-7.402344-12.90625-3.203124-17.734375-4.402343-27.453125-7.507812l-1.683593-.527344c-1.058594-.328125-2.121094-.660156-3.179688-1.015625-.207031-.070312-.40625-.15625-.601562-.25l-14.003907-6.90625c-1.144531-.5625-2.214843-1.089843-3.152343-1.625-.25-.078125-.496094-.175781-.738282-.292969l.054688-.113281c-.003906-.003906-.007813-.003906-.007813-.007812l-.058593.117187-3.597657-1.777344c-3.117187-1.535156-5.878906-3.878906-7.972656-6.785156-2.710937-3.753906-4.148437-8.148437-4.148437-12.703125v-3.136719c-18.796876 9.21875-39.320313 9.441407-58.25.625v2.511719c0 4.554688-1.4375 8.949219-4.148438 12.707031-2.09375 2.898438-4.851562 5.246094-7.972656 6.78125-6.03125 3.019532-9.480469 4.742188-11.644532 5.601563zm0 0"/><path d="m202.8125 511.996094h-79.132812c-2.761719 0-5-2.238282-5-5v-121.238282c0-2.023437 1.21875-3.847656 3.085937-4.621093 1.875-.773438 4.023437-.347657 5.449219 1.082031l36.03125 36.035156 36.03125-36.035156c1.429687-1.429688 3.574218-1.855469 5.449218-1.082031 1.867188.773437 3.085938 2.597656 3.085938 4.621093v121.238282c0 2.761718-2.238281 5-5 5zm-74.132812-10h69.132812v-104.171875l-31.035156 31.035156c-1.953125 1.953125-5.117188 1.953125-7.066406 0l-31.035157-31.035156v104.171875zm0 0"/><path d="m177.175781 511.996094h-27.863281c-2.761719 0-5-2.238282-5-5v-95.605469c0-2.023437 1.21875-3.847656 3.085938-4.621094 1.875-.773437 4.023437-.34375 5.449218 1.085938l10.398438 10.394531 10.394531-10.394531c1.429687-1.429688 3.578125-1.859375 5.449219-1.085938 1.871094.773438 3.085937 2.597657 3.085937 4.621094v95.605469c0 2.761718-2.238281 5-5 5zm-22.863281-10h17.863281v-78.535156l-5.394531 5.394531c-1.953125 1.953125-5.117188 1.953125-7.070312 0l-5.394532-5.394531v78.535156zm0 0"/><path d="m163.246094 430.320312c-1.28125 0-2.558594-.484374-3.535156-1.460937l-127.445313-127.445313c-1.246094-1.246093-1.746094-3.054687-1.308594-4.765624.429688-1.707032 1.730469-3.058594 3.421875-3.5625l.3125-.097657c.355469-.109375.710938-.214843 1.078125-.308593 11.902344-3.046876 20.625-5.214844 27.441407-6.910157 13.941406-3.46875 19.707031-4.90625 28.722656-7.859375 1.820312-.59375 3.632812-1.207031 5.441406-1.847656l8.613281-4.246094c.003907-.003906.011719-.003906.015625-.007812.441406-.214844 11.226563-5.53125 11.554688-5.695313 1.703125-.839843 3.144531-2.078125 4.304687-3.683593 1.476563-2.042969 2.257813-4.410157 2.257813-6.847657v-10.867187c0-1.808594.972656-3.476563 2.550781-4.363282 1.578125-.882812 3.511719-.84375 5.054687.097657 20.089844 12.285156 43.03125 12.003906 62.941407-.769531 1.542969-.984376 3.492187-1.054688 5.097656-.175782 1.605469.875 2.605469 2.554688 2.605469 4.382813v11.691406c0 2.441406.777344 4.808594 2.253906 6.851563 1.160156 1.605468 2.601562 2.839843 4.289062 3.671874l3.597657 1.773438c.007812.003906.011719.007812.023437.011719l17.585938 8.667969c.871094.292968 1.746094.5625 2.621094.835937l1.761718.550781c9.402344 3.003906 14.144532 4.179688 26.820313 7.328125 6.863281 1.703125 16.015625 3.976563 29.421875 7.414063.351562.089844.714844.199218 1.078125.308594l.304687.097656c1.683594.507812 2.976563 1.859375 3.410156 3.566406.429688 1.707031-.070312 3.511719-1.3125 4.753906l-127.445312 127.445313c-.976562.980469-2.257812 1.464843-3.535156 1.464843zm-117.734375-129.800781 117.734375 117.734375 117.738281-117.738281c-9.539063-2.421875-16.546875-4.164063-22.074219-5.539063-12.90625-3.203124-17.734375-4.402343-27.453125-7.507812l-1.679687-.527344c-1.0625-.328125-2.125-.660156-3.179688-1.015625-.207031-.070312-.410156-.15625-.605468-.25l-14.003907-6.90625c-1.140625-.5625-2.210937-1.089843-3.148437-1.625-.25-.078125-.5-.175781-.742188-.292969l.054688-.113281c0-.003906-.003906-.003906-.007813-.007812l-.054687.117187-3.601563-1.777344c-3.117187-1.535156-5.875-3.878906-7.972656-6.78125-2.710937-3.761718-4.144531-8.152343-4.144531-12.707031v-3.136719c-18.800782 9.21875-39.324219 9.441407-58.25.625v2.511719c0 4.554688-1.4375 8.949219-4.152344 12.707031-2.09375 2.898438-4.851562 5.246094-7.96875 6.78125-6.035156 3.019532-9.484375 4.742188-11.648438 5.601563l.058594.117187-8.878906 4.375c-.175781.085938-.355469.160157-.542969.226563-1.96875.703125-3.953125 1.375-5.941406 2.023437-9.363281 3.066407-15.648437 4.628907-29.421875 8.054688-5.332031 1.328125-11.828125 2.945312-20.113281 5.050781zm0 0"/><path d="m163.246094 386.089844c-1.28125 0-2.558594-.488282-3.535156-1.464844l-92.136719-92.136719c-1.273438-1.273437-1.765625-3.132812-1.285157-4.867187.476563-1.738282 1.855469-3.082032 3.601563-3.519532 9.277344-2.324218 14.660156-3.773437 22.042969-6.191406 1.820312-.59375 3.632812-1.207031 5.441406-1.847656l8.613281-4.246094c.003907-.003906.011719-.003906.019531-.007812.449219-.21875 11.222657-5.53125 11.550782-5.695313 1.703125-.839843 3.144531-2.078125 4.304687-3.683593 1.476563-2.042969 2.257813-4.410157 2.257813-6.847657v-10.867187c0-1.808594.972656-3.476563 2.550781-4.363282 1.578125-.882812 3.511719-.84375 5.054687.097657 20.089844 12.285156 43.03125 12.003906 62.941407-.769531 1.542969-.984376 3.492187-1.054688 5.097656-.175782 1.605469.875 2.605469 2.554688 2.605469 4.382813v11.691406c0 2.441406.777344 4.808594 2.253906 6.851563 1.160156 1.605468 2.601562 2.839843 4.289062 3.671874l3.597657 1.773438c.007812.003906.011719.003906.015625.007812l17.59375 8.671876c.871094.292968 1.746094.5625 2.621094.835937l1.761718.550781c8.320313 2.65625 13.125 3.914063 22.09375 6.152344 1.746094.4375 3.125 1.78125 3.609375 3.515625.476563 1.738281-.011719 3.597656-1.285156 4.871094l-92.136719 92.140625c-.980468.980468-2.261718 1.46875-3.539062 1.46875zm-82.402344-94.472656 82.402344 82.402343 82.390625-82.394531c-4.617188-1.21875-8.632813-2.382812-14.179688-4.152344l-1.679687-.527344c-1.0625-.332031-2.125-.660156-3.179688-1.019531-.207031-.070312-.410156-.152343-.605468-.25l-14.003907-6.902343c-1.121093-.554688-2.183593-1.078126-3.125-1.621094-.261719-.078125-.515625-.179688-.765625-.300782l.058594-.121093c0-.003907-.003906-.003907-.007812-.007813l-.058594.125-3.601563-1.777344c-3.117187-1.535156-5.875-3.878906-7.972656-6.78125-2.710937-3.761718-4.144531-8.152343-4.144531-12.707031v-3.136719c-18.800782 9.21875-39.324219 9.441407-58.25.625v2.511719c0 4.554688-1.4375 8.949219-4.152344 12.707031-2.09375 2.898438-4.851562 5.246094-7.96875 6.78125-6.035156 3.019532-9.484375 4.742188-11.648438 5.601563l.058594.117187-8.878906 4.375c-.175781.085938-.355469.160157-.542969.226563-1.96875.703125-3.953125 1.375-5.941406 2.023437-5.078125 1.664063-9.222656 2.878907-14.203125 4.203126zm0 0"/><path d="m185.078125 323.976562c-1.324219 0-2.621094-.527343-3.578125-1.507812l-15.539062-15.898438c-1.902344-1.945312-1.898438-5.054687.007812-6.996093l33.957031-34.597657c1.824219-1.859374 4.769531-2.003906 6.773438-.335937.714843.597656 1.460937 1.089844 2.210937 1.460937l3.601563 1.777344c.007812 0 .011719.003906.019531.007813l14.515625 7.15625c2.285156 1.128906 3.359375 3.792969 2.492187 6.1875-3.535156 9.769531-9.0625 18.457031-16.4375 25.824219-7.519531 7.523437-16.386718 13.121093-26.363281 16.636718-.542969.191406-1.105469.285156-1.660156.285156zm-8.539063-20.890624 9.820313 10.050781c7.363281-3.03125 13.96875-7.445313 19.675781-13.152344 5.265625-5.261719 9.433594-11.308594 12.433594-18.023437l-6.476562-3.191407c-1.140626-.5625-2.210938-1.089843-3.148438-1.625-.25-.078125-.5-.175781-.742188-.292969l.054688-.113281c0-.003906-.003906-.003906-.007812-.007812l-.054688.117187-3.601562-1.777344c-.101563-.046874-.207032-.101562-.308594-.15625zm0 0"/><path d="m141.496094 324.007812c-.554688 0-1.113282-.09375-1.652344-.28125-10.007812-3.511718-18.90625-9.121093-26.457031-16.671874-7.371094-7.367188-12.898438-16.054688-16.433594-25.824219-.867187-2.394531.207031-5.058594 2.488281-6.1875l6.542969-3.226563c.011719-.003906.023437-.011718.035156-.015625.570313-.28125 11.210938-5.527343 11.539063-5.6875.007812-.003906.015625-.007812.023437-.011719.789063-.390624 1.550781-.894531 2.269531-1.5 2-1.695312 4.96875-1.554687 6.796876.3125l34.007812 34.65625c1.90625 1.945313 1.910156 5.054688.007812 7l-15.589843 15.933594c-.957031.976563-2.253907 1.503906-3.578125 1.503906zm-33.472656-42.046874c3 6.710937 7.167968 12.761718 12.4375 18.023437 5.726562 5.730469 12.363281 10.160156 19.753906 13.1875l9.875-10.09375-27.683594-28.210937c-.132812.070312-.265625.136718-.398438.203124-.28125.140626-3.09375 1.527344-5.878906 2.898438l-3.941406 1.941406c-.441406.21875-1.078125.535156-1.8125.800782l.039062.078124zm0 0"/><path d="m163.242188 327.699219c-7.929688 0-15.855469-1.324219-23.402344-3.972657-1.613282-.566406-2.824219-1.917968-3.210938-3.582031-.386718-1.664062.101563-3.410156 1.292969-4.628906l15.578125-15.921875c1.242188-1.269531 3.050781-1.777344 4.746094-1.367188h10.429687c1.621094-.308593 3.316407.210938 4.5 1.421876l15.476563 15.835937c1.195312 1.21875 1.683594 2.964844 1.292968 4.628906-.386718 1.660157-1.597656 3.011719-3.207031 3.578125-7.574219 2.671875-15.535156 4.007813-23.496093 4.007813zm-12.253907-11.242188c8.109375 1.664063 16.503907 1.660157 24.613281-.023437l-8.023437-8.207032h-8.535156zm0 0"/><path d="m169.363281 308.226562h-11.871093c-.539063 0-1.078126-.089843-1.589844-.261718l-.417969-.136719c-.90625-.300781-1.683594-.851563-2.265625-1.554687l-33.710938-34.351563c-.972656-.992187-1.488281-2.34375-1.425781-3.730469.066407-1.390625.707031-2.6875 1.765625-3.585937.761719-.644531 1.441406-1.378907 2.015625-2.175781 1.476563-2.042969 2.257813-4.40625 2.257813-6.84375v-10.871094c0-1.808594.972656-3.476563 2.550781-4.359375 1.578125-.882813 3.511719-.847657 5.054687.09375 20.089844 12.289062 43.03125 12.007812 62.941407-.765625 1.542969-.984375 3.492187-1.058594 5.097656-.179688 1.605469.875 2.605469 2.558594 2.605469 4.386719v11.691406c0 2.4375.777344 4.804688 2.253906 6.847657.582031.804687 1.277344 1.546874 2.066406 2.207031 1.074219.894531 1.722656 2.199219 1.792969 3.589843.070313 1.394532-.445313 2.757813-1.425781 3.753907l-33.363282 33.992187c-.558593.828125-1.371093 1.488282-2.347656 1.847656l-.261718.09375c-.546876.207032-1.132813.3125-1.722657.3125zm-10.03125-10h7.960938l29.289062-29.847656c-.019531-.03125-.042969-.0625-.066406-.09375-2.710937-3.757812-4.144531-8.148437-4.144531-12.703125v-3.136719c-18.800782 9.21875-39.324219 9.441407-58.25.625v2.511719c0 4.554688-1.4375 8.949219-4.152344 12.707031 0 0-.003906.003907-.003906.007813zm0 0"/></g></svg>