<svg height="511pt" viewBox="-93 0 511 511.996" width="511pt" xmlns="http://www.w3.org/2000/svg"><path d="m236.253906 124.8125v48.085938c0 3.765624-.289062 7.535156-.839844 11.277343 1.078126.128907 2.164063.222657 3.277344.222657 16.496094 0 29.867188-13.371094 29.867188-29.863282 0-17.507812-14.992188-31.160156-32.304688-29.722656zm0 0" fill="#fcb275"/><path d="m88.886719 172.898438v-48.125c-.804688-.066407-1.617188-.101563-2.441407-.101563-16.492187 0-29.863281 13.371094-29.863281 29.863281 0 16.492188 13.371094 29.863282 29.863281 29.863282 1.117188 0 2.203126-.097657 3.28125-.226563-.550781-3.738281-.839843-7.507813-.839843-11.273437zm0 0" fill="#fcb275"/><path d="m280.867188 45.347656-116.832032-40.074218c-1.070312-.371094-2.234375-.371094-3.304687 0l-116.832031 40.074218c-4.582032 1.570313-4.582032 8.054688 0 9.625l116.832031 40.074219c1.070312.367187 2.234375.367187 3.304687 0l116.832032-40.074219c4.582031-1.570312 4.582031-8.054687 0-9.625zm0 0" fill="#515050"/><path d="m88.886719 113.304688v59.59375c0 40.527343 33.160156 81.609374 73.683593 81.609374 40.523438 0 73.679688-41.082031 73.679688-81.609374v-59.59375zm0 0" fill="#fcb275"/><path d="m164.035156 95.046875c-1.070312.367187-2.234375.367187-3.304687 0l-84.964844-29.140625v36.328125c0 6.113281 4.960937 11.070313 11.074219 11.066406 98.050781-.023437 136.246094.015625 151.472656.011719 6.109375 0 11.058594-4.953125 11.058594-11.066406v-36.46875zm0 0" fill="#3f3f3f"/><path d="m290.082031 103.902344c-.199219-1.003906-1.082031-1.726563-2.105469-1.726563h-11.808593c-1.023438 0-1.90625.722657-2.105469 1.726563l-3.726562 18.625c-.195313.988281.558593 1.90625 1.566406 1.90625h20.34375c1.003906 0 1.761718-.917969 1.5625-1.90625zm0 0" fill="#fcbd4c"/><path d="m86.839844 113.300781c-5.175782 0-9.507813-3.550781-10.722656-8.347656-2.148438 7.601563-3.738282 15.558594-4.6875 23.792969 4.414062-2.574219 9.535156-4.078125 15.015624-4.078125.824219 0 1.636719.035156 2.441407.101562v-11.464843zm0 0" fill="#7c292e"/><path d="m253.316406 128.558594c-.925781-7.925782-2.4375-15.59375-4.476562-22.929688-1.425782 4.457032-5.597656 7.683594-10.527344 7.683594-.640625 0-1.335938 0-2.0625 0v11.5c6.183594-.515625 12.054688.921875 17.066406 3.746094zm0 0" fill="#7c292e"/><path d="m320.972656 493.382812-9.421875-169.132812c-.710937-12.773438-9.644531-23.597656-22.050781-26.71875-38.179688-9.789062-41.792969-10.121094-56.519531-14.824219-1.589844-.507812-3.191407-.976562-4.773438-1.515625l-9.914062-4.886718c-.34375-.171876-8.199219-4.042969-7.988281-3.941407l-3.601563-1.773437c-2.496094-1.230469-4.558594-3.058594-6.128906-5.230469-2.019531-2.800781-3.199219-6.1875-3.199219-9.773437v-11.695313c-21.589844 13.851563-46.4375 14.167969-68.25.828125v10.867188c0 3.585937-1.183594 6.972656-3.203125 9.773437-1.570313 2.171875-3.632813 4-6.128906 5.230469-.207031.101562-11.796875 5.816406-11.589844 5.710937l-8.878906 4.378907c-1.933594.6875-3.878907 1.347656-5.828125 1.984374-13.691406 4.480469-20.300782 5.601563-56.5 14.867188-12.40625 3.121094-21.339844 13.945312-22.050782 26.71875l-9.421874 169.132812c-.410157 7.394532 5.472656 13.613282 12.878906 13.613282h289.699218c7.398438 0 13.28125-6.222656 12.871094-13.613282zm0 0" fill="#3f3f3f"/><path d="m163.246094 425.320312-39.566406-39.5625v121.238282h79.132812v-121.238282zm0 0" fill="#fcbd4c"/><path d="m163.246094 425.320312-13.933594-13.929687v95.605469h27.863281v-95.605469zm0 0" fill="#f9d498"/><path d="m163.246094 425.320312 127.441406-127.441406c-.394531-.117187-.78125-.25-1.1875-.351562-38.179688-9.785156-41.792969-10.121094-56.519531-14.820313-1.589844-.507812-3.191407-.980469-4.773438-1.515625l-9.914062-4.890625c-.34375-.167969-8.199219-4.039062-7.988281-3.9375l-3.601563-1.777343c-2.496094-1.230469-4.558594-3.054688-6.128906-5.226563-2.023438-2.800781-3.203125-6.191406-3.203125-9.777344v-11.691406c-21.589844 13.847656-46.433594 14.167969-68.25.824219v10.867187c0 3.589844-1.179688 6.976563-3.203125 9.777344-1.570313 2.171875-3.632813 3.996094-6.128907 5.226563-.207031.101562-11.796874 5.816406-11.589843 5.714843l-8.878907 4.378907c-1.933593.683593-3.878906 1.34375-5.828124 1.980468-13.691407 4.484375-20.304688 5.601563-56.5 14.867188-.402344.101562-.792969.234375-1.1875.351562zm0 0" fill="#30a9e5"/><path d="m163.246094 381.085938 92.136718-92.140626c-9.363281-2.335937-14.128906-3.597656-22.402343-6.238281-1.59375-.507812-3.191407-.980469-4.773438-1.515625l-9.914062-4.890625c-.347657-.167969-8.199219-4.039062-7.992188-3.9375l-3.597656-1.777343c-2.496094-1.230469-4.5625-3.054688-6.132813-5.226563-2.019531-2.800781-3.199218-6.191406-3.199218-9.777344v-11.691406c-21.59375 13.847656-46.4375 14.167969-68.25.824219v10.867187c0 3.589844-1.183594 6.976563-3.207032 9.777344-1.566406 2.171875-3.628906 3.996094-6.125 5.226563-.210937.101562-11.800781 5.816406-11.59375 5.714843l-8.875 4.378907c-1.933593.683593-3.878906 1.34375-5.828124 1.980468-7.5625 2.476563-12.972657 3.929688-22.382813 6.289063zm0 0" fill="#1b87c9"/><path d="m224.835938 279.527344-6.542969-3.226563c-.34375-.167969-8.199219-4.039062-7.988281-3.9375l-3.601563-1.777343c-1.167969-.574219-2.234375-1.292969-3.207031-2.105469l-33.957032 34.59375 15.539063 15.902343c8.941406-3.15625 17.335937-8.300781 24.492187-15.453124 7.015626-7.019532 12.097657-15.238282 15.265626-23.996094zm0 0" fill="#e8e6e6"/><path d="m119.789062 270.589844c-.207031.101562-11.796874 5.816406-11.589843 5.710937l-6.542969 3.226563c3.167969 8.757812 8.25 16.976562 15.265625 23.996094 7.175781 7.171874 15.601563 12.335937 24.578125 15.484374l15.585938-15.933593-34.003907-34.65625c-.996093.839843-2.09375 1.578125-3.292969 2.171875zm0 0" fill="#e8e6e6"/><path d="m185.078125 318.976562-15.480469-15.835937-.238281.085937h-11.867187l-.417969-.136718-15.578125 15.917968c14.082031 4.941407 29.507812 4.929688 43.582031-.03125zm0 0" fill="#e04e36"/><path d="m169.625 303.128906-.085938-.054687 33.953126-34.59375c-1.101563-.921875-2.085938-1.964844-2.917969-3.121094-2.023438-2.800781-3.203125-6.1875-3.203125-9.773437v-11.695313c-21.589844 13.851563-46.433594 14.167969-68.25.828125v10.867188c0 3.585937-1.179688 6.972656-3.203125 9.773437-.816407 1.125-1.765625 2.15625-2.839844 3.0625l34.007813 34.65625-.011719.011719.417969.136718h11.871093zm0 0" fill="#fcb275"/><g fill="#231f20"><path d="m163.246094 217.191406c-8.792969 0-16.988282-4.355468-21.914063-11.648437-1.542969-2.289063-.941406-5.398438 1.347657-6.945313 2.292968-1.542968 5.394531-.941406 6.945312 1.347656 3.058594 4.535157 8.152344 7.246094 13.621094 7.246094s10.5625-2.710937 13.625-7.246094c1.542968-2.289062 4.648437-2.890624 6.945312-1.347656 2.285156 1.546875 2.890625 4.65625 1.34375 6.945313-4.929687 7.292969-13.121094 11.648437-21.914062 11.648437zm0 0"/><path d="m263.628906 509.222656c-2.761718 0-5-2.238281-5-5v-109.542968c0-2.765626 2.238282-5 5-5 2.761719 0 5 2.234374 5 5v109.542968c0 2.761719-2.238281 5-5 5zm0 0"/><path d="m62.859375 509.222656c-2.761719 0-5-2.238281-5-5v-109.542968c0-2.765626 2.238281-5 5-5 2.765625 0 5 2.234374 5 5v109.542968c0 2.761719-2.238281 5-5 5zm0 0"/><path d="m137.863281 168.089844c-3.3125 0-6-2.6875-6-6v-1.09375c0-3.3125 2.6875-6 6-6s6 2.6875 6 6v1.09375c0 3.3125-2.6875 6-6 6zm0 0"/><path d="m190.296875 168.929688c-3.316406 0-6-2.6875-6-6v-1.09375c0-3.316407 2.683594-6 6-6 3.3125 0 6 2.683593 6 6v1.09375c0 3.3125-2.6875 6-6 6zm0 0"/><path d="m200.4375 148.761719c-.792969 0-1.597656-.191407-2.347656-.589844-1.253906-.667969-4.128906-1.34375-7.738282-1.34375-3.605468 0-6.480468.675781-7.734374 1.34375-2.433594 1.300781-5.460938.375-6.761719-2.0625-1.296875-2.4375-.375-5.464844 2.0625-6.761719 3-1.601562 7.535156-2.519531 12.433593-2.519531 4.90625 0 9.441407.917969 12.441407 2.519531 2.4375 1.292969 3.359375 4.324219 2.058593 6.761719-.898437 1.6875-2.628906 2.648437-4.414062 2.652344zm0 0"/><path d="m146.21875 148.761719c-.792969 0-1.597656-.191407-2.34375-.589844-1.253906-.667969-4.132812-1.34375-7.738281-1.34375s-6.484375.675781-7.738281 1.34375c-2.429688 1.300781-5.464844.375-6.761719-2.0625s-.375-5.464844 2.0625-6.761719c3-1.601562 7.535156-2.519531 12.4375-2.519531 4.902343 0 9.4375.917969 12.4375 2.519531 2.4375 1.292969 3.359375 4.324219 2.0625 6.761719-.898438 1.6875-2.628907 2.648437-4.417969 2.652344zm0 0"/><path d="m282.070312 106.433594c-2.761718 0-5-2.238282-5-5v-46.4375h-115.675781c-2.761719 0-5-2.238282-5-5 0-2.761719 2.238281-5 5-5h120.675781c2.761719 0 5 2.238281 5 5v51.4375c0 2.761718-2.238281 5-5 5zm0 0"/><path d="m163.246094 327.707031c-18.835938 0-36.542969-7.332031-49.859375-20.652343-7.371094-7.367188-12.898438-16.058594-16.433594-25.828126-.867187-2.394531.207031-5.058593 2.488281-6.183593l6.542969-3.226563.039063.078125c.660156-.421875 1.296874-.734375 1.742187-.957031l9.820313-4.839844c1.675781-.824218 3.117187-2.0625 4.277343-3.667968 1.476563-2.042969 2.257813-4.410157 2.257813-6.847657v-10.867187c0-1.808594.972656-3.476563 2.550781-4.363282 1.578125-.878906 3.511719-.847656 5.054687.097657 20.089844 12.285156 43.03125 12.003906 62.941407-.769531 1.542969-.984376 3.492187-1.054688 5.097656-.175782 1.605469.875 2.605469 2.554688 2.605469 4.382813v11.691406c0 2.441406.777344 4.808594 2.253906 6.851563 1.160156 1.605468 2.601562 2.839843 4.289062 3.671874l3.597657 1.773438-.054688.121094c.007813.007812.015625.007812.023438.011718l.058593-.121093c.238282.125.46875.257812.679688.410156.996094.414063 2.046875.9375 3.164062 1.484375l10.664063 5.261719c2.285156 1.125 3.359375 3.792969 2.492187 6.183593-3.539062 9.769532-9.0625 18.460938-16.4375 25.828126-13.3125 13.320312-31.023437 20.652343-49.855468 20.652343zm-55.21875-45.746093c2.996094 6.710937 7.167968 12.757812 12.433594 18.023437 11.429687 11.429687 26.621093 17.722656 42.785156 17.722656 16.164062 0 31.359375-6.292969 42.789062-17.722656 5.265625-5.265625 9.433594-11.308594 12.433594-18.023437l-2.382812-1.175782c-.332032-.164062-7.449219-3.671875-7.953126-3.917968-.011718-.007813-.027343-.015626-.039062-.019532l-3.601562-1.777344c-3.117188-1.539062-5.875-3.882812-7.972657-6.785156-2.710937-3.757812-4.144531-8.152344-4.144531-12.707031v-3.132813c-18.800781 9.21875-39.324219 9.441407-58.25.621094v2.511719c0 4.554687-1.4375 8.953125-4.152344 12.707031-2.09375 2.898438-4.851562 5.246094-7.96875 6.785156-.242187.117188-10.941406 5.394532-11.550781 5.695313-.015625.007813-.027344.015625-.039063.019531zm0 0"/><path d="m238.691406 189.398438c-1.171875 0-2.367187-.082032-3.871094-.261719-1.34375-.160157-2.5625-.855469-3.382812-1.925781-.816406-1.074219-1.171875-2.433594-.972656-3.769532.523437-3.542968.789062-7.085937.789062-10.542968v-48.089844c0-2.601563 1.996094-4.765625 4.585938-4.980469 9.667968-.8125 19.332031 2.511719 26.484375 9.097656 7.140625 6.570313 11.234375 15.902344 11.234375 25.609375 0 19.222656-15.640625 34.863282-34.867188 34.863282zm2.5625-59.554688v43.054688c0 2.109374-.085937 4.246093-.257812 6.394531 12.632812-1.167969 22.5625-11.828125 22.5625-24.761719 0-7.015625-2.84375-13.496094-8.007813-18.25-3.964843-3.648438-9.007812-5.890625-14.296875-6.4375zm0 0"/><path d="m86.449219 189.398438c-19.222657 0-34.867188-15.640626-34.867188-34.867188s15.640625-34.867188 34.867188-34.867188c.960937 0 1.910156.042969 2.851562.125 2.59375.210938 4.589844 2.378907 4.589844 4.980469v48.125c0 3.457031.261719 7.003907.785156 10.546875.199219 1.335938-.15625 2.695313-.972656 3.765625-.820313 1.074219-2.039063 1.769531-3.378906 1.929688-1.507813.179687-2.703125.261719-3.875.261719zm-2.5625-59.601563c-12.511719 1.289063-22.304688 11.890625-22.304688 24.734375 0 12.933594 9.925781 23.59375 22.5625 24.761719-.171875-2.148438-.257812-4.285157-.257812-6.394531zm0 0"/><path d="m162.382812 100.320312c-1.113281 0-2.21875-.179687-3.277343-.542968l-116.828125-40.074219c-4.140625-1.417969-6.816406-5.167969-6.816406-9.542969s2.675781-8.125 6.816406-9.542968l116.828125-40.074219c2.117187-.722657 4.441406-.726563 6.550781 0l116.832031 40.074219h-.003906c4.144531 1.417968 6.820313 5.167968 6.820313 9.542968s-2.675782 8.125-6.820313 9.542969l-116.828125 40.074219c-1.054688.363281-2.164062.542968-3.273438.542968zm.027344-90.316406-116.886718 40.070313 116.828124 40.242187 116.890626-40.074218v-.167969zm0 0"/><path d="m162.570312 259.507812c-45.035156 0-78.683593-45.726562-78.683593-86.609374v-59.59375c0-2.761719 2.238281-5 5-5h147.367187c2.761719 0 5 2.238281 5 5v59.59375c0 40.882812-33.652344 86.609374-78.683594 86.609374zm-68.683593-141.203124v54.59375c0 43.84375 36.261719 76.609374 68.683593 76.609374 32.421876 0 68.683594-32.765624 68.683594-76.609374v-54.59375zm0 0"/><path d="m238.3125 118.3125-19.21875-.007812c-22.34375-.007813-61.882812-.023438-132.25-.003907-.003906 0-.003906 0-.007812 0-4.289063 0-8.324219-1.671875-11.359376-4.703125-3.039062-3.039062-4.707031-7.070312-4.707031-11.367187v-36.324219c0-1.617188.78125-3.128906 2.09375-4.066406 1.3125-.941406 3.003907-1.183594 4.53125-.664063l84.960938 29.140625 1.679687 4.730469-1.625-4.730469 85.339844-29.269531c1.527344-.519531 3.214844-.277344 4.527344.660156 1.316406.9375 2.097656 2.453125 2.097656 4.070313v36.464844c-.003906 8.863281-7.207031 16.070312-16.0625 16.070312zm-90.914062-10.019531c34.25 0 56.792968.007812 71.699218.011719l19.210938.007812c3.34375 0 6.0625-2.71875 6.0625-6.066406v-29.464844l-78.714844 27c-.003906 0-.003906 0-.007812 0-2.105469.714844-4.425782.71875-6.53125 0l-78.347657-26.875v29.328125c0 1.621094.628907 3.144531 1.777344 4.289063 1.144531 1.148437 2.671875 1.777343 4.292969 1.777343 23.433594-.007812 43.460937-.007812 60.558594-.007812zm0 0"/><path d="m292.242188 129.433594h-20.34375c-1.984376 0-3.84375-.882813-5.101563-2.417969-1.257813-1.539063-1.753906-3.535156-1.363281-5.480469l3.722656-18.613281c.660156-3.324219 3.609375-5.746094 7.007812-5.746094h11.8125c3.394532 0 6.339844 2.417969 7.007813 5.746094l3.722656 18.625c.386719 1.945313-.109375 3.9375-1.367187 5.472656-1.253906 1.53125-3.113282 2.414063-5.097656 2.414063zm-17-5.941406-.003907.015624c.003907-.003906.003907-.011718.003907-.015624zm.8125-4.058594h12.035156l-2.449219-12.257813h-7.136719zm11.921874-12.257813h.019532zm-2.796874-2.292969v.007813zm-6.214844-.007812v.007812c0-.003906 0-.003906 0-.007812zm0 0"/><path d="m71.429688 133.746094c-.953126 0-1.902344-.269532-2.734376-.8125-1.585937-1.035156-2.449218-2.875-2.230468-4.757813.960937-8.359375 2.59375-16.628906 4.84375-24.582031.617187-2.179688 2.652344-3.601562 4.878906-3.640625 2.265625.03125 4.222656 1.578125 4.78125 3.773437.679688 2.695313 3.09375 4.574219 5.871094 4.574219h.011718l2.046876.003907c2.757812.007812 4.992187 2.242187 4.992187 5v11.46875c0 1.398437-.585937 2.730468-1.617187 3.675781-1.027344.949219-2.382813 1.429687-3.796876 1.304687-4.933593-.402344-10.121093.742188-14.523437 3.3125-.78125.457032-1.652344.679688-2.523437.679688zm7.121093-17.742188c-.332031 1.59375-.640625 3.199219-.921875 4.808594 2.046875-.539062 4.140625-.890625 6.257813-1.046875v-1.734375c-1.910157-.355469-3.710938-1.054688-5.335938-2.027344zm0 0"/><path d="m253.316406 133.554688c-.84375 0-1.691406-.210938-2.457031-.640626-4.355469-2.453124-9.25-3.535156-14.195313-3.121093-1.402343.121093-2.769531-.359375-3.796874-1.304688-1.03125-.945312-1.617188-2.28125-1.617188-3.679687v-11.496094c0-2.761719 2.238281-5 5-5h2.058594c2.644531 0 4.960937-1.691406 5.769531-4.207031.671875-2.101563 2.578125-3.457031 4.859375-3.476563 2.207031.046875 4.128906 1.535156 4.71875 3.664063 2.128906 7.671875 3.6875 15.640625 4.625 23.6875.214844 1.867187-.628906 3.699219-2.199219 4.738281-.832031.558594-1.796875.835938-2.765625.835938zm-12.0625-13.753907c1.984375.144531 3.949219.460938 5.875.945313-.265625-1.515625-.554687-3.027344-.867187-4.527344-1.535157.875-3.222657 1.496094-5.007813 1.824219zm0 0"/><path d="m308.09375 511.996094h-289.699219c-4.898437 0-9.636719-2.042969-13-5.597656-3.367187-3.558594-5.140625-8.40625-4.871093-13.292969l9.421874-169.132813c.839844-15.039062 11.214844-27.617187 25.820313-31.289062 11.90625-3.046875 20.625-5.21875 27.445313-6.914063 13.941406-3.46875 19.707031-4.902343 28.722656-7.855469 1.816406-.597656 3.632812-1.210937 5.441406-1.847656l8.613281-4.246094.03125.0625c.628907-.390624 1.253907-.699218 1.746094-.941406l9.820313-4.839844c1.675781-.828124 3.121093-2.0625 4.28125-3.667968 1.472656-2.042969 2.253906-4.410156 2.253906-6.847656v-10.871094c0-1.808594.976562-3.476563 2.554687-4.359375 1.578125-.882813 3.507813-.847657 5.054688.09375 20.085937 12.285156 43.027343 12.007812 62.941406-.765625 1.539063-.984375 3.492187-1.058594 5.097656-.179688 1.605469.875 2.601563 2.558594 2.601563 4.386719v11.691406c0 2.4375.78125 4.804688 2.257812 6.847657 1.160156 1.609374 2.601563 2.84375 4.285156 3.671874l3.601563 1.777344-.058594.121094c.007813.003906.015625.007812.027344.011719l.058594-.121094c.238281.121094.464843.257813.679687.410156.992188.414063 2.046875.933594 3.160156 1.484375l13.738282 6.773438c.871094.292968 1.746094.5625 2.625.832031l1.757812.550781c9.40625 3.003906 14.148438 4.183594 26.820313 7.332032 6.867187 1.703124 16.015625 3.972656 29.421875 7.410156 14.585937 3.671875 24.960937 16.246094 25.800781 31.285156l9.421875 169.132812c.273438 4.886719-1.503906 9.734376-4.871094 13.292969-3.363281 3.558594-8.105468 5.601563-13.003906 5.601563zm-197.652344-231.222656c-.011718.003906-.019531.007812-.03125.015624l-8.878906 4.375c-.175781.085938-.355469.160157-.542969.226563-1.96875.703125-3.953125 1.375-5.941406 2.023437-9.363281 3.066407-15.648437 4.628907-29.421875 8.054688-6.800781 1.695312-15.5 3.859375-27.394531 6.902344-10.359375 2.605468-17.707031 11.507812-18.300781 22.15625l-9.417969 169.128906c-.121094 2.191406.640625 4.277344 2.144531 5.867188 1.507812 1.59375 3.542969 2.46875 5.738281 2.46875h289.699219c2.195312 0 4.230469-.875 5.738281-2.46875 1.507813-1.59375 2.269531-3.675782 2.148438-5.867188l-9.421875-169.128906c-.59375-10.648438-7.9375-19.550782-18.28125-22.148438-13.390625-3.433594-22.519532-5.703125-29.367188-7.402344-12.90625-3.203124-17.734375-4.402343-27.453125-7.507812l-1.683593-.527344c-1.058594-.328125-2.121094-.660156-3.179688-1.015625-.207031-.070312-.40625-.15625-.601562-.25l-9.914063-4.890625c-.332031-.164062-7.433594-3.664062-7.949219-3.917968-.015625-.007813-.03125-.015626-.042968-.019532l-3.601563-1.777344c-3.117187-1.535156-5.875-3.882812-7.96875-6.785156-2.714844-3.753906-4.148437-8.148437-4.148437-12.707031v-3.132813c-18.800782 9.21875-39.324219 9.441407-58.25.621094v2.511719c0 4.554687-1.4375 8.953125-4.152344 12.707031-2.09375 2.898438-4.851563 5.246094-7.96875 6.785156-.238282.121094-11.015625 5.4375-11.554688 5.703126zm0 0"/><path d="m202.8125 511.996094h-79.132812c-2.761719 0-5-2.238282-5-5v-121.238282c0-2.023437 1.21875-3.847656 3.085937-4.621093 1.875-.773438 4.023437-.34375 5.449219 1.082031l36.03125 36.035156 36.03125-36.035156c1.429687-1.425781 3.574218-1.855469 5.449218-1.082031 1.867188.773437 3.085938 2.597656 3.085938 4.621093v121.238282c0 2.761718-2.238281 5-5 5zm-74.132812-10h69.132812v-104.171875l-31.035156 31.035156c-1.953125 1.953125-5.117188 1.953125-7.066406 0l-31.035157-31.035156v104.171875zm0 0"/><path d="m177.175781 511.996094h-27.863281c-2.761719 0-5-2.238282-5-5v-95.605469c0-2.023437 1.21875-3.847656 3.085938-4.621094 1.875-.773437 4.023437-.34375 5.449218 1.085938l10.398438 10.394531 10.394531-10.394531c1.429687-1.429688 3.578125-1.859375 5.449219-1.085938 1.871094.773438 3.085937 2.597657 3.085937 4.621094v95.605469c0 2.761718-2.238281 5-5 5zm-22.863281-10h17.863281v-78.535156l-5.394531 5.394531c-1.953125 1.953125-5.117188 1.953125-7.070312 0l-5.394532-5.394531v78.535156zm0 0"/><path d="m163.246094 430.320312c-1.28125 0-2.558594-.484374-3.535156-1.460937l-127.445313-127.445313c-1.246094-1.246093-1.746094-3.054687-1.308594-4.765624.429688-1.707032 1.730469-3.058594 3.421875-3.5625l.3125-.097657c.355469-.109375.710938-.214843 1.078125-.308593 11.902344-3.046876 20.625-5.214844 27.441407-6.910157 13.941406-3.46875 19.707031-4.90625 28.722656-7.859375 1.820312-.59375 3.632812-1.207031 5.441406-1.847656l8.613281-4.246094.03125.066406c.628907-.390624 1.253907-.699218 1.746094-.945312l9.820313-4.839844c1.675781-.824218 3.121093-2.0625 4.28125-3.667968 1.472656-2.042969 2.253906-4.410157 2.253906-6.847657v-10.867187c0-1.808594.976562-3.476563 2.554687-4.363282 1.578125-.878906 3.507813-.847656 5.054688.097657 20.085937 12.285156 43.027343 12.003906 62.941406-.769531 1.539063-.984376 3.492187-1.054688 5.097656-.175782 1.605469.875 2.601563 2.554688 2.601563 4.382813v11.691406c0 2.441406.78125 4.808594 2.253906 6.851563 1.160156 1.605468 2.605469 2.839843 4.289062 3.671874l3.601563 1.773438-.058594.121094c.007813.007812.015625.007812.027344.011718l.058594-.121093c.238281.125.464843.257812.679687.410156.992188.414063 2.046875.9375 3.160156 1.484375l13.738282 6.773438c.871094.292968 1.746094.5625 2.625.835937l1.757812.550781c9.410156 3.003906 14.152344 4.179688 26.832032 7.332032 6.867187 1.703124 16.011718 3.972656 29.410156 7.410156.339844.085937.6875.191406 1.039062.296875l.324219.097656c1.691406.5 2.996094 1.855469 3.429687 3.5625.4375 1.710937-.0625 3.523437-1.308593 4.769531l-127.445313 127.445313c-.980468.980469-2.261718 1.464843-3.539062 1.464843zm-117.734375-129.800781 117.734375 117.734375 117.734375-117.738281c-9.527344-2.421875-16.535157-4.164063-22.058594-5.535156-12.910156-3.207031-17.742187-4.40625-27.460937-7.511719l-1.683594-.527344c-1.058594-.328125-2.121094-.660156-3.179688-1.015625-.207031-.070312-.40625-.15625-.601562-.25l-9.914063-4.890625c-.332031-.164062-7.445312-3.671875-7.949219-3.917968-.015624-.007813-.03125-.015626-.042968-.019532l-3.601563-1.777344c-3.117187-1.539062-5.875-3.882812-7.972656-6.785156-2.710937-3.757812-4.144531-8.152344-4.144531-12.707031v-3.132813c-18.800782 9.21875-39.324219 9.441407-58.25.621094v2.511719c0 4.554687-1.4375 8.953125-4.152344 12.707031-2.09375 2.898438-4.851562 5.246094-7.96875 6.785156-.242188.117188-10.9375 5.390626-11.550781 5.695313-.011719.007813-.027344.015625-.039063.019531l-8.878906 4.375c-.175781.085938-.355469.164063-.542969.230469-1.96875.699219-3.953125 1.371094-5.941406 2.023437-9.363281 3.0625-15.648437 4.628907-29.421875 8.054688-5.332031 1.328125-11.828125 2.945312-20.113281 5.050781zm0 0"/><path d="m163.246094 386.089844c-1.328125 0-2.597656-.53125-3.535156-1.464844l-92.136719-92.136719c-1.273438-1.273437-1.765625-3.132812-1.285157-4.867187.476563-1.738282 1.855469-3.082032 3.601563-3.519532 9.277344-2.324218 14.660156-3.773437 22.042969-6.191406 1.820312-.59375 3.632812-1.207031 5.441406-1.847656l8.613281-4.246094.039063.078125c.65625-.421875 1.292968-.734375 1.738281-.957031l9.820313-4.839844c1.675781-.824218 3.121093-2.0625 4.28125-3.667968 1.472656-2.042969 2.253906-4.410157 2.253906-6.847657v-10.867187c0-1.808594.976562-3.476563 2.554687-4.363282 1.578125-.878906 3.507813-.847656 5.054688.097657 20.085937 12.285156 43.027343 12.003906 62.941406-.769531 1.539063-.984376 3.492187-1.054688 5.097656-.175782 1.605469.875 2.601563 2.554688 2.601563 4.382813v11.691406c0 2.441406.78125 4.808594 2.253906 6.851563 1.160156 1.605468 2.605469 2.839843 4.289062 3.671874l3.601563 1.773438-.058594.121094c.007813.007812.015625.007812.027344.011718l.058594-.121093c.238281.125.464843.257812.679687.410156.992188.414063 2.046875.9375 3.160156 1.484375l13.738282 6.773438c.871094.292968 1.746094.5625 2.625.835937l1.757812.550781c8.296875 2.648438 13.105469 3.910156 22.09375 6.152344 1.75.433594 3.125 1.777344 3.609375 3.515625.480469 1.734375-.007812 3.597656-1.285156 4.871094l-92.136719 92.140625c-.941406.9375-2.214844 1.46875-3.539062 1.46875zm-82.402344-94.472656 82.402344 82.402343 82.390625-82.394531c-4.628907-1.222656-8.644531-2.386719-14.179688-4.152344l-1.679687-.527344c-1.0625-.332031-2.125-.660156-3.179688-1.019531-.207031-.070312-.410156-.152343-.605468-.25l-9.914063-4.886719c-.332031-.164062-7.457031-3.679687-7.949219-3.921874-.015625-.007813-.03125-.011719-.042968-.019532l-3.597657-1.777344c-3.117187-1.535156-5.878906-3.878906-7.972656-6.78125-2.714844-3.761718-4.148437-8.152343-4.148437-12.707031v-3.136719c-18.796876 9.21875-39.320313 9.441407-58.25.625v2.511719c0 4.554688-1.4375 8.949219-4.148438 12.707031-2.09375 2.898438-4.851562 5.246094-7.972656 6.78125-.238282.121094-10.941406 5.394532-11.550782 5.699219-.011718.003907-.023437.011719-.039062.019531l-8.878906 4.375c-.175782.085938-.355469.160157-.539063.226563-1.972656.703125-3.953125 1.375-5.945312 2.023437-5.074219 1.664063-9.21875 2.878907-14.199219 4.203126zm0 0"/><path d="m185.078125 323.976562c-1.324219 0-2.621094-.527343-3.578125-1.507812l-15.539062-15.898438c-1.902344-1.945312-1.898438-5.054687.007812-6.996093l33.957031-34.597657c1.824219-1.859374 4.769531-2.003906 6.773438-.335937.710937.597656 1.457031 1.085937 2.21875 1.464844l3.59375 1.773437-.054688.121094c.007813.003906.015625.007812.023438.011719l.058593-.121094c.238282.121094.464844.257813.679688.410156.996094.414063 2.046875.933594 3.164062 1.484375l10.664063 5.257813c2.285156 1.128906 3.359375 3.792969 2.492187 6.1875-3.539062 9.765625-9.0625 18.457031-16.4375 25.824219-7.519531 7.519531-16.386718 13.121093-26.359374 16.636718-.546876.191406-1.105469.285156-1.664063.285156zm-8.539063-20.890624 9.820313 10.050781c7.363281-3.035157 13.96875-7.449219 19.675781-13.152344 5.261719-5.265625 9.433594-11.308594 12.429688-18.023437l-2.382813-1.175782c-.328125-.164062-7.4375-3.667968-7.949219-3.917968-.011718-.007813-.027343-.015626-.042968-.019532l-3.597656-1.777344c-.105469-.050781-.207032-.105468-.308594-.15625zm0 0"/><path d="m141.496094 324.007812c-.554688 0-1.113282-.09375-1.65625-.28125-10.007813-3.515624-18.90625-9.125-26.453125-16.671874-7.371094-7.367188-12.898438-16.058594-16.433594-25.828126-.867187-2.390624.207031-5.054687 2.488281-6.183593l6.542969-3.226563.039063.078125c.660156-.421875 1.296874-.734375 1.742187-.957031l9.8125-4.835938c.789063-.386718 1.550781-.894531 2.273437-1.503906 2.003907-1.691406 4.964844-1.550781 6.796876.316406l34.007812 34.65625c1.90625 1.945313 1.90625 5.054688.003906 7l-15.589844 15.933594c-.953124.976563-2.25 1.503906-3.574218 1.503906zm-33.46875-42.046874c2.996094 6.710937 7.167968 12.757812 12.433594 18.023437 5.726562 5.730469 12.359374 10.15625 19.753906 13.1875l9.875-10.09375-27.683594-28.210937c-.136719.070312-.269531.140624-.40625.207031-.003906 0-.003906.003906-.007812.003906-.234376.117187-11.101563 5.472656-11.5625 5.703125-.007813.003906-.015626.003906-.019532.007812zm11.761718-11.371094h.019532zm0 0"/><path d="m163.242188 327.699219c-7.925782 0-15.855469-1.324219-23.402344-3.972657-1.613282-.566406-2.824219-1.917968-3.210938-3.582031-.386718-1.664062.101563-3.410156 1.292969-4.628906l15.578125-15.921875c1.242188-1.269531 3.050781-1.773438 4.746094-1.367188h10.429687c1.621094-.3125 3.316407.210938 4.5 1.421876l15.476563 15.835937c1.195312 1.21875 1.683594 2.964844 1.292968 4.628906-.386718 1.660157-1.597656 3.011719-3.207031 3.578125-7.574219 2.671875-15.535156 4.007813-23.496093 4.007813zm-12.253907-11.242188c8.109375 1.667969 16.503907 1.65625 24.613281-.023437l-8.023437-8.207032h-8.535156zm0 0"/><path d="m169.363281 308.226562h-11.871093c-.539063 0-1.078126-.089843-1.589844-.261718l-.417969-.136719c-.90625-.300781-1.683594-.851563-2.265625-1.554687l-33.710938-34.351563c-.972656-.992187-1.488281-2.347656-1.425781-3.734375.066407-1.390625.707031-2.691406 1.769531-3.585938.757813-.644531 1.4375-1.375 2.011719-2.171874 1.476563-2.042969 2.257813-4.40625 2.257813-6.84375v-10.871094c0-1.808594.972656-3.476563 2.550781-4.359375 1.578125-.882813 3.511719-.847657 5.054687.09375 20.089844 12.285156 43.03125 12.007812 62.941407-.765625 1.542969-.984375 3.492187-1.058594 5.097656-.179688 1.605469.875 2.605469 2.558594 2.605469 4.386719v11.691406c0 2.4375.777344 4.804688 2.253906 6.847657.578125.800781 1.277344 1.542968 2.070312 2.210937 1.074219.894531 1.722657 2.199219 1.792969 3.589844.066407 1.394531-.449219 2.753906-1.425781 3.75l-33.363281 33.992187c-.5625.828125-1.371094 1.488282-2.351563 1.847656l-.257812.09375c-.550782.207032-1.136719.3125-1.726563.3125zm-10.03125-10h7.960938l29.289062-29.847656c-.019531-.03125-.042969-.0625-.066406-.09375-2.710937-3.757812-4.144531-8.148437-4.144531-12.703125v-3.136719c-18.800782 9.21875-39.324219 9.441407-58.25.625v2.511719c0 4.554688-1.4375 8.949219-4.152344 12.707031 0 0-.003906.003907-.003906.003907zm0 0"/></g></svg>