<svg height="512pt" viewBox="-92 0 512 512" width="512pt" xmlns="http://www.w3.org/2000/svg"><path d="m323.710938 493.246094-9.515626-170.867188c-.722656-12.90625-9.746093-23.839844-22.28125-26.996094l-24.28125-6.109374c1.035157 4.523437-.371093 9.445312-3.988281 12.730468-15.355469 13.929688-50.355469 59.839844-99.277343 59.839844-48.925782 0-83.925782-45.910156-99.28125-59.839844-3.617188-3.285156-5.023438-8.207031-3.988282-12.730468l-24.285156 6.109374c-12.53125 3.15625-21.558594 14.09375-22.273438 26.996094l-9.519531 170.867188c-.417969 7.46875 5.527344 13.75 13.007813 13.75h292.675781c7.476563.003906 13.425781-6.28125 13.007813-13.75zm0 0" fill="#e8e6e6"/><path d="m164.367188 361.84375c-4.136719 0-8.164063-.351562-12.097657-.960938v51.359376c0 6.683593 5.414063 12.097656 12.097657 12.097656 6.679687 0 12.09375-5.414063 12.09375-12.097656v-51.359376c-3.929688.605469-7.960938.960938-12.09375.960938zm0 0" fill="#e8e6e6"/><path d="m248.730469 249.316406c-1.742188-5.851562-1.207031-12.183594 1.5625-17.621094 11.90625-23.382812 18.90625-51.835937 18.90625-82.546874.003906-79.609376-46.9375-144.148438-104.832031-144.148438-57.898438 0-104.835938 64.539062-104.835938 144.148438 0 30.710937 7 59.160156 18.90625 82.542968 2.769531 5.4375 3.300781 11.773438 1.5625 17.621094-3.242188 10.902344-8.464844 23.597656-16.851562 35.34375-3.851563 5.398438-2.976563 12.886719 1.9375 17.339844 15.355468 13.933594 50.355468 59.84375 99.277343 59.84375 48.925781 0 83.925781-45.910156 99.277344-59.84375 4.914063-4.453125 5.789063-11.941406 1.9375-17.339844-8.382813-11.746094-13.605469-24.4375-16.847656-35.339844zm0 0" fill="#fc5d4c"/><path d="m238.945312 120.792969v54.230469c0 41.019531-33.5625 82.601562-74.578124 82.601562-41.019532 0-74.582032-41.585938-74.582032-82.601562v-54.230469c40.539063-38.421875 107.070313-36.71875 149.160156 0zm0 0" fill="#fcb275"/><path d="m238.949219 120.792969-31.445313-45.597657c-21.902344-26.636718-62.882812-25.992187-83.933594 1.320313l-33.785156 44.277344c40.539063-38.421875 107.070313-36.71875 149.164063 0zm0 0" fill="#e8e6e6"/><g fill="#231f20"><path d="m164.492188 219.570312c-6.253907 0-11.949219-2.210937-15.632813-6.066406-1.910156-2-1.835937-5.164062.160156-7.070312 1.996094-1.910156 5.164063-1.835938 7.070313.160156 1.75 1.835938 4.972656 2.976562 8.402344 2.976562 3.429687 0 6.652343-1.140624 8.402343-2.972656 1.910157-2 5.070313-2.074218 7.070313-.164062 2 1.90625 2.070312 5.070312.164062 7.070312-3.683594 3.855469-9.382812 6.066406-15.636718 6.066406zm0 0"/><path d="m201.707031 147.699219c-.792969 0-1.597656-.1875-2.34375-.585938-1.265625-.667969-4.160156-1.347656-7.78125-1.347656-3.621093 0-6.515625.679687-7.78125 1.347656-2.4375 1.296875-5.464843.371094-6.761719-2.066406-1.296874-2.4375-.371093-5.464844 2.066407-6.761719 3.011719-1.601562 7.558593-2.519531 12.472656-2.519531 4.917969 0 9.464844.917969 12.476563 2.519531 2.4375 1.296875 3.363281 4.324219 2.066406 6.761719-.894532 1.691406-2.628906 2.652344-4.414063 2.652344zm0 0"/><path d="m147.269531 147.699219c-.789062 0-1.59375-.1875-2.34375-.585938-1.261719-.667969-4.15625-1.347656-7.777343-1.347656-3.621094 0-6.515626.679687-7.78125 1.347656-2.4375 1.296875-5.464844.371094-6.761719-2.066406s-.371094-5.464844 2.066406-6.761719c3.011719-1.601562 7.558594-2.519531 12.472656-2.519531 4.917969 0 9.464844.917969 12.476563 2.519531 2.4375 1.296875 3.363281 4.324219 2.0625 6.761719-.890625 1.691406-2.621094 2.652344-4.414063 2.652344zm0 0"/><path d="m137.957031 167.28125c-3.316406 0-6-2.683594-6-6v-1.105469c0-3.316406 2.683594-6 6-6 3.3125 0 6 2.683594 6 6v1.105469c0 3.3125-2.6875 6-6 6zm0 0"/><path d="m191.03125 168.128906c-3.316406 0-6-2.683594-6-6v-1.105468c0-3.316407 2.683594-6 6-6 3.3125 0 6 2.683593 6 6v1.105468c0 3.316406-2.691406 6-6 6zm0 0"/><path d="m265.78125 509.199219c-2.761719 0-5-2.238281-5-5v-110.667969c0-2.761719 2.238281-5 5-5s5 2.238281 5 5v110.667969c0 2.761719-2.238281 5-5 5zm0 0"/><path d="m62.949219 509.199219c-2.761719 0-5-2.238281-5-5v-110.667969c0-2.761719 2.238281-5 5-5s5 2.238281 5 5v110.667969c0 2.761719-2.238281 5-5 5zm0 0"/><path d="m167.917969 314.226562c-11.933594 0-23.710938-4.3125-35.160157-12.898437-2.207031-1.65625-2.660156-4.792969-1-7 1.65625-2.207031 4.792969-2.65625 7-1 13.246094 9.933594 26.246094 13.042969 39.753907 9.496094 39.167969-10.277344 67.300781-73.398438 67.582031-74.035157 1.113281-2.527343 4.054688-3.679687 6.589844-2.570312 2.527344 1.109375 3.679687 4.058594 2.570312 6.585938-1.21875 2.78125-30.34375 68.167968-74.183594 79.6875-4.398437 1.15625-8.785156 1.734374-13.152343 1.734374zm0 0"/><path d="m310.703125 512h-292.675781c-4.933594 0-9.707032-2.054688-13.097656-5.640625-3.390626-3.582031-5.175782-8.464844-4.9023442-13.390625l9.5195312-170.867188c.84375-15.171874 11.3125-27.859374 26.046875-31.566406l24.285156-6.113281c1.6875-.417969 3.472656.058594 4.71875 1.277344 1.242188 1.214843 1.765625 2.992187 1.375 4.6875-.664062 2.894531.285156 5.921875 2.476563 7.910156 2.617187 2.378906 5.695312 5.550781 9.261719 9.230469 17.878906 18.445312 47.808593 49.316406 86.65625 49.316406 38.84375 0 68.773437-30.875 86.652343-49.316406 3.566407-3.679688 6.648438-6.855469 9.265625-9.230469 2.1875-1.984375 3.136719-5.015625 2.472656-7.90625-.390624-1.695313.128907-3.472656 1.375-4.691406 1.242188-1.21875 3.03125-1.703125 4.71875-1.273438l24.285157 6.109375c14.734375 3.707032 25.203125 16.394532 26.046875 31.566406l9.519531 170.867188c.273437 4.925781-1.511719 9.808594-4.90625 13.390625-3.386719 3.585937-8.160156 5.640625-13.09375 5.640625zm-254.605469-216.3125-18.0625 4.542969c-10.46875 2.636719-17.902344 11.648437-18.503906 22.425781l-9.519531 170.867188c-.121094 2.226562.652343 4.34375 2.1875 5.960937 1.53125 1.621094 3.601562 2.511719 5.832031 2.511719h292.671875c2.230469 0 4.300781-.890625 5.835937-2.511719 1.53125-1.617187 2.304688-3.738281 2.183594-5.960937l-9.519531-170.871094c-.601563-10.777344-8.039063-19.789063-18.503906-22.421875l-18.0625-4.546875c-.738281 3.800781-2.675781 7.335937-5.632813 10.019531-2.378906 2.160156-5.355468 5.226563-8.800781 8.78125-18.984375 19.582031-50.753906 52.359375-93.835937 52.359375-43.078126 0-74.851563-32.777344-93.835938-52.359375-3.445312-3.550781-6.421875-6.621094-8.800781-8.78125-2.960938-2.679687-4.898438-6.21875-5.632813-10.015625zm0 0"/><path d="m164.367188 429.339844c-9.425782 0-17.097657-7.667969-17.097657-17.097656v-51.359376c0-1.460937.636719-2.847656 1.746094-3.796874 1.109375-.949219 2.578125-1.367188 4.019531-1.144532 7.835938 1.214844 14.828125 1.214844 22.664063 0 1.4375-.21875 2.910156.195313 4.019531 1.144532 1.105469.949218 1.746094 2.335937 1.746094 3.796874v51.359376c-.003906 9.429687-7.671875 17.097656-17.097656 17.097656zm-7.097657-62.8125v45.714844c0 3.914062 3.183594 7.097656 7.097657 7.097656 3.910156 0 7.09375-3.183594 7.09375-7.097656v-45.714844c-4.773438.421875-9.417969.421875-14.191407 0zm0 0"/><path d="m164.367188 366.84375c-43.082032 0-74.855469-32.777344-93.835938-52.359375-3.449219-3.550781-6.421875-6.621094-8.800781-8.78125-6.832031-6.195313-7.96875-16.492187-2.648438-23.949219 6.890625-9.652344 12.316407-21.046875 16.128907-33.867187 1.394531-4.6875.957031-9.632813-1.226563-13.925781-12.726563-24.988282-19.453125-54.316407-19.453125-84.816407 0-82.238281 49.269531-149.144531 109.835938-149.144531 60.5625 0 109.832031 66.90625 109.832031 149.148438 0 30.496093-6.726563 59.824218-19.453125 84.8125-2.1875 4.292968-2.621094 9.238281-1.226563 13.925781 3.8125 12.820312 9.238281 24.214843 16.125 33.867187 5.324219 7.457032 4.183594 17.75-2.644531 23.949219-2.378906 2.160156-5.355469 5.226563-8.800781 8.78125-18.980469 19.585937-50.753907 52.359375-93.832031 52.359375zm0-356.84375c-55.050782 0-99.835938 62.421875-99.835938 139.148438 0 28.925781 6.351562 56.6875 18.363281 80.277343 3.355469 6.585938 4.03125 14.152344 1.902344 21.3125-4.128906 13.882813-10.042969 26.273438-17.574219 36.824219-2.375 3.332031-1.847656 7.945312 1.226563 10.734375 2.617187 2.375 5.695312 5.550781 9.261719 9.226563 17.878906 18.445312 47.808593 49.316406 86.65625 49.316406 38.84375 0 68.773437-30.871094 86.652343-49.316406 3.566407-3.675782 6.648438-6.851563 9.265625-9.226563 3.074219-2.789063 3.601563-7.40625 1.222656-10.734375-7.53125-10.550781-13.445312-22.941406-17.574218-36.824219-2.125-7.160156-1.453125-14.726562 1.902344-21.316406 12.011718-23.589844 18.363281-51.351563 18.363281-80.277344 0-76.722656-44.785157-139.144531-99.832031-139.144531zm0 0"/><path d="m164.367188 262.625c-45.550782 0-79.582032-46.25-79.582032-87.601562v-54.230469c0-1.371094.5625-2.683594 1.558594-3.628907 20.351562-19.289062 47.859375-29.855468 77.476562-29.546874 29.085938.230468 56.933594 10.671874 78.414063 29.410156 1.085937.949218 1.710937 2.324218 1.710937 3.769531v54.226563c.003907 41.351562-34.03125 87.601562-79.578124 87.601562zm-69.582032-139.648438v52.046876c0 44.414062 36.734375 77.601562 69.582032 77.601562 32.84375 0 69.582031-33.1875 69.582031-77.601562v-51.921876c-40.421875-33.769531-101.90625-33.824218-139.164063-.125zm0 0"/><path d="m238.949219 125.792969c-1.171875 0-2.347657-.410157-3.289063-1.230469-40.941406-35.714844-104.839844-35.777344-142.4375-.136719-1.890625 1.789063-4.839844 1.828125-6.78125.089844-1.9375-1.742187-2.214844-4.679687-.632812-6.753906l33.785156-44.28125c10.984375-14.25 27.582031-22.574219 45.546875-22.855469 17.929687-.296875 34.8125 7.515625 46.226563 21.394531.085937.109375.171874.21875.253906.335938l31.441406 45.601562c1.429688 2.074219 1.09375 4.890625-.789062 6.566407-.945313.847656-2.136719 1.269531-3.324219 1.269531zm-76.097657-38.179688c.328126 0 .644532 0 .972657.003907 19.683593.15625 38.800781 4.992187 55.761719 13.90625l-16.074219-23.3125c-9.464844-11.414063-23.410157-17.816407-38.210938-17.585938-14.90625.234375-28.671875 7.136719-37.769531 18.941406l-14.742188 19.320313c15.160157-7.375 32.21875-11.273438 50.0625-11.273438zm0 0"/></g></svg>