<svg height="511pt" viewBox="-89 0 511 511.99732" width="511pt" xmlns="http://www.w3.org/2000/svg"><path d="m328.464844 493.058594-9.644532-173.148438c-.726562-13.074218-9.875-24.15625-22.574218-27.351562l-41.433594-10.429688c-7.1875-1.8125-14.300781-3.910156-21.316406-6.296875l-18.328125-9.039062-3.691407-1.816407c-5.847656-2.886718-9.550781-8.839843-9.550781-15.359374v-6.582032c-8.191406 3.554688-17.222656 5.535156-26.71875 5.535156h-16.433593c-9.496094 0-18.527344-1.980468-26.71875-5.535156v6.582032c0 6.519531-3.703126 12.476562-9.550782 15.359374l-2.714844 1.339844-18.242187 8.992188c-7.722656 2.738281-15.570313 5.105468-23.515625 7.105468l-40.296875 10.144532c-12.699219 3.195312-21.84375 14.277344-22.570313 27.351562l-9.644531 173.152344c-.421875 7.566406 5.601563 13.933594 13.179688 13.933594h296.582031c7.582031 0 13.605469-6.367188 13.183594-13.9375zm0 0" fill="#3f3f3f"/><path d="m315.28125 506.996094c7.582031 0 13.605469-6.367188 13.183594-13.9375l-9.644532-173.148438c-.726562-13.074218-9.875-24.15625-22.574218-27.351562l-41.433594-10.429688c-7.1875-1.8125-14.300781-3.910156-21.316406-6.296875l-18.328125-9.039062-1.96875-.96875-30.519531 241.171875zm0 0" fill="#754034"/><path d="m18.703125 506.996094c-7.582031 0-13.605469-6.367188-13.183594-13.9375l9.644531-173.148438c.726563-13.074218 9.875-24.15625 22.574219-27.351562l41.433594-10.429688c7.1875-1.8125 14.300781-3.910156 21.316406-6.296875l18.328125-9.039062 1.96875-.96875 30.519532 241.171875zm0 0" fill="#754034"/><path d="m173.730469 312.9375h-12.855469l-4.988281 3.203125v81.507813c0 2.941406 2.386719 5.328124 5.328125 5.328124h11.558594c2.945312 0 5.328124-2.386718 5.328124-5.328124v-81.90625zm0 0" fill="#515050"/><path d="m205.066406 330.097656 8.136719-64.273437-39.472656 47.113281 29.964843 19.21875zm0 0" fill="#515050"/><path d="m121.222656 265.605469-.4375.21875 7.988282 63.125 2.136718 3.207031 29.964844-19.21875zm0 0" fill="#515050"/><path d="m220.429688 27.128906 1.636718-3.480468c-15.015625-11.453126-33.652344-18.367188-53.820312-18.644532-21.078125-.285156-40.558594 6.902344-56.148438 19.019532l1.457032 3.101562c6.320312 13.433594 4.859374 29.238281-3.820313 41.28125-6.160156 10.113281-18.15625 19.484375-18.15625 38.390625v74.570313c0 37.113281 30.085937 67.199218 67.199219 67.199218h16.429687c37.113281 0 67.203125-30.085937 67.203125-67.199218 0-22.304688 0-40.4375 0-74.570313 0-18.804687-11.757812-27.875-18.160156-38.390625-8.679688-12.039062-10.140625-27.84375-3.820312-41.277344zm0 0" fill="#fcb275"/><path d="m242.410156 126.320312v55.050782c0 .164062-.015625.324218-.015625.488281 14.558594-.917969 26.09375-12.980469 26.09375-27.769531 0-14.785156-11.527343-26.847656-26.078125-27.769532zm0 0" fill="#fcb275"/><path d="m91.578125 181.371094v-55.050782c-14.554687.921876-26.082031 12.984376-26.082031 27.769532 0 14.789062 11.535156 26.851562 26.09375 27.769531 0-.164063-.011719-.324219-.011719-.488281zm0 0" fill="#fcb275"/><path d="m201.929688 249.613281v-6.578125c-8.191407 3.550782-17.222657 5.535156-26.722657 5.535156h-16.429687c-9.5 0-18.53125-1.984374-26.722656-5.535156v6.578125c0 6.523438-3.703126 12.476563-9.550782 15.363281l-1.285156.628907 39.652344 47.332031h12.855468l39.472657-47.113281-1.722657-.847657c-5.847656-2.886718-9.546874-8.839843-9.546874-15.363281zm0 0" fill="#fcb275"/><path d="m112.113281 24.066406c-21.988281 17.09375-36.257812 43.980469-36.257812 73.710938v34.699218c4.355469-3.519531 9.777343-5.777343 15.722656-6.15625 0-7.371093 0-14.160156 0-19.519531 0-18.902343 11.996094-28.277343 18.15625-38.390625 8.679687-12.042968 10.140625-27.847656 3.820313-41.28125zm0 0" fill="#7c292e"/><path d="m222.050781 23.679688-1.621093 3.449218c-6.320313 13.433594-4.859376 29.238282 3.820312 41.28125 6.402344 10.515625 18.160156 19.585938 18.160156 38.390625v19.519531c5.945313.378907 11.363282 2.636719 15.71875 6.15625v-36.339843c0-29.476563-14.203125-55.769531-36.078125-72.457031zm0 0" fill="#7c292e"/><path d="m175.140625 177.351562c-4.445313-.121093-8.148437 3.386719-8.148437 7.835938v5.007812c0 2.539063 2.054687 4.578126 4.59375 4.585938 6.796874.019531 19.761718.976562 29.382812 7.207031 6.84375 4.429688 14.414062-4.347656 9.214844-10.53125-6.351563-7.546875-17.058594-13.609375-35.042969-14.105469zm0 0" fill="#7c292e"/><path d="m166.992188 190.195312v-5.007812c0-4.449219-3.703126-7.957031-8.148438-7.835938-17.984375.496094-28.691406 6.554688-35.039062 14.105469-5.199219 6.179688 2.363281 14.964844 9.210937 10.53125 9.621094-6.230469 22.585937-7.1875 29.382813-7.207031 2.539062-.007812 4.59375-2.046875 4.59375-4.585938zm0 0" fill="#7c292e"/><path d="m205.722656 506.996094 32.898438-103.175782c.269531-.851562.234375-1.769531-.105469-2.59375l-12.679687-30.789062c-.632813-1.542969-.1875-3.316406 1.105468-4.375l18.59375-15.214844c1.03125-.84375 1.542969-2.164062 1.351563-3.480468l-10.328125-70.5625c-1.015625-.332032-2.046875-.628907-3.058594-.972657l-18.332031-9.039062-1.964844-.96875-30.519531 241.171875zm0 0" fill="#8c5046"/><path d="m128.261719 506.996094-32.898438-103.175782c-.269531-.851562-.234375-1.769531.105469-2.59375l12.679688-30.789062c.632812-1.542969.1875-3.316406-1.105469-4.375l-18.59375-15.214844c-1.03125-.84375-1.542969-2.164062-1.351563-3.480468l10.328125-70.5625c1.015625-.332032 2.046875-.628907 3.058594-.972657l18.332031-9.039062 1.964844-.96875 30.519531 241.171875zm0 0" fill="#8c5046"/><g fill="#231f20"><path d="m315.28125 511.996094h-296.582031c-4.980469 0-9.800781-2.074219-13.222657-5.691406-3.421874-3.621094-5.226562-8.546876-4.949218-13.519532l9.644531-173.152344c.851563-15.34375 11.441406-28.171874 26.34375-31.925781l40.292969-10.140625c7.667968-1.929687 15.335937-4.242187 22.792968-6.875l20.6875-10.203125c4.175782-2.058593 6.765626-6.222656 6.765626-10.875v-6.582031c0-1.683594.847656-3.257812 2.257812-4.179688 1.410156-.925781 3.1875-1.078124 4.734375-.40625 7.832031 3.398438 16.152344 5.121094 24.730469 5.121094h16.429687c8.578125 0 16.898438-1.722656 24.730469-5.121094 1.539062-.671874 3.324219-.519531 4.730469.40625 1.410156.921876 2.257812 2.496094 2.257812 4.179688v6.582031c0 4.652344 2.59375 8.820313 6.765625 10.875l21.722656 10.710938c6.761719 2.289062 13.695313 4.335937 20.617188 6.078125l41.433594 10.429687c14.902344 3.75 25.492187 16.578125 26.347656 31.925781l9.644531 173.148438c.277344 4.972656-1.527343 9.898438-4.949219 13.519531-3.421874 3.621094-8.242187 5.695313-13.226562 5.695313zm-178.234375-261.761719c-.222656 8.238281-4.90625 15.5625-12.332031 19.226563l-20.953125 10.332031c-.175781.085937-.359375.164062-.542969.226562-7.835938 2.777344-15.902344 5.210938-23.964844 7.242188l-40.296875 10.140625c-10.636719 2.679687-18.191406 11.835937-18.800781 22.785156l-9.644531 173.152344c-.125 2.273437.667969 4.4375 2.230469 6.089844 1.566406 1.65625 3.683593 2.566406 5.957031 2.566406h296.582031c2.277344 0 4.394531-.910156 5.960938-2.566406 1.5625-1.65625 2.355468-3.816407 2.226562-6.089844l-9.640625-173.148438c-.613281-10.953125-8.167969-20.109375-18.804687-22.785156l-41.433594-10.429688c-7.289063-1.832031-14.589844-3.992187-21.707032-6.410156-.207031-.070312-.40625-.15625-.601562-.25l-22.015625-10.855468c-7.425781-3.660157-12.109375-10.988282-12.332031-19.226563-7.003906 2.21875-14.285156 3.335937-21.730469 3.335937h-16.429687c-7.441407 0-14.722657-1.121093-21.726563-3.335937zm0 0"/><path d="m167.121094 216.257812c-8.960938 0-17.308594-4.4375-22.332032-11.867187-1.542968-2.289063-.941406-5.398437 1.34375-6.941406 2.289063-1.546875 5.398438-.945313 6.945313 1.34375 3.15625 4.675781 8.40625 7.464843 14.039063 7.464843 5.636718 0 10.886718-2.789062 14.046874-7.464843 1.542969-2.292969 4.652344-2.890625 6.941407-1.34375 2.289062 1.542969 2.890625 4.652343 1.34375 6.941406-5.019531 7.429687-13.367188 11.867187-22.328125 11.867187zm0 0"/><path d="m204.75 140.1875c-.792969 0-1.597656-.1875-2.34375-.585938-1.191406-.628906-3.96875-1.371093-7.890625-1.371093s-6.707031.738281-7.894531 1.371093c-2.4375 1.296876-5.460938.375-6.761719-2.066406-1.296875-2.4375-.371094-5.464844 2.066406-6.761718 3.039063-1.617188 7.625-2.542969 12.589844-2.542969 4.960937 0 9.546875.925781 12.585937 2.542969 2.4375 1.296874 3.363282 4.324218 2.066407 6.761718-.898438 1.691406-2.628907 2.652344-4.417969 2.652344zm0 0"/><path d="m149.707031 140.1875c-.789062 0-1.59375-.1875-2.339843-.585938-1.191407-.628906-3.972657-1.371093-7.894532-1.371093s-6.703125.738281-7.890625 1.371093c-2.441406 1.296876-5.464843.375-6.765625-2.066406-1.292968-2.4375-.367187-5.464844 2.070313-6.761718 3.039062-1.617188 7.625-2.542969 12.585937-2.542969 4.960938 0 9.550782.925781 12.589844 2.542969 2.4375 1.296874 3.363281 4.324218 2.066406 6.761718-.902344 1.691406-2.632812 2.652344-4.421875 2.652344zm0 0"/><path d="m140.285156 159.980469c-3.3125 0-6-2.6875-6-6v-1.121094c0-3.3125 2.6875-6 6-6 3.316406 0 6 2.6875 6 6v1.121094c0 3.3125-2.683594 6-6 6zm0 0"/><path d="m193.953125 160.835938c-3.316406 0-6-2.6875-6-6v-1.121094c0-3.3125 2.683594-6 6-6 3.3125 0 6 2.6875 6 6v1.121094c0 3.3125-2.683594 6-6 6zm0 0"/><path d="m269.761719 509.160156c-2.761719 0-5-2.238281-5-5v-112.148437c0-2.761719 2.238281-5 5-5s5 2.238281 5 5v112.148437c0 2.761719-2.238281 5-5 5zm0 0"/><path d="m64.222656 509.160156c-2.761718 0-5-2.238281-5-5v-112.148437c0-2.761719 2.238282-5 5-5 2.761719 0 5 2.238281 5 5v112.148437c0 2.761719-2.238281 5-5 5zm0 0"/><path d="m315.28125 511.996094h-132.597656c-1.4375 0-2.800782-.617188-3.75-1.691406-.953125-1.078126-1.390625-2.511719-1.210938-3.933594l30.519532-241.175782c.203124-1.605468 1.167968-3.011718 2.59375-3.777343 1.421874-.761719 3.125-.792969 4.578124-.082031l20.003907 9.863281c6.761719 2.292969 13.695312 4.335937 20.617187 6.078125l41.433594 10.429687c14.902344 3.75 25.492188 16.578125 26.347656 31.921875l9.644532 173.152344c.277343 4.972656-1.527344 9.898438-4.949219 13.519531-3.425781 3.621094-8.246094 5.695313-13.230469 5.695313zm-126.925781-10h126.925781c2.28125 0 4.394531-.910156 5.960938-2.566406 1.5625-1.65625 2.359374-3.816407 2.230468-6.089844l-9.644531-173.152344c-.609375-10.949219-8.164063-20.105469-18.800781-22.78125l-41.433594-10.429688c-7.292969-1.832031-14.59375-3.992187-21.707031-6.410156-.207031-.070312-.40625-.15625-.601563-.25l-14.003906-6.90625zm0 0"/><path d="m151.300781 511.996094h-132.597656c-4.984375 0-9.804687-2.074219-13.226563-5.695313-3.421874-3.621093-5.226562-8.546875-4.949218-13.519531l9.644531-173.148438c.855469-15.34375 11.441406-28.175781 26.347656-31.925781l41.429688-10.425781c6.921875-1.746094 13.859375-3.789062 20.621093-6.078125l20.003907-9.867187c1.449219-.714844 3.152343-.683594 4.578125.082031 1.425781.765625 2.390625 2.171875 2.59375 3.777343l30.519531 241.175782c.179687 1.421875-.261719 2.855468-1.210937 3.933594-.949219 1.074218-2.316407 1.691406-3.753907 1.691406zm-34.597656-238.585938-14.003906 6.90625c-.195313.09375-.398438.179688-.601563.25-7.113281 2.417969-14.414062 4.578125-21.707031 6.410156l-41.429687 10.429688c-10.636719 2.675781-18.191407 11.832031-18.800782 22.78125l-9.644531 173.152344c-.128906 2.273437.664063 4.4375 2.230469 6.089844 1.5625 1.65625 3.679687 2.566406 5.957031 2.566406h126.929687zm0 0"/><path d="m172.773438 407.976562h-11.558594c-5.695313 0-10.332032-4.636718-10.332032-10.332031v-81.503906c0-1.707031.871094-3.292969 2.300782-4.210937l4.992187-3.199219c.804688-.515625 1.742188-.792969 2.699219-.792969h12.855469c.960937 0 1.894531.273438 2.703125.792969l4.367187 2.800781c1.433594.921875 2.300781 2.507812 2.300781 4.207031v81.90625c0 5.695313-4.636718 10.332031-10.328124 10.332031zm-11.890626-89.101562v78.773438c0 .179687.148438.328124.332032.328124h11.558594c.179687 0 .328124-.148437.328124-.328124v-79.171876l-.835937-.539062h-9.921875zm0 0"/><path d="m203.691406 337.15625c-.925781 0-1.859375-.253906-2.695312-.789062l-29.964844-19.21875c-1.207031-.777344-2.027344-2.035157-2.242188-3.457032-.21875-1.417968.1875-2.863281 1.109376-3.964844l39.46875-47.117187c1.421874-1.699219 3.804687-2.253906 5.832031-1.371094 2.035156.890625 3.238281 3.007813 2.960937 5.210938l-8.132812 64.273437c-.097656.765625-.375 1.5-.800782 2.144532l-1.371093 2.058593c-.960938 1.449219-2.546875 2.230469-4.164063 2.230469zm1.375-7.058594h.019532zm-23.855468-18.300781 19.542968 12.535156 5.347656-42.25zm0 0"/><path d="m130.914062 337.15625c-1.617187 0-3.203124-.78125-4.164062-2.226562l-2.140625-3.207032c-.425781-.644531-.703125-1.378906-.800781-2.144531l-7.988282-63.125c-.265624-2.117187.835938-4.167969 2.75-5.113281l.441407-.214844c2.066406-1.019531 4.5625-.496094 6.042969 1.273438l39.652343 47.332031c.921875 1.101562 1.324219 2.542969 1.109375 3.964843-.214844 1.421876-1.035156 2.679688-2.246094 3.453126l-29.964843 19.21875c-.832031.535156-1.765625.789062-2.691407.789062zm-3.144531-55.949219 5.503907 43.492188 20.121093-12.902344zm0 0"/><path d="m175.207031 253.570312h-16.429687c-39.8125 0-72.199219-32.390624-72.199219-72.199218v-74.574219c0-15.890625 7.636719-25.847656 13.773437-33.847656 1.914063-2.492188 3.71875-4.851563 5.113282-7.140625.070312-.109375.140625-.21875.214844-.320313 7.613281-10.566406 8.898437-24.449219 3.351562-36.230469l-1.457031-3.101562c-.996094-2.113281-.390625-4.640625 1.457031-6.074219 17.269531-13.425781 37.761719-20.371093 59.285156-20.0742185 20.652344.2851565 40.285156 7.0820315 56.785156 19.6679685 1.875 1.425781 2.496094 3.972657 1.492188 6.105469l-1.636719 3.476562c-5.542969 11.785157-4.261719 25.667969 3.351563 36.230469.078125.105469.148437.214844.214844.324219 1.476562 2.421875 3.324218 4.84375 5.28125 7.410156 6.0625 7.9375 13.609374 17.816406 13.609374 33.578125v74.574219c-.003906 39.804688-32.394531 72.195312-72.207031 72.195312zm-61.304687-182.394531c-1.648438 2.6875-3.578125 5.203125-5.617188 7.859375-5.757812 7.503906-11.707031 15.265625-11.707031 27.761719v74.574219c0 34.292968 27.902344 62.199218 62.199219 62.199218h16.429687c34.296875 0 62.203125-27.902343 62.203125-62.199218v-74.574219c0-12.378906-5.875-20.070313-11.554687-27.507813-1.988281-2.609374-4.046875-5.300781-5.773438-8.113281-9.582031-13.414062-11.21875-30.960937-4.296875-45.917969-14.078125-9.757812-30.453125-15.015624-47.605468-15.25-17.863282-.257812-35.054688 5.132813-49.820313 15.59375 6.738281 14.878907 5.050781 32.265626-4.457031 45.574219zm106.527344-44.046875h.019531zm0 0"/><path d="m242.394531 186.859375c-1.277343 0-2.511719-.488281-3.445312-1.375-1.007813-.960937-1.570313-2.292969-1.554688-3.683594l.007813-.363281.007812-55.117188c0-1.382812.566406-2.699218 1.574219-3.648437 1.007813-.945313 2.371094-1.433594 3.738281-1.34375 17.25 1.09375 30.765625 15.484375 30.765625 32.757813 0 17.289062-13.519531 31.675781-30.78125 32.761718-.101562.007813-.207031.011719-.3125.011719zm5.015625-54.570313v43.601563c9.34375-2.902344 16.078125-11.628906 16.078125-21.800781s-6.734375-18.902344-16.078125-21.800782zm0 0"/><path d="m91.589844 186.859375c-.105469 0-.210938-.003906-.316406-.011719-17.257813-1.082031-30.777344-15.472656-30.777344-32.757812 0-17.277344 13.511718-31.667969 30.761718-32.757813 1.375-.09375 2.730469.398438 3.738282 1.34375 1.007812.945313 1.578125 2.261719 1.578125 3.644531l.011719 55.507813c.007812 1.386719-.558594 2.714844-1.566407 3.667969-.925781.878906-2.15625 1.363281-3.429687 1.363281zm-5.011719-54.570313c-9.347656 2.898438-16.082031 11.628907-16.082031 21.800782s6.734375 18.902344 16.082031 21.800781zm0 0"/><path d="m173.730469 317.9375h-12.855469c-1.480469 0-2.882812-.652344-3.835938-1.789062l-39.652343-47.332032c-.984375-1.175781-1.375-2.742187-1.058594-4.242187s1.304687-2.773438 2.679687-3.453125l1.28125-.632813c4.171876-2.058593 6.765626-6.226562 6.765626-10.878906v-6.578125c0-1.6875.847656-3.257812 2.253906-4.183594 1.410156-.925781 3.191406-1.074218 4.734375-.40625 7.832031 3.398438 16.152343 5.125 24.730469 5.125h16.429687c8.578125 0 16.898437-1.726562 24.730469-5.125 1.542968-.667968 3.324218-.515625 4.734375.40625 1.410156.925782 2.257812 2.496094 2.257812 4.183594v6.578125c0 4.652344 2.589844 8.820313 6.761719 10.878906l1.722656.847657c1.375.675781 2.363282 1.953124 2.679688 3.453124.316406 1.503907-.074219 3.066407-1.058594 4.242188l-39.472656 47.117188c-.945313 1.136718-2.351563 1.789062-3.828125 1.789062zm-10.523438-10h8.1875l34.164063-40.777344c-5.25-4.011718-8.441406-10.164062-8.625-16.925781-7 2.214844-14.285156 3.332031-21.726563 3.332031h-16.429687c-7.445313 0-14.726563-1.117187-21.730469-3.332031-.175781 6.601563-3.21875 12.617187-8.246094 16.632813zm0 0"/><path d="m75.855469 137.476562c-.734375 0-1.46875-.160156-2.15625-.488281-1.738281-.832031-2.84375-2.585937-2.84375-4.511719v-34.703124c0-30.035157 14.277343-59.066407 38.191406-77.652344 1.199219-.933594 2.753906-1.273438 4.234375-.917969 1.476562.355469 2.710938 1.359375 3.359375 2.734375l1.441406 3.058594c7.0625 15.011718 5.457031 32.683594-4.179687 46.175781-1.648438 2.6875-3.578125 5.203125-5.617188 7.859375-5.757812 7.507812-11.707031 15.269531-11.707031 27.765625v19.519531c0 2.640625-2.050781 4.824219-4.6875 4.992188-4.710937.296875-9.171875 2.042968-12.890625 5.050781-.910156.738281-2.023438 1.117187-3.144531 1.117187zm34.386719-105.320312c-18.507813 16.703125-29.386719 40.78125-29.386719 65.621094v25.960937c1.84375-.765625 3.757812-1.359375 5.722656-1.769531v-15.167969c0-15.890625 7.636719-25.847656 13.773437-33.851562 1.914063-2.492188 3.71875-4.847657 5.113282-7.136719.070312-.109375.140625-.21875.214844-.324219 6.996093-9.710937 8.648437-22.226562 4.5625-33.332031zm0 0"/><path d="m258.128906 137.476562c-1.125 0-2.238281-.378906-3.144531-1.113281-3.71875-3.007812-8.179687-4.757812-12.890625-5.054687-2.632812-.164063-4.683594-2.351563-4.683594-4.988282v-19.523437c0-12.378906-5.875-20.070313-11.554687-27.507813-1.988281-2.609374-4.046875-5.300781-5.773438-8.113281-9.636719-13.492187-11.238281-31.167969-4.175781-46.175781l1.621094-3.445312c.640625-1.371094 1.867187-2.375 3.335937-2.730469 1.46875-.363281 3.019531-.035157 4.222657.878906 24.175781 18.445313 38.042968 46.304687 38.042968 76.433594v36.335937c0 1.925782-1.109375 3.683594-2.847656 4.511719-.683594.332031-1.417969.492187-2.152344.492187zm-10.71875-15.507812c1.957032.410156 3.871094 1.003906 5.71875 1.769531v-27.601562c0-24.878907-10.570312-48.039063-29.207031-64.460938-4.3125 11.230469-2.714844 23.960938 4.382813 33.8125.074218.101563.144531.210938.210937.320313 1.476563 2.421875 3.328125 4.84375 5.285156 7.410156 6.0625 7.9375 13.605469 17.820312 13.605469 33.582031v15.167969zm0 0"/><path d="m204.867188 208.183594c-2.253907 0-4.539063-.65625-6.613282-2-8.539062-5.527344-20.382812-6.382813-26.6875-6.402344-5.277344-.015625-9.574218-4.316406-9.574218-9.589844v-5.007812c0-3.480469 1.375-6.734375 3.875-9.167969 2.527343-2.457031 5.871093-3.773437 9.414062-3.664063 17.230469.476563 30.261719 5.816407 38.726562 15.882813 3.953126 4.699219 3.867188 11.203125-.207031 15.816406-2.398437 2.71875-5.628906 4.132813-8.933593 4.132813zm-32.875-18.398438c7.492187.058594 21.199218 1.210938 31.695312 8.003906.972656.628907 1.855469.511719 2.617188-.355468.457031-.511719 1.066406-1.554688.050781-2.761719-6.546875-7.785156-17.097657-11.929687-31.347657-12.324219-.839843-.039062-1.589843.277344-2.167968.835938-.316406.308594-.847656.976562-.847656 2zm0 0"/><path d="m129.117188 208.183594c-3.304688 0-6.535157-1.410156-8.933594-4.125-4.074219-4.617188-4.160156-11.125-.207032-15.820313 8.46875-10.066406 21.496094-15.410156 38.726563-15.882812 3.570313-.105469 6.890625 1.203125 9.417969 3.664062 2.496094 2.429688 3.871094 5.6875 3.871094 9.167969v5.007812c0 5.273438-4.296876 9.570313-9.578126 9.585938-6.300781.019531-18.144531.875-26.683593 6.402344-2.074219 1.347656-4.363281 2-6.613281 2zm29.949218-25.832032c-.03125 0-.058594 0-.089844 0-14.25.390626-24.796874 4.539063-31.347656 12.324219-1.015625 1.207031-.40625 2.25.050782 2.765625.757812.863282 1.636718.984375 2.617187.351563 10.496094-6.796875 24.203125-7.949219 31.695313-8.007813v-4.597656c0-1.023438-.53125-1.691406-.847657-2-.554687-.542969-1.289062-.835938-2.078125-.835938zm0 0"/><path d="m205.722656 511.996094h-23.042968c-1.433594 0-2.800782-.617188-3.75-1.691406-.949219-1.078126-1.390626-2.511719-1.210938-3.933594l30.523438-241.175782c.203124-1.605468 1.167968-3.011718 2.589843-3.777343 1.421875-.761719 3.128907-.792969 4.578125-.082031l19.992188 9.859374c.433594.140626.867187.277344 1.296875.410157.472656.144531.945312.292969 1.414062.445312 1.804688.589844 3.117188 2.152344 3.390625 4.027344l10.328125 70.566406c.445313 3.03125-.753906 6.125-3.128906 8.070313l-17.902344 14.648437 12.335938 29.957031c.789062 1.914063.875 4.050782.246093 6.019532l-32.898437 103.171875c-.65625 2.078125-2.585937 3.484375-4.761719 3.484375zm-17.367187-10h13.710937l31.652344-99.273438-12.507812-30.382812c-1.484376-3.601563-.453126-7.679688 2.5625-10.148438l18.0625-14.78125-9.773438-66.785156c-.058594-.023438-.117188-.042969-.175781-.0625-.207031-.070312-.410157-.152344-.605469-.25l-14.003906-6.90625zm0 0"/><path d="m151.300781 511.996094h-23.039062c-2.175781 0-4.101563-1.40625-4.765625-3.480469l-32.894532-103.179687c-.628906-1.960938-.542968-4.101563.246094-6.015626l12.335938-29.957031-17.902344-14.644531c-2.375-1.949219-3.574219-5.039062-3.128906-8.074219l10.324218-70.566406c.277344-1.875 1.589844-3.4375 3.394532-4.027344.464844-.152343.929687-.296875 1.398437-.441406.4375-.132813.875-.269531 1.3125-.414063l19.992188-9.859374c1.449219-.714844 3.152343-.683594 4.578125.082031 1.425781.765625 2.390625 2.171875 2.59375 3.777343l30.519531 241.175782c.179687 1.421875-.261719 2.855468-1.210937 3.933594-.949219 1.074218-2.316407 1.691406-3.753907 1.691406zm-19.382812-10h13.710937l-28.925781-228.585938-14.003906 6.90625c-.191407.09375-.394531.179688-.601563.25-.058594.019532-.117187.039063-.175781.058594l-9.773437 66.789062 18.066406 14.777344c3.015625 2.46875 4.042968 6.546875 2.5625 10.148438l-12.511719 30.382812zm0 0"/></g></svg>