<svg height="512pt" viewBox="-90 0 512 512" width="512pt" xmlns="http://www.w3.org/2000/svg"><path d="m167.140625 24.890625c16.730469 0 32.4375 4.566406 46.09375 12.554687-6.773437-18.910156-24.851563-32.445312-46.09375-32.445312s-39.316406 13.535156-46.089844 32.445312c13.652344-7.988281 29.359375-12.554687 46.089844-12.554687zm0 0" fill="#7c292e"/><path d="m121.050781 42.445312c-1.140625 0-2.277343-.390624-3.195312-1.152343-1.617188-1.339844-2.222657-3.554688-1.515625-5.53125 7.664062-21.390625 28.078125-35.761719 50.800781-35.761719s43.136719 14.371094 50.800781 35.757812c.707032 1.980469.101563 4.191407-1.515625 5.535157-1.621093 1.34375-3.902343 1.527343-5.71875.46875-13.269531-7.769531-28.335937-11.875-43.566406-11.875s-30.296875 4.105469-43.566406 11.875c-.785157.457031-1.65625.683593-2.523438.683593zm46.089844-32.445312c-13.410156 0-25.835937 6.144531-34.035156 16.15625 21.734375-8.25 46.335937-8.25 68.074219 0-8.203126-10.011719-20.628907-16.15625-34.039063-16.15625zm0 0" fill="#231f20"/><path d="m327.964844 493.0625-9.644532-173.148438c-.726562-13.074218-9.871093-24.15625-22.574218-27.355468l-41.433594-10.429688c-7.1875-1.808594-14.300781-3.910156-21.316406-6.292968l-18.328125-9.039063-3.6875-1.820313c-5.847657-2.882812-9.554688-8.839843-9.554688-15.359374v-6.578126c-8.1875 3.554688-17.21875 5.535157-26.71875 5.535157h-16.429687c-9.5 0-18.53125-1.980469-26.722656-5.535157v6.578126c0 6.523437-3.703126 12.480468-9.550782 15.359374l-2.714844 1.339844-18.238281 8.992188c-7.726562 2.738281-15.570312 5.105468-23.515625 7.105468l-40.296875 10.144532c-12.699219 3.195312-21.847656 14.28125-22.574219 27.351562l-9.644531 173.152344c-.421875 7.566406 5.601563 13.933594 13.183594 13.933594h296.578125c7.582031 0 13.605469-6.367188 13.183594-13.933594zm0 0" fill="#754034"/><path d="m166.492188 318.957031c0 18.683594-13.535157 31.65625-29.042969 34.394531v61.121094c0 14.292969 11.585937 25.878906 25.878906 25.878906h6.328125c14.292969 0 25.882812-11.585937 25.882812-25.878906 0-1.984375 0-31.183594 0-61.121094-15.507812-2.738281-29.046874-15.710937-29.046874-34.394531zm0 0" fill="#8c5046"/><path d="m174.710938 75.015625h-16.433594c-37.113282 0-67.199219 14.082031-67.199219 51.195313v55.160156c0 37.113281 30.085937 67.199218 67.199219 67.199218h16.433594c37.113281 0 67.199218-30.085937 67.199218-67.199218 0-10.601563 0-44.277344 0-55.160156 0-37.109376-30.085937-51.195313-67.199218-51.195313zm0 0" fill="#fcb275"/><path d="m241.910156 130.324219v55.046875c0 .164062-.011718.328125-.011718.492187 14.558593-.917969 26.089843-12.980469 26.089843-27.769531s-11.527343-26.851562-26.078125-27.769531zm0 0" fill="#fcb275"/><path d="m91.078125 185.371094v-55.046875c-14.554687.921875-26.082031 12.984375-26.082031 27.769531 0 14.789062 11.535156 26.851562 26.09375 27.769531 0-.164062-.011719-.328125-.011719-.492187zm0 0" fill="#fcb275"/><path d="m166.492188 318.957031c28.375 0 52.28125-19.664062 59.664062-46.5l-11.488281-5.664062c-1.070313-.859375-13.242188-4.195313-13.242188-17.175781v-6.582032c-8.1875 3.554688-17.21875 5.535156-26.71875 5.535156h-16.429687c-9.5 0-18.53125-1.980468-26.722656-5.535156v6.582032c0 12.585937-11.671876 16.207031-12.265626 16.699218l-12.460937 6.140625c7.386719 26.835938 31.292969 46.5 59.664063 46.5zm0 0" fill="#fcb275"/><path d="m232.996094 275.832031-6.839844-3.375c-7.386719 26.835938-31.292969 46.5-59.664062 46.5 0 31.707031 38.984374 47 60.4375 23.652344 12.746093-13.875 23.488281-33.335937 27.191406-60.535156-7.121094-1.796875-14.167969-3.875-21.125-6.242188zm0 0" fill="#8c5046"/><path d="m106.832031 272.457031-5.78125 2.851563c-7.292969 2.582031-14.695312 4.828125-22.183593 6.753906 3.699218 27.203125 14.4375 46.667969 27.191406 60.546875 21.453125 23.347656 60.433594 8.058594 60.433594-23.652344-28.371094 0-52.273438-19.664062-59.660157-46.5zm0 0" fill="#8c5046"/><path d="m167.140625 24.890625c-52.476563 0-95.019531 44.78125-95.019531 100.019531 0 4.640625.324218 9.195313.90625 13.667969 4.664062-4.726563 10.996094-7.808594 18.050781-8.253906v-4.109375c0-37.113282 30.085937-51.195313 67.199219-51.195313h16.433594c37.113281 0 67.199218 14.082031 67.199218 51.195313v4.109375c7.65625.484375 14.453125 4.070312 19.199219 9.5.6875-4.867188 1.054687-9.84375 1.054687-14.910157 0-55.242187-42.542968-100.023437-95.023437-100.023437zm0 0" fill="#7c292e"/><path d="m177.105469 412.699219c0-.503907 0-40.542969 0-68.621094-6.402344-6.082031-10.613281-14.710937-10.613281-25.121094 0 10.410157-4.207032 19.039063-10.609376 25.121094v68.621094c0 5.222656 4.234376 9.453125 9.453126 9.453125h2.3125c5.222656 0 9.457031-4.230469 9.457031-9.453125zm0 0" fill="#8c5046"/><g fill="#231f20"><path d="m166.621094 216.261719c-8.960938 0-17.308594-4.4375-22.328125-11.871094-1.546875-2.289063-.945313-5.398437 1.34375-6.941406 2.285156-1.546875 5.394531-.945313 6.941406 1.34375 3.160156 4.675781 8.410156 7.46875 14.042969 7.46875 5.628906 0 10.882812-2.792969 14.042968-7.46875 1.542969-2.289063 4.65625-2.890625 6.941407-1.34375 2.289062 1.542969 2.890625 4.652343 1.34375 6.941406-5.019531 7.433594-13.367188 11.871094-22.328125 11.871094zm0 0"/><path d="m204.25 140.191406c-.789062 0-1.59375-.1875-2.34375-.585937-1.1875-.632813-3.96875-1.371094-7.890625-1.371094s-6.703125.738281-7.890625 1.371094c-2.4375 1.292969-5.464844.371093-6.761719-2.066407-1.300781-2.441406-.375-5.46875 2.0625-6.761718 3.039063-1.617188 7.625-2.542969 12.589844-2.542969s9.550781.925781 12.589844 2.542969c2.4375 1.292968 3.363281 4.324218 2.0625 6.761718-.894531 1.6875-2.628907 2.652344-4.417969 2.652344zm0 0"/><path d="m128.734375 140.191406c-1.789063 0-3.519531-.960937-4.417969-2.652344-1.292968-2.4375-.367187-5.46875 2.070313-6.761718 3.035156-1.617188 7.625-2.542969 12.585937-2.542969 4.960938 0 9.550782.925781 12.589844 2.542969 2.4375 1.292968 3.363281 4.324218 2.066406 6.761718s-4.320312 3.363282-6.761718 2.066407c-1.191407-.632813-3.972657-1.371094-7.894532-1.371094s-6.703125.738281-7.890625 1.371094c-.75.398437-1.554687.585937-2.347656.585937zm0 0"/><path d="m139.789062 159.980469c-3.316406 0-6-2.6875-6-6v-1.121094c0-3.3125 2.683594-6 6-6 3.3125 0 6 2.6875 6 6v1.121094c0 3.3125-2.6875 6-6 6zm0 0"/><path d="m193.453125 160.839844c-3.3125 0-6-2.6875-6-6v-1.121094c0-3.316406 2.6875-6 6-6 3.316406 0 6 2.683594 6 6v1.121094c0 3.3125-2.683594 6-6 6zm0 0"/><path d="m314.785156 512h-296.582031c-4.984375 0-9.800781-2.074219-13.226563-5.695312-3.421874-3.617188-5.226562-8.542969-4.9492182-13.519532l9.6445312-173.148437c.855469-15.34375 11.441406-28.175781 26.34375-31.925781l40.296875-10.144532c7.65625-1.925781 15.320312-4.238281 22.792969-6.871094l20.683593-10.203124c4.175782-2.054688 6.765626-6.222657 6.765626-10.875v-6.582032c0-1.683594.847656-3.253906 2.257812-4.179687 1.410156-.921875 3.1875-1.074219 4.734375-.40625 7.832031 3.402343 16.152344 5.125 24.730469 5.125h16.429687c8.574219 0 16.894531-1.722657 24.730469-5.125 1.539062-.667969 3.320312-.519531 4.730469.40625 1.410156.925781 2.257812 2.496093 2.257812 4.179687v6.582032c0 4.652343 2.59375 8.820312 6.765625 10.875l21.71875 10.710937c6.761719 2.289063 13.699219 4.335937 20.621094 6.078125l41.433594 10.429688c14.90625 3.75 25.492187 16.582031 26.347656 31.925781l9.644531 173.148437c.277344 4.972656-1.53125 9.902344-4.953125 13.519532-3.417968 3.617187-8.238281 5.695312-13.21875 5.695312zm-178.234375-261.765625c-.226562 8.238281-4.90625 15.566406-12.335937 19.226563l-20.953125 10.335937c-.175781.085937-.359375.164063-.542969.226563-7.847656 2.78125-15.910156 5.214843-23.964844 7.242187l-40.292968 10.144531c-10.636719 2.675782-18.191407 11.832032-18.800782 22.785156l-9.648437 173.144532c-.125 2.273437.667969 4.4375 2.230469 6.09375 1.566406 1.65625 3.683593 2.5625 5.960937 2.5625h296.578125c2.28125 0 4.394531-.910156 5.960938-2.5625 1.5625-1.65625 2.355468-3.820313 2.230468-6.09375l-9.644531-173.148438c-.609375-10.949218-8.167969-20.105468-18.800781-22.785156l-41.4375-10.429688c-7.289063-1.832031-14.589844-3.992187-21.703125-6.410156-.210938-.070312-.40625-.15625-.601563-.25l-22.015625-10.855468c-7.429687-3.660157-12.113281-10.988282-12.335937-19.226563-7.003906 2.21875-14.285156 3.335937-21.726563 3.335937h-16.429687c-7.445313 0-14.726563-1.117187-21.726563-3.335937zm0 0"/><path d="m269.261719 509.160156c-2.761719 0-5-2.234375-5-5v-112.144531c0-2.761719 2.238281-5 5-5 2.765625 0 5 2.238281 5 5v112.144531c0 2.761719-2.234375 5-5 5zm0 0"/><path d="m63.722656 509.160156c-2.761718 0-5-2.234375-5-5v-112.144531c0-2.761719 2.238282-5 5-5 2.761719 0 5 2.238281 5 5v112.144531c0 2.761719-2.238281 5-5 5zm0 0"/><path d="m169.65625 445.351562h-6.328125c-17.023437 0-30.875-13.851562-30.875-30.878906v-61.121094c0-2.425781 1.742187-4.5 4.128906-4.921874 11.996094-2.121094 24.910157-12.246094 24.910157-29.472657 0-2.761719 2.238281-5 5-5 2.761718 0 5 2.238281 5 5 0 17.226563 12.914062 27.351563 24.914062 29.472657 2.386719.421874 4.128906 2.496093 4.128906 4.921874v61.121094c0 17.027344-13.847656 30.878906-30.878906 30.878906zm-27.203125-88.015624v57.136718c0 11.511719 9.363281 20.878906 20.875 20.878906h6.328125c11.511719 0 20.878906-9.367187 20.878906-20.878906v-57.136718c-10.546875-2.960938-19.027344-9.785157-24.042968-18.800782-5.011719 9.015625-13.496094 15.839844-24.039063 18.800782zm0 0"/><path d="m174.707031 253.570312h-16.429687c-39.808594 0-72.199219-32.386718-72.199219-72.199218v-55.160156c0-35.714844 26.316406-56.195313 72.199219-56.195313h16.429687c45.882813 0 72.203125 20.480469 72.203125 56.195313v55.160156c0 39.8125-32.386718 72.199218-72.203125 72.199218zm-16.429687-173.554687c-23.230469 0-62.199219 6.003906-62.199219 46.195313v55.160156c0 34.292968 27.902344 62.199218 62.199219 62.199218h16.429687c34.296875 0 62.203125-27.902343 62.203125-62.199218v-55.160156c0-40.191407-38.96875-46.195313-62.203125-46.195313zm0 0"/><path d="m241.894531 190.863281c-1.277343 0-2.511719-.492187-3.445312-1.378906-1.007813-.957031-1.570313-2.289063-1.554688-3.683594l.011719-.355469.003906-55.121093c0-1.378907.570313-2.699219 1.578125-3.644531 1.003907-.949219 2.371094-1.429688 3.738281-1.34375 17.25 1.089843 30.761719 15.480468 30.761719 32.757812 0 17.285156-13.519531 31.671875-30.777343 32.757812-.105469.007813-.210938.011719-.316407.011719zm5.015625-54.574219v43.605469c9.34375-2.902343 16.078125-11.628906 16.078125-21.800781s-6.734375-18.902344-16.078125-21.804688zm0 0"/><path d="m91.089844 190.863281c-.101563 0-.207032-.003906-.3125-.011719-17.257813-1.082031-30.78125-15.472656-30.78125-32.757812 0-17.28125 13.515625-31.667969 30.765625-32.757812 1.375-.105469 2.730469.398437 3.738281 1.34375 1.007812.941406 1.578125 2.261718 1.578125 3.644531l.011719 55.476562c.019531 1.390625-.542969 2.726563-1.554688 3.683594-.929687.886719-2.164062 1.378906-3.445312 1.378906zm-5.011719-54.574219c-9.34375 2.902344-16.082031 11.632813-16.082031 21.804688 0 10.167969 6.734375 18.898438 16.082031 21.800781zm0 0"/><path d="m166.492188 323.957031c-29.835938 0-56.351563-20.628906-64.484376-50.167969-.632812-2.3125.460938-4.75 2.613282-5.8125l12.246094-6.039062c.320312-.183594.636718-.328125.988281-.488281 3.734375-1.691407 8.703125-4.761719 8.703125-11.832031v-6.582032c0-1.683594.847656-3.253906 2.253906-4.179687 1.410156-.925781 3.1875-1.074219 4.734375-.40625 7.832031 3.398437 16.152344 5.121093 24.730469 5.121093h16.429687c8.578125 0 16.898438-1.71875 24.730469-5.121093 1.546875-.667969 3.320312-.515625 4.734375.40625 1.40625.925781 2.253906 2.496093 2.253906 4.179687v6.582032c0 6.941406 4.660157 10 9.21875 12.074218.585938.265625 1.0625.484375 1.507813.753906l11.210937 5.527344c2.148438 1.0625 3.246094 3.5 2.609375 5.8125-8.125 29.539063-34.640625 50.171875-64.480468 50.171875zm-53.617188-48.90625c8.097656 23.101563 29.601562 38.90625 53.617188 38.90625 24.015624 0 45.519531-15.804687 53.621093-38.90625l-7.652343-3.773437c-.164063-.078125-.320313-.167969-.472657-.261719-.128906-.066406-.292969-.136719-.484375-.222656-9.78125-4.453125-14.847656-11.367188-15.0625-20.558594-7.003906 2.214844-14.285156 3.335937-21.730468 3.335937h-16.429688c-7.445312 0-14.726562-1.121093-21.726562-3.335937-.160157 6.476563-2.898438 15.03125-14.566407 20.324219l-.207031.09375c-.089844.050781-.183594.101562-.28125.148437zm98.664062-4.359375c.085938.070313.199219.164063.351563.257813-.121094-.078125-.238281-.164063-.351563-.257813zm-89.0625-.527344c0 .003907-.003906.007813-.003906.007813s.003906-.003906.003906-.007813zm0 0"/><path d="m201.707031 358.949219c-4.910156 0-9.90625-.929688-14.796875-2.835938-15.675781-6.109375-25.417968-20.34375-25.417968-37.15625 0-2.761719 2.238281-5 5-5 25.351562 0 47.902343-17.609375 54.84375-42.824219.394531-1.4375 1.410156-2.621093 2.773437-3.234374 1.359375-.609376 2.921875-.585938 4.257813.078124l6.546874 3.226563c6.671876 2.261719 13.542969 4.285156 20.429688 6.027344 2.46875.625 4.074219 3 3.734375 5.523437-3.425781 25.128906-13 46.40625-28.464844 63.238282-7.785156 8.472656-18.128906 12.953124-28.90625 12.957031zm-29.867187-35.214844c1.820312 12.238281 10.511718 19.871094 18.703125 23.0625 9.167969 3.570313 22.574219 3.460937 32.707031-7.570313 13.160156-14.320312 21.644531-32.285156 25.25-53.449218-5.773438-1.558594-11.511719-3.304688-17.113281-5.210938-.207031-.070312-.402344-.15625-.597657-.25l-1.652343-.8125c-9.164063 24.746094-31.613281 42.097656-57.296875 44.230469zm0 0"/><path d="m131.28125 358.945312c-10.78125 0-21.121094-4.480468-28.90625-12.957031-15.46875-16.832031-25.046875-38.113281-28.464844-63.25-.34375-2.511719 1.25-4.882812 3.707032-5.515625 7.320312-1.882812 14.546874-4.082031 21.488281-6.53125l5.515625-2.71875c1.335937-.660156 2.902344-.6875 4.257812-.078125 1.359375.613281 2.375 1.796875 2.769532 3.234375 6.941406 25.214844 29.496093 42.828125 54.84375 42.828125 2.761718 0 5 2.238281 5 5 0 16.808594-9.742188 31.046875-25.417969 37.152344-4.886719 1.90625-9.886719 2.835937-14.792969 2.835937zm-46.796875-73.203124c3.601563 21.179687 12.085937 39.152343 25.25 53.484374 10.136719 11.027344 23.542969 11.140626 32.710937 7.566407 8.1875-3.191407 16.875-10.820313 18.699219-23.058594-25.675781-2.128906-48.128906-19.484375-57.296875-44.230469l-.589844.289063c-.175781.085937-.355468.164062-.539062.230469-5.914062 2.09375-12.03125 4.011718-18.234375 5.71875zm0 0"/><path d="m261.109375 144.824219c-1.421875 0-2.800781-.605469-3.769531-1.710938-4.054688-4.644531-9.648438-7.414062-15.746094-7.800781-2.632812-.164062-4.683594-2.351562-4.683594-4.988281v-4.109375c0-40.195313-38.96875-46.195313-62.203125-46.195313h-16.429687c-23.230469 0-62.199219 6-62.199219 46.195313v4.109375c0 2.636719-2.050781 4.824219-4.683594 4.988281-5.585937.355469-10.847656 2.761719-14.8125 6.78125-1.339843 1.359375-3.339843 1.832031-5.152343 1.222656s-3.117188-2.199218-3.363282-4.09375c-.625-4.839844-.945312-9.65625-.945312-14.308594 0-57.90625 44.867187-105.019531 100.019531-105.019531s100.023437 47.113281 100.023437 105.019531c0 5.195313-.375 10.449219-1.105468 15.617188-.277344 1.933594-1.65625 3.53125-3.53125 4.089844-.46875.136718-.945313.203125-1.417969.203125zm-14.199219-18.859375c3.59375.75 7.007813 2.097656 10.125 3.980468.085938-1.679687.125-3.359374.125-5.035156 0-52.394531-40.378906-95.019531-90.019531-95.019531s-90.023437 42.625-90.023437 95.019531c0 1.425782.035156 2.867188.097656 4.320313 2.777344-1.503907 5.757812-2.605469 8.859375-3.261719.121093-35.5625 26.417969-55.953125 72.203125-55.953125h16.429687c45.78125 0 72.078125 20.390625 72.203125 55.949219zm0 0"/><path d="m167.648438 427.152344h-2.3125c-7.96875 0-14.453126-6.484375-14.453126-14.457032v-68.621093c0-1.371094.5625-2.679688 1.554688-3.621094 4.128906-3.925781 9.054688-10.839844 9.054688-21.496094 0-2.761719 2.238281-5 5-5 2.761718 0 5 2.238281 5 5 0 10.65625 4.921874 17.570313 9.054687 21.496094.992187.941406 1.554687 2.253906 1.554687 3.621094v68.621093c.003907 7.972657-6.480468 14.457032-14.453124 14.457032zm-6.765626-81.011719v66.558594c0 2.457031 1.996094 4.453125 4.453126 4.453125h2.3125c2.460937 0 4.457031-1.996094 4.457031-4.453125v-66.558594c-2.195313-2.335937-4.074219-4.898437-5.613281-7.652344-1.535157 2.75-3.414063 5.316407-5.609376 7.652344zm0 0"/></g></svg>