<svg height="511pt" viewBox="-88 0 511 511.93997" width="511pt" xmlns="http://www.w3.org/2000/svg"><path d="m145.085938 268.496094c2.136718.820312 3.496093 2.945312 3.496093 5.234375v3.050781h38.378907v-3.050781c0-2.292969 1.359374-4.414063 3.5-5.234375 7.058593-2.710938 12.070312-7.507813 15.054687-11.09375-1.6875-2.6875-2.632813-5.839844-2.632813-9.136719v-10.585937c-6.546874 3.230468-12.074218 5.648437-18.683593 7.375-5.585938 1.464843-11.308594 2.152343-17.03125 2.097656-.027344 0-.058594.003906-.089844.003906-.378906 0-.753906-.035156-1.132813-.042969-.84375-.023437-1.6875-.039062-2.53125-.09375-6.640624-.398437-13.058593-1.855469-19.152343-4.207031-3.808594-1.414062-7.503907-3.113281-11.597657-5.132812v10.585937c0 3.296875-.945312 6.449219-2.632812 9.136719 2.984375 3.585937 8 8.382812 15.054688 11.09375zm0 0" fill="#fcb275"/><path d="m124.566406 8.734375c-23.140625 10.679687-55.882812 26.65625-49.191406 75.65625.902344 6.582031-.742188 13.140625-4.023438 18.914063-1.546874 2.722656-2.429687 5.867187-2.429687 9.222656 0 5.765625 2.605469 10.910156 6.695313 14.347656 1.046874.886719 1.046874 2.445312 0 3.332031-4.089844 3.441407-6.695313 8.585938-6.695313 14.347657 0 5.765624 2.605469 10.910156 6.695313 14.347656 1.046874.886718 1.046874 2.449218 0 3.332031-4.089844 3.441406-6.695313 8.585937-6.695313 14.347656 0 5.765625 2.605469 10.910157 6.695313 14.351563 1.046874.882812 1.046874 2.445312 0 3.328125-4.089844 3.441406-6.695313 8.585937-6.695313 14.351562 0 5.761719 2.605469 10.90625 6.695313 14.347657 1.046874.882812 1.046874 2.445312 0 3.328124-4.089844 3.441407-6.695313 8.585938-6.695313 14.351563 0 5.761719 2.605469 10.90625 6.695313 14.347656 1.050781.886719 1.046874 2.449219-.003907 3.332031-4.5625 3.839844-7.277343 9.800782-6.582031 16.375.90625 8.632813 7.902344 15.679688 16.53125 16.632813 11.332031 1.253906 20.925781-7.582031 20.925781-18.660156 0-5.765625-2.605469-10.90625-6.695312-14.351563-1.050781-.882812-1.050781-2.445312 0-3.328125 4.089843-3.441406 6.695312-8.585937 6.695312-14.347656 0-5.765625-2.605469-10.910156-6.695312-14.351563-1.050781-.882812-1.050781-2.445312 0-3.328124 4.089843-3.441407 6.695312-8.585938 6.695312-14.347657 0-5.765625-2.605469-10.910156-6.695312-14.351562-1.050781-.882813-1.050781-2.445313 0-3.328125 4.089843-3.445313 6.695312-8.585938 6.695312-14.351563 0-5.761719-2.605469-10.90625-6.695312-14.347656-1.050781-.882813-1.050781-2.445313 0-3.332031 4.089843-3.441406 6.695312-8.585938 6.695312-14.347656 0-5.765626-2.605469-10.910157-6.699219-14.351563-1.050781-.886719-1.042968-2.445313.007813-3.328125 4.5625-3.839844 7.273437-9.800781 6.585937-16.375-.238281-2.25-.894531-4.386719-1.882812-6.339844-.730469-1.449218.140625-3.179687 1.738281-3.476562 6.71875-1.257813 21.292969-5.445313 30.195313-18.800782 7.753906-11.628906 25.699218-9.886718 31.628906 1.980469v-67.222656s-17.792969-19.769531-43.496094-7.90625zm0 0" fill="#7c292e"/><path d="m211.554688 8.734375c23.144531 10.679687 55.886718 26.65625 49.191406 75.65625-.898438 6.582031.746094 13.140625 4.027344 18.914063 1.542968 2.722656 2.429687 5.867187 2.429687 9.222656 0 5.765625-2.605469 10.910156-6.695313 14.347656-1.050781.886719-1.050781 2.445312 0 3.332031 4.089844 3.441407 6.695313 8.585938 6.695313 14.347657 0 5.765624-2.605469 10.910156-6.695313 14.347656-1.050781.886718-1.050781 2.449218 0 3.332031 4.089844 3.441406 6.695313 8.585937 6.695313 14.347656 0 5.765625-2.605469 10.910157-6.695313 14.351563-1.050781.882812-1.050781 2.445312 0 3.328125 4.089844 3.441406 6.695313 8.585937 6.695313 14.351562 0 5.761719-2.605469 10.90625-6.695313 14.347657-1.050781.882812-1.050781 2.445312 0 3.328124 4.089844 3.441407 6.695313 8.585938 6.695313 14.351563 0 5.761719-2.605469 10.90625-6.695313 14.347656-1.050781.886719-1.050781 2.449219.003907 3.332031 4.558593 3.839844 7.273437 9.800782 6.582031 16.375-.90625 8.632813-7.902344 15.679688-16.53125 16.632813-11.332031 1.253906-20.925781-7.582031-20.925781-18.660156 0-5.765625 2.601562-10.90625 6.691406-14.351563 1.050781-.882812 1.050781-2.445312 0-3.328125-4.089844-3.441406-6.691406-8.585937-6.691406-14.347656 0-5.765625 2.601562-10.910156 6.691406-14.351563 1.050781-.882812 1.050781-2.445312 0-3.328124-4.089844-3.441407-6.691406-8.585938-6.691406-14.347657 0-5.765625 2.601562-10.910156 6.691406-14.351562 1.050781-.882813 1.050781-2.445313 0-3.328125-4.089844-3.445313-6.691406-8.585938-6.691406-14.351563 0-5.761719 2.601562-10.90625 6.691406-14.347656 1.050781-.882813 1.050781-2.445313 0-3.332031-4.089844-3.441406-6.691406-8.585938-6.691406-14.347656 0-5.765626 2.605469-10.910157 6.699219-14.351563 1.050781-.886719 1.042968-2.445313-.007813-3.328125-4.5625-3.839844-7.277344-9.800781-6.585937-16.375.234374-2.25.890624-4.386719 1.878906-6.339844.734375-1.449218-.136719-3.179687-1.734375-3.476562-6.71875-1.257813-21.289063-5.445313-30.195313-18.800782-7.753906-11.628906-25.703125-9.886718-31.632812 1.980469v-67.222656c.003906 0 17.796875-19.769531 43.496094-7.90625zm0 0" fill="#7c292e"/><path d="m229.636719 208.609375c0-5.761719 2.605469-10.90625 6.695312-14.347656 1.050781-.886719 1.050781-2.449219 0-3.332031-4.089843-3.441407-6.695312-8.585938-6.695312-14.347657 0-5.765625 2.605469-10.90625 6.695312-14.351562 1.050781-.882813 1.050781-2.445313 0-3.328125-4.089843-3.441406-6.695312-8.585938-6.695312-14.347656 0-5.765626 2.605469-10.914063 6.699219-14.355469 1.050781-.882813 1.042968-2.441407-.007813-3.328125-4.558594-3.839844-7.273437-9.800782-6.585937-16.375.238281-2.25.894531-4.386719 1.882812-6.339844.734375-1.449219-.140625-3.179688-1.738281-3.476562-6.71875-1.257813-21.289063-5.445313-30.191407-18.796876-7.753906-11.632812-25.703124-9.886718-31.632812 1.976563-5.933594-11.863281-23.878906-13.605469-31.632812-1.976563-8.902344 13.351563-23.476563 17.539063-30.195313 18.796876-1.597656.300781-2.46875 2.027343-1.734375 3.476562.988281 1.953125 1.644531 4.089844 1.878906 6.339844.691406 6.574218-2.023437 12.535156-6.585937 16.375-1.050781.886718-1.058594 2.445312-.007813 3.328125 4.09375 3.441406 6.699219 8.589843 6.699219 14.355469 0 5.761718-2.601563 10.90625-6.691406 14.347656-1.050781.882812-1.050781 2.445312 0 3.328125 4.089843 3.445312 6.691406 8.585937 6.691406 14.351562s-2.601563 10.90625-6.691406 14.347657c-1.050781.882812-1.050781 2.445312 0 3.332031 4.089843 3.441406 6.691406 8.585937 6.691406 14.347656 0 3.21875-.835937 6.234375-2.265625 8.875 3.976562 5.746094 9.34375 10.566406 15.863281 13.839844 13.191407 6.625 20.890625 11.019531 31.261719 13.730469 10.777344 2.820312 22.078125 2.820312 32.855469 0 10.371093-2.710938 18.074219-7.105469 31.261719-13.730469 6.695312-3.363281 12.1875-8.347657 16.1875-14.300781-1.273438-2.535157-2.011719-5.382813-2.011719-8.414063zm0 0" fill="#fcb275"/><path d="m330.058594 492.933594-9.691406-174.019532c-.734376-13.140624-9.925782-24.28125-22.6875-27.492187l-33.59375-8.453125c-3.003907 4.535156-7.910157 7.738281-13.523438 8.359375-11.332031 1.253906-20.925781-7.585937-20.925781-18.664063 0-.164062.023437-.324218.027343-.488281l-2.566406-1.269531c-.035156.523438-.203125 1.042969-.582031 1.460938-14.386719 15.699218-30.316406 21.105468-39.550781 22.964843h-38.378906c-9.234376-1.859375-25.164063-7.265625-39.550782-22.964843-.382812-.417969-.546875-.933594-.582031-1.460938l-2.007813.992188c.007813.257812.042969.507812.042969.765624 0 11.078126-9.59375 19.917969-20.925781 18.664063-5.664062-.625-10.609375-3.886719-13.605469-8.484375l-34.089843 8.578125c-12.761719 3.210937-21.953126 14.351563-22.683594 27.492187l-9.695313 174.019532c-.421875 7.605468 5.632813 14.007812 13.25 14.007812h298.070313c7.621094 0 13.671875-6.402344 13.25-14.007812zm0 0" fill="#fc5d4c"/><path d="m316.808594 506.941406c7.617187 0 13.671875-6.402344 13.25-14.007812l-9.691406-174.019532c-.703126-12.605468-9.199219-23.34375-21.148438-27.039062-19.679688 14.007812-32.59375 36.980469-32.59375 62.835938v152.230468zm0 0" fill="#3f3f3f"/><path d="m68.925781 354.710938c0-25.855469-12.914062-48.828126-32.59375-62.835938-11.953125 3.695312-20.445312 14.433594-21.148437 27.039062l-9.691406 174.019532c-.425782 7.605468 5.628906 14.007812 13.246093 14.007812h50.1875zm0 0" fill="#3f3f3f"/><path d="m148.582031 276.78125h38.378907v18.550781h-38.378907zm0 0" fill="#fc5d4c"/><path d="m145.085938 268.496094c-7.183594-2.761719-12.265626-7.6875-15.226563-11.292969-1.859375-2.253906-5.21875-2.476563-7.367187-.496094l-13.292969 12.246094c-.976563.898437-1.0625 2.433594-.167969 3.410156 14.386719 15.703125 30.316406 21.109375 39.550781 22.96875v-21.601562c0-2.289063-1.355469-4.414063-3.496093-5.234375zm0 0" fill="#3f3f3f"/><path d="m226.347656 268.953125-13.296875-12.246094c-2.148437-1.980469-5.507812-1.757812-7.363281.496094-2.964844 3.605469-8.042969 8.53125-15.226562 11.292969-2.140626.820312-3.5 2.945312-3.5 5.234375v21.601562c9.234374-1.859375 25.164062-7.265625 39.554687-22.96875.894531-.976562.808594-2.511719-.167969-3.410156zm0 0" fill="#3f3f3f"/><path d="m128.949219 376.582031 34.328125 11.035157c2.925781.9375 6.070312.941406 8.996094.003906l34.324218-10.984375c1.851563-.589844 2.953125-2.492188 2.550782-4.394531l-16.539063-78.320313c-2.066406.613281-3.972656 1.070313-5.648437 1.410156h-38.378907c-1.679687-.339843-3.585937-.796875-5.65625-1.410156l-16.527343 78.269531c-.402344 1.902344.699218 3.796875 2.550781 4.390625zm0 0" fill="#e8e6e6"/><path d="m216.367188 427.945312-10.765626-50.988281-33.328124 10.667969c-2.925782.933594-6.074219.933594-8.996094-.007812l-33.335938-10.710938-10.761718 50.976562c-.472657 2.234376.820312 4.464844 2.992187 5.160157l40.316406 12.960937c3.4375 1.101563 7.132813 1.105469 10.566407.003906l40.3125-12.898437c2.175781-.699219 3.472656-2.925781 3-5.164063zm0 0" fill="#e8e6e6"/><g fill="#231f20"><path d="m167.703125 208.617188c-9 0-17.382813-4.457032-22.425781-11.921876-1.546875-2.289062-.945313-5.394531 1.34375-6.941406 2.289062-1.546875 5.398437-.945312 6.941406 1.34375 3.183594 4.707032 8.46875 7.519532 14.140625 7.519532s10.957031-2.8125 14.136719-7.519532c1.546875-2.289062 4.660156-2.882812 6.941406-1.339844 2.289062 1.542969 2.890625 4.652344 1.34375 6.941407-5.046875 7.460937-13.425781 11.917969-22.421875 11.917969zm0 0"/><path d="m205.527344 138.183594c-.792969 0-1.59375-.191406-2.34375-.585938-1.199219-.636718-3.996094-1.382812-7.945313-1.382812s-6.75.746094-7.949219 1.382812c-2.433593 1.292969-5.464843.371094-6.761718-2.066406s-.375-5.46875 2.066406-6.761719c3.046875-1.625 7.65625-2.554687 12.640625-2.554687s9.59375.929687 12.640625 2.554687c2.441406 1.292969 3.363281 4.324219 2.066406 6.761719-.894531 1.6875-2.625 2.652344-4.414062 2.652344zm0 0"/><path d="m129.617188 138.183594c-1.792969 0-3.519532-.964844-4.421876-2.65625-1.292968-2.4375-.371093-5.464844 2.070313-6.761719 3.050781-1.621094 7.660156-2.550781 12.640625-2.550781 4.984375 0 9.59375.929687 12.640625 2.550781 2.441406 1.296875 3.363281 4.324219 2.066406 6.761719s-4.324219 3.363281-6.761719 2.066406c-1.199218-.636719-3.996093-1.378906-7.949218-1.378906-3.945313 0-6.746094.742187-7.949219 1.382812-.742187.394532-1.546875.585938-2.335937.585938zm0 0"/><path d="m140.726562 158.066406c-3.3125 0-6-2.683594-6-6v-1.125c0-3.3125 2.6875-6 6-6 3.316407 0 6 2.6875 6 6v1.125c0 3.316406-2.683593 6-6 6zm0 0"/><path d="m194.675781 158.933594c-3.316406 0-6-2.6875-6-6v-1.128906c0-3.3125 2.683594-6 6-6 3.3125 0 6 2.6875 6 6v1.128906c0 3.308594-2.6875 6-6 6zm0 0"/><path d="m186.964844 281.78125h-38.378906c-2.761719 0-5-2.238281-5-5v-3.050781c0-.28125-.152344-.511719-.292969-.566407-8.078125-3.105468-13.761719-8.542968-17.101563-12.558593-1.386718-1.664063-1.542968-4.027344-.394531-5.859375 1.222656-1.945313 1.867187-4.1875 1.867187-6.480469v-10.585937c0-1.726563.894532-3.332032 2.363282-4.246094 1.464844-.914063 3.304687-1 4.855468-.238282 4.570313 2.257813 7.894532 3.734376 11.121094 4.929688 5.800782 2.238281 11.742188 3.542969 17.710938 3.902344.667968.042968 1.296875.0625 1.925781.078125l.445313.011719c.183593 0 .40625.011718.632812.023437l.320312.011719c.292969-.003906.484376.003906.714844 0 5.1875 0 10.277344-.648438 15.1875-1.933594 6.222656-1.628906 11.402344-3.898438 17.734375-7.023438 1.550781-.765624 3.382813-.675781 4.851563.234376 1.46875.914062 2.363281 2.519531 2.363281 4.25v10.582031c0 2.292969.644531 4.535156 1.867187 6.484375 1.148438 1.832031.988282 4.195312-.394531 5.855468-3.34375 4.015626-9.027343 9.453126-17.101562 12.558594-.140625.054688-.292969.289063-.292969.566406v3.050782c-.003906 2.765625-2.242188 5.003906-5.003906 5.003906zm-33.5625-10h28.738281c.664063-3.578125 3.125-6.644531 6.527344-7.953125 4.609375-1.769531 8.230469-4.613281 10.839843-7.238281-1.066406-2.636719-1.625-5.460938-1.625-8.324219v-2.726563c-4.015624 1.742188-7.992187 3.195313-12.417968 4.351563-5.90625 1.546875-11.984375 2.285156-18.21875 2.261719-.429688.019531-.714844-.007813-1.058594-.027344l-.8125-.027344c-.765625-.019531-1.53125-.042968-2.296875-.089844-6.960937-.417968-13.914063-1.945312-20.617187-4.53125-1.546876-.574218-3.113282-1.203124-4.796876-1.9375v2.722657c0 2.867187-.554687 5.691406-1.621093 8.328125 2.605469 2.621094 6.226562 5.464844 10.835937 7.238281h.003906c3.402344 1.308594 5.855469 4.375 6.519532 7.953125zm0 0"/><path d="m87.652344 296.441406c-.875 0-1.761719-.046875-2.640625-.144531-10.984375-1.21875-19.796875-10.082031-20.957031-21.082031-.714844-6.839844 1.535156-13.574219 6.089843-18.5625-3.984375-4.355469-6.21875-10.042969-6.21875-16.015625 0-5.972657 2.234375-11.660157 6.21875-16.011719-3.984375-4.355469-6.21875-10.042969-6.21875-16.011719 0-5.972656 2.234375-11.660156 6.21875-16.015625-3.984375-4.355468-6.21875-10.042968-6.21875-16.015625 0-5.96875 2.234375-11.65625 6.21875-16.011719-3.984375-4.355468-6.21875-10.042968-6.21875-16.015624 0-5.972657 2.234375-11.660157 6.21875-16.011719-3.984375-4.355469-6.21875-10.042969-6.21875-16.011719 0-4.101562 1.0625-8.144531 3.078125-11.691406 2.941406-5.175782 4.121094-10.628906 3.417969-15.769532-7.304687-53.480468 29.851563-70.628906 52.050781-80.875 22.976563-10.601562 42.300782 1.320313 49.308594 9.101563.824219.917969 1.28125 2.109375 1.28125 3.34375v67.21875c0 2.320313-1.59375 4.335937-3.851562 4.867187-2.253907.535157-4.582032-.554687-5.621094-2.628906-2.027344-4.050781-6.324219-6.757812-11.222656-7.0625-4.832032-.316406-9.230469 1.796875-11.777344 5.621094-8.78125 13.167969-22.523438 18.324219-30.355469 20.265625.5625 1.636719.933594 3.332031 1.117187 5.054687.71875 6.835938-1.53125 13.574219-6.085937 18.5625 3.984375 4.355469 6.21875 10.042969 6.21875 16.015626 0 5.96875-2.234375 11.65625-6.21875 16.011718 3.984375 4.359375 6.21875 10.042969 6.21875 16.015625 0 5.972657-2.234375 11.65625-6.21875 16.015625 3.984375 4.355469 6.21875 10.039063 6.21875 16.011719s-2.234375 11.660156-6.21875 16.015625c3.984375 4.355469 6.21875 10.039062 6.21875 16.011719 0 5.972656-2.234375 11.660156-6.21875 16.015625 3.984375 4.355468 6.21875 10.042968 6.21875 16.011718 0 6.757813-2.882813 13.214844-7.921875 17.722657-4.371094 3.914062-10.054688 6.054687-15.910156 6.054687zm53.367187-286.488281c-4.335937 0-9.152343.917969-14.355469 3.320313-22.214843 10.253906-52.636718 24.292968-46.335937 70.4375 1.003906 7.335937-.597656 14.964843-4.628906 22.0625-1.160157 2.046874-1.773438 4.378906-1.773438 6.753906 0 4.058594 1.789063 7.894531 4.910157 10.519531 1.632812 1.375 2.566406 3.378906 2.566406 5.492187 0 2.117188-.933594 4.117188-2.566406 5.492188-3.121094 2.625-4.910157 6.460938-4.910157 10.523438s1.789063 7.894531 4.910157 10.519531c1.632812 1.378906 2.570312 3.378906 2.566406 5.496093 0 2.117188-.933594 4.117188-2.566406 5.488282-3.121094 2.628906-4.910157 6.464844-4.910157 10.523437 0 4.058594 1.789063 7.894531 4.910157 10.523438 1.632812 1.375 2.566406 3.375 2.566406 5.492187 0 2.113282-.933594 4.117188-2.566406 5.492188-3.121094 2.625-4.910157 6.460937-4.910157 10.523437s1.789063 7.894531 4.910157 10.519531c1.632812 1.375 2.566406 3.378907 2.566406 5.492188 0 2.117188-.933594 4.117188-2.566406 5.492188-3.121094 2.625-4.910157 6.460937-4.910157 10.523437 0 4.058594 1.789063 7.894531 4.910157 10.519531 1.632812 1.375 2.566406 3.375 2.566406 5.488282 0 2.117187-.933594 4.121093-2.566406 5.496093-3.558594 2.996094-5.320313 7.382813-4.835938 12.03125.660156 6.253907 5.867188 11.492188 12.113281 12.183594 3.976563.441406 7.820313-.769531 10.78125-3.417969 2.917969-2.617187 4.59375-6.359375 4.59375-10.273437 0-4.058594-1.792969-7.894531-4.914062-10.523438-1.628907-1.371093-2.566407-3.375-2.566407-5.492187 0-2.113282.9375-4.117188 2.566407-5.492188 3.125-2.625 4.914062-6.460937 4.914062-10.519531 0-4.0625-1.792969-7.898437-4.914062-10.523437-1.628907-1.375-2.566407-3.375-2.566407-5.492188 0-2.113281.9375-4.117188 2.566407-5.492188 3.125-2.625 4.914062-6.460937 4.914062-10.519531 0-4.0625-1.792969-7.898437-4.914062-10.523437-1.628907-1.375-2.566407-3.375-2.566407-5.492188 0-2.117187.9375-4.117187 2.566407-5.488281 3.125-2.628906 4.914062-6.464844 4.914062-10.527344 0-4.058593-1.792969-7.890625-4.914062-10.523437-1.628907-1.371094-2.566407-3.371094-2.566407-5.488282 0-2.113281.933594-4.117187 2.566407-5.492187 3.125-2.625 4.914062-6.460937 4.914062-10.523437s-1.792969-7.898438-4.917969-10.527344c-1.628906-1.371094-2.566406-3.371094-2.566406-5.484375 0-2.117188.941406-4.121094 2.574219-5.496094 3.558594-2.996094 5.316406-7.375 4.828125-12.023437-.167969-1.59375-.625-3.144532-1.367188-4.605469-1.0625-2.101563-1.078124-4.519531-.039062-6.628907 1.035156-2.085937 3.019531-3.589843 5.3125-4.019531 5.449219-1.023437 18.972656-4.683593 26.957031-16.65625 4.546875-6.824219 12.3125-10.578125 20.71875-10.058593 3.609375.226562 7.042969 1.234374 10.074219 2.878906v-53.199219c-2.984375-2.707031-10.914062-8.78125-22.042969-8.78125zm-16.453125-1.21875h.019532zm0 0"/><path d="m248.46875 296.441406c-5.851562 0-11.535156-2.140625-15.910156-6.054687-5.035156-4.507813-7.921875-10.964844-7.921875-17.722657 0-5.96875 2.238281-11.65625 6.222656-16.011718-3.984375-4.355469-6.222656-10.042969-6.222656-16.011719 0-5.972656 2.238281-11.660156 6.222656-16.015625-3.984375-4.355469-6.222656-10.042969-6.222656-16.011719 0-5.972656 2.238281-11.660156 6.222656-16.011719-3.984375-4.359374-6.222656-10.042968-6.222656-16.015624 0-5.972657 2.238281-11.65625 6.222656-16.015626-3.984375-4.351562-6.222656-10.039062-6.222656-16.011718s2.238281-11.660156 6.222656-16.015625c-4.554687-4.988281-6.804687-11.726563-6.085937-18.5625.179687-1.722657.550781-3.414063 1.113281-5.050781-7.828125-1.945313-21.570313-7.097657-30.351563-20.269532-2.546875-3.816406-6.941406-5.929687-11.78125-5.621094-4.894531.304688-9.195312 3.011719-11.21875 7.0625-1.039062 2.074219-3.371094 3.164063-5.621094 2.628907-2.257812-.53125-3.851562-2.546875-3.851562-4.867188v-67.222656c0-1.234375.457031-2.425781 1.285156-3.34375 7.003906-7.785156 26.328125-19.703125 49.304688-9.101563 22.199218 10.246094 59.359375 27.394532 52.046875 80.871094-.703125 5.140625.480469 10.59375 3.417969 15.765625 2.015624 3.554688 3.082031 7.597657 3.082031 11.695313 0 5.96875-2.234375 11.65625-6.222657 16.011718 3.988282 4.355469 6.222657 10.042969 6.222657 16.015626 0 5.972656-2.234375 11.65625-6.222657 16.011718 3.988282 4.359375 6.222657 10.042969 6.222657 16.015625 0 5.972657-2.234375 11.660157-6.222657 16.015625 3.988282 4.355469 6.222657 10.039063 6.222657 16.011719 0 5.96875-2.234375 11.660156-6.222657 16.015625 3.988282 4.355469 6.222657 10.039062 6.222657 16.011719 0 5.972656-2.234375 11.660156-6.222657 16.015625 4.558594 4.988281 6.808594 11.726562 6.089844 18.5625-1.15625 11-9.964844 19.863281-20.953125 21.082031-.882812.097656-1.765625.144531-2.644531.144531zm-63.78125-227.433594c7.820312 0 14.898438 3.703126 19.167969 10.101563 7.984375 11.976563 21.507812 15.636719 26.953125 16.65625 2.296875.433594 4.285156 1.9375 5.3125 4.023437 1.042968 2.109376 1.027344 4.527344-.039063 6.628907-.738281 1.460937-1.199219 3.011719-1.367187 4.605469-.488282 4.648437 1.273437 9.03125 4.832031 12.027343 1.632813 1.375 2.570313 3.375 2.574219 5.492188 0 2.113281-.933594 4.109375-2.5625 5.484375-3.128906 2.628906-4.921875 6.464844-4.921875 10.527344s1.792969 7.894531 4.914062 10.523437c1.632813 1.375 2.570313 3.378906 2.570313 5.492187-.003906 2.117188-.9375 4.117188-2.570313 5.492188-3.125 2.628906-4.914062 6.460938-4.914062 10.519531 0 4.0625 1.792969 7.898438 4.914062 10.527344 1.632813 1.371094 2.570313 3.375 2.570313 5.488281 0 2.117188-.9375 4.117188-2.570313 5.492188-3.125 2.628906-4.914062 6.464844-4.914062 10.523437 0 4.0625 1.792969 7.894531 4.914062 10.523438 1.632813 1.375 2.570313 3.375 2.570313 5.492187 0 2.113282-.9375 4.117188-2.570313 5.488282-3.125 2.628906-4.914062 6.464843-4.914062 10.523437 0 4.0625 1.792969 7.894531 4.914062 10.523437 1.632813 1.375 2.570313 3.375 2.570313 5.492188s-.9375 4.117188-2.570313 5.488281c-3.125 2.628907-4.914062 6.464844-4.914062 10.527344 0 3.910156 1.671875 7.65625 4.59375 10.269531 2.957031 2.652344 6.800781 3.867188 10.78125 3.421875 6.25-.691406 11.453125-5.929687 12.109375-12.1875.488281-4.648437-1.269532-9.03125-4.832032-12.027343-1.632812-1.375-2.570312-3.378907-2.570312-5.496094.003906-2.117188.9375-4.117188 2.574219-5.492188 3.117187-2.625 4.910156-6.457031 4.910156-10.519531 0-4.058594-1.792969-7.894531-4.914063-10.523437-1.632812-1.375-2.570312-3.375-2.570312-5.488282 0-2.117187.9375-4.117187 2.570312-5.492187 3.121094-2.628907 4.914063-6.460938 4.914063-10.523438 0-4.058593-1.792969-7.894531-4.914063-10.523437-1.632812-1.375-2.570312-3.375-2.570312-5.492188 0-2.117187.9375-4.117187 2.570312-5.488281 3.121094-2.628906 4.914063-6.464844 4.914063-10.527344 0-4.058593-1.792969-7.890625-4.914063-10.519531-1.632812-1.375-2.570312-3.375-2.570312-5.492188 0-2.113281.933594-4.117187 2.566406-5.492187 3.125-2.625 4.917969-6.460937 4.917969-10.523437 0-4.058594-1.792969-7.894532-4.914063-10.523438-1.632812-1.375-2.570312-3.375-2.570312-5.488281 0-2.117188.9375-4.117188 2.570312-5.492188 3.121094-2.628906 4.914063-6.460937 4.914063-10.523437 0-2.371094-.617187-4.707032-1.777344-6.753906-4.035156-7.09375-5.632812-14.726563-4.628906-22.058594 6.304687-46.144532-24.121094-60.183594-46.335937-70.4375-18.542969-8.5625-32.234376 1.683594-36.398438 5.457031v53.199219c3.035156-1.644532 6.464844-2.652344 10.070312-2.878906.519532-.03125 1.039063-.046876 1.554688-.046876zm0 0"/><path d="m167.773438 252.164062c-5.953126 0-11.90625-.757812-17.695313-2.273437-9.273437-2.425781-16.476563-6.089844-26.449219-11.164063-1.816406-.925781-3.738281-1.902343-5.792968-2.933593-7.054688-3.542969-13.1875-8.890625-17.730469-15.460938-1.070313-1.546875-1.179688-3.570312-.285157-5.226562 1.105469-2.039063 1.664063-4.226563 1.664063-6.496094 0-4.058594-1.792969-7.894531-4.914063-10.523437-1.628906-1.371094-2.566406-3.375-2.566406-5.488282 0-2.117187.9375-4.121094 2.566406-5.492187 3.125-2.628907 4.914063-6.464844 4.914063-10.527344 0-4.058594-1.792969-7.890625-4.914063-10.523437-1.628906-1.371094-2.566406-3.371094-2.566406-5.488282-.003906-2.113281.933594-4.117187 2.566406-5.492187 3.125-2.625 4.914063-6.460938 4.914063-10.523438s-1.792969-7.898437-4.917969-10.527343c-1.628906-1.371094-2.566406-3.371094-2.566406-5.484376 0-2.117187.941406-4.121093 2.574219-5.496093 3.558593-2.996094 5.316406-7.378907 4.828125-12.023438-.167969-1.59375-.625-3.144531-1.367188-4.605469-1.0625-2.101562-1.078125-4.519531-.039062-6.628906 1.035156-2.085937 3.019531-3.589844 5.3125-4.019531 5.449218-1.023437 18.972656-4.683594 26.957031-16.65625 4.546875-6.824219 12.3125-10.578125 20.71875-10.058594 5.785156.359375 11.125 2.738281 15.074219 6.523438 3.949218-3.785157 9.285156-6.160157 15.070312-6.519531 8.414063-.542969 16.171875 3.234374 20.71875 10.054687 7.984375 11.976563 21.511719 15.636719 26.957032 16.65625 2.296874.433594 4.28125 1.9375 5.3125 4.023437 1.039062 2.109376 1.027343 4.527344-.039063 6.628907-.742187 1.460937-1.199219 3.011719-1.367187 4.605469-.488282 4.648437 1.269531 9.03125 4.832031 12.027343 1.632812 1.375 2.570312 3.375 2.570312 5.492188 0 2.113281-.933593 4.109375-2.558593 5.484375-3.128907 2.628906-4.925782 6.464844-4.925782 10.527344s1.792969 7.894531 4.914063 10.523437c1.636719 1.375 2.570312 3.378906 2.570312 5.492187 0 2.117188-.9375 4.117188-2.570312 5.492188-3.125 2.628906-4.914063 6.460938-4.914063 10.519531 0 4.0625 1.792969 7.898438 4.914063 10.527344 1.632812 1.371094 2.570312 3.375 2.570312 5.492187 0 2.113282-.9375 4.117188-2.570312 5.488282-3.125 2.628906-4.914063 6.464844-4.914063 10.523437 0 2.144531.496094 4.214844 1.476563 6.160157.8125 1.613281.695312 3.539062-.3125 5.039062-4.578125 6.8125-10.832031 12.335938-18.09375 15.984375-2.054688 1.03125-3.972657 2.007813-5.792969 2.933594-9.96875 5.074219-17.175781 8.742187-26.445312 11.164062-5.78125 1.511719-11.734376 2.269531-17.6875 2.269531zm-57.789063-35.308593c3.371094 4.1875 7.59375 7.617187 12.339844 10 2.070312 1.039062 4.007812 2.023437 5.839843 2.957031 9.765626 4.972656 16.214844 8.253906 24.449219 10.40625 9.917969 2.597656 20.402344 2.597656 30.324219 0 8.222656-2.152344 14.675781-5.433594 24.441406-10.40625 1.832032-.929688 3.769532-1.917969 5.839844-2.957031 4.945312-2.484375 9.304688-6.078125 12.734375-10.484375-.875-2.492188-1.316406-5.089844-1.316406-7.761719 0-5.972656 2.238281-11.660156 6.222656-16.011719-3.984375-4.359375-6.222656-10.042968-6.222656-16.015625 0-5.972656 2.238281-11.65625 6.222656-16.015625-3.984375-4.351562-6.222656-10.039062-6.222656-16.011718 0-5.972657 2.238281-11.660157 6.222656-16.015626-4.554687-4.988281-6.804687-11.726562-6.085937-18.5625.179687-1.722656.550781-3.414062 1.113281-5.050781-7.828125-1.945312-21.570313-7.097656-30.351563-20.265625-2.546875-3.820312-6.941406-5.933594-11.78125-5.625-4.894531.304688-9.195312 3.011719-11.21875 7.0625-.847656 1.691406-2.578125 2.761719-4.472656 2.761719s-3.621094-1.070313-4.46875-2.761719c-2.027344-4.050781-6.328125-6.757812-11.222656-7.0625-4.832032-.316406-9.230469 1.796875-11.777344 5.621094-8.78125 13.167969-22.523438 18.324219-30.355469 20.265625.558594 1.636719.933594 3.332031 1.117188 5.054687.714843 6.835938-1.535157 13.574219-6.089844 18.5625 3.984375 4.355469 6.222656 10.042969 6.222656 16.015626 0 5.96875-2.238281 11.65625-6.222656 16.011718 3.984375 4.359375 6.222656 10.042969 6.222656 16.015625 0 5.972657-2.238281 11.65625-6.21875 16.015625 3.980469 4.355469 6.21875 10.039063 6.21875 16.011719-.003906 2.800781-.515625 5.605469-1.503906 8.246094zm0 0"/><path d="m316.808594 511.941406h-298.074219c-4.996094 0-9.835937-2.085937-13.269531-5.714844-3.433594-3.632812-5.246094-8.578124-4.96875-13.570312l9.695312-174.019531c.859375-15.410157 11.492188-28.292969 26.457032-32.0625l34.085937-8.582031c2.078125-.527344 4.242187.332031 5.410156 2.121093 2.261719 3.46875 5.984375 5.808594 9.964844 6.246094 3.992187.441406 7.824219-.769531 10.785156-3.417969 2.917969-2.617187 4.589844-6.359375 4.589844-10.273437l-.039063-.578125c-.074218-1.972656 1.015626-3.800782 2.785157-4.675782l2.011719-.988281c1.496093-.742187 3.273437-.683593 4.714843.15625 1.148438.664063 1.976563 1.75 2.320313 3.011719 13.289062 14.199219 27.917968 19.078125 35.816406 20.742188h37.359375c7.894531-1.664063 22.527344-6.546876 35.816406-20.742188.34375-1.257812 1.167969-2.347656 2.316407-3.011719 1.449218-.839843 3.21875-.898437 4.714843-.15625l2.570313 1.265625c1.746094.863282 2.835937 2.660156 2.789062 4.601563-.003906.167969-.015625.332031-.027344.496093 0 3.792969 1.675782 7.535157 4.59375 10.152344 2.960938 2.648438 6.804688 3.863282 10.785157 3.417969 3.996093-.441406 7.609375-2.683594 9.902343-6.152344 1.167969-1.765625 3.320313-2.609375 5.390626-2.085937l33.589843 8.457031c14.96875 3.769531 25.601563 16.652344 26.460938 32.0625l9.691406 174.019531c.277344 4.992188-1.535156 9.9375-4.96875 13.570313-3.433594 3.628906-8.269531 5.710937-13.269531 5.710937zm-246.816406-223.453125-30.902344 7.78125c-10.703125 2.695313-18.300782 11.90625-18.914063 22.921875l-9.695312 174.019532c-.125 2.292968.671875 4.476562 2.25 6.144531s3.710937 2.585937 6.003906 2.585937h298.074219c2.292968 0 4.429687-.917968 6.007812-2.585937 1.574219-1.667969 2.375-3.851563 2.246094-6.144531l-9.691406-174.019532c-.613282-11.015625-8.214844-20.226562-18.914063-22.921875l-30.4375-7.660156c-3.878906 4.300781-9.152343 7.046875-14.90625 7.6875-6.757812.75-13.523437-1.40625-18.554687-5.914063-3.117188-2.789062-5.414063-6.332031-6.707032-10.226562-14.433593 13.636719-29.664062 18.414062-37.902343 20.074219-.324219.066406-.65625.097656-.988281.097656h-38.378907c-.332031 0-.660156-.03125-.984375-.097656-8.15625-1.640625-23.167968-6.34375-37.464844-19.664063-1.316406 3.734375-3.558593 7.125-6.566406 9.820313-5.03125 4.503906-11.789062 6.65625-18.554687 5.910156-5.816407-.644531-11.128907-3.433594-15.019531-7.808594zm0 0"/><path d="m316.808594 511.941406h-50.183594c-2.761719 0-5-2.238281-5-5v-152.230468c0-26.4375 12.96875-51.449219 34.695312-66.910157 1.269532-.90625 2.886719-1.164062 4.375-.703125 13.941407 4.308594 23.851563 16.984375 24.664063 31.539063l9.691406 174.019531c.277344 4.992188-1.53125 9.9375-4.96875 13.570312-3.433593 3.632813-8.273437 5.714844-13.273437 5.714844zm-45.183594-10h45.183594c2.296875 0 4.429687-.917968 6.007812-2.585937s2.378906-3.847657 2.25-6.144531l-9.691406-174.019532c-.539062-9.582031-6.59375-18.027344-15.339844-21.707031-17.839844 13.675781-28.410156 34.875-28.410156 57.226563zm0 0"/><path d="m68.921875 511.941406h-50.1875c-4.996094 0-9.835937-2.085937-13.269531-5.714844-3.433594-3.632812-5.246094-8.578124-4.96875-13.570312l9.695312-174.019531c.808594-14.558594 10.722656-27.230469 24.664063-31.539063 1.488281-.460937 3.105469-.199218 4.375.703125 21.722656 15.460938 34.695312 40.472657 34.695312 66.910157v152.230468c-.003906 2.761719-2.242187 5-5.003906 5zm-33.410156-214.457031c-8.742188 3.675781-14.800781 12.121094-15.335938 21.707031l-9.695312 174.019532c-.125 2.292968.671875 4.476562 2.25 6.144531s3.710937 2.585937 6.003906 2.585937h45.1875v-147.230468c0-22.351563-10.570313-43.554688-28.410156-57.226563zm0 0"/><path d="m186.964844 300.332031h-38.378906c-2.761719 0-5-2.238281-5-5v-18.550781c0-2.761719 2.238281-5 5-5h38.378906c2.761718 0 5 2.238281 5 5v18.550781c0 2.761719-2.238282 5-5 5zm-33.382813-10h28.378907v-8.550781h-28.378907zm0 0"/><path d="m148.582031 300.332031c-.324219 0-.65625-.03125-.984375-.097656-9.074218-1.828125-26.628906-7.441406-42.25-24.492187-2.75-3-2.542968-7.695313.460938-10.464844l13.296875-12.25c2.03125-1.871094 4.765625-2.84375 7.53125-2.648438 2.75.191406 5.328125 1.519532 7.082031 3.648438 2.601562 3.167968 6.996094 7.433594 13.160156 9.800781 4.011719 1.542969 6.703125 5.523437 6.703125 9.902344v21.601562c0 1.5-.671875 2.917969-1.832031 3.871094-.898438.734375-2.019531 1.128906-3.167969 1.128906zm-34.070312-29.457031c10.265625 10.472656 21.179687 15.554688 29.070312 18.015625v-15.160156c0-.28125-.148437-.511719-.289062-.566407-8.199219-3.148437-13.929688-8.691406-17.296875-12.78125zm0 0"/><path d="m186.964844 300.332031c-1.144532 0-2.265625-.394531-3.167969-1.128906-1.160156-.949219-1.832031-2.371094-1.832031-3.871094v-21.601562c0-4.378907 2.695312-8.359375 6.703125-9.902344 6.164062-2.367187 10.558593-6.632813 13.160156-9.796875 1.75-2.128906 4.328125-3.460938 7.078125-3.652344 2.761719-.207031 5.5.773438 7.539062 2.652344l13.289063 12.246094c3.011719 2.765625 3.21875 7.460937.46875 10.464844-15.625 17.050781-33.175781 22.664062-42.25 24.492187-.328125.066406-.660156.097656-.988281.097656zm22.699218-39.949219c-3.480468 4.089844-9.210937 9.632813-17.410156 12.78125-.140625.054688-.292968.289063-.292968.566407v15.160156c7.898437-2.460937 18.816406-7.546875 29.082031-18.023437zm13.300782 12.25h.019531zm0 0"/><path d="m167.785156 393.328125c-2.035156 0-4.0625-.316406-6.039062-.953125l-34.328125-11.03125h-.003907c-4.300781-1.386719-6.84375-5.765625-5.90625-10.191406l16.527344-78.265625c.289063-1.367188 1.132813-2.546875 2.332032-3.261719 1.199218-.714844 2.644531-.894531 3.980468-.5 1.601563.476562 3.195313.882812 4.746094 1.207031h37.359375c1.546875-.328125 3.140625-.730469 4.738281-1.203125 1.339844-.398437 2.78125-.214844 3.976563.5 1.199219.714844 2.042969 1.894532 2.332031 3.261719l16.542969 78.320313c.933593 4.429687-1.613281 8.8125-5.925781 10.191406l-34.320313 10.984375c-1.96875.628906-3.988281.941406-6.011719.941406zm-36.269531-21.171875 33.292969 10.699219c1.945312.625 3.996094.625 5.941406.003906l33.285156-10.652344-15.238281-72.152343c-.28125.0625-.5625.121093-.84375.175781-.324219.066406-.65625.097656-.988281.097656h-38.378906c-.328126 0-.660157-.03125-.984376-.097656-.285156-.054688-.570312-.113281-.859374-.175781zm0 0"/><path d="m167.785156 451.835938c-2.296875 0-4.589844-.359376-6.820312-1.074219l-40.320313-12.957031c-4.628906-1.488282-7.363281-6.199219-6.355469-10.957032l10.761719-50.976562c.292969-1.382813 1.160157-2.582032 2.382813-3.292969 1.222656-.707031 2.691406-.871094 4.039062-.433594l33.335938 10.710938c1.945312.625 3.996094.625 5.941406.003906l33.328125-10.664063c1.351563-.433593 2.816406-.273437 4.039063.4375 1.222656.710938 2.085937 1.90625 2.378906 3.289063l10.765625 50.988281c1.007812 4.765625-1.730469 9.472656-6.371094 10.957032l-40.308594 12.898437c-2.222656.714844-4.511719 1.070313-6.796875 1.070313zm-43.609375-23.402344 39.847657 12.808594c2.457031.789062 5.054687.789062 7.511718 0l39.839844-12.746094-9.519531-45.089844-28.058594 8.976562c-3.941406 1.261719-8.105469 1.257813-12.046875-.003906l-28.054688-9.019531zm87.300781.546875h.019532zm0 0"/></g></svg>