<svg height="511pt" viewBox="-95 0 511 511.99859" width="511pt" xmlns="http://www.w3.org/2000/svg"><path d="m317.113281 493.550781-9.304687-167.0625c-.703125-12.617187-9.527344-23.3125-21.78125-26.394531l-39.980469-10.0625c-6.933594-1.746094-13.792969-3.773438-20.566406-6.078125l-17.6875-8.71875-3.554688-1.753906c-5.644531-2.78125-9.21875-8.527344-9.21875-14.820313v-9.96875c-6.078125 2.972656-11.324219 5.21875-17.542969 6.839844-5.378906 1.410156-10.957031 2.082031-16.527343 2.050781-.101563 0-.203125.011719-.304688.011719-3.855469 0-7.628906-.414062-11.320312-1.132812-.097657-.019532-.191407-.035157-.285157-.054688-1.035156-.207031-2.066406-.441406-3.089843-.699219-.253907-.0625-.511719-.109375-.765625-.175781-6.230469-1.625-11.484375-3.875-17.578125-6.859375v9.988281c0 6.289063-3.574219 12.035156-9.21875 14.820313l-2.621094 1.292969-17.597656 8.675781c-7.453125 2.640625-15.023438 4.929687-22.691407 6.855469l-38.878906 9.789062c-12.253906 3.082031-21.078125 13.777344-21.777344 26.394531l-9.308593 167.0625c-.40625 7.304688 5.40625 13.449219 12.71875 13.449219h286.15625c7.324219 0 13.136719-6.144531 12.726562-13.449219zm0 0" fill="#515050"/><path d="m156.128906 404.417969c3.425782 2.347656 7.957032 2.351562 11.386719 0 59.746094-40.878907 72.21875-91.03125 74.574219-115.472657-5.582032-1.496093-11.132813-3.128906-16.601563-4.992187l-3.113281-1.53125c-.710938 16.710937-7.765625 62.453125-60.550781 101.3125-53.351563-39.273437-59.984375-85.5625-60.574219-101.800781l-3.074219 1.515625c-5.484375 1.941406-11.039062 3.691406-16.640625 5.25 2.289063 24.347656 14.644532 74.699219 74.59375 115.71875zm0 0" fill="#6d6c6c"/><path d="m195.023438 258.660156v-9.96875c-6.078126 2.976563-11.324219 5.21875-17.542969 6.84375-5.378907 1.40625-10.957031 2.082032-16.527344 2.050782-.101563 0-.203125.011718-.304687.011718-3.855469 0-7.628907-.414062-11.320313-1.136718-.097656-.015626-.191406-.03125-.289063-.050782-1.035156-.207031-2.0625-.441406-3.085937-.703125-.253906-.0625-.515625-.105469-.769531-.171875-6.230469-1.628906-11.484375-3.878906-17.578125-6.859375v9.984375c0 6.292969-3.574219 12.039063-9.21875 14.824219l-1.234375.609375 38.257812 45.667969h12.402344l38.085938-45.460938-1.660157-.816406c-5.640625-2.785156-9.214843-8.53125-9.214843-14.824219zm0 0" fill="#fcb275"/><path d="m167.816406 319.761719h-12.402344l-.027343.070312c-2.515625 6.703125-6.910157 11.539063-12.152344 14.574219 3.285156 6.675781 10.136719 11.28125 18.082031 11.28125 8.070313 0 15.011719-4.75 18.234375-11.597656-5.054687-3.046875-9.285156-7.804688-11.734375-14.328125zm0 0" fill="#e04e36"/><path d="m207.796875 275.234375-1.894531-.9375-38.082032 45.460937c6.296876 16.78125 24.328126 21.964844 38.097657 16.015626 13.335937-23.035157 16.03125-43.371094 16.457031-53.351563zm0 0" fill="#e8e6e6"/><path d="m117.15625 274.089844-1.386719.683594-14.523437 7.160156c.355468 9.816406 2.941406 30.609375 16.691406 54.195312 13.679688 5.515625 31.25.21875 37.449219-16.296875l.027343-.074219zm0 0" fill="#e8e6e6"/><path d="m202.199219 341.8125c-1.25-1.363281-2.550781-2.6875-3.917969-3.929688-6.414062.863282-13.089844-.386718-18.734375-3.792968-1.90625 4.054687-5.136719 7.339844-9.117187 9.375 3.507812 5.46875 8.148437 13.382812 12.152343 22.457031 8.046875-8.074219 14.480469-16.207031 19.617188-24.109375zm0 0" fill="#e04e36"/><path d="m140.328125 365.199219c3.933594-8.78125 8.425781-16.433594 11.839844-21.753907-3.859375-1.984374-7.011719-5.140624-8.933594-9.039062-5.734375 3.320312-12.480469 4.46875-18.917969 3.46875-1.148437 1.042969-2.238281 2.144531-3.304687 3.273438 5.058593 7.875 11.378906 15.984374 19.316406 24.050781zm0 0" fill="#e04e36"/><path d="m170.433594 343.464844c-2.742188 1.402344-5.824219 2.222656-9.117188 2.222656-3.304687 0-6.398437-.832031-9.148437-2.246094-3.414063 5.320313-7.898438 12.960938-11.832031 21.734375 6.15625 6.261719 13.246093 12.496094 21.484374 18.5625l20.765626-17.816406c-4.007813-9.074219-8.644532-16.988281-12.152344-22.457031zm0 0" fill="#e8e6e6"/><path d="m231.195312 199.945312-2.195312-83.109374c-.140625-5.300782-4.242188-9.5625-9.285156-10.0625-5.347656-.53125-12.066406.890624-19.625-4.726563-8.542969-6.34375-24.914063-14.015625-44.070313-.332031-19.585937 13.988281-42 18.957031-53.894531 16.984375-4.238281-.703125-8.578125 2.203125-8.707031 7.480469l-1.949219 73.765624c-1.777344 17.417969 7.296875 34.21875 22.9375 42.078126 9.457031 4.75 16.046875 8.332031 22.875 10.964843 15.441406 5.941407 32.652344 5.941407 48.09375 0 6.828125-2.628906 13.417969-6.214843 22.878906-10.964843 15.648438-7.859376 24.71875-24.664063 22.941406-42.078126zm0 0" fill="#fcb275"/><path d="m93.40625 120.832031c-15.507812.71875-27.867188 13.472657-27.867188 29.15625 0 15.203125 11.605469 27.683594 26.441407 29.089844zm0 0" fill="#fcb275"/><path d="m229.105469 120.824219 1.539062 58.257812c14.835938-1.40625 26.445313-13.886719 26.445313-29.089843.003906-15.726563-12.421875-28.507813-27.984375-29.167969zm0 0" fill="#fcb275"/><path d="m254.6875 207.832031c-1.632812-2.371093-1.605469-5.4375-.171875-7.929687 2.292969-3.992188 3.53125-8.664063 3.308594-13.652344-.300781-6.671875-3.320313-12.71875-7.933594-17.085938-4.789063 5.488282-11.578125 9.1875-19.246094 9.914063l.550781 20.863281c1.777344 17.417969-7.292968 34.21875-22.9375 42.078125-5.175781 2.597657-9.480468 4.839844-13.449218 6.773438.074218-.035157.140625-.0625.214844-.101563v9.96875c0 2.359375.503906 4.640625 1.429687 6.722656.925781 2.078126 2.273437 3.953126 3.96875 5.496094 1.125 1.027344 2.410156 1.910156 3.820313 2.605469l1.660156.816406 1.894531.9375 17.6875 8.71875c6.683594 2.273438 13.453125 4.269531 20.292969 6 1.929687-4.910156 3-10.253906 3-15.847656 0-4.367187-.652344-8.578125-1.855469-12.550781-.808594-2.671875.003906-5.585938 2.089844-7.441406 7.277343-6.460938 11.863281-15.886719 11.863281-26.382813 0-7.394531-2.292969-14.238281-6.1875-19.902344zm0 0" fill="#7c292e"/><path d="m114.414062 242.019531c-15.644531-7.855469-24.71875-24.660156-22.941406-42.078125l.511719-20.863281c-7.785156-.738281-14.660156-4.546875-19.457031-10.175781-4.777344 4.386718-7.914063 10.539062-8.222656 17.347656-.222657 4.984375 1.015624 9.660156 3.308593 13.652344 1.433594 2.496094 1.460938 5.5625-.171875 7.929687-3.894531 5.664063-6.183594 12.507813-6.183594 19.902344 0 10.496094 4.585938 19.921875 11.859376 26.382813 2.085937 1.851562 2.898437 4.769531 2.089843 7.441406-1.203125 3.972656-1.851562 8.183594-1.851562 12.550781 0 5.636719 1.085937 11.015625 3.039062 15.957031 7.355469-1.878906 14.625-4.082031 21.777344-6.617187l17.597656-8.675781 2.621094-1.292969c1.410156-.695313 2.691406-1.574219 3.820313-2.605469 3.386718-3.082031 5.398437-7.496094 5.398437-12.214844v-9.984375c.070313.03125.132813.0625.203125.09375-3.953125-1.929687-8.246094-4.160156-13.398438-6.75zm0 0" fill="#7c292e"/><path d="m206.734375 31.9375c-1.691406-.082031-3.230469-.980469-4.210937-2.460938-7.304688-11.015624-18.058594-19.210937-30.570313-22.761718-7.058594-2.003906-14.445313-2.132813-21.667969-.992188-26.929687 4.265625-113.878906 26.40625-82.230468 132.464844 4.371093-9.847656 14.007812-16.828125 25.351562-17.355469l.019531 5.34375c.128907-5.277343 4.464844-8.183593 8.707031-7.480469 11.890626 1.976563 34.308594-2.996093 53.894532-16.984374 19.15625-13.683594 35.523437-6.011719 44.070312.332031 7.558594 5.617187 14.273438 4.195312 19.621094 4.726562 5.042969.5 9.148438 4.765625 9.289062 10.0625l.105469 3.988281c9.175781.390626 17.238281 5.015626 22.328125 11.953126 7.597656-10.417969 7.492188-27.929688 7.492188-42.183594-.003906-31.464844-23.101563-57.253906-52.199219-58.652344zm0 0" fill="#7c292e"/><g fill="#231f20"><path d="m161.441406 219.90625c-6.214844 0-11.878906-2.199219-15.539062-6.03125-1.90625-2-1.832032-5.164062.160156-7.070312 1.996094-1.90625 5.160156-1.835938 7.070312.164062 1.359376 1.417969 4.25 2.9375 8.304688 2.9375 4.058594 0 6.953125-1.519531 8.308594-2.9375 1.902344-2 5.070312-2.070312 7.066406-.164062s2.070312 5.070312.164062 7.070312c-3.65625 3.832031-9.320312 6.03125-15.535156 6.03125zm0 0"/><path d="m198.359375 148.609375c-.792969 0-1.597656-.1875-2.34375-.585937-1.25-.664063-4.117187-1.332032-7.703125-1.332032s-6.449219.667969-7.699219 1.332032c-2.4375 1.296874-5.464843.375-6.761719-2.066407-1.296874-2.4375-.371093-5.464843 2.066407-6.761719 2.996093-1.589843 7.511719-2.503906 12.394531-2.503906s9.398438.914063 12.394531 2.503906c2.4375 1.296876 3.363281 4.324219 2.066407 6.761719-.894532 1.691407-2.625 2.652344-4.414063 2.652344zm0 0"/><path d="m144.359375 148.609375c-.792969 0-1.597656-.1875-2.34375-.585937-1.25-.664063-4.117187-1.332032-7.703125-1.332032s-6.449219.667969-7.699219 1.332032c-2.4375 1.296874-5.464843.375-6.761719-2.066407-1.296874-2.4375-.371093-5.464843 2.066407-6.761719 2.996093-1.589843 7.511719-2.503906 12.394531-2.503906s9.398438.914063 12.394531 2.503906c2.4375 1.296876 3.363281 4.324219 2.066407 6.761719-.894532 1.691407-2.625 2.652344-4.414063 2.652344zm0 0"/><path d="m135.117188 168.042969c-3.316407 0-6-2.6875-6-6v-1.097657c0-3.316406 2.683593-6 6-6 3.3125 0 6 2.683594 6 6v1.097657c0 3.3125-2.683594 6-6 6zm0 0"/><path d="m187.765625 168.882812c-3.3125 0-6-2.683593-6-6v-1.097656c0-3.3125 2.6875-6 6-6 3.316406 0 6 2.6875 6 6v1.097656c0 3.316407-2.683594 6-6 6zm0 0"/><path d="m260.472656 509.261719c-2.761718 0-5-2.238281-5-5v-108.210938c0-2.761719 2.238282-5 5-5 2.765625 0 5 2.238281 5 5v108.210938c0 2.761719-2.234375 5-5 5zm0 0"/><path d="m62.160156 509.261719c-2.765625 0-5-2.238281-5-5v-108.210938c0-2.761719 2.234375-5 5-5 2.761719 0 5 2.238281 5 5v108.210938c0 2.761719-2.238281 5-5 5zm0 0"/><path d="m161.820312 411.160156c-2.984374 0-5.96875-.871094-8.519531-2.617187-60.925781-41.6875-74.234375-92.683594-76.746093-119.375-.226563-2.410157 1.304687-4.636719 3.636718-5.285157 5.40625-1.503906 10.800782-3.203124 16.035156-5.046874l2.808594-1.386719c1.519532-.75 3.316406-.675781 4.773438.195312 1.457031.867188 2.375 2.414063 2.433594 4.109375.605468 16.617188 7.289062 58.722656 55.578124 95.730469 47.972657-36.773437 54.851563-78.714844 55.554688-95.273437.074219-1.6875.992188-3.226563 2.449219-4.089844 1.453125-.859375 3.242187-.929688 4.761719-.183594l2.8125 1.390625c4.839843 1.632813 10.070312 3.203125 15.984374 4.789063 2.359376.632812 3.914063 2.878906 3.679688 5.308593-2.5625 26.636719-15.9375 77.527344-76.722656 119.121094-2.550782 1.742187-5.535156 2.613281-8.519532 2.613281zm-74.851562-118.816406c3.328125 25.820312 17.445312 70.628906 71.980469 107.945312v.003907c1.71875 1.171875 4.019531 1.171875 5.738281 0 54.375-37.203125 68.558594-81.878907 71.945312-107.660157-3.472656-.980468-6.726562-1.960937-9.824218-2.964843-2.464844 21.527343-13.835938 62.621093-62.023438 98.097656-1.765625 1.296875-4.164062 1.296875-5.929687 0-48.464844-35.679687-59.714844-76.90625-62.082031-98.535156-3.230469 1.097656-6.507813 2.136719-9.804688 3.113281zm0 0"/><path d="m161.820312 411.179688c-2.761718 0-5-2.238282-5-5v-22.441407c0-2.765625 2.238282-5 5-5 2.761719 0 5 2.234375 5 5v22.441407c0 2.761718-2.238281 5-5 5zm0 0"/><path d="m167.816406 324.761719h-12.402344c-1.476562 0-2.882812-.65625-3.832031-1.792969l-38.257812-45.667969c-.988281-1.175781-1.378907-2.738281-1.0625-4.238281.316406-1.503906 1.304687-2.777344 2.683593-3.457031l1.234376-.609375c3.964843-1.957032 6.429687-5.914063 6.429687-10.335938v-9.984375c0-1.726562.890625-3.332031 2.355469-4.242187 1.460937-.914063 3.292968-1.007813 4.84375-.25 5.695312 2.785156 10.703125 4.960937 16.644531 6.511718l.707031.160157c.964844.246093 1.90625.460937 2.859375.648437l.261719.050782c3.554688.691406 7.042969 1.042968 10.371094 1.042968.015625-.011718.394531-.011718.671875-.011718 5.101562 0 10.105469-.632813 14.894531-1.886719 5.9375-1.550781 10.933594-3.71875 16.609375-6.496094 1.550781-.757813 3.382813-.664063 4.84375.25 1.464844.914063 2.355469 2.515625 2.355469 4.242187v9.96875c0 4.417969 2.460937 8.378907 6.429687 10.335938l1.660157.820312c1.378906.675782 2.363281 1.949219 2.679687 3.453126.316406 1.5-.074219 3.066406-1.058594 4.242187l-38.085937 45.457031c-.953125 1.132813-2.359375 1.789063-3.835938 1.789063zm-10.066406-10h7.730469l32.792969-39.144531c-5.171876-4.023438-8.25-10.203126-8.25-16.957032v-2.160156c-3.597657 1.519531-7.214844 2.808594-11.277344 3.871094-5.75 1.503906-11.746094 2.230468-17.824219 2.214844.023437.003906-.125.011718-.273437.011718-3.964844 0-8.097657-.414062-12.277344-1.226562l-.300782-.054688c-1.125-.222656-2.238281-.476562-3.347656-.761718-.378906-.082032-.59375-.125-.800781-.183594-4.074219-1.0625-7.707031-2.355469-11.3125-3.886719v2.175781c0 6.597656-2.9375 12.640625-7.894531 16.671875zm0 0"/><path d="m304.394531 512h-286.15625c-4.855469 0-9.550781-2.023438-12.886719-5.550781-3.335937-3.523438-5.09375-8.328125-4.824218-13.171875l9.304687-167.066406c.828125-14.882813 11.097657-27.328126 25.550781-30.964844l38.878907-9.785156c7.382812-1.859376 14.773437-4.085938 21.960937-6.625l19.957032-9.835938c3.960937-1.957031 6.425781-5.917969 6.425781-10.335938v-9.988281c0-1.726562.890625-3.328125 2.355469-4.242187 1.464843-.910156 3.292968-1.003906 4.84375-.25 5.695312 2.789062 10.707031 4.964844 16.644531 6.515625l.71875.160156c.953125.246094 1.894531.460937 2.847656.648437l.28125.050782c3.589844.699218 6.980469 1.039062 10.351563 1.039062.015624-.011718.398437-.011718.671874-.011718 5.105469 0 10.105469-.632813 14.894532-1.886719 5.941406-1.550781 10.933594-3.71875 16.613281-6.496094 1.546875-.757813 3.378906-.664063 4.84375.25 1.460937.914063 2.351563 2.515625 2.351563 4.242187v9.96875c0 4.417969 2.464843 8.378907 6.429687 10.335938l20.953125 10.328125c6.507812 2.207031 13.191406 4.175781 19.867188 5.855469l39.980468 10.0625c14.453125 3.636718 24.71875 16.082031 25.550782 30.964844l9.304687 167.0625c.269531 4.847656-1.488281 9.648437-4.824219 13.175781-3.339844 3.527343-8.035156 5.550781-12.890625 5.550781zm-171.785156-255.515625v2.175781c0 8.257813-4.601563 15.65625-12.007813 19.304688l-20.21875 9.96875c-.175781.085937-.355468.164062-.539062.230468-7.574219 2.679688-15.359375 5.03125-23.140625 6.992188l-38.875 9.785156c-10.191406 2.5625-17.429687 11.332032-18.011719 21.824219l-9.304687 167.066406c-.121094 2.140625.628906 4.183594 2.105469 5.746094 1.476562 1.5625 3.472656 2.421875 5.625 2.421875h286.15625c2.148437 0 4.144531-.863281 5.625-2.421875 1.476562-1.5625 2.222656-3.601563 2.105468-5.746094l-9.304687-167.066406c-.582031-10.488281-7.820313-19.257813-18.011719-21.824219l-39.976562-10.0625c-7.042969-1.769531-14.089844-3.855468-20.957032-6.1875-.207031-.070312-.40625-.15625-.601562-.25l-21.242188-10.476562c-7.40625-3.648438-12.007812-11.046875-12.007812-19.304688v-2.160156c-3.59375 1.519531-7.214844 2.808594-11.277344 3.871094-5.75 1.503906-11.742188 2.230468-17.820312 2.214844.019531.003906-.125.011718-.273438.011718-3.964844 0-8.097656-.414062-12.28125-1.226562l-.296875-.054688c-1.128906-.222656-2.242187-.476562-3.351563-.761718-.378906-.082032-.59375-.125-.800781-.183594-4.074219-1.0625-7.707031-2.359375-11.316406-3.886719zm0 0"/><path d="m161.316406 350.6875c-9.648437 0-18.296875-5.394531-22.566406-14.078125-1.160156-2.359375-.296875-5.214844 1.976562-6.53125 4.574219-2.652344 8.027344-6.800781 9.976563-12.003906.734375-1.953125 2.625-3.316407 4.710937-3.316407h12.398438c2.085938 0 3.953125 1.292969 4.683594 3.242188 1.902344 5.074219 5.234375 9.15625 9.632812 11.804688 2.199219 1.324218 3.035156 4.09375 1.945313 6.414062-4.136719 8.789062-13.066407 14.46875-22.757813 14.46875zm-11.222656-14.976562c2.828125 3.136718 6.855469 4.976562 11.222656 4.976562 4.453125 0 8.644532-1.996094 11.488282-5.300781-3.429688-2.890625-6.222657-6.484375-8.265626-10.625h-5.84375c-2.109374 4.304687-5.019531 8-8.601562 10.949219zm0 0"/><path d="m194.335938 343.160156c-4.535157 0-9.0625-.894531-13.289063-2.691406-8.285156-3.519531-14.644531-10.25-17.914063-18.949219-.628906-1.6875-.304687-3.585937.851563-4.96875l38.085937-45.460937c1.476563-1.765625 3.96875-2.292969 6.042969-1.273438l1.894531.933594 14.574219 7.1875c1.777344.878906 2.871094 2.71875 2.785157 4.699219-.449219 10.507812-3.269532 31.707031-17.121094 55.644531-.542969.925781-1.363282 1.660156-2.347656 2.082031-4.308594 1.863281-8.9375 2.796875-13.5625 2.796875zm-20.703126-22.558594c3.070313 6.082032 7.742188 9.140626 11.324219 10.664063 5.53125 2.347656 11.820313 2.515625 17.484375.503906 10.792969-19.226562 13.914063-36.257812 14.734375-46.335937l-9.964843-4.914063zm0 0"/><path d="m128.859375 343.234375c-4.347656 0-8.703125-.820313-12.789063-2.46875-1.03125-.414063-1.890624-1.160156-2.453124-2.117187-14.207032-24.375-16.980469-45.878907-17.367188-56.535157-.074219-1.964843 1.015625-3.792969 2.785156-4.664062l15.90625-7.84375c2.066406-1.019531 4.5625-.496094 6.042969 1.273437l38.261719 45.667969c1.164062 1.390625 1.484375 3.304687.835937 5-3.226562 8.597656-9.457031 15.273437-17.554687 18.832031-4.320313 1.902344-8.992188 2.855469-13.667969 2.855469zm-7.492187-11.175781c5.601562 1.816406 11.757812 1.535156 17.132812-.828125 3.507812-1.542969 8.085938-4.613281 11.101562-10.621094l-33.757812-40.296875-9.421875 4.644531c.769531 10.203125 3.871094 27.5 14.945313 47.101563zm0 0"/><path d="m182.585938 370.921875c-.304688 0-.613282-.027344-.914063-.082031-1.625-.304688-2.996094-1.386719-3.660156-2.898438-3.988281-9.035156-8.613281-16.832031-11.789063-21.773437-.761718-1.1875-.984375-2.644531-.617187-4.003907.367187-1.367187 1.292969-2.507812 2.550781-3.148437 3.015625-1.542969 5.453125-4.046875 6.871094-7.054687.601562-1.277344 1.71875-2.246094 3.074218-2.65625 1.351563-.40625 2.820313-.226563 4.03125.507812 4.542969 2.738281 10.046876 3.84375 15.480469 3.117188 1.472657-.199219 2.9375.261718 4.03125 1.253906 1.375 1.25 2.761719 2.636718 4.234375 4.246094 1.546875 1.679687 1.757813 4.195312.511719 6.109374-5.675781 8.730469-12.492187 17.113282-20.265625 24.914063-.945312.949219-2.226562 1.46875-3.539062 1.46875zm-5.34375-25.976563c2.078124 3.441407 4.433593 7.601563 6.753906 12.242188 4.113281-4.527344 7.882812-9.230469 11.277344-14.054688-4.773438.121094-9.507813-.738281-13.855469-2.523437-1.210938 1.601563-2.617188 3.058594-4.175781 4.335937zm0 0"/><path d="m143.273438 339.40625c-2.757813 0-5.007813-2.238281-5.007813-5s2.226563-5 4.988281-5h.019532c2.761718 0 5 2.238281 5 5s-2.238282 5-5 5zm0 0"/><path d="m140.328125 370.199219c-1.328125 0-2.617187-.53125-3.566406-1.496094-7.632813-7.757813-14.347657-16.121094-19.957031-24.855469-1.242188-1.929687-1.007813-4.460937.570312-6.132812 1.316406-1.394532 2.453125-2.519532 3.574219-3.539063 1.121093-1.019531 2.640625-1.476562 4.132812-1.242187 5.449219.84375 11.003907-.167969 15.644531-2.855469 1.199219-.695313 2.632813-.859375 3.957032-.457031 1.324218.402344 2.425781 1.335937 3.035156 2.578125 1.417969 2.878906 3.808594 5.292969 6.734375 6.796875 1.253906.644531 2.175781 1.789062 2.542969 3.152344.367187 1.359374.136718 2.8125-.625 4-3.066406 4.773437-7.546875 12.308593-11.484375 21.097656-.675781 1.503906-2.050781 2.582031-3.679688 2.875-.289062.050781-.585937.078125-.878906.078125zm-11.894531-26.980469c3.195312 4.542969 6.714844 8.964844 10.53125 13.226562 2.210937-4.363281 4.433594-8.273437 6.398437-11.527343-1.472656-1.210938-2.808593-2.582031-3.96875-4.078125-4.09375 1.621094-8.539062 2.433594-12.960937 2.378906zm0 0"/><path d="m161.335938 262.457031c-8.757813 0-17.511719-1.601562-25.84375-4.808593-5.609376-2.160157-10.914063-4.859376-17.628907-8.28125-1.789062-.910157-3.675781-1.867188-5.695312-2.882813-17.28125-8.679687-27.582031-27.488281-25.691407-46.859375l1.949219-73.582031c.09375-3.871094 1.699219-7.292969 4.519531-9.625 2.765626-2.285157 6.410157-3.253907 10.003907-2.660157 10.855469 1.804688 32.132812-3.234374 50.167969-16.121093 21.925781-15.664063 40.714843-6.476563 49.960937.386719 4.609375 3.425781 8.691406 3.5 13.011719 3.578124 1.351562.023438 2.746094.050782 4.125.1875 7.652344.761719 13.582031 7.167969 13.789062 14.90625l2.191406 82.925782c1.894532 19.371094-8.410156 38.179687-25.691406 46.859375-2.019531 1.015625-3.90625 1.976562-5.695312 2.882812-6.714844 3.421875-12.023438 6.121094-17.628906 8.28125-8.335938 3.210938-17.089844 4.8125-25.84375 4.8125zm-60.472657-138.863281c-.574219 0-1.121093.1875-1.546875.535156-.570312.472656-.871094 1.207032-.894531 2.171875l-1.953125 73.777344c-.003906.125-.011719.25-.023438.375-1.5625 15.332031 6.558594 30.242187 20.210938 37.097656 2.035156 1.023438 3.9375 1.992188 5.738281 2.910157 6.460938 3.289062 11.5625 5.886718 16.6875 7.859374 14.34375 5.519532 30.144531 5.523438 44.5 0 5.125-1.972656 10.226563-4.570312 16.6875-7.859374 1.804688-.914063 3.707031-1.882813 5.742188-2.90625 13.652343-6.855469 21.773437-21.765626 20.207031-37.101563-.011719-.121094-.019531-.25-.023438-.375l-2.195312-83.109375c-.070312-2.667969-2.171875-4.957031-4.785156-5.21875-.96875-.09375-2.109375-.117188-3.3125-.140625-4.898438-.085937-11.609375-.207031-18.792969-5.542969-8.628906-6.40625-22.257813-11.65625-38.183594-.28125-21.394531 15.285156-44.867187 19.96875-57.621093 17.847656-.140626-.027343-.292969-.039062-.441407-.039062zm0 0"/><path d="m91.980469 184.082031c-.152344 0-.3125-.007812-.46875-.023437-17.65625-1.675782-30.972657-16.324219-30.972657-34.066406 0-18.300782 14.335938-33.300782 32.632813-34.152344 1.386719-.066406 2.738281.449218 3.726563 1.417968.992187.972657 1.539062 2.308594 1.503906 3.695313l-1.421875 58.25c-.035157 1.386719-.640625 2.699219-1.679688 3.617187-.917969.8125-2.101562 1.261719-3.320312 1.261719zm-3.71875-57.402343c-10.277344 2.839843-17.722657 12.21875-17.722657 23.3125 0 10.699218 6.839844 19.804687 16.589844 23.003906zm0 0"/><path d="m230.644531 184.082031c-1.214843 0-2.394531-.445312-3.3125-1.257812-1.039062-.917969-1.644531-2.226563-1.683593-3.613281l-1.539063-58.253907c-.039063-1.382812.503906-2.722656 1.488281-3.695312.988282-.972657 2.316406-1.472657 3.722656-1.429688 18.375.777344 32.773438 15.785157 32.773438 34.160157 0 17.746093-13.316406 32.390624-30.976562 34.066406-.15625.015625-.316407.023437-.472657.023437zm3.621094-57.433593 1.222656 46.351562c9.761719-3.195312 16.605469-12.304688 16.605469-23.011719 0-11.144531-7.492188-20.542969-17.828125-23.339843zm0 0"/><path d="m245.777344 294.957031c-.40625 0-.816406-.050781-1.226563-.15625-6.980469-1.761719-13.9375-3.820312-20.675781-6.113281-.207031-.070312-.40625-.152344-.601562-.25l-21.246094-10.476562c-1.808594-.886719-3.484375-2.03125-4.976563-3.390626-2.207031-2.011718-3.945312-4.417968-5.164062-7.15625-1.238281-2.777343-1.863281-5.722656-1.863281-8.753906v-8.601562c-.617188-2.261719.40625-4.691406 2.589843-5.757813 2.417969-1.179687 4.960938-2.472656 7.753907-3.890625 1.773437-.902344 3.644531-1.855468 5.644531-2.859375 13.652343-6.855469 21.773437-21.765625 20.207031-37.101562-.011719-.121094-.019531-.25-.023438-.375l-.550781-20.863281c-.066406-2.628907 1.910157-4.863282 4.527344-5.109376 6.171875-.585937 11.835937-3.507812 15.949219-8.226562.894531-1.027344 2.167968-1.644531 3.53125-1.707031 1.351562-.074219 2.6875.425781 3.675781 1.363281 5.773437 5.464844 9.140625 12.742188 9.488281 20.492188.261719 5.742187-1.113281 11.402343-3.960937 16.367187-.40625.707031-.628907 1.757813-.046875 2.609375 4.625 6.722656 7.066406 14.582031 7.066406 22.730469 0 11.5-4.9375 22.480469-13.542969 30.125-.625.554687-.871093 1.4375-.625 2.25 1.375 4.53125 2.070313 9.242187 2.070313 14 0 6.082031-1.125 12.027343-3.34375 17.675781-.769532 1.953125-2.640625 3.175781-4.65625 3.175781zm-18.375-15.628906c4.941406 1.671875 10 3.214844 15.101562 4.601563.84375-3.191407 1.273438-6.480469 1.273438-9.820313 0-3.773437-.550782-7.507813-1.640625-11.101563-1.371094-4.535156.023437-9.488281 3.558593-12.625 6.46875-5.75 10.179688-14.003906 10.179688-22.648437 0-6.117187-1.835938-12.019531-5.304688-17.066406-2.691406-3.914063-2.839843-8.992188-.382812-13.253907 1.902344-3.3125 2.816406-7.09375 2.644531-10.9375-.164062-3.578124-1.304687-7.019531-3.292969-10.019531-4.023437 3.308594-8.71875 5.644531-13.777343 6.835938l.429687 16.335937c1.894532 19.371094-8.410156 38.183594-25.6875 46.859375-1.988281 1-3.84375 1.941407-5.605468 2.835938-1.707032.867187-3.324219 1.691406-4.875 2.464843v6.871094c0 1.625.335937 3.199219.996093 4.6875.652344 1.464844 1.585938 2.753906 2.765625 3.832032.800782.726562 1.695313 1.335937 2.664063 1.816406zm0 0"/><path d="m76.394531 295.066406c-2.007812 0-3.875-1.214844-4.644531-3.160156-2.253906-5.6875-3.394531-11.671875-3.394531-17.796875 0-4.757813.695312-9.46875 2.066406-14 .246094-.8125.003906-1.695313-.625-2.25-8.605469-7.644531-13.539063-18.625-13.539063-30.125 0-8.148437 2.441407-16.011719 7.0625-22.734375.585938-.847656.363282-1.902344-.042968-2.605469-2.851563-4.964843-4.222656-10.625-3.964844-16.371093.355469-7.914063 3.847656-15.304688 9.832031-20.804688 1-.917969 2.324219-1.394531 3.6875-1.304688 1.359375.082032 2.621094.710938 3.503907 1.746094 4.128906 4.847656 9.855468 7.847656 16.121093 8.441406 2.617188.25 4.589844 2.476563 4.527344 5.101563l-.511719 20.863281c0 .128906-.011718.257813-.023437.386719-1.5625 15.332031 6.558593 30.242187 20.210937 37.097656 2 1.003907 3.871094 1.957031 5.640625 2.859375 2.777344 1.410156 5.300781 2.695313 7.707031 3.867188 2.226563 1.085937 3.285157 3.609375 2.605469 5.910156l-.003906 8.476562c0 6.039063-2.558594 11.839844-7.027344 15.910157-1.488281 1.355469-3.160156 2.496093-4.976562 3.390625l-20.21875 9.972656c-.175781.085938-.359375.164062-.542969.226562-7.207031 2.550782-14.679688 4.824219-22.207031 6.746094-.417969.105469-.832031.15625-1.242188.15625zm-3.621093-118.882812c-2.101563 3.058594-3.308594 6.59375-3.472657 10.289062-.171875 3.84375.742188 7.625 2.644531 10.941406 2.453126 4.261719 2.304688 9.339844-.382812 13.25-3.472656 5.050782-5.304688 10.953126-5.304688 17.070313 0 8.644531 3.707032 16.898437 10.179688 22.644531 3.535156 3.136719 4.929688 8.09375 3.554688 12.628906-1.085938 3.589844-1.636719 7.324219-1.636719 11.097657 0 3.375.4375 6.695312 1.300781 9.917969 5.613281-1.542969 11.167969-3.285157 16.570312-5.191407l19.953126-9.835937c.96875-.480469 1.871093-1.09375 2.667968-1.820313 2.390625-2.175781 3.761719-5.28125 3.761719-8.519531v-6.886719c-1.542969-.773437-3.148437-1.589843-4.84375-2.453125-1.757813-.894531-3.613281-1.835937-5.597656-2.832031-17.277344-8.679687-27.582031-27.488281-25.691407-46.855469l.402344-16.335937c-5.195312-1.222657-10.011718-3.652344-14.105468-7.109375zm0 0"/><path d="m68.054688 143.1875c-.105469 0-.210938-.003906-.316407-.011719-2.09375-.132812-3.878906-1.554687-4.472656-3.558593-11.105469-37.207032-9.078125-68.230469 6.015625-92.207032 21.410156-34.007812 63.234375-43.9375 80.222656-46.625 8.460938-1.339844 16.472656-.960937 23.816406 1.121094 13.4375 3.8125 25.289063 12.625 33.367188 24.804688.035156.054687.160156.226562.289062.234374 31.9375 1.53125 56.957032 29.492188 56.957032 63.648438v.578125c0 14.683594.003906 32.957031-8.457032 44.550781-.9375 1.289063-2.4375 2.054688-4.03125 2.054688 0 0-.003906 0-.007812 0-1.589844 0-3.089844-.757813-4.03125-2.039063-4.394531-5.988281-11.140625-9.605469-18.511719-9.917969-2.625-.113281-4.714843-2.234374-4.785156-4.863281l-.105469-3.992187c-.070312-2.667969-2.171875-4.957032-4.785156-5.21875-.972656-.09375-2.113281-.117188-3.3125-.140625-4.902344-.085938-11.613281-.207031-18.792969-5.542969-8.632812-6.40625-22.257812-11.65625-38.183593-.28125-21.398438 15.285156-44.867188 19.96875-57.621094 17.847656-.746094-.121094-1.460938.0625-1.992188.5-.570312.472656-.875 1.207032-.898437 2.171875-.066407 2.738281-2.273438 4.847657-5.050781 4.878907-2.585938-.027344-4.699219-2.019532-4.925782-4.550782-6.972656 1.871094-12.792968 6.773438-15.816406 13.585938-.804688 1.816406-2.601562 2.972656-4.570312 2.972656zm91.140624-133.1875c-2.632812 0-5.34375.21875-8.128906.664062-15.640625 2.472657-54.097656 11.53125-73.320312 42.074219-12.101563 19.21875-14.675782 43.9375-7.691406 73.585938 5.957031-6.242188 14.144531-10.066407 23.117187-10.484375.179687-.011719.359375-.007813.539063 0 2.652343-1.863282 5.976562-2.617188 9.238281-2.074219 10.855469 1.804687 32.132812-3.238281 50.167969-16.121094 21.925781-15.664062 40.714843-6.480469 49.960937.386719 4.609375 3.421875 8.691406 3.496094 13.011719 3.578125 1.351562.023437 2.746094.050781 4.125.183594 7.539062.75 13.398437 6.976562 13.773437 14.554687 6.097657 1.101563 11.734375 3.828125 16.375 7.894532 3.570313-9.273438 3.570313-22.253907 3.570313-33.070313v-.578125c0-28.816406-20.835938-52.386719-47.4375-53.664062-3.296875-.15625-6.269532-1.867188-8.136719-4.691407-6.765625-10.195312-16.625-17.550781-27.769531-20.714843-3.582032-1.015626-7.394532-1.523438-11.394532-1.523438zm0 0"/></g></svg>