<svg height="511pt" viewBox="-86 0 511 511.778" width="511pt" xmlns="http://www.w3.org/2000/svg"><path d="m333.726562 492.609375-9.804687-176.03125c-.738281-13.292969-10.039063-24.558594-22.949219-27.808594l-42.121094-10.605469c-7.308593-1.839843-14.539062-3.972656-21.671874-6.398437l-18.632813-9.191406-3.75-1.847657c-5.945313-2.929687-9.710937-8.984374-9.710937-15.613281v-14.492187c-8.105469 7.433594-17.429688 14.121094-28.050782 19.011718-4.804687 2.214844-10.507812 2.210938-15.304687 0-10.464844-4.816406-19.660157-11.371093-27.679688-18.671874v14.152343c0 6.628907-3.765625 12.683594-9.710937 15.613281l-2.761719 1.363282-18.542969 9.140625c-7.851562 2.78125-15.828125 5.195312-23.90625 7.226562l-40.96875 10.3125c-12.910156 3.25-22.207031 14.515625-22.945312 27.808594l-9.808594 176.03125c-.425781 7.691406 5.695312 14.167969 13.402344 14.167969h301.515625c7.707031 0 13.832031-6.476563 13.402343-14.167969zm0 0" fill="#515050"/><path d="m176.417969 309.488281h-13.070313l-28.328125 18.167969 34.546875 49.253906 34.746094-49.53125zm0 0" fill="#fcbd4c"/><path d="m176.417969 309.488281h-13.070313l-15.351562 9.847657c1.363281 10.683593 10.53125 19.019531 21.570312 19.019531 11.167969 0 20.433594-8.527344 21.628906-19.386719zm0 0" fill="#e04e36"/><path d="m178.054688 400.910156 85.304687-121.609375-4.511719-1.136719c-5.601562-1.40625-11.140625-3.046874-16.644531-4.804687l-72.636719 103.550781-72.664062-103.59375c-5.863282 1.917969-11.789063 3.632813-17.773438 5.140625l-3.351562.84375 85.304687 121.609375c4.128907 5.882813 12.847657 5.875 16.972657 0zm0 0" fill="#6d6c6c"/><path d="m183.628906 356.867188-2.328125-21.984376c-3.394531 2.1875-7.417969 3.472657-11.734375 3.472657s-8.339844-1.289063-11.730468-3.480469l-2.328126 21.992188 14.058594 20.042968zm0 0" fill="#e04e36"/><path d="m237.175781 271.765625-18.632812-9.191406-1.996094-.984375-40.128906 47.898437 27.894531 17.890625 37.886719-54.007812c-1.679688-.519532-3.359375-1.042969-5.023438-1.605469zm0 0" fill="#fcbd4c"/><path d="m123.035156 261.371094-1.457031.71875-18.542969 9.140625c-2.039062.722656-4.089844 1.398437-6.144531 2.070312l38.128906 54.355469 28.328125-18.167969zm0 0" fill="#fcbd4c"/><g fill="#231f20"><path d="m274.046875 508.890625c-2.761719 0-5-2.238281-5-5v-114.011719c0-2.761718 2.238281-5 5-5s5 2.238282 5 5v114.011719c0 2.761719-2.238281 5-5 5zm0 0"/><path d="m65.089844 508.890625c-2.761719 0-5-2.238281-5-5v-114.011719c0-2.761718 2.238281-5 5-5 2.761718 0 5 2.238282 5 5v114.011719c0 2.761719-2.238282 5-5 5zm0 0"/><path d="m169.566406 343.355469c-13.421875 0-24.828125-10.054688-26.53125-23.386719-.246094-1.914062.632813-3.796875 2.261719-4.839844l15.351563-9.847656c.804687-.515625 1.742187-.792969 2.699218-.792969h13.070313c.957031 0 1.894531.277344 2.699219.792969l14.78125 9.480469c1.597656 1.023437 2.476562 2.867187 2.269531 4.753906-1.496094 13.59375-12.933594 23.839844-26.601563 23.839844zm-15.953125-21.679688c2.179688 6.832031 8.582031 11.679688 15.953125 11.679688 7.550782 0 14.011719-4.992188 16.074219-12.007813l-10.6875-6.855468h-10.140625zm0 0"/><path d="m169.566406 410.320312c-5.003906 0-9.703125-2.445312-12.578125-6.535156l-85.308593-121.613281c-.945313-1.347656-1.164063-3.070313-.589844-4.613281.570312-1.542969 1.871094-2.703125 3.464844-3.105469l3.351562-.84375c5.820312-1.464844 11.6875-3.164063 17.441406-5.042969 2.089844-.6875 4.382813.078125 5.648438 1.878906l68.570312 97.757813 68.542969-97.714844c1.257813-1.789062 3.535156-2.554687 5.613281-1.890625 6.046875 1.929688 11.394532 3.472656 16.347656 4.71875l4.511719 1.136719c1.59375.402344 2.890625 1.5625 3.464844 3.105469.574219 1.542968.351563 3.265625-.59375 4.617187l-85.304687 121.609375h-.003907c-2.867187 4.089844-7.574219 6.535156-12.578125 6.535156zm8.488282-9.410156h.019531zm-94.03125-118.554687 81.152343 115.6875c1.015625 1.445312 2.617188 2.277343 4.390625 2.277343 1.773438 0 3.378906-.832031 4.394532-2.277343l81.140624-115.675781c-3.421874-.90625-7.03125-1.941407-10.90625-3.136719l-70.535156 100.554687c-.9375 1.335938-2.464844 2.128906-4.09375 2.128906s-3.160156-.792968-4.09375-2.128906l-70.554687-100.585937c-3.613281 1.128906-7.257813 2.183593-10.894531 3.15625zm0 0"/><path d="m169.566406 381.910156c-1.628906 0-3.15625-.792968-4.09375-2.125l-14.058594-20.042968c-.691406-.988282-1.003906-2.195313-.875-3.398438l2.328126-21.992188c.183593-1.730468 1.25-3.238281 2.8125-3.988281 1.570312-.746093 3.414062-.632812 4.875.316407 5.425781 3.507812 12.617187 3.5 18.035156.003906 1.460937-.945313 3.304687-1.058594 4.871094-.3125 1.566406.75 2.628906 2.257812 2.816406 3.984375l2.324218 21.988281c.128907 1.199219-.183593 2.40625-.875 3.394531l-14.0625 20.042969c-.9375 1.335938-2.46875 2.128906-4.097656 2.128906zm-8.886718-26.378906 8.886718 12.671875 8.890625-12.671875-1.402343-13.253906c-4.839844 1.425781-10.128907 1.429687-14.972657 0zm0 0"/><path d="m320.324219 511.777344h-301.515625c-5.042969 0-9.917969-2.097656-13.382813-5.761719-3.460937-3.664063-5.289062-8.652344-5.007812-13.683594l9.804687-176.03125c.867188-15.5625 11.601563-28.574219 26.714844-32.378906l40.96875-10.3125c7.800781-1.964844 15.597656-4.316406 23.179688-6.992187l21.042968-10.375c4.269532-2.101563 6.921875-6.367188 6.921875-11.128907v-14.152343c0-1.980469 1.167969-3.773438 2.976563-4.574219 1.816406-.800781 3.925781-.457031 5.386718.875 8.367188 7.617187 17.25 13.617187 26.402344 17.832031 3.480469 1.601562 7.640625 1.601562 11.125 0 9.289063-4.28125 18.292969-10.386719 26.761719-18.15625 1.457031-1.339844 3.574219-1.695312 5.390625-.894531 1.816406.796875 2.988281 2.59375 2.988281 4.578125v14.492187c0 4.757813 2.652344 9.023438 6.921875 11.128907l22.089844 10.890624c6.886719 2.335938 13.941406 4.414063 20.976562 6.183594l42.121094 10.601563c15.117188 3.804687 25.855469 16.816406 26.722656 32.378906l9.800782 176.03125c.28125 5.035156-1.542969 10.019531-5.007813 13.683594-3.460937 3.664062-8.339843 5.765625-13.382812 5.765625zm-181.273438-270.125v3.460937c0 8.597657-4.792969 16.296875-12.5 20.097657l-21.304687 10.503906c-.175782.085937-.359375.164062-.542969.230468-7.960937 2.820313-16.15625 5.292969-24.355469 7.359376l-40.964844 10.3125c-10.847656 2.730468-18.554687 12.070312-19.175781 23.238281l-9.804687 176.03125c-.132813 2.335937.683594 4.558593 2.289062 6.253906 1.609375 1.703125 3.78125 2.636719 6.121094 2.636719h301.515625c2.335937 0 4.511719-.933594 6.121094-2.636719 1.605469-1.695313 2.417969-3.917969 2.289062-6.253906l-9.804687-176.027344c-.621094-11.167969-8.332032-20.507813-19.179688-23.242187l-42.121094-10.601563c-7.398437-1.863281-14.820312-4.054687-22.058593-6.515625-.207031-.070312-.40625-.152344-.601563-.25l-22.382812-11.035156c-7.710938-3.800782-12.503906-11.503906-12.503906-20.101563v-3.742187c-6.742188 5.203125-13.761719 9.492187-20.957032 12.808594-6.109375 2.804687-13.390625 2.804687-19.484375 0-7.070312-3.253907-13.964843-7.449219-20.59375-12.527344zm0 0"/><path d="m169.625 407.621094c-2.761719 0-5-2.238282-5-5v-24.878906c0-2.761719 2.238281-5 5-5s5 2.238281 5 5v24.878906c0 2.757812-2.238281 5-5 5zm0 0"/><path d="m204.308594 332.378906c-.925782 0-1.863282-.253906-2.695313-.789062l-27.894531-17.890625c-1.210938-.773438-2.03125-2.035157-2.246094-3.453125-.214844-1.421875.1875-2.863282 1.113282-3.964844l40.128906-47.902344c1.480468-1.765625 3.972656-2.289062 6.039062-1.273437l20.335938 10.027343c1.523437.511719 3.054687.984376 4.585937 1.460938 1.527344.46875 2.734375 1.644531 3.25 3.160156.519531 1.511719.285157 3.179688-.632812 4.484375l-37.886719 54.011719c-.972656 1.382812-2.519531 2.128906-4.097656 2.128906zm-20.410156-24.03125 19.074218 12.234375 31.328125-44.660156-16.445312-8.109375zm0 0"/><path d="m135.023438 332.660156c-1.578126 0-3.125-.746094-4.097657-2.128906l-38.128906-54.355469c-.910156-1.300781-1.148437-2.953125-.648437-4.457031.503906-1.503906 1.6875-2.679688 3.195312-3.167969 1.921875-.625 3.839844-1.261719 5.746094-1.933593l19.738281-9.730469c2.066406-1.015625 4.5625-.492188 6.042969 1.273437l40.3125 48.121094c.921875 1.101562 1.328125 2.546875 1.113281 3.964844-.21875 1.421875-1.039063 2.679687-2.246094 3.457031l-28.328125 18.167969c-.839844.53125-1.773437.789062-2.699218.789062zm-30.203126-56.757812 31.535157 44.957031 19.515625-12.511719-34.144532-40.753906-16.480468 8.121094c-.140625.070312-.28125.132812-.425782.1875zm-1.785156-4.671875h.019532zm0 0"/></g><path d="m214.796875 260.726562c-5.949219-2.929687-9.714844-8.984374-9.714844-15.613281v-14.492187c-8.101562 7.433594-17.425781 14.121094-28.050781 19.011718-4.800781 2.214844-10.507812 2.210938-15.304688 0-10.460937-4.816406-19.660156-11.371093-27.675781-18.671874v14.152343c0 6.628907-3.765625 12.683594-9.714843 15.613281l-1.300782.644532 40.3125 48.117187h13.066406l40.128907-47.898437zm0 0" fill="#fcb275"/><path d="m176.417969 314.492188h-13.070313c-1.476562 0-2.878906-.65625-3.832031-1.789063l-40.308594-48.121094c-.988281-1.175781-1.378906-2.738281-1.0625-4.242187.316407-1.5 1.304688-2.777344 2.683594-3.453125l1.300781-.644531c4.269532-2.105469 6.921875-6.371094 6.921875-11.128907v-14.152343c0-1.980469 1.167969-3.773438 2.980469-4.574219s3.925781-.457031 5.382812.875c8.371094 7.617187 17.25 13.617187 26.40625 17.832031 3.480469 1.601562 7.640626 1.601562 11.121094 0 9.292969-4.28125 18.292969-10.386719 26.761719-18.15625 1.460937-1.339844 3.578125-1.695312 5.390625-.894531 1.816406.796875 2.988281 2.59375 2.988281 4.578125v14.492187c0 4.757813 2.652344 9.023438 6.925781 11.128907l1.75.863281c1.375.679687 2.363282 1.953125 2.679688 3.453125s-.074219 3.066406-1.058594 4.242187l-40.128906 47.902344c-.949219 1.132813-2.355469 1.789063-3.832031 1.789063zm-10.734375-10h8.398437l34.8125-41.554688c-5.519531-4.183594-8.8125-10.699219-8.8125-17.824219v-3.742187c-6.742187 5.199218-13.761719 9.492187-20.957031 12.804687-6.101562 2.808594-13.386719 2.808594-19.484375 0-7.0625-3.25-13.960937-7.445312-20.589844-12.523437v3.460937c0 6.957031-3.140625 13.332031-8.425781 17.527344zm0 0" fill="#231f20"/><path d="m243.800781 108.214844c-1.128906 0-2.238281.082031-3.332031.207031l2.289062 22.09375c1.269532 11.890625.710938 23.789063-1.488281 35.308594.835938.070312 1.675781.128906 2.53125.128906 15.941407 0 28.867188-12.925781 28.867188-28.867187 0-15.945313-12.921875-28.871094-28.867188-28.871094zm0 0" fill="#fcb275"/><path d="m96 130.515625 2.394531-19.480469.269531-2.613281c-1.09375-.128906-2.203124-.207031-3.332031-.207031-15.941406 0-28.867187 12.925781-28.867187 28.867187 0 15.945313 12.925781 28.867188 28.867187 28.867188.730469 0 1.445313-.050781 2.160157-.109375-2.199219-11.523438-2.757813-23.425782-1.492188-35.324219zm0 0" fill="#fcb275"/><path d="m242.757812 130.515625c-1.738281-13.757813-2.851562-22.613281-3.582031-28.429687-.421875-3.367188-2.859375-5.996094-6.078125-7.058594-3.824218-1.257813-6.964844-3.960938-8.824218-7.4375-.855469-1.601563-2.722657-2.25-4.421876-1.609375-1.488281.5625-3.105468.875-4.792968.875-3.863282 0-7.347656-1.609375-9.835938-4.191407-.890625-.925781-2.441406-.925781-3.332031 0-2.484375 2.582032-5.972656 4.191407-9.835937 4.191407-3.867188 0-7.351563-1.609375-9.835938-4.191407-.894531-.925781-2.441406-.925781-3.335938 0-2.484374 2.582032-5.96875 4.191407-9.835937 4.191407s-7.347656-1.609375-9.835937-4.191407c-.929688-.964843-2.402344-.964843-3.332032 0-2.488281 2.582032-5.972656 4.191407-9.835937 4.191407-3.867188 0-7.351563-1.609375-9.835938-4.191407-.929687-.964843-2.402343-.964843-3.335937 0-2.484375 2.582032-5.96875 4.191407-9.835938 4.191407-1.433594 0-2.8125-.222657-4.109375-.636719-1.625-.511719-3.363281.152344-4.199219 1.640625-1.9375 3.460937-5.175781 6.132813-9.109374 7.296875-3.222657.957031-5.683594 3.554688-6.09375 6.890625l-3.523438 28.464844c-3.738281 35.121093 8.046875 70.328125 32.84375 95.472656 9.148438 9.28125 20.085938 17.753906 32.882812 23.644531 4.859376 2.238282 10.445313 2.238282 15.308594 0 12.792969-5.890625 23.726563-14.363281 32.878906-23.644531 24.800782-25.144531 36.582032-60.351563 32.84375-95.46875zm0 0" fill="#fcb275"/><path d="m229.382812 25.667969c-15.675781-7.703125-36.269531-20.667969-60.304687-20.667969-24.03125 0-44.625 12.96875-60.300781 20.671875-20.210938 9.929687-32.492188 30.996094-31.257813 53.480469l1.867188 33.875c4.570312-3.035156 10.050781-4.8125 15.945312-4.8125 1.128907 0 2.238281.082031 3.332031.207031l.070313.003906.792969-6.375c.410156-3.335937 2.871094-5.9375 6.09375-6.890625 3.929687-1.164062 7.167968-3.839844 9.109375-7.300781.832031-1.484375 2.574219-2.152344 4.199219-1.636719 1.296874.410156 2.675781.632813 4.109374.632813 3.863282 0 7.347657-1.609375 9.835938-4.1875.929688-.964844 2.402344-.964844 3.332031 0 2.488281 2.578125 5.96875 4.1875 9.835938 4.1875 3.867187 0 7.351562-1.609375 9.835937-4.1875.929688-.964844 2.402344-.964844 3.335938 0 2.484375 2.578125 5.96875 4.1875 9.835937 4.1875 3.863281 0 7.347657-1.609375 9.835938-4.1875.890625-.925781 2.441406-.925781 3.332031 0 2.488281 2.578125 5.96875 4.1875 9.835938 4.1875 3.867187 0 7.351562-1.609375 9.835937-4.1875.894531-.925781 2.441406-.925781 3.335937 0 2.484376 2.578125 5.96875 4.1875 9.835938 4.1875 1.6875 0 3.300781-.308594 4.789062-.875 1.699219-.640625 3.566407.007812 4.425782 1.613281 1.855468 3.476562 5 6.179688 8.820312 7.4375 3.222656 1.058594 5.65625 3.691406 6.078125 7.054688.230469 1.8125.492188 3.921874.804688 6.382812l.488281-.042969c1.097656-.128906 2.203125-.207031 3.332031-.207031 5.503907 0 10.625 1.566406 15 4.238281l1.835938-33.304687c1.238281-22.484375-11.046875-43.554688-31.253907-53.484375zm0 0" fill="#7c292e"/><path d="m168.910156 204.949219c-9.082031 0-17.542968-4.496094-22.632812-12.035157-1.546875-2.285156-.949219-5.394531 1.34375-6.941406 2.285156-1.542968 5.394531-.941406 6.941406 1.34375 3.226562 4.78125 8.59375 7.632813 14.351562 7.632813 5.757813 0 11.121094-2.851563 14.347657-7.632813 1.546875-2.289062 4.65625-2.886718 6.945312-1.34375 2.289063 1.546875 2.886719 4.65625 1.34375 6.941406-5.09375 7.539063-13.554687 12.035157-22.640625 12.035157zm0 0" fill="#231f20"/><path d="m207.175781 133.699219c-.792969 0-1.597656-.1875-2.34375-.585938-1.214843-.648437-4.0625-1.402343-8.066406-1.402343s-6.847656.753906-8.0625 1.402343c-2.4375 1.296875-5.464844.371094-6.765625-2.066406-1.292969-2.4375-.371094-5.464844 2.066406-6.761719 3.074219-1.636718 7.726563-2.574218 12.761719-2.574218s9.6875.9375 12.761719 2.574218c2.441406 1.296875 3.363281 4.324219 2.066406 6.761719-.898438 1.691406-2.628906 2.652344-4.417969 2.652344zm0 0" fill="#231f20"/><path d="m151.203125 133.699219c-.792969 0-1.597656-.1875-2.34375-.585938-1.214844-.648437-4.058594-1.402343-8.0625-1.402343-4.007813 0-6.851563.753906-8.066406 1.402343-2.4375 1.296875-5.46875.371094-6.761719-2.066406-1.296875-2.4375-.375-5.464844 2.066406-6.761719 3.070313-1.636718 7.722656-2.574218 12.761719-2.574218 5.03125 0 9.683594.9375 12.757813 2.574218 2.441406 1.296875 3.363281 4.324219 2.066406 6.761719-.898438 1.691406-2.628906 2.652344-4.417969 2.652344zm0 0" fill="#231f20"/><path d="m141.625 153.804688c-3.316406 0-6-2.683594-6-6v-1.136719c0-3.3125 2.683594-6 6-6 3.3125 0 6 2.6875 6 6v1.136719c0 3.316406-2.6875 6-6 6zm0 0" fill="#231f20"/><path d="m196.195312 154.679688c-3.3125 0-6-2.6875-6-6v-1.140626c0-3.3125 2.6875-6 6-6s6 2.6875 6 6v1.140626c0 3.3125-2.683593 6-6 6zm0 0" fill="#231f20"/><path d="m243.800781 170.953125c-1 0-1.988281-.0625-2.964843-.148437-1.410157-.125-2.699219-.835938-3.550782-1.964844-.855468-1.128906-1.191406-2.5625-.925781-3.953125 2.144531-11.230469 2.625-22.613281 1.429687-33.84375l-2.292968-22.105469c-.28125-2.726562 1.679687-5.167969 4.402344-5.484375 1.402343-.160156 2.675781-.238281 3.902343-.238281 18.675781 0 33.871094 15.191406 33.871094 33.871094 0 18.675781-15.195313 33.867187-33.871094 33.867187zm2.203125-57.640625 1.730469 16.683594c1.082031 10.183594.898437 20.492187-.546875 30.714844 11.5625-1.648438 20.484375-11.617188 20.484375-23.628907 0-12.417969-9.535156-22.652343-21.667969-23.769531zm0 0" fill="#231f20"/><path d="m95.332031 170.953125c-18.675781 0-33.867187-15.195313-33.867187-33.871094s15.191406-33.871093 33.867187-33.871093c1.226563 0 2.503907.078124 3.90625.242187 2.71875.3125 4.683594 2.757813 4.398438 5.480469l-.269531 2.617187-2.398438 19.535157c-1.191406 11.214843-.710938 22.59375 1.4375 33.820312.265625 1.394531-.074219 2.835938-.9375 3.96875s-2.164062 1.839844-3.582031 1.953125c-.84375.066406-1.691407.125-2.554688.125zm-2.257812-57.632813c-12.105469 1.140626-21.609375 11.363282-21.609375 23.765626 0 11.878906 8.722656 21.757812 20.101562 23.570312-1.4375-10.207031-1.621094-20.5-.539062-30.671875.003906-.027344.007812-.050781.011718-.078125zm0 0" fill="#231f20"/><path d="m169.378906 256.3125c-3.324218 0-6.648437-.710938-9.746094-2.136719-12.171874-5.605469-23.730468-13.90625-34.347656-24.675781-25.722656-26.085938-38.210937-62.355469-34.257812-99.511719l3.535156-28.550781c.640625-5.175781 4.421875-9.523438 9.632812-11.070312 2.589844-.765626 4.839844-2.570313 6.171876-4.949219 2.007812-3.574219 6.148437-5.203125 10.070312-3.960938 3.082031.976563 6.566406.097657 8.835938-2.257812 2.800781-2.90625 7.730468-2.90625 10.53125 0 1.652343 1.714843 3.867187 2.660156 6.238281 2.660156 2.371093 0 4.585937-.945313 6.238281-2.660156 2.796875-2.90625 7.726562-2.90625 10.53125 0 1.652344 1.714843 3.867188 2.660156 6.238281 2.660156 2.367188 0 4.582031-.945313 6.234375-2.660156 1.359375-1.410157 3.277344-2.222657 5.265625-2.222657s3.90625.808594 5.269531 2.226563c1.648438 1.710937 3.863282 2.65625 6.234376 2.65625 2.371093 0 4.585937-.945313 6.238281-2.660156 1.359375-1.414063 3.28125-2.226563 5.265625-2.226563s3.90625.8125 5.269531 2.226563c2.371094 2.460937 6.078125 3.304687 9.257813 2.105469 4.085937-1.550782 8.554687.101562 10.597656 3.929687 1.289062 2.40625 3.410156 4.199219 5.976562 5.042969 5.195313 1.707031 8.828125 5.996094 9.476563 11.183594.730469 5.816406 1.847656 14.671874 3.585937 28.425781.003906.035156.007813.066406.011719.097656 3.949219 37.15625-8.535156 73.425781-34.257813 99.511719-10.625 10.769531-22.179687 19.070312-34.351562 24.675781-3.097656 1.429687-6.421875 2.140625-9.746094 2.140625zm-50.878906-165.015625c-2.660156 4.1875-6.691406 7.246094-11.460938 8.65625-1.113281.332031-2.367187 1.214844-2.550781 2.710937l-3.523437 28.464844c-3.625 34.078125 7.832031 67.40625 31.441406 91.347656 9.769531 9.90625 20.339844 17.515626 31.414062 22.613282 3.535157 1.628906 7.589844 1.628906 11.125 0 11.070313-5.097656 21.640626-12.707032 31.410157-22.613282 23.601562-23.929687 35.054687-57.234374 31.441406-91.382812-1.734375-13.730469-2.847656-22.574219-3.578125-28.386719-.199219-1.578125-1.515625-2.546875-2.679688-2.929687-4.625-1.519532-8.5-4.597656-11.042968-8.734375-1.761719.539062-3.582032.8125-5.433594.8125-4.234375 0-8.238281-1.394531-11.503906-3.96875-3.269532 2.574219-7.269532 3.96875-11.503906 3.96875-4.234376 0-8.234376-1.394531-11.503907-3.96875-3.269531 2.574219-7.269531 3.96875-11.5 3.96875-4.234375 0-8.238281-1.394531-11.503906-3.96875-3.269531 2.574219-7.269531 3.96875-11.503906 3.96875s-8.234375-1.394531-11.503907-3.96875c-3.269531 2.574219-7.269531 3.96875-11.503906 3.96875-1.535156 0-3.054687-.1875-4.535156-.558594zm0 0" fill="#231f20"/><path d="m79.386719 118.027344c-.765625 0-1.535157-.175782-2.238281-.53125-1.605469-.804688-2.65625-2.402344-2.753907-4.195313l-1.867187-33.875c-1.355469-24.558593 12.011718-47.417969 34.042968-58.246093 2.40625-1.183594 4.933594-2.492188 7.570313-3.859376 14.894531-7.714843 33.425781-17.320312 54.9375-17.320312s40.042969 9.601562 54.929687 17.316406c2.640626 1.371094 5.167969 2.679688 7.578126 3.867188 22.035156 10.824218 35.398437 33.6875 34.042968 58.246094l-1.835937 33.300781c-.09375 1.753906-1.109375 3.332031-2.664063 4.148437-1.558594.820313-3.429687.757813-4.933594-.15625-3.757812-2.292968-8.042968-3.507812-12.394531-3.507812-.839843 0-1.742187.058594-2.757812.175781l-.601563.058594c-2.683594.246093-5.089844-1.675781-5.425781-4.355469l-.800781-6.386719c-.199219-1.570312-1.511719-2.542969-2.679688-2.925781-4.621094-1.519531-8.5-4.597656-11.042968-8.734375-1.757813.542969-3.578126.8125-5.429688.8125-4.234375 0-8.238281-1.394531-11.503906-3.964844-3.269532 2.574219-7.269532 3.964844-11.503906 3.964844-4.234376 0-8.234376-1.394531-11.503907-3.964844-3.269531 2.574219-7.269531 3.964844-11.5 3.964844-4.234375 0-8.238281-1.390625-11.503906-3.964844-3.269531 2.574219-7.269531 3.964844-11.503906 3.964844s-8.234375-1.390625-11.503907-3.964844c-3.269531 2.574219-7.269531 3.964844-11.503906 3.964844-1.535156 0-3.054687-.1875-4.539062-.558594-2.65625 4.1875-6.6875 7.246094-11.457032 8.65625-1.113281.332031-2.371093 1.214844-2.550781 2.710938l-.789062 6.375c-.324219 2.582031-2.507813 4.496093-5.171875 4.382812-.125-.007812-.3125-.019531-.4375-.035156-1.015625-.117187-1.917969-.171875-2.757813-.171875-4.703125 0-9.261719 1.375-13.179687 3.976562-.832032.550782-1.796875.832032-2.765625.832032zm89.691406-108.027344c-19.074219 0-36.40625 8.980469-50.332031 16.199219-2.707032 1.402343-5.292969 2.746093-7.765625 3.957031-18.425781 9.050781-29.597657 28.175781-28.46875 48.71875l1.453125 26.304688c3.316406-1.1875 6.8125-1.847657 10.375-1.953126l.222656-1.789062c.640625-5.179688 4.421875-9.527344 9.632812-11.070312 2.589844-.765626 4.839844-2.574219 6.171876-4.953126 2.007812-3.574218 6.148437-5.203124 10.070312-3.957031 3.082031.972657 6.566406.09375 8.835938-2.257812 2.800781-2.90625 7.730468-2.90625 10.53125 0 1.652343 1.710937 3.867187 2.65625 6.238281 2.65625 2.371093 0 4.585937-.945313 6.238281-2.65625 2.796875-2.90625 7.726562-2.90625 10.53125 0 1.652344 1.710937 3.867188 2.65625 6.238281 2.65625 2.367188 0 4.582031-.945313 6.234375-2.65625 1.359375-1.414063 3.277344-2.226563 5.265625-2.226563s3.90625.8125 5.269531 2.226563c1.648438 1.710937 3.863282 2.65625 6.234376 2.65625 2.371093 0 4.585937-.945313 6.238281-2.65625 1.359375-1.414063 3.28125-2.226563 5.265625-2.226563s3.90625.8125 5.269531 2.226563c2.371094 2.460937 6.078125 3.304687 9.257813 2.101562 4.085937-1.546875 8.554687.101563 10.597656 3.929688 1.289062 2.410156 3.410156 4.203125 5.976562 5.042969 5.195313 1.707031 8.828125 5.996093 9.476563 11.183593l.21875 1.757813c3.359375.054687 6.679687.613281 9.855469 1.652344l1.433593-25.996094c1.132813-20.542969-10.042969-39.667969-28.46875-48.722656-2.46875-1.210938-5.058593-2.554688-7.769531-3.957032-13.925781-7.210937-31.253906-16.191406-50.328125-16.191406zm0 0" fill="#231f20"/></svg>