<svg height="512pt" viewBox="-93 0 512 512" width="512pt" xmlns="http://www.w3.org/2000/svg"><path d="m231.09375 113.550781c-10.371094-3.617187-24.253906-12.683593-32.480469-35.289062-.597656-1.644531-2.785156-1.960938-3.835937-.5625-6.882813 9.152343-9.164063 29.3125-51.101563 37.300781-36.03125 6.863281-56 30-54.863281 51.996094v23.496094c0 35.050781 28.414062 63.464843 63.464844 63.464843h21.042968c35.050782 0 63.464844-28.414062 63.464844-63.464843v-69.03125c0-3.585938-2.304687-6.726563-5.691406-7.910157zm0 0" fill="#fcb275"/><path d="m321.164062 493.355469-9.441406-169.5c-.714844-12.800781-9.667968-23.652344-22.101562-26.78125l-40.558594-10.207031c-7.035156-1.773438-14-3.828126-20.867188-6.164063l-17.945312-8.847656-3.609375-1.78125c-5.726563-2.824219-9.351563-8.652344-9.351563-15.039063v-5.777344c-7.398437 3.023438-15.484374 4.699219-23.972656 4.699219h-21.042968c-8.261719 0-16.144532-1.59375-23.382813-4.46875v5.546875c0 6.386719-3.628906 12.214844-9.351563 15.039063l-2.660156 1.308593-17.855468 8.804688c-7.558594 2.679688-15.242188 5-23.019532 6.957031l-39.445312 9.929688c-12.433594 3.128906-21.386719 13.976562-22.097656 26.777343l-9.441407 169.503907c-.414062 7.410156 5.480469 13.640625 12.902344 13.640625h290.335937c7.421876.003906 13.320313-6.230469 12.90625-13.640625zm0 0" fill="#e04e36"/><path d="m171.253906 312.992188 12.199219 14.351562c12.960937 15.25 37.6875 9.558594 42.734375-9.808594 2.476562-9.507812 4.183594-21.386718 4.332031-36.097656-.773437-.253906-1.554687-.476562-2.324219-.738281l-17.945312-8.847657-3.605469-1.78125c-.898437-.441406-1.722656-.980468-2.511719-1.5625zm0 0" fill="#fc5d4c"/><path d="m99.609375 317.535156c5.042969 19.367188 29.773437 25.058594 42.734375 9.808594l12.199219-14.351562-32.738281-44.285157c-.714844.503907-1.464844.972657-2.265626 1.367188l-2.65625 1.308593-17.855468 8.804688c-1.246094.441406-2.5.855469-3.75 1.277344.148437 14.699218 1.855468 26.570312 4.332031 36.070312zm0 0" fill="#fc5d4c"/><path d="m171.253906 312.992188c-10.796875 12.921874-16.714844 29.226562-16.714844 46.066406v147.9375h17.132813v-141.9375c0-13.679688 3.90625-27.003906 11.15625-38.449219zm0 0" fill="#fc5d4c"/><path d="m154.539062 312.992188 8.453126 12.289062c2.3125-4.339844 5.070312-8.464844 8.261718-12.289062l32.878906-44.480469c-4.242187-3.125-6.839843-8.089844-6.839843-13.476563v-5.777344c-7.398438 3.023438-15.488281 4.699219-23.972657 4.699219h-21.042968c-8.265625 0-16.148438-1.59375-23.386719-4.46875v5.546875c0 5.492188-2.691406 10.558594-7.085937 13.671875zm0 0" fill="#fcb275"/><path d="m99.058594 224.996094c-6.460938-9.933594-10.246094-21.765625-10.246094-34.503906v-23.496094c-1.136719-22 18.828125-45.132813 54.859375-51.996094 41.925781-7.984375 44.21875-28.136719 51.101563-37.292969 1.050781-1.398437 3.246093-1.082031 3.84375.5625 8.226562 22.605469 22.105468 31.667969 32.476562 35.285157 3.386719 1.179687 5.6875 4.320312 5.6875 7.90625v.738281c12.496094 1.703125 22.511719 11.128906 25.105469 23.3125v-37.804688c0-62.707031-24.21875-92.707031-64.605469-92.253906-7.609375-6.453125-19.609375-10.453125-33.609375-10.453125-65.996094 0-98.210937 48.6875-98.210937 102.707031v69.609375c0 21.398438 13.449218 40.484375 33.597656 47.679688zm0 0" fill="#7c292e"/><path d="m261.886719 176.71875v-18.769531c-2.589844 12.183593-12.609375 21.609375-25.101563 23.3125v9.230469c0 12.734374-3.785156 24.566406-10.242187 34.503906l.996093-.339844c20.535157-6.96875 34.347657-26.25 34.347657-47.9375zm0 0" fill="#7c292e"/><path d="m236.785156 122.199219v59.066406c14.550782-1.988281 25.777344-14.4375 25.777344-29.535156 0-15.101563-11.226562-27.546875-25.777344-29.53125zm0 0" fill="#fcb275"/><g fill="#231f20"><path d="m163.214844 219.90625c-6.214844 0-11.878906-2.199219-15.539063-6.03125-1.90625-2-1.832031-5.164062.164063-7.070312 2-1.910157 5.164062-1.835938 7.070312.164062 1.359375 1.417969 4.25 2.9375 8.308594 2.9375 4.054688 0 6.949219-1.519531 8.308594-2.9375 1.898437-2 5.066406-2.070312 7.066406-.164062 1.996094 1.90625 2.070312 5.070312.160156 7.070312-3.65625 3.832031-9.324218 6.03125-15.539062 6.03125zm0 0"/><path d="m200.132812 148.609375c-.792968 0-1.59375-.1875-2.34375-.585937-1.25-.664063-4.113281-1.332032-7.699218-1.332032-3.585938 0-6.449219.667969-7.699219 1.332032-2.4375 1.296874-5.46875.375-6.761719-2.066407-1.296875-2.4375-.375-5.464843 2.066406-6.761719 2.992188-1.589843 7.511719-2.503906 12.390626-2.503906 4.882812 0 9.402343.914063 12.394531 2.503906 2.4375 1.296876 3.363281 4.324219 2.066406 6.761719-.894531 1.691407-2.625 2.652344-4.414063 2.652344zm0 0"/><path d="m126.050781 148.609375c-1.792969 0-3.519531-.960937-4.417969-2.652344-1.296874-2.4375-.375-5.46875 2.066407-6.761719 2.992187-1.59375 7.511719-2.507812 12.390625-2.507812 4.886718 0 9.402344.914062 12.394531 2.507812 2.4375 1.292969 3.363281 4.324219 2.066406 6.761719s-4.328125 3.359375-6.761719 2.066407c-1.246093-.664063-4.113281-1.335938-7.699218-1.335938-3.585938 0-6.449219.671875-7.699219 1.335938-.746094.398437-1.550781.585937-2.339844.585937zm0 0"/><path d="m136.890625 168.042969c-3.3125 0-6-2.6875-6-6v-1.097657c0-3.316406 2.6875-6 6-6 3.316406 0 6 2.683594 6 6v1.097657c0 3.3125-2.683594 6-6 6zm0 0"/><path d="m189.542969 168.882812c-3.316407 0-6-2.683593-6-6v-1.097656c0-3.3125 2.683593-6 6-6 3.3125 0 6 2.6875 6 6v1.097656c0 3.316407-2.6875 6-6 6zm0 0"/><path d="m263.699219 509.222656c-2.761719 0-5-2.238281-5-5v-109.789062c0-2.761719 2.238281-5 5-5s5 2.238281 5 5v109.789062c0 2.761719-2.238281 5-5 5zm0 0"/><path d="m62.484375 509.222656c-2.761719 0-5-2.238281-5-5v-109.789062c0-2.761719 2.238281-5 5-5s5 2.238281 5 5v109.789062c0 2.761719-2.238281 5-5 5zm0 0"/><path d="m173.320312 258.957031h-21.042968c-37.75 0-68.464844-30.714843-68.464844-68.464843v-23.371094c-1.296875-26.734375 22.910156-50.175782 58.925781-57.035156 31.816407-6.058594 38.859375-19.128907 44-28.675782 1.304688-2.425781 2.542969-4.714844 4.042969-6.714844 1.59375-2.117187 4.214844-3.191406 6.828125-2.800781 2.617187.390625 4.796875 2.171875 5.703125 4.65625 7.585938 20.839844 20.191406 29.058594 29.429688 32.28125 5.410156 1.886719 9.042968 6.960938 9.042968 12.628907v69.03125c0 37.75-30.714844 68.464843-68.464844 68.464843zm22.710938-173.710937c-.160156.296875-.324219.601562-.488281.90625-5.75 10.675781-14.4375 26.804687-50.933594 33.757812-26.191406 4.988282-52.050781 22.675782-50.804687 46.828125.003906.085938.007812.171875.007812.257813v23.496094c0 32.238281 26.226562 58.464843 58.460938 58.464843h21.042968c32.238282 0 58.464844-26.226562 58.464844-58.464843v-69.03125c0-1.417969-.941406-2.699219-2.335938-3.1875-10.433593-3.640626-24.324218-12.332032-33.414062-33.027344zm0 0"/><path d="m308.257812 512h-290.335937c-4.902344 0-9.648437-2.042969-13.019531-5.609375-3.371094-3.5625-5.148438-8.414063-4.8750002-13.3125l9.4414062-169.503906c.835938-15.066407 11.234375-27.667969 25.867188-31.347657l39.449218-9.929687c7.5-1.890625 15-4.152344 22.292969-6.722656l20.246094-9.984375c4.050781-1.996094 6.566406-6.039063 6.566406-10.550782v-5.546874c0-1.65625.820313-3.207032 2.191406-4.136719 1.371094-.929688 3.113281-1.121094 4.652344-.507813 6.882813 2.726563 14.128906 4.113282 21.539063 4.113282h21.042968c7.621094 0 15.046875-1.457032 22.082032-4.328126 1.542968-.628906 3.292968-.449218 4.679687.476563 1.378906.929687 2.210937 2.488281 2.210937 4.152344v5.777343c0 4.511719 2.511719 8.554688 6.558594 10.550782l21.261719 10.480468c6.605469 2.238282 13.386719 4.238282 20.171875 5.945313l40.558594 10.207031c14.636718 3.683594 25.03125 16.285156 25.871094 31.351563l9.441406 169.5c.273437 4.898437-1.503906 9.75-4.875 13.316406-3.367188 3.566406-8.113282 5.609375-13.019532 5.609375zm-174.410156-255.566406c-.488281 7.777344-5.027344 14.636718-12.097656 18.121094l-20.511719 10.117187c-.175781.085937-.359375.164063-.542969.226563-7.675781 2.71875-15.574218 5.105468-23.46875 7.09375l-39.445312 9.929687c-10.371094 2.609375-17.734375 11.535156-18.328125 22.207031l-9.441406 169.503906c-.121094 2.195313.640625 4.289063 2.152343 5.886719 1.511719 1.597657 3.558594 2.476563 5.757813 2.476563h290.335937c2.199219 0 4.242188-.878906 5.753907-2.476563 1.515625-1.597656 2.28125-3.691406 2.15625-5.886719l-9.441407-169.5c-.59375-10.675781-7.957031-19.597656-18.324218-22.207031l-40.5625-10.210937c-7.144532-1.800782-14.296875-3.910156-21.257813-6.277344-.207031-.070312-.40625-.15625-.601562-.25l-21.550781-10.628906c-7.117188-3.507813-11.671876-10.4375-12.109376-18.285156-6.15625 1.785156-12.519531 2.683593-19.003906 2.683593h-21.042968c-6.269532 0-12.441407-.847656-18.425782-2.523437zm0 0"/><path d="m202.21875 341.054688c-8.589844 0-16.847656-3.734376-22.574219-10.46875l-12.199219-14.351563c-1.503906-1.769531-1.59375-4.34375-.210937-6.210937l32.878906-44.480469c1.636719-2.222657 4.769531-2.691407 6.984375-1.054688.664063.488281 1.222656.839844 1.757813 1.105469l21.242187 10.472656c.285156.089844.570313.179688.855469.269532.375.113281.753906.230468 1.125.355468 2.066406.679688 3.457031 2.621094 3.4375 4.796875-.136719 13.839844-1.644531 26.394531-4.488281 37.308594-2.808594 10.785156-11.296875 19.023437-22.148438 21.503906-2.214844.507813-4.449218.753907-6.660156.753907zm-24.585938-28.277344 9.628907 11.332031c4.851562 5.703125 12.105469 8.109375 19.386719 6.445313 7.3125-1.671876 12.808593-7.007813 14.703124-14.277344 2.394532-9.199219 3.773438-19.734375 4.101563-31.351563l-19.957031-9.839843zm0 0"/><path d="m123.574219 341.054688c-2.207031 0-4.441407-.246094-6.65625-.753907-10.851563-2.480469-19.339844-10.71875-22.148438-21.503906-2.84375-10.90625-4.355469-23.445313-4.492187-37.28125-.023438-2.164063 1.351562-4.097656 3.402344-4.789063l.675781-.222656c.90625-.308594 1.820312-.613281 2.726562-.933594l20.242188-9.980468c.5-.246094 1.015625-.558594 1.589843-.964844 2.222657-1.570312 5.292969-1.078125 6.910157 1.109375l32.734375 44.292969c1.382812 1.867187 1.292968 4.4375-.210938 6.207031l-12.195312 14.351563c-5.726563 6.734374-13.988282 10.46875-22.578125 10.46875zm-19.128907-24.777344c1.894532 7.265625 7.390626 12.605468 14.699219 14.277344 7.300781 1.667968 14.542969-.746094 19.386719-6.449219l9.628906-11.328125-27.757812-37.558594-19.164063 9.453125c-.175781.085937-.359375.164063-.542969.230469-.117187.042968-.230468.082031-.347656.121094.332032 11.582031 1.707032 22.082031 4.097656 31.253906zm0 0"/><path d="m171.671875 512h-17.132813c-2.761718 0-5-2.238281-5-5v-147.941406c0-17.976563 6.351563-35.472656 17.878907-49.269532.949219-1.132812 2.34375-1.785156 3.816406-1.792968 1.429687.074218 2.875.636718 3.832031 1.761718l11.574219 13.617188c1.417969 1.667969 1.582031 4.066406.410156 5.914062-6.789062 10.714844-10.378906 23.085938-10.378906 35.773438v141.941406c0 2.757813-2.234375 4.996094-5 4.996094zm-12.132813-10h7.132813v-136.941406c0-13.347656 3.457031-26.386719 10.027344-37.941406l-5.234375-6.15625c-7.722656 11.144531-11.921875 24.464843-11.921875 38.097656v142.941406zm0 0"/><path d="m162.992188 330.28125c-1.640626 0-3.183594-.804688-4.117188-2.164062l-8.40625-12.21875-32.683594-44.21875c-.796875-1.082032-1.128906-2.441407-.914062-3.765626.210937-1.328124.949218-2.511718 2.046875-3.289062 3.117187-2.207031 4.976562-5.789062 4.976562-9.589844v-5.546875c0-1.652343.820313-3.203125 2.191407-4.132812 1.371093-.929688 3.113281-1.125 4.652343-.511719 6.882813 2.730469 14.128907 4.113281 21.539063 4.113281h21.042968c7.621094 0 15.046876-1.453125 22.082032-4.328125 1.542968-.628906 3.292968-.449218 4.679687.480469 1.378907.925781 2.210938 2.484375 2.210938 4.148437v5.777344c0 3.699219 1.792969 7.234375 4.804687 9.449219 1.070313.789063 1.785156 1.96875 1.980469 3.28125.199219 1.3125-.132813 2.648437-.921875 3.71875l-32.878906 44.480469c-.058594.082031-.121094.160156-.1875.238281-2.921875 3.496094-5.507813 7.339844-7.6875 11.429687-.820313 1.542969-2.382813 2.542969-4.128906 2.640626-.09375.003906-.1875.007812-.28125.007812zm-34.492188-60.929688 30.058594 40.671876c.035156.042968.066406.089843.097656.136718l4.054688 5.890625c1.4375-2.132812 2.976562-4.1875 4.609374-6.148437l30.164063-40.804688c-3.042969-3.585937-4.882813-8.09375-5.160156-12.824218-6.15625 1.78125-12.523438 2.683593-19.003907 2.683593h-21.042968c-6.273438 0-12.449219-.847656-18.429688-2.523437-.3125 4.796875-2.214844 9.339844-5.347656 12.917968zm0 0"/><path d="m99.058594 229.996094c-.5625 0-1.132813-.09375-1.679688-.292969-22.082031-7.886719-36.917968-28.9375-36.917968-52.386719v-69.609375c0-53.609375 31.914062-107.707031 103.210937-107.707031 13.886719 0 26.644531 3.789062 35.371094 10.449219 17.53125.179687 32.046875 5.839843 43.171875 16.839843 16.371094 16.191407 24.671875 43.246094 24.671875 80.414063v37.804687c0 2.558594-1.929688 4.707032-4.476563 4.972657-2.566406.269531-4.878906-1.429688-5.414062-3.933594-2.167969-10.191406-10.558594-17.988281-20.886719-19.398437-2.476563-.335938-4.324219-2.453126-4.324219-4.953126v-.734374c0-1.417969-.9375-2.699219-2.332031-3.1875-10.4375-3.640626-24.332031-12.332032-33.421875-33.027344-.160156.296875-.324219.597656-.488281.90625-5.75 10.675781-14.4375 26.804687-50.929688 33.757812-26.191406 4.988282-52.054687 22.675782-50.804687 46.828125.003906.085938.003906.171875.003906.257813v23.496094c0 11.292968 3.265625 22.285156 9.4375 31.78125 1.171875 1.796874 1.0625 4.140624-.265625 5.824218-.96875 1.222656-2.425781 1.898438-3.925781 1.898438zm64.613281-219.996094c-43 0-93.210937 25.589844-93.210937 97.707031v69.609375c0 14.09375 6.535156 27.136719 17.15625 35.640625-2.507813-7.183593-3.804688-14.761719-3.804688-22.464843v-23.371094c-1.300781-26.734375 22.910156-50.175782 58.925781-57.035156 31.816407-6.058594 38.855469-19.128907 43.996094-28.675782 1.304687-2.421875 2.539063-4.710937 4.039063-6.707031 1.59375-2.121094 4.214843-3.191406 6.835937-2.804687 2.617187.390624 4.800781 2.175781 5.707031 4.660156 7.585938 20.835937 20.1875 29.050781 29.425782 32.273437 4.277343 1.488281 7.441406 4.972657 8.578124 9.164063 5.933594 1.511718 11.277344 4.550781 15.566407 8.6875v-18.976563c0-34.398437-7.300781-59.0625-21.703125-73.304687-9.539063-9.429688-22.355469-14.113282-37.84375-13.949219-.019532 0-.039063 0-.054688 0-1.1875 0-2.332031-.417969-3.234375-1.183594-6.945312-5.890625-18.015625-9.269531-30.378906-9.269531zm0 0"/><path d="m226.542969 229.996094c-1.511719 0-2.980469-.6875-3.945313-1.929688-1.308594-1.679687-1.40625-4.007812-.246094-5.792968 6.171876-9.496094 9.433594-20.484376 9.433594-31.78125v-9.226563c0-2.5 1.847656-4.617187 4.324219-4.957031 10.324219-1.410156 18.71875-9.203125 20.886719-19.398438.535156-2.5 2.84375-4.199218 5.414062-3.929687 2.542969.265625 4.476563 2.414062 4.476563 4.972656v18.765625c0 23.84375-15.167969 45.011719-37.746094 52.675781l-.988281.335938c-.527344.179687-1.070313.265625-1.609375.265625zm15.242187-44.652344v5.148438c0 8.0625-1.417968 15.992187-4.160156 23.46875 11.855469-8.386719 19.242188-22.132813 19.261719-37.183594-4.179688 4.03125-9.355469 7.015625-15.101563 8.566406zm0 0"/><path d="m236.785156 186.261719c-1.203125 0-2.375-.433594-3.289062-1.234375-1.089844-.949219-1.710938-2.320313-1.710938-3.765625v-59.0625c0-1.445313.621094-2.820313 1.710938-3.765625 1.085937-.953125 2.539062-1.382813 3.960937-1.191406 17.164063 2.34375 30.105469 17.167968 30.105469 34.488281 0 17.320312-12.941406 32.144531-30.105469 34.488281-.222656.027344-.449219.042969-.671875.042969zm5-57.632813v46.199219c9.296875-3.65625 15.777344-12.753906 15.777344-23.101563 0-10.34375-6.480469-19.4375-15.777344-23.097656zm0 0"/></g></svg>