<svg height="512pt" viewBox="-93 0 512 512.02" width="512pt" xmlns="http://www.w3.org/2000/svg"><path d="m321.183594 493.375-9.441406-169.503906c-.714844-12.800782-9.667969-23.652344-22.101563-26.78125l-40.5625-10.210938c-7.035156-1.769531-13.996094-3.828125-20.867187-6.164062l-17.945313-8.847656-3.609375-1.777344c-5.726562-2.824219-9.351562-8.65625-9.351562-15.039063v-5.800781c-7.566407 3.035156-15.820313 4.71875-24.46875 4.71875h-16.089844c-9.953125 0-19.386719-2.222656-27.84375-6.175781v7.257812c0 6.382813-3.625 12.214844-9.351563 15.039063l-2.65625 1.308594-17.855469 8.804687c-7.5625 2.675781-15.242187 5-23.023437 6.953125l-39.449219 9.933594c-12.429687 3.128906-21.386718 13.976562-22.097656 26.777344l-9.441406 169.507812c-.414063 7.410156 5.484375 13.644531 12.902344 13.644531h290.34375c7.425781 0 13.320312-6.234375 12.910156-13.644531zm0 0" fill="#1b87c9"/><path d="m157.121094 507.019531h16.410156v-164.175781l15.242188-15.242188-13.117188-10.558593-18.535156 19.8125zm0 0" fill="#30a9e5"/><path d="m263.714844 509.242188c-2.761719 0-5-2.238282-5-5v-109.789063c0-2.761719 2.238281-5 5-5 2.761718 0 5 2.238281 5 5v109.789063c0 2.761718-2.238282 5-5 5zm0 0" fill="#231f20"/><path d="m62.5 509.242188c-2.761719 0-5-2.238282-5-5v-109.789063c0-2.761719 2.238281-5 5-5s5 2.238281 5 5v109.789063c0 2.761718-2.238281 5-5 5zm0 0" fill="#231f20"/><path d="m308.277344 512.019531h-290.34375c-4.902344 0-9.648438-2.042969-13.019532-5.605469-3.371093-3.5625-5.148437-8.417968-4.8749995-13.3125l9.4414065-169.507812c.835937-15.070312 11.234375-27.667969 25.867187-31.351562l39.449219-9.929688c7.503906-1.886719 15.003906-4.148438 22.296875-6.722656l20.246094-9.984375c4.050781-1.996094 6.566406-6.039063 6.566406-10.550781v-7.257813c0-1.710937.871094-3.300781 2.316406-4.21875 1.441406-.917969 3.25-1.035156 4.800782-.308594 8.097656 3.785157 16.75 5.707031 25.722656 5.707031h16.089844c7.789062 0 15.394531-1.464843 22.609374-4.359374 1.542969-.621094 3.292969-.429688 4.664063.5 1.375.929687 2.199219 2.480468 2.199219 4.140624v5.800782c0 4.511718 2.515625 8.554687 6.5625 10.550781l21.261718 10.484375c6.609376 2.238281 13.394532 4.238281 20.171876 5.945312l40.558593 10.207032c14.632813 3.683594 25.03125 16.28125 25.871094 31.351562l9.441406 169.503906c.277344 4.898438-1.503906 9.75-4.875 13.3125-3.371093 3.566407-8.117187 5.605469-13.023437 5.605469zm-174.371094-256.824219c-.054688 8.289063-4.695312 15.707032-12.140625 19.375l-20.515625 10.117188c-.175781.085938-.355469.164062-.539062.226562-7.675782 2.71875-15.570313 5.105469-23.46875 7.09375l-39.449219 9.929688c-10.367188 2.609375-17.730469 11.535156-18.328125 22.207031l-9.441406 169.507813c-.121094 2.199218.644531 4.289062 2.15625 5.886718 1.511718 1.597657 3.554687 2.476563 5.753906 2.476563h290.34375c2.203125 0 4.246094-.878906 5.757812-2.480469 1.511719-1.597656 2.277344-3.6875 2.15625-5.886718l-9.441406-169.503907c-.59375-10.675781-7.960938-19.597656-18.328125-22.207031l-40.5625-10.210938c-7.136719-1.796874-14.292969-3.910156-21.257813-6.277343-.207031-.070313-.40625-.15625-.601562-.25l-21.550781-10.628907c-7.132813-3.515624-11.691407-10.464843-12.109375-18.335937-6.324219 1.816406-12.859375 2.734375-19.503906 2.734375h-16.089844c-7.859375 0-15.511719-1.265625-22.839844-3.773438zm0 0" fill="#231f20"/><path d="m173.53125 512.019531h-16.410156c-2.765625 0-5-2.238281-5-5v-170.164062c0-1.269531.480468-2.492188 1.347656-3.417969l18.535156-19.808594c1.789063-1.914062 4.742188-2.121094 6.785156-.480468l13.121094 10.554687c1.105469.890625 1.78125 2.207031 1.859375 3.625.074219 1.417969-.453125 2.800781-1.457031 3.804687l-13.78125 13.78125v162.105469c0 2.761719-2.238281 5-5 5zm-11.410156-10h6.410156v-159.175781c0-1.324219.527344-2.597656 1.464844-3.535156l11.304687-11.304688-5.167969-4.15625-14.015624 14.980469v163.191406zm0 0" fill="#231f20"/><path d="m206.660156 270.089844c-5.726562-2.824219-9.351562-8.65625-9.351562-15.039063v-5.800781c-7.566406 3.035156-15.820313 4.71875-24.472656 4.71875h-16.089844c-9.953125 0-19.382813-2.222656-27.839844-6.175781v7.257812c0 6.382813-3.628906 12.214844-9.351562 15.039063l-1.253907.617187 32.828125 46.335938 12.949219 12.367187 11.574219-12.367187 32.691406-46.125zm0 0" fill="#fcb275"/><path d="m234.472656 282.703125c-2.089844-.652344-4.1875-1.28125-6.257812-1.988281l-17.945313-8.847656-1.925781-.945313-32.6875 46.121094 23.382812 18.8125zm0 0" fill="#30a9e5"/><path d="m92.214844 282.503906 35.566406 53.351563 23.347656-18.8125-32.828125-46.335938-1.40625.691407-17.855469 8.804687c-2.261718.804687-4.539062 1.5625-6.824218 2.300781zm0 0" fill="#30a9e5"/><path d="m199.039062 340.855469c-1.132812 0-2.238281-.382813-3.132812-1.101563l-23.386719-18.8125c-2.054687-1.65625-2.46875-4.632812-.945312-6.789062l32.691406-46.125c1.421875-2.003906 4.082031-2.679688 6.289063-1.59375l19.578124 9.652344c1.421876.476562 2.851563.921874 4.285157 1.363281l1.550781.484375c1.503906.46875 2.695312 1.621094 3.21875 3.105468.527344 1.484376.320312 3.125-.550781 4.4375l-35.433594 53.152344c-.78125 1.167969-2.015625 1.957032-3.402344 2.167969-.253906.042969-.507812.058594-.761719.058594zm-16.585937-24.757813 15.457031 12.433594 28.71875-43.074219c-.011718-.003906-.019531-.007812-.03125-.007812-.203125-.070313-.40625-.15625-.597656-.25l-16.042969-7.914063zm0 0" fill="#231f20"/><path d="m127.78125 340.855469c-.25 0-.503906-.019531-.757812-.058594-1.386719-.210937-2.621094-1-3.398438-2.167969l-35.570312-53.351562c-.871094-1.304688-1.078126-2.9375-.5625-4.417969.511718-1.480469 1.691406-2.632813 3.183593-3.117187 2.148438-.691407 4.289063-1.402344 6.417969-2.152344l18.992188-9.367188c2.203124-1.085937 4.871093-.414062 6.292968 1.59375l32.832032 46.335938c1.523437 2.15625 1.113281 5.125-.945313 6.785156l-23.347656 18.808594c-.894531.722656-2 1.109375-3.136719 1.109375zm-27.78125-55.691407 28.90625 43.367188 15.425781-12.429688-27.648437-39.023437-15.433594 7.609375c-.175781.085938-.355469.164062-.539062.226562-.238282.085938-.476563.171876-.710938.25zm0 0" fill="#231f20"/><path d="m238.640625 122.460938c5.339844.730468 10.222656 2.878906 14.273437 6.042968 18.328126-62.171875-5.675781-82.933594-16.386718-88.015625-3.082032-1.460937-5.617188-3.839843-7.46875-6.703125-6.066406-9.386718-23.15625-28.785156-60.792969-28.785156-49.640625 0-71.484375 31.769531-91.339844 37.726562-11.585937 3.476563-17.085937-.484374-19.660156-4.382812-2.066406-3.136719-6.460937-3.664062-9.390625-1.316406-21.085938 16.871094-25.871094 76.359375 17.140625 87.113281 37.640625 9.410156 62.640625-15.871094 73.148437-22.757813 1.320313-.863281 2.972657.457032 2.417969 1.933594l-2.445312 6.523438c-.792969 2.121094.863281 4.367187 3.121093 4.242187 24.457032-1.339843 41.734376-12.675781 48.996094-18.414062 1.570313-1.242188 3.882813-.285157 4.117188 1.703125 3.105468 26.234375 31.398437 36.28125 38.035156 38.289062.5.152344 3.96875 1.230469 6.234375 1.871094zm0 0" fill="#7c292e"/><path d="m238.640625 122.460938v58.953124c14.523437-1.980468 25.730469-14.402343 25.730469-29.472656 0-15.074218-11.207032-27.496094-25.730469-29.480468zm0 0" fill="#fcb275"/><path d="m194.371094 97.371094c-.238282-1.988282-2.546875-2.945313-4.117188-1.703125-7.265625 5.738281-24.539062 17.074219-48.996094 18.414062-2.261718.125-3.917968-2.121093-3.121093-4.242187l2.445312-6.523438c.554688-1.472656-1.09375-2.796875-2.410156-1.9375-7.871094 5.152344-23.871094 20.632813-47.222656 24.125v62.667969c0 36.339844 29.460937 65.800781 65.800781 65.800781h16.089844c36.339844 0 65.800781-29.460937 65.800781-65.800781v-50.640625c-2.261719-.636719-5.734375-1.71875-6.234375-1.871094-6.636719-2.007812-34.929688-12.054687-38.035156-38.289062zm0 0" fill="#fcb275"/><path d="m80.695312 126.191406c-8.894531 5.140625-14.890624 14.730469-14.890624 25.746094 0 14.867188 10.90625 27.15625 25.144531 29.386719v-55.820313c-3.273438.488282-6.695313.726563-10.253907.6875zm0 0" fill="#fcb275"/><g fill="#231f20"><path d="m238.640625 142.53125c-.457031 0-.910156-.0625-1.359375-.1875-1.902344-.539062-4.640625-1.378906-5.832031-1.746094l-.492188-.152344c-3.601562-1.089843-12.945312-4.324218-21.835937-10.804687-10.160156-7.402344-16.675782-16.878906-19.03125-27.601563-9.386719 6.703126-26.066406 15.804688-48.558594 17.035157-2.765625.171875-5.378906-1.089844-7.015625-3.316407-.941406-1.289062-1.472656-2.789062-1.570313-4.324218-13.601562 10.144531-36.929687 25.609375-69.148437 17.554687-18.402344-4.597656-30.875-17.847656-35.125-37.308593-4.761719-21.8125 2.296875-47.539063 16.074219-58.558594 2.550781-2.039063 5.859375-2.917969 9.082031-2.410156 3.117187.492187 5.894531 2.269531 7.609375 4.878906 2.398438 3.636718 7.125 4.429687 14.050781 2.351562 5.652344-1.699218 11.984375-6.117187 19.320313-11.234375 16.160156-11.269531 38.285156-26.707031 73.457031-26.707031 40.535156 0 58.953125 21.730469 64.992187 31.070312 1.417969 2.199219 3.292969 3.894532 5.410157 4.902344 4.457031 2.113282 15.476562 8.816406 21.625 25.375 6.523437 17.558594 5.648437 40.628906-2.582031 68.570313-.46875 1.589843-1.695313 2.839843-3.273438 3.347656-1.574219.507813-3.296875.195313-4.605469-.820313-1.894531-1.480468-3.984375-2.671874-6.195312-3.546874v8.632812c0 1.566406-.734375 3.042969-1.984375 3.988281-.875.664063-1.9375 1.011719-3.011719 1.011719zm-46.796875-52.414062c.972656 0 1.953125.1875 2.878906.570312 2.523438 1.042969 4.289063 3.378906 4.613282 6.09375 2.726562 23.050781 28.558593 32.257812 34.300781 34.027344v-8.347656c0-1.445313.625-2.820313 1.710937-3.765626 1.085938-.953124 2.542969-1.390624 3.964844-1.1875 3.675781.5 7.246094 1.59375 10.566406 3.226563 15.015625-57.851563-10.136718-73.183594-15.5-75.730469-3.800781-1.804687-7.097656-4.746094-9.523437-8.507812-15.457031-23.914063-44.726563-26.5-56.59375-26.5-32.027344 0-51.828125 13.8125-67.734375 24.910156-8.039063 5.609375-14.984375 10.453125-22.167969 12.609375-15.277344 4.585937-22.394531-2.058594-25.273437-6.421875-.183594-.277344-.457032-.449219-.824219-.503906-.449219-.070313-.910157.050781-1.273438.339844-10.871093 8.699218-16.5 30.511718-12.546875 48.617187 2.398438 11 9.167969 25.089844 27.78125 29.742187 29.898438 7.476563 50.925782-8.429687 63.492188-17.9375 2.171875-1.644531 4.050781-3.066406 5.707031-4.148437 2.40625-1.578125 5.535156-1.429687 7.773437.367187 2.246094 1.796876 3.074219 4.8125 2.0625 7.503907l-1.425781 3.808593c21.972657-1.988281 37.507813-12.542968 43.320313-17.136718 1.359375-1.074219 3.019531-1.628906 4.691406-1.628906zm0 0"/><path d="m238.640625 186.414062c-1.203125 0-2.375-.433593-3.289063-1.230468-1.089843-.953125-1.710937-2.324219-1.710937-3.769532v-58.953124c0-1.441407.621094-2.816407 1.710937-3.765626 1.085938-.949218 2.539063-1.382812 3.960938-1.1875 17.132812 2.339844 30.054688 17.140626 30.054688 34.433594 0 17.289063-12.921876 32.089844-30.054688 34.429688-.222656.027344-.449219.042968-.671875.042968zm5-57.519531v46.085938c9.269531-3.652344 15.730469-12.722657 15.730469-23.042969 0-10.316406-6.460938-19.390625-15.730469-23.042969zm0 0"/><path d="m172.835938 258.96875h-16.089844c-39.039063 0-70.800782-31.757812-70.800782-70.796875v-62.667969c0-2.476562 1.8125-4.578125 4.261719-4.945312 17.601563-2.632813 30.785157-12.609375 39.507813-19.207032 2.179687-1.648437 4.058594-3.074218 5.714844-4.15625 2.40625-1.574218 5.527343-1.425781 7.765624.367188 2.246094 1.800781 3.078126 4.816406 2.066407 7.511719l-1.429688 3.808593c21.976563-1.992187 37.507813-12.546874 43.320313-17.140624 2.148437-1.691407 5.042968-2.097657 7.570312-1.054688 2.523438 1.042969 4.289063 3.378906 4.613282 6.097656 2.761718 23.351563 29.238281 32.496094 34.515624 34.089844l.542969.167969c1.140625.351562 3.773438 1.164062 5.601563 1.675781 2.15625.609375 3.644531 2.574219 3.644531 4.8125v50.640625c0 39.039063-31.761719 70.796875-70.804687 70.796875zm-76.890626-129.292969v58.496094c0 33.527344 27.277344 60.800781 60.800782 60.800781h16.089844c33.527343 0 60.800781-27.277344 60.800781-60.800781v-46.902344c-.886719-.273437-1.679688-.515625-2.191407-.671875l-.488281-.152344c-6.027343-1.820312-35.101562-11.921874-40.871093-38.402343-9.390626 6.703125-26.066407 15.800781-48.558594 17.03125-2.746094.160156-5.375-1.089844-7.011719-3.316407-.945313-1.289062-1.472656-2.789062-1.570313-4.324218-8.402343 6.261718-20.90625 14.800781-37 18.242187zm93.460938-31.714843v.007812c0-.003906 0-.003906 0-.007812zm0 0"/><path d="m90.945312 186.324219c-.257812 0-.515624-.019531-.773437-.058594-17.015625-2.667969-29.367187-17.105469-29.367187-34.324219 0-12.355468 6.664062-23.878906 17.386718-30.078125.78125-.453125 1.65625-.667969 2.5625-.671875 3.222656.03125 6.394532-.171875 9.453125-.632812 1.441407-.214844 2.898438.207031 4.003907 1.15625 1.101562.949218 1.734374 2.335937 1.734374 3.789062v55.820313c0 1.460937-.636718 2.851562-1.75 3.800781-.910156.78125-2.0625 1.199219-3.25 1.199219zm-8.84375-55.132813c-7 4.546875-11.296874 12.378906-11.296874 20.746094 0 10.214844 6.101562 19.050781 15.144531 22.824219v-43.707031c-1.277344.082031-2.558594.128906-3.847657.136718zm0 0"/><path d="m163.390625 216.5625c-8.808594 0-17.015625-4.363281-21.953125-11.667969-1.542969-2.289062-.941406-5.398437 1.34375-6.941406 2.289062-1.546875 5.398438-.945313 6.945312 1.34375 3.074219 4.550781 8.183594 7.265625 13.664063 7.265625s10.589844-2.714844 13.664063-7.265625c1.542968-2.289063 4.65625-2.890625 6.941406-1.34375 2.292968 1.542969 2.890625 4.652344 1.34375 6.941406-4.9375 7.304688-13.144532 11.667969-21.949219 11.667969zm0 0"/><path d="m200.234375 147.953125c-.792969 0-1.597656-.1875-2.347656-.589844-1.242188-.660156-4.097657-1.328125-7.675781-1.328125-3.578126 0-6.4375.667969-7.683594 1.328125-2.4375 1.296875-5.464844.371094-6.761719-2.066406-1.292969-2.4375-.371094-5.460937 2.066406-6.761719 2.988281-1.589844 7.5-2.5 12.378907-2.5 4.875 0 9.386718.910156 12.375 2.5 2.4375 1.296875 3.359374 4.328125 2.0625 6.761719-.898438 1.691406-2.625 2.65625-4.414063 2.65625zm0 0"/><path d="m146.339844 147.953125c-.792969 0-1.597656-.1875-2.34375-.585937-1.246094-.664063-4.101563-1.332032-7.679688-1.332032s-6.433594.667969-7.675781 1.332032c-2.4375 1.292968-5.464844.371093-6.761719-2.066407s-.375-5.464843 2.0625-6.761719c2.988282-1.589843 7.5-2.503906 12.378906-2.503906 4.875 0 9.386719.914063 12.375 2.503906 2.4375 1.296876 3.363282 4.324219 2.066407 6.761719-.90625 1.6875-2.632813 2.652344-4.421875 2.652344zm0 0"/><path d="m137.113281 167.351562c-3.3125 0-6-2.6875-6-6v-1.097656c0-3.3125 2.6875-6 6-6s6 2.6875 6 6v1.097656c0 3.3125-2.6875 6-6 6zm0 0"/><path d="m189.664062 168.191406c-3.316406 0-6-2.6875-6-6v-1.097656c0-3.3125 2.683594-6 6-6 3.3125 0 6 2.6875 6 6v1.097656c0 3.3125-2.683593 6-6 6zm0 0"/><path d="m164.078125 334.414062c-1.285156 0-2.519531-.496093-3.453125-1.382812l-12.949219-12.371094c-.234375-.21875-.441406-.464844-.625-.722656l-32.832031-46.335938c-.84375-1.195312-1.125-2.699218-.765625-4.121093.359375-1.417969 1.320313-2.605469 2.632813-3.253907l1.253906-.621093c4.050781-1.996094 6.566406-6.042969 6.566406-10.554688v-7.257812c0-1.707031.871094-3.300781 2.316406-4.21875 1.441406-.917969 3.25-1.03125 4.800782-.308594 8.097656 3.789063 16.75 5.707031 25.722656 5.707031h16.089844c7.789062 0 15.394531-1.464844 22.609374-4.359375 1.542969-.617187 3.292969-.429687 4.664063.5 1.375.929688 2.199219 2.484375 2.199219 4.144531v5.796876c0 4.515624 2.515625 8.558593 6.5625 10.554687h.003906l1.683594.832031c1.3125.648438 2.273437 1.835938 2.632812 3.253906.359375 1.417969.078125 2.925782-.769531 4.117188l-32.6875 46.128906c-.132813.183594-.277344.359375-.429687.523438l-11.574219 12.371094c-.914063.972656-2.175781 1.542968-3.511719 1.578124-.046875 0-.089844 0-.140625 0zm-9.144531-20.652343 8.949218 8.546875 7.886719-8.433594 29.308594-41.351562c-5.175781-3.828126-8.390625-9.742188-8.738281-16.289063-6.324219 1.816406-12.859375 2.734375-19.503906 2.734375h-16.089844c-7.859375 0-15.511719-1.265625-22.839844-3.773438-.046875 6.792969-3.167969 13-8.394531 17.039063zm0 0"/></g></svg>