<svg height="511pt" viewBox="-89 0 511 511.96658" width="511pt" xmlns="http://www.w3.org/2000/svg"><path d="m327.734375 493.0625-9.621094-172.769531c-.726562-13.042969-9.851562-24.101563-22.523437-27.292969l-40.207032-10.121094c-7.929687-1.996094-15.757812-4.359375-23.464843-7.089844l-18.199219-8.972656-2.707031-1.335937c-5.835938-2.878907-9.53125-8.820313-9.53125-15.328125v-8.796875l-.5.488281c-8.546875 8.320312-20.003907 12.980469-31.933594 12.980469.144531 0-4.378906 0-4.621094 0-11.925781 0-23.382812-4.660157-31.929687-12.980469l-.734375-.71875v9.027344c0 6.507812-3.695313 12.449218-9.53125 15.328125l-3.679688 1.8125-18.289062 9.019531c-7.003907 2.378906-14.097657 4.476562-21.269531 6.28125l-41.34375 10.40625c-12.671876 3.1875-21.796876 14.246094-22.523438 27.292969l-9.621094 172.765625c-.421875 7.550781 5.589844 13.90625 13.152344 13.90625h295.925781c7.5625 0 13.574219-6.351563 13.152344-13.902344zm0 0" fill="#fcb275"/><path d="m327.734375 493.0625-9.621094-172.769531c-.726562-13.042969-9.851562-24.101563-22.523437-27.292969l-16.054688-4.039062c-26.785156 22.316406-67.644531 36.582031-113.4375 36.582031-45.660156 0-86.414062-14.179688-113.203125-36.378907l-15.242187 3.835938c-12.671875 3.191406-21.796875 14.25-22.527344 27.292969l-9.621094 172.769531c-.417968 7.550781 5.589844 13.902344 13.15625 13.902344h295.921875c7.5625 0 13.574219-6.351563 13.152344-13.902344zm0 0" fill="#fc5d4c"/><path d="m239.554688 113.175781c-10.621094-2.355469-28.398438-10.371093-38.25-37.425781-.609376-1.675781-2.8125-2.03125-3.886719-.609375-7.050781 9.316406-29.601563 33.351563-73.195313 30.878906-14.265625-.8125-24.476562 3.875-30.535156 9.796875l-5.289062 60.160156c-1.238282 13.289063 3.597656 26.421876 13.15625 35.730469l30.941406 30.136719c8.542968 8.320312 20 12.980469 31.929687 12.980469.238281 0 4.761719 0 4.621094 0 11.925781 0 23.382813-4.660157 31.929687-12.980469l30.941407-30.136719c9.558593-9.308593 14.394531-22.445312 13.15625-35.730469zm0 0" fill="#fcb275"/><path d="m93.472656 118.253906c-.457031-.023437-.90625-.070312-1.371094-.070312-13.4375 0-24.332031 10.894531-24.332031 24.332031 0 12.460937 9.371094 22.71875 21.445313 24.148437zm0 0" fill="#fcb275"/><path d="m240.121094 118.183594c-.042969 0-.082032.007812-.125.007812l4.242187 48.28125c11.472657-1.957031 20.214844-11.925781 20.214844-23.957031.003906-13.4375-10.890625-24.332031-24.332031-24.332031zm0 0" fill="#fcb275"/><path d="m92.101562 118.183594c.460938 0 .914063.046875 1.371094.070312l.214844-2.4375c6.058594-5.921875 16.273438-10.605468 30.535156-9.796875 43.59375 2.472657 66.144532-21.5625 73.195313-30.878906 1.074219-1.421875 3.277343-1.066406 3.886719.609375 9.851562 27.054688 27.628906 35.070312 38.25 37.425781l.441406 5.015625c.042968 0 .082031-.007812.125-.007812 11.828125 0 21.675781 8.441406 23.871094 19.628906 9.308593-28.714844 15.628906-68.167969-5.78125-95.613281-39.78125-50.996094-77.003907-36.789063-88.273438-30.664063-1.617188.882813-3.480469.882813-5.097656 0-11.269532-6.125-48.496094-20.332031-88.277344 30.664063-20.382812 26.128906-15.628906 63.148437-7.09375 91.417969 3.554688-9.03125 12.335938-15.433594 22.632812-15.433594zm0 0" fill="#7c292e"/><g fill="#231f20"><path d="m166.746094 216.289062c-6.308594 0-12.054688-2.230468-15.769532-6.121093-1.90625-1.996094-1.832031-5.160157.164063-7.066407s5.160156-1.835937 7.070313.164063c1.78125 1.863281 5.050781 3.023437 8.535156 3.023437s6.753906-1.160156 8.535156-3.023437c1.90625-2 5.074219-2.074219 7.070312-.164063 1.996094 1.90625 2.070313 5.070313.164063 7.066407-3.660156 3.835937-9.554687 6.121093-15.769531 6.121093zm0 0"/><path d="m183.902344 143.621094c-1.789063 0-3.519532-.960938-4.417969-2.652344-1.296875-2.4375-.375-5.464844 2.0625-6.761719 3.039063-1.617187 7.625-2.542969 12.589844-2.542969 4.960937 0 9.550781.925782 12.589843 2.542969 2.4375 1.296875 3.363282 4.324219 2.066407 6.761719s-4.328125 3.363281-6.761719 2.066406c-1.191406-.628906-3.96875-1.371094-7.894531-1.371094-3.921875 0-6.703125.738282-7.886719 1.371094-.753906.398438-1.554688.585938-2.347656.585938zm0 0"/><path d="m149.335938 143.621094c-.792969 0-1.597657-.1875-2.347657-.585938-1.1875-.632812-3.964843-1.371094-7.890625-1.371094-3.921875 0-6.703125.738282-7.890625 1.371094-2.4375 1.296875-5.464843.375-6.761719-2.066406-1.296874-2.4375-.371093-5.464844 2.066407-6.761719 3.035156-1.617187 7.625-2.542969 12.585937-2.542969 4.964844 0 9.554688.925782 12.589844 2.542969 2.4375 1.296875 3.363281 4.324219 2.066406 6.761719-.898437 1.691406-2.628906 2.652344-4.417968 2.652344zm0 0"/><path d="m139.914062 163.410156c-3.3125 0-6-2.6875-6-6v-1.121094c0-3.316406 2.6875-6 6-6 3.316407 0 6 2.683594 6 6v1.121094c0 3.3125-2.683593 6-6 6zm0 0"/><path d="m193.578125 164.265625c-3.316406 0-6-2.683594-6-6v-1.117187c0-3.316407 2.683594-6 6-6 3.3125 0 6 2.683593 6 6v1.117187c0 3.316406-2.6875 6-6 6zm0 0"/><path d="m64.078125 509.132812c-2.761719 0-5-2.234374-5-5v-111.898437c0-2.761719 2.238281-5 5-5s5 2.238281 5 5v111.898437c0 2.765626-2.238281 5-5 5zm0 0"/><path d="m269.160156 509.132812c-2.761718 0-5-2.234374-5-5v-111.898437c0-2.761719 2.238282-5 5-5 2.761719 0 5 2.238281 5 5v111.898437c0 2.765626-2.238281 5-5 5zm0 0"/><path d="m314.582031 511.964844h-295.921875c-4.972656 0-9.789062-2.070313-13.207031-5.683594s-5.214844-8.53125-4.941406-13.5l9.621093-172.765625c.855469-15.3125 11.421876-28.117187 26.296876-31.863281l41.339843-10.40625c6.910157-1.742188 13.832031-3.78125 20.574219-6.066406l21.675781-10.6875c4.15625-2.050782 6.742188-6.207032 6.742188-10.839844v-9.027344c0-2.011719 1.203125-3.824219 3.054687-4.605469 1.859375-.78125 3.988282-.378906 5.433594 1.023438l.734375.714843c7.652344 7.457032 17.753906 11.5625 28.441406 11.5625h4.621094c10.6875 0 20.789063-4.109374 28.441406-11.5625l.5-.488281c1.441407-1.402343 3.582031-1.804687 5.433594-1.023437s3.054687 2.59375 3.054687 4.605468v8.800782c0 4.632812 2.585938 8.789062 6.742188 10.839844l20.640625 10.179687c7.453125 2.625 15.101563 4.933594 22.742187 6.855469l40.203126 10.121094c14.878906 3.746093 25.445312 16.550781 26.296874 31.863281l9.621094 172.765625c.28125 4.964844-1.523437 9.886718-4.9375 13.5-3.417968 3.617187-8.230468 5.6875-13.203125 5.6875zm-177.867187-260.359375c-.507813 7.882812-5.113282 14.828125-12.273438 18.359375l-21.96875 10.832031c-.195312.097656-.394531.179687-.601562.25-7.09375 2.414063-14.378906 4.566406-21.660156 6.398437l-41.339844 10.40625c-10.609375 2.667969-18.144532 11.800782-18.753906 22.722657l-9.621094 172.765625c-.125 2.265625.664062 4.421875 2.21875 6.074218 1.5625 1.648438 3.671875 2.554688 5.941406 2.554688h295.925781c2.269531 0 4.375-.90625 5.9375-2.558594 1.558594-1.648437 2.347657-3.804687 2.222657-6.066406l-9.625-172.765625c-.609376-10.921875-8.144532-20.054687-18.753907-22.726563l-40.203125-10.121093c-8.039062-2.023438-16.082031-4.453125-23.914062-7.226563-.183594-.066406-.367188-.140625-.542969-.226562l-20.90625-10.3125c-7.121094-3.507813-11.710937-10.390625-12.265625-18.210938-8.125 5.253906-17.605469 8.070313-27.488281 8.070313h-4.621094c-9.96875 0-19.53125-2.875-27.707031-8.21875zm0 0"/><path d="m166.097656 362.820312c-35.355468 0-64.117187-41.257812-64.117187-91.972656 0-2.761718 2.238281-5 5-5s5 2.238282 5 5c0 45.199219 24.277343 81.972656 54.117187 81.972656s54.113282-36.773437 54.113282-81.972656c0-2.761718 2.238281-5 5-5 2.761718 0 5 2.238282 5 5 0 50.714844-28.761719 91.972656-64.113282 91.972656zm0 0"/><path d="m314.582031 511.964844h-295.921875c-4.972656 0-9.789062-2.070313-13.207031-5.683594s-5.214844-8.53125-4.941406-13.5l9.621093-172.765625c.855469-15.3125 11.421876-28.117187 26.296876-31.863281l15.242187-3.835938c1.550781-.394531 3.1875-.019531 4.410156 1 27.019531 22.386719 67.121094 35.226563 110.015625 35.226563 43.03125 0 83.210938-12.910157 110.238282-35.425781 1.226562-1.023438 2.871093-1.398438 4.421874-1.003907l16.046876 4.039063c14.878906 3.746094 25.445312 16.550781 26.296874 31.867187l9.621094 172.765625c.28125 4.964844-1.523437 9.882813-4.9375 13.496094-3.417968 3.613281-8.230468 5.683594-13.203125 5.683594zm-262.894531-217.339844-12.816406 3.222656c-10.609375 2.671875-18.144532 11.804688-18.753906 22.726563l-9.621094 172.765625c-.125 2.265625.664062 4.421875 2.21875 6.070312 1.5625 1.648438 3.671875 2.554688 5.941406 2.554688h295.925781c2.269531 0 4.375-.90625 5.9375-2.554688 1.558594-1.648437 2.347657-3.804687 2.222657-6.070312l-9.625-172.765625c-.609376-10.921875-8.144532-20.054688-18.753907-22.722657l-13.613281-3.425781c-28.742188 22.984375-70.355469 36.121094-114.65625 36.121094-44.15625-.003906-85.679688-13.066406-114.40625-35.921875zm0 0"/><path d="m169.046875 259.824219h-4.621094c-13.308593 0-25.886719-5.113281-35.417969-14.398438l-30.941406-30.132812c-10.699218-10.417969-16.035156-24.917969-14.648437-39.777344l5.289062-60.140625c.105469-1.1875.628907-2.300781 1.484375-3.136719 4.753906-4.644531 15.550782-12.28125 34.3125-11.210937 40.734375 2.316406 61.765625-19.441406 68.925782-28.902344 1.597656-2.109375 4.195312-3.171875 6.835937-2.785156 2.625.394531 4.828125 2.199218 5.738281 4.703125 8.699219 23.894531 23.632813 31.8125 34.628906 34.25 2.128907.472656 3.710938 2.273437 3.898438 4.445312l5.523438 62.800781c1.382812 14.839844-3.957032 29.335938-14.648438 39.753907l-30.941406 30.132812c-9.535156 9.285157-22.113282 14.398438-35.417969 14.398438zm-70.550781-141.625-5.121094 58.214843c-1.105469 11.867188 3.148438 23.414063 11.664062 31.710938l30.945313 30.136719c7.652344 7.453125 17.753906 11.558593 28.441406 11.558593h4.621094c10.683594 0 20.785156-4.105468 28.441406-11.558593l30.941407-30.136719c8.519531-8.292969 12.769531-19.84375 11.667968-31.683594l-5.214844-59.324218c-10.714843-3.238282-26.609374-11.921876-36.523437-35.207032-10.261719 11.824219-33.640625 31.414063-74.421875 29.101563-13.351562-.765625-21.335938 3.730469-25.441406 7.1875zm0 0"/><path d="m89.214844 171.664062c-.195313 0-.390625-.011718-.585938-.035156-14.742187-1.746094-25.859375-14.261718-25.859375-29.113281 0-16.171875 13.15625-29.332031 29.332031-29.332031.4375 0 .871094.023437 1.300782.054687l.347656.019531c1.351562.078126 2.613281.695313 3.5 1.71875.886719 1.023438 1.320312 2.363282 1.203125 3.710938l-4.257813 48.410156c-.117187 1.347656-.777343 2.585938-1.824218 3.441406-.898438.734376-2.011719 1.125-3.15625 1.125zm-1.234375-48.039062c-8.6875 1.894531-15.210938 9.644531-15.210938 18.890625 0 7.996094 4.890625 14.96875 11.980469 17.875zm0 0"/><path d="m244.242188 171.472656c-1.097657 0-2.171876-.359375-3.050782-1.039062-1.109375-.851563-1.808594-2.132813-1.929687-3.519532l-4.246094-48.285156c-.121094-1.378906.335937-2.746094 1.257813-3.773437.890624-1 2.144531-1.59375 3.476562-1.660157.121094-.007812.273438-.011718.375-.011718 16.175781 0 29.332031 13.160156 29.332031 29.332031 0 14.328125-10.25 26.476563-24.371093 28.886719-.28125.050781-.566407.070312-.84375.070312zm1.277343-47.523437 3.15625 35.894531c6.472657-3.167969 10.78125-9.792969 10.78125-17.328125 0-8.785156-5.894531-16.222656-13.9375-18.566406zm-5.523437-5.757813h.019531zm0 0"/><path d="m263.996094 142.8125c-.101563 0-.203125 0-.300782-.007812-2.277343-.136719-4.171874-1.792969-4.609374-4.03125-1.761719-8.992188-9.675782-15.53125-18.839844-15.589844-.101563.007812-.175782.007812-.25.007812-2.585938 0-4.753906-1.976562-4.980469-4.5625l-.132813-1.515625c-10.710937-3.234375-26.605468-11.917969-36.519531-35.207031-10.261719 11.820312-33.605469 31.414062-74.421875 29.105469-13.351562-.765625-21.335937 3.730469-25.445312 7.1875l-.042969.492187c-.238281 2.6875-2.605469 4.699219-5.257813 4.554688l-.464843-.03125c-.210938-.011719-.414063-.03125-.625-.03125-7.988281 0-15.042969 4.816406-17.980469 12.265625-.777344 1.984375-2.757812 3.253906-4.855469 3.167969-2.128906-.085938-3.964843-1.511719-4.582031-3.550782-8.519531-28.207031-14.058594-67.746094 7.9375-95.941406 42.394531-54.347656 83.132812-38.214844 94.609375-31.976562.128906.070312.195313.066406.316406 0 11.472657-6.238282 52.210938-22.375 94.609375 31.976562 22.824219 29.257812 16.183594 70.65625 6.59375 100.230469-.675781 2.070312-2.605468 3.457031-4.757812 3.457031zm-19.390625-29.285156c7.234375 1.125 13.691406 4.914062 18.207031 10.417968 6.535156-25.578124 8.699219-56.574218-8.542969-78.671874-36.53125-46.832032-69.476562-36.121094-81.941406-29.34375-3.089844 1.679687-6.789063 1.679687-9.878906 0-12.464844-6.773438-45.40625-17.488282-81.945313 29.34375-16.871094 21.628906-15.035156 51.851562-9.097656 76.429687 4.75-4.746094 11.046875-7.757813 17.953125-8.394531.226563-.390625.503906-.753906.832031-1.070313 4.753906-4.648437 15.542969-12.285156 34.3125-11.210937 40.734375 2.3125 61.765625-19.441406 68.925782-28.902344 1.601562-2.113281 4.222656-3.1875 6.835937-2.785156 2.628906.394531 4.828125 2.199218 5.738281 4.703125 8.699219 23.894531 23.632813 31.8125 34.628906 34.25 2.128907.472656 3.710938 2.273437 3.898438 4.445312zm0 0"/></g></svg>