<svg height="512pt" viewBox="-90 0 512 512.003" width="512pt" xmlns="http://www.w3.org/2000/svg"><path d="m160.558594 507v-139.738281c0-3.628907 1.488281-7.167969 4.082031-9.703125l79.371094-77.609375c-2.085938-.617188-4.167969-1.242188-6.242188-1.898438-9.941406-3.15625-5.644531-2.21875-14.398437-6.210937l-72.871094 71.253906c-6.464844 6.320312-10.171875 15.128906-10.171875 24.167969v139.738281zm0 0" fill="#e8e6e6"/><path d="m94.4375 278.011719c-2.066406.671875-4.148438 1.292969-6.230469 1.914062l63.449219 62.039063 14.46875-14.144532-57.25-55.980468c-7.945312 3.621094-3.640625 2.65625-14.4375 6.171875zm0 0" fill="#e8e6e6"/><path d="m88.207031 279.925781-10.839843 3.011719-40.199219 10.121094c-12.671875 3.1875-21.796875 14.246094-22.523438 27.289062l-9.621093 172.75c-.421876 7.550782 5.589843 13.90625 13.148437 13.90625h122.15625v-139.742187c0-9.039063 3.707031-17.847657 10.171875-24.167969l1.15625-1.128906zm0 0" fill="#7dbfa3"/><path d="m327.222656 493.097656-9.621094-172.75c-.726562-13.046875-9.851562-24.101562-22.523437-27.292968l-41.335937-10.402344-9.730469-2.699219-79.371094 77.609375c-2.59375 2.535156-4.082031 6.074219-4.082031 9.699219v139.742187h153.511718c7.5625-.003906 13.574219-6.355468 13.152344-13.90625zm0 0" fill="#7dbfa3"/><path d="m223.371094 271.839844c-.210938-.101563-9.398438-4.59375-9.1875-4.488282-2.359375-1.398437-6.421875-2.289062-9.9375-7.15625-4.546875-6.292968-3.035156-11.835937-3.183594-19.6875l-3.886719 3.78125c-7.726562 7.523438-18.082031 11.734376-28.859375 11.734376.125 0-3.960937 0-4.179687 0-10.78125 0-21.136719-4.210938-28.859375-11.734376l-4.011719-3.90625v9.828126c0 3.664062-1.207031 7.125-3.273437 9.984374-1.601563 2.21875-3.710938 4.082032-6.257813 5.339844-.214844.105469-12.050781 5.945313-11.839844 5.839844-.375.167969-.695312.3125-1.027343.464844l57.257812 55.976562-.03125.027344zm0 0" fill="#fcb275"/><path d="m256.527344 97.933594-9.542969-66.8125c-.453125-3.15625-2.359375-5.9375-5.175781-7.4375-19.945313-10.628906-44.167969-15.460938-59.828125-17.601563-10.25-1.402343-21.007813-1.464843-31.714844 0-15.660156 2.140625-39.882813 6.972657-59.828125 17.601563-2.816406 1.5-4.722656 4.285156-5.175781 7.441406l-9.542969 66.8125c-.335938 2.351562 1.488281 4.453125 3.863281 4.453125h173.085938c2.375 0 4.195312-2.105469 3.859375-4.457031zm0 0" fill="#7dbfa3"/><path d="m186.542969 47.15625h-11.207031c-.945313 0-1.714844-.769531-1.714844-1.71875v-11.203125c0-.949219-.769532-1.71875-1.714844-1.71875h-11.523438c-.949218 0-1.714843.769531-1.714843 1.71875v11.203125c0 .949219-.769531 1.71875-1.71875 1.71875h-11.203125c-.949219 0-1.71875.765625-1.71875 1.714844v11.523437c0 .945313.769531 1.714844 1.71875 1.714844h11.203125c.949219 0 1.71875.769531 1.71875 1.714844v11.207031c0 .949219.765625 1.714844 1.714843 1.714844h11.523438c.945312 0 1.714844-.765625 1.714844-1.714844v-11.207031c0-.949219.769531-1.71875 1.714844-1.71875h11.207031c.949219 0 1.714843-.765625 1.714843-1.714844v-11.523437c0-.945313-.765624-1.710938-1.714843-1.710938zm0 0" fill="#fc5d4c"/><path d="m79.578125 102.390625c-1.417969 0-2.628906-.757813-3.308594-1.867187-14.082031 26.574218-22.476562 40.035156-3.3125 79.730468 6.191407 12.828125 6.894531 21.109375 5.761719 26.355469-.941406 4.332031 2.511719 8.386719 6.945312 8.386719h19.695313c-7.332031-8.234375-10.96875-19.175782-9.941406-30.238282l.742187-8.417968c-10.917968-1.292969-19.386718-10.5625-19.386718-21.828125 0-12.144531 9.847656-21.992188 21.992187-21.992188.417969 0 .828125.039063 1.242187.0625l.191407-2.207031c5.476562-5.351562 14.710937-9.585938 27.605469-8.855469 28.992187 1.648438 47.675781-9.679687 58.070312-19.132812h-106.296875zm0 0" fill="#7c292e"/><path d="m255.976562 100.523438c-.679687 1.109374-1.890624 1.867187-3.308593 1.867187h-51.621094c9.171875 17.917969 22.578125 23.734375 31.003906 25.601563l.394531 4.53125c.042969 0 .078126-.003907.117188-.003907 12.148438 0 21.996094 9.84375 21.996094 21.992188 0 10.878906-7.902344 19.886719-18.273438 21.65625l.753906 8.589843c1.03125 11.0625-2.609374 22.003907-9.941406 30.238282h19.484375c4.433594 0 7.886719-4.054688 6.945313-8.386719-1.132813-5.246094-.429688-13.527344 5.765625-26.355469 19.160156-39.695312 10.765625-53.15625-3.316407-79.730468zm0 0" fill="#7c292e"/><path d="m232.050781 127.992188c-8.425781-1.867188-21.828125-7.683594-31.003906-25.601563h-15.171875c-10.390625 9.453125-29.078125 20.777344-58.070312 19.132813-12.894532-.734376-22.125 3.503906-27.605469 8.855468l-4.78125 54.378906c-1.117188 12.007813 3.253906 23.882813 11.894531 32.296876l27.964844 27.238281c7.726562 7.523437 18.082031 11.730469 28.863281 11.730469.214844 0 4.304687 0 4.175781 0 10.78125 0 21.136719-4.207032 28.859375-11.730469l27.96875-27.238281c8.640625-8.414063 13.011719-20.289063 11.894531-32.296876zm0 0" fill="#fcb275"/><path d="m100.007812 132.582031c-.414062-.023437-.824218-.0625-1.242187-.0625-12.144531 0-21.992187 9.847657-21.992187 21.996094 0 11.261719 8.46875 20.535156 19.386718 21.824219zm0 0" fill="#fcb275"/><path d="m232.5625 132.519531c-.039062 0-.078125.007813-.117188.007813l3.835938 43.640625c10.371094-1.769531 18.273438-10.777344 18.273438-21.65625 0-12.144531-9.84375-21.992188-21.992188-21.992188zm0 0" fill="#fcb275"/><g fill="#231f20"><path d="m268.65625 509.171875c-2.761719 0-5-2.238281-5-5v-111.890625c0-2.761719 2.238281-5 5-5s5 2.238281 5 5v111.890625c0 2.761719-2.238281 5-5 5zm0 0"/><path d="m63.589844 509.171875c-2.761719 0-5-2.238281-5-5v-111.890625c0-2.761719 2.238281-5 5-5 2.761718 0 5 2.238281 5 5v111.890625c0 2.761719-2.238282 5-5 5zm0 0"/><path d="m166.238281 221.675781c-5.832031 0-11.152343-2.070312-14.597656-5.679687-1.90625-2-1.835937-5.164063.164063-7.070313s5.164062-1.835937 7.070312.164063c1.191406 1.25 3.753906 2.585937 7.367188 2.585937 3.609374 0 6.171874-1.335937 7.367187-2.585937 1.90625-1.996094 5.070313-2.070313 7.070313-.164063 1.996093 1.910157 2.070312 5.074219.164062 7.070313-3.449219 3.609375-8.773438 5.679687-14.605469 5.679687zm0 0"/><path d="m200.246094 155.992188c-.789063 0-1.59375-.1875-2.339844-.585938-1.109375-.585938-3.671875-1.179688-6.910156-1.179688-3.234375 0-5.800782.59375-6.910156 1.179688-2.433594 1.292969-5.464844.371094-6.761719-2.066406s-.367188-5.464844 2.070312-6.761719c2.8125-1.496094 7.039063-2.351563 11.601563-2.351563 4.558594 0 8.789062.855469 11.601562 2.351563 2.4375 1.292969 3.363282 4.324219 2.066406 6.761719-.894531 1.6875-2.625 2.652344-4.417968 2.652344zm0 0"/><path d="m150.5 155.992188c-.789062 0-1.59375-.1875-2.339844-.585938-1.109375-.585938-3.671875-1.179688-6.910156-1.179688s-5.804688.59375-6.910156 1.179688c-2.433594 1.292969-5.464844.371094-6.761719-2.066406s-.371094-5.464844 2.066406-6.761719c2.8125-1.496094 7.042969-2.351563 11.601563-2.351563 4.5625 0 8.792968.855469 11.601562 2.351563 2.441406 1.292969 3.367188 4.324219 2.070313 6.761719-.898438 1.6875-2.628907 2.652344-4.417969 2.652344zm0 0"/><path d="m141.988281 173.972656c-3.316406 0-6-2.6875-6-6v-1.011718c0-3.3125 2.683594-6 6-6 3.3125 0 6 2.6875 6 6v1.011718c0 3.3125-2.6875 6-6 6zm0 0"/><path d="m190.492188 174.75c-3.316407 0-6-2.6875-6-6v-1.011719c0-3.316406 2.683593-6 6-6 3.3125 0 6 2.683594 6 6v1.011719c0 3.3125-2.6875 6-6 6zm0 0"/><path d="m160.558594 512.003906h-20.230469c-2.761719 0-5-2.238281-5-5v-139.742187c0-10.375 4.257813-20.488281 11.675781-27.742188l72.875-71.253906c1.476563-1.441406 3.695313-1.832031 5.570313-.972656 3.496093 1.597656 5.042969 2.457031 6.167969 3.085937 1.433593.796875 1.972656 1.097656 7.664062 2.90625 2.046875.648438 4.101562 1.265625 6.15625 1.875 1.699219.503906 3.003906 1.871094 3.429688 3.589844.425781 1.722656-.089844 3.539062-1.359376 4.777344l-79.371093 77.609375c-1.636719 1.601562-2.578125 3.835937-2.578125 6.125v139.742187c0 2.757813-2.238282 5-5 5zm-15.230469-10h10.230469v-134.742187c0-4.964844 2.035156-9.804688 5.585937-13.277344l73.359375-71.730469c-4.804687-1.558594-5.851562-2.078125-7.757812-3.140625-.574219-.320312-1.265625-.707031-2.371094-1.261719l-70.382812 68.816407c-5.507813 5.386719-8.664063 12.890625-8.664063 20.59375zm0 0"/><path d="m151.65625 346.964844c-1.261719 0-2.523438-.472656-3.496094-1.425782l-63.449218-62.039062c-1.269532-1.238281-1.785157-3.054688-1.363282-4.773438.425782-1.71875 1.726563-3.085937 3.421875-3.589843l.355469-.105469c1.925781-.578125 3.851562-1.148438 5.761719-1.773438 6.40625-2.082031 7.035156-2.433593 8.417969-3.207031 1.015624-.574219 2.414062-1.355469 5.492187-2.757812 1.875-.855469 4.089844-.46875 5.566406.972656l57.25 55.980469c.964844.9375 1.503907 2.230468 1.503907 3.574218 0 1.347657-.539063 2.632813-1.503907 3.578126l-14.464843 14.148437c-.96875.945313-2.230469 1.417969-3.492188 1.417969zm-53.964844-64.757813 53.964844 52.765625 7.316406-7.152344-51.09375-49.960937c-.722656.375-1.230468.65625-1.683594.910156-1.949218 1.089844-3.027343 1.628907-8.503906 3.4375zm0 0"/><path d="m140.328125 512.003906h-122.15625c-4.972656 0-9.785156-2.074218-13.199219-5.6875-3.417968-3.613281-5.21875-8.53125-4.9453122-13.496094l9.6250002-172.75c.851562-15.3125 11.417968-28.121093 26.289062-31.863281l40.203125-10.121093 10.71875-2.980469c1.722657-.476563 3.558594-.003907 4.832031 1.242187l63.453126 62.042969c.960937.941406 1.503906 2.226563 1.503906 3.574219s-.542969 2.632812-1.507813 3.574218l-1.15625 1.128907c-5.503906 5.382812-8.664062 12.890625-8.664062 20.59375v139.738281c.003906 2.761719-2.234375 5.003906-4.996094 5.003906zm-53.558594-226.492187-8.0625 2.242187-40.320312 10.152344c-10.605469 2.667969-18.140625 11.796875-18.75 22.71875l-9.621094 172.75c-.125 2.265625.664063 4.421875 2.222656 6.070312 1.558594 1.648438 3.667969 2.554688 5.9375 2.554688h117.15625v-134.738281c0-9.207031 3.347657-18.207031 9.285157-25.1875zm0 0"/><path d="m314.070312 512.003906h-153.507812c-2.761719 0-5-2.238281-5-5v-139.742187c0-4.964844 2.035156-9.804688 5.585938-13.277344l79.371093-77.605469c1.273438-1.25 3.113281-1.71875 4.832031-1.246094l9.726563 2.699219 41.222656 10.375c14.875 3.742188 25.441407 16.546875 26.292969 31.863281l9.625 172.75c.273438 4.960938-1.527344 9.882813-4.945312 13.496094-3.417969 3.613282-8.230469 5.6875-13.203126 5.6875zm-148.511718-10h148.511718c2.269532 0 4.375-.910156 5.9375-2.558594 1.558594-1.644531 2.347657-3.800781 2.222657-6.066406l-9.621094-172.75c-.609375-10.921875-8.144531-20.054687-18.75-22.722656l-41.339844-10.40625-7.070312-1.960938-77.3125 75.597657c-1.636719 1.601562-2.578125 3.835937-2.578125 6.125zm0 0"/><path d="m180.863281 381.804688c-1.300781 0-2.601562-.523438-3.519531-1.460938-.941406-.921875-1.480469-2.222656-1.480469-3.539062 0-1.300782.539063-2.601563 1.480469-3.523438.21875-.238281.480469-.4375.757812-.617188.261719-.179687.5625-.339843.863282-.460937.296875-.140625.617187-.238281.9375-.300781.640625-.121094 1.300781-.121094 1.941406 0 .320312.0625.640625.160156.9375.300781.300781.121094.601562.28125.863281.460937.277344.179688.539063.378907.757813.617188.941406.921875 1.460937 2.222656 1.460937 3.523438 0 1.316406-.519531 2.617187-1.460937 3.539062-.917969.9375-2.21875 1.460938-3.539063 1.460938zm0 0"/><path d="m180.863281 412.863281c-1.320312 0-2.601562-.519531-3.539062-1.460937-.222657-.21875-.421875-.480469-.621094-.757813-.160156-.261719-.320313-.5625-.441406-.863281-.136719-.296875-.21875-.617188-.296875-.9375-.0625-.320312-.101563-.640625-.101563-.960938 0-1.320312.539063-2.621093 1.460938-3.539062 1.179687-1.160156 2.898437-1.699219 4.519531-1.378906.320312.078125.640625.15625.9375.296875.300781.121093.601562.28125.863281.460937.277344.179688.539063.378906.757813.621094.941406.917969 1.460937 2.21875 1.460937 3.539062 0 .320313-.019531.640626-.101562.960938-.058594.320312-.160157.640625-.277344.9375-.121094.300781-.28125.601562-.460937.863281-.179688.277344-.378907.539063-.621094.757813-.21875.242187-.480469.441406-.757813.621094-.261719.179687-.5625.339843-.863281.460937-.296875.136719-.617188.21875-.9375.296875-.320312.0625-.640625.082031-.980469.082031zm0 0"/><path d="m180.863281 443.941406c-1.300781 0-2.601562-.539062-3.539062-1.476562-.921875-.921875-1.460938-2.203125-1.460938-3.523438 0-.339844.039063-.660156.101563-.976562.058594-.320313.160156-.640625.277344-.941406.140624-.300782.300781-.601563.460937-.859376.199219-.28125.398437-.542968.621094-.761718.238281-.238282.5-.4375.777343-.621094.261719-.179688.5625-.339844.863282-.457031.296875-.121094.617187-.222657.9375-.28125.640625-.140625 1.300781-.140625 1.941406 0 .320312.058593.640625.160156.9375.28125.300781.117187.601562.277343.863281.457031.277344.183594.539063.382812.757813.621094.242187.21875.441406.480468.621094.761718.179687.257813.339843.558594.460937.859376.117187.300781.21875.621093.277344.941406.082031.316406.101562.636718.101562.976562 0 1.320313-.519531 2.601563-1.460937 3.523438-.9375.9375-2.21875 1.476562-3.539063 1.476562zm0 0"/><path d="m180.863281 475.003906c-.320312 0-.640625-.039062-.960937-.101562-.320313-.058594-.640625-.160156-.9375-.28125-.300782-.136719-.601563-.277344-.863282-.457032-.277343-.199218-.539062-.402343-.757812-.640624-.941406-.921876-1.480469-2.199219-1.480469-3.519532 0-.320312.039063-.660156.101563-.980468.058594-.320313.160156-.640626.296875-.941407.121093-.300781.28125-.578125.460937-.859375.179688-.28125.378906-.519531.621094-.757812.21875-.222656.480469-.441406.757812-.621094.261719-.179688.5625-.339844.863282-.460938.296875-.121093.617187-.21875.9375-.28125 1.621094-.339843 3.339844.203126 4.5 1.363282.242187.238281.441406.476562.621094.757812.179687.28125.339843.558594.460937.859375.117187.300781.21875.621094.277344.941407.082031.320312.101562.660156.101562.980468 0 1.320313-.519531 2.597656-1.460937 3.519532-.917969.941406-2.21875 1.480468-3.539063 1.480468zm0 0"/><path d="m166.09375 332.84375c-1.289062 0-2.578125-.496094-3.554688-1.484375-.128906-.128906-.25-.269531-.367187-.414063l-56.792969-55.53125c-1.179687-1.15625-1.714844-2.8125-1.429687-4.4375.285156-1.625 1.351562-3.003906 2.851562-3.6875l1.0625-.480468.023438.050781c.601562-.363281 1.175781-.648437 1.617187-.867187l10.027344-4.941407c1.730469-.855469 3.214844-2.125 4.410156-3.78125 1.523438-2.105469 2.324219-4.542969 2.324219-7.058593v-9.828126c0-2.011718 1.207031-3.824218 3.058594-4.605468 1.847656-.78125 3.992187-.378906 5.429687 1.023437l4.011719 3.910157c6.832031 6.648437 15.839844 10.3125 25.375 10.3125h4.179687c9.527344 0 18.539063-3.664063 25.367188-10.3125l3.886719-3.785157c1.425781-1.390625 3.542969-1.800781 5.386719-1.042969 1.84375.757813 3.0625 2.539063 3.101562 4.53125.035156 1.828126-.015625 3.53125-.0625 5.15625-.152344 5.101563-.242188 8.179688 2.300781 11.699219 1.925781 2.664063 3.941407 3.597657 6.074219 4.585938.878906.410156 1.675781.789062 2.359375 1.195312.066406.039063.132813.082031.199219.125.605468.246094 1.15625.515625 1.628906.75l6.996094 3.417969c1.460937.710938 2.488281 2.089844 2.75 3.695312.257812 1.609376-.277344 3.238282-1.441406 4.378907l-57.277344 56.003906c-.972656.949219-2.234375 1.421875-3.496094 1.421875zm-48.648438-59.613281 48.679688 47.59375 48.683594-47.601563-2.730469-1.335937c-.039063-.019531-.082031-.039063-.121094-.058594-.132812-.066406-.261719-.136719-.386719-.214844-.40625-.230469-.882812-.445312-1.398437-.683593-2.597656-1.203126-6.519531-3.019532-9.976563-7.800782-2.824218-3.90625-3.820312-7.664062-4.132812-11.3125-7.972656 5.972656-17.628906 9.207032-27.746094 9.207032h-4.175781c-10.191406 0-19.914063-3.28125-27.921875-9.34375-.277344 4.101562-1.707031 8.035156-4.171875 11.449218-2.128906 2.949219-4.933594 5.335938-8.101563 6.894532-.125.0625-3.421874 1.6875-6.5 3.207031zm0 0"/><path d="m252.664062 107.390625h-173.082031c-2.582031 0-5.035156-1.121094-6.726562-3.070313-1.691407-1.953124-2.453125-4.539062-2.085938-7.089843l9.542969-66.816407c.679688-4.746093 3.585938-8.914062 7.773438-11.144531 20.300781-10.820312 44.652343-15.839843 61.503906-18.144531 10.972656-1.5 22.097656-1.5 33.066406 0 16.855469 2.304688 41.203125 7.324219 61.503906 18.144531 4.1875 2.234375 7.09375 6.402344 7.773438 11.144531l9.542968 66.816407c.367188 2.554687-.394531 5.136719-2.085937 7.089843-1.691406 1.949219-4.144531 3.070313-6.726563 3.070313zm-171.816406-10h170.550782l-9.367188-65.5625c-.226562-1.597656-1.191406-2.996094-2.574219-3.734375-18.996093-10.121094-42.109375-14.867188-58.15625-17.0625-10.070312-1.375-20.285156-1.375-30.359375 0-16.042968 2.199219-39.160156 6.941406-58.152344 17.0625-1.386718.738281-2.347656 2.136719-2.578124 3.734375zm0 0"/><path d="m171.90625 81.746094h-11.519531c-3.703125 0-6.714844-3.011719-6.714844-6.71875v-7.917969h-7.921875c-3.703125 0-6.714844-3.011719-6.714844-6.714844v-11.523437c0-3.703125 3.011719-6.714844 6.714844-6.714844h7.921875v-7.917969c0-3.707031 3.011719-6.71875 6.714844-6.71875h11.519531c3.703125 0 6.71875 3.011719 6.71875 6.71875v7.917969h7.917969c3.703125 0 6.714843 3.011719 6.714843 6.714844v11.523437c0 3.703125-3.011718 6.714844-6.714843 6.714844h-7.917969v7.917969c0 3.703125-3.015625 6.71875-6.71875 6.71875zm-8.238281-10h4.953125v-7.921875c0-3.703125 3.011718-6.714844 6.714844-6.714844h7.917968v-4.949219h-7.917968c-3.703126 0-6.714844-3.011718-6.714844-6.71875v-7.917968h-4.953125v7.917968c0 3.707032-3.011719 6.71875-6.714844 6.71875h-7.921875v4.949219h7.921875c3.703125 0 6.714844 3.011719 6.714844 6.714844zm22.875-19.589844h.019531zm0 0"/><path d="m105.359375 219.996094h-19.695313c-3.691406 0-7.136718-1.648438-9.457031-4.523438-2.265625-2.8125-3.132812-6.425781-2.375-9.921875.816407-3.777343.546875-10.851562-5.378906-23.125-19.691406-40.789062-11.46875-56.261719 2.152344-81.898437l1.246093-2.34375c.839844-1.585938 2.464844-2.597656 4.253907-2.65625 1.578125-.046875 3.082031.648437 4.058593 1.863281h105.710938c2.066406 0 3.917969 1.269531 4.664062 3.195313.746094 1.925781.230469 4.109374-1.296874 5.5-11.296876 10.277343-31.195313 22.148437-61.71875 20.429687-11.75-.671875-18.816407 3.207031-22.507813 6.253906l-.023437.25c-.234376 2.691407-2.535157 4.703125-5.261719 4.554688l-.410157-.023438c-.183593-.015625-.363281-.03125-.546874-.03125-9.371094 0-16.996094 7.625-16.996094 16.996094 0 8.601563 6.441406 15.847656 14.976562 16.859375 2.683594.316406 4.628906 2.710938 4.390625 5.402344l-.738281 8.417968c-.898438 9.625 2.273438 19.265626 8.695312 26.476563 1.308594 1.472656 1.632813 3.574219.828126 5.375-.8125 1.792969-2.597657 2.949219-4.570313 2.949219zm-27.027344-112.695313c-12.210937 23.035157-17.855469 35.597657-.875 70.777344 5.75 11.910156 7.816407 21.863281 6.144531 29.585937-.144531.683594.128907 1.207032.386719 1.527344.195313.242188.75.804688 1.675781.804688h10.101563c-4.253906-7.792969-6.160156-16.761719-5.328125-25.707032l.355469-3.996093c-11.121094-3.425781-19.019531-13.773438-19.019531-25.78125 0-13.949219 10.636718-25.460938 24.226562-26.851563.203125-.3125.4375-.597656.707031-.859375 4.351563-4.253906 14.203125-11.238281 31.375-10.273437 18.332031 1.042968 32.261719-3.382813 42.410157-9.140625h-90.910157c-.421875.003906-.839843-.027344-1.25-.085938zm2.191407-9.398437h.023437zm0 0"/><path d="m246.582031 219.996094h-19.484375c-1.96875 0-3.753906-1.15625-4.558594-2.953125-.808593-1.796875-.484374-3.898438.824219-5.371094 6.425781-7.210937 9.59375-16.851563 8.699219-26.449219l-.757812-8.617187c-.226563-2.59375 1.574218-4.929688 4.136718-5.367188 8.175782-1.394531 14.113282-8.429687 14.113282-16.726562 0-9.332031-7.5625-16.929688-16.878907-16.992188-.09375.003907-.160156.003907-.230469.003907-2.585937 0-4.753906-1.972657-4.976562-4.558594l-.09375-1.050782c-8.757812-2.726562-21.773438-9.652343-30.777344-27.246093-.792968-1.550781-.722656-3.402344.183594-4.886719.910156-1.484375 2.527344-2.390625 4.269531-2.390625h51.035157c.980468-1.214844 2.480468-1.925781 4.0625-1.863281 1.789062.058594 3.414062 1.070312 4.25 2.65625l1.246093 2.34375c13.621094 25.636718 21.84375 41.109375 2.152344 81.898437-5.921875 12.273438-6.195313 19.347657-5.375 23.125.753906 3.496094-.109375 7.109375-2.375 9.917969-2.324219 2.878906-5.773437 4.527344-9.464844 4.527344zm-9.890625-10h9.890625c.925781 0 1.480469-.5625 1.675781-.804688.257813-.320312.535157-.839844.386719-1.523437-1.671875-7.722657.394531-17.675781 6.144531-29.585938 16.980469-35.183593 11.335938-47.742187-.875-70.777343-.410156.054687-.828124.085937-1.25.085937h-42.71875c7.457032 10.230469 16.4375 14.222656 23.183594 15.71875 2.128906.472656 3.707032 2.269531 3.898438 4.445313l.03125.339843c12.753906 2.144531 22.496094 13.265625 22.496094 26.617188 0 11.605469-7.308594 21.65625-17.921876 25.414062l.386719 4.394531c.832031 8.921876-1.078125 17.886719-5.328125 25.675782zm0 0"/><path d="m168.320312 261.023438h-4.179687c-12.152344 0-23.640625-4.671876-32.347656-13.152344l-27.964844-27.234375c-9.773437-9.519531-14.652344-22.765625-13.386719-36.347657l4.78125-54.351562c.105469-1.191406.632813-2.304688 1.488282-3.136719 4.351562-4.253906 14.203124-11.238281 31.375-10.273437 27.082031 1.554687 44.546874-8.851563 54.425781-17.839844.917969-.835938 2.121093-1.300781 3.363281-1.300781h15.171875c1.875 0 3.597656 1.050781 4.453125 2.722656 8.050781 15.734375 19.472656 21.191406 27.632812 23 2.128907.472656 3.707032 2.269531 3.898438 4.445313l4.988281 56.765624c1.265625 13.550782-3.613281 26.796876-13.382812 36.316407l-27.964844 27.238281c-8.710937 8.476562-20.199219 13.148438-32.351563 13.148438zm-63.3125-128.25-4.609374 52.417968c-.984376 10.585938 2.808593 20.882813 10.402343 28.28125l27.964844 27.238282c6.832031 6.648437 15.839844 10.3125 25.375 10.3125h4.179687c9.527344 0 18.539063-3.664063 25.367188-10.3125l27.96875-27.238282c7.59375-7.398437 11.386719-17.695312 10.402344-28.253906l-4.6875-53.304688c-8.292969-2.578124-20.398438-8.925781-29.304688-24.527343h-10.296875c-11.515625 9.949219-31.003906 20.792969-60.25 19.125-11.742187-.667969-18.820312 3.210937-22.511719 6.261719zm0 0"/><path d="m96.160156 181.339844c-.195312 0-.390625-.011719-.585937-.035156-13.570313-1.605469-23.800781-13.125-23.800781-26.792969 0-14.882813 12.113281-26.992188 26.996093-26.992188.414063 0 .816407.023438 1.222657.050781l.300781.019532c1.347656.078125 2.613281.695312 3.496093 1.71875.886719 1.023437 1.316407 2.363281 1.199219 3.707031l-3.847656 43.757813c-.117187 1.347656-.777344 2.585937-1.824219 3.441406-.898437.730468-2.011718 1.125-3.15625 1.125zm-1.652344-43.277344c-7.316406 1.894531-12.734374 8.550781-12.734374 16.449219 0 6.800781 4.027343 12.753906 9.925781 15.453125zm0 0"/><path d="m236.285156 181.167969c-1.097656 0-2.171875-.359375-3.054687-1.039063-1.105469-.855468-1.804688-2.132812-1.925781-3.523437l-3.835938-43.640625c-.121094-1.375.332031-2.738282 1.25-3.769532s2.222656-1.632812 3.601562-1.667968c.121094-.007813.125-.011719.242188-.007813 14.882812 0 26.996094 12.109375 26.996094 26.992188 0 13.183593-9.433594 24.367187-22.429688 26.585937-.285156.046875-.5625.070313-.84375.070313zm1.699219-42.761719 2.726563 31.015625c5.335937-2.898437 8.84375-8.53125 8.84375-14.910156 0-7.472657-4.847657-13.835938-11.570313-16.105469zm0 0"/></g></svg>