<svg height="511pt" viewBox="-92 0 511 511.996" width="511pt" xmlns="http://www.w3.org/2000/svg"><path d="m323.21875 493.285156-9.484375-170.335937c-.71875-12.863281-9.714844-23.765625-22.207031-26.910157l-9.320313-2.347656-1.527343 5.429688c-1.207032 4.308594-5.71875 6.84375-10.027344 5.640625l-48.757813-13.671875c-4.308593-1.207032-6.84375-5.722656-5.636719-10.03125l2.007813-7.160156-6.503906-3.207032-3.628907-1.789062c-5.753906-2.835938-9.398437-8.695313-9.398437-15.109375v-8.78125c-10.425781 6.789062-22.367187 10.832031-35.035156 10.832031-12.136719 0-23.59375-3.722656-33.699219-9.996094v7.945313c0 6.414062-3.644531 12.273437-9.398438 15.109375l-2.671874 1.320312-9.621094 4.742188 1.710937 6.09375c1.207031 4.308594-1.328125 8.824218-5.636719 10.03125l-48.757812 13.671875c-4.308594 1.207031-8.824219-1.328125-10.03125-5.640625l-1.359375-4.851563-7.023437 1.769531c-12.492188 3.144532-21.492188 14.046876-22.207032 26.910157l-9.488281 170.339843c-.414063 7.445313 5.511719 13.707032 12.96875 13.707032h291.765625c7.460938 0 13.382812-6.265625 12.96875-13.710938zm0 0" fill="#e8e6e6"/><path d="m110.019531 281.058594-2.515625-8.964844c-1.207031-4.308594-5.71875-6.847656-10.027344-5.636719l-48.757812 13.667969c-4.308594 1.207031-6.847656 5.722656-5.640625 10.027344l2.515625 8.96875c1.207031 4.308594 5.722656 6.84375 10.03125 5.636718l48.757812-13.667968c4.308594-1.207032 6.84375-5.722656 5.636719-10.03125zm0 0" fill="#fcbd4c"/><path d="m216.253906 281.058594 2.515625-8.964844c1.207031-4.308594 5.722657-6.847656 10.03125-5.636719l48.757813 13.667969c4.308594 1.207031 6.84375 5.722656 5.636718 10.027344l-2.515624 8.96875c-1.207032 4.308594-5.71875 6.84375-10.027344 5.636718l-48.757813-13.667968c-4.308593-1.207032-6.847656-5.722656-5.640625-10.03125zm0 0" fill="#fcbd4c"/><path d="m199.5 324.636719 22.375-33.558594c-4.296875-1.214844-6.824219-5.71875-5.617188-10.019531l2.007813-7.164063-6.503906-3.203125-3.625-1.789062c-1.488281-.734375-2.828125-1.675782-4.007813-2.769532l-33.5 39.988282zm0 0" fill="#e8e6e6"/><path d="m106.390625 290.175781 22.976563 34.460938 28.875-18.515625-33.566407-40.0625c-1.195312 1.125-2.554687 2.09375-4.074219 2.84375l-2.671874 1.316406-9.621094 4.742188 1.707031 6.097656c1.007813 3.578125-.59375 7.265625-3.625 9.117187zm0 0" fill="#e8e6e6"/><path d="m175.253906 330.1875c-3.214844 2.078125-7.027344 3.292969-11.117187 3.292969-4.09375 0-7.90625-1.222657-11.121094-3.300781l-12.933594 137.917968c-.183593 1.742188.425781 3.472656 1.664063 4.710938l18.289062 18.289062c2.265625 2.265625 5.9375 2.265625 8.203125 0l18.285157-18.289062c1.238281-1.238282 1.851562-2.96875 1.667968-4.710938zm0 0" fill="#3f3f3f"/><path d="m198.734375 245.011719c-10.425781 6.789062-22.367187 10.832031-35.035156 10.832031-12.136719 0-23.59375-3.722656-33.699219-9.996094v7.945313c0 4.722656-1.988281 9.128906-5.324219 12.265625l33.566407 40.0625h12.386718l33.5-39.988282c-3.382812-3.140624-5.390625-7.582031-5.390625-12.339843v-8.78125zm0 0" fill="#fcb275"/><path d="m236.988281 126.832031v47.832031c0 3.746094-.285156 7.496094-.835937 11.214844 1.074218.128906 2.15625.226563 3.261718.226563 16.40625 0 29.710938-13.300781 29.710938-29.710938 0-17.414062-14.914062-30.996093-32.136719-29.5625zm0 0" fill="#fcb275"/><path d="m90.402344 174.664062v-47.871093c-.800782-.066407-1.605469-.101563-2.425782-.101563-16.40625 0-29.707031 13.296875-29.707031 29.707032 0 16.40625 13.300781 29.707031 29.707031 29.707031 1.109376 0 2.191407-.09375 3.261719-.222657-.546875-3.722656-.835937-7.472656-.835937-11.21875zm0 0" fill="#fcb275"/><path d="m164.90625 133.097656c-30.953125 0-57.957031-7.917968-72.417969-19.683594h-2.085937v61.25c0 40.3125 32.980468 81.175782 73.292968 81.175782s73.292969-40.867188 73.292969-81.175782v-60.992187c-14.539062 11.617187-41.355469 19.425781-72.082031 19.425781zm0 0" fill="#fcb275"/><path d="m74.066406 109.453125c-1.9375 7.390625-3.195312 15.113281-3.726562 23.078125 4.9375-3.65625 11.023437-5.839844 17.636718-5.839844.816407 0 1.625.035156 2.425782.101563v-13.375h-7c-3.648438 0-6.957032-1.527344-9.335938-3.964844zm0 0" fill="#7c292e"/><path d="m256.652344 132.261719c-.570313-8.292969-1.929688-16.328125-4.023438-23.988281-2.390625 3.117187-6.140625 5.144531-10.347656 5.144531h-4.957031c-.109375.089843-.238281.175781-.351563.265625.003906-.003906.011719-.003906.015625-.007813v13.160157c7.296875-.609376 14.160157 1.5 19.664063 5.425781zm0 0" fill="#7c292e"/><path d="m170.628906 306.121094h-12.386718l-14.550782 9.332031c1.289063 10.125 9.980469 18.027344 20.445313 18.027344 10.582031 0 19.363281-8.082031 20.5-18.375zm0 0" fill="#3f3f3f"/><path d="m92.488281 113.417969c14.460938 11.761719 41.46875 19.679687 72.417969 19.679687 30.953125 0 57.957031-7.917968 72.417969-19.679687zm0 0" fill="#3f3f3f"/><path d="m270.773438 60.050781c-10.886719-21.273437-43.285157-55.050781-106.40625-55.050781-63.121094 0-95.523438 33.777344-106.402344 55.050781-8.582032 16.773438 3.660156 30.910157 12.386718 38.25v-1.347656c0-7.179687 5.875-13.054687 13.054688-13.054687h158.875c7.179688 0 13.054688 5.875 13.054688 13.054687v3.410156c0 .125-.015626.246094-.019532.367188 8.386719-6.253907 25.117188-21.789063 15.457032-40.679688zm0 0" fill="#e8e6e6"/><path d="m143.707031 47.492188c0-3.972657 1.140625-7.671876 3.085938-10.824219-18.203125 0-33.722657 0-38.015625 0-1.582032 0-2.613282 1.667969-1.90625 3.078125l5.746094 11.488281c.359374.722656 1.097656 1.175781 1.902343 1.175781h9.175781c.804688 0 1.542969.457032 1.902344 1.175782l2.761719 5.519531c.359375.71875 1.097656 1.175781 1.902344 1.175781h17.898437c-2.78125-3.515625-4.453125-7.953125-4.453125-12.789062zm0 0" fill="#fcbd4c"/><path d="m219.960938 36.671875c-4.570313 0-19.996094 0-38.015626 0 1.945313 3.148437 3.085938 6.847656 3.085938 10.820313 0 4.835937-1.671875 9.273437-4.457031 12.792968h17.902343c.804688 0 1.542969-.457031 1.902344-1.175781l2.761719-5.515625c.359375-.722656 1.097656-1.179688 1.902344-1.179688h9.175781c.808594 0 1.542969-.453124 1.90625-1.175781l5.742188-11.484375c.707031-1.417968-.324219-3.082031-1.90625-3.082031zm0 0" fill="#fcbd4c"/><path d="m185.03125 47.492188c0 11.410156-9.253906 20.660156-20.664062 20.660156-11.410157 0-20.660157-9.25-20.660157-20.660156 0-11.410157 9.25-20.664063 20.660157-20.664063 11.410156 0 20.664062 9.253906 20.664062 20.664063zm0 0" fill="#f9d498"/><path d="m242.28125 113.417969h-158.875c-7.179688 0-13.054688-5.875-13.054688-13.054688v-3.410156c0-7.179687 5.875-13.054687 13.054688-13.054687h158.875c7.179688 0 13.054688 5.875 13.054688 13.054687v3.410156c-.003907 7.179688-5.875 13.054688-13.054688 13.054688zm0 0" fill="#fcbd4c"/><path d="m100.773438 83.898438h25.78125v29.515624h-25.78125zm0 0" fill="#f9d498"/><path d="m151.476562 83.898438h25.78125v29.515624h-25.78125zm0 0" fill="#f9d498"/><path d="m202.179688 83.898438h25.785156v29.515624h-25.785156zm0 0" fill="#f9d498"/><g fill="#231f20"><path d="m164.367188 218.746094c-8.753907 0-16.910157-4.335938-21.816407-11.597656-1.546875-2.289063-.945312-5.394532 1.34375-6.941407 2.289063-1.546875 5.398438-.941406 6.941407 1.34375 3.046874 4.507813 8.105468 7.195313 13.535156 7.195313 5.429687 0 10.484375-2.6875 13.53125-7.195313 1.542968-2.289062 4.65625-2.890625 6.941406-1.34375 2.289062 1.546875 2.890625 4.652344 1.34375 6.941407-4.90625 7.261718-13.0625 11.597656-21.820312 11.597656zm0 0"/><path d="m139.121094 173.910156c-3.316406 0-6-2.683594-6-6v-1.085937c0-3.3125 2.683594-6 6-6 3.3125 0 6 2.6875 6 6v1.085937c0 3.316406-2.6875 6-6 6zm0 0"/><path d="m191.277344 174.746094c-3.316406 0-6-2.6875-6-6v-1.089844c0-3.3125 2.683594-6 6-6 3.3125 0 6 2.6875 6 6v1.089844c0 3.3125-2.6875 6-6 6zm0 0"/><path d="m201.363281 154.679688c-.792969 0-1.597656-.191407-2.347656-.585938-1.246094-.664062-4.105469-1.332031-7.683594-1.332031s-6.4375.667969-7.6875 1.332031c-2.433593 1.292969-5.464843.371094-6.761719-2.066406-1.296874-2.4375-.371093-5.464844 2.066407-6.761719 2.992187-1.59375 7.503906-2.503906 12.378906-2.503906 4.878906 0 9.390625.910156 12.382813 2.503906 2.4375 1.292969 3.363281 4.324219 2.066406 6.761719-.894532 1.6875-2.625 2.652344-4.414063 2.652344zm0 0"/><path d="m147.429688 154.679688c-.789063 0-1.59375-.191407-2.34375-.585938-1.246094-.664062-4.105469-1.332031-7.683594-1.332031s-6.4375.667969-7.6875 1.332031c-2.4375 1.292969-5.464844.371094-6.761719-2.066406s-.371094-5.464844 2.066406-6.761719c2.988281-1.59375 7.503907-2.503906 12.378907-2.503906 4.878906 0 9.390624.910156 12.382812 2.503906 2.4375 1.292969 3.363281 4.324219 2.0625 6.761719-.890625 1.6875-2.621094 2.652344-4.414062 2.652344zm0 0"/><path d="m265.46875 509.207031c-2.761719 0-5-2.238281-5-5v-110.328125c0-2.761718 2.238281-5 5-5s5 2.238282 5 5v110.328125c0 2.757813-2.238281 5-5 5zm0 0"/><path d="m63.265625 509.207031c-2.761719 0-5-2.238281-5-5v-110.328125c0-2.761718 2.238281-5 5-5s5 2.238282 5 5v110.328125c0 2.757813-2.238281 5-5 5zm0 0"/><path d="m310.25 511.996094h-291.765625c-4.921875 0-9.683594-2.050782-13.066406-5.625-3.382813-3.578125-5.167969-8.445313-4.890625-13.359375l9.484375-170.339844c.847656-15.132813 11.285156-27.785156 25.980469-31.484375l7.023437-1.765625c2.628906-.652344 5.304687.886719 6.035156 3.5l1.359375 4.851563c.226563.792968.753906 1.460937 1.488282 1.875.734374.414062 1.582031.523437 2.378906.292968l48.757812-13.667968c1.636719-.457032 2.632813-2.230469 2.175782-3.867188l-1.710938-6.09375c-.652344-2.320312.445312-4.773438 2.601562-5.835938l12.292969-6.0625c4.078125-2.007812 6.609375-6.078124 6.609375-10.625v-7.945312c0-1.8125.984375-3.488281 2.570313-4.371094 1.585937-.878906 3.523437-.835937 5.066406.125 9.882813 6.132813 20.332031 9.242188 31.0625 9.242188 11.070313 0 22.242187-3.464844 32.308594-10.019532 1.542969-1.003906 3.503906-1.078124 5.113281-.207031 1.613281.875 2.617188 2.5625 2.617188 4.394531v8.78125c0 4.546876 2.535156 8.617188 6.609374 10.625l10.128907 4.992188c2.160156 1.066406 3.253906 3.519531 2.605469 5.835938l-2.007813 7.164062c-.457031 1.636719.535156 3.40625 2.171875 3.867188l48.757812 13.667968c.796876.222656 1.644532.117188 2.378907-.292968.734375-.414063 1.261719-1.082032 1.484375-1.878907l1.523437-5.429687c.730469-2.609375 3.40625-4.15625 6.035157-3.5l9.320312 2.347656c14.699219 3.699219 25.136719 16.351562 25.980469 31.480469l9.488281 170.339843c.273438 4.914063-1.507812 9.78125-4.890625 13.359376-3.386719 3.578124-8.15625 5.628906-13.078125 5.628906zm-269.515625-211.691406-2.300781.582031c-10.429688 2.625-17.839844 11.601562-18.4375 22.335937l-9.488282 170.339844c-.121093 2.214844.648438 4.324219 2.171876 5.933594 1.527343 1.613281 3.585937 2.5 5.804687 2.5h291.765625c2.21875 0 4.285156-.886719 5.808594-2.5 1.523437-1.613282 2.289062-3.714844 2.167968-5.933594l-9.484374-170.339844c-.597657-10.734375-8.007813-19.710937-18.4375-22.335937l-4.601563-1.160157-.207031.746094c-.945313 3.367188-3.152344 6.171875-6.214844 7.894532-3.066406 1.71875-6.617188 2.144531-9.980469 1.203124l-48.753906-13.667968c-6.976563-1.957032-11.058594-9.21875-9.101563-16.195313l.882813-3.164062-6.40625-3.15625c-7.515625-3.707031-12.183594-11.210938-12.183594-19.597657v-.175781c-9.589843 4.75-19.828125 7.226563-30.039062 7.226563-9.710938 0-19.496094-2.265625-28.707031-6.597656-.164063 8.199218-4.796876 15.503906-12.179688 19.140624l-8.570312 4.226563.589843 2.097656c1.957031 6.972657-2.128906 14.238281-9.101562 16.195313l-48.757813 13.667968c-3.378906.945313-6.917968.515626-9.976562-1.207031-3.0625-1.722656-5.273438-4.523437-6.214844-7.894531zm0 0"/><path d="m239.921875 384.085938h-32.070313c-2.761718 0-5-2.238282-5-5 0-2.765626 2.238282-5 5-5h32.070313c2.761719 0 5 2.234374 5 5 0 2.761718-2.238281 5-5 5zm0 0"/><path d="m121.847656 384.085938h-32.066406c-2.765625 0-5-2.238282-5-5 0-2.765626 2.234375-5 5-5h32.066406c2.765625 0 5 2.234374 5 5 0 2.761718-2.234375 5-5 5zm0 0"/><path d="m53.421875 311.0625c-2.394531 0-4.765625-.617188-6.917969-1.824219-3.292968-1.851562-5.671875-4.871093-6.6875-8.496093l-2.515625-8.96875c-2.101562-7.5 2.292969-15.320313 9.792969-17.425782l48.761719-13.667968c3.621093-1.019532 7.4375-.554688 10.734375 1.296874 3.296875 1.851563 5.671875 4.871094 6.691406 8.496094l2.515625 8.96875c2.101563 7.503906-2.292969 15.320313-9.796875 17.425782l-48.757812 13.667968c-1.257813.351563-2.542969.527344-3.820313.527344zm46.238281-38.90625c-.175781 0-.363281.023438-.5625.078125l-48.757812 13.667969c-1.113282.3125-1.792969 1.519531-1.480469 2.632812l2.515625 8.964844c.203125.726562.722656 1.113281 1.015625 1.277344.289063.160156.882813.410156 1.613281.203125l48.761719-13.667969c1.113281-.3125 1.792969-1.519531 1.480469-2.632812l-2.515625-8.964844c-.203125-.730469-.722657-1.113282-1.015625-1.277344-.214844-.121094-.585938-.28125-1.054688-.28125zm0 0"/><path d="m272.851562 311.0625c-1.277343 0-2.558593-.175781-3.820312-.527344l-48.757812-13.667968c-3.628907-1.019532-6.644532-3.394532-8.496094-6.691407-1.855469-3.296875-2.316406-7.113281-1.296875-10.738281l2.511719-8.964844c1.015624-3.625 3.394531-6.644531 6.691406-8.496094 3.296875-1.855468 7.113281-2.3125 10.738281-1.296874l48.753906 13.667968c3.628907 1.019532 6.648438 3.394532 8.5 6.691406 1.855469 3.296876 2.3125 7.109376 1.296875 10.738282l-2.515625 8.960937c-1.015625 3.628907-3.390625 6.644531-6.691406 8.5-2.148437 1.210938-4.519531 1.824219-6.914063 1.824219zm-46.234374-38.90625c-.46875 0-.84375.160156-1.054688.28125-.292969.164062-.808594.546875-1.015625 1.277344l-2.511719 8.964844v.003906c-.207031.726562.039063 1.324218.203125 1.613281.160157.292969.546875.8125 1.277344 1.015625l48.757813 13.667969c.734374.210937 1.324218-.039063 1.617187-.203125.292969-.160156.808594-.546875 1.015625-1.273438l2.511719-8.96875c.207031-.730468-.039063-1.324218-.203125-1.617187-.160156-.292969-.546875-.808594-1.277344-1.015625l-48.757812-13.667969c-.199219-.054687-.386719-.078125-.5625-.078125zm-10.363282 8.902344h.023438zm0 0"/><path d="m199.496094 329.636719c-.925782 0-1.859375-.253907-2.695313-.789063l-28.875-18.519531c-1.207031-.773437-2.027343-2.03125-2.246093-3.453125-.214844-1.417969.191406-2.863281 1.113281-3.964844l33.5-39.988281c.878906-1.050781 2.152343-1.695313 3.519531-1.78125 1.378906-.085937 2.710938.390625 3.714844 1.324219.855468.796875 1.800781 1.449218 2.8125 1.949218l10.132812 4.996094c2.15625 1.0625 3.253906 3.515625 2.601563 5.832032l-2.007813 7.164062c-.464844 1.660156.507813 3.390625 2.167969 3.863281 1.539063.4375 2.773437 1.582031 3.328125 3.082031.550781 1.5.355469 3.171876-.53125 4.503907l-22.375 33.554687c-.957031 1.445313-2.542969 2.226563-4.160156 2.226563zm-21.386719-24.65625 19.957031 12.796875 16.792969-25.1875c-3.277344-3.25-4.746094-8.136719-3.417969-12.878906l.886719-3.167969-6.40625-3.15625c-.316406-.15625-.628906-.320313-.9375-.492188zm0 0"/><path d="m129.371094 329.636719c-1.617188 0-3.203125-.78125-4.164063-2.226563l-22.972656-34.460937c-.753906-1.128907-1.015625-2.519531-.722656-3.847657.292969-1.328124 1.117187-2.480468 2.277343-3.191406 1.207032-.738281 1.789063-2.179687 1.417969-3.5l-1.707031-6.097656c-.652344-2.320312.445312-4.769531 2.601562-5.835938l12.292969-6.058593c1.023438-.503907 1.984375-1.179688 2.863281-2.003907 1.003907-.941406 2.363282-1.421874 3.722657-1.347656 1.371093.082032 2.652343.726563 3.535156 1.78125l33.5625 40.0625c.921875 1.105469 1.328125 2.546875 1.113281 3.96875-.21875 1.417969-1.039062 2.675782-2.246094 3.453125l-28.875 18.515625c-.839843.535156-1.773437.789063-2.699218.789063zm-16.519532-38.785157 17.953126 26.925782 19.957031-12.796875-26.921875-32.132813c-.335938.191406-.679688.371094-1.027344.539063l-8.566406 4.226562.589844 2.097657c1.085937 3.882812.273437 7.972656-1.984376 11.140624zm0 0"/><path d="m164.136719 497.796875c-2.886719 0-5.597657-1.125-7.636719-3.164063l-18.289062-18.289062c-2.316407-2.3125-3.449219-5.511719-3.101563-8.769531l12.929687-137.863281c.164063-1.738282 1.21875-3.269532 2.792969-4.03125 1.570313-.761719 3.429688-.648438 4.898438.296874 5.054687 3.273438 11.761719 3.269532 16.808593.003907 1.46875-.945313 3.324219-1.058594 4.894532-.292969 1.574218.761719 2.632812 2.289062 2.796875 4.03125l12.933593 137.910156c.339844 3.203125-.789062 6.398438-3.109374 8.714844l-18.289063 18.285156c-2.03125 2.046875-4.746094 3.167969-7.628906 3.167969zm-6.792969-160.242187-12.285156 131.011718c-.03125.300782.050781.539063.222656.707032l18.285156 18.289062c.3125.3125.820313.3125 1.132813 0l18.289062-18.289062c.167969-.171876.253907-.40625.226563-.652344l-12.292969-131.066406c-4.398437 1.222656-9.175781 1.222656-13.578125 0zm0 0"/><path d="m170.628906 311.121094h-12.386718c-1.480469 0-2.882813-.652344-3.832032-1.789063l-33.5625-40.0625c-1.703125-2.035156-1.523437-5.042969.40625-6.855469 2.382813-2.238281 3.746094-5.382812 3.746094-8.625v-7.945312c0-1.8125.984375-3.488281 2.570312-4.371094 1.585938-.878906 3.527344-.835937 5.070313.125 9.875 6.132813 20.324219 9.242188 31.058594 9.242188 11.066406 0 22.242187-3.464844 32.308593-10.019532 1.542969-1.003906 3.503907-1.078124 5.113282-.207031 1.613281.875 2.617187 2.5625 2.617187 4.394531v8.78125c0 3.273438 1.382813 6.4375 3.792969 8.675782 1.953125 1.8125 2.140625 4.835937.429688 6.878906l-33.5 39.988281c-.953126 1.136719-2.355469 1.789063-3.832032 1.789063zm-10.054687-10h7.71875l29.292969-34.964844c-2.480469-3.613281-3.851563-7.933594-3.851563-12.367188v-.175781c-9.585937 4.75-19.828125 7.226563-30.039063 7.226563-9.710937 0-19.492187-2.261719-28.703124-6.597656-.089844 4.230468-1.429688 8.347656-3.789063 11.820312zm0 0"/><path d="m239.414062 191.105469c-1.167968 0-2.359374-.082031-3.859374-.261719-1.339844-.160156-2.558594-.859375-3.375-1.929688-.820313-1.070312-1.171876-2.429687-.972657-3.765624.519531-3.519532.78125-7.046876.78125-10.484376v-47.832031c0-2.601562 1.996094-4.769531 4.585938-4.980469 9.621093-.808593 19.242187 2.496094 26.367187 9.050782 7.109375 6.542968 11.183594 15.832031 11.183594 25.492187 0 19.140625-15.570312 34.710938-34.710938 34.710938zm2.574219-59.238281v42.796874c0 2.089844-.082031 4.207032-.253906 6.332032 12.542969-1.171875 22.390625-11.757813 22.390625-24.601563 0-6.96875-2.828125-13.414062-7.957031-18.132812-3.933594-3.621094-8.933594-5.847657-14.179688-6.394531zm0 0"/><path d="m87.976562 191.105469c-19.136718 0-34.707031-15.570313-34.707031-34.710938 0-19.136719 15.570313-34.707031 34.707031-34.707031.957032 0 1.902344.042969 2.839844.121094 2.59375.214844 4.585938 2.378906 4.585938 4.980468v47.875c0 3.441407.265625 6.964844.785156 10.484376.195312 1.335937-.152344 2.695312-.972656 3.765624-.820313 1.070313-2.039063 1.769532-3.378906 1.929688-1.5.179688-2.6875.261719-3.859376.261719zm-2.574218-59.285157c-12.417969 1.292969-22.128906 11.820313-22.128906 24.574219 0 12.84375 9.84375 23.425781 22.382812 24.601563-.167969-2.125-.253906-4.242188-.253906-6.332032zm0 0"/><path d="m163.699219 260.84375c-44.8125 0-78.296875-45.5-78.296875-86.179688v-61.246093c0-2.761719 2.238281-5 5-5h2.085937c1.148438 0 2.265625.394531 3.15625 1.121093 14.074219 11.445313 40.613281 18.558594 69.261719 18.558594 28.386719 0 54.8125-7.027344 68.960938-18.332031 1.503906-1.203125 3.558593-1.433594 5.289062-.601563 1.730469.832032 2.832031 2.585938 2.832031 4.507813v60.992187c0 40.679688-33.484375 86.179688-78.289062 86.179688zm-68.296875-139.222656v53.042968c0 43.601563 36.058594 76.179688 68.296875 76.179688 32.234375 0 68.289062-32.578125 68.289062-76.179688v-51.601562c-16.558593 9.511719-40.777343 15.035156-67.082031 15.035156-27.664062 0-52.945312-6.074218-69.503906-16.476562zm0 0"/><path d="m70.339844 137.53125c-.820313 0-1.644532-.203125-2.394532-.609375-1.710937-.9375-2.722656-2.777344-2.59375-4.722656.546876-8.207031 1.851563-16.289063 3.878907-24.015625.460937-1.742188 1.820312-3.105469 3.5625-3.5625 1.742187-.460938 3.601562.054687 4.855469 1.34375 1.542968 1.582031 3.585937 2.457031 5.753906 2.457031h7c2.761718 0 5 2.234375 5 5v13.371094c0 1.398437-.585938 2.734375-1.613282 3.679687-1.03125.949219-2.394531 1.429688-3.800781 1.304688-.664062-.054688-1.335937-.085938-2.011719-.085938-5.296874 0-10.367187 1.679688-14.660156 4.859375-.878906.652344-1.921875.980469-2.976562.980469zm7.03125-20.148438c-.417969 2.089844-.78125 4.207032-1.085938 6.335938 2.925782-1.050781 5.984375-1.703125 9.117188-1.9375v-3.363281h-1.996094c-2.089844 0-4.125-.355469-6.035156-1.035157zm0 0"/><path d="m256.65625 137.261719c-1.023438 0-2.039062-.3125-2.902344-.929688-4.761718-3.390625-10.5625-4.992187-16.351562-4.519531-1.402344.125-2.769532-.355469-3.800782-1.300781-1.027343-.949219-1.613281-2.28125-1.613281-3.679688v-12.773437c-.117187-1.59375.527344-3.203125 1.847657-4.269532.125-.097656.253906-.195312.382812-.292968.890625-.714844 1.964844-1.078125 3.109375-1.078125h4.957031c2.5 0 4.828125-1.160157 6.378906-3.191407 1.15625-1.507812 3.074219-2.222656 4.929688-1.863281 1.867188.367188 3.363281 1.757813 3.863281 3.589844 2.1875 8.007813 3.597657 16.410156 4.1875 24.960937.132813 1.933594-.859375 3.765626-2.546875 4.710938-.765625.425781-1.605468.636719-2.441406.636719zm-14.667969-15.433594c2.976563.222656 5.910157.832031 8.726563 1.800781-.328125-2.265625-.71875-4.515625-1.167969-6.738281-2.253906.996094-4.71875 1.527344-7.265625 1.527344h-.292969zm0 0"/><path d="m164.136719 338.480469c-12.855469 0-23.777344-9.625-25.40625-22.394531-.246094-1.914063.636719-3.796876 2.261719-4.84375l14.550781-9.328126c.804687-.515624 1.742187-.792968 2.699219-.792968h12.386718c.957032 0 1.890625.277344 2.699219.792968l14.007813 8.980469c1.597656 1.027344 2.476562 2.871094 2.273437 4.757813-1.4375 13.011718-12.386719 22.828125-25.472656 22.828125zm-14.8125-20.699219c2.089843 6.269531 8.007812 10.699219 14.8125 10.699219 6.964843 0 12.945312-4.5625 14.925781-11.007813l-9.898438-6.347656h-9.457031zm0 0"/><path d="m164.90625 138.097656c-31.304688 0-59.554688-7.777344-75.570312-20.800781-1.640626-1.332031-2.265626-3.558594-1.554688-5.550781.707031-1.992188 2.59375-3.324219 4.707031-3.324219h144.839844c2.117187 0 4.003906 1.332031 4.710937 3.324219.707032 1.992187.085938 4.21875-1.558593 5.550781-16.015625 13.023437-44.269531 20.800781-75.574219 20.800781zm-53.929688-19.679687c14.488282 6.125 33.683594 9.679687 53.929688 9.679687 20.25 0 39.445312-3.554687 53.933594-9.679687zm0 0"/><path d="m255.316406 105.730469c-.792968 0-1.585937-.1875-2.3125-.566407-1.703125-.886718-2.746094-2.675781-2.6875-4.59375.003906-.066406.015625-.292968.023438-.363281l-.003906-3.253906c0-4.441406-3.613282-8.054687-8.054688-8.054687h-158.875c-4.441406 0-8.054688 3.613281-8.054688 8.054687v1.34375c0 1.945313-1.125 3.714844-2.886718 4.535156-1.757813.816407-3.835938.546875-5.328125-.707031-16.375-13.765625-21.210938-29.519531-13.625-44.351562 4.9375-9.648438 33.472656-57.773438 110.855469-57.773438 77.375 0 105.921874 48.125 110.855468 57.777344 8.082032 15.796875 1.914063 32.917968-16.917968 46.960937-.882813.65625-1.933594.992188-2.988282.992188zm-171.910156-26.832031h158.875c7.777344 0 14.421875 4.941406 16.957031 11.847656 6.929688-7.03125 12.863281-17.121094 7.085938-28.417969-4.476563-8.734375-30.402344-52.328125-101.957031-52.328125-71.558594 0-97.480469 43.59375-101.953126 52.328125-5.125 10.023437-1.078124 19.132813 5.039063 26.179687 3.035156-5.710937 9.042969-9.609374 15.953125-9.609374zm0 0"/><path d="m148.160156 65.285156h-17.898437c-2.71875 0-5.167969-1.511718-6.378907-3.945312l-1.964843-3.929688h-7.398438c-2.714843 0-5.15625-1.507812-6.375-3.933594l-5.746093-11.492187c-1.113282-2.222656-.996094-4.8125.3125-6.933594 1.304687-2.117187 3.574218-3.378906 6.0625-3.378906h38.015624c1.8125 0 3.484376.976563 4.367188 2.558594.882812 1.585937.839844 3.523437-.109375 5.0625-1.535156 2.480469-2.339844 5.316406-2.339844 8.199219 0 3.542968 1.167969 6.894531 3.375 9.691406 1.191407 1.503906 1.414063 3.550781.578125 5.277344-.835937 1.726562-2.585937 2.824218-4.5 2.824218zm-15.335937-8.417968.003906.003906s0-.003906-.003906-.003906zm-.789063-1.582032h7.871094c-.789062-2.488281-1.199219-5.105468-1.199219-7.792968 0-1.96875.226563-3.921876.675781-5.820313h-25.960937l2.871094 5.738281h7.402343c2.714844 0 5.160157 1.511719 6.375 3.945313zm0 0"/><path d="m198.476562 65.285156h-17.902343c-1.914063 0-3.664063-1.097656-4.5-2.824218-.835938-1.722657-.609375-3.773438.578125-5.277344 2.210937-2.796875 3.378906-6.148438 3.378906-9.691406 0-2.878907-.808594-5.714844-2.339844-8.199219-.953125-1.539063-.996094-3.476563-.113281-5.0625.882813-1.582031 2.554687-2.558594 4.367187-2.558594h38.015626c2.492187 0 4.757812 1.261719 6.066406 3.378906 1.304687 2.121094 1.421875 4.710938.304687 6.9375l-5.738281 11.484375c-1.21875 2.429688-3.664062 3.9375-6.375 3.9375h-7.402344l-1.964844 3.933594c-1.210937 2.429688-3.65625 3.941406-6.375 3.941406zm-2.570312-8.414062c0 .003906 0 .003906-.003906.007812zm-7.078125-1.585938h7.871094l1.964843-3.929687c1.214844-2.433594 3.660157-3.945313 6.375-3.945313h7.402344l2.871094-5.738281h-25.957031c.449219 1.898437.675781 3.855469.675781 5.820313 0 2.6875-.40625 5.300781-1.203125 7.792968zm31.132813-13.613281h.019531zm0 0"/><path d="m164.367188 73.15625c-14.148438 0-25.660157-11.515625-25.660157-25.664062 0-14.148438 11.511719-25.664063 25.660157-25.664063 14.148437 0 25.664062 11.515625 25.664062 25.664063 0 14.148437-11.515625 25.664062-25.664062 25.664062zm0-41.328125c-8.636719 0-15.660157 7.027344-15.660157 15.664063 0 8.636718 7.023438 15.664062 15.660157 15.664062 8.636718 0 15.664062-7.027344 15.664062-15.664062 0-8.636719-7.027344-15.664063-15.664062-15.664063zm0 0"/><path d="m242.28125 118.417969h-158.875c-9.957031 0-18.054688-8.101563-18.054688-18.054688v-3.410156c0-9.957031 8.101563-18.054687 18.054688-18.054687h158.875c9.957031 0 18.054688 8.101562 18.054688 18.054687v3.410156c-.003907 9.953125-8.101563 18.054688-18.054688 18.054688zm-158.875-29.519531c-4.441406 0-8.054688 3.613281-8.054688 8.054687v3.410156c0 4.441407 3.617188 8.050781 8.054688 8.050781h158.875c4.441406 0 8.054688-3.613281 8.054688-8.050781v-3.410156c0-4.441406-3.613282-8.054687-8.054688-8.054687zm0 0"/><path d="m126.554688 118.417969h-25.78125c-2.765626 0-5-2.238281-5-5v-29.519531c0-2.761719 2.234374-5 5-5h25.78125c2.761718 0 5 2.238281 5 5v29.519531c0 2.761719-2.238282 5-5 5zm-20.78125-10h15.78125v-19.519531h-15.78125zm0 0"/><path d="m177.257812 118.417969h-25.78125c-2.761718 0-5-2.238281-5-5v-29.519531c0-2.761719 2.238282-5 5-5h25.78125c2.761719 0 5 2.238281 5 5v29.519531c0 2.761719-2.238281 5-5 5zm-20.78125-10h15.78125v-19.519531h-15.78125zm0 0"/><path d="m227.964844 118.417969h-25.785156c-2.761719 0-5-2.238281-5-5v-29.519531c0-2.761719 2.238281-5 5-5h25.785156c2.761718 0 5 2.238281 5 5v29.519531c0 2.761719-2.238282 5-5 5zm-20.785156-10h15.785156v-19.519531h-15.785156zm0 0"/></g></svg>