<svg height="511pt" viewBox="-84 0 511 511.94608" width="511pt" xmlns="http://www.w3.org/2000/svg"><path d="m16.074219 441.96875-2.851563 51.226562c-.414062 7.46875 5.527344 13.75 13.007813 13.75h44.914062v-64.875h-53.601562c-.496094 0-.984375-.039062-1.46875-.101562zm0 0" fill="#fcb275"/><path d="m331.871094 493.195312-2.855469-51.25c-.535156.074219-1.078125.125-1.632813.125h-53.433593v64.875h44.914062c7.480469 0 13.421875-6.285156 13.007813-13.75zm0 0" fill="#fcb275"/><path d="m327.382812 417.925781c.097657 0 .195313.011719.296876.015625l-5.324219-95.59375c-.71875-12.902344-9.742188-23.835937-22.273438-26.988281l-40.882812-10.292969c-7.09375-1.785156-14.109375-3.855468-21.03125-6.210937l-18.085938-8.917969-3.640625-1.792969c-5.769531-2.847656-9.425781-8.722656-9.425781-15.15625v-13.890625c-8.175781 7.503906-17.378906 13.707032-27.304687 18.277344-4.71875 2.171875-10.140626 2.171875-14.863282 0-9.722656-4.480469-18.738281-10.523438-26.773437-17.800781v13.414062c0 6.433594-3.652344 12.3125-9.425781 15.15625l-2.675782 1.320313-17.996094 8.875c-7.621093 2.699218-15.367187 5.039062-23.207031 7.011718l-39.757812 10.007813c-12.53125 3.15625-21.554688 14.089844-22.273438 26.992187l-5.324219 95.582032c.042969 0 .085938-.003906.128907-.003906h53.601562v89.019531h202.804688l-.003907-64.878907v-24.144531zm0 0" fill="#fcb275"/><path d="m327.382812 417.925781c.097657 0 .195313.011719.296876.015625l-5.324219-95.59375c-.71875-12.902344-9.742188-23.835937-22.273438-26.988281l-40.882812-10.292969c-7.09375-1.785156-14.109375-3.855468-21.03125-6.210937l-15.917969-7.847657-12.617188 17.367188c-8.625 11.871094-22.410156 18.898438-37.082031 18.898438-14.675781 0-28.460937-7.027344-37.085937-18.898438l-12.617188-17.367188-14.871094 7.332032c-7.621093 2.695312-15.363281 5.035156-23.203124 7.011718l-39.761719 10.007813c-12.527344 3.152344-21.550781 14.089844-22.273438 26.988281l-5.324219 95.585938c.046876 0 .085938-.007813.132813-.007813h53.597656v89.019531h202.808594l-.003906-64.875v-24.144531zm0 0" fill="#1b87c9"/><path d="m244.511719 120.121094c-1.097657 0-2.171875.078125-3.234375.199218l2.222656 21.441407c1.230469 11.542969.6875 23.089843-1.445312 34.269531.8125.070312 1.628906.125 2.457031.125 15.472656 0 28.015625-12.542969 28.015625-28.019531 0-15.472657-12.542969-28.015625-28.015625-28.015625zm0 0" fill="#fcb275"/><path d="m101.0625 141.765625 2.324219-18.90625.265625-2.539063c-1.0625-.121093-2.140625-.199218-3.234375-.199218-15.476563 0-28.019531 12.546875-28.019531 28.019531s12.542968 28.015625 28.019531 28.015625c.707031 0 1.402343-.046875 2.09375-.105469-2.136719-11.183593-2.679688-22.738281-1.449219-34.285156zm0 0" fill="#fcb275"/><path d="m243.5 141.765625c-1.210938-9.574219-2.414062-20.988281-2.683594-32.683594 0-13.351562-11.261718-22.511719-23.347656-22.238281-12.308594-.699219-37.421875 14.855469-82.855469-.234375-16.070312-5.339844-30.503906 7.160156-30.503906 22.742187 0 11.71875-1.484375 18.449219-3.046875 32.414063-5.417969 50.914063 23.070312 96.863281 63.785156 115.609375 4.722656 2.171875 10.144532 2.171875 14.863282 0 40.539062-18.667969 69.226562-64.484375 63.789062-115.609375zm0 0" fill="#fcb275"/><path d="m100.414062 120.121094c1.089844 0 2.15625.078125 3.210938.195312.300781-3.394531.484375-6.875.484375-10.96875 0-15.582031 14.433594-28.078125 30.507813-22.742187 45.433593 15.089843 70.542968-.464844 82.851562.234375 12.089844-.273438 23.347656 8.890625 23.347656 22.238281.089844 3.792969.28125 7.550781.535156 11.234375 1.039063-.117188 2.089844-.195312 3.160157-.195312 3.617187 0 7.0625.710937 10.238281 1.957031 4.195312-14.707031 12.863281-54.644531-9.164062-76.21875 0 0-7.285157-19.636719-36.441407-23.207031-16.457031-2.015626-27.550781-9.246094-31.703125-15.105469-1.125-1.585938-2.964844-2.484375-4.90625-2.523438v-.011719c-.023437 0-.046875.007813-.070312.007813-.023438 0-.046875-.007813-.070313-.007813v.015626c-1.941406.039062-3.78125.9375-4.90625 2.523437-4.152343 5.859375-15.246093 13.089844-31.703125 15.105469-29.152344 3.570312-36.441406 23.207031-36.441406 23.207031-22.027344 21.578125-13.359375 61.523437-9.164062 76.222656 3.171874-1.25 6.617187-1.960937 10.234374-1.960937zm0 0" fill="#7c292e"/><path d="m211.304688 319.035156c7.417968-4.757812 14.003906-10.882812 19.320312-18.203125l14.386719-19.800781c-2.285157-.710938-4.578125-1.40625-6.847657-2.175781l-15.917968-7.847657-12.613282 17.367188c-3.890624 5.347656-8.832031 9.707031-14.421874 12.886719zm0 0" fill="#e8e6e6"/><path d="m133.0625 318.582031 16.070312-17.75c-5.285156-3.140625-9.957031-7.347656-13.667968-12.457031l-12.617188-17.367188-14.871094 7.332032c-2.628906.929687-5.273437 1.800781-7.925781 2.644531l14.417969 19.847656c5.144531 7.085938 11.46875 13.054688 18.59375 17.75zm0 0" fill="#e8e6e6"/><path d="m327.382812 417.925781h-53.4375v24.144531h53.4375c6.636719 0 12.070313-5.433593 12.070313-12.070312 0-6.640625-5.433594-12.074219-12.070313-12.074219zm0 0" fill="#e8e6e6"/><path d="m71.144531 417.925781h-53.597656c-6.640625 0-12.074219 5.433594-12.074219 12.074219 0 6.636719 5.433594 12.070312 12.074219 12.070312h53.597656zm0 0" fill="#e8e6e6"/><g fill="#231f20"><path d="m171.8125 214.152344c-8.863281 0-17.125-4.386719-22.089844-11.742188-1.546875-2.289062-.945312-5.394531 1.34375-6.941406 2.285156-1.546875 5.398438-.945312 6.941406 1.34375 3.105469 4.59375 8.269532 7.339844 13.808594 7.339844 5.535156 0 10.699219-2.746094 13.804688-7.339844 1.542968-2.289062 4.652344-2.890625 6.941406-1.34375s2.890625 4.652344 1.34375 6.941406c-4.972656 7.355469-13.230469 11.742188-22.09375 11.742188zm0 0"/><path d="m208.949219 145.003906c-.789063 0-1.59375-.1875-2.34375-.585937-1.257813-.667969-4.144531-1.34375-7.757813-1.34375-3.609375 0-6.5.675781-7.757812 1.34375-2.4375 1.296875-5.460938.371093-6.761719-2.066407-1.296875-2.4375-.371094-5.464843 2.066406-6.761718 3.007813-1.601563 7.546875-2.515625 12.453125-2.515625 4.910156 0 9.449219.914062 12.457032 2.515625 2.4375 1.296875 3.363281 4.324218 2.0625 6.761718-.898438 1.6875-2.628907 2.652344-4.417969 2.652344zm0 0"/><path d="m154.628906 145.003906c-.792968 0-1.597656-.1875-2.34375-.585937-1.257812-.667969-4.144531-1.34375-7.757812-1.34375-3.613282 0-6.5.675781-7.757813 1.34375-2.4375 1.296875-5.464843.371093-6.761719-2.066407-1.296874-2.4375-.371093-5.464843 2.066407-6.761718 3.003906-1.601563 7.542969-2.515625 12.453125-2.515625 4.90625 0 9.449218.914062 12.453125 2.515625 2.4375 1.296875 3.363281 4.324218 2.066406 6.761718-.898437 1.6875-2.628906 2.652344-4.417969 2.652344zm0 0"/><path d="m145.332031 164.546875c-3.316406 0-6-2.6875-6-6v-1.105469c0-3.316406 2.683594-6 6-6 3.3125 0 6 2.683594 6 6v1.105469c0 3.3125-2.6875 6-6 6zm0 0"/><path d="m198.296875 165.394531c-3.316406 0-6-2.6875-6-6v-1.105469c0-3.316406 2.683594-6 6-6 3.3125 0 6 2.683594 6 6v1.105469c0 3.3125-2.6875 6-6 6zm0 0"/><path d="m244.511719 181.15625c-.976563 0-1.941407-.058594-2.894531-.140625-1.40625-.125-2.699219-.839844-3.550782-1.96875-.851562-1.125-1.1875-2.5625-.921875-3.949219 2.078125-10.890625 2.542969-21.925781 1.382813-32.804687l-2.222656-21.457031c-.285157-2.726563 1.679687-5.167969 4.402343-5.484376 1.371094-.15625 2.617188-.234374 3.804688-.234374 18.207031 0 33.015625 14.8125 33.015625 33.019531s-14.808594 33.019531-33.015625 33.019531zm2.300781-55.921875 1.664062 16.015625c1.042969 9.824219.875 19.777344-.503906 29.648438 11.054688-1.671876 19.558594-11.242188 19.558594-22.757813-.003906-11.917969-9.105469-21.746094-20.71875-22.90625zm0 0"/><path d="m100.414062 181.15625c-18.203124 0-33.015624-14.808594-33.015624-33.015625s14.8125-33.019531 33.015624-33.019531c1.191407 0 2.433594.078125 3.804688.234375 2.722656.3125 4.6875 2.757812 4.402344 5.484375l-.261719 2.539062-2.332031 18.957032c-1.152344 10.871093-.683594 21.898437 1.394531 32.78125.265625 1.394531-.074219 2.835937-.933594 3.96875-.863281 1.128906-2.164062 1.839843-3.578125 1.953124-.824218.0625-1.652344.117188-2.496094.117188zm-2.359374-55.917969c-11.585938 1.1875-20.660157 11.003907-20.660157 22.898438 0 11.390625 8.3125 20.875 19.1875 22.703125-1.371093-9.859375-1.539062-19.789063-.492187-29.605469 0-.027344.003906-.054687.007812-.082031zm0 0"/><path d="m172.28125 264.003906c-3.25 0-6.5-.695312-9.523438-2.089844-44.625-20.546874-72.039062-70.171874-66.667968-120.679687.457031-4.066406.902344-7.507813 1.308594-10.640625.996093-7.667969 1.710937-13.210938 1.710937-21.242188 0-9.480468 4.5-18.386718 12.039063-23.824218 7.222656-5.214844 16.351562-6.546875 25.042968-3.664063 31.730469 10.539063 53.007813 5.523438 67.089844 2.207031 5.714844-1.347656 10.246094-2.421874 14.265625-2.226562 7.566406-.117188 14.894531 2.792969 20.230469 8.007812 5.183594 5.070313 8.039062 11.898438 8.039062 19.230469.285156 12.230469 1.648438 24.15625 2.648438 32.054688.003906.035156.007812.066406.007812.097656 5.375 50.507813-22.042968 100.132813-66.667968 120.683594-3.027344 1.390625-6.277344 2.085937-9.523438 2.085937zm-45.230469-173.648437c-3.597656 0-7.042969 1.105469-10.050781 3.277343-4.941406 3.566407-7.890625 9.4375-7.890625 15.714844 0 8.679688-.789063 14.792969-1.792969 22.53125-.402344 3.078125-.839844 6.464844-1.285156 10.441406-4.921875 46.277344 20.125 91.730469 60.910156 110.511719 3.394532 1.5625 7.289063 1.5625 10.679688 0 40.773437-18.773437 65.8125-64.207031 60.914062-110.492187-1.027344-8.117188-2.417968-20.363282-2.714844-33.144532 0-6.035156-2.738281-9.953124-5.03125-12.195312-3.464843-3.390625-8.234374-5.25-13.207031-5.160156-.132812.003906-.265625 0-.398437-.003906-2.609375-.148438-6.78125.832031-11.605469 1.964843-14.257813 3.359375-38.117187 8.980469-72.535156-2.449219-2.015625-.664062-4.027344-.996093-5.992188-.996093zm0 0"/><path d="m273.949219 509.144531c-2.761719 0-5-2.238281-5-5v-110.65625c0-2.761719 2.238281-5 5-5s5 2.238281 5 5v110.65625c0 2.761719-2.238281 5-5 5zm0 0"/><path d="m71.144531 509.144531c-2.761719 0-5-2.238281-5-5v-110.65625c0-2.761719 2.238281-5 5-5s5 2.238281 5 5v110.65625c0 2.761719-2.238281 5-5 5zm0 0"/><path d="m90.175781 127.078125c-.757812 0-1.515625-.171875-2.214843-.519531-1.265626-.621094-2.207032-1.753906-2.59375-3.109375-4.707032-16.492188-13.085938-57.089844 9.765624-80.457031 2.160157-4.640626 11.980469-21.871094 40.042969-25.304688 14.292969-1.75 24.652344-7.984375 28.230469-13.035156 1.898438-2.679688 4.984375-4.375 8.335938-4.605469.234374-.03125.464843-.0585938.722656-.04296875.246094-.0078125.488281.01171875.726562.04296875 3.351563.234375 6.429688 1.925781 8.328125 4.601563 3.582031 5.054687 13.941407 11.289062 28.230469 13.039062 28.066406 3.433594 37.886719 20.664062 40.046875 25.304688 22.847656 23.363281 14.46875 63.960937 9.757813 80.457031-.386719 1.355469-1.328126 2.484375-2.589844 3.109375-1.265625.625-2.734375.6875-4.046875.167968-2.71875-1.066406-5.546875-1.609374-8.410157-1.609374-.777343 0-1.625.054687-2.601562.164062-1.355469.152344-2.714844-.253906-3.761719-1.128906-1.046875-.871094-1.695312-2.136719-1.785156-3.5-.28125-4.125-.460937-7.875-.542969-11.457032 0-6.039062-2.738281-9.953124-5.03125-12.195312-3.464844-3.390625-8.234375-5.285156-13.207031-5.160156-.132813.003906-.265625 0-.398437-.003906-2.609376-.148438-6.78125.832031-11.605469 1.964843-14.257813 3.359375-38.121094 8.980469-72.539063-2.449219-5.691406-1.890624-11.382812-1.078124-16.039062 2.28125-4.941406 3.5625-7.890625 9.4375-7.890625 15.714844 0 3.914063-.160157 7.539063-.503907 11.414063-.121093 1.34375-.777343 2.578125-1.820312 3.429687-1.042969.851563-2.394531 1.242188-3.726562 1.09375-.980469-.109375-1.84375-.164062-2.644532-.164062-2.859375 0-5.6875.539062-8.40625 1.609375-.585937.230469-1.207031.347656-1.828125.347656zm82.289063-117.054687c-.386719.015624-.726563.171874-.898438.414062-4.605468 6.5-16.582031 14.902344-35.171875 17.175781-25.507812 3.125-32.113281 19.332031-32.378906 20.019531-.257813.660157-.667969 1.300782-1.175781 1.792969-18.164063 17.796875-12.878906 51.023438-9.144532 66.390625 1.742188-.363281 3.5-.585937 5.277344-.664062.09375-1.910156.136719-3.816406.136719-5.804688 0-9.480468 4.5-18.386718 12.035156-23.824218 7.222657-5.210938 16.355469-6.546876 25.042969-3.660157 31.730469 10.539063 53.011719 5.523438 67.09375 2.203125 5.710938-1.34375 10.242188-2.417968 14.265625-2.226562 7.53125-.164063 14.894531 2.792968 20.230469 8.011718 5.183594 5.066407 8.039062 11.894532 8.039062 19.230469.042969 1.921875.121094 3.941407.230469 6.074219 1.746094.082031 3.472656.300781 5.179687.660156 3.742188-15.371094 9.023438-48.597656-9.140624-66.390625-.523438-.515625-.929688-1.140625-1.1875-1.832031-.253907-.648438-6.855469-16.859375-32.363282-19.980469-18.59375-2.277343-30.566406-10.675781-35.175781-17.179687-.167969-.238282-.507813-.394532-.894531-.410156zm0 0"/><path d="m273.949219 511.945312h-202.804688c-2.761719 0-5-2.238281-5-5v-84.019531h-48.472656c-.105469.007813-.179687.007813-.257813.007813-1.351562 0-2.652343-.550782-3.59375-1.527344-.96875-1-1.476562-2.359375-1.398437-3.753906l5.324219-95.582032c.84375-15.167968 11.3125-27.851562 26.046875-31.558593l39.757812-10.007813c7.558594-1.90625 15.121094-4.1875 22.476563-6.78125l20.410156-10.0625c4.09375-2.019531 6.636719-6.109375 6.636719-10.671875v-13.414062c0-1.976563 1.167969-3.769531 2.976562-4.570313 1.804688-.800781 3.914063-.464844 5.378907.863282 7.773437 7.042968 16.355468 12.75 25.507812 16.964843 3.394531 1.5625 7.289062 1.5625 10.679688 0 9.367187-4.3125 18.121093-10.175781 26.015624-17.421875 1.460938-1.339844 3.578126-1.691406 5.390626-.890625 1.816406.796875 2.988281 2.59375 2.988281 4.578125v13.886719c0 4.566406 2.542969 8.65625 6.636719 10.671875l21.429687 10.566406c6.664063 2.257813 13.503906 4.277344 20.335937 5.996094l40.882813 10.292969c14.730469 3.707031 25.199219 16.386719 26.042969 31.558593l5.324218 95.59375c.078126 1.398438-.433593 2.765626-1.410156 3.769532-.980468 1-2.3125 1.519531-3.730468 1.507812-.050782-.003906-.175782-.007812-.265626-.015625h-48.320312l.003906 84.019531c0 1.328126-.527344 2.597657-1.464844 3.535157-.929687.941406-2.199218 1.464843-3.527343 1.464843zm-197.804688-10h192.804688v-84.019531c0-2.761719 2.238281-5 5-5h48.445312l-5.03125-90.300781c-.601562-10.773438-8.035156-19.785156-18.503906-22.417969l-40.878906-10.292969c-7.199219-1.8125-14.40625-3.941406-21.421875-6.328124-.207032-.070313-.40625-.152344-.601563-.25l-21.722656-10.710938c-7.535156-3.714844-12.214844-11.238281-12.214844-19.640625v-3.210937c-6.355469 4.808593-13.121093 8.875-20.214843 12.140624-6.050782 2.789063-12.992188 2.789063-19.042969 0-6.890625-3.171874-13.480469-7.105468-19.683594-11.746093v2.820312c0 8.402344-4.679687 15.925781-12.214844 19.640625l-20.675781 10.195313c-.175781.085937-.355469.164062-.542969.226562-7.734375 2.742188-15.691406 5.144531-23.652343 7.148438l-39.757813 10.007812c-10.464844 2.636719-17.902344 11.644531-18.5 22.421875l-5.03125 90.300782h48.445313c2.761718 0 5 2.238281 5 5v84.015624zm251.238281-79.019531h.019532zm0 0"/><path d="m318.863281 511.945312h-292.632812c-4.933594 0-9.710938-2.054687-13.097657-5.640624-3.390624-3.582032-5.175781-8.460938-4.902343-13.386719l2.851562-51.226563c.078125-1.382812.726563-2.667968 1.785157-3.558594 1.0625-.882812 2.453124-1.296874 3.820312-1.121093.28125.03125.566406.058593.855469.058593h48.601562v-14.140624h-48.472656c-.105469.003906-.179687.003906-.257813.003906-1.351562 0-2.652343-.546875-3.59375-1.523438-.96875-1-1.476562-2.363281-1.398437-3.753906l5.324219-95.585938c.84375-15.167968 11.3125-27.851562 26.046875-31.558593l39.757812-10.007813c7.558594-1.902344 15.121094-4.183594 22.476563-6.777344l14.609375-7.203124c2.183593-1.078126 4.824219-.421876 6.253906 1.546874l12.617187 17.367188c7.65625 10.542969 20.007813 16.835938 33.039063 16.835938s25.378906-6.296876 33.039063-16.835938l12.617187-17.371094c1.429687-1.964844 4.070313-2.621094 6.257813-1.542968l15.621093 7.703124c6.664063 2.253907 13.503907 4.273438 20.335938 5.992188l40.882812 10.292969c14.734375 3.707031 25.199219 16.390625 26.042969 31.558593l5.328125 95.597657c.078125 1.394531-.433594 2.761719-1.410156 3.765625-.980469 1-2.339844 1.519531-3.730469 1.507812-.050781 0-.175781-.007812-.265625-.011718h-48.320313v14.140624h48.4375c.324219 0 .640626-.035156.957032-.078124 1.386718-.183594 2.78125.207031 3.855468 1.097656 1.078126.886718 1.734376 2.183594 1.8125 3.578125l2.851563 51.25c.277344 4.925781-1.511719 9.804687-4.898437 13.390625-3.390626 3.582031-8.164063 5.636718-13.097657 5.636718zm-298.0625-64.875-2.585937 46.402344c-.125 2.226563.652344 4.34375 2.183594 5.960938 1.527343 1.617187 3.601562 2.511718 5.832031 2.511718h292.632812c2.230469 0 4.300781-.890624 5.832031-2.511718s2.308594-3.738282 2.183594-5.960938l-2.582031-46.402344h-50.347656c-2.761719 0-5-2.238281-5-5v-24.144531c0-2.761719 2.238281-5 5-5h48.445312l-5.03125-90.300781c-.601562-10.773438-8.035156-19.785156-18.5-22.417969l-40.882812-10.292969c-7.199219-1.8125-14.40625-3.941406-21.421875-6.328124-.207032-.070313-.40625-.152344-.597656-.25l-12.140626-5.984376-10.140624 13.957032c-9.535157 13.125-24.910157 20.957031-41.128907 20.957031s-31.597656-7.832031-41.128906-20.957031l-10.140625-13.957032-11.09375 5.46875c-.175781.085938-.355469.164063-.539062.226563-7.738282 2.742187-15.695313 5.144531-23.652344 7.148437l-39.757813 10.007813c-10.46875 2.636719-17.902343 11.644531-18.503906 22.421875l-5.03125 90.300781h48.445313c2.761718 0 5 2.234375 5 5v24.140625c0 2.765625-2.238282 5-5 5h-50.347657zm0 0"/><path d="m211.304688 324.035156c-1.375 0-2.730469-.566406-3.707032-1.644531l-16.09375-17.773437c-1.019531-1.125-1.472656-2.652344-1.234375-4.148438.242188-1.5 1.148438-2.804688 2.464844-3.554688 5.101563-2.902343 9.425781-6.765624 12.847656-11.480468l12.617188-17.371094c1.433593-1.964844 4.074219-2.621094 6.257812-1.542969l15.625 7.703125c1.695313.570313 3.40625 1.097656 5.117188 1.628906l1.296875.402344c1.539062.476563 2.75 1.667969 3.257812 3.199219.507813 1.527344.25 3.207031-.699218 4.511719l-14.386719 19.804687c-5.605469 7.71875-12.5625 14.273438-20.664063 19.472657-.832031.535156-1.765625.792968-2.699218.792968zm-8.457032-21.789062 9.230469 10.195312c5.582031-4.085937 10.449219-8.96875 14.5-14.550781l10.3125-14.191406c-.113281-.039063-.226563-.074219-.335937-.113281-.207032-.070313-.40625-.152344-.601563-.25l-12.140625-5.984376-10.140625 13.957032c-3.050781 4.210937-6.679687 7.871094-10.824219 10.9375zm0 0"/><path d="m133.058594 323.582031c-.949219 0-1.90625-.273437-2.746094-.824219-7.757812-5.113281-14.453125-11.5-19.890625-18.988281l-14.417969-19.847656c-.941406-1.296875-1.203125-2.972656-.703125-4.496094.5-1.527343 1.703125-2.71875 3.230469-3.207031 2.894531-.921875 5.285156-1.714844 7.496094-2.496094l14.609375-7.203125c2.1875-1.078125 4.828125-.421875 6.257812 1.546875l12.613281 17.367188c3.273438 4.503906 7.371094 8.242187 12.179688 11.097656 1.292969.765625 2.167969 2.070312 2.390625 3.554688.226563 1.480468-.230469 2.984374-1.238281 4.097656l-16.070313 17.75c-.980469 1.082031-2.339843 1.648437-3.710937 1.648437zm-24.941406-39.996093 10.394531 14.304687c3.894531 5.363281 8.53125 10.074219 13.8125 14.054687l9.242187-10.210937c-3.863281-2.960937-7.261718-6.453125-10.148437-10.425781l-10.140625-13.957032-11.09375 5.46875c-.175782.085938-.355469.164063-.539063.230469-.5.175781-1.007812.355469-1.527343.535157zm0 0"/><path d="m327.382812 447.070312h-53.4375c-2.761718 0-5-2.238281-5-5v-24.144531c0-2.761719 2.238282-5 5-5h53.4375c9.414063 0 17.070313 7.660157 17.070313 17.074219 0 9.410156-7.65625 17.070312-17.070313 17.070312zm-48.433593-10h48.433593c3.898438 0 7.070313-3.171874 7.070313-7.070312 0-3.902344-3.171875-7.074219-7.070313-7.074219h-48.433593zm0 0"/><path d="m71.144531 447.070312h-53.597656c-9.414063 0-17.074219-7.660156-17.074219-17.070312 0-9.414062 7.660156-17.074219 17.074219-17.074219h53.597656c2.761719 0 5 2.238281 5 5v24.144531c0 2.761719-2.238281 5-5 5zm-53.597656-24.144531c-3.902344 0-7.074219 3.171875-7.074219 7.074219 0 3.898438 3.171875 7.070312 7.074219 7.070312h48.597656v-14.144531zm0 0"/><path d="m318.863281 511.945312h-44.914062c-2.761719 0-5-2.238281-5-5v-64.875c0-1.328124.527343-2.597656 1.464843-3.535156s2.207032-1.464844 3.535157-1.464844h53.433593c.328126 0 .644532-.035156.957032-.082031 1.390625-.183593 2.78125.210938 3.859375 1.097657 1.074219.886718 1.734375 2.1875 1.808593 3.582031l2.855469 51.25c.273438 4.925781-1.511719 9.804687-4.902343 13.386719-3.390626 3.585937-8.164063 5.640624-13.097657 5.640624zm-39.914062-10h39.914062c2.230469 0 4.300781-.890624 5.832031-2.507812 1.535157-1.621094 2.308594-3.738281 2.1875-5.964844l-2.585937-46.402344h-45.347656zm0 0"/><path d="m71.144531 511.945312h-44.914062c-4.933594 0-9.707031-2.054687-13.097657-5.640624-3.390624-3.582032-5.175781-8.460938-4.902343-13.386719l2.851562-51.226563c.078125-1.382812.726563-2.667968 1.785157-3.558594 1.0625-.882812 2.453124-1.296874 3.820312-1.121093.28125.03125.566406.058593.855469.058593h53.601562c2.761719 0 5 2.238282 5 5v64.875c0 2.761719-2.238281 5-5 5zm-50.34375-64.875-2.585937 46.402344c-.125 2.226563.652344 4.34375 2.183594 5.964844 1.527343 1.617188 3.601562 2.507812 5.832031 2.507812h39.914062v-54.875zm0 0"/></g></svg>