<svg height="512pt" viewBox="-92 0 512 512" width="512pt" xmlns="http://www.w3.org/2000/svg"><path d="m322.722656 493.289062-9.488281-170.339843c-.714844-12.859375-9.710937-23.765625-22.207031-26.910157l-9.320313-2.34375-1.523437 5.429688c-1.207032 4.308594-5.71875 6.84375-10.027344 5.636719l-48.757812-13.667969c-4.308594-1.210938-6.84375-5.722656-5.640626-10.03125l2.007813-7.164062-6.503906-3.203126-3.625-1.789062c-5.753907-2.839844-9.398438-8.695312-9.398438-15.113281v-9.890625l-1.199219 1.171875c-8.21875 8-19.234374 12.480469-30.707031 12.480469.136719 0-4.214843 0-4.445312 0-11.46875 0-22.488281-4.476563-30.707031-12.480469l-1.675782-1.632813v10.351563c0 6.417969-3.644531 12.273437-9.398437 15.113281l-2.671875 1.316406-9.621094 4.742188 1.710938 6.097656c1.207031 4.308594-1.328126 8.820312-5.640626 10.03125l-48.757812 13.667969c-4.308594 1.207031-8.820312-1.328125-10.03125-5.636719l-1.359375-4.851562-7.023437 1.765624c-12.492188 3.144532-21.488282 14.050782-22.207032 26.910157l-9.488281 170.339843c-.414063 7.445313 5.511719 13.710938 12.96875 13.710938h291.765625c7.460938 0 13.386719-6.265625 12.972656-13.710938zm0 0" fill="#1b87c9"/><path d="m240.296875 371.214844h-34.230469c-3.03125 0-5.515625 2.480468-5.515625 5.515625v57.84375c0 3.035156 2.484375 5.515625 5.515625 5.515625h34.230469c3.03125 0 5.515625-2.480469 5.515625-5.515625v-57.84375c0-3.035157-2.484375-5.515625-5.515625-5.515625zm0 0" fill="#30a9e5"/><path d="m120.253906 371.214844h-34.226562c-3.035156 0-5.519532 2.480468-5.519532 5.515625v57.84375c0 3.035156 2.484376 5.515625 5.519532 5.515625h34.226562c3.035156 0 5.515625-2.480469 5.515625-5.515625v-57.84375c0-3.035157-2.480469-5.515625-5.515625-5.515625zm0 0" fill="#30a9e5"/><path d="m109.523438 281.0625-2.515626-8.964844c-1.207031-4.308594-5.71875-6.847656-10.027343-5.640625l-48.757813 13.667969c-4.308594 1.210938-6.847656 5.722656-5.640625 10.03125l2.515625 8.964844c1.207032 4.308594 5.722656 6.847656 10.03125 5.640625l48.757813-13.667969c4.308593-1.210938 6.84375-5.722656 5.636719-10.03125zm0 0" fill="#fcbd4c"/><path d="m215.757812 281.0625 2.515626-8.964844c1.207031-4.308594 5.722656-6.847656 10.03125-5.640625l48.757812 13.667969c4.308594 1.210938 6.84375 5.722656 5.636719 10.03125l-2.515625 8.964844c-1.207032 4.308594-5.71875 6.847656-10.027344 5.640625l-48.757812-13.667969c-4.308594-1.210938-6.847657-5.722656-5.640626-10.03125zm0 0" fill="#fcbd4c"/><path d="m199.003906 324.640625 22.371094-33.554687c-4.296875-1.21875-6.820312-5.722657-5.617188-10.023438l2.007813-7.164062-6.503906-3.203126-3.625-1.789062c-1.488281-.734375-2.824219-1.675781-4.003907-2.769531l-33.5 39.988281zm0 0" fill="#30a9e5"/><path d="m105.894531 290.179688 22.976563 34.460937 28.875-18.515625-33.566406-40.0625c-1.195313 1.125-2.554688 2.09375-4.074219 2.84375l-2.671875 1.316406-9.621094 4.742188 1.710938 6.097656c1.003906 3.574219-.597657 7.265625-3.628907 9.117188zm0 0" fill="#30a9e5"/><path d="m170.132812 306.125h-12.386718l-14.550782 9.332031c1.289063 10.125 9.980469 18.023438 20.445313 18.023438 10.582031 0 19.363281-8.078125 20.5-18.375zm0 0" fill="#3f3f3f"/><path d="m174.757812 330.191406c-3.214843 2.074219-7.027343 3.289063-11.117187 3.289063-4.09375 0-7.90625-1.21875-11.117187-3.296875l-12.9375 137.917968c-.183594 1.742188.425781 3.472657 1.664062 4.710938l18.289062 18.289062c2.265626 2.261719 5.9375 2.261719 8.203126 0l18.285156-18.289062c1.238281-1.238281 1.851562-2.96875 1.667968-4.710938zm0 0" fill="#3f3f3f"/><path d="m313.636719 330.179688c-14.949219 1.964843-26.5 14.722656-26.5 30.210937 0 16.636719 13.324219 30.136719 29.878906 30.472656zm0 0" fill="#fcbd4c"/><path d="m14.109375 330.097656-3.386719 60.792969c16.8125-.042969 30.425782-13.679687 30.425782-30.5 0-15.675781-11.824219-28.574219-27.039063-30.292969zm0 0" fill="#fcbd4c"/><path d="m242.136719 337.761719h-37.914063c-2.027344 0-3.671875 1.640625-3.671875 3.671875v10.363281c0 2.027344 1.644531 3.675781 3.671875 3.675781h37.914063c2.027343 0 3.675781-1.644531 3.675781-3.675781v-10.363281c0-2.03125-1.644531-3.671875-3.675781-3.671875zm0 0" fill="#e04e36"/><path d="m234.683594 126.15625c-.023438 0-.042969 0-.066406 0l4.035156 46.433594c11.027344-1.886719 19.429687-11.46875 19.429687-23.035156 0-12.921876-10.472656-23.398438-23.398437-23.398438zm0 0" fill="#fcb275"/><path d="m92.039062 126.171875c-12.785156.15625-23.105468 10.558594-23.105468 23.382813 0 11.324218 8.0625 20.726562 18.746094 22.890624zm0 0" fill="#fcb275"/><path d="m241.785156 113.417969h-158.875c-7.179687 0-13.054687-5.875-13.054687-13.054688v-3.410156c0-7.179687 5.875-13.054687 13.054687-13.054687h158.875c7.179688 0 13.054688 5.875 13.054688 13.054687v3.410156c-.003906 7.179688-5.875 13.054688-13.054688 13.054688zm0 0" fill="#e8e6e6"/><path d="m91.992188 113.417969c14.460937 11.761719 41.46875 19.679687 72.417968 19.679687 30.953125 0 57.957032-7.917968 72.417969-19.679687zm0 0" fill="#3f3f3f"/><path d="m270.277344 60.054688c-10.886719-21.277344-43.285156-55.054688-106.40625-55.054688s-95.523438 33.777344-106.402344 55.054688c-8.582031 16.769531 3.660156 30.90625 12.386719 38.246093v-1.347656c0-7.179687 5.875-13.054687 13.054687-13.054687h158.875c7.179688 0 13.054688 5.875 13.054688 13.054687v3.414063c0 .121093-.015625.242187-.019532.367187 8.386719-6.257813 25.113282-21.792969 15.457032-40.679687zm0 0" fill="#3f3f3f"/><path d="m233.714844 115.746094c-15.03125 10.464844-40.449219 17.351562-69.304688 17.351562-30.164062 0-56.542968-7.53125-71.253906-18.796875l-6.351562 67.429688c-1.191407 12.78125 5.425781 25.410156 14.621093 34.367187l29.753907 28.976563c8.21875 8 19.238281 12.480469 30.707031 12.480469.234375 0 4.582031 0 4.445312 0 11.472657 0 22.488281-4.476563 30.707031-12.480469l29.753907-28.976563c9.195312-8.957031 13.847656-21.585937 12.65625-34.367187zm0 0" fill="#fcb275"/><path d="m250.636719 109.917969c-2.332031 2.160156-5.441407 3.5-8.851563 3.5h-4.957031c-.976563.796875-2.023437 1.570312-3.113281 2.328125l.90625 10.410156h.0625c9.667968 0 17.964844 5.863281 21.53125 14.226562-.070313-10.695312-2.023438-20.953124-5.578125-30.464843zm0 0" fill="#7c292e"/><path d="m82.910156 113.417969c-2.503906 0-4.835937-.726563-6.828125-1.957031-3.148437 8.925781-4.914062 18.476562-5.03125 28.417968 3.644531-8 11.648438-13.59375 20.988281-13.707031l1.117188-11.871094c-.382812-.292969-.796875-.582031-1.164062-.882812zm0 0" fill="#7c292e"/><path d="m161.886719 257.554688c-11.46875 0-22.488281-4.476563-30.707031-12.480469l-1.675782-1.632813v10.351563c0 4.722656-1.988281 9.132812-5.324218 12.265625l33.566406 40.066406h12.386718l33.5-39.988281c-3.382812-3.140625-5.390624-7.585938-5.390624-12.34375v-9.890625l-1.203126 1.171875c-8.21875 8-19.234374 12.480469-30.707031 12.480469.136719 0-4.210937 0-4.445312 0zm0 0" fill="#fcb275"/><path d="m182.292969 42.441406-2.679688-10.476562c-.46875-1.832032-1.878906-3.085938-3.476562-3.085938h-26.992188c-1.59375 0-3.003906 1.253906-3.476562 3.085938l-2.679688 10.476562c-1.707031 6.671875 1.046875 13.820313 6.382813 16.570313l13.269531 6.839843 13.269531-6.839843c5.335938-2.75 8.089844-9.898438 6.382813-16.570313zm0 0" fill="#fcbd4c"/><path d="m173.644531 458.640625-1.332031-5.207031c-.234375-.914063-.933594-1.535156-1.730469-1.535156h-13.421875c-.792968 0-1.492187.621093-1.726562 1.535156l-1.332032 5.207031c-.851562 3.316406.519532 6.871094 3.175782 8.238281l6.597656 3.402344 6.597656-3.402344c2.652344-1.363281 4.019532-4.921875 3.171875-8.238281zm0 0" fill="#fcbd4c"/><g fill="#231f20"><path d="m309.753906 512h-291.765625c-4.921875 0-9.6875-2.050781-13.070312-5.625-3.378907-3.578125-5.164063-8.449219-4.8906252-13.363281l9.4882812-170.339844c.84375-15.128906 11.28125-27.785156 25.976563-31.480469l7.023437-1.769531c2.636719-.648437 5.304687.890625 6.035156 3.5l1.359375 4.851563c.460938 1.632812 2.230469 2.636718 3.871094 2.175781l48.753906-13.671875c.796875-.222656 1.464844-.75 1.878906-1.484375.414063-.738281.515626-1.582031.292969-2.378907l-1.707031-6.097656c-.652344-2.320312.445312-4.769531 2.601562-5.835937l12.292969-6.054688c4.078125-2.015625 6.609375-6.082031 6.609375-10.628906v-10.355469c0-2.007812 1.203125-3.824218 3.054688-4.605468 1.855468-.78125 3.992187-.378907 5.433594 1.023437l1.675781 1.632813c7.328125 7.136718 16.992187 11.066406 27.21875 11.066406h4.445312c10.226563 0 19.890625-3.929688 27.214844-11.066406l1.203125-1.171876c1.441406-1.398437 3.582031-1.800781 5.429688-1.019531 1.855468.78125 3.058593 2.59375 3.058593 4.605469v9.890625c0 4.542969 2.53125 8.617187 6.609375 10.625l10.128906 4.992187c2.160157 1.066407 3.253907 3.519532 2.601563 5.835938l-2.003906 7.160156c-.226563.800782-.121094 1.644532.292969 2.378906.414062.734376 1.082031 1.265626 1.875 1.488282l48.757812 13.667968c.800781.222657 1.644531.121094 2.378906-.292968.738282-.414063 1.265625-1.082032 1.488282-1.878906l1.523437-5.429688c.730469-2.609375 3.40625-4.148438 6.03125-3.5l9.324219 2.347656c14.695312 3.699219 25.136718 16.351563 25.980468 31.480469l9.488282 170.339844c.273437 4.914062-1.507813 9.785156-4.894532 13.363281-3.378906 3.574219-8.144531 5.625-13.066406 5.625zm-269.515625-211.691406-2.304687.578125c-10.429688 2.625-17.835938 11.601562-18.433594 22.339843l-9.488281 170.339844c-.125 2.214844.648437 4.320313 2.171875 5.933594 1.523437 1.613281 3.582031 2.5 5.800781 2.5h291.765625c2.21875 0 4.28125-.886719 5.804688-2.5 1.523437-1.613281 2.296874-3.71875 2.171874-5.9375l-9.488281-170.335938c-.597656-10.738281-8.003906-19.714843-18.433593-22.339843l-4.601563-1.15625-.207031.742187c-.945313 3.371094-3.152344 6.171875-6.214844 7.894532-3.066406 1.722656-6.609375 2.152343-9.976562 1.207031l-48.757813-13.667969c-3.371094-.945312-6.175781-3.152344-7.898437-6.214844-1.722657-3.066406-2.148438-6.609375-1.203126-9.976562l.882813-3.164063-6.40625-3.160156c-7.300781-3.601563-11.914063-10.785156-12.175781-18.875-7.929688 5.230469-17.222656 8.042969-26.917969 8.042969h-4.445313c-9.886718 0-19.351562-2.921875-27.386718-8.355469-.148438 8.214844-4.789063 15.542969-12.183594 19.1875l-8.566406 4.222656.585937 2.101563c.945313 3.371094.515625 6.910156-1.203125 9.976562-1.722656 3.0625-4.527344 5.273438-7.898437 6.214844l-48.753907 13.667969c-6.972656 1.953125-14.238281-2.128907-16.195312-9.101563zm0 0"/><path d="m240.292969 445.089844h-34.226563c-5.800781 0-10.515625-4.714844-10.515625-10.515625v-57.84375c0-5.796875 4.714844-10.519531 10.515625-10.519531h34.226563c5.800781 0 10.519531 4.71875 10.519531 10.519531v57.84375c0 5.800781-4.71875 10.515625-10.519531 10.515625zm-34.226563-68.878906c-.273437 0-.515625.242187-.515625.519531v57.84375c0 .269531.246094.515625.515625.515625h34.230469c.269531 0 .515625-.246094.515625-.515625v-57.84375c0-.277344-.242188-.519531-.515625-.519531zm0 0"/><path d="m120.25 445.089844h-34.222656c-5.800782 0-10.519532-4.714844-10.519532-10.515625v-57.84375c0-5.796875 4.71875-10.519531 10.519532-10.519531h34.226562c5.800782 0 10.519532 4.71875 10.519532 10.519531v57.84375c-.003907 5.800781-4.722657 10.515625-10.523438 10.515625zm-34.222656-68.878906c-.277344 0-.519532.242187-.519532.519531v57.84375c0 .269531.246094.515625.519532.515625h34.226562c.269532 0 .519532-.246094.519532-.515625v-57.84375c0-.277344-.242188-.519531-.519532-.519531zm0 0"/><path d="m52.941406 311.0625c-6.183594 0-11.871094-4.085938-13.621094-10.320312l-2.511718-8.964844c-2.105469-7.503906 2.289062-15.320313 9.792968-17.425782l48.761719-13.667968c7.5-2.105469 15.320313 2.289062 17.425781 9.792968l2.511719 8.964844c1.015625 3.625.558594 7.441406-1.296875 10.738282-1.851562 3.296874-4.871094 5.671874-8.5 6.6875l-48.753906 13.671874c-1.273438.355469-2.550781.523438-3.808594.523438zm46.214844-38.902344c-.183594 0-.371094.027344-.558594.074219l-48.753906 13.667969c-1.113281.3125-1.792969 1.523437-1.480469 2.636718l2.515625 8.964844c.3125 1.113282 1.523438 1.789063 2.632813 1.476563l48.753906-13.667969c.730469-.207031 1.113281-.722656 1.277344-1.015625.164062-.289063.410156-.886719.203125-1.617187l-2.511719-8.96875c-.261719-.925782-1.148437-1.550782-2.078125-1.550782zm0 0"/><path d="m272.34375 311.0625c-1.257812 0-2.535156-.167969-3.804688-.523438l-48.761718-13.671874c-7.5-2.101563-11.898438-9.917969-9.792969-17.425782l2.511719-8.964844c2.105468-7.507812 9.917968-11.898437 17.425781-9.792968l48.757813 13.667968c7.507812 2.105469 11.902343 9.921876 9.796874 17.425782l-2.511718 8.964844c-1.75 6.234374-7.441406 10.320312-13.621094 10.320312zm-50.804688-28.378906c-.3125 1.113281.363282 2.320312 1.476563 2.628906l48.761719 13.671875c1.113281.308594 2.320312-.367187 2.628906-1.480469l2.511719-8.964844c.3125-1.113281-.363281-2.320312-1.480469-2.632812l-48.753906-13.667969c-1.113282-.300781-2.320313.367188-2.632813 1.476563zm0 0"/><path d="m199 329.640625c-.925781 0-1.859375-.257813-2.695312-.792969l-28.875-18.515625c-1.207032-.777343-2.023438-2.035156-2.242188-3.453125-.21875-1.421875.1875-2.867187 1.109375-3.96875l33.5-39.988281c.878906-1.050781 2.15625-1.695313 3.523437-1.78125 1.375-.078125 2.710938.394531 3.714844 1.328125.855469.792969 1.800782 1.453125 2.8125 1.953125l10.128906 4.992187c2.160157 1.0625 3.253907 3.515626 2.605469 5.832032l-2.007812 7.164062c-.464844 1.660156.503906 3.390625 2.164062 3.863282 1.539063.433593 2.773438 1.578124 3.328125 3.078124.554688 1.5.355469 3.175782-.53125 4.503907l-22.371094 33.554687c-.960937 1.449219-2.546874 2.230469-4.164062 2.230469zm-21.386719-24.660156 19.957031 12.796875 16.792969-25.183594c-3.277343-3.253906-4.746093-8.140625-3.417969-12.882812l.886719-3.164063-6.40625-3.15625c-.316406-.15625-.628906-.320313-.9375-.492187zm0 0"/><path d="m128.875 329.640625c-1.617188 0-3.203125-.785156-4.164062-2.226563l-22.976563-34.460937c-.753906-1.132813-1.015625-2.523437-.722656-3.851563.292969-1.328124 1.117187-2.480468 2.277343-3.191406 1.207032-.734375 1.789063-2.175781 1.417969-3.5l-1.707031-6.097656c-.652344-2.316406.445312-4.769531 2.601562-5.832031l12.292969-6.058594c1.019531-.503906 1.984375-1.179687 2.863281-2.007813 1-.941406 2.339844-1.425781 3.722657-1.34375 1.371093.078126 2.652343.722657 3.535156 1.78125l33.5625 40.0625c.921875 1.101563 1.328125 2.546876 1.113281 3.964844-.21875 1.421875-1.035156 2.679688-2.246094 3.457032l-28.875 18.515624c-.835937.53125-1.769531.789063-2.695312.789063zm-16.519531-38.785156 17.953125 26.925781 19.957031-12.796875-26.921875-32.132813c-.335938.1875-.675781.371094-1.023438.539063l-8.570312 4.226563.585938 2.097656c1.089843 3.878906.28125 7.972656-1.980469 11.140625zm0 0"/><path d="m163.640625 338.480469c-12.855469 0-23.777344-9.625-25.40625-22.390625-.246094-1.914063.636719-3.796875 2.257813-4.84375l14.550781-9.332032c.804687-.515624 1.742187-.789062 2.699219-.789062h12.386718c.957032 0 1.894532.273438 2.699219.789062l14.007813 8.984376c1.597656 1.027343 2.476562 2.867187 2.269531 4.753906-1.429688 13.015625-12.378907 22.828125-25.464844 22.828125zm-14.8125-20.695313c2.085937 6.269532 8.003906 10.699219 14.8125 10.699219 6.96875 0 12.941406-4.5625 14.925781-11.007813l-9.902344-6.351562h-9.453124zm0 0"/><path d="m163.640625 497.796875c-2.886719 0-5.597656-1.121094-7.636719-3.164063l-18.289062-18.285156c-2.316406-2.316406-3.449219-5.515625-3.101563-8.777344l12.929688-137.855468c.164062-1.742188 1.222656-3.269532 2.792969-4.03125 1.574218-.765625 3.429687-.652344 4.898437.296875 5.054687 3.269531 11.757813 3.261719 16.8125.003906 1.464844-.945313 3.324219-1.058594 4.894531-.292969 1.570313.761719 2.628906 2.289063 2.792969 4.03125l12.9375 137.910156c.335937 3.195313-.792969 6.394532-3.109375 8.710938l-18.289062 18.289062c-2.039063 2.042969-4.75 3.164063-7.632813 3.164063zm-6.789063-160.242187-12.289062 131.011718c-.03125.300782.054688.539063.222656.710938l18.289063 18.285156c.386719.386719.742187.386719 1.128906 0l18.289063-18.285156c.171874-.171875.253906-.410156.230468-.648438l-12.296875-131.070312c-4.398437 1.222656-9.175781 1.222656-13.574219-.003906zm0 0"/><path d="m317.015625 395.863281c-.03125 0-.066406 0-.097656-.003906-19.179688-.386719-34.78125-16.296875-34.78125-35.46875 0-17.738281 13.261719-32.855469 30.851562-35.167969 1.375-.1875 2.769531.21875 3.839844 1.109375 1.074219.886719 1.726563 2.183594 1.800781 3.570313l3.378906 60.683594c.078126 1.386718-.425781 2.75-1.390624 3.75-.945313.972656-2.242188 1.527343-3.601563 1.527343zm-8.039063-59.433593c-9.894531 3.578124-16.839843 13.082031-16.839843 23.960937 0 11.902344 8.378906 22.058594 19.558593 24.769531zm0 0"/><path d="m10.722656 395.886719c-1.371094 0-2.683594-.5625-3.628906-1.558594-.945312-1-1.4375-2.34375-1.363281-3.714844l3.386719-60.792969c.078124-1.375.714843-2.65625 1.765624-3.542968 1.050782-.886719 2.425782-1.296875 3.789063-1.148438 17.945313 2.03125 31.476563 17.191406 31.476563 35.261719 0 19.527344-15.886719 35.453125-35.414063 35.5-.003906-.003906-.007813-.003906-.011719-.003906zm8.054688-59.667969-2.734375 49.09375c11.472656-2.484375 20.105469-12.722656 20.105469-24.921875 0-11.15625-7.175782-20.765625-17.371094-24.171875zm0 0"/><path d="m242.136719 360.46875h-37.914063c-4.78125 0-8.671875-3.890625-8.671875-8.671875v-10.363281c0-4.785156 3.890625-8.675782 8.671875-8.675782h37.914063c4.785156 0 8.675781 3.890626 8.675781 8.675782v10.363281c0 4.78125-3.890625 8.671875-8.675781 8.671875zm-36.585938-10h35.261719v-7.707031h-35.261719zm36.585938-7.707031h.019531zm0 0"/><path d="m238.652344 177.589844c-1.097656 0-2.171875-.363282-3.054688-1.042969-1.105468-.855469-1.804687-2.132813-1.925781-3.523437l-4.03125-46.433594c-.125-1.394532.347656-2.78125 1.292969-3.8125.949218-1.03125 2.285156-1.621094 3.6875-1.621094l.066406-.003906c15.660156 0 28.398438 12.742187 28.398438 28.398437 0 13.863281-9.917969 25.625-23.585938 27.964844-.285156.050781-.566406.074219-.847656.074219zm1.492187-45.609375 2.945313 33.929687c6.011718-3.066406 9.992187-9.289062 9.992187-16.355468 0-8.246094-5.449219-15.242188-12.9375-17.574219zm0 0"/><path d="m87.679688 177.441406c-.332032 0-.664063-.035156-.992188-.097656-13.1875-2.667969-22.753906-14.355469-22.753906-27.789062 0-15.457032 12.578125-28.191407 28.042968-28.382813 1.382813-.011719 2.777344.566406 3.738282 1.609375.960937 1.042969 1.433594 2.445312 1.300781 3.859375l-4.359375 46.269531c-.128906 1.414063-.855469 2.703125-1.996094 3.546875-.867187.644531-1.914062.984375-2.980468.984375zm-1.222657-45.304687c-7.261719 2.46875-12.523437 9.375-12.523437 17.417969 0 6.738281 3.726562 12.796874 9.375 15.988281zm0 0"/><path d="m241.785156 118.417969h-158.875c-9.957031 0-18.054687-8.097657-18.054687-18.050781v-3.414063c0-9.957031 8.097656-18.050781 18.054687-18.050781h158.875c9.953125 0 18.050782 8.097656 18.050782 18.050781v3.414063c0 9.953124-8.097657 18.050781-18.050782 18.050781zm-158.875-29.519531c-4.441406 0-8.054687 3.617187-8.054687 8.054687v3.410156c0 4.441407 3.613281 8.050781 8.054687 8.050781h158.875c4.441406 0 8.050782-3.613281 8.050782-8.050781v-3.410156c0-4.441406-3.609376-8.054687-8.050782-8.054687zm0 0"/><path d="m164.410156 138.097656c-31.304687 0-59.558594-7.777344-75.574218-20.800781-1.640626-1.335937-2.261719-3.558594-1.554688-5.550781.707031-1.992188 2.597656-3.324219 4.710938-3.324219h144.835937c2.117187 0 4.003906 1.332031 4.714844 3.324219.707031 1.992187.082031 4.21875-1.558594 5.550781-16.015625 13.023437-44.269531 20.800781-75.574219 20.800781zm-53.933594-19.679687c14.488282 6.125 33.683594 9.679687 53.933594 9.679687s39.449219-3.550781 53.933594-9.679687zm0 0"/><path d="m254.816406 105.730469c-.789062 0-1.582031-.1875-2.3125-.566407-1.699218-.886718-2.746094-2.671874-2.683594-4.589843.003907-.066407.015626-.292969.019532-.363281v-3.257813c0-4.441406-3.613282-8.054687-8.054688-8.054687h-158.875c-4.441406 0-8.054687 3.617187-8.054687 8.054687v1.347656c0 1.941407-1.125 3.710938-2.890625 4.535157-1.761719.8125-3.839844.542968-5.328125-.710938-16.371094-13.769531-21.210938-29.519531-13.621094-44.351562 4.9375-9.648438 33.472656-57.773438 110.855469-57.773438 77.375 0 105.921875 48.125 110.855468 57.777344 8.082032 15.800781 1.917969 32.917968-16.917968 46.960937-.882813.65625-1.933594.992188-2.992188.992188zm-171.90625-26.832031h158.875c7.777344 0 14.421875 4.945312 16.957032 11.851562 6.929687-7.03125 12.859374-17.121094 7.082031-28.421875-4.472657-8.734375-30.398438-52.328125-101.953125-52.328125-71.558594 0-97.484375 43.59375-101.953125 52.328125-5.125 10.023437-1.078125 19.132813 5.035156 26.179687 3.035156-5.710937 9.046875-9.609374 15.957031-9.609374zm0 0"/><path d="m166.332031 262.554688h-4.445312c-12.847657 0-24.992188-4.9375-34.195313-13.898438l-29.753906-28.976562c-11.304688-11.015626-17.328125-25.375-16.113281-38.410157l6.355469-67.441406c.167968-1.808594 1.308593-3.382813 2.976562-4.113281 1.667969-.726563 3.597656-.492188 5.042969.613281 14.308593 10.960937 40.445312 17.769531 68.210937 17.769531 26.804688 0 51.644532-6.148437 66.445313-16.453125 1.464843-1.023437 3.359375-1.183593 4.976562-.425781 1.617188.757812 2.707031 2.316406 2.863281 4.09375l5.730469 65.984375c1.335938 14.320313-3.816406 28.320313-14.144531 38.378906l-29.753906 28.976563c-9.203125 8.96875-21.347656 13.902344-34.195313 13.902344zm-68.976562-139.503907-5.574219 59.148438c-.9375 10.054687 3.972656 21.390625 13.132812 30.3125l29.753907 28.976562c7.328125 7.136719 16.992187 11.066407 27.21875 11.066407h4.445312c10.222657 0 19.890625-3.929688 27.214844-11.066407l29.757813-28.976562c8.148437-7.941407 12.21875-18.988281 11.164062-30.316407l-5.042969-58.007812c-16.527343 8.792969-40.097656 13.910156-65.015625 13.910156-26.183594 0-50.476562-5.535156-67.054687-15.046875zm0 0"/><path d="m256.210938 145.382812c-1.96875 0-3.796876-1.167968-4.59375-3.039062-2.902344-6.796875-9.546876-11.191406-16.933594-11.191406-2.59375 0-4.820313-1.976563-5.046875-4.5625l-.90625-10.410156c-.15625-1.785157.65625-3.515626 2.125-4.539063 1.082031-.753906 2.003906-1.441406 2.816406-2.101563.890625-.726562 2.003906-1.125 3.15625-1.125h4.957031c2.007813 0 3.945313-.769531 5.449219-2.167968 1.226563-1.132813 2.929687-1.582032 4.554687-1.199219 1.625.386719 2.949219 1.554687 3.53125 3.117187 3.839844 10.277344 5.824219 21.105469 5.894532 32.183594.015625 2.378906-1.652344 4.441406-3.984375 4.925782-.339844.078124-.679688.109374-1.019531.109374zm-16.976563-23.851562c3.800781.613281 7.382813 1.980469 10.5625 3.976562-.511719-2.746093-1.160156-5.464843-1.949219-8.144531-1.929687.691407-3.972656 1.054688-6.0625 1.054688h-2.820312zm0 0"/><path d="m71.050781 144.878906c-.359375 0-.726562-.039062-1.089843-.121094-2.308594-.515624-3.9375-2.574218-3.910157-4.941406.121094-10.273437 1.914063-20.371094 5.316407-30.023437.5-1.425781 1.625-2.546875 3.050781-3.050781 1.425781-.503907 3.003906-.332032 4.292969.464843 1.277343.789063 2.730468 1.207031 4.195312 1.207031h9.085938c1.148437 0 2.265624.394532 3.15625 1.125.167968.136719.351562.269532.53125.402344l.519531.386719c1.367187 1.046875 2.097656 2.722656 1.9375 4.4375l-1.121094 11.871094c-.238281 2.542969-2.359375 4.496093-4.914063 4.53125-7.078124.089843-13.558593 4.320312-16.503906 10.785156-.824218 1.8125-2.621094 2.925781-4.546875 2.925781zm8.183594-26.84375c-.691406 2.425782-1.269531 4.875-1.738281 7.351563 3.027344-1.859375 6.402344-3.160157 9.953125-3.789063l.296875-3.179687h-4.835938c-1.242187 0-2.472656-.128907-3.675781-.382813zm0 0"/><path d="m170.132812 311.125h-12.386718c-1.480469 0-2.882813-.65625-3.835938-1.789062l-33.5625-40.066407c-1.703125-2.035156-1.523437-5.039062.410156-6.855469 2.378907-2.234374 3.746094-5.378906 3.746094-8.621093v-10.355469c0-2.011719 1.203125-3.824219 3.054688-4.609375 1.855468-.777344 3.992187-.378906 5.433594 1.027344l1.675781 1.632812c7.328125 7.132813 16.992187 11.0625 27.21875 11.0625h4.445312c10.226563 0 19.890625-3.929687 27.214844-11.0625l1.203125-1.171875c1.441406-1.402344 3.582031-1.804687 5.429688-1.023437 1.855468.78125 3.058593 2.597656 3.058593 4.605469v9.890624c0 3.277344 1.382813 6.4375 3.792969 8.675782 1.953125 1.8125 2.140625 4.835937.433594 6.878906l-33.5 39.988281c-.953125 1.136719-2.351563 1.792969-3.832032 1.792969zm-10.054687-10h7.71875l29.292969-34.96875c-2.347656-3.414062-3.699219-7.460938-3.839844-11.640625-7.929688 5.230469-17.222656 8.042969-26.917969 8.042969h-4.445312c-9.886719 0-19.351563-2.921875-27.386719-8.355469-.082031 4.246094-1.421875 8.378906-3.789062 11.863281zm0 0"/><path d="m162.640625 70.851562c-.785156 0-1.570313-.1875-2.289063-.554687l-13.269531-6.839844c-7.367187-3.796875-11.210937-13.367187-8.933593-22.257812l2.679687-10.472657c1.03125-4.03125 4.453125-6.847656 8.320313-6.847656h26.992187c3.863281 0 7.285156 2.816406 8.320313 6.847656l2.679687 10.472657c2.273437 8.890625-1.566406 18.457031-8.9375 22.257812l-13.269531 6.839844c-.71875.367187-1.507813.554687-2.292969.554687zm-12.300781-36.972656-2.507813 9.796875c-1.128906 4.417969.554688 9.203125 3.832031 10.886719l10.976563 5.660156 10.980469-5.660156c3.277344-1.6875 4.957031-6.46875 3.828125-10.882812 0 0 0 0 0-.003907l-2.503907-9.796875zm0 0"/><path d="m163.972656 221.847656c-8.679687 0-16.765625-4.300781-21.628906-11.5-1.546875-2.289062-.945312-5.394531 1.34375-6.941406s5.394531-.945312 6.941406 1.34375c3.003906 4.445312 7.992188 7.097656 13.34375 7.097656 5.355469 0 10.34375-2.652344 13.347656-7.097656 1.542969-2.289062 4.652344-2.890625 6.941407-1.34375 2.289062 1.542969 2.890625 4.652344 1.34375 6.941406-4.863281 7.199219-12.949219 11.5-21.632813 11.5zm0 0"/><path d="m200.160156 154.46875c-.792968 0-1.59375-.191406-2.34375-.589844-1.214844-.644531-4.003906-1.292968-7.5-1.292968s-6.285156.648437-7.5 1.292968c-2.433594 1.300782-5.464844.375-6.761718-2.066406-1.296876-2.4375-.371094-5.464844 2.070312-6.761719 2.945312-1.566406 7.390625-2.464843 12.191406-2.464843 4.804688 0 9.246094.898437 12.195313 2.464843 2.4375 1.296875 3.363281 4.324219 2.066406 6.761719-.898437 1.691406-2.628906 2.652344-4.417969 2.65625zm0 0"/><path d="m147.230469 154.46875c-.789063 0-1.59375-.191406-2.339844-.589844-1.214844-.644531-4.003906-1.292968-7.5-1.292968-3.5 0-6.289063.648437-7.5 1.292968-2.441406 1.300782-5.46875.375-6.761719-2.066406-1.296875-2.4375-.375-5.460938 2.066406-6.761719 2.949219-1.566406 7.390626-2.464843 12.195313-2.464843s9.246094.898437 12.195313 2.464843c2.4375 1.296875 3.363281 4.324219 2.066406 6.761719-.902344 1.691406-2.632813 2.652344-4.421875 2.65625zm0 0"/><path d="m138.171875 173.539062c-3.3125 0-6-2.6875-6-6v-1.078124c0-3.316407 2.6875-6 6-6s6 2.683593 6 6v1.078124c0 3.3125-2.6875 6-6 6zm0 0"/><path d="m189.777344 174.363281c-3.3125 0-6-2.6875-6-6v-1.078125c0-3.3125 2.6875-6 6-6s6 2.6875 6 6v1.078125c0 3.3125-2.6875 6-6 6zm0 0"/><path d="m264.972656 509.207031c-2.761718 0-5-2.238281-5-5v-110.328125c0-2.761718 2.238282-5 5-5 2.761719 0 5 2.238282 5 5v110.328125c0 2.761719-2.238281 5-5 5zm0 0"/><path d="m62.769531 509.207031c-2.761719 0-5-2.238281-5-5v-110.328125c0-2.761718 2.238281-5 5-5s5 2.238282 5 5v110.328125c0 2.761719-2.238281 5-5 5zm0 0"/><path d="m163.871094 475.28125c-.785156 0-1.570313-.183594-2.292969-.554688l-6.597656-3.398437c-4.753907-2.453125-7.164063-8.304687-5.726563-13.925781l1.335938-5.207032c.796875-3.117187 3.5-5.292968 6.570312-5.292968h13.421875c3.070313 0 5.773438 2.175781 6.570313 5.292968l1.335937 5.207032c1.433594 5.621094-.972656 11.472656-5.730469 13.925781l-6.59375 3.398437c-.71875.371094-1.507812.554688-2.292968.554688zm-4.164063-18.382812-.761719 2.980468c-.316406 1.226563.222657 2.351563.617188 2.554688l4.308594 2.21875 4.304687-2.21875c.398438-.203125.9375-1.328125.625-2.554688l-.765625-2.980468zm0 0"/><path d="m240.292969 401.796875h-34.226563c-2.761718 0-5-2.238281-5-5s2.238282-5 5-5h34.226563c2.761719 0 5 2.238281 5 5s-2.238281 5-5 5zm0 0"/><path d="m120.25 401.796875h-34.222656c-2.765625 0-5-2.238281-5-5s2.234375-5 5-5h34.226562c2.761719 0 5 2.238281 5 5s-2.242187 5-5.003906 5zm0 0"/></g></svg>