<svg height="511pt" viewBox="-91 0 511 511.996" width="511pt" xmlns="http://www.w3.org/2000/svg"><path d="m323.21875 493.285156-9.488281-170.339844c-.71875-12.859374-9.714844-23.765624-22.207031-26.910156l-9.320313-2.34375-1.523437 5.429688c-1.207032 4.308594-5.722657 6.84375-10.03125 5.636718l-48.757813-13.667968c-4.308594-1.210938-6.84375-5.722656-5.636719-10.03125l2.007813-7.164063-6.503907-3.203125-3.625-1.789062c-5.753906-2.839844-9.398437-8.695313-9.398437-15.113282v-9.890624l-1.203125 1.171874c-8.214844 8-19.234375 12.480469-30.707031 12.480469.136719 0-4.210938 0-4.441407 0-11.472656 0-22.488281-4.476562-30.707031-12.480469l-1.679687-1.632812v10.351562c0 6.417969-3.644532 12.273438-9.398438 15.113282l-2.671875 1.316406-9.617187 4.742188 1.707031 6.097656c1.207031 4.308594-1.328125 8.820312-5.636719 10.03125l-48.757812 13.667968c-4.308594 1.207032-8.824219-1.328124-10.03125-5.636718l-1.359375-4.851563-7.023438 1.765625c-12.496093 3.144532-21.492187 14.050782-22.207031 26.910156l-9.488281 170.339844c-.414063 7.445313 5.511719 13.707032 12.96875 13.707032h291.761719c7.464843.003906 13.390624-6.261719 12.976562-13.707032zm0 0" fill="#1b87c9"/><path d="m235.179688 126.152344c-.023438 0-.042969.003906-.066407.003906l4.035157 46.433594c11.027343-1.890625 19.429687-11.46875 19.429687-23.035156 0-12.925782-10.476563-23.402344-23.398437-23.402344zm0 0" fill="#fcb275"/><path d="m92.535156 126.167969c-12.785156.160156-23.105468 10.5625-23.105468 23.386719 0 11.324218 8.0625 20.722656 18.746093 22.886718zm0 0" fill="#fcb275"/><path d="m242.28125 113.417969h-158.875c-7.179688 0-13.054688-5.875-13.054688-13.054688v-3.410156c0-7.179687 5.875-13.054687 13.054688-13.054687h158.875c7.179688 0 13.050781 5.875 13.050781 13.054687v3.410156c0 7.179688-5.871093 13.054688-13.050781 13.054688zm0 0" fill="#e8e6e6"/><path d="m92.488281 113.417969c14.464844 11.761719 41.46875 19.679687 72.417969 19.679687 30.953125 0 57.957031-7.917968 72.417969-19.679687zm0 0" fill="#3f3f3f"/><path d="m270.769531 60.050781c-10.882812-21.273437-43.28125-55.050781-106.402343-55.050781-63.121094 0-95.523438 33.777344-106.402344 55.050781-8.582032 16.773438 3.660156 30.910157 12.386718 38.25v-1.347656c0-7.179687 5.875-13.054687 13.054688-13.054687h158.875c7.179688 0 13.050781 5.875 13.050781 13.054687v3.410156c0 .125-.015625.246094-.019531.367188 8.390625-6.253907 25.117188-21.789063 15.457031-40.679688zm0 0" fill="#3f3f3f"/><path d="m234.210938 115.746094c-15.03125 10.464844-40.449219 17.351562-69.304688 17.351562-30.160156 0-56.539062-7.53125-71.25-18.796875l-6.351562 67.429688c-1.191407 12.78125 5.425781 25.410156 14.621093 34.367187l29.753907 28.976563c8.21875 8 19.234374 12.480469 30.707031 12.480469.234375 0 4.582031 0 4.445312 0 11.472657 0 22.488281-4.476563 30.707031-12.480469l29.753907-28.976563c9.195312-8.957031 13.847656-21.585937 12.65625-34.367187zm0 0" fill="#fcb275"/><path d="m251.132812 109.917969c-2.332031 2.160156-5.441406 3.5-8.851562 3.5h-4.957031c-.976563.796875-2.023438 1.570312-3.113281 2.328125l.90625 10.410156h.0625c9.667968 0 17.964843 5.863281 21.53125 14.226562-.070313-10.695312-2.027344-20.953124-5.578126-30.464843zm0 0" fill="#7c292e"/><path d="m83.40625 113.417969c-2.503906 0-4.835938-.726563-6.828125-1.957031-3.148437 8.925781-4.914063 18.476562-5.03125 28.417968 3.644531-8 11.648437-13.59375 20.988281-13.707031l1.117188-11.871094c-.382813-.292969-.796875-.582031-1.164063-.882812zm0 0" fill="#7c292e"/><path d="m93.652344 114.296875.003906.003906zm0 0" fill="#7c292e"/><path d="m110.019531 281.058594-2.515625-8.964844c-1.207031-4.308594-5.71875-6.847656-10.027344-5.636719l-48.757812 13.667969c-4.308594 1.207031-6.847656 5.722656-5.640625 10.027344l2.515625 8.96875c1.207031 4.308594 5.722656 6.84375 10.03125 5.636718l48.757812-13.667968c4.308594-1.207032 6.84375-5.722656 5.636719-10.03125zm0 0" fill="#fcbd4c"/><path d="m216.253906 281.058594 2.515625-8.964844c1.207031-4.308594 5.722657-6.847656 10.03125-5.636719l48.757813 13.667969c4.308594 1.207031 6.84375 5.722656 5.636718 10.027344l-2.515624 8.96875c-1.207032 4.308594-5.71875 6.84375-10.027344 5.636718l-48.757813-13.667968c-4.3125-1.207032-6.847656-5.722656-5.640625-10.03125zm0 0" fill="#fcbd4c"/><path d="m199.5 324.636719 22.371094-33.558594c-4.296875-1.214844-6.820313-5.71875-5.617188-10.019531l2.007813-7.164063-6.503907-3.203125-3.625-1.789062c-1.488281-.734375-2.824218-1.675782-4.003906-2.769532l-33.5 39.988282zm0 0" fill="#30a9e5"/><path d="m106.390625 290.175781 22.976563 34.460938 28.875-18.515625-33.566407-40.0625c-1.195312 1.125-2.554687 2.09375-4.074219 2.84375l-2.671874 1.316406-9.621094 4.742188 1.707031 6.097656c1.007813 3.578125-.59375 7.265625-3.625 9.117187zm0 0" fill="#30a9e5"/><path d="m162.382812 257.554688c-11.46875 0-22.488281-4.480469-30.707031-12.484376l-1.675781-1.632812v10.355469c0 4.722656-1.988281 9.128906-5.324219 12.265625l33.566407 40.0625h12.386718l33.5-39.988282c-3.382812-3.140624-5.390625-7.582031-5.390625-12.339843v-9.890625l-1.203125 1.167968c-8.214844 8.003907-19.234375 12.484376-30.707031 12.484376.136719 0-4.210937 0-4.445313 0zm0 0" fill="#fcb275"/><path d="m170.628906 306.121094h-12.386718l-14.550782 9.332031c1.289063 10.125 9.980469 18.027344 20.445313 18.027344 10.582031 0 19.363281-8.082031 20.5-18.375zm0 0" fill="#3f3f3f"/><path d="m175.253906 330.1875c-3.214844 2.078125-7.027344 3.292969-11.117187 3.292969-4.09375 0-7.90625-1.222657-11.121094-3.300781l-12.933594 137.917968c-.183593 1.742188.425781 3.472656 1.664063 4.710938l18.289062 18.289062c2.265625 2.265625 5.9375 2.265625 8.203125 0l18.285157-18.285156c1.238281-1.238281 1.851562-2.96875 1.667968-4.710938zm0 0" fill="#3f3f3f"/><path d="m240.789062 371.210938h-34.226562c-3.035156 0-5.515625 2.480468-5.515625 5.515624v57.839844c0 3.035156 2.480469 5.519532 5.515625 5.519532h34.226562c3.035157 0 5.515626-2.484376 5.515626-5.519532v-57.839844c.003906-3.03125-2.480469-5.515624-5.515626-5.515624zm0 0" fill="#30a9e5"/><path d="m120.75 371.210938h-34.226562c-3.035157 0-5.519532 2.480468-5.519532 5.515624v57.839844c0 3.035156 2.484375 5.519532 5.519532 5.519532h34.226562c3.035156 0 5.515625-2.484376 5.515625-5.519532v-57.839844c0-3.03125-2.480469-5.515624-5.515625-5.515624zm0 0" fill="#30a9e5"/><path d="m314.132812 330.179688c-14.949218 1.960937-26.5 14.722656-26.5 30.207031 0 16.636719 13.324219 30.136719 29.878907 30.472656zm0 0" fill="#fcbd4c"/><path d="m14.609375 330.097656-3.386719 60.789063c16.808594-.042969 30.425782-13.679688 30.425782-30.5 0-15.671875-11.828126-28.570313-27.039063-30.289063zm0 0" fill="#fcbd4c"/><path d="m174.140625 458.636719-1.332031-5.207031c-.234375-.910157-.933594-1.535157-1.730469-1.535157h-13.421875c-.792969 0-1.492188.625-1.726562 1.535157l-1.332032 5.207031c-.851562 3.320312.519532 6.875 3.175782 8.242187l6.597656 3.398438 6.597656-3.398438c2.652344-1.367187 4.019531-4.921875 3.171875-8.242187zm0 0" fill="#fcbd4c"/><path d="m260.863281 194.972656c-3.6875-8.417968-5.054687-24.320312-5.179687-34.191406-3.371094 6.125-9.394532 10.582031-16.535156 11.808594l.792968 9.140625c1.191406 12.777343-3.460937 25.410156-12.652344 34.363281l-6.714843 6.539062c9.125.839844 18.238281-.0625 26.285156-1.652343 11.835937-2.335938 18.839844-14.957031 14.003906-26.007813zm0 0" fill="#7c292e"/><path d="m81.875 220.980469c8.171875 1.613281 17.441406 2.503906 26.703125 1.59375l-6.65625-6.480469c-9.191406-8.957031-15.8125-21.585938-14.621094-34.367188l.875-9.289062c-6.371093-1.289062-11.792969-5.164062-15.144531-10.476562-.222656 9.777343-1.625 24.941406-5.160156 33.011718-4.832032 11.050782 2.171875 23.671875 14.003906 26.007813zm0 0" fill="#7c292e"/><path d="m182.789062 42.4375-2.679687-10.472656c-.46875-1.835938-1.878906-3.085938-3.476563-3.085938h-26.992187c-1.59375 0-3.003906 1.25-3.476563 3.085938l-2.679687 10.472656c-1.707031 6.675781 1.046875 13.824219 6.382813 16.574219l13.269531 6.835937 13.269531-6.835937c5.335938-2.75 8.089844-9.898438 6.382812-16.574219zm0 0" fill="#fcbd4c"/><g fill="#231f20"><path d="m164.46875 221.84375c-8.679688 0-16.765625-4.296875-21.628906-11.496094-1.546875-2.289062-.945313-5.398437 1.34375-6.945312 2.289062-1.546875 5.394531-.941406 6.941406 1.34375 3.003906 4.445312 7.992188 7.097656 13.34375 7.097656 5.355469 0 10.34375-2.652344 13.347656-7.097656 1.542969-2.289063 4.652344-2.890625 6.941406-1.34375 2.289063 1.546875 2.890626 4.65625 1.34375 6.945312-4.863281 7.195313-12.949218 11.496094-21.632812 11.496094zm0 0"/><path d="m180.96875 154.46875c-1.792969 0-3.519531-.964844-4.417969-2.65625-1.296875-2.4375-.375-5.460938 2.066407-6.761719 2.949218-1.566406 7.390624-2.464843 12.195312-2.464843s9.246094.898437 12.195312 2.464843c2.4375 1.296875 3.363282 4.324219 2.066407 6.761719-1.292969 2.4375-4.324219 3.367188-6.761719 2.066406-1.214844-.644531-4.003906-1.292968-7.5-1.292968s-6.285156.648437-7.5 1.292968c-.75.402344-1.554688.589844-2.34375.589844zm0 0"/><path d="m147.726562 154.46875c-.792968 0-1.59375-.191406-2.339843-.589844-1.214844-.644531-4.003907-1.292968-7.5-1.292968-3.496094 0-6.289063.648437-7.5 1.292968-2.433594 1.296875-5.464844.375-6.761719-2.066406-1.296875-2.4375-.371094-5.464844 2.066406-6.761719 2.949219-1.566406 7.390625-2.464843 12.195313-2.464843 4.800781 0 9.246093.898437 12.191406 2.464843 2.4375 1.296875 3.367187 4.324219 2.070313 6.761719-.902344 1.691406-2.632813 2.652344-4.421876 2.65625zm0 0"/><path d="m138.667969 173.535156c-3.316407 0-6-2.683594-6-6v-1.078125c0-3.3125 2.683593-6 6-6 3.3125 0 6 2.6875 6 6v1.078125c0 3.316406-2.6875 6-6 6zm0 0"/><path d="m190.273438 174.359375c-3.3125 0-6-2.683594-6-6v-1.074219c0-3.316406 2.6875-6 6-6s6 2.683594 6 6v1.074219c0 3.316406-2.6875 6-6 6zm0 0"/><path d="m265.46875 509.207031c-2.761719 0-5-2.238281-5-5v-110.328125c0-2.761718 2.238281-5 5-5s5 2.238282 5 5v110.328125c0 2.757813-2.238281 5-5 5zm0 0"/><path d="m63.265625 509.207031c-2.761719 0-5-2.238281-5-5v-110.328125c0-2.761718 2.238281-5 5-5 2.765625 0 5 2.238282 5 5v110.328125c0 2.757813-2.234375 5-5 5zm0 0"/><path d="m310.25 511.996094h-291.765625c-4.921875 0-9.683594-2.050782-13.066406-5.625-3.382813-3.578125-5.167969-8.449219-4.890625-13.363282l9.484375-170.335937c.84375-15.132813 11.285156-27.785156 25.980469-31.484375l7.023437-1.765625c2.636719-.648437 5.304687.886719 6.035156 3.5l1.359375 4.851563c.226563.792968.753906 1.460937 1.488282 1.875.738281.410156 1.578124.523437 2.378906.292968l48.757812-13.667968c.796875-.222657 1.460938-.75 1.875-1.484376.414063-.738281.519532-1.582031.296875-2.378906l-1.710937-6.097656c-.648438-2.320312.445312-4.769531 2.605468-5.835938l12.292969-6.054687c4.074219-2.015625 6.609375-6.082031 6.609375-10.628906v-10.355469c0-2.007812 1.203125-3.824219 3.054688-4.609375 1.855468-.777344 3.992187-.375 5.433594 1.027344l1.675781 1.632812c7.328125 7.136719 16.992187 11.066407 27.21875 11.066407h4.445312c10.226563 0 19.890625-3.929688 27.214844-11.066407l1.203125-1.171875c1.441406-1.398437 3.582031-1.800781 5.429688-1.019531 1.855468.78125 3.058593 2.59375 3.058593 4.605469v9.890625c0 4.542969 2.53125 8.617187 6.609375 10.625l10.128906 4.992187c2.160157 1.066406 3.253907 3.519532 2.601563 5.835938l-2.007813 7.160156c-.222656.800781-.117187 1.644531.296876 2.378906.414062.734375 1.082031 1.265625 1.875 1.488282l48.757812 13.667968c.800781.222656 1.644531.117188 2.378906-.292968.738282-.414063 1.265625-1.082032 1.488282-1.878907l1.523437-5.429687c.730469-2.609375 3.40625-4.148438 6.035156-3.5l9.320313 2.347656c14.695312 3.699219 25.136718 16.351562 25.980468 31.480469l9.488282 170.339843c.273437 4.914063-1.507813 9.78125-4.894532 13.359376-3.386718 3.578124-8.148437 5.628906-13.070312 5.628906zm-269.515625-211.691406-2.300781.582031c-10.429688 2.625-17.835938 11.601562-18.433594 22.335937l-9.488281 170.339844c-.125 2.214844.648437 4.320312 2.171875 5.933594 1.523437 1.613281 3.585937 2.5 5.804687 2.5h291.761719c2.21875 0 4.28125-.886719 5.804688-2.5 1.523437-1.613282 2.296874-3.71875 2.171874-5.933594l-9.488281-170.339844c-.597656-10.734375-8.003906-19.710937-18.433593-22.335937l-4.601563-1.160157-.207031.742188c-.945313 3.371094-3.15625 6.175781-6.214844 7.898438-3.0625 1.722656-6.609375 2.148437-9.980469 1.203124l-48.753906-13.667968c-3.371094-.941406-6.175781-3.148438-7.898437-6.214844-1.722657-3.0625-2.148438-6.609375-1.203126-9.976562l.882813-3.164063-6.402344-3.15625c-7.300781-3.601563-11.917969-10.789063-12.175781-18.875-7.929688 5.226563-17.222656 8.039063-26.917969 8.039063h-4.445312c-9.886719 0-19.355469-2.921876-27.390625-8.351563-.148438 8.210937-4.785156 15.539063-12.179688 19.1875l-8.570312 4.222656.589844 2.097657c.945312 3.371093.515624 6.914062-1.207032 9.976562-1.722656 3.066406-4.527344 5.273438-7.898437 6.214844l-48.753907 13.667968c-3.367187.945313-6.914062.519532-9.976562-1.203124-3.066406-1.722657-5.273438-4.527344-6.214844-7.898438zm0 0"/><path d="m239.148438 177.589844c-1.097657 0-2.175782-.363282-3.054688-1.042969-1.109375-.855469-1.804688-2.132813-1.925781-3.527344l-4.035157-46.429687c-.121093-1.398438.347657-2.78125 1.296876-3.8125.949218-1.035156 2.285156-1.625 3.6875-1.625h.0625c15.660156 0 28.402343 12.738281 28.402343 28.398437 0 13.863281-9.921875 25.625-23.589843 27.960938-.28125.050781-.566407.078125-.84375.078125zm1.492187-45.609375 2.945313 33.929687c6.011718-3.066406 9.996093-9.289062 9.996093-16.359375-.003906-8.246093-5.453125-15.238281-12.941406-17.570312zm0 0"/><path d="m88.175781 177.441406c-.332031 0-.664062-.035156-.992187-.097656-13.183594-2.671875-22.753906-14.359375-22.753906-27.792969 0-15.457031 12.582031-28.191406 28.042968-28.382812 1.382813-.007813 2.777344.566406 3.742188 1.613281.957031 1.039062 1.433594 2.445312 1.296875 3.855469l-4.359375 46.273437c-.128906 1.414063-.855469 2.703125-1.996094 3.546875-.867188.644531-1.914062.984375-2.980469.984375zm-1.222656-45.304687c-7.261719 2.46875-12.523437 9.375-12.523437 17.414062 0 6.738281 3.722656 12.796875 9.375 15.988281zm0 0"/><path d="m242.28125 118.417969h-158.875c-9.957031 0-18.054688-8.101563-18.054688-18.054688v-3.410156c0-9.957031 8.097657-18.054687 18.054688-18.054687h158.875c9.953125 0 18.050781 8.101562 18.050781 18.054687v3.410156c0 9.953125-8.097656 18.054688-18.050781 18.054688zm-158.875-29.519531c-4.441406 0-8.054688 3.613281-8.054688 8.054687v3.410156c0 4.441407 3.613282 8.050781 8.054688 8.050781h158.875c4.4375 0 8.050781-3.613281 8.050781-8.050781v-3.410156c0-4.441406-3.613281-8.054687-8.050781-8.054687zm0 0"/><path d="m164.90625 138.097656c-31.304688 0-59.554688-7.777344-75.570312-20.800781-1.640626-1.332031-2.265626-3.558594-1.558594-5.550781.707031-1.992188 2.597656-3.324219 4.710937-3.324219h144.835938c2.117187 0 4.003906 1.332031 4.714843 3.324219.707032 1.992187.082032 4.21875-1.558593 5.550781-16.015625 13.023437-44.269531 20.800781-75.574219 20.800781zm-53.929688-19.679687c14.484376 6.125 33.679688 9.679687 53.929688 9.679687 20.246094 0 39.441406-3.554687 53.929688-9.679687zm0 0"/><path d="m255.3125 105.730469c-.789062 0-1.582031-.1875-2.3125-.566407-1.699219-.886718-2.746094-2.675781-2.683594-4.59375.003906-.066406.015625-.292968.019532-.363281v-3.253906c0-4.441406-3.613282-8.054687-8.054688-8.054687h-158.875c-4.441406 0-8.054688 3.613281-8.054688 8.054687v1.347656c0 1.941407-1.125 3.710938-2.890624 4.535157-1.757813.8125-3.839844.542968-5.328126-.710938-16.371093-13.769531-21.210937-29.519531-13.625-44.351562 4.941407-9.648438 33.476563-57.773438 110.859376-57.773438 77.382812 0 105.921874 48.125 110.855468 57.777344 8.082032 15.800781 1.914063 32.921875-16.917968 46.960937-.882813.65625-1.933594.992188-2.992188.992188zm-171.90625-26.832031h158.875c7.773438 0 14.417969 4.945312 16.953125 11.847656 6.929687-7.027344 12.863281-17.117188 7.085937-28.417969-4.472656-8.734375-30.394531-52.328125-101.953124-52.328125-71.558594 0-97.484376 43.59375-101.953126 52.328125-5.125 10.023437-1.078124 19.132813 5.039063 26.179687 3.035156-5.710937 9.046875-9.609374 15.953125-9.609374zm0 0"/><path d="m166.828125 262.554688h-4.445313c-12.847656 0-24.992187-4.9375-34.195312-13.902344l-29.753906-28.976563c-11.304688-11.011719-17.328125-25.371093-16.113282-38.410156l6.355469-67.4375c.167969-1.808594 1.308594-3.382813 2.976563-4.113281 1.671875-.726563 3.597656-.492188 5.042968.613281 14.304688 10.960937 40.445313 17.769531 68.210938 17.769531 26.804688 0 51.644531-6.152344 66.445312-16.453125 1.464844-1.023437 3.359376-1.183593 4.976563-.425781s2.707031 2.316406 2.863281 4.09375l5.730469 65.984375c1.335937 14.320313-3.820313 28.320313-14.144531 38.378906l-29.753906 28.976563c-9.203126 8.964844-21.347657 13.902344-34.195313 13.902344zm-68.976563-139.503907-5.570312 59.148438c-.941406 10.054687 3.96875 21.390625 13.128906 30.3125l29.753906 28.976562c7.328126 7.132813 16.992188 11.0625 27.21875 11.0625h4.445313c10.222656 0 19.890625-3.929687 27.214844-11.0625l29.753906-28.976562c8.152344-7.941407 12.21875-18.992188 11.164063-30.316407l-5.039063-58.007812c-16.53125 8.792969-40.101563 13.90625-65.019531 13.90625-26.179688.003906-50.472656-5.53125-67.050782-15.042969zm0 0"/><path d="m256.707031 145.382812c-1.96875 0-3.796875-1.167968-4.59375-3.039062-2.902343-6.796875-9.546875-11.191406-16.933593-11.191406-2.59375 0-4.820313-1.980469-5.046876-4.5625l-.90625-10.410156c-.15625-1.785157.65625-3.515626 2.125-4.539063 1.066407-.742187 1.988282-1.433594 2.820313-2.105469.890625-.726562 2.003906-1.121094 3.152344-1.121094h4.957031c2.007812 0 3.945312-.769531 5.449219-2.167968 1.222656-1.132813 2.933593-1.582032 4.554687-1.199219 1.621094.386719 2.945313 1.554687 3.527344 3.117187 3.839844 10.273438 5.824219 21.101563 5.898438 32.183594.015624 2.378906-1.652344 4.441406-3.984376 4.925782-.339843.078124-.679687.109374-1.019531.109374zm-16.976562-23.855468c3.800781.617187 7.382812 1.984375 10.5625 3.980468-.511719-2.75-1.164063-5.464843-1.949219-8.148437-1.929688.695313-3.976562 1.058594-6.0625 1.058594h-2.820312zm0 0"/><path d="m71.546875 144.878906c-.363281 0-.726563-.039062-1.089844-.121094-2.308593-.519531-3.941406-2.578124-3.910156-4.941406.125-10.277344 1.914063-20.375 5.316406-30.023437.503907-1.425781 1.625-2.550781 3.054688-3.054688 1.425781-.5 3.003906-.332031 4.292969.464844 1.277343.792969 2.730468 1.210937 4.195312 1.210937h9.082031c1.148438 0 2.261719.394532 3.152344 1.117188.167969.136719.347656.269531.527344.402344l.53125.390625c1.363281 1.046875 2.097656 2.726562 1.933593 4.441406l-1.117187 11.867187c-.238281 2.546876-2.359375 4.5-4.917969 4.53125-7.078125.089844-13.554687 4.324219-16.5 10.789063-.828125 1.8125-2.625 2.925781-4.550781 2.925781zm8.183594-26.84375c-.691407 2.421875-1.269531 4.875-1.738281 7.351563 3.027343-1.863281 6.402343-3.164063 9.953124-3.792969l.296876-3.175781h-4.835938c-1.242188 0-2.472656-.128907-3.675781-.382813zm0 0"/><path d="m53.421875 311.0625c-2.390625 0-4.765625-.617188-6.914063-1.824219-3.296874-1.851562-5.671874-4.871093-6.691406-8.5l-2.511718-8.964843c-2.105469-7.5 2.289062-15.320313 9.792968-17.425782l48.757813-13.667968c7.503906-2.101563 15.324219 2.292968 17.425781 9.792968l2.515625 8.96875c1.015625 3.625.554687 7.4375-1.296875 10.734375s-4.871094 5.675781-8.5 6.691407l-48.757812 13.667968c-1.257813.351563-2.542969.527344-3.820313.527344zm46.230469-38.90625c-.1875 0-.371094.027344-.558594.078125l-48.757812 13.667969c-1.113282.3125-1.789063 1.519531-1.476563 2.628906l2.511719 8.96875c.203125.726562.722656 1.113281 1.015625 1.277344.289062.164062.886719.414062 1.613281.203125l48.761719-13.667969c.726562-.207031 1.113281-.722656 1.277343-1.015625.164063-.289063.40625-.886719.203126-1.617187l-2.515626-8.96875c-.257812-.925782-1.144531-1.554688-2.074218-1.554688zm0 0"/><path d="m272.851562 311.0625c-1.277343 0-2.5625-.175781-3.824218-.527344l-48.753906-13.667968c-3.625-1.015626-6.644532-3.390626-8.5-6.691407-1.855469-3.296875-2.3125-7.109375-1.296876-10.734375l2.515626-8.96875c2.105468-7.5 9.917968-11.886718 17.425781-9.792968l48.757812 13.667968c7.503907 2.105469 11.898438 9.925782 9.796875 17.429688l-2.515625 8.960937c-1.015625 3.628907-3.390625 6.648438-6.691406 8.5-2.148437 1.210938-4.519531 1.824219-6.914063 1.824219zm-46.230468-38.90625c-.929688 0-1.816406.625-2.074219 1.554688l-2.515625 8.96875c-.207031.726562.039062 1.328124.203125 1.617187.164063.292969.546875.808594 1.277344 1.015625l48.757812 13.667969c.730469.207031 1.328125-.039063 1.621094-.203125.289063-.164063.808594-.546875 1.011719-1.277344l2.515625-8.964844c.3125-1.117187-.367188-2.320312-1.484375-2.632812l-48.753906-13.667969c-.1875-.050781-.371094-.078125-.558594-.078125zm-10.367188 8.902344h.023438zm0 0"/><path d="m199.496094 329.636719c-.925782 0-1.859375-.253907-2.695313-.789063l-28.875-18.519531c-1.207031-.773437-2.023437-2.03125-2.242187-3.453125-.21875-1.417969.1875-2.863281 1.109375-3.964844l33.5-39.988281c.878906-1.050781 2.15625-1.695313 3.519531-1.78125 1.378906-.078125 2.714844.390625 3.714844 1.324219.855468.796875 1.804687 1.453125 2.816406 1.957031l10.128906 4.988281c2.160156 1.066406 3.253906 3.519532 2.601563 5.835938l-2.007813 7.160156c-.464844 1.660156.507813 3.390625 2.167969 3.863281 1.539063.4375 2.773437 1.582031 3.328125 3.082031.550781 1.5.355469 3.171876-.53125 4.503907l-22.375 33.554687c-.957031 1.445313-2.542969 2.226563-4.160156 2.226563zm-21.386719-24.65625 19.957031 12.796875 16.792969-25.1875c-3.277344-3.25-4.746094-8.136719-3.417969-12.878906l.886719-3.164063-6.40625-3.160156c-.316406-.15625-.628906-.320313-.9375-.492188zm0 0"/><path d="m129.371094 329.636719c-1.617188 0-3.203125-.78125-4.164063-2.226563l-22.976562-34.460937c-.753907-1.132813-1.015625-2.523438-.722657-3.851563.296876-1.328125 1.117188-2.480468 2.277344-3.191406 1.207032-.734375 1.789063-2.171875 1.417969-3.496094l-1.707031-6.097656c-.652344-2.320312.445312-4.769531 2.601562-5.835938l12.292969-6.054687c1.019531-.507813 1.984375-1.183594 2.863281-2.007813 1-.941406 2.339844-1.417968 3.722656-1.347656 1.371094.082032 2.652344.726563 3.535157 1.78125l33.5625 40.0625c.921875 1.105469 1.324219 2.546875 1.109375 3.96875-.214844 1.417969-1.035156 2.675782-2.242188 3.453125l-28.875 18.515625c-.835937.535156-1.769531.789063-2.695312.789063zm-16.519532-38.785157 17.953126 26.925782 19.957031-12.796875-26.917969-32.132813c-.339844.191406-.679688.371094-1.027344.542969l-8.570312 4.222656.589844 2.097657c1.085937 3.882812.277343 7.972656-1.984376 11.140624zm0 0"/><path d="m170.628906 311.121094h-12.386718c-1.480469 0-2.882813-.652344-3.835938-1.789063l-33.5625-40.0625c-1.699219-2.035156-1.519531-5.042969.410156-6.859375 2.382813-2.234375 3.746094-5.375 3.746094-8.621094v-10.355468c0-2.007813 1.207031-3.824219 3.058594-4.609375 1.851562-.777344 3.992187-.375 5.429687 1.027343l1.679688 1.632813c7.324219 7.136719 16.988281 11.066406 27.214843 11.066406h4.449219c10.222657 0 19.886719-3.929687 27.210938-11.066406l1.203125-1.171875c1.441406-1.398438 3.582031-1.800781 5.433594-1.019531 1.851562.78125 3.054687 2.59375 3.054687 4.605469v9.890624c0 3.273438 1.382813 6.4375 3.796875 8.675782 1.949219 1.808594 2.140625 4.832031.429688 6.875l-33.5 39.988281c-.953126 1.140625-2.351563 1.792969-3.832032 1.792969zm-10.054687-10h7.71875l29.292969-34.964844c-2.347657-3.417969-3.699219-7.464844-3.839844-11.640625-7.929688 5.226563-17.222656 8.039063-26.917969 8.039063h-4.445313c-9.886718 0-19.351562-2.921876-27.386718-8.351563-.082032 4.246094-1.421875 8.375-3.789063 11.863281zm0 0"/><path d="m164.136719 338.480469c-12.855469 0-23.777344-9.625-25.40625-22.390625-.246094-1.914063.636719-3.800782 2.257812-4.84375l14.550781-9.332032c.804688-.515624 1.742188-.792968 2.699219-.792968h12.386719c.957031 0 1.894531.277344 2.699219.792968l14.007812 8.980469c1.597657 1.027344 2.476563 2.871094 2.269531 4.757813-1.429687 13.011718-12.378906 22.828125-25.464843 22.828125zm-14.8125-20.699219c2.085937 6.269531 8.003906 10.699219 14.8125 10.699219 6.964843 0 12.941406-4.5625 14.925781-11.007813l-9.902344-6.347656h-9.453125zm0 0"/><path d="m164.136719 497.789062c-2.765625 0-5.53125-1.050781-7.636719-3.15625l-18.289062-18.289062c-2.316407-2.316406-3.449219-5.515625-3.101563-8.773438l12.929687-137.859374c.164063-1.738282 1.222657-3.269532 2.792969-4.03125 1.574219-.765626 3.429688-.648438 4.898438.296874 5.054687 3.269532 11.757812 3.265626 16.808593.003907 1.46875-.945313 3.324219-1.058594 4.894532-.292969 1.574218.761719 2.632812 2.289062 2.796875 4.03125l12.933593 137.910156c.339844 3.199219-.789062 6.398438-3.109374 8.714844l-18.289063 18.285156c-2.101563 2.109375-4.867187 3.160156-7.628906 3.160156zm-6.789063-160.234374-12.289062 131.007812c-.03125.300781.054687.542969.226562.710938l18.285156 18.289062c.3125.308594.820313.308594 1.132813-.003906l18.285156-18.285156c.171875-.171876.257813-.410157.230469-.648438l-12.292969-131.070312c-4.398437 1.222656-9.175781 1.226562-13.578125 0zm0 0"/><path d="m240.789062 445.089844h-34.226562c-5.800781 0-10.519531-4.71875-10.519531-10.519532v-57.84375c0-5.796874 4.71875-10.515624 10.519531-10.515624h34.226562c5.796876 0 10.515626 4.714843 10.515626 10.515624v57.84375c.003906 5.800782-4.714844 10.519532-10.515626 10.519532zm-34.226562-68.878906c-.269531 0-.515625.246093-.515625.515624v57.84375c0 .277344.242187.519532.515625.519532h34.230469c.273437 0 .515625-.242188.515625-.519532v-57.84375c0-.269531-.246094-.515624-.515625-.515624zm0 0"/><path d="m240.789062 401.792969h-34.226562c-2.761719 0-5-2.238281-5-5s2.238281-5 5-5h34.226562c2.761719 0 5 2.238281 5 5s-2.238281 5-5 5zm0 0"/><path d="m120.75 445.089844h-34.226562c-5.800782 0-10.519532-4.71875-10.519532-10.519532v-57.84375c0-5.796874 4.71875-10.515624 10.519532-10.515624h34.226562c5.796875 0 10.515625 4.714843 10.515625 10.515624v57.84375c0 5.800782-4.71875 10.519532-10.515625 10.519532zm-34.226562-68.878906c-.273438 0-.519532.246093-.519532.515624v57.84375c0 .277344.242188.519532.519532.519532h34.226562c.277344 0 .515625-.242188.515625-.519532v-57.84375c0-.269531-.246094-.515624-.515625-.515624zm0 0"/><path d="m120.75 401.792969h-34.226562c-2.765626 0-5-2.238281-5-5s2.234374-5 5-5h34.226562c2.761719 0 5 2.238281 5 5s-2.238281 5-5 5zm0 0"/><path d="m317.511719 395.859375c-.03125 0-.066407 0-.101563 0-19.175781-.390625-34.777344-16.300781-34.777344-35.472656 0-17.738281 13.261719-32.855469 30.847657-35.164063 1.386719-.1875 2.773437.21875 3.84375 1.105469 1.070312.890625 1.722656 2.183594 1.800781 3.574219l3.378906 60.683594c.078125 1.386718-.429687 2.746093-1.394531 3.75-.941406.972656-2.242187 1.523437-3.597656 1.523437zm-8.039063-59.433594c-9.894531 3.578125-16.839844 13.082031-16.839844 23.960938 0 11.902343 8.378907 22.058593 19.554688 24.769531zm0 0"/><path d="m11.21875 395.886719c-1.371094 0-2.683594-.566407-3.628906-1.5625-.945313-.996094-1.4375-2.34375-1.363282-3.714844l3.386719-60.792969c.078125-1.375.714844-2.65625 1.765625-3.539062 1.050782-.886719 2.425782-1.300782 3.789063-1.148438 17.945312 2.027344 31.476562 17.1875 31.476562 35.257813 0 19.527343-15.886719 35.457031-35.414062 35.5-.003907 0-.007813 0-.011719 0zm8.054688-59.671875-2.734376 49.097656c11.472657-2.484375 20.105469-12.726562 20.105469-24.925781.003907-11.15625-7.171875-20.765625-17.371093-24.171875zm0 0"/><path d="m164.367188 475.277344c-.785157 0-1.570313-.183594-2.292969-.554688l-6.597657-3.398437c-4.753906-2.453125-7.164062-8.304688-5.726562-13.925781l1.335938-5.207032c.796874-3.117187 3.5-5.292968 6.570312-5.292968h13.421875c3.070313 0 5.773437 2.175781 6.570313 5.292968l1.335937 5.207032v.003906c1.433594 5.617187-.972656 11.472656-5.730469 13.921875l-6.59375 3.402343c-.71875.367188-1.507812.550782-2.292968.550782zm-4.164063-18.382813-.761719 2.980469c-.316406 1.226562.222656 2.351562.617188 2.554688l4.308594 2.21875 4.304687-2.21875c.398437-.203126.9375-1.328126.625-2.554688l-.765625-2.980469zm0 0"/><path d="m227.722656 227.953125c-2.589844 0-5.128906-.113281-7.605468-.339844-1.945313-.179687-3.609376-1.472656-4.257813-3.3125-.652344-1.835937-.175781-3.886719 1.222656-5.25l6.714844-6.539062c8.152344-7.941407 12.21875-18.988281 11.164063-30.316407l-.796876-9.175781c-.222656-2.589843 1.574219-4.921875 4.140626-5.359375 5.53125-.949218 10.269531-4.335937 13-9.289062 1.09375-1.992188 3.390624-2.992188 5.59375-2.441406 2.203124.550781 3.753906 2.515624 3.785156 4.789062.132812 10.601562 1.679687 25.214844 4.757812 32.25 2.859375 6.53125 2.585938 13.933594-.75 20.3125-3.4375 6.574219-9.582031 11.167969-16.863281 12.605469-6.976563 1.375-13.707031 2.066406-20.105469 2.066406zm16.773438-51.589844.425781 4.9375c1.253906 13.453125-3.21875 26.625-12.328125 36.507813 4.277344-.25 8.722656-.828125 13.296875-1.734375 4.289063-.84375 7.914063-3.546875 9.9375-7.421875 1.921875-3.679688 2.089844-7.933594.453125-11.671875-2.628906-6.007813-4.191406-15.265625-4.972656-24.0625-2.09375 1.445312-4.382813 2.605469-6.8125 3.445312zm0 0"/><path d="m100.941406 227.941406c-6.386718 0-13.097656-.6875-20.035156-2.054687-7.277344-1.4375-13.425781-6.03125-16.863281-12.601563-3.332031-6.382812-3.609375-13.789062-.75-20.316406 2.941406-6.714844 4.5-20.464844 4.738281-31.117188.050781-2.207031 1.539062-4.117187 3.664062-4.707031 2.128907-.585937 4.386719.289063 5.5625 2.152344 2.683594 4.246094 7.023438 7.253906 11.910157 8.242187 2.507812.507813 4.226562 2.824219 3.984375 5.371094l-.875 9.289063c-.9375 10.058593 3.972656 21.390625 13.132812 30.3125l6.65625 6.480469c1.394532 1.359374 1.875 3.402343 1.230469 5.238281-.644531 1.835937-2.296875 3.132812-4.230469 3.320312-2.644531.257813-5.355468.390625-8.125.390625zm-18.101562-11.867187c4.742187.9375 9.34375 1.519531 13.777344 1.75-10.128907-10.734375-15.441407-24.234375-14.292969-36.558594l.488281-5.1875c-1.90625-.722656-3.730469-1.652344-5.4375-2.765625-.691406 7.597656-2.089844 17.203125-4.917969 23.664062-1.636719 3.738282-1.472656 7.992188.449219 11.671876 2.023438 3.875 5.644531 6.578124 9.933594 7.425781zm0 0"/><path d="m163.136719 70.851562c-.785157 0-1.570313-.1875-2.289063-.554687l-13.269531-6.839844c-7.367187-3.800781-11.207031-13.367187-8.933594-22.253906l2.679688-10.476563c1.03125-4.03125 4.453125-6.847656 8.320312-6.847656h26.992188c3.863281 0 7.285156 2.816406 8.320312 6.847656l2.679688 10.472657c2.273437 8.890625-1.566407 18.457031-8.933594 22.257812l-13.273437 6.839844c-.71875.367187-1.507813.554687-2.292969.554687zm-12.300781-36.972656-2.507813 9.796875c-1.125 4.417969.554687 9.199219 3.832031 10.890625l10.976563 5.65625 10.980469-5.660156c3.277343-1.6875 4.957031-6.46875 3.828124-10.882812 0 0 0 0 0-.003907l-2.503906-9.796875zm0 0"/></g><path d="m242.632812 337.757812h-37.914062c-2.027344 0-3.671875 1.640626-3.671875 3.671876v10.363281c0 2.027343 1.644531 3.675781 3.671875 3.675781h37.914062c2.027344 0 3.675782-1.644531 3.675782-3.675781v-10.363281c0-2.027344-1.644532-3.671876-3.675782-3.671876zm0 0" fill="#e04e36"/><path d="m242.632812 360.46875h-37.914062c-4.785156 0-8.675781-3.890625-8.675781-8.675781v-10.363281c0-4.785157 3.890625-8.671876 8.675781-8.671876h37.914062c4.78125 0 8.671876 3.886719 8.671876 8.671876v10.363281c.003906 4.785156-3.890626 8.675781-8.671876 8.675781zm-36.585937-10h35.261719v-7.710938h-35.261719zm36.585937-7.710938h.019532zm0 0" fill="#231f20"/></svg>