<svg height="512pt" viewBox="-88 0 512 512" width="512pt" xmlns="http://www.w3.org/2000/svg"><path d="m262.960938 171.917969v-18.242188c-2.519532 11.84375-12.257813 21.003907-24.402344 22.660157v8.96875c0 12.378906-3.675782 23.882812-9.953125 33.539062l.964843-.328125c19.964844-6.777344 33.390626-25.515625 33.390626-46.597656zm0 0" fill="#7c292e"/><path d="m233.03125 110.519531c-10.085938-3.519531-23.578125-12.328125-31.574219-34.308593-.582031-1.59375-2.710937-1.902344-3.730469-.542969-6.691406 8.894531-8.910156 28.492187-49.675781 36.257812-35.023437 6.671875-54.433593 29.160157-53.328125 50.542969v22.839844c0 34.070312 27.621094 61.6875 61.691406 61.6875h20.457032c34.070312 0 61.6875-27.617188 61.6875-61.6875v-67.105469c0-3.484375-2.238282-6.539063-5.527344-7.683594zm0 0" fill="#fcb275"/><path d="m104.6875 218.847656c-6.28125-9.65625-9.960938-21.160156-9.960938-33.539062v-22.839844c-1.105468-21.382812 18.304688-43.875 53.328126-50.546875 40.753906-7.761719 42.980468-27.351563 49.667968-36.25 1.023438-1.363281 3.15625-1.054687 3.738282.546875 8 21.972656 21.488281 30.78125 31.570312 34.296875 3.292969 1.148437 5.527344 4.199219 5.527344 7.6875v.714844c12.148437 1.65625 21.886718 10.816406 24.402344 22.660156v-36.742187c0-60.953126-23.535157-90.113282-62.796876-89.675782-7.394531-6.269531-19.058593-10.15625-32.671874-10.15625-64.152344 0-95.464844 47.324219-95.464844 99.832032v67.664062c0 20.796875 13.074218 39.351562 32.660156 46.347656zm0 0" fill="#7c292e"/><path d="m330.625 492.945312-9.726562-174.574218c-.734376-13.179688-9.953126-24.355469-22.757813-27.578125l-41.773437-10.515625c-7.25-1.824219-14.417969-3.941406-21.492188-6.347656l-18.480469-9.113282-3.71875-1.832031c-5.898437-2.90625-9.632812-8.910156-9.632812-15.488281v-6.324219c-7.945313 3.730469-16.8125 5.824219-26.175781 5.824219h-20.457032c-8.441406 0-16.484375-1.699219-23.8125-4.769532v5.273438c0 6.574219-3.734375 12.578125-9.632812 15.488281l-2.738282 1.351563-18.390624 9.066406c-7.785157 2.757812-15.699219 5.148438-23.710938 7.164062l-40.625 10.226563c-12.804688 3.222656-22.027344 14.398437-22.761719 27.582031l-9.722656 174.574219c-.421875 7.632813 5.648437 14.050781 13.289063 14.050781h299.023437c7.648437-.003906 13.71875-6.425781 13.296875-14.058594zm0 0" fill="#1b87c9"/><path d="m238.558594 118.921875v57.414063c14.148437-1.933594 25.058594-14.03125 25.058594-28.710938 0-14.675781-10.910157-26.773438-25.058594-28.703125zm0 0" fill="#fcb275"/><path d="m330.625 492.945312-9.726562-174.574218c-.734376-13.179688-9.953126-24.355469-22.757813-27.578125l-41.773437-10.515625c-7.25-1.824219-14.417969-3.941406-21.492188-6.347656l-18.480469-9.113282-1.984375-.972656-6.363281 50.292969c3.371094-.765625 7.050781.046875 9.816406 2.535156l9.347657 8.417969c4.523437 4.070312 4.890624 11.035156.820312 15.558594-2.175781 2.417968-5.179688 3.648437-8.195312 3.648437-2.625 0-5.261719-.933594-7.363282-2.828125l-7.078125-6.367188-15.878906 125.511719h66.945313c12.261718 0 22.292968 10.03125 22.292968 22.292969v24.09375h38.582032c7.640624 0 13.710937-6.421875 13.289062-14.054688zm0 0" fill="#3f3f3f"/><path d="m130.261719 335.1875-7.085938 6.378906c-2.105469 1.898438-4.738281 2.828125-7.367187 2.828125-3.015625 0-6.019532-1.230469-8.191406-3.644531-4.070313-4.523438-3.707032-11.488281.820312-15.5625l9.347656-8.414062c2.769532-2.496094 6.449219-3.304688 9.828125-2.535157l-6.378906-50.398437-1.984375.976562-18.476562 9.113282c-7.074219 2.40625-14.246094 4.523437-21.492188 6.347656l-41.777344 10.511718c-12.800781 3.222657-22.023437 14.398438-22.757812 27.582032l-9.722656 174.574218c-.425782 7.628907 5.644531 14.050782 13.289062 14.050782h38.582031v-24.09375c0-12.261719 10.035157-22.292969 22.296875-22.292969h66.945313zm0 0" fill="#3f3f3f"/><path d="m247.011719 349.5625c1.039062-.847656 1.554687-2.179688 1.359375-3.507812l-10.410156-71.144532c-1.027344-.335937-2.066407-.628906-3.085938-.976562l-18.480469-9.113282-1.984375-.976562-6.363281 50.292969c3.371094-.761719 7.050781.046875 9.816406 2.539062l9.347657 8.414063c4.523437 4.070312 4.890624 11.039062.820312 15.5625-2.175781 2.414062-5.179688 3.644531-8.195312 3.644531-2.625 0-5.261719-.933594-7.363282-2.828125l-7.078125-6.367188-15.878906 125.511719h32.148437l18.378907-57.636719c.273437-.855468.234375-1.78125-.105469-2.613281l-12.785156-31.046875c-.640625-1.550781-.1875-3.34375 1.113281-4.410156zm0 0" fill="#515050"/><path d="m130.261719 335.1875-7.085938 6.378906c-2.105469 1.898438-4.738281 2.828125-7.367187 2.828125-3.015625 0-6.019532-1.230469-8.191406-3.644531-4.070313-4.523438-3.707032-11.488281.820312-15.5625l9.347656-8.414062c2.769532-2.496094 6.449219-3.304688 9.828125-2.535157l-6.378906-50.398437-1.984375.976562-18.476562 9.113282c-1.023438.347656-2.0625.640624-3.085938.976562l-10.414062 71.144531c-.195313 1.328125.324218 2.660157 1.359374 3.507813l18.75 15.339844c1.304688 1.066406 1.753907 2.859374 1.113282 4.410156l-12.785156 31.046875c-.339844.832031-.378907 1.753906-.105469 2.613281l18.378906 57.636719h32.148437zm0 0" fill="#515050"/><path d="m203.046875 247.496094v-6.324219c-7.949219 3.730469-16.816406 5.824219-26.175781 5.824219h-20.457032c-8.441406 0-16.488281-1.699219-23.816406-4.769532v5.273438c0 6.574219-3.734375 12.578125-9.632812 15.488281l-1.289063.636719 39.976563 47.722656h12.960937l39.792969-47.503906-1.734375-.859375c-5.894531-2.910156-9.625-8.914063-9.625-15.488281zm0 0" fill="#fcb275"/><path d="m202.300781 317.488281c1.578125-1.757812 3.601563-2.867187 5.746094-3.355469l6.363281-50.292968-39.796875 47.503906 25.179688 16.144531c-.839844-3.421875-.027344-7.183593 2.507812-10zm0 0" fill="#30a9e5"/><path d="m133.34375 317.589844c2.628906 2.925781 3.378906 6.859375 2.378906 10.382812l25.929688-16.628906-39.976563-47.722656-.445312.21875 6.378906 50.394531c2.140625.492187 4.15625 1.601563 5.734375 3.355469zm0 0" fill="#30a9e5"/><path d="m219.835938 344.296875c-2.625 0-5.261719-.933594-7.367188-2.828125l-9.347656-8.417969c-4.523438-4.070312-4.890625-11.035156-.820313-15.5625 4.066407-4.519531 11.039063-4.886719 15.558594-.816406l9.351563 8.417969c4.523437 4.070312 4.890624 11.035156.816406 15.558594-2.171875 2.417968-5.175782 3.648437-8.191406 3.648437zm0 0" fill="#e8e6e6"/><path d="m115.808594 344.394531c2.625 0 5.261718-.929687 7.367187-2.828125l9.347657-8.414062c4.523437-4.074219 4.890624-11.039063.820312-15.5625-4.066406-4.523438-11.039062-4.890625-15.558594-.816406l-9.351562 8.414062c-4.523438 4.074219-4.890625 11.039062-.816406 15.5625 2.171874 2.414062 5.175781 3.644531 8.191406 3.644531zm0 0" fill="#e8e6e6"/><path d="m278.75 507v-24.09375c0-12.261719-10.03125-22.292969-22.292969-22.292969h-177.269531c-12.261719 0-22.296875 10.03125-22.296875 22.292969v24.09375zm0 0" fill="#683728"/><g fill="#231f20"><path d="m203.828125 142.40625c-.792969 0-1.597656-.1875-2.347656-.589844-1.195313-.632812-3.953125-1.277344-7.414063-1.277344-3.460937 0-6.21875.640626-7.417968 1.28125-2.4375 1.296876-5.460938.375-6.761719-2.0625-1.296875-2.441406-.375-5.464843 2.0625-6.765624 2.929687-1.558594 7.347656-2.453126 12.117187-2.453126 4.773438 0 9.1875.894532 12.117188 2.453126 2.4375 1.296874 3.359375 4.328124 2.058594 6.765624-.894532 1.6875-2.628907 2.648438-4.414063 2.648438zm0 0"/><path d="m131.816406 142.40625c-1.789062 0-3.519531-.960938-4.417968-2.648438-1.296876-2.4375-.375-5.464843 2.0625-6.765624 2.925781-1.558594 7.34375-2.453126 12.117187-2.453126 4.769531 0 9.1875.894532 12.117187 2.453126 2.4375 1.296874 3.359376 4.324218 2.0625 6.765624-1.296874 2.4375-4.328124 3.359376-6.765624 2.0625-1.195313-.636718-3.953126-1.28125-7.414063-1.28125s-6.21875.640626-7.414063 1.277344c-.75.402344-1.554687.589844-2.347656.589844zm0 0"/><path d="m142.355469 161.324219c-3.3125 0-6-2.6875-6-6v-1.066407c0-3.316406 2.6875-6 6-6s6 2.683594 6 6v1.066407c0 3.3125-2.6875 6-6 6zm0 0"/><path d="m193.53125 162.140625c-3.3125 0-6-2.683594-6-6v-1.066406c0-3.3125 2.6875-6 6-6 3.316406 0 6 2.6875 6 6v1.066406c0 3.316406-2.683594 6-6 6zm0 0"/><path d="m176.871094 251.996094h-20.460938c-36.773437 0-66.6875-29.917969-66.6875-66.691406v-22.710938c-1.261718-26.058594 22.316406-48.902344 57.394532-55.582031 30.859374-5.878907 37.683593-18.550781 42.667968-27.800781 1.273438-2.363282 2.476563-4.597657 3.945313-6.550782 1.582031-2.097656 4.164062-3.15625 6.773437-2.773437 2.589844.386719 4.757813 2.15625 5.648438 4.617187 7.355468 20.207032 19.570312 28.171875 28.523437 31.292969 5.3125 1.855469 8.882813 6.839844 8.882813 12.410156v67.101563c0 36.769531-29.914063 66.6875-66.6875 66.6875zm22.0625-168.675782c-.113282.210938-.226563.417969-.339844.628907-5.605469 10.402343-14.066406 26.117187-49.605469 32.886719-25.394531 4.835937-50.476562 21.972656-49.269531 45.375.003906.085937.003906.171874.003906.257812v22.835938c0 31.257812 25.433594 56.691406 56.691406 56.691406h20.457032c31.257812 0 56.691406-25.433594 56.691406-56.691406v-67.097657c0-1.339843-.855469-2.507812-2.175781-2.96875-10.132813-3.53125-23.597657-11.945312-32.453125-31.917969zm0 0"/><path d="m104.683594 223.847656c-.558594 0-1.128906-.09375-1.679688-.292968-21.519531-7.6875-35.976562-28.203126-35.976562-51.054688v-67.664062c0-52.183594 31.066406-104.835938 100.464844-104.835938 13.507812 0 25.925781 3.683594 34.425781 10.160156 17.058593.183594 31.191406 5.699219 42.023437 16.40625 15.941406 15.765625 24.023438 42.097656 24.023438 78.269532v36.746093c0 2.558594-1.933594 4.707031-4.476563 4.972657-2.566406.257812-4.878906-1.429688-5.414062-3.933594-2.097657-9.851563-10.207031-17.386719-20.1875-18.75-2.480469-.335938-4.324219-2.453125-4.324219-4.953125v-.714844c0-1.339844-.855469-2.503906-2.175781-2.964844-10.128907-3.535156-23.597657-11.945312-32.453125-31.917969-.113282.207032-.226563.417969-.339844.628907-5.601562 10.398437-14.0625 26.117187-49.605469 32.886719-25.394531 4.835937-50.476562 21.972656-49.269531 45.375.003906.085937.003906.171874.003906.257812v22.835938c0 10.953124 3.164063 21.605468 9.152344 30.8125 1.171875 1.796874 1.0625 4.144531-.265625 5.828124-.96875 1.226563-2.425781 1.902344-3.925781 1.902344zm62.808594-213.847656c-41.730469 0-90.464844 24.839844-90.464844 94.835938v67.664062c0 13.488281 6.179687 25.980469 16.242187 34.226562-2.335937-6.859374-3.542969-14.082031-3.542969-21.421874v-22.710938c-1.261718-26.054688 22.316407-48.902344 57.394532-55.582031 30.859375-5.878907 37.6875-18.550781 42.667968-27.800781 1.269532-2.359376 2.472657-4.589844 3.9375-6.539063 1.578126-2.101563 4.164063-3.167969 6.773438-2.78125 2.59375.382813 4.761719 2.152344 5.660156 4.613281 7.355469 20.207032 19.566406 28.171875 28.519532 31.292969 4.171874 1.457031 7.269531 4.839844 8.40625 8.921875 5.648437 1.457031 10.75 4.328125 14.878906 8.234375v-18.117187c0-33.402344-7.085938-57.34375-21.054688-71.15625-9.078125-8.976563-21.144531-13.527344-35.878906-13.527344-.269531 0-.539062 0-.808594.003906-.019531 0-.039062 0-.054687 0-1.183594 0-2.332031-.417969-3.234375-1.183594-6.730469-5.699218-17.460938-8.972656-29.441406-8.972656zm0 0"/><path d="m228.605469 223.847656c-1.511719 0-2.980469-.691406-3.949219-1.933594-1.304688-1.679687-1.40625-4.007812-.242188-5.792968 5.980469-9.207032 9.144532-19.863282 9.144532-30.8125v-8.96875c0-2.5 1.847656-4.617188 4.324218-4.957032 9.980469-1.363281 18.09375-8.898437 20.1875-18.75.535157-2.5 2.847657-4.183593 5.414063-3.929687 2.546875.265625 4.476563 2.414063 4.476563 4.972656v18.242188c0 23.234375-14.78125 43.867187-36.785157 51.335937l-.960937.324219c-.527344.183594-1.070313.269531-1.609375.269531zm14.953125-43.441406v4.898438c0 7.703124-1.328125 15.28125-3.898438 22.441406 11.191406-8.089844 18.175782-21.140625 18.300782-35.445313-4.011719 3.796875-8.941407 6.621094-14.402344 8.105469zm0 0"/><path d="m317.332031 512h-299.023437c-5.082032 0-9.804688-2.035156-13.296875-5.726562-3.449219-3.640626-5.261719-8.597657-4.9843752-13.601563l9.7226562-174.574219c.863281-15.457031 11.527344-28.378906 26.535156-32.152344l40.625-10.226562c7.730469-1.945312 15.464844-4.277344 22.984375-6.929688l20.859375-10.289062c4.222656-2.078125 6.847656-6.292969 6.847656-11.003906v-5.269532c0-1.675781.835938-3.238281 2.226563-4.164062 1.394531-.929688 3.160156-1.09375 4.703125-.449219 6.941406 2.90625 14.300781 4.378907 21.882812 4.378907h20.457032c8.394531 0 16.484375-1.796876 24.046875-5.351563 1.550781-.730469 3.363281-.613281 4.808593.304687 1.441407.917969 2.316407 2.511719 2.316407 4.21875v6.328126c0 4.707031 2.621093 8.921874 6.84375 11.003906l21.902343 10.800781c6.835938 2.3125 13.832032 4.375 20.792969 6.125l41.777344 10.515625c15.007813 3.777344 25.671875 16.699219 26.53125 32.152344l9.726563 174.574218c.277343 5.003907-1.539063 9.960938-4.984376 13.601563-3.441406 3.644531-8.289062 5.734375-13.300781 5.734375zm-179.800781-262.714844c-.613281 7.8125-5.230469 14.675782-12.355469 18.183594l-21.125 10.417969c-.175781.085937-.355469.164062-.539062.230469-7.902344 2.796874-16.03125 5.253906-24.160157 7.296874l-40.625 10.226563c-10.742187 2.707031-18.375 11.953125-18.988281 23.007813l-9.722656 174.574218c-.128906 2.304688.675781 4.5 2.261719 6.175782 1.585937 1.675781 3.726562 2.601562 6.035156 2.601562h299.023438c2.308593 0 4.453124-.925781 6.039062-2.601562 1.585938-1.675782 2.390625-3.871094 2.261719-6.175782l-9.722657-174.574218c-.617187-11.054688-8.246093-20.300782-18.988281-23.007813l-41.777343-10.515625c-7.328126-1.84375-14.6875-4.015625-21.878907-6.460938-.207031-.070312-.40625-.152343-.601562-.25l-22.195313-10.945312c-7.347656-3.625-12.027344-10.808594-12.398437-18.921875-6.800781 2.292969-13.90625 3.449219-21.199219 3.449219h-20.457031c-6.460938 0-12.789063-.910156-18.886719-2.710938zm0 0"/><path d="m255.742188 465.507812c-2.761719 0-5-2.238281-5-5v-81.832031c0-6.484375-2.765626-12.6875-7.582032-17.023437l-18.8125-16.933594c-2.050781-1.847656-2.21875-5.007812-.375-7.058594 1.847656-2.054687 5.007813-2.21875 7.0625-.375l18.8125 16.933594c6.921875 6.230469 10.890625 15.140625 10.890625 24.457031v81.832031c.003907 2.761719-2.234375 5-4.996093 5zm0 0"/><path d="m79.902344 465.609375c-2.761719 0-5-2.238281-5-5v-81.832031c0-9.3125 3.96875-18.226563 10.890625-24.457032l18.816406-16.933593c2.046875-1.847657 5.207031-1.679688 7.058594.375 1.847656 2.050781 1.679687 5.210937-.375 7.058593l-18.8125 16.933594c-4.816407 4.335938-7.582031 10.539063-7.582031 17.023438v81.832031c.003906 2.761719-2.234376 5-4.996094 5zm0 0"/><path d="m167.335938 465.507812c-2.761719 0-5-2.238281-5-5v-149.152343c0-2.761719 2.238281-5 5-5 2.761718 0 5 2.238281 5 5v149.152343c0 2.761719-2.238282 5-5 5zm0 0"/><path d="m167.820312 209.671875c-8.925781 0-17.242187-4.425781-22.242187-11.828125-1.542969-2.289062-.941406-5.394531 1.347656-6.941406 2.285157-1.546875 5.394531-.945313 6.941407 1.34375 3.136718 4.648437 8.355468 7.425781 13.957031 7.425781 5.601562 0 10.816406-2.777344 13.957031-7.425781 1.542969-2.289063 4.65625-2.890625 6.941406-1.34375 2.289063 1.542968 2.890625 4.652344 1.34375 6.941406-5.003906 7.402344-13.320312 11.828125-22.246094 11.828125zm0 0"/><path d="m238.558594 181.335938c-1.199219 0-2.371094-.433594-3.285156-1.230469-1.089844-.953125-1.714844-2.324219-1.714844-3.769531v-57.414063c0-1.445313.625-2.820313 1.714844-3.769531 1.085937-.949219 2.535156-1.382813 3.960937-1.1875 16.75 2.289062 29.382813 16.757812 29.382813 33.660156 0 16.90625-12.632813 31.378906-29.382813 33.664062-.222656.03125-.449219.046876-.675781.046876zm5-55.957032v44.496094c8.886718-3.582031 15.058594-12.320312 15.058594-22.25 0-9.921875-6.171876-18.664062-15.058594-22.246094zm0 0"/><path d="m317.332031 512h-38.582031c-2.761719 0-5-2.238281-5-5v-24.09375c0-9.539062-7.757812-17.296875-17.292969-17.296875h-66.945312c-1.4375 0-2.800781-.617187-3.75-1.695313-.949219-1.074218-1.390625-2.507812-1.210938-3.933593l15.882813-125.511719c.234375-1.847656 1.472656-3.410156 3.21875-4.058594 1.742187-.644531 3.703125-.273437 5.085937.96875l7.074219 6.371094c2.378906 2.140625 6.371094 1.917969 8.5-.445312 2.21875-2.46875 2.019531-6.28125-.445312-8.5l-9.355469-8.417969c-1.460938-1.316407-3.40625-1.820313-5.363281-1.375-1.589844.359375-3.257813-.078125-4.464844-1.171875-1.207032-1.101563-1.804688-2.714844-1.601563-4.332032l6.367188-50.292968c.203125-1.605469 1.167969-3.011719 2.59375-3.777344 1.421875-.765625 3.125-.792969 4.578125-.082031l20.171875 9.945312c6.8125 2.308594 13.808593 4.371094 20.792969 6.128907l41.773437 10.515624c15.007813 3.777344 25.671875 16.699219 26.53125 32.152344l9.726563 174.574219c.277343 5.003906-1.539063 9.957031-4.984376 13.601563-3.441406 3.636718-8.289062 5.726562-13.300781 5.726562zm-33.582031-10h33.582031c2.308594 0 4.453125-.925781 6.039063-2.601562 1.585937-1.675782 2.390625-3.871094 2.261718-6.175782l-9.722656-174.574218c-.617187-11.054688-8.246094-20.300782-18.988281-23.007813l-41.773437-10.515625c-7.351563-1.851562-14.714844-4.023438-21.878907-6.460938-.210937-.070312-.40625-.152343-.605469-.25l-14.171874-6.988281-4.777344 37.761719c2.757812.558594 5.355468 1.84375 7.492187 3.769531l9.351563 8.414063c6.5625 5.910156 7.097656 16.054687 1.1875 22.621094-3.03125 3.375-7.371094 5.304687-11.910156 5.304687-3.945313 0-7.734376-1.449219-10.679688-4.085937l-13.96875 110.398437h61.273438c15.050781 0 27.292968 12.246094 27.292968 27.296875v19.09375zm0 0"/><path d="m56.890625 512h-38.582031c-5.007813 0-9.855469-2.089844-13.296875-5.726562-3.449219-3.640626-5.261719-8.597657-4.9843752-13.601563l9.7226562-174.574219c.863281-15.457031 11.527344-28.378906 26.535156-32.152344l41.773438-10.515624c6.988281-1.757813 13.980468-3.820313 20.792968-6.128907l20.171876-9.945312c1.449218-.714844 3.15625-.6875 4.578124.082031 1.425782.765625 2.386719 2.171875 2.59375 3.777344l6.375 50.398437c.207032 1.617188-.390624 3.234375-1.601562 4.332031-1.210938 1.09375-2.871094 1.535157-4.46875 1.167969-1.949219-.441406-3.90625.058594-5.367188 1.375l-9.355468 8.417969c-2.464844 2.21875-2.667969 6.035156-.449219 8.5 2.132813 2.367188 6.125 2.585938 8.5.449219l7.085937-6.378907c1.382813-1.246093 3.347657-1.617187 5.085938-.96875 1.746094.648438 2.984375 2.210938 3.21875 4.058594l15.875 125.417969c.179688 1.425781-.265625 2.859375-1.210938 3.9375-.949218 1.074219-2.316406 1.691406-3.75 1.691406h-66.945312c-9.539062 0-17.292969 7.761719-17.292969 17.296875v24.089844c-.003906 2.761719-2.242187 5-5.003906 5zm60.261719-240.574219-14.171875 6.988281c-.195313.097657-.394531.179688-.601563.25-7.164062 2.4375-14.527344 4.613282-21.878906 6.460938l-41.777344 10.515625c-10.742187 2.707031-18.371094 11.953125-18.988281 23.007813l-9.722656 174.574218c-.125 2.304688.675781 4.5 2.261719 6.175782 1.585937 1.675781 3.730468 2.601562 6.039062 2.601562h33.582031v-19.09375c0-15.050781 12.242188-27.296875 27.292969-27.296875h61.273438l-13.957032-110.304687c-2.945312 2.640624-6.738281 4.09375-10.695312 4.09375-4.535156 0-8.875-1.933594-11.910156-5.300782-5.90625-6.566406-5.375-16.714844 1.195312-22.625l9.347656-8.414062c2.140625-1.929688 4.742188-3.210938 7.503906-3.773438zm0 0"/><path d="m221.660156 465.609375h-32.148437c-1.4375 0-2.800781-.617187-3.75-1.695313-.949219-1.074218-1.390625-2.507812-1.210938-3.933593l15.882813-125.511719c.234375-1.847656 1.472656-3.410156 3.21875-4.058594 1.742187-.644531 3.703125-.273437 5.085937.96875l7.074219 6.371094c2.378906 2.140625 6.371094 1.917969 8.5-.445312 1.074219-1.195313 1.621094-2.738282 1.539062-4.34375-.085937-1.605469-.792968-3.082032-1.984374-4.15625l-9.351563-8.417969c-1.460937-1.316407-3.410156-1.820313-5.367187-1.375-1.585938.359375-3.257813-.078125-4.460938-1.171875-1.210938-1.101563-1.804688-2.714844-1.601562-4.332032l6.367187-50.292968c.203125-1.605469 1.167969-3.011719 2.589844-3.777344 1.425781-.765625 3.128906-.792969 4.578125-.082031l20.164062 9.941406c.4375.144531.878906.28125 1.324219.417969.46875.144531.9375.292968 1.40625.445312 1.800781.589844 3.117187 2.148438 3.390625 4.027344l10.410156 71.144531c.453125 3.042969-.753906 6.152344-3.140625 8.105469l-18.070312 14.785156 12.449219 30.234375c.792968 1.917969.878906 4.0625.25 6.039063l-18.375 57.636718c-.664063 2.070313-2.59375 3.476563-4.769532 3.476563zm-26.476562-10h22.824218l17.136719-53.742187-12.621093-30.648438c-1.484376-3.617188-.453126-7.707031 2.570312-10.183594l18.230469-14.917968-9.859375-67.386719c-.070313-.019531-.136719-.042969-.203125-.066407-.207031-.066406-.40625-.152343-.601563-.25l-14.171875-6.984374-4.78125 37.757812c2.757813.5625 5.355469 1.847656 7.496094 3.773438l9.347656 8.414062c6.566407 5.90625 7.097657 16.054688 1.191407 22.621094-3.03125 3.371094-7.375 5.300781-11.910157 5.300781-3.949219 0-7.738281-1.449219-10.683593-4.082031zm40.125-53.34375h.019531zm8.539062-56.574219"/><path d="m146.132812 465.609375h-32.152343c-2.175781 0-4.101563-1.40625-4.761719-3.480469l-18.375-57.636718c-.628906-1.972657-.542969-4.117188.246094-6.035157l12.449218-30.234375-18.070312-14.789062c-2.382812-1.949219-3.589844-5.050782-3.144531-8.097656l10.414062-71.148438c.277344-1.878906 1.585938-3.4375 3.390625-4.03125.472656-.152344.945313-.296875 1.421875-.449219.4375-.132812.878907-.269531 1.3125-.414062l20.160157-9.9375c1.449218-.714844 3.15625-.691407 4.578124.082031 1.425782.765625 2.386719 2.171875 2.59375 3.773438l6.375 50.398437c.207032 1.621094-.390624 3.238281-1.601562 4.332031-1.210938 1.097656-2.871094 1.539063-4.46875 1.171875-1.949219-.445312-3.90625.054688-5.367188 1.375l-9.355468 8.417969c-1.195313 1.074219-1.898438 2.550781-1.984375 4.15625-.082031 1.605469.460937 3.148438 1.539062 4.34375 2.128907 2.363281 6.121094 2.582031 8.5.445312l7.082031-6.378906c1.386719-1.242187 3.347657-1.613281 5.089844-.964844 1.742188.644532 2.984375 2.207032 3.21875 4.054688l15.871094 125.421875c.179688 1.421875-.261719 2.855469-1.210938 3.933594-.949218 1.074219-2.316406 1.691406-3.75 1.691406zm-28.496093-10h22.824219l-13.960938-110.304687c-2.945312 2.640624-6.738281 4.09375-10.691406 4.09375-4.539063 0-8.878906-1.933594-11.910156-5.300782-5.910157-6.566406-5.375-16.714844 1.191406-22.625l9.351562-8.414062c2.140625-1.929688 4.742188-3.210938 7.503906-3.773438l-4.792968-37.859375-14.171875 6.988281c-.195313.097657-.394531.179688-.601563.246094-.066406.027344-.132812.046875-.203125.070313l-9.863281 67.382812 18.234375 14.921875c3.027344 2.476563 4.058594 6.566406 2.570313 10.183594l-12.621094 30.644531zm0 0"/><path d="m174.613281 316.34375h-12.960937c-1.476563 0-2.878906-.652344-3.832032-1.789062l-39.976562-47.722657c-.984375-1.175781-1.375-2.738281-1.058594-4.242187.316406-1.5 1.300782-2.773438 2.679688-3.453125l1.292968-.636719c4.222657-2.078125 6.84375-6.292969 6.84375-11.003906v-5.269532c0-1.675781.839844-3.238281 2.230469-4.164062 1.390625-.929688 3.15625-1.09375 4.703125-.449219 6.9375 2.90625 14.296875 4.378907 21.878906 4.378907h20.460938c8.390625 0 16.480469-1.796876 24.046875-5.351563 1.550781-.730469 3.363281-.613281 4.804687.304687 1.445313.917969 2.320313 2.511719 2.320313 4.21875v6.328126c0 4.707031 2.621094 8.921874 6.839844 11.003906l1.734375.855468c1.375.679688 2.367187 1.953126 2.683594 3.453126.316406 1.503906-.074219 3.066406-1.058594 4.242187l-39.796875 47.503906c-.953125 1.140625-2.355469 1.792969-3.835938 1.792969zm-10.625-10h8.292969l34.484375-41.160156c-5.195313-3.957032-8.390625-9.980469-8.699219-16.632813-6.800781 2.292969-13.90625 3.445313-21.199218 3.445313h-20.457032c-6.457031 0-12.785156-.90625-18.882812-2.710938-.488282 6.199219-3.492188 11.800782-8.273438 15.605469zm0 0"/><path d="m199.792969 332.488281c-.9375 0-1.878907-.261719-2.699219-.789062l-25.179688-16.148438c-1.207031-.773437-2.027343-2.03125-2.246093-3.453125-.214844-1.417968.191406-2.867187 1.113281-3.964844l39.796875-47.503906c1.421875-1.699218 3.804687-2.261718 5.832031-1.371094 2.035156.882813 3.238282 3.007813 2.960938 5.207032l-6.367188 50.292968c-.265625 2.085938-1.804687 3.785157-3.855468 4.25-1.230469.277344-2.3125.90625-3.132813 1.820313-1.332031 1.480469-1.847656 3.527344-1.371094 5.46875.488281 1.984375-.285156 4.066406-1.949219 5.257813-.863281.625-1.882812.933593-2.902343.933593zm-17.695313-22.285156 13.53125 8.679687c.691406-1.71875 1.683594-3.324218 2.957032-4.738281 1.386718-1.539062 3.042968-2.78125 4.886718-3.671875l3.84375-30.375zm20.203125 7.285156h.019531zm0 0"/><path d="m135.722656 332.972656c-1.046875 0-2.097656-.332031-2.980468-.984375-1.667969-1.242187-2.394532-3.378906-1.828126-5.378906.574219-2.019531.089844-4.140625-1.289062-5.675781-.820312-.910156-1.902344-1.542969-3.128906-1.820313-2.042969-.464843-3.582032-2.164062-3.847656-4.246093l-6.375-50.398438c-.269532-2.117188.835937-4.167969 2.746093-5.113281l.445313-.21875c2.070312-1.015625 4.5625-.492188 6.042968 1.273437l39.976563 47.722656c.925781 1.101563 1.328125 2.546876 1.113281 3.96875-.214844 1.417969-1.035156 2.675782-2.242187 3.453126l-25.929688 16.628906c-.824219.527344-1.765625.789062-2.703125.789062zm1.335938-18.726562c1.339844 1.484375 2.359375 3.171875 3.050781 4.972656l14.0625-9.019531-25.957031-30.984375 3.96875 31.363281c1.84375.890625 3.492187 2.128906 4.875 3.667969zm0 0"/><path d="m219.835938 349.292969c-3.960938 0-7.765626-1.457031-10.710938-4.109375l-9.351562-8.417969c-6.5625-5.910156-7.097657-16.058594-1.191407-22.625 2.863281-3.179687 6.792969-5.054687 11.0625-5.28125 4.285157-.222656 8.382813 1.230469 11.5625 4.09375l9.347657 8.414063c3.179687 2.863281 5.054687 6.792968 5.28125 11.066406.226562 4.269531-1.226563 8.375-4.089844 11.554687-3.03125 3.375-7.375 5.304688-11.910156 5.304688zm-9.339844-30.449219c-.109375 0-.214844 0-.324219.007812-1.605469.082032-3.078125.789063-4.152344 1.980469-2.222656 2.46875-2.023437 6.28125.445313 8.503907l9.351562 8.414062c2.375 2.140625 6.371094 1.917969 8.496094-.445312 1.078125-1.195313 1.625-2.738282 1.539062-4.34375-.082031-1.605469-.789062-3.082032-1.980468-4.15625l-9.355469-8.417969c-1.117187-1.003907-2.53125-1.542969-4.019531-1.542969zm0 0"/><path d="m115.808594 349.394531c-4.539063 0-8.878906-1.933593-11.910156-5.300781-2.859376-3.179688-4.316407-7.285156-4.089844-11.554688.222656-4.273437 2.097656-8.203124 5.28125-11.066406l9.351562-8.417968c3.175782-2.859376 7.28125-4.3125 11.554688-4.089844 4.277344.226562 8.207031 2.101562 11.066406 5.285156 2.863281 3.179688 4.3125 7.28125 4.085938 11.554688-.222657 4.269531-2.097657 8.203124-5.28125 11.0625l-9.347657 8.417968c-2.945312 2.652344-6.75 4.109375-10.710937 4.109375zm9.339844-30.449219c-1.488282 0-2.90625.539063-4.019532 1.539063l-9.351562 8.421875c-1.195313 1.074219-1.898438 2.550781-1.984375 4.15625-.082031 1.605469.460937 3.144531 1.539062 4.339844 2.128907 2.375 6.121094 2.585937 8.5.449218l9.347657-8.414062c1.195312-1.078125 1.898437-2.554688 1.984374-4.160156.085938-1.605469-.460937-3.144532-1.539062-4.339844-1.074219-1.199219-2.546875-1.902344-4.152344-1.984375-.109375-.007813-.21875-.007813-.324218-.007813zm0 0"/><path d="m278.75 512h-221.859375c-2.761719 0-5-2.238281-5-5v-24.09375c0-15.050781 12.246094-27.296875 27.296875-27.296875h177.269531c15.046875 0 27.292969 12.246094 27.292969 27.296875v24.09375c0 2.761719-2.234375 5-5 5zm-216.859375-10h211.859375v-19.09375c0-9.539062-7.757812-17.296875-17.292969-17.296875h-177.269531c-9.539062 0-17.292969 7.761719-17.292969 17.296875v19.09375zm0 0"/></g></svg>