<svg height="511pt" viewBox="-92 0 511 511.96" width="511pt" xmlns="http://www.w3.org/2000/svg"><path d="m255.4375 127.0625c-.976562-1.054688-2.511719-1.597656-3.875-1.144531-.601562.199219-1.269531.167969-1.867188-.179688-3.273437-1.902343-7.609374-.367187-9.039062 3.25l-3.082031 7.785157v39.996093c14.554687-1.984375 25.777343-14.429687 25.777343-29.53125.003907-7.792969-3.007812-14.871093-7.914062-20.175781zm0 0" fill="#fcb275"/><path d="m322.289062 493.289062-9.460937-169.847656c-.714844-12.824218-9.6875-23.699218-22.144531-26.832031l-40.644532-10.230469c-7.050781-1.773437-14.027343-3.835937-20.910156-6.175781l-17.980468-8.867187-3.613282-1.785157c-5.738281-2.828125-9.371094-8.667969-9.371094-15.066406v-6.589844c-8.113281 3.570313-17.074218 5.5625-26.503906 5.5625h-16.117187c-9.203125 0-17.960938-1.890625-25.917969-5.296875v6.324219c0 6.398437-3.632812 12.238281-9.371094 15.066406l-2.664062 1.316407-17.890625 8.820312c-7.578125 2.683594-15.277344 5.011719-23.070313 6.972656l-39.527344 9.949219c-12.457031 3.136719-21.429687 14.007813-22.144531 26.835937l-9.460937 169.847657c-.414063 7.425781 5.496094 13.671875 12.929687 13.671875h290.929688c7.4375-.003906 13.347656-6.25 12.933593-13.675782zm0 0" fill="#e8e6e6"/><path d="m271.820312 506.960938v-23.4375c0-11.933594-9.761718-21.695313-21.691406-21.695313h-172.46875c-11.933594 0-21.691406 9.765625-21.691406 21.695313v23.4375zm0 0" fill="#683728"/><path d="m322.289062 493.289062-9.460937-169.847656c-.714844-12.824218-9.6875-23.699218-22.144531-26.832031l-40.644532-10.230469c-7.050781-1.773437-14.027343-3.835937-20.910156-6.175781l-17.980468-8.867187-1.925782-.949219-6.191406 48.933593c3.277344-.746093 6.855469.042969 9.546875 2.46875l9.097656 8.1875c4.398438 3.960938 4.753907 10.738282.796875 15.140626-2.117187 2.351562-5.039062 3.546874-7.972656 3.546874-2.550781 0-5.117188-.90625-7.167969-2.753906l-6.882812-6.195312-15.453125 122.113281h65.136718c11.929688 0 21.691407 9.765625 21.691407 21.695313v23.4375h37.535156c7.433594 0 13.34375-6.246094 12.929687-13.671876zm0 0" fill="#3f3f3f"/><path d="m127.347656 339.800781-6.890625 6.207031c-2.050781 1.84375-4.613281 2.753907-7.167969 2.753907-2.933593 0-5.859374-1.199219-7.972656-3.550781-3.960937-4.398438-3.605468-11.175782.796875-15.140626l9.097657-8.1875c2.691406-2.425781 6.277343-3.210937 9.5625-2.464843l-6.207032-49.035157-1.929687.953126-17.980469 8.863281c-6.882812 2.34375-13.859375 4.402343-20.910156 6.175781l-40.640625 10.230469c-12.460938 3.136719-21.429688 14.007812-22.144531 26.835937l-9.460938 169.847656c-.414062 7.421876 5.496094 13.671876 12.929688 13.671876h37.539062v-23.441407c0-11.929687 9.761719-21.691406 21.691406-21.691406h65.132813zm0 0" fill="#3f3f3f"/><path d="m240.941406 353.789062c1.007813-.828124 1.511719-2.125 1.320313-3.414062l-10.128907-69.21875c-.996093-.328125-2.007812-.617188-3.003906-.953125l-17.980468-8.867187-1.925782-.949219-6.191406 48.933593c3.277344-.746093 6.855469.042969 9.546875 2.46875l9.097656 8.1875c4.398438 3.960938 4.753907 10.738282.796875 15.140626-2.117187 2.351562-5.039062 3.546874-7.972656 3.546874-2.550781 0-5.117188-.90625-7.167969-2.753906l-6.882812-6.195312-15.453125 122.113281h31.28125l17.878906-56.074219c.265625-.835937.230469-1.734375-.101562-2.542968l-12.4375-30.203126c-.625-1.515624-.1875-3.253906 1.082031-4.292968zm0 0" fill="#515050"/><path d="m127.347656 339.800781-6.890625 6.207031c-2.050781 1.84375-4.613281 2.753907-7.167969 2.753907-2.933593 0-5.859374-1.199219-7.972656-3.550781-3.960937-4.398438-3.605468-11.175782.796875-15.140626l9.097657-8.1875c2.691406-2.425781 6.277343-3.210937 9.5625-2.464843l-6.207032-49.035157-1.929687.953126-17.980469 8.863281c-.992188.339843-2.003906.628906-3 .953125l-10.128906 69.21875c-.191406 1.292968.3125 2.589844 1.320312 3.414062l18.242188 14.925782c1.269531 1.035156 1.707031 2.777343 1.082031 4.292968l-12.433594 30.203125c-.332031.808594-.371093 1.707031-.105469 2.539063l17.878907 56.078125h31.28125zm0 0" fill="#515050"/><path d="m214.5 348.660156c-2.554688 0-5.121094-.90625-7.167969-2.75l-9.097656-8.1875c-4.402344-3.960937-4.753906-10.738281-.792969-15.140625 3.953125-4.398437 10.734375-4.757812 15.136719-.796875l9.097656 8.1875c4.402344 3.964844 4.753907 10.738282.796875 15.140625-2.117187 2.351563-5.042968 3.546875-7.972656 3.546875zm0 0" fill="#e8e6e6"/><path d="m113.289062 348.761719c2.550782 0 5.117188-.910157 7.164063-2.753907l9.097656-8.1875c4.402344-3.960937 4.757813-10.738281.796875-15.140624-3.957031-4.398438-10.738281-4.757813-15.136718-.796876l-9.097657 8.1875c-4.402343 3.964844-4.757812 10.738282-.796875 15.140626 2.113282 2.351562 5.039063 3.550781 7.972656 3.550781zm0 0" fill="#e8e6e6"/><path d="m184.996094 461.828125 1.632812-12.910156-11.414062-107.8125c-3.273438 2.109375-7.15625 3.351562-11.320313 3.351562-4.167969 0-8.050781-1.246093-11.320312-3.359375l-11.417969 107.824219 1.636719 12.910156h42.203125zm0 0" fill="#e04e36"/><path d="m170.5 316.601562h-12.605469l-14.816406 9.5c1.316406 10.308594 10.164063 18.351563 20.816406 18.351563 10.773438 0 19.714844-8.226563 20.867188-18.707031zm0 0" fill="#e04e36"/><path d="m237.578125 187.539062c0 36.40625-29.511719 65.917969-65.917969 65.917969h-16.117187c-36.40625 0-65.917969-29.511719-65.917969-65.917969l1.203125-75.175781c-.082031-6.367187 2.085937-12.679687 6.535156-17.230469 5.292969-5.410156 12.511719-7.570312 19.980469-3.460937 29.519531 16.242187 65.464844 16.316406 95.125 0 2.234375-1.230469 4.71875-1.945313 7.269531-1.945313-.222656-.046874 6.433594-.488281 11.210938 4.972657 5.15625 5.890625 6.757812 11.628906 6.683593 17.371093zm0 0" fill="#fcb275"/><path d="m87.523438 128.296875c-1.488282-3.761719-5.988282-5.140625-9.238282-3.132813-.59375.367188-1.238281.453126-1.820312.320313-1.410156-.3125-2.898438.292969-3.894532 1.34375-5.035156 5.324219-8.132812 12.496094-8.132812 20.414063 0 14.253906 11.8125 27.898437 25.335938 31.003906l.550781-34.332032.164062-10.316406zm0 0" fill="#fcb275"/><path d="m241.425781 48.25s-7.714843-20.789062-38.585937-24.570312c-17.425782-2.132813-29.171875-9.789063-33.566406-15.996094-1.191407-1.679688-3.144532-2.625-5.195313-2.671875v-.015625c-.023437 0-.046875.007812-.074219.007812s-.050781-.007812-.074218-.007812v.019531c-2.054688.042969-4.007813.992187-5.195313 2.671875-4.398437 6.203125-16.144531 13.859375-33.566406 15.996094-30.871094 3.777344-38.589844 24.570312-38.589844 24.570312-21.75 21.308594-15.234375 59.519532-10.652344 77.199219.179688.011719.359375-.003906.539063.035156.582031.128907 1.226562.046875 1.820312-.324219 3.25-2.007812 7.753906-.628906 9.238282 3.132813l2.960937 5.304687.339844-21.234374c-.078125-6.363282 2.085937-12.679688 6.539062-17.230469 5.292969-5.410157 12.511719-7.570313 19.980469-3.460938 29.519531 16.246094 65.460938 16.316407 95.121094 0 2.238281-1.230469 4.71875-1.945312 7.269531-1.945312-.222656-.046875 6.4375-.488281 11.214844 4.972656 5.152343 5.890625 6.753906 11.632813 6.683593 17.371094l-.019531 24.617187 3.042969-7.699218c1.429688-3.617188 5.765625-5.148438 9.042969-3.25.59375.347656 1.265625.378906 1.863281.183593.136719-.046875.277344-.039062.414062-.066406 4.585938-17.503906 11.367188-56.140625-10.550781-77.609375zm0 0" fill="#7c292e"/><path d="m197.441406 322.578125c1.535156-1.707031 3.503906-2.789063 5.589844-3.261719l6.191406-48.933594-38.722656 46.21875 24.496094 15.710938c-.8125-3.332031-.023438-6.992188 2.445312-9.734375zm0 0" fill="#e8e6e6"/><path d="m130.347656 322.679688c2.558594 2.84375 3.289063 6.675781 2.316406 10.101562l25.226563-16.179688-38.894531-46.429687-.433594.210937 6.207031 49.035157c2.082031.476562 4.042969 1.554687 5.578125 3.261719zm0 0" fill="#e8e6e6"/><path d="m198.164062 254.484375v-6.589844c-8.113281 3.570313-17.074218 5.5625-26.503906 5.5625h-16.117187c-9.203125 0-17.960938-1.890625-25.917969-5.296875v6.324219c0 6.398437-3.632812 12.238281-9.371094 15.066406l-1.257812.621094 38.898437 46.429687h12.609375l38.71875-46.21875-1.6875-.832031c-5.738281-2.828125-9.371094-8.667969-9.371094-15.066406zm0 0" fill="#fcb275"/><g fill="#231f20"><path d="m163.234375 215.972656c-8.820313 0-17.039063-4.367187-21.980469-11.6875-1.546875-2.289062-.945312-5.394531 1.34375-6.941406 2.289063-1.546875 5.398438-.945312 6.941406 1.34375 3.082032 4.5625 8.203126 7.285156 13.699219 7.285156 5.492188 0 10.613281-2.71875 13.695313-7.285156 1.542968-2.289062 4.652344-2.890625 6.941406-1.34375 2.289062 1.542969 2.890625 4.652344 1.34375 6.941406-4.945312 7.320313-13.164062 11.6875-21.984375 11.6875zm0 0"/><path d="m200.148438 147.242188c-.792969 0-1.597657-.191407-2.34375-.589844-1.25-.660156-4.113282-1.332032-7.699219-1.332032-3.589844 0-6.453125.671876-7.699219 1.332032-2.4375 1.296875-5.464844.375-6.761719-2.0625-1.300781-2.441406-.371093-5.464844 2.066407-6.765625 2.992187-1.589844 7.507812-2.503907 12.394531-2.503907 4.882812 0 9.398437.914063 12.390625 2.503907 2.4375 1.296875 3.363281 4.324219 2.066406 6.765625-.894531 1.6875-2.625 2.648437-4.414062 2.652344zm0 0"/><path d="m146.152344 147.242188c-.789063 0-1.597656-.191407-2.34375-.589844-1.246094-.664063-4.109375-1.332032-7.695313-1.332032-3.585937 0-6.453125.671876-7.699219 1.332032-2.4375 1.296875-5.464843.375-6.761718-2.0625-1.296875-2.441406-.371094-5.464844 2.066406-6.765625 2.992188-1.589844 7.507812-2.503907 12.390625-2.503907 4.886719 0 9.402344.914063 12.394531 2.503907 2.4375 1.300781 3.363282 4.328125 2.0625 6.765625-.894531 1.691406-2.625 2.648437-4.414062 2.652344zm0 0"/><path d="m136.914062 166.671875c-3.316406 0-6-2.6875-6-6v-1.097656c0-3.3125 2.683594-6 6-6 3.3125 0 6 2.6875 6 6v1.097656c0 3.3125-2.6875 6-6 6zm0 0"/><path d="m189.554688 167.515625c-3.3125 0-6-2.6875-6-6v-1.101563c0-3.3125 2.6875-6 6-6 3.316406 0 6 2.6875 6 6v1.101563c0 3.3125-2.683594 6-6 6zm0 0"/><path d="m237.578125 181.773438c-1.203125 0-2.371094-.433594-3.289063-1.230469-1.085937-.953125-1.710937-2.324219-1.710937-3.769531v-39.996094c0-.628906.121094-1.25.347656-1.835938l3.078125-7.789062c1.226563-3.101563 3.742188-5.507813 6.898438-6.601563 2.726562-.945312 5.679687-.824219 8.253906.328125 2.835938-.5 5.863281.53125 7.953125 2.789063v.003906c5.960937 6.445313 9.246094 14.816406 9.246094 23.570313 0 17.320312-12.941407 32.144531-30.101563 34.484374-.226562.03125-.453125.046876-.675781.046876zm5-44.042969v32.609375c9.296875-3.652344 15.777344-12.75 15.777344-23.097656 0-6.027344-2.191407-11.800782-6.179688-16.328126-1.710937.316407-3.480469.027344-4.988281-.851562-.390625-.226562-.796875-.136719-1.003906-.066406-.238282.082031-.667969.300781-.875.832031zm10.566406-7.066407h-.003906zm0 0"/><path d="m309.355469 511.960938h-290.925781c-4.914063 0-9.667969-2.046876-13.042969-5.617188s-5.152344-8.429688-4.878907-13.332031l9.460938-169.851563c.839844-15.09375 11.253906-27.710937 25.914062-31.402344l39.527344-9.953124c7.515625-1.886719 15.03125-4.15625 22.34375-6.734376l20.292969-10.003906c4.058594-2.003906 6.578125-6.054687 6.578125-10.585937v-6.320313c0-1.679687.84375-3.25 2.246094-4.175781 1.40625-.921875 3.179687-1.082031 4.722656-.421875 7.582031 3.246094 15.636719 4.894531 23.949219 4.894531h16.117187c8.5 0 16.738282-1.730469 24.492188-5.140625 1.546875-.679687 3.335937-.53125 4.746094.390625 1.414062.921875 2.265624 2.496094 2.265624 4.1875v6.585938c0 4.527343 2.523438 8.582031 6.582032 10.585937l21.304687 10.503906c6.625 2.246094 13.425781 4.25 20.207031 5.957032l40.648438 10.230468c14.65625 3.691407 25.070312 16.308594 25.914062 31.402344l9.460938 169.851563v-.003907c.273438 4.90625-1.507812 9.765626-4.882812 13.335938s-8.128907 5.617188-13.042969 5.617188zm-174.746094-256.644532c-.296875 8.027344-4.894531 15.144532-12.144531 18.71875l-20.554688 10.136719c-.175781.085937-.359375.164063-.542968.226563-7.695313 2.722656-15.609376 5.117187-23.519532 7.109374l-39.527344 9.949219c-10.390624 2.613281-17.773437 11.5625-18.371093 22.261719l-9.460938 169.847656c-.121093 2.207032.644531 4.300782 2.164063 5.90625 1.515625 1.605469 3.566406 2.488282 5.773437 2.488282h290.929688c2.207031 0 4.261719-.882813 5.777343-2.488282 1.519532-1.605468 2.285157-3.703125 2.164063-5.90625l-9.460937-169.847656c-.597657-10.699219-7.976563-19.648438-18.371094-22.261719l-40.644532-10.230469c-7.152343-1.796874-14.320312-3.917968-21.300781-6.292968-.207031-.070313-.402343-.152344-.601562-.25l-21.59375-10.648438c-7.308594-3.601562-11.921875-10.808594-12.152344-18.910156-6.933594 2.214844-14.136719 3.332031-21.511719 3.332031h-16.121094c-7.167968 0-14.183593-1.054687-20.929687-3.140625zm0 0"/><path d="m249.433594 466.726562c-2.761719 0-5-2.238281-5-5v-79.617187c0-6.265625-2.671875-12.265625-7.332032-16.460937l-18.304687-16.472657c-2.050781-1.847656-2.21875-5.011719-.371094-7.0625 1.851563-2.050781 5.003907-2.214843 7.0625-.371093l18.304688 16.472656c6.761719 6.085937 10.636719 14.796875 10.636719 23.894531v79.617187c.003906 2.761719-2.234376 5-4.996094 5zm0 0"/><path d="m78.355469 466.828125c-2.765625 0-5-2.238281-5-5v-79.621094c0-9.097656 3.875-17.808593 10.640625-23.890625l18.300781-16.472656c2.058594-1.851562 5.210937-1.683594 7.0625.371094 1.847656 2.050781 1.679687 5.214844-.371094 7.0625l-18.304687 16.472656c-4.660156 4.191406-7.332032 10.191406-7.332032 16.457031v79.621094c.003907 2.761719-2.234374 5-4.996093 5zm0 0"/><path d="m271.820312 511.960938h-215.855468c-2.761719 0-5-2.238282-5-5v-23.441407c0-14.71875 11.976562-26.695312 26.695312-26.695312h172.46875c14.714844 0 26.691406 11.976562 26.691406 26.695312v23.441407c0 2.761718-2.238281 5-5 5zm-210.855468-10h205.855468v-18.441407c0-9.207031-7.488281-16.695312-16.691406-16.695312h-172.46875c-9.207031 0-16.695312 7.488281-16.695312 16.695312zm0 0"/><path d="m309.355469 511.960938h-37.535157c-2.761718 0-5-2.238282-5-5v-23.441407c0-9.207031-7.488281-16.695312-16.695312-16.695312h-65.132812c-1.433594 0-2.796876-.617188-3.75-1.691407-.949219-1.078124-1.386719-2.511718-1.207032-3.933593l15.453125-122.117188c.234375-1.847656 1.472657-3.410156 3.21875-4.058593 1.742188-.640626 3.703125-.277344 5.085938.96875l6.882812 6.199218c2.273438 2.042969 6.035157 1.84375 8.074219-.425781 2.113281-2.34375 1.921875-5.96875-.421875-8.078125l-9.097656-8.191406c-1.390625-1.25-3.246094-1.730469-5.097657-1.304688-1.59375.355469-3.257812-.078125-4.464843-1.171875-1.207031-1.097656-1.804688-2.714843-1.601563-4.332031l6.191406-48.933594c.207032-1.605468 1.171876-3.011718 2.597657-3.777344 1.421875-.769531 3.125-.792968 4.578125-.082031l19.613281 9.671875c6.628906 2.246094 13.429687 4.25 20.210937 5.957032l40.644532 10.230468c14.660156 3.691406 25.074218 16.3125 25.914062 31.40625l9.460938 169.847656c.273437 4.902344-1.503906 9.765626-4.878906 13.332032-3.375 3.574218-8.128907 5.621094-13.042969 5.621094zm-32.535157-10h32.539063c2.207031 0 4.257813-.882813 5.777344-2.488282 1.515625-1.605468 2.285156-3.703125 2.160156-5.90625l-9.460937-169.847656c-.59375-10.699219-7.976563-19.648438-18.371094-22.261719l-40.644532-10.230469c-7.148437-1.796874-14.316406-3.917968-21.296874-6.292968-.207032-.070313-.40625-.152344-.601563-.25l-13.617187-6.714844-4.609376 36.425781c2.660157.5625 5.160157 1.8125 7.226563 3.675781l9.101563 8.1875c6.441406 5.796876 6.960937 15.757813 1.164062 22.203126-2.972656 3.304687-7.234375 5.203124-11.6875 5.203124-3.789062 0-7.433594-1.363281-10.292969-3.839843l-13.542969 107.003906h59.460938c14.71875 0 26.695312 11.976563 26.695312 26.695313zm0 0"/><path d="m55.964844 511.960938h-37.535156c-4.914063 0-9.667969-2.046876-13.039063-5.617188-3.378906-3.570312-5.15625-8.429688-4.882813-13.335938l9.460938-169.847656c.84375-15.09375 11.257812-27.710937 25.914062-31.402344l40.644532-10.230468c6.78125-1.707032 13.578125-3.710938 20.210937-5.957032l19.617188-9.671874c1.449219-.714844 3.152343-.6875 4.578125.078124 1.425781.765626 2.390625 2.171876 2.59375 3.78125l6.207031 49.035157c.207031 1.617187-.394531 3.234375-1.605469 4.332031-1.210937 1.09375-2.882812 1.527344-4.46875 1.167969-1.84375-.425781-3.710937.050781-5.101562 1.304687l-9.097656 8.191406c-2.34375 2.109376-2.539063 5.734376-.425782 8.078126 2.039063 2.269531 5.796875 2.476562 8.078125.425781l6.890625-6.207031c1.386719-1.246094 3.347656-1.621094 5.089844-.96875 1.742188.648437 2.984375 2.207031 3.21875 4.058593l15.441406 122.023438c.179688 1.425781-.261718 2.855469-1.210937 3.933593-.949219 1.078126-2.3125 1.695313-3.75 1.695313h-65.132813c-9.207031 0-16.695312 7.488281-16.695312 16.695313v23.4375c0 2.761718-2.238282 5-5 5zm58.519531-233.988282-13.617187 6.710938c-.195313.097656-.394532.179687-.601563.25-6.988281 2.375-14.15625 4.496094-21.300781 6.292968l-40.640625 10.230469c-10.394531 2.613281-17.777344 11.5625-18.371094 22.261719l-9.460937 169.847656c-.125 2.207032.644531 4.300782 2.160156 5.90625 1.519531 1.605469 3.570312 2.488282 5.777344 2.488282h32.539062v-18.441407c0-14.71875 11.972656-26.695312 26.691406-26.695312h59.460938l-13.53125-106.917969c-2.859375 2.488281-6.507813 3.855469-10.300782 3.855469-4.453124 0-8.710937-1.898438-11.6875-5.207031-5.796874-6.441407-5.277343-16.402344 1.164063-22.199219l9.101563-8.191407c2.070312-1.867187 4.578124-3.117187 7.242187-3.679687zm0 0"/><path d="m216.273438 466.828125h-31.28125c-1.433594 0-2.796876-.617187-3.75-1.695313-.949219-1.078124-1.386719-2.507812-1.207032-3.933593l15.453125-122.113281c.234375-1.851563 1.472657-3.410157 3.21875-4.0625 1.742188-.640626 3.703125-.277344 5.085938.972656l6.882812 6.199218c2.273438 2.042969 6.035157 1.84375 8.074219-.425781 1.027344-1.136719 1.542969-2.605469 1.460938-4.128906-.082032-1.523437-.746094-2.929687-1.882813-3.949219l-9.097656-8.191406c-1.390625-1.253906-3.246094-1.730469-5.097657-1.304688-1.59375.351563-3.257812-.078124-4.464843-1.175781-1.207031-1.09375-1.804688-2.710937-1.601563-4.328125l6.191406-48.933594c.207032-1.609374 1.171876-3.015624 2.597657-3.78125 1.421875-.765624 3.125-.789062 4.578125-.078124l19.601562 9.664062c.425782.140625.855469.273438 1.285156.40625.457032.140625.910157.28125 1.367188.429688 1.800781.589843 3.121094 2.148437 3.394531 4.03125l10.128907 69.214843c.441406 3.011719-.75 6.082031-3.105469 8.007813l-17.507813 14.324218 12.074219 29.324219c.78125 1.898438.867187 4.015625.246094 5.964844l-17.878907 56.078125c-.660156 2.078125-2.589843 3.484375-4.765624 3.484375zm-25.605469-10h21.953125l16.628906-52.152344-12.257812-29.769531c-1.472657-3.570312-.453126-7.617188 2.539062-10.0625l17.679688-14.464844-9.570313-65.402344c-.039063-.011718-.078125-.027343-.113281-.039062-.210938-.070312-.410156-.152344-.609375-.25l-13.617188-6.714844-4.609375 36.421875c2.660156.566407 5.164063 1.8125 7.230469 3.675781l9.097656 8.191407c6.441407 5.796875 6.964844 15.757812 1.167969 22.199219-2.976562 3.308593-7.234375 5.203124-11.691406 5.203124-3.789063 0-7.429688-1.359374-10.289063-3.839843zm50.273437-103.039063h.019532zm0 0"/><path d="m142.792969 466.828125h-31.28125c-2.175781 0-4.105469-1.40625-4.765625-3.480469l-17.878906-56.078125c-.621094-1.953125-.535157-4.066406.242187-5.960937l12.078125-29.328125-17.507812-14.324219c-2.355469-1.921875-3.542969-4.992188-3.105469-8.007812l10.128906-69.214844c.277344-1.878906 1.589844-3.441406 3.394531-4.03125.457032-.148438.917969-.289063 1.378906-.433594.425782-.128906.847657-.261719 1.269532-.402344l19.601562-9.664062c1.453125-.710938 3.15625-.6875 4.582032.078125 1.425781.765625 2.390624 2.171875 2.59375 3.78125l6.207031 49.035156c.207031 1.617187-.394531 3.234375-1.605469 4.332031-1.210938 1.09375-2.882812 1.527344-4.46875 1.167969-1.84375-.425781-3.710938.050781-5.101562 1.304687l-9.097657 8.191407c-2.34375 2.109375-2.539062 5.734375-.425781 8.078125 2.039062 2.269531 5.796875 2.476562 8.078125.425781l6.890625-6.207031c1.386719-1.246094 3.347656-1.621094 5.089844-.96875 1.742187.648437 2.984375 2.207031 3.21875 4.058594l15.441406 122.023437c.179688 1.425781-.261719 2.855469-1.210938 3.933594-.945312 1.074219-2.3125 1.691406-3.746093 1.691406zm-27.625-10h21.953125l-13.53125-106.917969c-2.859375 2.484375-6.507813 3.851563-10.300782 3.851563-4.453124 0-8.710937-1.894531-11.6875-5.207031-5.796874-6.4375-5.277343-16.398438 1.164063-22.199219l9.101563-8.191407c2.070312-1.863281 4.578124-3.113281 7.242187-3.675781l-4.625-36.519531-13.617187 6.714844c-.195313.097656-.398438.179687-.605469.25-.039063.011718-.074219.027344-.117188.039062l-9.570312 65.402344 17.679687 14.464844c2.992188 2.445312 4.011719 6.488281 2.542969 10.0625l-12.257813 29.769531zm0 0"/><path d="m214.5 353.660156c-3.886719 0-7.621094-1.433594-10.511719-4.035156l-9.097656-8.191406c-3.125-2.804688-4.960937-6.664063-5.183594-10.859375-.21875-4.191407 1.207031-8.21875 4.015625-11.339844 2.804688-3.121094 6.660156-4.960937 10.855469-5.183594 4.195313-.238281 8.226563 1.207031 11.347656 4.015625l9.097657 8.191406c6.441406 5.796876 6.960937 15.757813 1.164062 22.199219-2.976562 3.308594-7.234375 5.203125-11.6875 5.203125zm-9.085938-29.625c-.101562 0-.207031 0-.308593.007813-1.527344.078125-2.929688.746093-3.949219 1.882812-1.023438 1.136719-1.539062 2.605469-1.460938 4.125.082032 1.527344.75 2.929688 1.882813 3.953125l9.097656 8.191406c2.277344 2.042969 6.035157 1.84375 8.078125-.425781 2.113282-2.34375 1.917969-5.96875-.425781-8.078125l-9.097656-8.1875c-1.058594-.957031-2.402344-1.46875-3.816407-1.46875zm0 0"/><path d="m113.289062 353.761719c-4.457031 0-8.714843-1.898438-11.691406-5.207031-5.792968-6.4375-5.273437-16.398438 1.167969-22.199219l9.097656-8.191407c3.121094-2.804687 7.140625-4.238281 11.34375-4.011718 4.195313.21875 8.050781 2.058594 10.859375 5.183594 2.808594 3.117187 4.234375 7.144531 4.011719 11.339843-.21875 4.195313-2.058594 8.050781-5.183594 10.859375l-9.09375 8.1875c-2.886719 2.601563-6.621093 4.039063-10.511719 4.039063zm9.085938-29.632813c-1.414062 0-2.761719.515625-3.816406 1.46875l-9.101563 8.191406c-2.34375 2.109376-2.535156 5.734376-.421875 8.078126 2.039063 2.265624 5.796875 2.46875 8.074219.425781l9.097656-8.191407c1.132813-1.023437 1.804688-2.425781 1.882813-3.953124.082031-1.523438-.4375-2.992188-1.457032-4.125-1.023437-1.136719-2.425781-1.804688-3.953124-1.882813-.101563-.007813-.203126-.011719-.304688-.011719zm0 0"/><path d="m184.996094 466.828125h-42.203125c-2.519531 0-4.644531-1.875-4.960938-4.375l-1.632812-12.910156c-.046875-.382813-.050781-.769531-.011719-1.15625l11.417969-107.820313c.183593-1.722656 1.25-3.234375 2.8125-3.980468 1.570312-.75 3.410156-.632813 4.875.308593 5.175781 3.351563 12.035156 3.34375 17.210937.007813 1.460938-.941406 3.300782-1.054688 4.871094-.308594 1.566406.75 2.628906 2.257812 2.8125 3.980469l11.414062 107.816406c.042969.382813.039063.769531-.011718 1.152344l-1.632813 12.910156c-.316406 2.5-2.441406 4.375-4.960937 4.375zm-37.796875-10h33.386719l1.007812-7.960937-10.628906-100.402344c-4.582032 1.308594-9.5625 1.3125-14.140625 0l-10.628907 100.402344zm0 0"/><path d="m163.894531 349.453125c-13.039062 0-24.121093-9.765625-25.773437-22.71875-.246094-1.914063.632812-3.796875 2.257812-4.839844l14.816406-9.5c.800782-.515625 1.742188-.792969 2.699219-.792969h12.609375c.957032 0 1.894532.277344 2.699219.792969l14.261719 9.144531c1.597656 1.023438 2.476562 2.867188 2.269531 4.753907-1.457031 13.203125-12.5625 23.160156-25.839844 23.160156zm-15.1875-21.019531c2.117188 6.453125 8.195313 11.023437 15.1875 11.023437 7.15625 0 13.292969-4.707031 15.300781-11.339843l-10.15625-6.511719h-9.679687zm0 0"/><path d="m171.660156 258.457031h-16.121094c-39.101562 0-70.917968-31.8125-70.917968-70.917969l1.207031-75.257812c-.101563-7.792969 2.796875-15.367188 7.960937-20.644531 7.414063-7.589844 17.121094-9.210938 25.964844-4.347657 28.269532 15.558594 62.027344 15.558594 90.300782 0 3.042968-1.675781 6.394531-2.5625 9.679687-2.5625v.027344c3.566406-.1875 10.148437 1.136719 14.972656 6.652344 5.425781 6.203125 8.019531 12.980469 7.921875 20.726562l-.054687 75.410157c.003906 39.101562-31.8125 70.914062-70.914063 70.914062zm-62.195312-163.921875c-3.597656 0-6.496094 2.015625-8.527344 4.097656-3.316406 3.390626-5.179688 8.371094-5.113281 13.667969l-1.203125 75.320313c0 33.511718 27.328125 60.839844 60.917968 60.839844h16.117188c33.589844 0 60.917969-27.328126 60.917969-60.917969 0-.003907 0-.003907 0-.003907l.054687-75.472656c.066406-5.371094-1.617187-9.691406-5.449218-14.070312-2.667969-3.050782-6.238282-3.28125-6.9375-3.292969-.167969.015625-.339844.027344-.511719.027344-1.601563 0-3.28125.457031-4.855469 1.324219-31.300781 17.21875-68.660156 17.21875-99.945312 0-1.957032-1.082032-3.789063-1.519532-5.464844-1.519532zm112.769531-.476562c-.542969.3125-1.15625.53125-1.800781.621094.605468-.070313 1.226562-.285157 1.800781-.621094zm0 0"/><path d="m89.769531 183.246094c-.375 0-.746093-.039063-1.121093-.125-16.109376-3.699219-29.21875-19.792969-29.21875-35.875 0-8.902344 3.378906-17.375 9.507812-23.851563 2.007812-2.125 4.824219-3.195312 7.558594-2.953125 2.660156-1.34375 5.765625-1.578125 8.664062-.613281 3.089844 1.027344 5.574219 3.300781 6.867188 6.28125l2.820312 5.050781c.433594.769532.648438 1.636719.636719 2.519532l-.714844 44.648437c-.027343 1.507813-.726562 2.925781-1.914062 3.855469-.890625.695312-1.976563 1.0625-3.085938 1.0625zm-13.765625-52.769532c-4.242187 4.585938-6.570312 10.527344-6.570312 16.765626 0 9.445312 6.632812 19.210937 15.453125 23.871093l.578125-36.25-2.304688-4.128906c-.105468-.191406-.203125-.390625-.285156-.597656-.199219-.503907-.578125-.722657-.863281-.816407-.183594-.058593-.65625-.171874-1.097657.101563-1.488281.914063-3.214843 1.28125-4.910156 1.054687zm-.617187-.105468h.007812c-.003906 0-.007812 0-.007812 0zm0 0"/><path d="m237.613281 141.6875c-.308593 0-.625-.03125-.941406-.089844-2.359375-.453125-4.0625-2.511718-4.058594-4.914062l.015625-24.617188c.066406-5.371094-1.613281-9.691406-5.445312-14.074218-2.671875-3.046876-6.238282-3.277344-6.9375-3.289063-.167969.015625-.339844.023437-.511719.023437-1.605469 0-3.285156.460938-4.859375 1.324219-31.296875 17.21875-68.660156 17.21875-99.945312.003907-6.167969-3.394532-11.015626-.46875-13.992188 2.578124-3.316406 3.390626-5.183594 8.371094-5.117188 13.667969l-.339843 21.378907c-.035157 2.261718-1.585938 4.214843-3.777344 4.769531-2.199219.546875-4.484375-.4375-5.585937-2.410157l-2.960938-5.304687c-.109375-.191406-.203125-.390625-.285156-.597656-.203125-.503907-.582032-.722657-.867188-.816407-.183594-.058593-.65625-.171874-1.097656.101563-1.539062.953125-3.332031 1.316406-5.09375 1.03125-.074219 0-.148438-.003906-.21875-.007813-2.152344-.140624-3.972656-1.648437-4.515625-3.738281-12.335937-47.605469 1.40625-71.191406 11.285156-81.3125 2.207031-4.78125 12.503907-23.039062 42.191407-26.675781 17.488281-2.140625 27.148437-9.757812 30.097656-13.921875 1.957031-2.765625 5.148437-4.515625 8.613281-4.7539062.238281-.03125.46875-.03906255.734375-.0429688.253906 0 .5.015625.742188.0429688 3.460937.2382812 6.648437 1.9921872 8.605468 4.7578122 2.953125 4.160157 12.609375 11.777344 30.097656 13.917969 29.691407 3.636719 39.984376 21.894531 42.195313 26.675781 9.921875 10.171875 23.714844 33.875 11.167969 81.730469-.488282 1.875-2.019532 3.296875-3.921875 3.648438-.058594.011718-.148438.027343-.238281.039062-1.855469.472656-3.820313.210938-5.460938-.746094-.390625-.226562-.796875-.136718-1.007812-.0625-.234376.082032-.667969.296875-.875.828125l-3.042969 7.695313c-.765625 1.929687-2.628907 3.160156-4.648438 3.160156zm15.53125-11.023438c-.007812 0-.011719.003907-.019531.007813.007812-.003906.011719-.007813.019531-.007813zm-1.167969-4.808593h.019532zm-31.53125-41.125c3.683594 0 9.742188 1.507812 14.265626 6.675781 5.425781 6.203125 8.015624 12.980469 7.917968 20.726562l-.003906 8.519532c.089844-.035156.183594-.066406.277344-.101563 1.746094-.605469 3.578125-.78125 5.351562-.511719 3.925782-17.226562 8.191406-50.082031-10.324218-68.21875-.519532-.507812-.921876-1.121093-1.175782-1.800781-.316406-.804687-7.378906-18.050781-34.519531-21.375-19.589844-2.398437-32.199219-11.230469-37.042969-18.066406-.234375-.335937-.679687-.542969-1.1875-.5625-.511718.019531-.953125.226563-1.191406.558594-4.84375 6.839843-17.449219 15.671875-37.039062 18.070312-27.203126 3.332031-34.234376 20.648438-34.523438 21.382813-.257812.660156-.667969 1.296875-1.175781 1.792968-18.324219 17.953126-14.304688 50.386719-10.464844 67.585938 1.820313-.3125 3.726563-.183594 5.546875.421875.183594.058594.367188.125.542969.195313l.125-7.738282c-.101563-7.792968 2.800781-15.371094 7.960937-20.644531 7.417969-7.589844 17.121094-9.210937 25.964844-4.347656 28.273438 15.558593 62.03125 15.558593 90.300781 0 3.046875-1.679688 6.394531-2.566407 9.679688-2.566407v.027344c.230469-.015625.464843-.023437.714843-.023437zm1.785157 9.328125c-.539063.3125-1.152344.53125-1.792969.621094.601562-.070313 1.21875-.285157 1.792969-.621094zm0 0"/><path d="m195 337.3125c-.9375 0-1.875-.265625-2.699219-.792969l-24.496093-15.707031c-1.210938-.777344-2.027344-2.035156-2.246094-3.453125-.214844-1.421875.1875-2.867187 1.113281-3.96875l38.71875-46.214844c1.421875-1.703125 3.804687-2.253906 5.832031-1.375 2.03125.886719 3.238282 3.007813 2.957032 5.210938l-6.191407 48.933593c-.265625 2.085938-1.804687 3.785157-3.855469 4.25-1.171874.261719-2.203124.859376-2.980468 1.726563-1.265625 1.40625-1.75 3.351563-1.296875 5.199219.484375 1.988281-.289063 4.070312-1.953125 5.257812-.863282.621094-1.886719.933594-2.902344.933594zm-17.015625-21.851562 12.898437 8.273437c.675782-1.628906 1.625-3.152344 2.839844-4.5 1.34375-1.496094 2.945313-2.699219 4.726563-3.574219l3.675781-29.019531zm19.453125 7.117187h.019531zm0 0"/><path d="m132.664062 337.78125c-1.046874 0-2.097656-.328125-2.976562-.984375-1.671875-1.238281-2.398438-3.378906-1.832031-5.378906.542969-1.917969.089843-3.933594-1.222657-5.390625-.777343-.867188-1.804687-1.464844-2.96875-1.730469-2.046874-.460937-3.589843-2.160156-3.851562-4.246094l-6.207031-49.035156c-.269531-2.117187.835937-4.167969 2.75-5.113281l.433593-.210938c2.0625-1.019531 4.5625-.496094 6.039063 1.273438l38.898437 46.429687c.921876 1.101563 1.328126 2.546875 1.109376 3.96875-.214844 1.417969-1.035157 2.675781-2.242188 3.453125l-25.226562 16.175782c-.828126.527343-1.765626.789062-2.703126.789062zm-3.316406-22.011719c1.78125.871094 3.375 2.074219 4.71875 3.566407 1.273438 1.417968 2.257813 3.019531 2.929688 4.726562l13.417968-8.601562-24.859374-29.675782zm0 0"/><path d="m170.503906 321.605469h-12.609375c-1.480469 0-2.882812-.65625-3.832031-1.792969l-38.898438-46.429688c-.984374-1.175781-1.375-2.742187-1.058593-4.242187.316406-1.503906 1.304687-2.777344 2.683593-3.453125l1.253907-.621094c4.0625-2.003906 6.582031-6.054687 6.582031-10.585937v-6.320313c0-1.679687.84375-3.25 2.246094-4.175781 1.40625-.921875 3.179687-1.082031 4.722656-.421875 7.582031 3.246094 15.636719 4.894531 23.949219 4.894531h16.117187c8.5 0 16.738282-1.730469 24.492188-5.140625 1.546875-.679687 3.335937-.53125 4.746094.390625 1.414062.921875 2.265624 2.496094 2.265624 4.1875v6.585938c0 4.527343 2.523438 8.582031 6.582032 10.585937l1.691406.832032c1.375.675781 2.363281 1.953124 2.679688 3.453124.316406 1.503907-.074219 3.066407-1.058594 4.242188l-38.71875 46.21875c-.953125 1.136719-2.359375 1.792969-3.835938 1.792969zm-10.277344-10h7.941407l33.421875-39.894531c-5.117188-3.945313-8.226563-9.964844-8.417969-16.585938-6.933594 2.214844-14.136719 3.335938-21.511719 3.335938h-16.121094c-7.167968 0-14.183593-1.054688-20.929687-3.144532-.238281 6.386719-3.195313 12.199219-8.042969 16.109375zm0 0"/></g></svg>