<svg height="511pt" viewBox="-89 0 511 511.992" width="511pt" xmlns="http://www.w3.org/2000/svg"><path d="m327.933594 493.078125-9.628906-172.867187c-.726563-13.054688-9.855469-24.117188-22.535157-27.3125l-22.1875-5.582032c1.027344 1.835938 1.179688 4.140625.050781 6.171875-8.917968 16.015625-19.839843 30.949219-32.691406 44.355469-16.746094 17.476562-36.765625 33.4375-60.183594 44.535156-2.058593.980469-4.203124 1.707032-6.382812 2.230469v9.109375h17.566406v14.78125h-17.566406v42.074219h-14.78125v-42.074219h-17.222656v-14.78125h17.222656v-8.964844c-2.359375-.527344-4.675781-1.316406-6.902344-2.375-23.414062-11.097656-43.4375-27.058594-60.183594-44.53125-12.851562-13.410156-23.777343-28.34375-32.691406-44.359375-1.128906-2.03125-.980468-4.335937.050782-6.171875l-22.1875 5.585938c-12.675782 3.191406-21.808594 14.253906-22.535157 27.308594l-9.625 172.867187c-.421875 7.558594 5.589844 13.914063 13.15625 13.914063h296.101563c7.5625 0 13.578125-6.359376 13.15625-13.914063zm0 0" fill="#515050"/><path d="m191.941406 393.71875h-17.566406v-21.214844h-14.78125v21.214844h-17.222656v14.78125h17.222656v42.074219h14.78125v-42.074219h17.566406zm0 0" fill="#fcbd4c"/><path d="m63.835938 284.230469 14.070312-3.542969c7.933594-1.996094 15.769531-4.363281 23.480469-7.09375l8.324219-4.105469c9.378906-4.625 12.097656-16.429687 6.429687-24.550781-14.125-20.234375-21.304687-44.386719-21.363281-68.738281-2.5625-12.242188-3.257813-24.933594-1.90625-37.625l1.925781-18.1875c.195313-1.847657.875-3.574219 1.921875-5.046875.007812-1.195313.011719-2.34375.015625-3.453125.164063-38.292969 30.867187-69.816407 69.160156-70.15625.273438 0 .554688-.003907.828125-.003907 3.636719 0 7.226563.214844 10.75.625 34.984375 4.085938 60.964844 34.460938 61.03125 69.683594.003906 2.039063.007813 4.222656.019532 6.566406 0-.003906 0-.003906 0-.003906.113281.480469.207031.96875.253906 1.472656l1.796875 18.503907c1.351562 12.691406.65625 25.386719-1.90625 37.628906v-.003906c-.058594 24.230469-7.152344 47.917969-20.753907 67.808593-4.984374 7.289063-4.015624 20.632813 6.515626 25.824219l8.691406 4.285157c7.003906 2.382812 14.105468 4.480468 21.28125 6.285156l15.210937 3.828125c1.792969.453125 3.15625 1.625 3.972657 3.085937l.996093.25v-149.660156c0-78.292969-48.429687-132.90625-107.503906-132.90625-59.070313 0-106.417969 54.613281-106.417969 132.90625v148.289062c.8125-.914062 1.875-1.636718 3.175782-1.964843zm0 0" fill="#3f3f3f"/><path d="m233.058594 111.609375c3.214844 1.667969 5.371094 4.855469 5.722656 8.457031l1.796875 18.503906c3.757813 35.347657-8.097656 70.78125-33.054687 96.089844-9.210938 9.339844-20.214844 17.867188-33.085938 23.796875-4.898438 2.253907-10.527344 2.253907-15.425781 0-12.871094-5.929687-23.875-14.457031-33.085938-23.796875-24.957031-25.304687-36.816406-60.738281-33.054687-96.085937l1.925781-18.1875c.375-3.546875 2.503906-6.675781 5.664063-8.339844l.824218-.664063c38.515625-30.917968 93.363282-30.820312 131.773438.226563zm0 0" fill="#fcb275"/><path d="m96.71875 115.339844c1.414062-1.992188 2.609375-2.546875 4.566406-3.957032 38.515625-30.917968 93.363282-30.824218 131.773438.226563 2.769531 1.4375 4.746094 4.003906 5.464844 6.992187-.011719-2.34375-.015626-4.527343-.019532-6.566406-.066406-35.222656-26.046875-65.597656-61.03125-69.683594-3.523437-.410156-7.113281-.625-10.75-.625-.277344 0-.554687.003907-.828125.003907-38.292969.339843-68.996093 31.863281-69.160156 70.15625-.003906 1.109375-.007813 2.257812-.015625 3.453125zm0 0" fill="#e8e6e6"/><path d="m269.613281 284.230469-15.210937-3.828125c-7.175782-1.804688-14.277344-3.90625-21.28125-6.285156l-8.691406-4.285157c-10.53125-5.191406-11.5-18.53125-6.515626-25.824219 13.605469-19.890624 20.695313-43.578124 20.753907-67.808593-4.566407 21.851562-15.152344 42.242187-31.148438 58.464843-9.207031 9.339844-20.210937 17.867188-33.085937 23.792969-4.898438 2.257813-10.527344 2.257813-15.425782 0-12.871093-5.925781-23.875-14.453125-33.085937-23.792969-15.996094-16.222656-26.578125-36.613281-31.148437-58.464843.058593 24.351562 7.238281 48.503906 21.363281 68.738281 5.667969 8.121094 2.949219 19.925781-6.429688 24.550781l-8.324219 4.105469c-7.710937 2.726562-15.546874 5.097656-23.480468 7.09375l-14.070313 3.542969c-4.050781 1.019531-6.054687 5.609375-4.023437 9.257812 8.917968 16.015625 19.839844 30.949219 32.691406 44.355469 16.75 17.476562 36.769531 33.4375 60.183594 44.535156 2.226562 1.054688 4.542968 1.84375 6.902344 2.375v-12.25h14.785156v12.105469c2.175781-.523437 4.320312-1.25 6.382812-2.230469 23.414063-11.097656 43.433594-27.058594 60.183594-44.535156 12.851562-13.40625 23.773438-28.339844 32.691406-44.355469 2.035156-3.648437.03125-8.242187-4.015625-9.257812zm0 0" fill="#e8e6e6"/><g fill="#231f20"><path d="m314.773438 511.992188h-296.097657c-4.976562 0-9.789062-2.074219-13.207031-5.6875-3.417969-3.617188-5.222656-8.539063-4.945312-13.503907l9.628906-172.867187c.851562-15.324219 11.425781-28.136719 26.308594-31.882813l22.183593-5.582031c1.9375-.492188 3.976563.222656 5.191407 1.808594 1.214843 1.582031 1.367187 3.738281.394531 5.480468-.144531.257813-.339844.765626-.042969 1.296876 8.820312 15.847656 19.566406 30.425781 31.933594 43.332031 18.230468 19.023437 37.984375 33.652343 58.710937 43.476562 1.867188.882813 3.835938 1.5625 5.855469 2.011719 2.285156.507812 3.90625 2.535156 3.90625 4.878906v8.964844c0 2.761719-2.234375 5-5 5h-12.21875v4.78125h12.21875c2.765625 0 5 2.238281 5 5v37.074219h4.785156v-37.074219c0-2.761719 2.238282-5 5-5h12.566406v-4.78125h-12.566406c-2.761718 0-5-2.238281-5-5v-9.109375c0-2.3125 1.582032-4.320313 3.828125-4.863281 1.9375-.464844 3.757813-1.101563 5.414063-1.882813 20.722656-9.824219 40.480468-24.453125 58.710937-43.476562 12.367188-12.902344 23.109375-27.480469 31.9375-43.332031.292969-.53125.097657-1.039063-.046875-1.296876-.972656-1.742187-.820312-3.894531.394532-5.480468 1.210937-1.585938 3.25-2.300782 5.191406-1.808594l22.183594 5.582031c14.882812 3.75 25.457031 16.5625 26.308593 31.882813l9.625 172.867187c.277344 4.96875-1.523437 9.890625-4.941406 13.503907-3.421875 3.613281-8.238281 5.6875-13.210937 5.6875zm-260.234376-218.179688-15.640624 3.933594c-10.613282 2.675781-18.15625 11.8125-18.761719 22.742187l-9.628907 172.867188c-.125 2.269531.664063 4.425781 2.222657 6.078125 1.5625 1.648437 3.671875 2.558594 5.945312 2.558594h296.097657c2.269531 0 4.378906-.910157 5.941406-2.558594 1.5625-1.652344 2.351562-3.8125 2.226562-6.078125l-9.628906-172.871094c-.609375-10.925781-8.148438-20.066406-18.765625-22.738281l-15.636719-3.9375c-.226562.722656-.527344 1.429687-.90625 2.109375-9.242187 16.597656-20.496094 31.867187-33.453125 45.382812-19.078125 19.910157-39.820312 35.25-61.648437 45.59375-1.128906.539063-2.308594 1.019531-3.527344 1.445313v.375h12.570312c2.761719 0 5 2.238281 5 5v14.78125c0 2.765625-2.238281 5-5 5h-12.570312v37.078125c0 2.761719-2.238281 5-5 5h-14.78125c-2.761719 0-5-2.238281-5-5v-37.074219h-12.222656c-2.761719 0-5-2.238281-5-5v-14.78125c0-2.761719 2.238281-5 5-5h12.222656v-.183594c-1.378906-.46875-2.734375-1.015625-4.046875-1.640625-21.828125-10.34375-42.574219-25.683593-61.648437-45.589843-12.957032-13.519532-24.210938-28.789063-33.449219-45.382813-.382813-.679687-.683594-1.386719-.910157-2.109375zm0 0"/><path d="m166.722656 369.929688c-35.96875 0-63.046875-49.238282-71.203125-97.871094-.457031-2.722656 1.378907-5.300782 4.105469-5.757813 2.726562-.464843 5.300781 1.378907 5.757812 4.101563 8.5625 51.039062 34.929688 89.527344 61.339844 89.527344s52.78125-38.488282 61.34375-89.527344c.457032-2.71875 3.035156-4.566406 5.757813-4.101563 2.722656.457031 4.558593 3.035157 4.101562 5.757813-8.15625 48.636718-35.234375 97.871094-71.203125 97.871094zm0 0"/><path d="m166.722656 377.503906c-2.761718 0-5-2.238281-5-5v-13.644531c0-2.761719 2.238282-5 5-5 2.761719 0 5 2.238281 5 5v13.644531c0 2.761719-2.238281 5-5 5zm0 0"/><path d="m166.859375 216.925781c-9.402344 0-18.164063-4.65625-23.4375-12.457031-1.542969-2.289062-.945313-5.398438 1.34375-6.941406 2.289063-1.546875 5.398437-.949219 6.941406 1.339844 3.410157 5.046874 9.074219 8.058593 15.152344 8.058593 6.074219 0 11.742187-3.011719 15.148437-8.058593 1.542969-2.289063 4.652344-2.890626 6.941407-1.339844 2.289062 1.542968 2.886719 4.652344 1.34375 6.941406-5.269531 7.800781-14.03125 12.457031-23.433594 12.457031zm0 0"/><path d="m185.058594 142.59375c-1.789063 0-3.519532-.964844-4.417969-2.65625-1.296875-2.4375-.367187-5.464844 2.070313-6.761719 3.179687-1.691406 7.996093-2.660156 13.210937-2.660156s10.03125.96875 13.210937 2.664063c2.4375 1.292968 3.363282 4.324218 2.066407 6.761718s-4.324219 3.359375-6.761719 2.066406c-1.292969-.6875-4.296875-1.492187-8.515625-1.492187-4.214844 0-7.222656.800781-8.515625 1.492187-.75.394532-1.554688.585938-2.347656.585938zm0 0"/><path d="m148.386719 142.59375c-.792969 0-1.59375-.191406-2.34375-.585938-1.292969-.691406-4.296875-1.492187-8.515625-1.492187s-7.222656.800781-8.515625 1.492187c-2.4375 1.296876-5.464844.371094-6.761719-2.066406-1.292969-2.4375-.371094-5.46875 2.066406-6.761718 3.179688-1.695313 7.996094-2.664063 13.214844-2.664063 5.214844 0 10.03125.96875 13.210938 2.660156 2.4375 1.296875 3.363281 4.324219 2.066406 6.761719-.902344 1.691406-2.632813 2.65625-4.421875 2.65625zm0 0"/><path d="m138.390625 163.527344c-3.3125 0-6-2.6875-6-6v-1.1875c0-3.316406 2.6875-6 6-6 3.316406 0 6 2.683594 6 6v1.1875c0 3.3125-2.683594 6-6 6zm0 0"/><path d="m195.324219 164.4375c-3.3125 0-6-2.6875-6-6v-1.191406c0-3.3125 2.6875-6 6-6 3.316406 0 6 2.6875 6 6v1.191406c0 3.3125-2.683594 6-6 6zm0 0"/><path d="m269.324219 509.160156c-2.761719 0-5-2.238281-5-5v-111.964844c0-2.761718 2.238281-5 5-5s5 2.238282 5 5v111.964844c0 2.761719-2.238281 5-5 5zm0 0"/><path d="m64.121094 509.160156c-2.761719 0-5-2.238281-5-5v-111.964844c0-2.761718 2.238281-5 5-5 2.761718 0 5 2.238282 5 5v111.964844c0 2.761719-2.238282 5-5 5zm0 0"/><path d="m174.375 455.574219h-14.78125c-2.761719 0-5-2.234375-5-5v-37.074219h-12.222656c-2.761719 0-5-2.238281-5-5v-14.78125c0-2.761719 2.238281-5 5-5h12.222656v-16.214844c0-2.761718 2.238281-5 5-5h14.78125c2.761719 0 5 2.238282 5 5v16.214844h12.570312c2.761719 0 5 2.238281 5 5v14.78125c0 2.761719-2.238281 5-5 5h-12.570312v37.074219c0 2.761719-2.238281 5-5 5zm-9.78125-10h4.78125v-37.074219c0-2.761719 2.238281-5 5-5h12.570312v-4.78125h-12.570312c-2.761719 0-5-2.238281-5-5v-16.214844h-4.78125v16.214844c0 2.761719-2.238281 5-5 5h-12.222656v4.78125h12.222656c2.761719 0 5 2.238281 5 5zm0 0"/><path d="m274.582031 292.566406c-.410156 0-.820312-.046875-1.21875-.152344l-1-.25c-1.332031-.335937-2.472656-1.207031-3.144531-2.410156-.199219-.359375-.480469-.589844-.828125-.675781l-15.210937-3.828125c-7.28125-1.835938-14.570313-3.984375-21.667969-6.402344-.207031-.070312-.40625-.152344-.601563-.25l-8.691406-4.285156c-5.71875-2.820312-9.773438-7.828125-11.417969-14.097656-1.714843-6.539063-.566406-13.832032 2.992188-19.035156 12.945312-18.933594 19.824219-41.410157 19.878906-64.996094 0-.339844.035156-.671875.105469-1.007813 2.492187-11.914062 3.109375-24.050781 1.832031-36.078125l-1.804687-18.546875c-.027344-.265625-.082032-.527343-.140626-.785156-.09375-.378906-.136718-.761719-.136718-1.148437l-.019532-6.574219c-.0625-33.140625-24.398437-60.964844-56.613281-64.726563-3.351562-.390625-6.773437-.589844-10.167969-.589844l-.777343.003907c-35.257813.3125-64.0625 29.550781-64.210938 65.175781l-.019531 3.457031c-.003906 1.027344-.328125 2.027344-.921875 2.867188-.570313.804687-.925781 1.734375-1.027344 2.683593l-1.925781 18.1875c-1.28125 12.019532-.667969 24.15625 1.828125 36.074219.070313.332031.105469.667969.105469 1.007813.0625 24.015625 7.136718 46.796875 20.464844 65.886718 3.585937 5.140626 4.734374 11.621094 3.148437 17.785157-1.582031 6.160156-5.761719 11.304687-11.46875 14.117187l-8.320313 4.101563c-.179687.085937-.359374.164062-.542968.230469-7.824219 2.769531-15.875 5.203124-23.925782 7.230468l-14.074218 3.539063c-.152344.039062-.382813.125-.65625.4375-1.375 1.554687-3.574219 2.097656-5.515625 1.359375-1.941407-.738282-3.226563-2.597656-3.226563-4.675782v-148.285156c0-78.621094 47.898438-137.910156 111.417969-137.910156 64.136719 0 112.5 59.289062 112.5 137.910156v149.65625c0 1.542969-.707031 2.996094-1.925781 3.945313-.882813.691406-1.972656 1.054687-3.070313 1.054687zm-39.542969-23.082031c6.746094 2.289063 13.667969 4.328125 20.582032 6.066406l13.957031 3.515625v-141.15625c.003906-72.921875-44.0625-127.910156-102.5-127.910156-57.816406 0-101.417969 54.988281-101.417969 127.910156v140.707032l11.027344-2.777344c7.65625-1.929688 15.308594-4.234375 22.753906-6.863282l8.054688-3.972656c3.132812-1.542968 5.335937-4.257812 6.207031-7.636718.859375-3.335938.25-6.824219-1.664063-9.570313-14.40625-20.632813-22.097656-45.199219-22.261718-71.074219-2.621094-12.777344-3.25-25.789062-1.878906-38.675781l1.921874-18.183594c.222657-2.085937.875-4.125 1.902344-5.964843l.011719-2.027344c.171875-41.066406 33.417969-74.773438 74.113281-75.132813l.875-.007812c3.78125 0 7.59375.21875 11.332032.65625 37.242187 4.347656 65.378906 36.433593 65.449218 74.640625l.019532 6.019531c.105468.527344.183593 1.035156.230468 1.539063l1.800782 18.503906c1.363281 12.847656.734374 25.855468-1.886719 38.625-.160157 25.417968-7.632813 49.652344-21.625 70.109375-1.9375 2.835937-2.554688 7.097656-1.570313 10.855469.632813 2.421874 2.21875 5.71875 6.167969 7.664062zm0 0"/><path d="m166.722656 265.148438c-3.34375 0-6.6875-.714844-9.804687-2.152344-12.246094-5.636719-23.871094-13.992188-34.550781-24.824219-25.882813-26.242187-38.449219-62.738281-34.46875-100.128906l1.925781-18.179688c.535156-5.039062 3.453125-9.480469 7.839843-11.988281l.488282-.390625c39.929687-32.050781 97.753906-32.046875 137.683594-.050781 4.472656 2.515625 7.417968 7.019531 7.917968 12.152344l1.796875 18.503906c3.976563 37.34375-8.589843 73.835937-34.472656 100.085937-10.679687 10.832031-22.304687 19.183594-34.550781 24.820313-3.113282 1.4375-6.460938 2.152344-9.804688 2.152344zm.304688-171.726563c-22.230469 0-44.457032 7.285156-62.613282 21.859375l-.828124.664062c-.246094.199219-.511719.375-.792969.523438-1.695313.894531-2.824219 2.554688-3.023438 4.445312l-1.929687 18.1875c-3.660156 34.394532 7.875 67.949219 31.644531 92.050782 9.832031 9.96875 20.46875 17.628906 31.617187 22.761718 3.570313 1.644532 7.667969 1.648438 11.242188 0 11.148438-5.132812 21.785156-12.789062 31.617188-22.761718 23.769531-24.101563 35.300781-57.65625 31.644531-92.046875l-1.800781-18.550781c-.1875-1.925782-1.328126-3.613282-3.050782-4.503907-.296875-.15625-.578125-.339843-.839844-.546875-18.199218-14.71875-40.542968-22.082031-62.886718-22.082031zm0 0"/><path d="m238.519531 123.601562c-2.28125 0-4.308593-1.5625-4.855469-3.828124-.386718-1.609376-1.449218-2.96875-2.910156-3.726563-.296875-.152344-.582031-.335937-.839844-.546875-36.308593-29.351562-89.089843-29.445312-125.5-.214844-.066406.054688-.132812.105469-.203124.15625-.445313.320313-.851563.597656-1.230469.859375-1.183594.8125-1.582031 1.082031-2.183594 1.933594-1.261719 1.78125-3.539063 2.535156-5.609375 1.867187-2.078125-.667968-3.484375-2.605468-3.46875-4.789062l.015625-3.441406c.175781-41.066406 33.421875-74.773438 74.117187-75.132813l.871094-.007812c3.78125 0 7.59375.21875 11.332032.65625 37.242187 4.347656 65.378906 36.433593 65.449218 74.640625l.019532 6.550781c.011718 2.539063-1.882813 4.679687-4.398438 4.984375-.203125.027344-.40625.039062-.605469.039062zm-71.492187-40.160156c23.347656 0 46.6875 7.300782 66.128906 21.910156-3.070312-30.125-26.246094-54.527343-56.265625-58.03125-3.351563-.390624-6.773437-.589843-10.167969-.589843l-.777344.003906c-32.746093.292969-59.917968 25.53125-63.75 57.660156 19.183594-13.972656 42.007813-20.953125 64.832032-20.953125zm0 0"/><path d="m159.59375 389.753906c-.363281 0-.726562-.042968-1.089844-.121094-2.746094-.613281-5.421875-1.535156-7.957031-2.738281-21.832031-10.34375-42.574219-25.683593-61.652344-45.589843-12.957031-13.519532-24.210937-28.789063-33.449219-45.382813-1.726562-3.105469-1.90625-6.757813-.496093-10.019531 1.414062-3.273438 4.207031-5.652344 7.664062-6.523438l14.074219-3.539062c7.65625-1.929688 15.308594-4.238282 22.753906-6.863282l8.054688-3.972656c3.132812-1.546875 5.335937-4.257812 6.207031-7.640625.859375-3.335937.25-6.824219-1.664063-9.566406-14.5-20.769531-22.199218-45.527344-22.265624-71.585937-.003907-2.566407 1.929687-4.71875 4.480468-4.988282 2.535156-.273437 4.890625 1.4375 5.414063 3.953125 4.472656 21.371094 14.78125 40.726563 29.820312 55.976563 9.832031 9.96875 20.46875 17.628906 31.617188 22.761718 3.570312 1.648438 7.667969 1.644532 11.238281 0 11.148438-5.128906 21.785156-12.789062 31.621094-22.761718 15.03125-15.246094 25.34375-34.601563 29.816406-55.976563.523438-2.511719 2.871094-4.222656 5.414062-3.949219 2.550782.265626 4.484376 2.417969 4.480469 4.984376-.0625 25.601562-7.542969 50.023437-21.628906 70.617187-1.9375 2.835937-2.554687 7.097656-1.570313 10.855469.632813 2.421875 2.21875 5.71875 6.167969 7.664062l8.394531 4.140625c6.746094 2.285157 13.671876 4.324219 20.585938 6.066407l15.207031 3.828124c3.457031.871094 6.25 3.246094 7.667969 6.519532 1.410156 3.265625 1.230469 6.917968-.496094 10.019531-9.242187 16.597656-20.496094 31.867187-33.453125 45.382813-19.078125 19.910156-39.820312 35.25-61.648437 45.59375-2.277344 1.078124-4.75 1.945312-7.355469 2.570312-1.488281.355469-3.0625.015625-4.265625-.933594-1.203125-.945312-1.90625-2.394531-1.90625-3.925781v-7.105469h-4.78125v7.25c0 1.519532-.691406 2.953125-1.875 3.902344-.894531.714844-2 1.097656-3.125 1.097656zm-50.332031-167.363281c2.980469 6.894531 6.652343 13.484375 10.976562 19.683594 3.585938 5.140625 4.734375 11.621093 3.152344 17.78125-1.585937 6.160156-5.765625 11.304687-11.46875 14.117187l-8.324219 4.105469c-.175781.085937-.355468.164063-.542968.226563-7.824219 2.769531-15.875 5.207031-23.925782 7.230468l-14.074218 3.542969c-.570313.144531-.828126.558594-.925782.792969-.125.277344-.210937.710937.050782 1.183594 8.824218 15.847656 19.570312 30.425781 31.9375 43.332031 18.164062 18.953125 37.835937 33.542969 58.476562 43.363281v-5.242188c0-2.765624 2.238281-5 5-5h14.78125c2.761719 0 5 2.234376 5 5v4.996094c20.449219-9.820312 39.945312-24.320312 57.957031-43.117187 12.363281-12.902344 23.109375-27.480469 31.933594-43.332031.265625-.472657.175781-.90625.054687-1.183594-.101562-.234375-.355468-.648438-.929687-.792969l-15.210937-3.824219c-7.28125-1.835937-14.570313-3.988281-21.667969-6.402344-.207031-.070312-.40625-.15625-.601563-.25l-8.691406-4.289062c-5.71875-2.820312-9.773438-7.824219-11.417969-14.097656-1.714843-6.535156-.566406-13.828125 2.992188-19.03125 4.039062-5.914063 7.492187-12.167969 10.328125-18.695313-3.882813 5.574219-8.238282 10.820313-13.039063 15.6875-10.683593 10.832031-22.308593 19.183594-34.550781 24.824219-6.234375 2.867188-13.378906 2.867188-19.609375 0-12.246094-5.640625-23.871094-13.992188-34.550781-24.824219-4.832032-4.894531-9.210938-10.175781-13.109375-15.785156zm0 0"/></g></svg>