<svg height="512pt" viewBox="-87 0 512 512.01746" width="512pt" xmlns="http://www.w3.org/2000/svg"><path d="m333.488281 492.839844-9.808593-176.105469c-.742188-13.296875-10.042969-24.570313-22.960938-27.820313l-42.140625-10.609374c-7.3125-1.839844-14.542969-3.976563-21.679687-6.402344l-7.617188-3.757813c-.015625.566407-.191406 1.128907-.601562 1.574219-22.152344 24.175781-47.917969 24.222656-47.917969 24.222656v39.511719c0 6.355469-5.152344 11.503906-11.503907 11.503906-6.355468 0-11.503906-5.148437-11.503906-11.503906v-39.511719s-25.765625-.046875-47.917968-24.21875c-.40625-.445312-.585938-1.007812-.601563-1.574218l-6.539063 3.222656c-7.855468 2.78125-15.835937 5.195312-23.917968 7.226562l-40.980469 10.316406c-12.917969 3.253907-22.21875 14.527344-22.960937 27.824219l-9.808594 176.105469c-.429688 7.699219 5.699218 14.171875 13.40625 14.171875h301.644531c7.714844 0 13.839844-6.476563 13.410156-14.175781zm0 0" fill="#3f3f3f"/><path d="m193.191406 400.394531h-16.84375v-20.34375h-14.175781v20.34375h-16.515625v14.175781h16.515625v40.347657h14.175781v-40.347657h16.84375zm0 0" fill="#fcbd4c"/><path d="m333.488281 492.839844-9.808593-176.105469c-.4375-7.816406-3.84375-14.914063-9.191407-20.113281-28.222656 23.878906-40.707031 77.625-40.707031 114.890625v92.621093l.429688 2.882813h45.867187c7.714844 0 13.839844-6.476563 13.410156-14.175781zm0 0" fill="#515050"/><path d="m5.027344 492.839844 9.8125-176.105469c.433594-7.816406 3.84375-14.914063 9.1875-20.113281 28.222656 23.878906 40.710937 77.625 40.710937 114.890625v92.621093l-.429687 2.882813h-45.871094c-7.710938 0-13.839844-6.476563-13.410156-14.175781zm0 0" fill="#515050"/><path d="m228.515625 266.265625-13.449219-12.386719c-2.1875-2.015625-5.59375-1.75-7.484375.542969-3.859375 4.679687-11.21875 11.554687-22.078125 13.164063-2.722656.402343-4.742187 2.738281-4.742187 5.488281v20.867187s25.765625-.046875 47.917969-24.21875c.90625-.992187.824218-2.546875-.164063-3.457031zm0 0" fill="#515050"/><path d="m153.015625 267.585938c-10.859375-1.609376-18.21875-8.484376-22.078125-13.164063-1.890625-2.292969-5.296875-2.558594-7.484375-.542969l-13.449219 12.386719c-.988281.910156-1.074218 2.464844-.164062 3.457031 22.152344 24.171875 47.914062 24.21875 47.914062 24.21875v-20.867187c0-2.75-2.015625-5.085938-4.738281-5.488281zm0 0" fill="#515050"/><path d="m157.753906 276.183594h23.007813v17.757812h-23.007813zm0 0" fill="#e8e6e6"/><path d="m153.015625 267.585938c2.722656.402343 4.738281 2.738281 4.738281 5.488281v3.109375h23.007813v-3.109375c0-2.75 2.019531-5.085938 4.742187-5.488281 10.773438-1.597657 18.097656-8.375 21.984375-13.050782-1.726562-2.734375-2.695312-5.941406-2.695312-9.296875v-9.054687c-3.757813 1.859375-7.167969 3.449218-10.632813 4.78125-15.324218 5.898437-32.398437 5.898437-47.71875 0-4.09375-1.578125-8.113281-3.507813-12.714844-5.820313v10.09375c0 3.355469-.972656 6.5625-2.695312 9.292969 3.882812 4.679688 11.207031 11.457031 21.984375 13.054688zm0 0" fill="#fcb275"/><path d="m239.621094 188.335938-.941406-76.351563c0-2.121094-1.90625-3.890625-3.984376-3.453125-.015624.003906-.03125.007812-.046874.011719-50.628907 11.148437-88.429688-12.988281-102.167969-23.710938-2.363281-1.84375-5.785157-.703125-6.691407 2.148438-3.898437 12.246093-15.609374 17.734375-21.617187 19.589843-1.742187.539063-3.652344 2.089844-3.792969 3.90625v3.914063l.601563 73.945313c-1.761719 17.28125 7.238281 33.953124 22.761719 41.75 9.386718 4.710937 15.921874 8.269531 22.699218 10.878906 15.320313 5.898437 32.394532 5.898437 47.71875 0 6.777344-2.605469 13.316406-6.164063 22.699219-10.878906 15.523437-7.792969 24.527344-24.46875 22.761719-41.75zm0 0" fill="#fcb275"/><path d="m238.546875 111.066406c.082031.296875.132813.601563.132813.917969l.753906 61.066406c16.613281-.636719 29.898437-14.257812 29.898437-31.027343 0-17.253907-14-30.816407-30.785156-30.957032zm0 0" fill="#fcb275"/><path d="m100.378906 114.394531c0-1.054687 0-2.160156 0-3.304687-16.070312.949218-29.195312 14.238281-29.195312 30.949218 0 16.691407 13.167968 30.257813 29.671875 31.007813zm0 0" fill="#fcb275"/><path d="m78.136719 122.511719c5.363281-6.578125 13.34375-10.894531 22.242187-11.421875 0-.207032 0-.402344 0-.613282.140625-1.816406 2.050782-3.367187 3.792969-3.90625 6.007813-1.855468 17.71875-7.34375 21.617187-19.585937.90625-2.855469 4.332032-3.992187 6.691407-2.152344 13.738281 10.722657 51.539062 34.859375 102.167969 23.710938.015624-.003907.03125-.003907.046874-.007813 1.769532-.371094 3.398438.855469 3.851563 2.535156 8.265625.066407 15.84375 3.402344 21.417969 8.816407 2.46875-23.074219-.367188-41.773438-4.871094-56.035157-6.660156-21.070312-22.476562-37.964843-42.710938-46.839843-87.664062-38.445313-110.878906 27.875-110.878906 27.875-25.738281 10.835937-31.25 48.828125-23.917968 75.785156zm0 0" fill="#7c292e"/><path d="m157.753906 293.941406h23.007813v39.515625c0 6.351563-5.148438 11.503907-11.503907 11.503907-6.351562 0-11.503906-5.152344-11.503906-11.503907zm0 0" fill="#e8e6e6"/><g fill="#231f20"><path d="m320.082031 512.015625h-301.648437c-5.039063 0-9.921875-2.101563-13.386719-5.761719-3.464844-3.664062-5.292969-8.652344-5.0078125-13.6875l9.8046875-176.109375c.871094-15.570312 11.613281-28.585937 26.734375-32.390625l40.980469-10.316406c7.796875-1.960938 15.597656-4.316406 23.195312-6.996094l6.273438-3.089844c1.527344-.753906 3.339844-.679687 4.800781.207032 1.148437.695312 1.953125 1.8125 2.265625 3.085937 20.304688 21.6875 43.4375 21.988281 43.671875 21.988281 2.757813.003907 4.992187 2.238282 4.992187 5v39.511719c0 3.585938 2.917969 6.503907 6.503907 6.503907 3.585937 0 6.503906-2.917969 6.503906-6.503907v-39.515625c0-2.757812 2.234375-4.996094 4.992187-5 .214844 0 23.523438-.464844 43.667969-21.984375.3125-1.277343 1.121094-2.394531 2.269531-3.085937 1.460938-.886719 3.273438-.960938 4.800782-.210938l7.324218 3.613282c6.882813 2.332031 13.941407 4.410156 20.984376 6.183593l42.136718 10.605469c15.125 3.808594 25.867188 16.828125 26.730469 32.394531l9.8125 176.105469c.277344 5.035156-1.546875 10.023438-5.011719 13.6875-3.46875 3.664062-8.347656 5.765625-13.390625 5.765625zm-212.558593-237.449219-2.617188 1.289063c-.175781.085937-.355469.164062-.542969.226562-7.972656 2.824219-16.171875 5.300781-24.363281 7.367188l-40.984375 10.3125c-10.851563 2.734375-18.566406 12.078125-19.1875 23.253906l-9.808594 176.109375c-.128906 2.335938.6875 4.554688 2.292969 6.257812 1.609375 1.699219 3.78125 2.632813 6.125 2.632813h301.644531c2.339844 0 4.515625-.933594 6.125-2.632813 1.609375-1.703124 2.421875-3.925781 2.292969-6.261718l-9.8125-176.105469c-.621094-11.175781-8.332031-20.519531-19.1875-23.253906l-42.140625-10.605469c-7.40625-1.863281-14.832031-4.058594-22.066406-6.519531-.207031-.070313-.410157-.152344-.605469-.25l-3.695312-1.820313c-17.335938 18.089844-36.386719 22.757813-45.230469 23.960938v34.929687c0 9.097657-7.402344 16.503907-16.503907 16.503907-9.097656 0-16.503906-7.40625-16.503906-16.503907v-34.929687c-8.84375-1.203125-27.890625-5.867188-45.230468-23.960938zm0 0"/><path d="m169.183594 211.058594c-9.085938 0-17.546875-4.5-22.640625-12.039063-1.546875-2.285156-.945313-5.394531 1.34375-6.941406 2.285156-1.546875 5.394531-.941406 6.941406 1.34375 3.230469 4.785156 8.597656 7.636719 14.355469 7.636719 5.761718 0 11.128906-2.851563 14.359375-7.636719 1.542969-2.285156 4.648437-2.886719 6.941406-1.34375 2.285156 1.546875 2.890625 4.65625 1.34375 6.941406-5.089844 7.539063-13.554687 12.039063-22.644531 12.039063zm0 0"/><path d="m207.46875 139.777344c-.792969 0-1.59375-.1875-2.34375-.585938-1.21875-.648437-4.066406-1.40625-8.070312-1.40625-4.007813 0-6.855469.757813-8.074219 1.40625-2.433594 1.292969-5.464844.371094-6.761719-2.066406-1.296875-2.441406-.371094-5.46875 2.070312-6.761719 3.074219-1.636719 7.730469-2.578125 12.761719-2.578125s9.6875.9375 12.765625 2.578125c2.4375 1.292969 3.363282 4.320313 2.066406 6.761719-.894531 1.6875-2.625 2.652344-4.414062 2.652344zm0 0"/><path d="m151.472656 139.777344c-.792968 0-1.59375-.1875-2.34375-.585938-1.21875-.648437-4.066406-1.40625-8.070312-1.40625-4.007813 0-6.851563.757813-8.074219 1.40625-2.433594 1.292969-5.464844.371094-6.761719-2.066406-1.296875-2.441406-.371094-5.46875 2.070313-6.761719 3.074219-1.636719 7.730469-2.578125 12.761719-2.578125s9.6875.9375 12.765624 2.578125c2.4375 1.292969 3.363282 4.320313 2.066407 6.761719-.894531 1.6875-2.625 2.652344-4.414063 2.652344zm0 0"/><path d="m141.886719 159.894531c-3.3125 0-6-2.6875-6-6v-1.140625c0-3.3125 2.6875-6 6-6s6 2.6875 6 6v1.140625c0 3.3125-2.6875 6-6 6zm0 0"/><path d="m196.484375 160.765625c-3.316406 0-6-2.6875-6-6v-1.140625c0-3.3125 2.683594-6 6-6 3.3125 0 6 2.6875 6 6v1.140625c0 3.3125-2.6875 6-6 6zm0 0"/><path d="m169.007812 377.789062c-39.210937 0-71.109374-48.75-71.109374-108.675781 0-2.761719 2.238281-5 5-5 2.761718 0 5 2.238281 5 5 0 54.410157 27.414062 98.675781 61.109374 98.675781 33.699219 0 61.113282-44.265624 61.113282-98.675781 0-2.761719 2.238281-5 5-5 2.761718 0 5 2.238281 5 5 0 59.925781-31.902344 108.675781-71.113282 108.675781zm0 0"/><path d="m169.007812 385.054688c-2.761718 0-5-2.238282-5-5v-13.085938c0-2.761719 2.238282-5 5-5 2.761719 0 5 2.238281 5 5v13.085938c0 2.757812-2.238281 5-5 5zm0 0"/><path d="m176.34375 459.917969h-14.171875c-2.761719 0-5-2.238281-5-5v-35.347657h-11.515625c-2.761719 0-5-2.238281-5-5v-14.175781c0-2.761719 2.238281-5 5-5h11.515625v-15.339843c0-2.761719 2.238281-5 5-5h14.171875c2.761719 0 5 2.238281 5 5v15.339843h11.847656c2.761719 0 5 2.238281 5 5v14.175781c0 2.761719-2.238281 5-5 5h-11.847656v35.347657c0 2.761719-2.238281 5-5 5zm-9.171875-10h4.171875v-35.347657c0-2.761718 2.238281-5 5-5h11.847656v-4.175781h-11.847656c-2.761719 0-5-2.238281-5-5v-15.339843h-4.171875v15.339843c0 2.761719-2.238281 5-5 5h-11.515625v4.175781h11.515625c2.761719 0 5 2.238282 5 5zm0 0"/><path d="m320.082031 512.015625h-45.867187c-2.476563 0-4.582032-1.808594-4.949219-4.257813l-.429687-2.886718c-.035157-.242188-.054688-.492188-.054688-.738282v-92.621093c0-39.863281 13.292969-94.011719 42.476562-118.707031 1.96875-1.664063 4.875-1.5625 6.71875.230468 6.402344 6.226563 10.199219 14.542969 10.695313 23.421875l9.808594 176.105469c.28125 5.035156-1.546875 10.023438-5.011719 13.6875s-8.34375 5.765625-13.386719 5.765625zm-41.300781-10h41.300781c2.339844 0 4.515625-.933594 6.125-2.632813 1.605469-1.703124 2.421875-3.925781 2.289063-6.261718l-9.808594-176.105469c-.265625-4.785156-1.875-9.347656-4.613281-13.21875-23.1875 23.171875-35.292969 70.78125-35.292969 107.714844zm0 0"/><path d="m64.304688 512.015625h-45.867188c-5.042969 0-9.921875-2.101563-13.386719-5.765625-3.46875-3.664062-5.292969-8.652344-5.0117185-13.6875l9.8085935-176.105469c.492188-8.875 4.292969-17.195312 10.695313-23.417969 1.84375-1.796874 4.753906-1.898437 6.714843-.234374 13.574219 11.488281 24.804688 30.414062 32.476563 54.742187 6.355469 20.152344 10.003906 43.464844 10.003906 63.964844v92.621093c0 .25-.019531.496094-.054687.742188l-.433594 2.882812c-.367188 2.449219-2.472656 4.257813-4.945312 4.257813zm-54.285157-18.894531c-.128906 2.335937.6875 4.558594 2.292969 6.261718 1.609375 1.699219 3.785156 2.632813 6.125 2.632813h41.296875v-90.503906c0-36.933594-12.101563-84.542969-35.292969-107.714844-2.734375 3.871094-4.34375 8.433594-4.613281 13.21875zm0 0"/><path d="m180.761719 298.941406c-1.324219 0-2.59375-.527344-3.53125-1.460937-.9375-.9375-1.46875-2.210938-1.46875-3.539063v-20.867187c0-5.1875 3.875-9.671875 9.007812-10.433594 9-1.335937 15.273438-6.933594 18.953125-11.398437 1.78125-2.160157 4.394532-3.507813 7.175782-3.699219 2.734374-.1875 5.515624.777343 7.550781 2.65625l13.453125 12.386719c3.015625 2.78125 3.226562 7.496093.460937 10.511718-23.441406 25.585938-50.648437 25.863282-51.601562 25.84375zm26.820312-44.519531 3.855469 3.179687c-3.925781 4.761719-12.417969 13.035157-25.199219 14.929688-.273437.039062-.476562.269531-.476562.542969v15.308593c7.757812-1.308593 23.265625-5.667968 37.472656-20.183593l-11.558594-10.648438zm17.539063 15.515625c.003906.003906.003906.003906.007812.007812zm0 0"/><path d="m157.753906 298.941406c-1.003906-.019531-28.15625-.257812-51.601562-25.84375-2.761719-3.015625-2.554688-7.726562.460937-10.507812l13.453125-12.390625c2.035156-1.875 4.78125-2.847657 7.550782-2.65625 2.78125.191406 5.394531 1.539062 7.175781 3.699219 3.679687 4.464843 9.957031 10.0625 18.953125 11.398437 5.136718.761719 9.007812 5.246094 9.007812 10.433594v20.867187c0 1.328125-.527344 2.601563-1.46875 3.539063-.9375.933593-2.207031 1.460937-3.53125 1.460937zm-42.472656-30.742187c14.203125 14.507812 29.707031 18.875 37.472656 20.183593v-15.308593c0-.273438-.199218-.503907-.476562-.542969-12.777344-1.894531-21.273438-10.167969-25.199219-14.929688l-3.625-3.726562 3.386719 3.679688zm0 0"/><path d="m180.761719 298.941406h-23.007813c-2.761718 0-5-2.238281-5-5v-17.757812c0-2.761719 2.238282-5 5-5h23.007813c2.761719 0 5 2.238281 5 5v17.757812c0 2.761719-2.238281 5-5 5zm-18.007813-10h13.007813v-7.757812h-13.007813zm0 0"/><path d="m180.761719 281.183594h-23.007813c-2.761718 0-5-2.234375-5-5v-3.109375c0-.273438-.199218-.503907-.476562-.542969-12.066406-1.789062-20.308594-9.039062-25.09375-14.804688-1.382813-1.664062-1.535156-4.03125-.378906-5.859374 1.257812-1.996094 1.921874-4.289063 1.921874-6.625v-10.09375c0-1.738282.902344-3.347657 2.375-4.257813 1.476563-.910156 3.320313-.988281 4.871094-.210937 4.578125 2.304687 8.414063 4.140624 12.261719 5.625 14.230469 5.476562 29.902344 5.476562 44.125 0 2.921875-1.125 5.976563-2.5 10.210937-4.59375 1.546876-.769532 3.386719-.683594 4.855469.230468 1.472657.910156 2.367188 2.519532 2.367188 4.25v9.050782c0 2.339843.664062 4.632812 1.921875 6.625 1.152344 1.832031 1 4.195312-.382813 5.863281-4.785156 5.765625-13.023437 13.015625-25.09375 14.804687-.273437.039063-.476562.269532-.476562.542969v3.109375c0 2.757812-2.238281 4.996094-5 4.996094zm-18.179688-10h13.355469c.804688-4.351563 4.332031-7.875 8.832031-8.542969 7.378907-1.09375 12.925781-5.058594 16.703125-8.898437-1.105468-2.6875-1.679687-5.574219-1.679687-8.5v-1.183594c-1.332031.582031-2.59375 1.097656-3.835938 1.578125-16.542969 6.367187-34.765625 6.363281-51.308593 0-1.976563-.757813-3.917969-1.589844-5.917969-2.507813v2.117188c0 2.925781-.574219 5.8125-1.679688 8.5 3.777344 3.835937 9.324219 7.804687 16.699219 8.898437h.003906c4.492188.664063 8.019532 4.1875 8.828125 8.539063zm0 0"/><path d="m170.300781 250.40625c-8.691406 0-17.382812-1.589844-25.65625-4.773438-5.558593-2.140624-10.816406-4.816406-17.472656-8.203124-1.78125-.90625-3.664063-1.863282-5.675781-2.875-17.132813-8.605469-27.359375-27.242188-25.515625-46.445313l-.601563-77.632813c0-.132812.003906-.261718.015625-.394531.335938-4.25 4.023438-7.277343 7.300781-8.289062 3.417969-1.058594 14.835938-5.355469 18.328126-16.328125.933593-2.929688 3.230468-5.214844 6.148437-6.117188 2.878906-.890625 6.011719-.3125 8.386719 1.539063 13.328125 10.402343 49.558594 33.433593 98.015625 22.769531.050781-.011719.148437-.03125.199219-.042969 2.308593-.480469 4.796874.128907 6.734374 1.703125 2.015626 1.640625 3.171876 4.070313 3.171876 6.664063l.9375 76.074219c1.867187 19.21875-8.363282 37.882812-25.511719 46.496093-2.011719 1.011719-3.886719 1.964844-5.667969 2.871094-6.660156 3.390625-11.921875 6.066406-17.480469 8.207031-8.273437 3.1875-16.964843 4.777344-25.65625 4.777344zm-64.921875-138.929688v2.917969l.601563 73.902344c0 .183594-.003907.363281-.023438.546875-1.554687 15.199219 6.496094 29.976562 20.027344 36.773438 2.03125 1.019531 3.925781 1.984374 5.722656 2.898437 6.398438 3.253906 11.453125 5.828125 16.527344 7.78125 14.230469 5.476563 29.902344 5.476563 44.125 0 5.078125-1.957031 10.136719-4.527344 16.542969-7.789063 1.789062-.910156 3.6875-1.875 5.710937-2.890624 13.535157-6.796876 21.582031-21.578126 20.03125-36.777344-.011719-.144532-.023437-.292969-.027343-.445313l-.917969-74.546875c-50.609375 10.324219-88.578125-13.039062-103.457031-24.433594-5.261719 14.90625-20.097657 20.542969-24.59375 21.929688-.082032.03125-.179688.074219-.269532.132812zm128.300782.570313v.023437zm0 0"/><path d="m239.433594 178.050781c-1.28125 0-2.515625-.492187-3.445313-1.378906-.980469-.929687-1.539062-2.210937-1.554687-3.558594l-.75-60.894531c-.328125-1.460938.007812-3.019531.933594-4.207031.957031-1.21875 2.382812-1.964844 3.96875-1.945313 19.710937.164063 35.746093 16.292969 35.746093 35.957032 0 19.457031-15.246093 35.277343-34.707031 36.023437-.066406 0-.128906.003906-.191406.003906zm4.304687-61.410156.625 50.714844c11.535157-2.742188 19.96875-13.03125 19.96875-25.332031 0-12.40625-8.851562-22.867188-20.59375-25.382813zm-10.019531-4.277344h.019531zm-.039062-.316406v.035156zm0 0"/><path d="m100.855469 178.046875c-.078125 0-.152344 0-.226563-.003906-19.316406-.878907-34.445312-16.695313-34.445312-36.003907 0-19.03125 14.890625-34.816406 33.898437-35.941406 1.386719-.089844 2.722657.410156 3.722657 1.355469 1.003906.945313 1.570312 2.261719 1.570312 3.636719v3.28125l.476562 58.632812c.011719 1.375-.539062 2.691406-1.53125 3.644532-.929687.898437-2.171874 1.398437-3.464843 1.398437zm-5.457031-61.105469c-11.113282 3.007813-19.214844 13.171875-19.214844 25.097656 0 12.136719 8.28125 22.363282 19.625 25.238282zm0 0"/><path d="m78.136719 127.511719c-.324219 0-.652344-.03125-.980469-.097657-1.816406-.359374-3.28125-1.695312-3.8125-3.46875l-.546875-1.839843c-4.105469-15.074219-4.273437-32.027344-.496094-46.625 4.28125-16.558594 13.011719-28.375 25.3125-34.324219 2.746094-6.339844 12.601563-25.40625 35.210938-35.242188 22.214843-9.667968 49.660156-7.472656 81.5625 6.519532 21.914062 9.609375 38.488281 27.800781 45.472656 49.914062 5.597656 17.71875 7.304687 37.257813 5.078125 58.070313-.203125 1.902343-1.472656 3.523437-3.273438 4.171875-1.796874.652344-3.808593.21875-5.179687-1.117188-4.859375-4.71875-11.246094-7.347656-17.976563-7.402344-1.738281-.015624-3.304687-.925781-4.195312-2.339843-50.921875 10.625-89.128906-12.867188-104.070312-24.308594-5.257813 14.90625-20.097657 20.539063-24.59375 21.925781-.085938.027344-.1875.078125-.285157.136719-.191406 2.46875-2.179687 4.449219-4.691406 4.597656-7.238281.429688-14.039063 3.921875-18.660156 9.589844-.960938 1.175781-2.390625 1.839844-3.875 1.839844zm84.460937-117.511719c-9.332031 0-17.886718 1.671875-25.636718 5.015625-22.789063 9.84375-30.664063 31.316406-30.742188 31.535156-.472656 1.320313-1.484375 2.398438-2.777344 2.941407-16.183594 6.8125-28.574218 32.507812-22.511718 63.527343 4.613281-3.375 9.980468-5.632812 15.644531-6.539062 1.417969-2.34375 3.867187-3.992188 6.121093-4.6875 3.417969-1.058594 14.835938-5.355469 18.328126-16.328125.933593-2.929688 3.230468-5.214844 6.148437-6.117188 2.878906-.890625 6.011719-.3125 8.386719 1.539063 13.328125 10.402343 49.558594 33.433593 98.015625 22.769531.050781-.011719.148437-.03125.199219-.042969 2.851562-.597656 5.742187.46875 7.664062 2.585938 5.039062.4375 9.878906 1.917969 14.253906 4.335937.820313-16.128906-.976562-31.292968-5.367187-45.183594-6.117188-19.363281-20.679688-35.316406-39.953125-43.769531-17.605469-7.714843-33.578125-11.582031-47.773438-11.582031zm0 0"/><path d="m169.257812 349.960938c-9.097656 0-16.503906-7.40625-16.503906-16.503907v-39.515625c0-2.761718 2.238282-5 5-5h23.007813c2.761719 0 5 2.238282 5 5v39.515625c0 9.097657-7.402344 16.503907-16.503907 16.503907zm-6.503906-51.019532v34.515625c0 3.585938 2.917969 6.503907 6.503906 6.503907 3.585938 0 6.503907-2.917969 6.503907-6.503907v-34.515625zm0 0"/></g></svg>