<svg height="512pt" viewBox="-90 0 512 512" width="512pt" xmlns="http://www.w3.org/2000/svg"><path d="m327.90625 493.0625-9.644531-173.113281c-.726563-13.074219-9.871094-24.15625-22.570313-27.351563l-41.425781-10.425781c-7.183594-1.808594-14.292969-3.910156-21.308594-6.296875l-18.328125-9.035156-3.6875-1.820313c-5.847656-2.882812-9.546875-8.835937-9.546875-15.359375v-10.234375c-7.96875 7.414063-17.183593 14.089844-27.71875 18.941407-4.695312 2.160156-10.089843 2.160156-14.78125 0-10.378906-4.777344-19.472656-11.332032-27.355469-18.613282v9.90625c0 6.523438-3.707031 12.476563-9.554687 15.359375l-2.714844 1.339844-18.234375 8.992187c-7.722656 2.734376-15.566406 5.105469-23.511718 7.105469l-40.289063 10.140625c-12.695313 3.195313-21.839844 14.273438-22.570313 27.347656l-9.640624 173.117188c-.421876 7.566406 5.601562 13.933594 13.179687 13.933594h296.527344c7.574219.003906 13.597656-6.363282 13.175781-13.933594zm0 0" fill="#e8e6e6"/><path d="m314.726562 507c7.578126 0 13.601563-6.367188 13.179688-13.933594l-9.644531-173.117187c-.726563-13.070313-9.871094-24.152344-22.570313-27.347657l-41.425781-10.429687c-7.183594-1.808594-14.292969-3.910156-21.308594-6.296875l-18.328125-9.035156-1.964844-.96875-30.515624 241.128906zm0 0" fill="#3f3f3f"/><path d="m18.203125 507c-7.578125 0-13.605469-6.367188-13.183594-13.933594l9.644531-173.117187c.726563-13.070313 9.871094-24.152344 22.570313-27.347657l41.425781-10.429687c7.183594-1.808594 14.296875-3.910156 21.3125-6.296875l18.324219-9.035156 1.964844-.96875 30.515625 241.128906zm0 0" fill="#3f3f3f"/><path d="m205.183594 507 32.890625-103.15625c.269531-.851562.234375-1.769531-.105469-2.59375l-12.675781-30.785156c-.632813-1.542969-.1875-3.320313 1.105469-4.375l18.59375-15.210938c1.027343-.84375 1.542968-2.164062 1.347656-3.480468l-10.324219-70.550782c-1.019531-.332031-2.046875-.628906-3.0625-.972656l-18.324219-9.035156-1.96875-.96875-30.511718 241.128906zm0 0" fill="#fcbd4c"/><path d="m127.742188 507-32.890626-103.15625c-.273437-.851562-.234374-1.769531.105469-2.59375l12.675781-30.785156c.632813-1.542969.1875-3.320313-1.105468-4.375l-18.59375-15.210938c-1.027344-.84375-1.539063-2.164062-1.347656-3.480468l10.324218-70.550782c1.019532-.332031 2.050782-.628906 3.0625-.972656l18.328125-9.035156 1.964844-.96875 30.511719 241.128906zm0 0" fill="#fcbd4c"/><path d="m179.273438 323.175781c0 7.730469-6.265626 14-14 14-7.730469 0-14-6.269531-14-14s6.269531-14 14-14c7.734374 0 14 6.269531 14 14zm0 0" fill="#f45687"/><path d="m193.359375 306.613281-18.269531 6.585938c2.582031 2.539062 4.183594 6.070312 4.183594 9.976562s-1.605469 7.433594-4.183594 9.972657l18.269531 6.585937c3.378906 1.21875 7.082031-.964844 7.082031-4.171875v-24.78125c0-3.203125-3.703125-5.386719-7.082031-4.167969zm0 0" fill="#f45687"/><path d="m151.273438 323.175781c0-3.90625 1.605468-7.4375 4.183593-9.976562l-18.269531-6.582031c-3.375-1.21875-7.082031.960937-7.082031 4.167968v24.785156c0 3.207032 3.707031 5.386719 7.082031 4.167969l18.273438-6.582031c-2.582032-2.542969-4.1875-6.074219-4.1875-9.980469zm0 0" fill="#f45687"/><path d="m201.394531 249.664062v-10.238281c-7.96875 7.417969-17.183593 14.089844-27.71875 18.941407-4.695312 2.164062-10.089843 2.164062-14.78125 0-10.378906-4.777344-19.472656-11.328126-27.355469-18.613282v9.910156c0 6.519532-3.707031 12.472657-9.554687 15.359376l-1.28125.628906 37.882813 45.222656c1.988281-1.085938 4.265624-1.699219 6.6875-1.699219 3.253906 0 6.238281 1.117188 8.617187 2.976563l38.773437-46.28125-1.71875-.847656c-5.851562-2.882813-9.550781-8.839844-9.550781-15.359376zm0 0" fill="#fcb275"/><path d="m173.890625 312.152344c.417969.328125.820313.671875 1.199219 1.046875l18.269531-6.585938c3.378906-1.21875 7.082031.964844 7.082031 4.171875v19.664063l2.71875 1.742187 1.371094-2.058594 8.132812-64.261718zm0 0" fill="#e8e6e6"/><path d="m130.105469 323.175781v-12.390625c0-3.207031 3.707031-5.390625 7.085937-4.171875l18.269532 6.585938c.925781-.910157 1.972656-1.695313 3.125-2.324219l-37.878907-45.222656-.441406.21875 7.988281 63.113281 1.855469 2.785156v-8.59375zm0 0" fill="#e8e6e6"/><path d="m152.429688 317.613281c-.011719.019531-.023438.042969-.03125.066407.007812-.023438.019531-.046876.03125-.066407zm0 0" fill="#e8e6e6"/><path d="m69.328125 284.519531 8.191406-2.0625c7.945313-2 15.792969-4.367187 23.515625-7.105469l18.234375-8.992187 2.714844-1.335937c5.847656-2.886719 9.550781-8.839844 9.550781-15.359376v-9.910156c7.886719 7.28125 16.980469 13.835938 27.355469 18.613282 4.695313 2.164062 10.089844 2.164062 14.78125 0 10.535156-4.851563 19.753906-11.523438 27.71875-18.941407v10.238281c0 6.519532 3.703125 12.472657 9.550781 15.359376l3.6875 1.816406 18.324219 9.035156c7.015625 2.386719 14.125 4.488281 21.3125 6.296875l8.894531 2.238281v-122.5625c3.703125-7.6875 3.707032-16.445312 0-24.136718v-35.792969c0-53.527344-43.394531-96.917969-96.917968-96.917969-53.527344 0-96.917969 43.390625-96.917969 96.917969v36.707031c-3.117188 7.125-3.121094 15.179688 0 22.3125v123.582031zm0 0" fill="#7c292e"/><path d="m95.484375 143.441406 2.078125-21.378906c-.898438-.085938-1.804688-.136719-2.722656-.136719-15.382813 0-27.855469 12.46875-27.855469 27.855469 0 15.382812 12.472656 27.851562 27.855469 27.851562.703125 0 1.394531-.054687 2.082031-.101562-2.121094-11.125-2.660156-22.605469-1.4375-34.089844zm0 0" fill="#fcb275"/><path d="m238.085938 121.925781c-1.039063 0-2.066407.066407-3.078126.179688l2.074219 21.335937c1.21875 11.476563.683594 22.953125-1.4375 34.070313.808594.066406 1.617188.121093 2.441407.121093 15.382812 0 27.855468-12.46875 27.855468-27.851562 0-15.386719-12.472656-27.855469-27.855468-27.855469zm0 0" fill="#fcb275"/><path d="m237.082031 143.441406-1.726562-17.738281c-.335938-3.457031-2.398438-6.507813-5.484375-8.105469-6.214844-3.226562-12.613282-5.941406-19.140625-8.15625-.894531-.300781-1.542969-1.070312-1.679688-2l-4.222656-28.492187c-.117187-.800781-1.257813-.839844-1.429687-.046875l-5.292969 24.335937c-.292969 1.359375-1.628907 2.203125-2.988281 1.914063-5.851563-1.242188-11.761719-2.09375-17.695313-2.558594-1.171875-.089844-2.121094-.964844-2.296875-2.125l-2.296875-15.519531c-.117187-.800781-1.261719-.839844-1.433594-.046875l-3.328125 15.320312c-.25 1.152344-1.261718 1.960938-2.441406 1.96875-21.617188.171875-43.195312 5.441406-62.867188 15.824219-3.023437 1.597656-5.066406 4.59375-5.425781 7.996094l-1.847656 17.433593c-3.601563 33.882813 7.765625 67.851563 31.691406 92.113282 8.828125 8.953125 19.378907 17.128906 31.71875 22.8125 4.691407 2.160156 10.085938 2.160156 14.78125 0 12.339844-5.683594 22.890625-13.859375 31.71875-22.8125 23.921875-24.261719 35.289063-58.234375 31.6875-92.117188zm0 0" fill="#fcb275"/><g fill="#231f20"><path d="m314.726562 512h-296.527343c-4.980469 0-9.796875-2.074219-13.21875-5.695312-3.421875-3.617188-5.226563-8.542969-4.9531252-13.515626l9.6445312-173.117187c.851563-15.34375 11.4375-28.167969 26.339844-31.921875l40.289062-10.140625c7.664063-1.925781 15.328125-4.238281 22.785157-6.871094l20.6875-10.199219c4.167968-2.058593 6.761718-6.222656 6.761718-10.875v-9.910156c0-1.984375 1.175782-3.785156 2.996094-4.582031 1.824219-.792969 3.941406-.4375 5.394531.90625 8.230469 7.605469 16.996094 13.574219 26.058594 17.746094 3.367187 1.554687 7.234375 1.550781 10.597656 0 9.195313-4.230469 18.082031-10.308594 26.40625-18.058594 1.453125-1.355469 3.574219-1.71875 5.402344-.921875 1.824219.792969 3.003906 2.59375 3.003906 4.582031v10.238281c0 4.652344 2.589844 8.816407 6.761719 10.871094l21.71875 10.710938c6.761719 2.292968 13.699219 4.335937 20.613281 6.074218l41.425781 10.425782c14.902344 3.75 25.488282 16.582031 26.34375 31.921875l9.640626 173.117187c.277343 4.976563-1.527344 9.902344-4.953126 13.519532-3.421874 3.621093-8.238281 5.695312-13.21875 5.695312zm-178.210937-261.484375c-.300781 8.140625-4.964844 15.363281-12.324219 18.992187l-20.949218 10.332032c-.175782.085937-.359376.164062-.542969.226562-7.839844 2.777344-15.898438 5.210938-23.957031 7.238282l-40.289063 10.140624c-10.636719 2.675782-18.191406 11.832032-18.796875 22.777344l-9.644531 173.121094c-.125 2.273438.667969 4.4375 2.230469 6.089844 1.5625 1.65625 3.679687 2.5625 5.957031 2.5625h296.527343c2.277344 0 4.390626-.910156 5.957032-2.5625 1.566406-1.65625 2.359375-3.820313 2.230468-6.089844l-9.640624-173.121094c-.609376-10.945312-8.164063-20.101562-18.796876-22.777344l-41.425781-10.425781c-7.285156-1.832031-14.585937-3.992187-21.703125-6.414062-.207031-.070313-.40625-.152344-.601562-.25l-22.011719-10.851563c-7.4375-3.667968-12.125-11.011718-12.332031-19.261718-6.625 5.148437-13.535156 9.390624-20.636719 12.664062-6.027344 2.777344-12.9375 2.777344-18.964844 0-6.972656-3.207031-13.761719-7.359375-20.285156-12.390625zm0 0"/><path d="m205.183594 512h-23.035156c-1.4375 0-2.800782-.617188-3.75-1.695312-.953126-1.074219-1.390626-2.507813-1.210938-3.933594l30.515625-241.128906c.203125-1.601563 1.171875-3.007813 2.59375-3.773438 1.425781-.765625 3.128906-.792969 4.578125-.082031l19.988281 9.855469c.433594.140624.871094.277343 1.304688.410156.46875.144531.9375.292968 1.402343.445312 1.804688.589844 3.117188 2.148438 3.390626 4.027344l10.324218 70.550781c.445313 3.03125-.75 6.125-3.125 8.070313l-17.902344 14.644531 12.335938 29.957031c.789062 1.910156.875 4.042969.246094 6.015625l-32.890625 103.15625c-.660157 2.074219-2.589844 3.480469-4.765625 3.480469zm-17.363282-10h13.710938l31.644531-99.257812-12.503906-30.375c-1.484375-3.597657-.457031-7.675782 2.558594-10.144532l18.0625-14.777344-9.773438-66.773437c-.058593-.023437-.117187-.042969-.175781-.0625-.207031-.070313-.40625-.152344-.601562-.25l-14-6.902344zm0 0"/><path d="m150.777344 512h-23.039063c-2.175781 0-4.101562-1.40625-4.761719-3.480469l-32.890624-103.160156c-.625-1.964844-.539063-4.101563.246093-6.015625l12.335938-29.953125-17.898438-14.640625c-2.375-1.945312-3.574219-5.039062-3.128906-8.078125l10.324219-70.546875c.277344-1.878906 1.589844-3.4375 3.390625-4.027344.464843-.152344.9375-.296875 1.402343-.441406.4375-.132812.875-.269531 1.304688-.414062l19.988281-9.855469c1.449219-.710938 3.152344-.683594 4.582031.082031 1.421876.765625 2.386719 2.171875 2.589844 3.777344l30.515625 241.128906c.179688 1.421875-.261719 2.855469-1.210937 3.933594-.949219 1.074218-2.3125 1.691406-3.75 1.691406zm-19.382813-10h13.710938l-28.925781-228.542969-14 6.90625c-.195313.09375-.390626.179688-.601563.25-.058594.019531-.117187.039063-.175781.058594l-9.769532 66.777344 18.058594 14.773437c3.015625 2.46875 4.042969 6.546875 2.558594 10.148438l-12.503906 30.375zm0 0"/><path d="m165.273438 342.175781c-10.476563 0-19-8.523437-19-19 0-10.476562 8.523437-19 19-19 10.476562 0 19 8.523438 19 19 0 10.476563-8.519532 19-19 19zm0-28c-4.960938 0-9 4.035157-9 9 0 4.960938 4.039062 9 9 9 4.964843 0 9-4.039062 9-9 0-4.964843-4.035157-9-9-9zm0 0"/><path d="m195.324219 345.082031c-1.226563 0-2.46875-.210937-3.660157-.640625l-18.269531-6.582031c-1.617187-.585937-2.820312-1.957031-3.1875-3.636719-.371093-1.675781.152344-3.429687 1.375-4.632812 1.738281-1.707032 2.691407-3.984375 2.691407-6.410156 0-2.429688-.953126-4.707032-2.691407-6.410157-1.222656-1.207031-1.746093-2.957031-1.375-4.636719.367188-1.675781 1.570313-3.050781 3.1875-3.632812l18.269531-6.585938c3.285157-1.179687 6.921876-.703124 9.734376 1.269532 2.570312 1.804687 4.042968 4.578125 4.042968 7.605468v24.78125c0 3.03125-1.472656 5.800782-4.042968 7.609376-1.792969 1.253906-3.917969 1.902343-6.074219 1.902343zm-12.554688-14.476562 12.285157 4.425781c.152343.058594.285156.054688.386718.035156v-23.78125c-.105468-.019531-.234375-.019531-.386718.035156l-12.28125 4.425782c.984374 2.316406 1.5 4.832031 1.5 7.429687 0 2.597657-.515626 5.113281-1.503907 7.429688zm0 0"/><path d="m135.226562 345.082031c-2.15625 0-4.285156-.648437-6.074218-1.90625-2.570313-1.808593-4.046875-4.582031-4.046875-7.609375v-24.78125c0-3.027344 1.476562-5.800781 4.046875-7.609375 2.8125-1.972656 6.453125-2.449219 9.734375-1.265625l18.269531 6.582032c1.617188.585937 2.820312 1.957031 3.1875 3.636718.371094 1.675782-.152344 3.429688-1.375 4.632813-1.738281 1.707031-2.695312 3.980469-2.695312 6.410156s.957031 4.707031 2.695312 6.414063c1.222656 1.203124 1.746094 2.953124 1.375 4.632812-.367188 1.675781-1.570312 3.050781-3.1875 3.632812l-18.269531 6.585938c-1.195313.433594-2.433594.644531-3.660157.644531zm-.121093-10.015625c.105469.019532.238281.023438.386719-.035156l12.285156-4.425781c-.984375-2.316407-1.503906-4.832031-1.503906-7.429688 0-2.597656.519531-5.113281 1.5-7.429687l-12.28125-4.425782c-.148438-.054687-.28125-.050781-.386719-.035156zm0 0"/><path d="m173.886719 317.152344c-1.078125 0-2.167969-.347656-3.082031-1.0625-2.804688-2.199219-6.742188-2.507813-9.828126-.824219-2.09375 1.136719-4.695312.644531-6.222656-1.179687l-37.882812-45.222657c-.984375-1.175781-1.375-2.742187-1.058594-4.242187.316406-1.503906 1.304688-2.777344 2.683594-3.457032l1.28125-.628906c4.167968-2.054687 6.761718-6.222656 6.761718-10.875v-9.90625c0-1.988281 1.175782-3.785156 2.996094-4.582031 1.820313-.796875 3.941406-.441406 5.394532.90625 8.230468 7.601563 16.996093 13.570313 26.054687 17.746094 3.371094 1.550781 7.234375 1.550781 10.601563 0 9.195312-4.234375 18.078124-10.308594 26.402343-18.058594 1.457031-1.355469 3.578125-1.722656 5.402344-.925781 1.824219.792968 3.003906 2.59375 3.003906 4.585937v10.234375c0 4.652344 2.589844 8.820313 6.761719 10.875l1.722656.847656c1.375.679688 2.363282 1.953126 2.679688 3.457032.316406 1.5-.074219 3.0625-1.058594 4.238281l-38.777344 46.285156c-.988281 1.179688-2.40625 1.789063-3.835937 1.789063zm-8.613281-12.976563c2.617187 0 5.144531.523438 7.488281 1.535157l32.257812-38.503907c-5.253906-4.015625-8.445312-10.179687-8.621093-16.960937-6.625 5.152344-13.535157 9.394531-20.632813 12.664062-6.027344 2.777344-12.941406 2.777344-18.964844 0-6.972656-3.207031-13.761719-7.359375-20.285156-12.390625-.242187 6.507813-3.273437 12.429688-8.238281 16.394531l31.816406 37.980469c1.679688-.476562 3.425781-.71875 5.179688-.71875zm0 0"/><path d="m203.15625 337.195312c-.925781 0-1.863281-.257812-2.699219-.792968l-2.714843-1.742188c-1.429688-.921875-2.296876-2.503906-2.296876-4.207031v-19.167969c-.105468-.015625-.238281-.019531-.386718.035156l-18.269532 6.585938c-1.8125.648438-3.84375.207031-5.214843-1.148438-.238281-.238281-.496094-.453124-.761719-.660156-1.066406-.835937-1.75-2.070312-1.894531-3.417968-.140625-1.347657.269531-2.695313 1.140625-3.734376l38.777344-46.285156c1.421874-1.699218 3.804687-2.261718 5.832031-1.371094 2.035156.886719 3.238281 3.007813 2.960937 5.207032l-8.132812 64.265625c-.097656.765625-.371094 1.5-.800782 2.144531l-1.375 2.058594c-.964843 1.445312-2.550781 2.226562-4.164062 2.230468zm-7.832031-35.925781c2.15625 0 4.28125.652344 6.074219 1.910157.496093.347656.949218.730468 1.359374 1.144531l2.808594-22.195313-17.726562 21.160156 3.824218-1.378906c1.191407-.429687 2.429688-.640625 3.660157-.640625zm0 0"/><path d="m130.105469 336.769531c-1.640625 0-3.214844-.808593-4.160157-2.226562l-1.855468-2.785157c-.429688-.644531-.703125-1.378906-.800782-2.144531l-7.984374-63.117187c-.269532-2.109375.832031-4.160156 2.738281-5.105469l.4375-.214844c2.070312-1.023437 4.570312-.5 6.054687 1.269531l37.878906 45.21875c.964844 1.148438 1.359376 2.667969 1.082032 4.140626-.28125 1.476562-1.203125 2.742187-2.519532 3.460937-.726562.394531-1.402343.898437-2.015624 1.5-1.371094 1.347656-3.394532 1.789063-5.203126 1.136719l-18.265624-6.585938c-.152344-.050781-.285157-.050781-.390626-.035156v20.488281c0 2.203125-1.441406 4.148438-3.546874 4.785157-.476563.148437-.96875.214843-1.449219.214843zm5.121093-35.5c1.226563 0 2.464844.210938 3.660157.640625l8.117187 2.925782-19.753906-23.578126 2.710938 21.402344c1.605468-.917968 3.425781-1.390625 5.265624-1.390625zm0 0"/><path d="m152.394531 322.679688c-.664062 0-1.339843-.136719-1.992187-.417969-1.878906-.816407-3.003906-2.65625-3.007813-4.582031 0-.667969.132813-1.34375.417969-1.996094.015625-.035156.027344-.066406.042969-.101563.019531-.035156.035156-.066406.046875-.101562 1.117187-2.371094 3.886718-3.484375 6.34375-2.527344 2.503906.980469 3.789062 3.761719 2.902344 6.300781-.039063.113282-.085938.230469-.136719.351563-.011719.027343-.027344.066406-.042969.097656-.027344.054687-.046875.105469-.074219.15625-.855469 1.769531-2.636719 2.820313-4.5 2.820313zm0 0"/><path d="m69.328125 289.523438c-1.101563 0-2.1875-.367188-3.074219-1.058594-1.214844-.945313-1.925781-2.402344-1.925781-3.941406v-122.585938c-3.105469-7.785156-3.105469-16.527344 0-24.3125v-35.710938c0-56.195312 45.71875-101.914062 101.917969-101.914062 56.195312 0 101.914062 45.71875 101.914062 101.914062v34.707032c3.703125 8.425781 3.703125 17.894531 0 26.320312v121.46875c0 1.542969-.707031 2.996094-1.925781 3.945313s-2.796875 1.28125-4.292969.90625l-8.890625-2.238281c-7.285156-1.832032-14.585937-3.992188-21.703125-6.414063-.207031-.070313-.40625-.152344-.601562-.25l-22.011719-10.851563c-7.4375-3.667968-12.125-11.011718-12.332031-19.261718-6.625 5.148437-13.535156 9.390625-20.636719 12.664062-6.027344 2.777344-12.9375 2.777344-18.964844 0-6.96875-3.210937-13.761719-7.363281-20.28125-12.394531-.304687 8.140625-4.964843 15.363281-12.324219 18.992187l-20.953124 10.332032c-.175782.085937-.355469.164062-.539063.226562-7.839844 2.777344-15.898437 5.210938-23.960937 7.238282l-8.195313 2.066406c-.402344.101562-.8125.152344-1.21875.152344zm96.917969-279.523438c-50.683594 0-91.917969 41.234375-91.917969 91.914062v36.710938c0 .6875-.144531 1.371094-.421875 2.003906-2.546875 5.816406-2.546875 12.484375 0 18.300782.277344.628906.421875 1.3125.421875 2.003906v117.171875l1.972656-.5c7.664063-1.925781 15.328125-4.238281 22.785157-6.871094l20.6875-10.199219c4.167968-2.058594 6.761718-6.222656 6.761718-10.875v-9.910156c0-1.984375 1.175782-3.785156 2.996094-4.582031 1.824219-.792969 3.941406-.4375 5.394531.90625 8.230469 7.605469 16.996094 13.574219 26.058594 17.746093 3.367187 1.554688 7.234375 1.550782 10.597656 0 9.195313-4.230468 18.082031-10.308593 26.40625-18.058593 1.453125-1.355469 3.574219-1.71875 5.402344-.921875 1.824219.792968 3.003906 2.59375 3.003906 4.582031v10.238281c0 4.652344 2.589844 8.816406 6.761719 10.871094l21.71875 10.710938c6.761719 2.292968 13.699219 4.335937 20.613281 6.074218l2.671875.671875v-116.140625c0-.753906.171875-1.496094.496094-2.171875 3.035156-6.289062 3.035156-13.5 0-19.792969-.324219-.675781-.496094-1.417968-.496094-2.171874v-35.796876c0-50.679687-41.234375-91.914062-91.914062-91.914062zm0 0"/><path d="m269.214844 509.164062c-2.761719 0-5-2.238281-5-5v-112.128906c0-2.761718 2.238281-5 5-5 2.761718 0 5 2.238282 5 5v112.128906c0 2.761719-2.238282 5-5 5zm0 0"/><path d="m63.714844 509.164062c-2.761719 0-5-2.238281-5-5v-112.128906c0-2.761718 2.238281-5 5-5 2.761718 0 5 2.238282 5 5v112.128906c0 2.761719-2.238282 5-5 5zm0 0"/><path d="m314.726562 512h-132.578124c-1.433594 0-2.800782-.617188-3.75-1.695312-.949219-1.074219-1.390626-2.507813-1.210938-3.933594l30.519531-241.128906c.203125-1.601563 1.167969-3.007813 2.589844-3.773438 1.429687-.765625 3.128906-.792969 4.582031-.082031l19.996094 9.859375c6.765625 2.292968 13.699219 4.335937 20.617188 6.074218l41.425781 10.425782c14.898437 3.75 25.484375 16.582031 26.339843 31.921875l9.644532 173.117187c.273437 4.976563-1.53125 9.902344-4.953125 13.519532-3.472657 3.671874-8.171875 5.695312-13.222657 5.695312zm-126.90625-10h126.90625c2.277344 0 4.390626-.910156 5.957032-2.566406 1.566406-1.652344 2.359375-3.816406 2.230468-6.089844l-9.640624-173.117188c-.609376-10.949218-8.164063-20.101562-18.796876-22.78125l-41.425781-10.425781c-7.285156-1.832031-14.585937-3.988281-21.707031-6.410156-.203125-.070313-.402344-.15625-.597656-.25l-14-6.90625zm0 0"/><path d="m150.777344 512h-132.574219c-5.054687 0-9.75-2.023438-13.222656-5.691406-3.421875-3.617188-5.226563-8.546875-4.9531252-13.519532l9.6406252-173.117187c.855469-15.34375 11.441406-28.167969 26.34375-31.921875l41.425781-10.425781c6.914062-1.738281 13.851562-3.785157 20.617188-6.078125l19.996093-9.859375c1.449219-.710938 3.152344-.683594 4.582031.082031 1.421876.765625 2.386719 2.171875 2.589844 3.777344l30.515625 241.128906c.179688 1.421875-.261719 2.855469-1.210937 3.933594-.949219 1.074218-2.3125 1.691406-3.75 1.691406zm-34.597656-238.542969-14 6.90625c-.195313.09375-.390626.179688-.597657.25-7.121093 2.421875-14.421875 4.578125-21.703125 6.410157l-41.425781 10.425781c-10.636719 2.675781-18.191406 11.832031-18.800781 22.78125l-9.640625 173.117187c-.125 2.273438.664062 4.4375 2.230469 6.089844 1.566406 1.65625 3.679687 2.566406 5.960937 2.566406h126.902344zm0 0"/><path d="m166.464844 358.578125c-.320313 0-.660156-.039063-.980469-.097656-.320313-.058594-.640625-.160157-.941406-.28125-.300781-.121094-.578125-.277344-.863281-.460938-.257813-.179687-.519532-.398437-.757813-.617187-.21875-.242188-.441406-.5-.621094-.761719-.179687-.28125-.339843-.558594-.460937-.859375-.117188-.320312-.214844-.621094-.277344-.941406-.0625-.320313-.101562-.660156-.101562-.980469 0-.316406.039062-.65625.101562-.976563.058594-.320312.160156-.640624.277344-.941406.125-.300781.285156-.582031.460937-.859375.179688-.261719.402344-.519531.621094-.761719.238281-.21875.5-.4375.757813-.617187.285156-.183594.5625-.34375.863281-.460937.296875-.121094.621093-.222657.941406-.28125.640625-.140626 1.320313-.140626 1.957031 0 .320313.058593.621094.160156.941406.28125.296876.117187.582032.277343.859376.460937.261718.179687.519531.398437.761718.617187.21875.242188.441406.5.621094.761719.179688.277344.339844.558594.457031.859375.125.300782.222657.621094.28125.941406.058594.320313.101563.660157.101563.976563 0 .320313-.042969.660156-.101563.980469-.058593.320312-.15625.621094-.28125.941406-.117187.300781-.277343.578125-.457031.859375-.179688.261719-.398438.519531-.621094.761719-.242187.21875-.5.4375-.761718.617187-.277344.183594-.558594.339844-.859376.460938-.320312.121093-.621093.222656-.941406.28125-.316406.058593-.65625.097656-.976562.097656zm0 0"/><path d="m166.464844 389.300781c-.320313 0-.660156-.039062-.980469-.101562-.320313-.078125-.640625-.160157-.941406-.300781-.300781-.117188-.578125-.277344-.863281-.457032-.257813-.179687-.519532-.382812-.757813-.621094-.21875-.21875-.441406-.480468-.621094-.761718-.179687-.257813-.339843-.558594-.460937-.859375-.117188-.300781-.214844-.621094-.277344-.9375-.0625-.320313-.101562-.640625-.101562-.960938 0-.339843.039062-.660156.101562-.980469.058594-.320312.160156-.640624.277344-.941406.125-.300781.285156-.597656.460937-.859375.179688-.28125.402344-.539062.621094-.757812.238281-.242188.5-.441407.757813-.621094.285156-.179687.5625-.339844.863281-.460937.296875-.140626.621093-.21875.941406-.300782.640625-.117187 1.320313-.117187 1.957031 0 .320313.082032.621094.160156.941406.300782.296876.121093.582032.28125.859376.460937.261718.179687.519531.378906.761718.621094.21875.21875.441406.476562.621094.757812.179688.261719.339844.558594.457031.859375.125.300782.222657.621094.28125.941406.058594.320313.101563.640626.101563.980469 0 .320313-.042969.640625-.101563.960938-.058593.316406-.15625.636719-.28125.9375-.117187.300781-.277343.601562-.457031.859375-.179688.28125-.398438.542968-.621094.761718-.242187.238282-.5.441407-.761718.621094-.277344.179688-.558594.339844-.859376.457032-.320312.140624-.621093.222656-.941406.300781-.316406.0625-.65625.101562-.976562.101562zm0 0"/><path d="m166.464844 420c-.320313 0-.660156-.039062-.980469-.101562-.320313-.058594-.640625-.160157-.941406-.277344-.300781-.121094-.578125-.28125-.863281-.460938-.257813-.179687-.519532-.398437-.757813-.621094-.21875-.238281-.441406-.5-.621094-.757812-.179687-.28125-.339843-.5625-.460937-.859375-.117188-.320313-.214844-.621094-.277344-.941406-.0625-.320313-.101562-.660157-.101562-.980469 0-1.320312.539062-2.601562 1.457031-3.539062.242187-.222657.5-.441407.761719-.621094.28125-.179688.558593-.339844.863281-.460938.296875-.117187.617187-.21875.9375-.277344.640625-.140624 1.320312-.140624 1.960937 0 .316406.058594.621094.160157.941406.277344.296876.121094.578126.28125.859376.460938.257812.179687.519531.398437.757812.621094.222656.238281.441406.480468.625.757812.179688.28125.339844.5625.457031.859375.121094.300781.21875.621094.28125.941406.058594.320313.101563.660157.101563.980469s-.042969.660156-.101563.980469c-.058593.320312-.160156.621093-.28125.941406-.121093.296875-.28125.578125-.457031.859375-.183594.257812-.402344.519531-.625.757812-.238281.222657-.5.441407-.757812.621094-.28125.179688-.5625.339844-.859376.460938-.320312.117187-.625.21875-.941406.277344-.316406.0625-.65625.101562-.976562.101562zm0 0"/><path d="m166.464844 450.699219c-.320313 0-.660156-.019531-.980469-.097657-.320313-.0625-.640625-.160156-.941406-.28125-.300781-.121093-.578125-.28125-.863281-.460937-.257813-.179687-.519532-.378906-.757813-.621094-.21875-.21875-.441406-.476562-.621094-.757812-.179687-.261719-.339843-.558594-.460937-.859375-.117188-.300782-.214844-.621094-.277344-.941406-.0625-.320313-.101562-.640626-.101562-.980469 0-.320313.039062-.640625.101562-.960938.058594-.316406.160156-.636719.277344-.9375.125-.300781.285156-.601562.460937-.859375.179688-.28125.402344-.542968.621094-.761718.238281-.238282.5-.441407.757813-.640626.285156-.179687.5625-.320312.863281-.460937.296875-.117187.621093-.21875.941406-.277344.640625-.121093 1.320313-.121093 1.957031 0 .320313.058594.621094.160157.941406.277344.296876.140625.582032.28125.859376.460937.261718.199219.519531.402344.761718.640626.21875.21875.441406.480468.621094.761718.179688.257813.339844.558594.457031.859375.125.300781.222657.621094.28125.9375.058594.320313.101563.640625.101563.960938 0 .339843-.042969.660156-.101563.980469-.058593.320312-.15625.640624-.28125.941406-.117187.300781-.277343.597656-.457031.859375-.179688.28125-.398438.539062-.621094.757812-.242187.242188-.5.441407-.761718.621094-.277344.179687-.558594.339844-.859376.460937-.320312.121094-.621093.21875-.941406.28125-.316406.078126-.65625.097657-.976562.097657zm0 0"/><path d="m166.464844 481.421875c-.320313 0-.660156-.042969-.980469-.101563-.320313-.058593-.640625-.160156-.941406-.28125-.300781-.140624-.578125-.277343-.863281-.460937-.257813-.179687-.519532-.398437-.757813-.617187-.21875-.242188-.441406-.5-.621094-.761719-.179687-.277344-.339843-.558594-.460937-.859375-.117188-.320313-.214844-.621094-.277344-.941406-.0625-.320313-.101562-.660157-.101562-.976563 0-.320313.039062-.660156.101562-.980469.058594-.320312.160156-.640625.277344-.941406.125-.300781.285156-.578125.460937-.859375.179688-.28125.402344-.519531.621094-.761719.238281-.238281.5-.4375.757813-.617187.285156-.183594.5625-.339844.863281-.460938.296875-.121093.621093-.222656.941406-.28125.640625-.140625 1.320313-.140625 1.957031 0 .320313.058594.621094.160157.941406.28125.296876.121094.582032.277344.859376.460938.261718.179687.519531.378906.761718.617187.21875.242188.441406.480469.621094.761719s.339844.558594.457031.859375c.125.300781.222657.621094.28125.941406.058594.320313.101563.660156.101563.980469 0 .316406-.042969.65625-.101563.976563-.058593.320312-.15625.621093-.28125.941406-.117187.300781-.277343.582031-.457031.859375-.179688.261719-.398438.519531-.621094.761719-.242187.21875-.5.4375-.761718.617187-.277344.183594-.558594.320313-.859376.460937-.320312.121094-.621093.222657-.941406.28125-.316406.058594-.65625.101563-.976562.101563zm0 0"/><path d="m166.585938 217.523438c-6.210938 0-11.875-2.199219-15.539063-6.035157-1.90625-1.996093-1.832031-5.160156.164063-7.066406 1.996093-1.90625 5.160156-1.835937 7.066406.164063 1.359375 1.417968 4.25 2.9375 8.308594 2.9375 4.054687 0 6.953124-1.519532 8.308593-2.9375 1.902344-2 5.070313-2.070313 7.066407-.164063 1.996093 1.90625 2.070312 5.070313.164062 7.066406-3.65625 3.835938-9.320312 6.035157-15.539062 6.035157zm0 0"/><path d="m203.507812 146.222656c-.792968 0-1.59375-.1875-2.34375-.585937-1.25-.664063-4.117187-1.335938-7.703124-1.335938-3.585938 0-6.453126.671875-7.703126 1.335938-2.429687 1.296875-5.464843.371093-6.761718-2.070313-1.292969-2.4375-.367188-5.464844 2.070312-6.761718 2.996094-1.589844 7.511719-2.503907 12.394532-2.503907 4.878906 0 9.398437.914063 12.390624 2.503907 2.441407 1.296874 3.367188 4.324218 2.070313 6.761718-.894531 1.691406-2.625 2.65625-4.414063 2.65625zm0 0"/><path d="m149.503906 146.222656c-.789062 0-1.59375-.1875-2.339844-.585937-1.25-.664063-4.117187-1.335938-7.703124-1.335938-3.585938 0-6.453126.671875-7.703126 1.335938-2.433593 1.296875-5.464843.371093-6.761718-2.070313-1.292969-2.4375-.371094-5.464844 2.070312-6.761718 2.992188-1.589844 7.511719-2.503907 12.390625-2.503907 4.882813 0 9.398438.914063 12.394531 2.503907 2.441407 1.296874 3.367188 4.324218 2.070313 6.761718-.894531 1.691406-2.625 2.65625-4.417969 2.65625zm0 0"/><path d="m140.261719 165.65625c-3.316407 0-6-2.6875-6-6v-1.097656c0-3.316406 2.683593-6 6-6 3.3125 0 6 2.683594 6 6v1.097656c0 3.3125-2.683594 6-6 6zm0 0"/><path d="m192.914062 166.496094c-3.3125 0-6-2.683594-6-6v-1.097656c0-3.3125 2.6875-6 6-6 3.316407 0 6 2.6875 6 6v1.097656c0 3.3125-2.683593 6-6 6zm0 0"/><path d="m94.839844 182.632812c-18.117188 0-32.855469-14.738281-32.855469-32.851562 0-18.117188 14.738281-32.855469 32.855469-32.855469 1.039062 0 2.085937.050781 3.203125.164063 1.320312.125 2.535156.773437 3.378906 1.796875.839844 1.023437 1.242187 2.339843 1.117187 3.660156l-2.078124 21.378906c-.003907.015625-.003907.03125-.003907.042969-1.152343 10.828125-.691406 21.804688 1.378907 32.621094.265624 1.402344-.078126 2.851562-.945313 3.980468-.871094 1.132813-2.179687 1.839844-3.601563 1.945313-.882812.066406-1.660156.117187-2.449218.117187zm-2.792969-55.535156c-11.289063 1.378906-20.058594 11.027344-20.058594 22.683594 0 11.289062 8.230469 20.695312 19.011719 22.527344-1.359375-9.769532-1.523438-19.625-.492188-29.371094zm3.4375 16.34375h.019531zm0 0"/><path d="m238.085938 182.632812c-.96875 0-1.925782-.058593-2.875-.140624-1.410157-.125-2.703126-.835938-3.554688-1.964844s-1.1875-2.5625-.921875-3.953125c2.0625-10.816407 2.527344-21.785157 1.375-32.601563l-2.078125-21.382812c-.265625-2.722656 1.707031-5.152344 4.425781-5.453125 1.273438-.144531 2.460938-.210938 3.628907-.210938 18.117187 0 32.851562 14.738281 32.851562 32.855469 0 18.113281-14.734375 32.851562-32.851562 32.851562zm2.425781-55.578124 1.546875 15.902343c1.035156 9.734375.867187 19.609375-.5 29.414063 10.957031-1.679688 19.378906-11.167969 19.378906-22.589844 0-11.785156-8.957031-21.511719-20.425781-22.726562zm0 0"/><path d="m166.28125 264.992188c-3.234375 0-6.46875-.695313-9.480469-2.082032-11.761719-5.417968-22.929687-13.441406-33.191406-23.84375-24.851563-25.203125-36.917969-60.25-33.101563-96.152344l1.847657-17.433593c.539062-5.058594 3.550781-9.503907 8.066406-11.886719 19.402344-10.246094 41.207031-15.886719 63.179687-16.375l2.90625-13.378906c.589844-2.707032 3.039063-4.589844 5.789063-4.511719 2.765625.09375 5.070313 2.148437 5.476563 4.882813l2.011718 13.566406c4.667969.429687 9.347656 1.097656 13.957032 1.992187l4.769531-21.933593c.585937-2.703126 3.035156-4.585938 5.789062-4.507813 2.765625.09375 5.070313 2.144531 5.472657 4.882813l3.996093 26.988281c6.316407 2.21875 12.5 4.890625 18.40625 7.957031 4.605469 2.390625 7.65625 6.898438 8.15625 12.0625l1.722657 17.714844c3.808593 35.894531-8.253907 70.929687-33.101563 96.132812-10.261719 10.402344-21.429687 18.421875-33.191406 23.839844-3.007813 1.390625-6.246094 2.085938-9.480469 2.085938zm5.175781-160.578126c-1.375 1.703126-3.464843 2.757813-5.792969 2.777344-21.050781.164063-41.996093 5.4375-60.574218 15.246094-1.5625.824219-2.605469 2.355469-2.789063 4.097656l-1.847656 17.4375c-3.5 32.914063 7.535156 65.015625 30.277344 88.078125 9.410156 9.542969 19.589843 16.867188 30.25 21.777344 3.371093 1.554687 7.234375 1.550781 10.601562 0 10.664063-4.90625 20.839844-12.234375 30.25-21.777344 22.742188-23.066406 33.777344-55.167969 30.273438-88.078125 0-.015625 0-.027344-.003907-.042968l-1.71875-17.742188c-.171874-1.777344-1.226562-3.328125-2.8125-4.152344-5.90625-3.066406-12.109374-5.710937-18.445312-7.855468-2.683594-.910157-4.605469-3.210938-5.023438-6.003907l-.789062-5.339843-.320312 1.46875c-.875 4.019531-4.875 6.589843-8.914063 5.742187-5.609375-1.1875-11.34375-2.019531-17.046875-2.464844-2.3125-.1875-4.320312-1.378906-5.574219-3.167969zm0 0"/></g></svg>