<svg height="512pt" viewBox="-90 0 512 512" width="512pt" xmlns="http://www.w3.org/2000/svg"><path d="m327.90625 493.066406-9.644531-173.117187c-.726563-13.074219-9.871094-24.152344-22.566407-27.347657l-41.425781-10.429687c-7.1875-1.808594-14.296875-3.910156-21.3125-6.296875l-18.328125-9.035156-3.683594-1.816406c-5.851562-2.886719-9.550781-8.839844-9.550781-15.359376v-10.050781l-1.222656 1.1875c-8.351563 8.136719-19.546875 12.6875-31.207031 12.6875.140625 0-4.28125 0-4.515625 0-11.65625 0-22.855469-4.550781-31.207031-12.6875l-1.703126-1.660156v10.523437c0 6.519532-3.707031 12.472657-9.554687 15.359376l-2.710937 1.335937-18.238282 8.992187c-7.722656 2.734376-15.566406 5.105469-23.511718 7.105469l-40.289063 10.140625c-12.695313 3.195313-21.839844 14.277344-22.570313 27.351563l-9.640624 173.117187c-.421876 7.566406 5.601562 13.933594 13.179687 13.933594h296.527344c7.574219 0 13.597656-6.367188 13.175781-13.933594zm0 0" fill="#e8e6e6"/><path d="m238.007812 119.964844c.140626 0 .28125-.019532.421876-.019532 6.996093 0 13.265624 3.035157 17.617187 7.84375.003906.003907.007813.003907.011719.003907 19.1875-63.308594-4.910156-82.257813-15.691406-87.378907-3.074219-1.457031-5.605469-3.828124-7.453126-6.6875-6.054687-9.363281-23.113281-28.726562-60.671874-28.726562-49.546876 0-71.34375 31.707031-91.164063 37.652344-11.558594 3.472656-17.050781-.480469-19.621094-4.375-2.0625-3.132813-6.449219-3.65625-9.375-1.3125-21.046875 16.839844-25.820312 76.210937 17.109375 86.941406 37.5625 9.394531 62.515625-15.839844 73.007813-22.710938 1.320312-.863281 2.964843.453126 2.414062 1.929688l-2.441406 6.507812c-.792969 2.117188.859375 4.359376 3.117187 4.234376 24.40625-1.335938 41.648438-12.652344 48.898438-18.378907 1.570312-1.238281 3.875-.28125 4.109375 1.703125 3.097656 26.183594 33.320313 36.210938 39.941406 38.214844.40625.121094.820313.199219 1.234375.257812zm0 0" fill="#7c292e"/><path d="m238.429688 119.945312c-.140626 0-.277344.015626-.421876.019532l4.398438 47.183594c11.238281-1.894532 19.808594-11.644532 19.808594-23.421876 0-13.132812-10.648438-23.78125-23.785156-23.78125zm0 0" fill="#fcb275"/><path d="m243.273438 176.429688-3.800782-40.765626c-.417968-.054687-.828125-.132812-1.234375-.257812-6.621093-2.003906-36.84375-12.03125-39.945312-38.214844-.234375-1.984375-2.539063-2.9375-4.105469-1.703125-7.25 5.726563-24.496094 17.042969-48.902344 18.378907-2.253906.125-3.910156-2.121094-3.117187-4.234376l2.441406-6.507812c.554687-1.476562-1.09375-2.792969-2.414063-1.929688-7.875 5.160157-23.898437 20.660157-47.289062 24.101563l-4.765625 51.132813c-1.210937 12.984374 3.515625 25.824218 12.859375 34.921874l30.238281 29.453126c8.351563 8.132812 19.550781 12.683593 31.210938 12.683593.230469 0 4.65625 0 4.515625 0 11.65625 0 22.855468-4.550781 31.203125-12.683593l30.242187-29.453126c9.34375-9.097656 14.070313-21.9375 12.863282-34.921874zm0 0" fill="#fcb275"/><path d="m78.425781 125.558594c-5.164062 4.363281-8.449219 10.878906-8.449219 18.167968 0 12.195313 9.183594 22.230469 21.011719 23.605469l3.917969-42.039062c-5.136719.757812-10.636719.914062-16.480469.265625zm0 0" fill="#fcb275"/><path d="m314.726562 507c7.578126 0 13.601563-6.367188 13.179688-13.933594l-9.644531-173.117187c-.726563-13.070313-9.871094-24.152344-22.566407-27.347657l-41.425781-10.429687c-7.1875-1.808594-14.296875-3.910156-21.3125-6.296875l-18.328125-9.035156-1.964844-.96875-30.515624 241.128906zm0 0" fill="#3f3f3f"/><path d="m18.203125 507c-7.578125 0-13.605469-6.367188-13.179687-13.933594l9.640624-173.117187c.726563-13.070313 9.871094-24.152344 22.570313-27.347657l41.425781-10.429687c7.183594-1.808594 14.296875-3.910156 21.3125-6.296875l18.324219-9.035156 1.964844-.96875 30.515625 241.128906zm0 0" fill="#3f3f3f"/><path d="m205.1875 507 32.886719-103.15625c.269531-.851562.234375-1.769531-.105469-2.59375l-12.675781-30.785156c-.632813-1.542969-.183594-3.320313 1.105469-4.375l18.59375-15.210938c1.03125-.84375 1.542968-2.164062 1.347656-3.480468l-10.324219-70.550782c-1.019531-.332031-2.046875-.628906-3.0625-.972656l-18.324219-9.035156-1.96875-.96875-30.511718 241.128906zm0 0" fill="#fcbd4c"/><path d="m127.742188 507-32.890626-103.15625c-.273437-.851562-.234374-1.769531.105469-2.59375l12.675781-30.785156c.636719-1.542969.1875-3.320313-1.101562-4.375l-18.59375-15.210938c-1.03125-.84375-1.542969-2.164062-1.351562-3.480468l10.324218-70.550782c1.019532-.332031 2.050782-.628906 3.0625-.972656l18.328125-9.035156 1.964844-.96875 30.511719 241.128906zm0 0" fill="#fcbd4c"/><path d="m173.890625 312.152344c.417969.328125.820313.671875 1.199219 1.046875l18.269531-6.585938c3.378906-1.21875 7.085937.964844 7.085937 4.171875v19.664063l2.714844 1.742187 1.371094-2.058594 8.132812-64.261718zm0 0" fill="#e8e6e6"/><path d="m130.109375 323.175781v-12.390625c0-3.207031 3.703125-5.390625 7.082031-4.171875l18.269532 6.585938c.925781-.910157 1.976562-1.695313 3.125-2.324219l-37.878907-45.222656-.4375.21875 7.984375 63.113281 1.855469 2.785156zm0 0" fill="#e8e6e6"/><path d="m152.429688 317.613281c-.011719.019531-.023438.042969-.03125.066407.007812-.023438.019531-.046876.03125-.066407zm0 0" fill="#e8e6e6"/><path d="m179.277344 323.175781c0 7.730469-6.269532 14-14 14-7.734375 0-14-6.269531-14-14s6.265625-14 14-14c7.730468 0 14 6.269531 14 14zm0 0" fill="#fc5d4c"/><path d="m193.359375 306.613281-18.269531 6.585938c2.582031 2.539062 4.183594 6.070312 4.183594 9.976562s-1.605469 7.433594-4.183594 9.972657l18.269531 6.585937c3.378906 1.21875 7.085937-.964844 7.085937-4.171875v-24.78125c0-3.203125-3.707031-5.386719-7.085937-4.167969zm0 0" fill="#e04e36"/><path d="m151.273438 323.175781c0-3.90625 1.605468-7.4375 4.183593-9.976562l-18.265625-6.582031c-3.378906-1.21875-7.085937.960937-7.085937 4.167968v24.785156c0 3.207032 3.707031 5.386719 7.085937 4.167969l18.269532-6.582031c-2.582032-2.542969-4.1875-6.074219-4.1875-9.980469zm0 0" fill="#e04e36"/><path d="m201.394531 249.664062v-10.050781l-1.222656 1.1875c-8.351563 8.136719-19.546875 12.6875-31.207031 12.6875.140625 0-4.28125 0-4.515625 0-11.65625 0-22.855469-4.550781-31.207031-12.6875l-1.703126-1.660156v10.523437c0 6.519532-3.707031 12.472657-9.554687 15.359376l-1.28125.628906 37.882813 45.222656c1.988281-1.085938 4.265624-1.699219 6.691406-1.699219 3.25 0 6.234375 1.117188 8.613281 2.976563l38.773437-46.28125-1.71875-.847656c-5.851562-2.882813-9.550781-8.835938-9.550781-15.359376zm0 0" fill="#fcb275"/><g fill="#231f20"><path d="m314.726562 512h-296.527343c-4.980469 0-9.796875-2.074219-13.21875-5.691406-3.421875-3.617188-5.226563-8.542969-4.9531252-13.519532l9.6406252-173.117187c.859375-15.34375 11.445312-28.167969 26.34375-31.917969l40.289062-10.144531c7.664063-1.925781 15.328125-4.238281 22.785157-6.871094l20.6875-10.199219c4.171874-2.058593 6.761718-6.222656 6.761718-10.875v-10.523437c0-2.011719 1.203125-3.824219 3.054688-4.605469 1.859375-.78125 3.992187-.378906 5.433594 1.023438l1.707031 1.660156c7.460937 7.265625 17.304687 11.269531 27.71875 11.269531h4.519531c10.410156 0 20.253906-4.003906 27.714844-11.269531l1.222656-1.191406c1.4375-1.398438 3.578125-1.804688 5.433594-1.019532 1.851562.78125 3.054687 2.59375 3.054687 4.605469v10.050781c0 4.652344 2.589844 8.816407 6.761719 10.871094l21.71875 10.710938c6.761719 2.292968 13.699219 4.335937 20.613281 6.074218l41.425781 10.425782c14.902344 3.75 25.488282 16.582031 26.34375 31.921875l9.640626 173.117187c.277343 4.972656-1.527344 9.898438-4.949219 13.515625-3.421875 3.621094-8.242188 5.699219-13.222657 5.699219zm-178.195312-262.074219c-.09375 8.378907-4.804688 15.867188-12.335938 19.582031l-20.953124 10.332032c-.175782.085937-.359376.164062-.542969.226562-7.839844 2.777344-15.902344 5.210938-23.960938 7.238282l-40.285156 10.144531c-10.636719 2.675781-18.191406 11.828125-18.800781 22.777343l-9.640625 173.121094c-.125 2.273438.664062 4.433594 2.230469 6.089844 1.5625 1.652344 3.679687 2.5625 5.957031 2.5625h296.527343c2.277344 0 4.394532-.910156 5.957032-2.566406 1.5625-1.652344 2.359375-3.816406 2.230468-6.089844l-9.640624-173.117188c-.613282-10.945312-8.164063-20.101562-18.800782-22.777343l-41.425781-10.425781c-7.285156-1.832032-14.582031-3.992188-21.703125-6.414063-.207031-.070313-.402344-.152344-.601562-.25l-22.011719-10.851563c-7.4375-3.667968-12.121094-11.007812-12.332031-19.261718-8.074219 5.359375-17.550782 8.242187-27.4375 8.242187h-4.515626c-10.078124 0-19.734374-2.996093-27.914062-8.5625zm0 0"/><path d="m239.472656 140.664062c-.234375 0-.464844-.015624-.699218-.046874-.742188-.101563-1.375-.238282-1.984376-.425782-31.660156-9.574218-40.34375-28.609375-42.714843-38.363281-9.367188 6.695313-26.03125 15.800781-48.515625 17.035156-2.78125.160157-5.375-1.089843-7.007813-3.316406-.941406-1.28125-1.46875-2.773437-1.566406-4.300781-13.578125 10.125-36.867187 25.546875-69.007813 17.511718-18.371093-4.59375-30.824218-17.820312-35.066406-37.246093-4.75-21.777344 2.296875-47.453125 16.046875-58.457031 2.542969-2.035157 5.859375-2.914063 9.066407-2.40625 3.117187.492187 5.886718 2.265624 7.605468 4.871093 2.390625 3.625 7.109375 4.417969 14.011719 2.34375 5.640625-1.691406 11.960937-6.101562 19.28125-11.210937 16.128906-11.246094 38.214844-26.652344 73.320313-26.652344 40.457031 0 58.84375 21.691406 64.875 31.015625 1.417968 2.191406 3.285156 3.882813 5.394531 4.886719 12.257812 5.816406 38.574219 26.554687 18.332031 93.34375-.429688 1.410156-1.457031 2.558594-2.808594 3.140625-1.351562.582031-2.894531.539062-4.210937-.121094-.554688-.277344-1.066407-.660156-1.480469-1.121094-2.382812-2.632812-5.441406-4.519531-8.78125-5.476562l.890625 9.535156c.140625 1.519531-.421875 3.023437-1.53125 4.082031-.933594.890625-2.171875 1.378906-3.449219 1.378906zm-43.699218-50.722656c.96875 0 1.949218.1875 2.875.570313 2.523437 1.039062 4.292968 3.375 4.613281 6.089843 2.136719 18.078126 19.820312 27.726563 30.527343 31.957032l-.757812-8.128906c-.128906-1.382813.324219-2.753907 1.25-3.792969.90625-1.015625 2.191406-1.617188 3.550781-1.667969.21875-.015625.40625-.023438.597657-.023438 5.289062 0 10.441406 1.476563 14.894531 4.183594 14.195312-53.5625-5.597657-69.679687-15.101563-74.191406-3.792968-1.800781-7.082031-4.738281-9.507812-8.492188-15.425782-23.867187-44.632813-26.445312-56.472656-26.445312-31.960938 0-51.71875 13.785156-67.597657 24.859375-8.027343 5.597656-14.957031 10.433594-22.125 12.582031-15.265625 4.578125-22.363281-2.054687-25.234375-6.414062-.183594-.277344-.460937-.445313-.816406-.5-.449219-.070313-.90625.050781-1.265625.335937-10.847656 8.679688-16.464844 30.445313-12.519531 48.515625 2.394531 10.976563 9.148437 25.03125 27.71875 29.675782 29.839844 7.457031 50.820312-8.417969 63.355468-17.902344 2.171876-1.640625 4.050782-3.0625 5.703126-4.144532 2.402343-1.574218 5.523437-1.429687 7.769531.367188 2.242187 1.792969 3.074219 4.808594 2.0625 7.5l-1.417969 3.789062c21.917969-1.988281 37.414062-12.519531 43.210938-17.101562 1.355468-1.066406 3.011718-1.621094 4.6875-1.621094zm0 0"/><path d="m242.40625 172.148438c-1.09375 0-2.167969-.359376-3.042969-1.035157-1.105469-.847656-1.804687-2.117187-1.933593-3.5l-4.398438-47.183593c-.128906-1.382813.324219-2.753907 1.25-3.792969.925781-1.035157 2.238281-1.640625 3.625-1.667969.132812-.011719.324219-.023438.523438-.023438 15.875 0 28.785156 12.914063 28.785156 28.78125 0 14.085938-10.082032 26.011719-23.972656 28.355469-.28125.042969-.558594.066407-.835938.066407zm1.15625-46.492188 3.25 34.871094c6.25-3.09375 10.402344-9.5 10.402344-16.800782 0-8.578124-5.785156-15.832031-13.652344-18.070312zm0 0"/><path d="m168.964844 258.488281h-4.515625c-13.039063 0-25.359375-5.007812-34.699219-14.105469l-30.238281-29.449218c-10.476563-10.207032-15.707031-24.410156-14.351563-38.972656l4.765625-51.132813c.214844-2.292969 1.972657-4.144531 4.253907-4.480469 17.640624-2.59375 30.84375-12.582031 39.578124-19.195312 2.171876-1.640625 4.046876-3.058594 5.699219-4.140625 2.402344-1.574219 5.527344-1.425781 7.773438.367187 2.242187 1.792969 3.070312 4.808594 2.0625 7.5l-1.421875 3.789063c21.921875-1.988281 37.417968-12.519531 43.214844-17.101563 2.140624-1.695312 5.035156-2.101562 7.558593-1.054687 2.523438 1.039062 4.292969 3.375 4.613281 6.089843 2.621094 22.136719 28.542969 31.632813 36.429688 34.015626.160156.050781.320312.074218.480469.09375 2.292969.324218 4.066406 2.179687 4.28125 4.488281l3.800781 40.761719c1.359375 14.5625-3.875 28.765624-14.351562 38.972656l-30.242188 29.449218c-9.335938 9.097657-21.65625 14.105469-34.691406 14.105469zm-69.433594-128.933593-4.414062 47.335937c-1.074219 11.539063 3.070312 22.792969 11.371093 30.878906l30.242188 29.449219c7.460937 7.265625 17.304687 11.269531 27.71875 11.269531h4.519531c10.410156 0 20.253906-4.003906 27.710938-11.269531l30.242187-29.449219c8.300781-8.085937 12.449219-19.339843 11.371094-30.878906l-3.480469-37.328125c-10.492188-3.484375-35.507812-14.140625-40.785156-37.703125-9.378906 6.691406-26.023438 15.769531-48.46875 17-2.78125.160156-5.375-1.089844-7.007813-3.316406-.941406-1.28125-1.46875-2.773438-1.566406-4.300781-8.488281 6.324218-21.144531 14.957031-37.453125 18.3125zm0 0"/><path d="m90.988281 172.335938c-.191406 0-.382812-.011719-.578125-.035157-14.5-1.6875-25.433594-13.972656-25.433594-28.574219 0-8.484374 3.726563-16.496093 10.226563-21.988281 1.046875-.882812 2.421875-1.300781 3.777344-1.148437 5.128906.566406 10.242187.484375 15.199219-.242188 1.515624-.21875 3.054687.265625 4.167968 1.320313 1.117188 1.054687 1.683594 2.5625 1.539063 4.09375l-3.917969 42.035156c-.125 1.339844-.789062 2.574219-1.832031 3.421875-.894531.722656-2.007813 1.117188-3.148438 1.117188zm-10.789062-41.589844c-3.339844 3.484375-5.222657 8.117187-5.222657 12.980468 0 7.75 4.722657 14.5 11.574219 17.339844l2.816407-30.199218c-3.035157.160156-6.097657.117187-9.167969-.121094zm0 0"/><path d="m166.566406 217.113281c-8.789062 0-16.984375-4.355469-21.914062-11.648437-1.542969-2.289063-.945313-5.398438 1.34375-6.941406 2.289062-1.546876 5.398437-.945313 6.945312 1.34375 3.0625 4.535156 8.160156 7.246093 13.625 7.246093 5.46875 0 10.566406-2.710937 13.632813-7.246093 1.542969-2.292969 4.65625-2.890626 6.941406-1.34375 2.289063 1.542968 2.890625 4.652343 1.34375 6.941406-4.929687 7.292968-13.121094 11.648437-21.917969 11.648437zm0 0"/><path d="m183.335938 148.636719c-1.789063 0-3.519532-.960938-4.421876-2.652344-1.292968-2.4375-.367187-5.464844 2.070313-6.761719 2.984375-1.585937 7.488281-2.496094 12.355469-2.496094 4.871094 0 9.375.910157 12.355468 2.496094 2.441407 1.296875 3.363282 4.324219 2.066407 6.761719-1.292969 2.441406-4.324219 3.367187-6.761719 2.066406-1.242188-.660156-4.089844-1.324219-7.660156-1.324219-3.566406 0-6.421875.664063-7.664063 1.324219-.746093.398438-1.550781.585938-2.339843.585938zm0 0"/><path d="m149.550781 148.636719c-.792969 0-1.59375-.1875-2.339843-.585938-1.242188-.660156-4.09375-1.324219-7.664063-1.324219s-6.417969.664063-7.660156 1.324219c-2.4375 1.300781-5.464844.375-6.761719-2.066406-1.296875-2.4375-.375-5.464844 2.066406-6.761719 2.980469-1.585937 7.484375-2.496094 12.355469-2.496094 4.867187 0 9.371094.910157 12.355469 2.496094 2.4375 1.296875 3.367187 4.324219 2.070312 6.761719-.902344 1.691406-2.632812 2.652344-4.421875 2.652344zm0 0"/><path d="m140.34375 168c-3.3125 0-6-2.6875-6-6v-1.09375c0-3.3125 2.6875-6 6-6s6 2.6875 6 6v1.09375c0 3.3125-2.683594 6-6 6zm0 0"/><path d="m192.792969 168.839844c-3.316407 0-6-2.6875-6-6v-1.097656c0-3.3125 2.683593-6 6-6 3.3125 0 6 2.6875 6 6v1.097656c0 3.3125-2.6875 6-6 6zm0 0"/><path d="m269.214844 509.164062c-2.761719 0-5-2.238281-5-5v-112.125c0-2.761718 2.238281-5 5-5 2.761718 0 5 2.238282 5 5v112.125c0 2.761719-2.238282 5-5 5zm0 0"/><path d="m63.714844 509.164062c-2.761719 0-5-2.238281-5-5v-112.125c0-2.761718 2.238281-5 5-5 2.761718 0 5 2.238282 5 5v112.125c0 2.761719-2.238282 5-5 5zm0 0"/><path d="m314.726562 512h-132.578124c-1.433594 0-2.800782-.617188-3.75-1.695312-.949219-1.074219-1.390626-2.507813-1.207032-3.933594l30.515625-241.128906c.203125-1.601563 1.167969-3.007813 2.59375-3.773438 1.421875-.765625 3.128907-.792969 4.578125-.082031l19.996094 9.859375c6.761719 2.292968 13.695312 4.335937 20.617188 6.078125l41.425781 10.425781c14.898437 3.75 25.484375 16.578125 26.339843 31.921875l9.644532 173.113281c.277344 4.972656-1.527344 9.902344-4.949219 13.519532-3.421875 3.617187-8.246094 5.695312-13.226563 5.695312zm-126.90625-10h126.90625c2.277344 0 4.394532-.910156 5.957032-2.566406 1.5625-1.652344 2.359375-3.816406 2.230468-6.089844l-9.640624-173.117188c-.613282-10.945312-8.164063-20.101562-18.800782-22.777343l-41.425781-10.425781c-7.289063-1.835938-14.589844-3.992188-21.703125-6.414063-.207031-.070313-.402344-.152344-.601562-.25l-14-6.902344zm0 0"/><path d="m150.777344 512h-132.574219c-4.984375 0-9.804687-2.074219-13.226563-5.695312-3.421874-3.617188-5.226562-8.542969-4.9492182-13.515626l9.6406252-173.117187c.859375-15.34375 11.445312-28.167969 26.34375-31.917969l41.425781-10.429687c6.921875-1.738281 13.855469-3.785157 20.617188-6.074219l19.996093-9.859375c1.449219-.714844 3.152344-.6875 4.582031.082031 1.421876.765625 2.386719 2.171875 2.589844 3.773438l30.515625 241.128906c.179688 1.425781-.261719 2.859375-1.207031 3.933594-.953125 1.074218-2.316406 1.691406-3.753906 1.691406zm-34.597656-238.542969-14 6.902344c-.195313.097656-.390626.179687-.597657.25-7.113281 2.421875-14.417969 4.578125-21.703125 6.414063l-41.425781 10.425781c-10.636719 2.675781-18.191406 11.832031-18.800781 22.777343l-9.640625 173.117188c-.125 2.273438.664062 4.4375 2.230469 6.089844 1.5625 1.65625 3.679687 2.566406 5.957031 2.566406h126.90625zm0 0"/><path d="m166.464844 358.578125c-.320313 0-.660156-.039063-.980469-.097656-.320313-.058594-.640625-.160157-.941406-.28125-.300781-.121094-.578125-.277344-.863281-.460938-.257813-.179687-.519532-.398437-.757813-.617187-.921875-.941406-1.457031-2.222656-1.457031-3.542969 0-.316406.039062-.65625.097656-.976563.0625-.320312.160156-.640624.28125-.941406.121094-.300781.28125-.582031.460938-.859375.175781-.28125.398437-.519531.617187-.761719.242187-.21875.5-.4375.761719-.617187.28125-.183594.558594-.34375.863281-.460937.296875-.121094.617187-.222657.9375-.28125.640625-.140626 1.320313-.140626 1.960937 0 .316407.058593.621094.160156.941407.28125.296875.117187.578125.277343.859375.460937.257812.179687.519531.398437.757812.617187.222656.242188.445313.480469.625.761719.179688.277344.339844.558594.457032.859375.121093.300782.21875.621094.28125.941406.058593.320313.101562.660157.101562.976563 0 1.320313-.542969 2.601563-1.460938 3.542969-.238281.21875-.5.4375-.761718.617187-.277344.183594-.558594.339844-.859375.460938-.320313.121093-.621094.222656-.9375.28125-.324219.058593-.664063.097656-.984375.097656zm0 0"/><path d="m166.464844 389.28125c-.320313 0-.660156-.019531-.980469-.082031-.320313-.078125-.640625-.160157-.941406-.300781-.300781-.117188-.578125-.277344-.863281-.457032-.257813-.179687-.519532-.382812-.757813-.621094-.21875-.21875-.441406-.480468-.621094-.761718-.179687-.257813-.339843-.558594-.460937-.859375-.117188-.300781-.214844-.621094-.277344-.9375-.0625-.320313-.101562-.640625-.101562-.960938 0-1.320312.539062-2.621093 1.457031-3.539062.242187-.242188.5-.441407.761719-.621094.28125-.179687.558593-.339844.863281-.460937.296875-.140626.617187-.21875.9375-.300782.640625-.117187 1.320312-.117187 1.960937 0 .316406.082032.621094.160156.941406.300782.296876.121093.578126.28125.859376.460937.257812.179687.519531.378906.757812.621094.921875.917969 1.460938 2.21875 1.460938 3.539062 0 .320313-.042969.640625-.097657.960938-.0625.316406-.160156.636719-.285156.9375-.117187.300781-.277344.601562-.457031.859375-.179688.28125-.398438.542968-.621094.761718-.242188.238282-.5.441407-.761719.621094-.277343.179688-.558593.339844-.859375.457032-.320312.140624-.621094.222656-.9375.300781-.316406.0625-.65625.082031-.976562.082031zm0 0"/><path d="m166.464844 420c-.320313 0-.660156-.039062-.980469-.101562-.320313-.058594-.640625-.160157-.941406-.277344-.300781-.140625-.578125-.28125-.863281-.460938-.257813-.179687-.519532-.398437-.757813-.621094-.21875-.238281-.441406-.5-.621094-.757812-.179687-.28125-.339843-.5625-.460937-.859375-.117188-.320313-.214844-.621094-.277344-.941406-.0625-.320313-.101562-.660157-.101562-.980469s.039062-.660156.101562-.980469c.058594-.320312.160156-.640625.277344-.941406.125-.296875.285156-.578125.460937-.859375.179688-.277344.402344-.519531.621094-.757812.238281-.222657.5-.441407.757813-.621094.285156-.179688.5625-.339844.863281-.460938.296875-.117187.621093-.21875.941406-.277344.640625-.140624 1.320313-.140624 1.960937 0 .316407.058594.617188.160157.9375.277344.296876.121094.582032.28125.859376.460938.261718.179687.519531.398437.761718.621094.21875.238281.441406.480468.621094.757812.179688.28125.339844.5625.457031.859375.125.300781.222657.621094.285157.941406.054687.320313.097656.660157.097656.980469s-.042969.660156-.097656.980469c-.0625.320312-.160157.621093-.285157.941406-.117187.296875-.277343.578125-.457031.859375-.179688.257812-.398438.519531-.621094.757812-.242187.222657-.5.441407-.761718.621094-.277344.179688-.558594.320313-.859376.460938-.320312.117187-.621093.21875-.9375.277344-.320312.0625-.660156.101562-.980468.101562zm0 0"/><path d="m166.464844 450.699219c-.320313 0-.660156-.019531-.980469-.097657-.320313-.0625-.640625-.160156-.941406-.28125-.300781-.121093-.578125-.28125-.863281-.460937-.257813-.179687-.519532-.378906-.757813-.621094-.21875-.21875-.441406-.476562-.621094-.757812-.179687-.261719-.339843-.558594-.460937-.859375-.117188-.300782-.214844-.621094-.277344-.941406-.0625-.320313-.101562-.640626-.101562-.980469 0-.320313.039062-.640625.101562-.960938.058594-.316406.160156-.636719.277344-.9375.125-.300781.285156-.601562.460937-.859375.179688-.28125.402344-.542968.621094-.761718.238281-.238282.5-.441407.757813-.621094.285156-.179688.5625-.339844.863281-.457032.296875-.140624.621093-.222656.941406-.300781.640625-.121093 1.320313-.121093 1.960937 0 .316407.078125.617188.160157.9375.300781.296876.117188.582032.277344.859376.457032.261718.179687.519531.382812.761718.621094.21875.21875.441406.480468.621094.761718.179688.257813.339844.558594.457031.859375.125.300781.222657.621094.285157.9375.054687.320313.097656.640625.097656.960938 0 .339843-.042969.660156-.097656.980469-.0625.320312-.160157.640624-.285157.941406-.117187.300781-.277343.597656-.457031.859375-.179688.28125-.398438.539062-.621094.757812-.242187.242188-.5.441407-.761718.621094-.277344.179687-.558594.339844-.859376.460937-.320312.121094-.621093.21875-.9375.28125-.320312.078126-.660156.097657-.980468.097657zm0 0"/><path d="m166.464844 481.421875c-.320313 0-.660156-.042969-.980469-.101563-.320313-.058593-.640625-.160156-.941406-.28125-.300781-.117187-.578125-.277343-.863281-.460937-.257813-.179687-.519532-.398437-.757813-.617187-.21875-.242188-.441406-.5-.621094-.761719-.179687-.277344-.339843-.558594-.460937-.859375-.117188-.320313-.214844-.621094-.277344-.941406-.0625-.320313-.101562-.660157-.101562-.976563 0-.320313.039062-.660156.101562-.980469.058594-.320312.160156-.640625.277344-.941406.125-.300781.285156-.578125.460937-.859375.179688-.28125.402344-.519531.621094-.761719.238281-.21875.5-.4375.757813-.617187.285156-.183594.5625-.339844.863281-.460938.296875-.121093.621093-.222656.941406-.28125.640625-.140625 1.320313-.140625 1.960937 0 .316407.058594.617188.160157.9375.28125.296876.121094.582032.277344.859376.460938.261718.179687.519531.398437.761718.617187.21875.242188.441406.480469.621094.761719s.339844.558594.457031.859375c.125.300781.222657.621094.285157.941406.054687.320313.097656.660156.097656.980469 0 .316406-.042969.65625-.097656.976563-.0625.320312-.160157.621093-.285157.941406-.117187.300781-.277343.582031-.457031.859375-.179688.261719-.398438.519531-.621094.761719-.242187.21875-.5.4375-.761718.617187-.277344.183594-.558594.34375-.859376.460937-.320312.121094-.621093.222657-.9375.28125-.320312.058594-.660156.101563-.980468.101563zm0 0"/><path d="m205.1875 512h-23.039062c-1.4375 0-2.800782-.617188-3.75-1.695312-.949219-1.074219-1.390626-2.507813-1.210938-3.933594l30.515625-241.128906c.203125-1.601563 1.171875-3.007813 2.59375-3.773438 1.425781-.765625 3.132813-.792969 4.582031-.082031l19.984375 9.855469c.433594.140624.871094.277343 1.304688.410156.46875.144531.9375.292968 1.402343.445312 1.804688.589844 3.117188 2.148438 3.390626 4.027344l10.324218 70.550781c.445313 3.03125-.75 6.125-3.125 8.070313l-17.902344 14.644531 12.335938 29.957031c.789062 1.910156.875 4.042969.246094 6.015625l-32.890625 103.15625c-.660157 2.074219-2.585938 3.480469-4.761719 3.480469zm-17.367188-10h13.710938l31.644531-99.257812-12.503906-30.375c-1.484375-3.601563-.457031-7.679688 2.558594-10.148438l18.0625-14.773438-9.773438-66.777343c-.058593-.019531-.117187-.039063-.175781-.058594-.207031-.070313-.40625-.152344-.601562-.25l-14-6.90625zm0 0"/><path d="m150.777344 512h-23.039063c-2.175781 0-4.101562-1.40625-4.761719-3.480469l-32.890624-103.160156c-.625-1.964844-.539063-4.101563.246093-6.015625l12.335938-29.953125-17.898438-14.644531c-2.375-1.945313-3.574219-5.039063-3.128906-8.074219l10.324219-70.546875c.277344-1.878906 1.589844-3.4375 3.394531-4.027344.460937-.152344.933594-.300781 1.398437-.445312.4375-.132813.875-.269532 1.304688-.410156l19.988281-9.855469c1.449219-.714844 3.152344-.6875 4.582031.082031 1.421876.765625 2.386719 2.171875 2.589844 3.773438l30.515625 241.128906c.179688 1.425781-.261719 2.859375-1.207031 3.933594-.953125 1.078124-2.316406 1.695312-3.753906 1.695312zm-19.382813-10h13.710938l-28.925781-228.542969-14 6.902344c-.195313.097656-.394532.179687-.601563.25-.054687.019531-.117187.039063-.175781.0625l-9.769532 66.773437 18.058594 14.777344c3.015625 2.464844 4.042969 6.542969 2.558594 10.144532l-12.503906 30.375zm0 0"/><path d="m203.15625 337.195312c-.925781 0-1.859375-.257812-2.695312-.792968l-2.714844-1.742188c-1.433594-.921875-2.300782-2.507812-2.300782-4.207031v-19.167969c-.105468-.015625-.238281-.019531-.386718.035156l-18.269532 6.585938c-1.8125.652344-3.84375.207031-5.214843-1.148438-.238281-.238281-.496094-.453124-.761719-.660156-1.066406-.835937-1.75-2.070312-1.894531-3.417968-.140625-1.347657.273437-2.695313 1.140625-3.734376l38.777344-46.285156c1.421874-1.699218 3.804687-2.257812 5.832031-1.371094 2.035156.886719 3.238281 3.007813 2.960937 5.207032l-8.132812 64.265625c-.097656.765625-.371094 1.5-.796875 2.140625l-1.375 2.058594c-.964844 1.445312-2.550781 2.230468-4.167969 2.234374zm-7.832031-35.925781c2.15625 0 4.285156.652344 6.074219 1.910157.496093.347656.949218.730468 1.359374 1.144531l2.808594-22.195313-17.726562 21.160156 3.824218-1.378906c1.191407-.429687 2.429688-.640625 3.660157-.640625zm0 0"/><path d="m130.105469 336.769531c-1.640625 0-3.214844-.808593-4.160157-2.226562l-1.855468-2.785157c-.429688-.644531-.703125-1.378906-.800782-2.144531l-7.984374-63.117187c-.269532-2.109375.832031-4.160156 2.738281-5.105469l.4375-.214844c2.070312-1.023437 4.570312-.5 6.054687 1.269531l37.878906 45.21875c.964844 1.148438 1.363282 2.667969 1.082032 4.140626-.277344 1.472656-1.203125 2.742187-2.515625 3.460937-.730469.394531-1.410157.902344-2.019531 1.5-1.371094 1.347656-3.394532 1.789063-5.203126 1.136719l-18.265624-6.585938c-.152344-.050781-.285157-.050781-.386719-.035156v20.488281c0 2.203125-1.445313 4.148438-3.550781 4.785157-.476563.148437-.96875.214843-1.449219.214843zm5.121093-35.5c1.226563 0 2.46875.210938 3.660157.640625l8.117187 2.925782-19.753906-23.578126 2.710938 21.402344c1.605468-.917968 3.425781-1.390625 5.265624-1.390625zm0 0"/><path d="m152.394531 322.679688c-.664062 0-1.339843-.136719-1.992187-.417969-1.878906-.816407-3.003906-2.65625-3.007813-4.582031 0-.667969.136719-1.34375.417969-1.996094.015625-.035156.027344-.066406.046875-.101563.015625-.035156.03125-.066406.042969-.101562 1.121094-2.371094 3.886718-3.488281 6.34375-2.527344 2.503906.980469 3.789062 3.761719 2.902344 6.300781-.039063.113282-.085938.230469-.136719.351563-.011719.027343-.027344.066406-.042969.097656-.023438.054687-.046875.105469-.074219.15625-.855469 1.769531-2.636719 2.820313-4.5 2.820313zm0 0"/><path d="m165.277344 342.175781c-10.480469 0-19.003906-8.523437-19.003906-19 0-10.476562 8.523437-19 19.003906-19 10.472656 0 19 8.523438 19 19 0 10.476563-8.523438 19-19 19zm0-28c-4.964844 0-9.003906 4.035157-9.003906 9 0 4.960938 4.039062 9 9.003906 9 4.960937 0 9-4.039062 9-9 0-4.964843-4.039063-9-9-9zm0 0"/><path d="m195.324219 345.082031c-1.226563 0-2.464844-.210937-3.660157-.640625l-18.269531-6.582031c-1.617187-.585937-2.820312-1.957031-3.1875-3.636719-.371093-1.675781.152344-3.429687 1.375-4.632812 1.738281-1.707032 2.695313-3.984375 2.695313-6.410156 0-2.429688-.957032-4.707032-2.695313-6.410157-1.222656-1.207031-1.746093-2.957031-1.375-4.636719.367188-1.675781 1.570313-3.050781 3.1875-3.632812l18.269531-6.585938c3.285157-1.179687 6.921876-.707031 9.734376 1.269532 2.570312 1.804687 4.046874 4.578125 4.046874 7.605468v24.78125c0 3.03125-1.476562 5.800782-4.046874 7.609376-1.792969 1.253906-3.917969 1.902343-6.074219 1.902343zm-12.550781-14.476562 12.28125 4.425781c.152343.058594.285156.054688.390624.035156v-23.78125c-.109374-.019531-.238281-.019531-.390624.035156l-12.28125 4.425782c.984374 2.316406 1.503906 4.832031 1.503906 7.429687 0 2.597657-.519532 5.113281-1.503906 7.429688zm0 0"/><path d="m135.226562 345.082031c-2.15625 0-4.28125-.648437-6.074218-1.90625-2.570313-1.808593-4.042969-4.582031-4.042969-7.609375v-24.78125c0-3.027344 1.472656-5.800781 4.042969-7.609375 2.8125-1.972656 6.453125-2.449219 9.734375-1.265625l18.269531 6.582032c1.617188.585937 2.820312 1.957031 3.1875 3.636718.371094 1.675782-.152344 3.429688-1.375 4.632813-1.738281 1.707031-2.691406 3.980469-2.691406 6.410156s.953125 4.707031 2.691406 6.414063c1.222656 1.203124 1.746094 2.953124 1.375 4.632812-.367188 1.675781-1.570312 3.050781-3.1875 3.632812l-18.269531 6.585938c-1.191407.433594-2.433594.644531-3.660157.644531zm-.121093-10.015625c.105469.019532.238281.023438.386719-.035156l12.285156-4.425781c-.984375-2.316407-1.503906-4.832031-1.503906-7.429688 0-2.597656.519531-5.113281 1.503906-7.429687l-12.285156-4.425782c-.148438-.054687-.28125-.050781-.386719-.035156zm0 0"/><path d="m173.886719 317.152344c-1.078125 0-2.167969-.347656-3.082031-1.0625-2.804688-2.199219-6.742188-2.503906-9.828126-.824219-2.09375 1.136719-4.695312.644531-6.222656-1.179687l-37.882812-45.222657c-.984375-1.175781-1.375-2.742187-1.058594-4.242187.316406-1.503906 1.304688-2.777344 2.683594-3.457032l1.28125-.628906c4.167968-2.054687 6.761718-6.222656 6.761718-10.875v-10.523437c0-2.007813 1.203126-3.824219 3.050782-4.605469 1.863281-.78125 3.996094-.375 5.433594 1.023438l1.707031 1.664062c7.464843 7.265625 17.308593 11.265625 27.722656 11.265625h4.519531c10.410156 0 20.253906-4 27.714844-11.265625l1.222656-1.191406c1.4375-1.402344 3.578125-1.804688 5.429688-1.023438 1.855468.78125 3.054687 2.597656 3.054687 4.605469v10.050781c0 4.652344 2.589844 8.820313 6.761719 10.875l1.722656.847656c1.375.679688 2.363282 1.953126 2.679688 3.457032.316406 1.5-.074219 3.0625-1.058594 4.238281l-38.777344 46.285156c-.988281 1.179688-2.40625 1.789063-3.835937 1.789063zm-8.613281-12.976563c2.617187 0 5.144531.523438 7.488281 1.535157l32.261719-38.503907c-5.257813-4.015625-8.449219-10.179687-8.625-16.960937-8.074219 5.359375-17.550782 8.242187-27.4375 8.242187h-4.515626c-10.082031 0-19.738281-2.996093-27.914062-8.5625-.078125 6.742188-3.136719 12.902344-8.253906 16.988281l31.816406 37.980469c1.683594-.476562 3.425781-.71875 5.179688-.71875zm0 0"/></g></svg>