<svg height="512pt" viewBox="-96 0 512 512.00932" width="512pt" xmlns="http://www.w3.org/2000/svg"><path d="m314.09375 493.671875-9.226562-165.710937c-.699219-12.511719-9.453126-23.121094-21.605469-26.179688l-39.652344-9.980469c-6.878906-1.730469-13.6875-3.742187-20.402344-6.027343l-17.542969-8.648438-3.527343-1.738281c-5.597657-2.761719-9.140625-8.460938-9.140625-14.703125v-11.453125c-10.171875 6.523437-21.785156 10.402343-34.097656 10.402343-11.78125 0-22.921876-3.566406-32.773438-9.589843v10.644531c0 6.242188-3.542969 11.941406-9.140625 14.703125l-2.597656 1.28125-17.457031 8.605469c-7.390626 2.617187-14.902344 4.886718-22.507813 6.800781l-38.5625 9.707031c-12.152344 3.058594-20.90625 13.667969-21.605469 26.179688l-9.226562 165.710937c-.40625 7.242188 5.359375 13.335938 12.613281 13.335938h283.839844c7.253906-.003907 13.019531-6.097657 12.613281-13.339844zm0 0" fill="#e8e6e6"/><path d="m202.136719 275.386719c-5.597657-2.761719-9.144531-8.460938-9.144531-14.703125v-11.453125c-10.167969 6.523437-21.78125 10.402343-34.09375 10.402343-11.785157 0-22.921876-3.566406-32.773438-9.589843v10.644531c0 6.242188-3.546875 11.941406-9.144531 14.703125l-1.226563.601563 37.953125 45.300781h12.300781l37.777344-45.09375zm0 0" fill="#fcb275"/><path d="m229.328125 287.71875c-2.042969-.640625-4.09375-1.253906-6.121094-1.945312l-17.542969-8.648438-1.878906-.929688-37.777344 45.09375 28.675782 18.390626zm0 0" fill="#e8e6e6"/><path d="m90.253906 287.519531 34.773438 52.160157 28.679687-18.390626-37.953125-45.296874-1.371094.675781-17.457031 8.605469c-2.210937.785156-4.4375 1.527343-6.671875 2.246093zm0 0" fill="#e8e6e6"/><path d="m194.679688 344.679688c-.921876 0-1.859376-.253907-2.691407-.789063l-28.679687-18.394531c-1.207032-.773438-2.023438-2.03125-2.242188-3.453125-.21875-1.417969.1875-2.863281 1.109375-3.964844l37.777344-45.09375c1.480469-1.765625 3.972656-2.292969 6.042969-1.273437l19.128906 9.429687c1.378906.464844 2.773438.898437 4.167969 1.328125l1.53125.476562c1.5.46875 2.695312 1.621094 3.21875 3.105469.527343 1.484375.320312 3.128907-.554688 4.441407l-34.640625 51.960937c-.964844 1.445313-2.550781 2.226563-4.167968 2.226563zm-21.191407-24.535157 19.761719 12.675781 28.234375-42.351562c-.167969-.0625-.332031-.132812-.488281-.210938l-15.902344-7.839843zm0 0" fill="#231f20"/><path d="m125.03125 344.679688c-1.617188 0-3.203125-.78125-4.164062-2.226563l-34.777344-52.160156c-.867188-1.304688-1.078125-2.941407-.558594-4.417969.515625-1.476562 1.695312-2.632812 3.183594-3.113281 2.097656-.675781 4.1875-1.371094 6.265625-2.105469l18.558593-9.152344c2.070313-1.015625 4.566407-.492187 6.042969 1.277344l37.953125 45.296875c.921875 1.101563 1.324219 2.546875 1.109375 3.964844-.21875 1.421875-1.035156 2.679687-2.246093 3.453125l-28.675782 18.394531c-.832031.53125-1.765625.789063-2.691406.789063zm-26.992188-54.496094 28.425782 42.636718 19.761718-12.675781-31.78125-37.933593-15.304687 7.546874c-.175781.085938-.359375.164063-.542969.230469-.1875.066407-.371094.132813-.558594.195313zm0 0" fill="#231f20"/><path d="m301.476562 512.007812h-283.835937c-4.828125 0-9.5-2.011718-12.816406-5.515624-3.316407-3.507813-5.0625-8.28125-4.792969-13.097657l9.230469-165.710937c.824219-14.78125 11.023437-27.136719 25.375-30.75l38.566406-9.707032c7.324219-1.84375 14.652344-4.054687 21.78125-6.570312l19.789063-9.757812c3.917968-1.929688 6.355468-5.84375 6.355468-10.214844v-10.644532c0-1.808593.976563-3.476562 2.550782-4.363281 1.578124-.886719 3.511718-.851562 5.054687.09375 9.609375 5.878907 19.757813 8.859375 30.167969 8.859375 10.742187 0 21.597656-3.324218 31.394531-9.609375 1.539063-.984375 3.496094-1.054687 5.097656-.179687 1.605469.878906 2.601563 2.5625 2.601563 4.390625v11.453125c0 4.371094 2.433594 8.285156 6.355468 10.214844l20.777344 10.246093c6.464844 2.1875 13.09375 4.144531 19.703125 5.808594l39.652344 9.980469c14.355469 3.613281 24.554687 15.96875 25.378906 30.75l9.226563 165.710937c.269531 4.816407-1.476563 9.589844-4.792969 13.097657-3.320313 3.503906-7.992187 5.515624-12.820313 5.515624zm-170.351562-253.636718v2.3125c0 8.207031-4.570312 15.558594-11.929688 19.1875l-20.054687 9.886718c-.175781.085938-.359375.164063-.542969.226563-7.511718 2.660156-15.234375 4.996094-22.953125 6.9375l-38.566406 9.707031c-10.085937 2.539063-17.25 11.222656-17.832031 21.609375l-9.230469 165.710938c-.117187 2.117187.621094 4.128906 2.078125 5.671875 1.457031 1.539062 3.429688 2.386718 5.546875 2.386718h283.839844c2.121093 0 4.089843-.847656 5.546875-2.390624 1.457031-1.539063 2.195312-3.554688 2.078125-5.667969l-9.230469-165.710938c-.582031-10.386719-7.746094-19.070312-17.832031-21.609375l-39.65625-9.980468c-6.976563-1.757813-13.972657-3.824219-20.789063-6.144532-.207031-.070312-.40625-.152344-.601562-.25l-21.070313-10.386718c-7.359375-3.628907-11.929687-10.980469-11.929687-19.1875v-2.921876c-9.300782 4.511719-19.21875 6.867188-29.097656 6.867188-9.382813.003906-18.847657-2.144531-27.773438-6.253906zm0 0" fill="#231f20"/><path d="m166.007812 326.289062h-12.300781c-1.480469 0-2.882812-.65625-3.835937-1.789062l-37.949219-45.296875c-.988281-1.179687-1.375-2.742187-1.058594-4.242187.3125-1.503907 1.304688-2.777344 2.679688-3.457032l1.226562-.601562c3.917969-1.933594 6.351563-5.847656 6.351563-10.21875v-10.644532c0-1.808593.976562-3.476562 2.554687-4.363281 1.578125-.882812 3.507813-.847656 5.054688.097657 9.609375 5.875 19.757812 8.855468 30.164062 8.855468 10.742188 0 21.597657-3.320312 31.398438-9.609375 1.539062-.984375 3.492187-1.050781 5.097656-.175781 1.601563.875 2.601563 2.558594 2.601563 4.386719v11.453125c0 4.371094 2.433593 8.285156 6.351562 10.21875l1.648438.8125c1.375.675781 2.367187 1.949218 2.679687 3.453125.316406 1.5-.074219 3.066406-1.058594 4.242187l-37.777343 45.089844c-.945313 1.132812-2.347657 1.789062-3.828126 1.789062zm-9.96875-10h7.632813l32.488281-38.78125c-5.121094-4-8.164062-10.125-8.164062-16.824218v-2.925782c-9.300782 4.511719-19.21875 6.871094-29.097656 6.871094-9.382813 0-18.84375-2.148437-27.773438-6.257812v2.3125c0 6.542968-2.90625 12.539062-7.8125 16.542968zm0 0" fill="#231f20"/><path d="m231.089844 132.558594v47.113281c0 3.6875-.28125 7.382813-.824219 11.046875 1.054687.125 2.121094.21875 3.214844.21875 16.160156 0 29.257812-13.097656 29.257812-29.257812.003907-17.152344-14.683593-30.53125-31.648437-29.121094zm0 0" fill="#fcb275"/><path d="m86.707031 179.671875v-47.152344c-.789062-.066406-1.582031-.101562-2.390625-.101562-16.160156 0-29.257812 13.101562-29.257812 29.261719 0 16.160156 13.097656 29.257812 29.257812 29.257812 1.089844 0 2.15625-.09375 3.214844-.21875-.542969-3.664062-.824219-7.359375-.824219-11.046875zm0 0" fill="#fcb275"/><path d="m199.976562 91.378906-.015624.003906c-26.542969 7.921876-54.878907 7.472657-81.152344-1.277343-7.410156-2.464844-15.683594-1.390625-21.878906 3.359375-6.214844 4.761718-10.222657 12.261718-10.222657 20.699218v65.507813c0 39.707031 32.488281 79.957031 72.191407 79.957031 39.707031 0 72.191406-40.25 72.191406-79.957031v-65.789063c0-16.46875-16.222656-26.949218-31.113282-22.503906zm0 0" fill="#fcb275"/><path d="m166.007812 321.289062h-12.300781l-14.457031 9.269532c1.285156 10.058594 9.917969 17.902344 20.308594 17.902344 10.511718 0 19.238281-8.027344 20.359375-18.25zm0 0" fill="#e04e36"/><path d="m170.605469 345.191406c-3.195313 2.0625-6.984375 3.269532-11.046875 3.269532-4.066406 0-7.851563-1.214844-11.042969-3.277344l-12.847656 121.351562c-.183594 1.730469.425781 3.449219 1.65625 4.679688l18.164062 18.164062c2.25 2.25 5.898438 2.25 8.144531 0l18.164063-18.164062c1.230469-1.230469 1.839844-2.949219 1.65625-4.679688zm0 0" fill="#e04e36"/><path d="m86.707031 132.519531v-18.355469c0-8.433593 4.007813-15.933593 10.222657-20.699218 6.195312-4.75 14.46875-5.820313 21.878906-3.355469 48.058594 16.003906 74.609375-.453125 87.621094.285156 12.765624-.289062 24.660156 9.390625 24.660156 23.488281v18.585938c5.101562-.082031 9.292968.375 13.996094 2.414062 3.105468-9.488281 18.023437-60.203124-8.445313-86.128906 0 0-7.804687-21.027344-39.027344-24.851562-17.625-2.15625-29.503906-9.902344-33.953125-16.175782-1.203125-1.699218-3.179687-2.660156-5.253906-2.703124v-.019532c-.027344 0-.050781.007813-.074219.007813-.027343 0-.050781-.007813-.074219-.007813v.019532c-2.078124.046874-4.050781 1.003906-5.253906 2.703124-4.449218 6.273438-16.328125 14.019532-33.953125 16.175782-31.222656 3.824218-39.027343 24.851562-39.027343 24.851562-26.917969 26.367188-11.039063 78.34375-8.304688 86.546875 4.5625-2.183593 9.660156-3.222656 14.988281-2.78125zm0 0" fill="#7c292e"/><g fill="#231f20"><path d="m257.914062 509.296875c-2.761718 0-5-2.238281-5-5v-107.332031c0-2.761719 2.238282-5 5-5 2.761719 0 5 2.238281 5 5v107.332031c0 2.757813-2.238281 5-5 5zm0 0"/><path d="m61.207031 509.296875c-2.761719 0-5-2.238281-5-5v-107.332031c0-2.761719 2.238281-5 5-5s5 2.238281 5 5v107.332031c0 2.757813-2.238281 5-5 5zm0 0"/><path d="m233.480469 195.9375c-1.148438 0-2.324219-.078125-3.808594-.253906-1.339844-.160156-2.558594-.855469-3.378906-1.929688-.820313-1.070312-1.171875-2.429687-.972657-3.765625.507813-3.464843.769532-6.9375.769532-10.316406v-47.113281c0-2.601563 1.992187-4.769532 4.585937-4.984375 9.503907-.792969 18.996094 2.46875 26.027344 8.9375 7.015625 6.460937 11.039063 15.632812 11.039063 25.167969 0 18.890624-15.371094 34.257812-34.261719 34.257812zm2.609375-58.339844v42.074219c0 2.03125-.082032 4.085937-.246094 6.152344 12.273438-1.191407 21.894531-11.566407 21.894531-24.144531 0-6.847657-2.773437-13.171876-7.8125-17.804688-3.839843-3.539062-8.714843-5.722656-13.835937-6.277344zm0 0"/><path d="m84.316406 195.9375c-18.894531 0-34.261718-15.367188-34.261718-34.257812 0-18.890626 15.371093-34.261719 34.261718-34.261719.945313 0 1.878906.042969 2.804688.121093 2.589844.210938 4.585937 2.378907 4.585937 4.980469v47.152344c0 3.386719.257813 6.859375.769531 10.316406.195313 1.335938-.15625 2.695313-.976562 3.769531-.820312 1.070313-2.039062 1.765626-3.378906 1.925782-1.484375.175781-2.65625.253906-3.804688.253906zm-2.609375-58.378906c-12.152343 1.304687-21.652343 11.621094-21.652343 24.121094 0 12.578124 9.625 22.953124 21.894531 24.144531-.160157-2.066407-.242188-4.121094-.242188-6.152344zm0 0"/><path d="m160.378906 223.167969c-8.648437 0-16.707031-4.28125-21.554687-11.453125-1.542969-2.289063-.945313-5.398438 1.34375-6.945313 2.292969-1.542969 5.394531-.941406 6.941406 1.34375 2.984375 4.417969 7.945313 7.054688 13.265625 7.054688s10.28125-2.636719 13.265625-7.050781c1.542969-2.289063 4.648437-2.890626 6.941406-1.347657 2.289063 1.546875 2.890625 4.65625 1.34375 6.945313-4.84375 7.171875-12.898437 11.453125-21.546875 11.453125zm0 0"/><path d="m196.398438 156.09375c-.792969 0-1.597657-.1875-2.34375-.585938-1.207032-.636718-3.980469-1.285156-7.457032-1.285156-3.476562 0-6.25.644532-7.457031 1.285156-2.4375 1.296876-5.464844.375-6.761719-2.066406-1.296875-2.4375-.371094-5.464844 2.070313-6.761718 2.9375-1.5625 7.363281-2.457032 12.148437-2.457032s9.214844.894532 12.152344 2.457032c2.4375 1.296874 3.363281 4.324218 2.066406 6.761718-.898437 1.691406-2.628906 2.652344-4.417968 2.652344zm0 0"/><path d="m143.710938 156.09375c-.792969 0-1.597657-.1875-2.34375-.585938-1.207032-.636718-3.980469-1.285156-7.457032-1.285156-3.480468 0-6.25.644532-7.457031 1.285156-2.4375 1.296876-5.464844.375-6.761719-2.066406-1.296875-2.4375-.371094-5.464844 2.066406-6.761718 2.941407-1.5625 7.367188-2.457032 12.152344-2.457032s9.214844.894532 12.152344 2.457032c2.4375 1.296874 3.363281 4.324218 2.066406 6.761718-.902344 1.691406-2.632812 2.652344-4.417968 2.652344zm0 0"/><path d="m134.691406 175.082031c-3.316406 0-6-2.683593-6-6v-1.070312c0-3.3125 2.683594-6 6-6 3.3125 0 6 2.6875 6 6v1.070312c0 3.3125-2.6875 6-6 6zm0 0"/><path d="m186.0625 175.902344c-3.316406 0-6-2.683594-6-6v-1.070313c0-3.316406 2.683594-6 6-6 3.3125 0 6 2.683594 6 6v1.070313c0 3.316406-2.6875 6-6 6zm0 0"/><path d="m158.898438 264.628906c-44.179688 0-77.191407-44.851562-77.191407-84.957031v-65.507813c0-9.742187 4.4375-18.734374 12.179688-24.667968 7.378906-5.65625 17.285156-7.199219 26.5-4.128906 25.433593 8.464843 52.457031 8.890624 78.144531 1.226562l1.445312 4.789062-1.429687-4.792968c8.917969-2.664063 18.710937-.929688 26.183594 4.640625 7.21875 5.378906 11.359375 13.636719 11.359375 22.652343v65.789063c0 40.101563-33.011719 84.957031-77.191406 84.957031zm-47.992188-170.8125c-3.988281 0-7.828125 1.234375-10.9375 3.617188-5.25 4.027344-8.261719 10.125-8.261719 16.730468v65.507813c0 42.902344 35.472657 74.957031 67.191407 74.957031s67.191406-32.054687 67.191406-74.957031v-65.789063c0-5.910156-2.605469-11.109374-7.335938-14.632812-4.953125-3.691406-11.4375-4.839844-17.351562-3.078125-27.707032 8.261719-56.792969 7.800781-84.175782-1.320313-2.089843-.695312-4.226562-1.035156-6.320312-1.035156zm0 0"/><path d="m159.558594 353.464844c-12.78125 0-23.644532-9.578125-25.265625-22.273438-.246094-1.917968.632812-3.800781 2.257812-4.84375l14.453125-9.265625c.808594-.515625 1.742188-.792969 2.703125-.792969h12.300781c.957032 0 1.894532.273438 2.699219.792969l13.914063 8.921875c1.597656 1.027344 2.476562 2.867188 2.269531 4.753906-1.425781 12.945313-12.316406 22.707032-25.332031 22.707032zm-14.667969-20.582032c2.078125 6.199219 7.933594 10.582032 14.667969 10.582032 6.898437 0 12.816406-4.511719 14.785156-10.886719l-9.800781-6.289063h-9.375zm0 0"/><path d="m159.558594 496.066406c-2.875 0-5.574219-1.121094-7.605469-3.152344l-18.164063-18.164062c-2.3125-2.308594-3.4375-5.496094-3.09375-8.742188l12.847657-121.347656c.183593-1.730468 1.25-3.238281 2.820312-3.988281 1.5625-.75 3.410157-.628906 4.867188.3125 5.011719 3.242187 11.65625 3.238281 16.660156.003906 1.460937-.941406 3.304687-1.058593 4.871094-.308593 1.566406.75 2.632812 2.257812 2.816406 3.984374l12.84375 121.34375c.34375 3.246094-.78125 6.429688-3.089844 8.742188l-18.164062 18.164062c-2.03125 2.03125-4.734375 3.152344-7.609375 3.152344zm-6.792969-143.535156-12.125 114.527344c-.023437.230468.054687.453125.21875.617187l18.164063 18.164063c.367187.371094.707031.371094 1.074218 0l18.164063-18.164063c.164062-.164062.242187-.386719.21875-.617187l-12.125-114.527344c-4.402344 1.230469-9.183594 1.230469-13.589844 0zm0 0"/><path d="m71.71875 140.300781c-.664062 0-1.328125-.132812-1.953125-.398437-1.320313-.5625-2.335937-1.664063-2.789063-3.023438-3.425781-10.28125-18.960937-62.625 8.835938-90.984375 2.222656-4.820312 12.613281-23.28125 42.632812-26.957031 17.707032-2.167969 27.488282-9.886719 30.476563-14.105469 1.976563-2.789062 5.195313-4.550781 8.691406-4.785156.234375-.03125.464844-.05078125.71875-.04296875.246094-.01171875.492188.00781255.726563.04296875 3.492187.234375 6.707031 2 8.683594 4.785156 2.988281 4.21875 12.769531 11.9375 30.476562 14.105469 30.019531 3.675781 40.414062 22.136719 42.636719 26.957031 27.539062 28.105469 12.335937 80.289063 8.980469 90.539063-.4375 1.335937-1.414063 2.425781-2.699219 3.003906-1.28125.574219-2.75.585938-4.039063.027344-4.066406-1.761719-7.582031-2.074219-11.929687-2-1.304688.070312-2.628907-.496094-3.585938-1.4375-.953125-.941406-1.492187-2.222656-1.492187-3.5625v-18.585938c0-6.347656-2.933594-10.550781-5.394532-12.957031-3.71875-3.632813-8.890624-5.664063-14.152343-5.53125-.132813 0-.265625 0-.398438-.007813-2.816406-.160156-7.222656.878907-12.335937 2.085938-15.050782 3.542969-40.238282 9.484375-76.582032-2.621094-6.066406-2.019531-12.515624-1.054687-17.257812 2.578125-5.25 4.027344-8.261719 10.125-8.261719 16.734375v18.351563c0 1.398437-.585937 2.730469-1.613281 3.679687-1.027344.945313-2.402344 1.414063-3.796875 1.304688-4.300781-.355469-8.480469.421875-12.417969 2.308594-.683594.332031-1.421875.496093-2.160156.496093zm86.613281-130.28125c-.535156.023438-1 .242188-1.25.59375-4.886719 6.902344-17.625 15.828125-37.421875 18.25-27.878906 3.414063-34.882812 21.449219-34.949218 21.628907-.257813.6875-.664063 1.316406-1.1875 1.832031-21.492188 21.050781-12.707032 61.683593-8.570313 76.417969 2.207031-.632813 4.46875-1.039063 6.753906-1.21875v-13.363282c0-9.742187 4.4375-18.734375 12.179688-24.667968 7.375-5.65625 17.28125-7.199219 26.5-4.132813 33.652343 11.207031 56.203125 5.894531 71.125 2.375 6.015625-1.414063 10.789062-2.546875 14.996093-2.34375 7.886719-.121094 15.59375 2.921875 21.175782 8.378906 5.421875 5.300781 8.402344 12.441407 8.402344 20.109375v13.710938c1.824218.140625 3.71875.414062 5.703124.90625 1.871094-6.671875 4.574219-18.191406 5.167969-30.753906.957031-20.222657-3.695312-35.503907-13.816406-45.421876-.527344-.515624-.933594-1.140624-1.1875-1.832031-.277344-.707031-7.402344-18.253906-34.953125-21.628906-19.796875-2.421875-32.53125-11.34375-37.421875-18.25-.246094-.347656-.710937-.566406-1.246094-.589844zm0 0"/></g></svg>