<svg height="511pt" viewBox="-88 0 511 511.99736" width="511pt" xmlns="http://www.w3.org/2000/svg"><path d="m265.929688 138.878906v-34.5c0-53.617187-42.492188-98.472656-96.097657-99.367187-54.761719-.914063-99.441406 43.203125-99.441406 97.753906v37.03125c-3.148437 7.1875-3.148437 15.316406 0 22.507813v44.601562c0 13.074219 10.597656 23.671875 23.671875 23.671875h28.394531c-19.789062-23.785156-28.984375-54.875-25.679687-85.921875l1.859375-17.585938c.367187-3.433593 2.425781-6.457031 5.480469-8.070312 19.84375-10.472656 41.613281-15.789062 63.417968-15.960938 1.1875-.007812 2.210938-.824218 2.464844-1.984374l3.359375-15.457032c.171875-.796875 1.324219-.761718 1.441406.046875l2.320313 15.65625c.175781 1.171875 1.136718 2.050781 2.316406 2.144531 5.988281.46875 11.949219 1.328126 17.851562 2.578126 1.371094.292968 2.71875-.558594 3.015626-1.929688l5.335937-24.550781c.175781-.796875 1.324219-.757813 1.445313.046875l4.257812 28.742187c.140625.9375.792969 1.714844 1.695312 2.019531 6.585938 2.230469 13.042969 4.972657 19.3125 8.226563 3.105469 1.613281 5.191407 4.691406 5.53125 8.179687l1.742188 17.894532c3.300781 31.042968-5.890625 62.132812-25.683594 85.917968h28.320313c13.074219 0 23.671875-10.597656 23.671875-23.671874v-43.679688c3.734375-7.746094 3.738281-16.582031-.003906-24.339844zm0 0" fill="#7c292e"/><path d="m239.621094 144.65625-1.742188-17.894531c-.335937-3.484375-2.421875-6.5625-5.53125-8.179688-6.269531-3.253906-12.726562-5.992187-19.3125-8.226562-.898437-.304688-1.554687-1.078125-1.695312-2.019531l-4.257813-28.738282c-.121093-.808594-1.269531-.847656-1.445312-.046875l-5.335938 24.550781c-.296875 1.371094-1.644531 2.21875-3.015625 1.929688-5.902344-1.25-11.863281-2.113281-17.851562-2.578125-1.183594-.09375-2.144532-.976563-2.316406-2.148437l-2.320313-15.652344c-.121094-.808594-1.269531-.847656-1.445313-.050782l-3.359374 15.457032c-.25 1.160156-1.273438 1.976562-2.460938 1.988281-21.808594.171875-43.578125 5.488281-63.421875 15.960937-3.054687 1.613282-5.113281 4.632813-5.476563 8.066407l-1.859374 17.585937c-3.636719 34.183594 7.832031 68.453125 31.96875 92.925782 8.902343 9.03125 19.546874 17.28125 31.996093 23.011718 4.734375 2.183594 10.175781 2.183594 14.910157 0 12.449218-5.730468 23.09375-13.976562 32-23.011718 24.140624-24.480469 35.609374-58.746094 31.972656-92.929688zm0 0" fill="#fcb275"/><path d="m96.777344 144.65625 2.09375-21.566406c-.902344-.085938-1.816406-.136719-2.746094-.136719-15.515625 0-28.097656 12.582031-28.097656 28.097656 0 15.519531 12.582031 28.097657 28.097656 28.097657.710938 0 1.40625-.054688 2.105469-.105469-2.144531-11.21875-2.6875-22.800781-1.453125-34.386719zm0 0" fill="#fcb275"/><path d="m240.632812 122.953125c-1.050781 0-2.082031.066406-3.105468.179687l2.09375 21.523438c1.230468 11.578125.6875 23.15625-1.449219 34.367188.8125.074218 1.628906.125 2.460937.125 15.519532 0 28.101563-12.578126 28.101563-28.097657 0-15.515625-12.582031-28.097656-28.101563-28.097656zm0 0" fill="#fcb275"/><path d="m331.242188 492.9375-9.726563-174.636719c-.734375-13.1875-9.960937-24.367187-22.769531-27.589843l-40.640625-10.230469c-8.015625-2.019531-15.929688-4.410157-23.71875-7.167969l-18.394531-9.070312-2.738282-1.351563c-5.902344-2.90625-9.636718-8.914063-9.636718-15.492187v-5.914063c-8.035157 7.484375-17.335938 14.214844-27.960938 19.109375-4.738281 2.179688-10.179688 2.179688-14.914062 0-10.46875-4.820312-19.640626-11.429688-27.597657-18.777344v5.582032c0 6.578124-3.734375 12.582031-9.632812 15.492187l-3.71875 1.832031-18.488281 9.117188c-7.078126 2.40625-14.25 4.527344-21.5 6.347656l-41.789063 10.519531c-12.8125 3.222657-22.035156 14.402344-22.769531 27.589844l-9.726563 174.636719c-.425781 7.636718 5.652344 14.058594 13.296875 14.058594h299.128906c7.648438.003906 13.722657-6.417969 13.296876-14.054688zm0 0" fill="#e8e6e6"/><path d="m206.902344 408.132812h-77.042969c-3.800781 0-6.875 3.078126-6.875 6.875v38.707032c0 3.796875 3.074219 6.875 6.875 6.875h77.042969c3.796875 0 6.875-3.078125 6.875-6.875v-38.707032c0-3.796874-3.078125-6.875-6.875-6.875zm0 0" fill="#e04e36"/><path d="m195.398438 391.988281c5.765624-6.425781 9.300781-14.898437 9.300781-24.210937 0-20.058594-16.261719-36.316406-36.320313-36.316406-20.054687 0-36.316406 16.257812-36.316406 36.316406 0 9.3125 3.535156 17.785156 9.300781 24.210937zm0 0" fill="#1b87c9"/><path d="m186.539062 506.996094h-36.320312l-6.050781-46.40625h48.425781zm0 0" fill="#515050"/><path d="m205.546875 408.132812v-5.777343c0-5.703125-4.664063-10.367188-10.363281-10.367188h-53.605469c-5.699219 0-10.367187 4.664063-10.367187 10.367188v5.777343zm0 0" fill="#fc5d4c"/><path d="m108.507812 270.289062c10.25 22.851563 33.148438 38.796876 59.816407 38.796876 26.683593 0 49.589843-15.96875 59.832031-38.84375l-12.164062-6-2.738282-1.347657c-5.902344-2.910156-9.636718-8.917969-9.636718-15.496093v-5.910157c-8.035157 7.480469-17.335938 14.214844-27.960938 19.105469-4.738281 2.179688-10.175781 2.179688-14.914062 0-10.46875-4.820312-19.640626-11.429688-27.597657-18.773438v5.578126c0 6.578124-3.734375 12.585937-9.632812 15.492187l-3.71875 1.835937zm0 0" fill="#fcb275"/><path d="m216.753906 325.226562c17.496094-7.496093 28.015625-30.460937 33.496094-46.871093-5.335938-1.519531-10.628906-3.191407-15.863281-5.042969l-6.222657-3.070312c-9.210937 20.574218-28.679687 35.515624-51.925781 38.320312 8.050781 11.101562 21.550781 24.789062 40.515625 16.664062zm0 0" fill="#1b87c9"/><path d="m86.410156 278.386719c5.480469 16.40625 15.996094 39.34375 33.484375 46.839843 18.960938 8.125 32.460938-5.5625 40.515625-16.664062-23.226562-2.800781-42.691406-17.722656-51.910156-38.269531l-7.195312 3.546875c-4.917969 1.671875-9.894532 3.152344-14.894532 4.546875zm0 0" fill="#1b87c9"/><g fill="#231f20"><path d="m242.253906 235.578125h-28.316406c-1.9375 0-3.703125-1.121094-4.527344-2.875-.820312-1.757813-.554687-3.832031.683594-5.320313 18.761719-22.550781 27.707031-52.507812 24.554688-82.195312l-1.746094-17.941406c-.175782-1.808594-1.242188-3.386719-2.859375-4.226563-5.964844-3.097656-12.226563-5.761719-18.613281-7.929687-2.6875-.90625-4.621094-3.210938-5.039063-6.015625l-.832031-5.632813-.375 1.71875c-.875 4.035156-4.875 6.613282-8.941406 5.757813-5.660157-1.199219-11.449219-2.035157-17.203126-2.484375-2.339843-.183594-4.371093-1.398438-5.621093-3.21875-1.378907 1.730468-3.492188 2.808594-5.84375 2.828125-21.242188.167969-42.378907 5.488281-61.128907 15.382812-1.585937.839844-2.652343 2.398438-2.839843 4.171875l-1.859375 17.585938c-3.160156 29.6875 5.789062 59.644531 24.550781 82.199218 1.238281 1.488282 1.503906 3.5625.683594 5.320313-.820313 1.753906-2.589844 2.875-4.527344 2.875h-28.390625c-15.808594 0-28.675781-12.863281-28.675781-28.671875v-43.597656c-3.128907-7.851563-3.128907-16.667969 0-24.511719v-36.027344c0-27.777343 10.910156-53.800781 30.714843-73.28125 19.800782-19.472656 46-29.914062 73.8125-29.4765622 55.699219.9296872 101.015626 47.7500002 101.015626 104.3671872v33.40625c3.730468 8.496094 3.730468 18.039063 0 26.535156v42.585938c0 15.808594-12.863282 28.671875-28.675782 28.671875zm-18.25-10h18.25c10.296875 0 18.675782-8.375 18.675782-18.671875v-43.683594c0-.75.167968-1.492187.496093-2.171875 3.0625-6.355469 3.0625-13.644531 0-20-.328125-.679687-.496093-1.421875-.496093-2.171875v-34.5c0-51.199218-40.90625-93.53125-91.179688-94.367187-25.128906-.453125-48.757812 9.03125-66.636719 26.609375-17.875 17.582031-27.726562 41.070312-27.726562 66.144531v37.03125c0 .691406-.140625 1.375-.417969 2.007813-2.574219 5.875-2.574219 12.617187 0 18.496093.277344.628907.417969 1.316407.417969 2.003907v44.601562c0 10.292969 8.378906 18.671875 18.675781 18.671875h18.328125c-16.203125-23.433594-23.660156-52.566406-20.585937-81.449219l1.863281-17.585937c.542969-5.089844 3.574219-9.5625 8.113281-11.960938 19.582031-10.335937 41.578125-16.027343 63.75-16.511719l2.941406-13.53125c.589844-2.710937 2.9375-4.632812 5.800782-4.515624 2.769531.097656 5.074218 2.152343 5.480468 4.894531l2.027344 13.710937c4.734375.4375 9.480469 1.113282 14.15625 2.019532l4.820312-22.164063c.589844-2.710937 3.042969-4.617187 5.789063-4.515625 2.769531.089844 5.074219 2.144531 5.488281 4.878906l4.035156 27.261719c6.371094 2.234375 12.617188 4.933594 18.585938 8.035156 4.632812 2.402344 7.703125 6.941407 8.207031 12.132813l1.738281 17.890625c3.0625 28.847656-4.394531 57.980469-20.597656 81.410156zm0 0"/><path d="m141.949219 167.015625c-3.3125 0-6-2.6875-6-6v-1.109375c0-3.316406 2.6875-6 6-6 3.316406 0 6 2.683594 6 6v1.109375c0 3.3125-2.6875 6-6 6zm0 0"/><path d="m195.066406 167.863281c-3.316406 0-6-2.6875-6-6v-1.109375c0-3.3125 2.683594-6 6-6 3.3125 0 6 2.6875 6 6v1.109375c0 3.3125-2.6875 6-6 6zm0 0"/><path d="m64.726562 509.132812c-2.761718 0-5-2.238281-5-5v-113.113281c0-2.761719 2.238282-5 5-5 2.761719 0 5 2.238281 5 5v113.113281c0 2.761719-2.238281 5-5 5zm0 0"/><path d="m272.035156 509.132812c-2.761718 0-5-2.238281-5-5v-113.113281c0-2.761719 2.238282-5 5-5 2.761719 0 5 2.238281 5 5v113.113281c0 2.761719-2.238281 5-5 5zm0 0"/><path d="m200.746094 186.628906c-.738282 0-1.480469-.03125-2.226563-.089844-7.226562-.582031-13.796875-3.949218-18.496093-9.46875-4.699219-5.523437-6.964844-12.546874-6.382813-19.773437.582031-7.230469 3.949219-13.796875 9.46875-18.496094 5.527344-4.703125 12.5625-6.953125 19.777344-6.386719 14.917969 1.207032 26.078125 14.320313 24.878906 29.246094-.582031 7.226563-3.945313 13.796875-9.46875 18.496094-4.957031 4.214844-11.117187 6.472656-17.550781 6.472656zm-.070313-44.300781c-4.066406 0-7.960937 1.425781-11.085937 4.089844-3.488282 2.964843-5.617188 7.117187-5.980469 11.683593-.761719 9.421876 6.289063 17.710938 15.714844 18.46875 4.585937.378907 9-1.0625 12.488281-4.03125s5.613281-7.121093 5.980469-11.6875c.757812-9.425781-6.289063-17.707031-15.714844-18.46875-.46875-.039062-.9375-.054687-1.402344-.054687zm0 0"/><path d="m136.078125 186.628906c-.726563 0-1.460937-.03125-2.199219-.089844-14.921875-1.207031-26.085937-14.324218-24.878906-29.242187.582031-7.230469 3.941406-13.796875 9.464844-18.496094 5.523437-4.703125 12.542968-6.960937 19.777344-6.386719 7.226562.582032 13.796874 3.949219 18.496093 9.46875 4.699219 5.523438 6.964844 12.546876 6.382813 19.777344-1.144532 14.179688-13.050782 24.96875-27.042969 24.96875zm-.046875-44.300781c-4.0625 0-7.953125 1.425781-11.082031 4.089844-3.492188 2.964843-5.613281 7.117187-5.984375 11.683593-.757813 9.421876 6.292968 17.710938 15.71875 18.46875 9.402344.800782 17.710937-6.289062 18.472656-15.714843.367188-4.5625-1.066406-9.003907-4.035156-12.488281-2.96875-3.488282-7.117188-5.617188-11.683594-5.980469-.472656-.042969-.9375-.058594-1.40625-.058594zm22.105469 18.929687h.019531zm0 0"/><path d="m167.902344 170.804688c-5.214844 0-10.003906-1.617188-13.148438-4.4375-2.054687-1.847657-2.226562-5.007813-.382812-7.0625 1.847656-2.054688 5.007812-2.226563 7.0625-.378907.964844.867188 3.242187 1.878907 6.46875 1.878907 3.226562 0 5.503906-1.011719 6.472656-1.878907 2.050781-1.84375 5.214844-1.671875 7.058594.382813 1.84375 2.054687 1.671875 5.214844-.382813 7.0625-3.140625 2.816406-7.933593 4.433594-13.148437 4.433594zm0 0"/><path d="m168.378906 219.648438c-8.925781 0-17.246094-4.421876-22.25-11.832032-1.542968-2.289062-.941406-5.394531 1.34375-6.941406 2.292969-1.546875 5.398438-.945312 6.945313 1.34375 3.140625 4.652344 8.359375 7.429688 13.960937 7.429688 5.601563 0 10.820313-2.777344 13.964844-7.429688 1.546875-2.289062 4.65625-2.882812 6.941406-1.339844 2.289063 1.542969 2.890625 4.65625 1.34375 6.941406-5.007812 7.40625-13.324218 11.828126-22.25 11.828126zm0 0"/><path d="m168.199219 267.230469c-3.257813 0-6.511719-.699219-9.546875-2.09375-11.867188-5.464844-23.125-13.554688-33.464844-24.042969-25.066406-25.417969-37.234375-60.757812-33.382812-96.964844l1.863281-17.585937c.539062-5.089844 3.574219-9.5625 8.113281-11.960938 19.582031-10.335937 41.582031-16.027343 63.75-16.511719l2.941406-13.53125c.585938-2.707031 3.035156-4.5625 5.789063-4.515624 2.769531.089843 5.074219 2.140624 5.488281 4.878906l2.03125 13.726562c4.734375.4375 9.476562 1.113282 14.15625 2.019532l4.816406-22.164063c.589844-2.710937 3.03125-4.632813 5.796875-4.515625 2.773438.09375 5.074219 2.152344 5.480469 4.894531l4.035156 27.246094c6.371094 2.234375 12.613282 4.933594 18.585938 8.035156 4.632812 2.402344 7.703125 6.941407 8.207031 12.132813l1.738281 17.871094c3.84375 36.199218-8.324218 71.53125-33.382812 96.941406-10.34375 10.492187-21.601563 18.578125-33.464844 24.042968-3.039062 1.402344-6.296875 2.097657-9.550781 2.097657zm5.222656-162.015625c-1.375 1.726562-3.488281 2.804687-5.84375 2.828125-21.238281.167969-42.375 5.484375-61.125 15.382812-1.589844.839844-2.652344 2.398438-2.839844 4.167969l-1.863281 17.589844c-3.53125 33.214844 7.605469 65.613281 30.558594 88.886718 9.492187 9.625 19.761718 17.023438 30.527344 21.980469 3.410156 1.566407 7.324218 1.566407 10.730468 0 10.765625-4.957031 21.035156-12.351562 30.527344-21.980469 22.953125-23.273437 34.089844-55.671874 30.558594-88.886718 0-.015625-.003906-.03125-.003906-.042969l-1.742188-17.894531c-.175781-1.808594-1.242188-3.386719-2.859375-4.226563-5.96875-3.097656-12.230469-5.761719-18.613281-7.929687-2.6875-.90625-4.617188-3.210938-5.035156-6.011719l-.835938-5.636719-.375 1.71875c-.875 4.035156-4.875 6.613282-8.941406 5.757813-5.660156-1.199219-11.449219-2.035157-17.203125-2.484375-2.335938-.183594-4.367188-1.398438-5.621094-3.21875zm0 0"/><path d="m96.128906 184.148438c-18.25 0-33.097656-14.847657-33.097656-33.097657s14.847656-33.097656 33.097656-33.097656c1.050782 0 2.109375.050781 3.230469.160156 2.746094.269531 4.757813 2.710938 4.492187 5.460938l-2.097656 21.566406c0 .011719 0 .027344-.003906.042969-1.160156 10.917968-.695312 21.992187 1.390625 32.917968.269531 1.402344-.074219 2.851563-.945313 3.984376-.867187 1.128906-2.179687 1.835937-3.601562 1.941406-.910156.070312-1.679688.121094-2.464844.121094zm-2.769531-56.03125c-11.433594 1.371093-20.332031 11.132812-20.332031 22.9375 0 11.433593 8.351562 20.953124 19.273437 22.78125-1.375-9.878907-1.542969-19.839844-.5-29.683594zm3.417969 16.539062h.019531zm0 0"/><path d="m240.632812 184.148438c-.980468 0-1.945312-.058594-2.902343-.144532-1.40625-.121094-2.699219-.839844-3.546875-1.964844-.851563-1.125-1.1875-2.5625-.921875-3.953124 2.082031-10.914063 2.546875-21.984376 1.386719-32.898438l-2.097657-21.566406c-.265625-2.722656 1.707031-5.152344 4.425781-5.457032 1.289063-.140624 2.480469-.210937 3.65625-.210937 18.25 0 33.101563 14.847656 33.101563 33.101563 0 18.246093-14.851563 33.09375-33.101563 33.09375zm2.398438-56.074219 1.566406 16.097656c1.042969 9.839844.871094 19.816406-.511718 29.71875 11.105468-1.667969 19.644531-11.277344 19.644531-22.839844.003906-11.925781-9.082031-21.769531-20.699219-22.976562zm0 0"/><path d="m317.945312 511.996094h-299.128906c-5.015625 0-9.863281-2.085938-13.308594-5.730469-3.445312-3.636719-5.257812-8.601563-4.980468-13.605469l9.726562-174.636718c.863282-15.457032 11.527344-28.382813 26.539063-32.160157l41.792969-10.523437c6.96875-1.753906 13.964843-3.8125 20.800781-6.125l21.914062-10.804688c4.222657-2.082031 6.84375-6.300781 6.84375-11.011718v-5.578126c0-1.988281 1.175781-3.785156 2.996094-4.582031s3.941406-.4375 5.398437.90625c8.304688 7.671875 17.152344 13.699219 26.296876 17.910157 3.410156 1.566406 7.320312 1.570312 10.730468 0 9.277344-4.273438 18.242188-10.40625 26.644532-18.226563 1.457031-1.355469 3.574218-1.714844 5.402343-.921875 1.824219.792969 3.003907 2.59375 3.003907 4.582031v5.910157c0 4.707031 2.625 8.929687 6.847656 11.011718l20.871094 10.289063c7.511718 2.652343 15.246093 4.984375 22.992187 6.933593l40.640625 10.230469c15.015625 3.78125 25.679688 16.707031 26.539062 32.160157l9.730469 174.640624c.277344 5.007813-1.542969 9.964844-4.984375 13.605469-3.496094 3.691407-8.222656 5.726563-13.308594 5.726563zm-180.316406-259.796875c-1.417968 6.539062-5.714844 12.121093-11.910156 15.179687l-22.203125 10.949219c-.195313.09375-.398437.179687-.601563.25-7.191406 2.441406-14.554687 4.617187-21.890624 6.464844l-41.789063 10.519531c-10.746094 2.703125-18.382813 11.953125-19 23.019531l-9.726563 174.636719c-.128906 2.304688.671876 4.5 2.261719 6.179688 1.585938 1.675781 3.730469 2.601562 6.039063 2.601562h299.132812c2.308594 0 4.457032-.925781 6.042969-2.601562 1.589844-1.679688 2.390625-3.875 2.265625-6.179688l-9.730469-174.640625c-.613281-11.0625-8.25-20.3125-18.996093-23.015625l-40.640626-10.230469c-8.144531-2.050781-16.277343-4.507812-24.167968-7.304687-.183594-.0625-.363282-.140625-.539063-.226563l-21.136719-10.421875c-6.269531-3.089844-10.59375-8.777344-11.960937-15.417968-6.839844 5.378906-13.984375 9.792968-21.332031 13.179687-6.070313 2.789063-13.027344 2.789063-19.09375 0-7.234375-3.335937-14.273438-7.671875-21.023438-12.941406zm0 0"/><path d="m206.902344 465.589844h-77.042969c-6.546875 0-11.875-5.328125-11.875-11.875v-38.707032c0-6.546874 5.328125-11.875 11.875-11.875h77.042969c6.546875 0 11.875 5.328126 11.875 11.875v38.707032c0 6.546875-5.328125 11.875-11.875 11.875zm-77.042969-52.460938c-1.035156 0-1.875.84375-1.875 1.875v38.710938c0 1.035156.839844 1.875 1.875 1.875h77.042969c1.035156 0 1.875-.84375 1.875-1.875v-38.710938c0-1.035156-.84375-1.875-1.875-1.875zm0 0"/><path d="m195.398438 396.988281h-54.035157c-1.417969 0-2.773437-.601562-3.722656-1.660156-6.820313-7.605469-10.582031-17.390625-10.582031-27.550781 0-22.78125 18.539062-41.316406 41.320312-41.316406s41.316406 18.535156 41.316406 41.316406c0 10.160156-3.757812 19.945312-10.578124 27.550781-.945313 1.058594-2.300782 1.660156-3.71875 1.660156zm-51.703126-10h49.371094c4.292969-5.496093 6.632813-12.238281 6.632813-19.210937 0-17.269532-14.046875-31.316406-31.320313-31.316406-17.265625 0-31.316406 14.046874-31.316406 31.316406 0 6.972656 2.34375 13.714844 6.632812 19.210937zm0 0"/><path d="m186.539062 511.996094h-36.320312c-2.511719 0-4.628906-1.863282-4.957031-4.351563l-6.050781-46.40625c-.1875-1.425781.25-2.867187 1.203124-3.945312.949219-1.082031 2.316407-1.703125 3.753907-1.703125h48.425781c1.4375 0 2.808594.621094 3.757812 1.703125.949219 1.082031 1.386719 2.519531 1.199219 3.945312l-6.054687 46.40625c-.324219 2.488281-2.445313 4.351563-4.957032 4.351563zm-31.925781-10h27.535157l4.75-36.40625h-37.035157zm0 0"/><path d="m205.546875 413.128906h-74.335937c-2.761719 0-5-2.238281-5-5v-5.777344c0-8.46875 6.894531-15.363281 15.367187-15.363281h53.605469c8.472656 0 15.363281 6.890625 15.363281 15.363281v5.777344c0 2.761719-2.238281 5-5 5zm-69.335937-10h64.335937v-.777344c0-2.957031-2.40625-5.363281-5.363281-5.363281h-53.605469c-2.957031 0-5.367187 2.40625-5.367187 5.363281zm0 0"/><path d="m168.324219 314.082031c-27.730469 0-53-16.382812-64.378907-41.746093-1.097656-2.457032-.0625-5.34375 2.351563-6.53125l15.003906-7.398438c4.222657-2.082031 6.84375-6.300781 6.84375-11.007812v-5.582032c0-1.984375 1.175781-3.785156 2.996094-4.578125 1.820313-.800781 3.941406-.441406 5.398437.90625 8.300782 7.667969 17.148438 13.695313 26.296876 17.910157 3.410156 1.566406 7.320312 1.566406 10.730468-.003907 9.277344-4.269531 18.242188-10.402343 26.644532-18.222656 1.457031-1.355469 3.574218-1.71875 5.402343-.925781 1.824219.792968 3.003907 2.59375 3.003907 4.585937v5.910157c0 4.707031 2.625 8.925781 6.84375 11.007812l14.90625 7.347656c2.410156 1.191406 3.453124 4.074219 2.351562 6.53125-11.367188 25.390625-36.640625 41.796875-64.394531 41.796875zm-53.109375-41.527343c10.566406 19.296874 30.921875 31.527343 53.109375 31.527343 22.207031 0 42.566406-12.246093 53.128906-31.574219l-10.414063-5.128906c-6.265624-3.089844-10.59375-8.777344-11.957031-15.421875-6.84375 5.378907-13.988281 9.796875-21.335937 13.179688-6.066406 2.792969-13.027344 2.792969-19.09375 0-7.234375-3.332031-14.273438-7.667969-21.019532-12.9375-1.421874 6.542969-5.71875 12.125-11.914062 15.179687zm0 0"/><path d="m205.355469 332.742188c-11.800781 0-22.910157-7.105469-33.164063-21.246094-1.042968-1.433594-1.246094-3.3125-.535156-4.933594.707031-1.625 2.222656-2.753906 3.980469-2.964844 20.941406-2.523437 39.316406-16.089844 47.960937-35.394531.554688-1.242187 1.589844-2.203125 2.867188-2.660156 1.28125-.464844 2.691406-.378907 3.90625.214843l5.960937 2.941407c4.898438 1.722656 10.039063 3.359375 15.285157 4.851562 1.316406.371094 2.417968 1.265625 3.054687 2.472657.636719 1.207031.753906 2.625.320313 3.917968-6.109376 18.28125-17.359376 41.777344-36.273438 49.882813-4.539062 1.945312-9 2.917969-13.363281 2.917969zm11.398437-7.515626h.019532zm-31.363281-13.28125c9.492187 10.402344 18.964844 13.152344 29.390625 8.6875 14.476562-6.207031 23.925781-25.378906 29-38.96875-3.78125-1.152343-7.484375-2.371093-11.066406-3.636718-.183594-.0625-.363282-.140625-.539063-.226563l-1.742187-.863281c-9.429688 17.449219-25.929688 30.214844-45.042969 35.007812zm0 0"/><path d="m131.289062 332.742188c-4.363281 0-8.820312-.972657-13.363281-2.917969-18.90625-8.105469-30.152343-31.585938-36.257812-49.851563-.433594-1.300781-.316407-2.722656.324219-3.933594.644531-1.210937 1.753906-2.105468 3.078124-2.46875 5.53125-1.542968 10.09375-2.929687 14.316407-4.359374l6.902343-3.402344c1.21875-.601563 2.628907-.679688 3.90625-.222656 1.277344.460937 2.3125 1.421874 2.871094 2.660156 8.648438 19.285156 27.019532 32.832031 47.941406 35.351562 1.757813.214844 3.273438 1.339844 3.984376 2.964844.707031 1.625.507812 3.503906-.535157 4.9375-10.257812 14.136719-21.371093 21.242188-33.167969 21.242188zm-38.394531-51.007813c5.074219 13.578125 14.519531 32.703125 28.96875 38.898437 10.421875 4.464844 19.894531 1.710938 29.390625-8.691406-19.097656-4.785156-35.589844-17.53125-45.019531-34.957031l-2.71875 1.339844c-.195313.097656-.398437.179687-.601563.25-3.105468 1.054687-6.367187 2.085937-10.019531 3.160156zm0 0"/></g></svg>