<svg height="512pt" viewBox="-91 0 512 512" width="512pt" xmlns="http://www.w3.org/2000/svg"><path d="m324.945312 493.191406c-3.03125-54.386718-6.550781-117.570312-9.554687-171.527344-.722656-12.953124-9.78125-23.933593-22.363281-27.097656-35.917969-9.242187-45.5-10.902344-62.164063-16.570312l-18.15625-8.953125c-1.074219-.863281-13.117187-4.152344-13.117187-17.015625v-13.949219c-8.210938 7.535156-17.453125 13.765625-27.414063 18.351563-4.738281 2.179687-10.183593 2.179687-14.921875 0-9.761718-4.496094-18.8125-10.566407-26.878906-17.871094v13.46875c0 12.464844-11.566406 16.054687-12.15625 16.542968l-18.070312 8.910157c-18.058594 6.394531-28.273438 8.046875-63.210938 17.085937-12.582031 3.167969-21.640625 14.148438-22.363281 27.097656-2.070313 37.125-7.753907 139.175782-9.554688 171.53125-.417969 7.5 5.550781 13.808594 13.058594 13.808594h293.804687c7.511719-.003906 13.476563-6.3125 13.0625-13.8125zm0 0" fill="#e8e6e6"/><path d="m203.320312 408.609375h-76.675781c-3.777343 0-6.839843 3.0625-6.839843 6.839844v38.523437c0 3.78125 3.0625 6.839844 6.839843 6.839844h76.675781c3.78125 0 6.839844-3.0625 6.839844-6.839844v-38.523437c0-3.777344-3.0625-6.839844-6.839844-6.839844zm0 0" fill="#e04e36"/><path d="m191.867188 392.542969c5.738281-6.398438 9.257812-14.824219 9.257812-24.09375 0-19.964844-16.179688-36.144531-36.144531-36.144531-19.960938 0-36.144531 16.179687-36.144531 36.144531 0 9.269531 3.523437 17.695312 9.261718 24.09375zm0 0" fill="#1b87c9"/><path d="m183.054688 507h-36.144532l-6.023437-46.183594h48.191406zm0 0" fill="#515050"/><path d="m201.972656 408.609375v-5.75c0-5.671875-4.644531-10.316406-10.316406-10.316406h-53.347656c-5.675782 0-10.316406 4.644531-10.316406 10.316406v5.75zm0 0" fill="#fc5d4c"/><path d="m237.234375 118.628906c-1.101563 0-2.179687.078125-3.25.199219l2.234375 21.53125c1.234375 11.589844.6875 23.179687-1.453125 34.40625.8125.070313 1.632813.121094 2.464844.121094 15.539062 0 28.132812-12.59375 28.132812-28.128907 0-15.535156-12.59375-28.128906-28.128906-28.128906zm0 0" fill="#fcb275"/><path d="m93.210938 140.359375 2.335937-18.980469.261719-2.550781c-1.066406-.121094-2.148438-.199219-3.246094-.199219-15.535156 0-28.128906 12.59375-28.128906 28.128906 0 15.535157 12.59375 28.128907 28.128906 28.128907.710938 0 1.410156-.046875 2.105469-.105469-2.144531-11.230469-2.691407-22.828125-1.457031-34.421875zm0 0" fill="#fcb275"/><path d="m233.949219 117.132812c-.347657-.433593-.71875-.851562-1.132813-1.234374-6.058594-5.578126-18.175781-18.539063-21.792968-35.761719-.75-3.566407-5.097657-4.878907-7.78125-2.417969-9.96875 9.152344-31.707032 23.054688-69.792969 19.953125-9.089844-.742187-18.296875 1.171875-25.867188 6.257813-2.332031 1.5625-4.683593 3.472656-6.925781 5.796874-2.007812 2.082032-3.585938 4.503907-4.710938 7.125-.523437 7.117188-1.605468 13.441407-2.734374 23.507813-5.4375 51.113281 23.164062 97.25 64.042968 116.070313 4.738282 2.183593 10.183594 2.183593 14.921875 0 40.699219-18.738282 69.503907-64.738282 64.042969-116.070313-.882812-6.96875-1.753906-14.914063-2.269531-23.226563zm0 0" fill="#fcb275"/><path d="m241.105469 40.558594c-3.085938-1.464844-5.628907-3.84375-7.480469-6.714844-6.082031-9.402344-23.207031-28.84375-60.917969-28.84375-49.742187 0-71.632812 31.835938-91.527343 37.804688-6.226563 1.867187-10.691407 1.585937-13.894532.328124l-.007812-.003906c-.03125-.007812-.058594-.019531-.085938-.027344-22.140625-7.859374-31.601562 24.007813-17.964844 50.28125 6.308594 12.160157 17.222657 22.671876 37.71875 25.828126 1.8125-.371094 3.6875-.585938 5.617188-.585938 1.089844 0 2.15625.078125 3.214844.199219.058594-.652344.117187-1.308594.167968-1.976563 1.125-2.621094 2.699219-5.042968 4.707032-7.125 2.242187-2.324218 4.597656-4.234375 6.929687-5.796875 7.570313-5.085937 16.777344-7 25.863281-6.261719 38.085938 3.105469 59.824219-10.796874 69.792969-19.949218 2.683594-2.460938 7.03125-1.148438 7.78125 2.417968 3.617188 17.222657 15.734375 30.1875 21.792969 35.761719.414062.382813.785156.800781 1.132812 1.234375.035157.570313.085938 1.125.125 1.6875 1.039063-.117187 2.089844-.191406 3.160157-.191406 7.828125 0 14.902343 3.199219 20 8.355469 18.535156-62.496094-5.375-81.320313-16.125-86.421875zm0 0" fill="#7c292e"/><path d="m145.75 319.589844 10.957031-13.695313c.824219-1.027343.726563-2.515625-.226562-3.429687l-36.335938-34.824219c-1.042969.519531-1.785156.8125-1.925781.925781l-18.070312 8.910156c-1 .355469-1.972657.695313-2.929688 1.019532l41.289062 42.015625c2.269532 1.699219 5.472657 1.289062 7.242188-.921875zm0 0" fill="#e04e36"/><path d="m184.210938 319.589844c1.769531 2.210937 4.976562 2.617187 7.242187.921875l41.195313-41.914063c-.585938-.199218-1.179688-.394531-1.78125-.601562l-18.160157-8.953125c-.292969-.234375-1.417969-.664063-2.878906-1.40625l-36.34375 34.828125c-.949219.914062-1.046875 2.402344-.226563 3.433594zm0 0" fill="#e04e36"/><path d="m172.175781 256.429688c-4.738281 2.179687-10.183593 2.179687-14.921875 0-9.761718-4.496094-18.8125-10.566407-26.878906-17.871094v13.46875c0 9.566406-6.796875 13.894531-10.230469 15.613281l36.335938 34.824219c.625.597656.84375 1.4375.714843 2.238281h15.578126c-.128907-.800781.089843-1.640625.710937-2.238281l36.34375-34.828125c-3.886719-1.980469-10.238281-6.261719-10.238281-15.609375v-13.949219c-8.207032 7.535156-17.453125 13.765625-27.414063 18.351563zm0 0" fill="#fcb275"/><g fill="#231f20"><path d="m164.242188 213.019531c-8.890626 0-17.175782-4.40625-22.160157-11.785156-1.546875-2.285156-.945312-5.394531 1.339844-6.941406 2.292969-1.546875 5.398437-.941407 6.945313 1.34375 3.121093 4.625 8.308593 7.378906 13.875 7.378906 5.566406 0 10.753906-2.757813 13.878906-7.378906 1.546875-2.285157 4.65625-2.882813 6.941406-1.34375 2.289062 1.546875 2.890625 4.65625 1.34375 6.945312-4.984375 7.375-13.269531 11.78125-22.164062 11.78125zm0 0"/><path d="m137.65625 163.207031c-3.316406 0-6-2.683593-6-6v-1.109375c0-3.3125 2.683594-6 6-6 3.3125 0 6 2.6875 6 6v1.109375c0 3.316407-2.6875 6-6 6zm0 0"/><path d="m190.832031 164.054688c-3.3125 0-6-2.683594-6-6v-1.109376c0-3.3125 2.6875-6 6-6 3.316407 0 6 2.6875 6 6v1.109376c0 3.316406-2.683593 6-6 6zm0 0"/><path d="m266.789062 509.191406c-2.761718 0-5-2.238281-5-5v-111.101562c0-2.761719 2.238282-5 5-5 2.761719 0 5 2.238281 5 5v111.101562c0 2.761719-2.238281 5-5 5zm0 0"/><path d="m63.171875 509.191406c-2.761719 0-5-2.238281-5-5v-111.101562c0-2.761719 2.238281-5 5-5 2.765625 0 5 2.238281 5 5v111.101562c0 2.761719-2.234375 5-5 5zm0 0"/><path d="m311.882812 512h-293.804687c-4.949219 0-9.734375-2.058594-13.132813-5.65625-3.402343-3.59375-5.195312-8.488281-4.9179682-13.429688l9.5546872-171.527343c.847657-15.222657 11.351563-27.949219 26.132813-31.671875 10.90625-2.820313 19.5625-4.960938 26.515625-6.683594 15.398437-3.808594 23.929687-5.917969 35.972656-10.167969l17.59375-8.675781c.316406-.179688.636719-.328125.980469-.484375 3.6875-1.671875 8.59375-4.707031 8.59375-11.679687v-13.464844c0-1.976563 1.164062-3.769532 2.96875-4.570313 1.8125-.800781 3.917968-.460937 5.386718.867188 7.808594 7.070312 16.425782 12.800781 25.613282 17.03125 3.414062 1.570312 7.324218 1.570312 10.738281 0 9.402344-4.328125 18.195313-10.210938 26.128906-17.492188 1.460938-1.335937 3.578125-1.691406 5.390625-.886719 1.816406.792969 2.988282 2.59375 2.988282 4.574219v13.945313c0 6.851562 4.597656 9.867187 9.09375 11.914062.585937.269532 1.0625.484375 1.507812.757813l17.589844 8.671875c11.003906 3.730468 18.773437 5.65625 34.117187 9.457031 7.175781 1.78125 15.941407 3.957031 27.375 6.894531 14.757813 3.71875 25.261719 16.445313 26.109375 31.664063l9.554688 171.53125c.273437 4.9375-1.519532 9.835937-4.917969 13.429687s-8.183594 5.652344-13.132813 5.652344zm-191.171874-239.097656c-.089844.054687-.183594.105468-.277344.148437l-18.070313 8.910157c-.175781.085937-.359375.164062-.542969.230468-12.648437 4.476563-21.363281 6.632813-37.1875 10.546875-6.929687 1.714844-15.554687 3.851563-26.441406 6.664063-10.550781 2.65625-18.023437 11.710937-18.625 22.539062l-9.554687 171.527344c-.125 2.242188.65625 4.375 2.199219 6.003906 1.539062 1.628906 3.621093 2.527344 5.867187 2.527344h293.804687c2.246094 0 4.328126-.898438 5.871094-2.527344 1.542969-1.628906 2.320313-3.761718 2.199219-6 0-.003906 0-.003906 0-.003906l-9.554687-171.527344c-.601563-10.828125-8.074219-19.882812-18.589844-22.53125-11.421875-2.9375-20.160156-5.105468-27.316406-6.878906-15.261719-3.785156-23.667969-5.867188-35.234376-9.800781-.207031-.070313-.40625-.15625-.601562-.25l-18.160156-8.953125c-.160156-.082032-.316406-.167969-.46875-.265625-.132813-.0625-.296875-.136719-.488282-.222657-9.914062-4.519531-14.945312-11.589843-14.945312-21.015624v-3.265626c-6.386719 4.839844-13.195312 8.929688-20.324219 12.207032-6.066406 2.796875-13.035156 2.796875-19.105469 0-6.925781-3.1875-13.550781-7.144532-19.789062-11.8125v2.871094c0 6.492187-2.507812 15.363281-14.464844 20.789062zm88.863281.039062c.085937.070313.199219.160156.347656.257813-.117187-.082031-.234375-.167969-.347656-.257813zm-88.171875-.515625c-.003906 0 0 0 0 0zm.007812-.007812c-.003906 0-.003906.003906-.007812.003906.003906 0 .003906-.003906.007812-.003906zm0 0"/><path d="m197.109375 184.175781c-.738281 0-1.476563-.035156-2.21875-.089843-7.199219-.582032-13.742187-3.933594-18.425781-9.433594-4.679688-5.503906-6.9375-12.496094-6.359375-19.699219 1.203125-14.863281 14.316406-25.957031 29.125-24.78125 7.203125.582031 13.746093 3.929687 18.425781 9.433594 4.683594 5.5 6.941406 12.496093 6.363281 19.695312-.582031 7.203125-3.933593 13.742188-9.433593 18.425781-4.933594 4.199219-11.066407 6.449219-17.476563 6.449219zm-.058594-44.089843c-8.78125 0-16.257812 6.769531-16.976562 15.675781-.367188 4.535156 1.058593 8.945312 4.007812 12.410156 2.953125 3.46875 7.074219 5.578125 11.613281 5.945313 4.558594.386718 8.949219-1.058594 12.414063-4.007813s5.578125-7.070313 5.941406-11.613281c.367188-4.535156-1.054687-8.945313-4.007812-12.410156-2.949219-3.46875-7.070313-5.578126-11.609375-5.945313-.464844-.035156-.925782-.054687-1.382813-.054687zm0 0"/><path d="m132.777344 184.175781c-.738282 0-1.476563-.035156-2.21875-.089843-7.199219-.582032-13.742188-3.933594-18.425782-9.433594-4.679687-5.503906-6.9375-12.496094-6.355468-19.699219 1.195312-14.859375 14.246094-25.96875 29.125-24.78125 7.203125.582031 13.746094 3.929687 18.425781 9.433594 4.679687 5.5 6.9375 12.496093 6.359375 19.695312-.582031 7.203125-3.929688 13.742188-9.433594 18.425781-4.933594 4.199219-11.070312 6.449219-17.476562 6.449219zm-.054688-44.089843c-8.785156 0-16.261718 6.769531-16.980468 15.675781-.363282 4.535156 1.058593 8.945312 4.007812 12.410156 2.953125 3.46875 7.074219 5.578125 11.613281 5.945313 4.542969.375 8.945313-1.054688 12.414063-4.007813 3.464844-2.949219 5.578125-7.070313 5.945312-11.613281.363282-4.535156-1.058594-8.945313-4.007812-12.410156-2.949219-3.46875-7.074219-5.578126-11.613282-5.945313-.464843-.035156-.921874-.054687-1.378906-.054687zm0 0"/><path d="m164.898438 166.421875c-5.191407 0-9.964844-1.613281-13.101563-4.425781-2.054687-1.84375-2.226563-5.003906-.382813-7.058594 1.839844-2.054688 5.003907-2.226562 7.058594-.382812.960938.859374 3.222656 1.867187 6.425782 1.867187 3.203124 0 5.464843-1.007813 6.425781-1.871094 2.0625-1.84375 5.21875-1.667969 7.0625.390625 1.839843 2.054688 1.667969 5.214844-.390625 7.058594-3.136719 2.808594-7.910156 4.421875-13.097656 4.421875zm0 0"/><path d="m203.320312 465.816406h-76.675781c-6.527343 0-11.839843-5.3125-11.839843-11.84375v-38.523437c0-6.53125 5.3125-11.84375 11.839843-11.84375h76.675781c6.53125 0 11.839844 5.3125 11.839844 11.84375v38.523437c0 6.53125-5.308594 11.84375-11.839844 11.84375zm-76.675781-52.207031c-1.015625 0-1.839843.824219-1.839843 1.84375v38.519531c0 1.019532.828124 1.84375 1.839843 1.84375h76.675781c1.015626 0 1.839844-.824218 1.839844-1.84375v-38.519531c0-1.019531-.824218-1.84375-1.839844-1.84375zm0 0"/><path d="m191.867188 397.542969h-53.769532c-1.421875 0-2.777344-.605469-3.722656-1.664063-6.796875-7.570312-10.539062-17.316406-10.539062-27.433594 0-22.683593 18.460937-41.140624 41.144531-41.140624 22.6875 0 41.144531 18.457031 41.144531 41.140624 0 10.117188-3.742188 19.863282-10.535156 27.433594-.949219 1.0625-2.300782 1.664063-3.722656 1.664063zm-51.4375-10h49.109374c4.261719-5.464844 6.589844-12.167969 6.589844-19.097657 0-17.171874-13.972656-31.140624-31.144531-31.140624s-31.144531 13.96875-31.144531 31.140624c-.003906 6.929688 2.324218 13.632813 6.589844 19.097657zm0 0"/><path d="m183.054688 512h-36.144532c-2.511718 0-4.632812-1.863281-4.957031-4.355469l-6.023437-46.183593c-.1875-1.425782.25-2.863282 1.199218-3.945313.949219-1.082031 2.320313-1.703125 3.757813-1.703125h48.191406c1.441406 0 2.808594.621094 3.757813 1.703125.949218 1.082031 1.386718 2.519531 1.203124 3.945313l-6.023437 46.183593c-.328125 2.492188-2.449219 4.355469-4.960937 4.355469zm-31.753907-10h27.363281l4.71875-36.183594h-36.804687zm0 0"/><path d="m201.972656 413.609375h-73.980468c-2.761719 0-5-2.238281-5-5v-5.75c0-8.445313 6.871093-15.316406 15.316406-15.316406h53.347656c8.445312 0 15.316406 6.871093 15.316406 15.316406v5.75c0 2.761719-2.238281 5-5 5zm-68.980468-10h63.980468v-.75c0-2.929687-2.386718-5.316406-5.316406-5.316406h-53.347656c-2.929688 0-5.316406 2.386719-5.316406 5.316406zm0 0"/><path d="m237.234375 179.886719c-.976563 0-1.941406-.058594-2.898437-.140625-1.40625-.121094-2.703126-.835938-3.554688-1.960938-.851562-1.128906-1.191406-2.566406-.925781-3.957031 2.089843-10.933594 2.554687-22.015625 1.390625-32.941406l-2.230469-21.542969c-.285156-2.722656 1.679687-5.167969 4.398437-5.480469 1.367188-.160156 2.617188-.234375 3.820313-.234375 18.265625 0 33.128906 14.863282 33.128906 33.128906 0 18.265626-14.863281 33.128907-33.128906 33.128907zm2.289063-56.148438 1.667968 16.105469c1.050782 9.875.878906 19.871094-.507812 29.789062 11.125-1.667968 19.683594-11.289062 19.683594-22.871093-.003907-11.984375-9.160157-21.867188-20.84375-23.023438zm0 0"/><path d="m92.5625 179.886719c-18.269531 0-33.128906-14.859375-33.128906-33.125 0-18.269531 14.859375-33.132813 33.128906-33.132813 1.203125 0 2.453125.078125 3.820312.234375 2.722657.3125 4.683594 2.757813 4.402344 5.484375l-.265625 2.546875-2.335937 19.03125c-1.160156 10.921875-.691406 21.996094 1.394531 32.921875.269531 1.394532-.074219 2.839844-.933594 3.96875-.863281 1.128906-2.167969 1.839844-3.585937 1.953125-.828125.0625-1.65625.117188-2.496094.117188zm-2.347656-56.140625c-11.65625 1.179687-20.78125 11.050781-20.78125 23.015625 0 11.449219 8.363281 20.984375 19.304687 22.808593-1.378906-9.898437-1.546875-19.875-.5-29.742187.003907-.027344.007813-.054687.007813-.082031zm0 0"/><path d="m164.714844 263.066406c-3.257813 0-6.515625-.699218-9.554688-2.097656-44.792968-20.625-72.3125-70.441406-66.921875-121.140625.457031-4.078125.902344-7.527344 1.308594-10.667969.59375-4.582031 1.105469-8.542968 1.410156-12.679687.042969-.554688.175781-1.097657.394531-1.609375 1.390626-3.234375 3.308594-6.136719 5.703126-8.617188 2.332031-2.414062 4.933593-4.597656 7.738281-6.480468 8.09375-5.4375 18.417969-7.953126 29.058593-7.089844 36.515626 2.976562 57.027344-10.40625 66.007813-18.648438 2.582031-2.375 6.246094-3.179687 9.578125-2.113281s5.753906 3.753906 6.472656 7.183594c3.394532 16.152343 15.320313 28.539062 20.292969 33.117187.550781.507813 1.074219 1.070313 1.636719 1.769532.648437.808593 1.03125 1.792968 1.097656 2.824218.429688 6.894532 1.164062 14.390625 2.242188 22.914063 5.402343 50.796875-22.117188 100.613281-66.914063 121.238281-3.035156 1.398438-6.292969 2.097656-9.550781 2.097656zm-63.851563-144.957031c-.328125 4.078125-.828125 7.925781-1.398437 12.335937-.402344 3.089844-.839844 6.484376-1.285156 10.46875-4.945313 46.46875 20.207031 92.117188 61.164062 110.972657 3.414062 1.570312 7.324219 1.570312 10.738281 0 40.957031-18.859375 66.109375-64.503907 61.160157-111-1-7.910157-1.714844-15.035157-2.167969-21.632813-7.035157-6.550781-18.914063-19.808594-22.824219-37.515625-10.367188 9.371094-33.378906 24.15625-73.210938 20.914063-8.394531-.695313-16.445312 1.242187-22.667968 5.421875-2.222656 1.492187-4.28125 3.214843-6.121094 5.125-1.371094 1.425781-2.511719 3.074219-3.386719 4.910156zm0 0"/><path d="m257.230469 131.984375c-1.316407 0-2.605469-.523437-3.550781-1.480469-4.382813-4.433594-10.222657-6.875-16.445313-6.875-.785156 0-1.636719.050782-2.605469.160156-1.355468.15625-2.71875-.253906-3.769531-1.132812-1.019531-.851562-1.652344-2.070312-1.773437-3.390625-7.03125-6.542969-18.921876-19.808594-22.835938-37.527344-10.367188 9.371094-33.378906 24.15625-73.210938 20.914063-8.394531-.695313-16.445312 1.242187-22.667968 5.421875-2.222656 1.492187-4.28125 3.214843-6.121094 5.125-1.375 1.425781-2.515625 3.078125-3.390625 4.914062-.035156.375-.066406.75-.101563 1.125-.117187 1.34375-.777343 2.597657-1.820312 3.449219-1.046875.851562-2.386719 1.261719-3.730469 1.109375-.96875-.109375-1.835937-.164063-2.648437-.164063-1.5 0-3.054688.160157-4.617188.480469-.578125.117188-1.175781.128907-1.761718.039063-19.199219-2.953125-33.125-12.53125-41.394532-28.464844-9.4375-18.183594-9.109375-40.445312.761719-51.78125 5.832031-6.691406 14.328125-8.703125 23.308594-5.519531.085937.03125.171875.0625.253906.09375 2.609375 1.023437 6.183594.871093 10.628906-.460938 5.664063-1.703125 12.011719-6.128906 19.363281-11.257812 16.195313-11.296875 38.367188-26.761719 73.605469-26.761719 40.609375 0 59.066407 21.773438 65.113281 31.128906 1.425782 2.207032 3.304688 3.90625 5.429688 4.914063 12.164062 5.773437 38.355469 26.332031 18.777344 92.363281-.503906 1.695312-1.863282 3-3.578125 3.429688-.402344.101562-.8125.148437-1.21875.148437zm-19.691407-18.355469c6.050782.054688 11.839844 1.71875 16.878907 4.796875 13.660156-52.902343-6.027344-68.875-15.457031-73.351562-3.804688-1.804688-7.101563-4.75-9.539063-8.515625-15.492187-23.96875-44.820313-26.558594-56.714844-26.558594-32.097656 0-51.9375 13.839844-67.878906 24.960938-8.054687 5.621093-15.015625 10.472656-22.210937 12.632812-6.59375 1.976562-12.332032 2.054688-17.0625.230469-5.253907-1.859375-9.308594-.976563-12.464844 2.648437-6.3125 7.246094-7.824219 24.417969.574218 40.605469 6.695313 12.898437 17.5625 20.449219 33.207032 23.054687 1.691406-.296874 3.382812-.464843 5.042968-.5 1.332032-2.742187 3.054688-5.21875 5.140626-7.378906 2.332031-2.414062 4.933593-4.597656 7.738281-6.480468 8.09375-5.4375 18.417969-7.953126 29.058593-7.089844 36.515626 2.976562 57.027344-10.40625 66.007813-18.648438 2.582031-2.375 6.246094-3.179687 9.578125-2.113281s5.753906 3.753906 6.472656 7.183594c3.394532 16.152343 15.320313 28.539062 20.292969 33.117187.453125.417969.886719.871094 1.335937 1.40625zm0 0"/><path d="m141.664062 326.574219c-2.136718 0-4.296874-.675781-6.15625-2.0625-.199218-.152344-.386718-.316407-.5625-.496094l-41.292968-42.011719c-1.203125-1.226562-1.695313-2.984375-1.300782-4.65625.394532-1.671875 1.621094-3.023437 3.246094-3.578125.855469-.292969 1.71875-.59375 2.609375-.90625l17.59375-8.675781c.3125-.179688.632813-.324219.976563-.484375.289062-.128906.671875-.304687 1.117187-.527344 1.890625-.957031 4.175781-.613281 5.707031.855469l36.335938 34.824219c2.839844 2.714843 3.128906 7.089843.675781 10.164062l-10.960937 13.695313v.003906c-2.027344 2.535156-4.988282 3.855469-7.988282 3.855469zm4.085938-6.980469h.023438zm-4.113281-3.035156c.074219-.011719.160156-.027344.210937-.09375l9.554688-11.941406-32.207032-30.867188-13.285156 6.550781zm0 0"/><path d="m188.296875 326.574219c-3 0-5.960937-1.320313-7.988281-3.859375l-10.957032-13.695313c-2.460937-3.082031-2.164062-7.453125.675782-10.167969l36.339844-34.828124c1.539062-1.472657 3.835937-1.8125 5.730468-.84375.601563.304687 1.136719.550781 1.570313.75.59375.269531 1.074219.492187 1.527343.765624l17.582032 8.667969 1.453125.488281c1.636719.542969 2.875 1.894532 3.277343 3.574219.40625 1.675781-.085937 3.445313-1.292968 4.671875l-41.195313 41.914063c-.175781.179687-.367187.347656-.566406.496093-1.855469 1.390626-4.015625 2.066407-6.15625 2.066407zm-.179687-10.105469c.050781.0625.121093.082031.207031.089844l35.722656-36.347656-13.285156-6.550782-32.207031 30.867188zm0 0"/><path d="m172.769531 309.703125h-15.574219c-1.464843 0-2.855468-.640625-3.804687-1.753906-.644531-.753907-1.039063-1.667969-1.160156-2.628907l-35.546875-34.066406c-1.171875-1.125-1.726563-2.75-1.484375-4.359375.246093-1.605469 1.253906-2.996093 2.707031-3.722656 5.027344-2.519531 7.46875-6.164063 7.46875-11.144531v-13.464844c0-1.976562 1.164062-3.769531 2.972656-4.570312 1.808594-.800782 3.917969-.460938 5.382813.867187 7.808593 7.070313 16.425781 12.800781 25.617187 17.03125 3.410156 1.570313 7.324219 1.570313 10.738282 0 9.402343-4.328125 18.195312-10.210937 26.128906-17.492187 1.457031-1.335938 3.574218-1.691407 5.390625-.886719 1.8125.792969 2.984375 2.59375 2.984375 4.574219v13.945312c0 5.003906 2.386718 8.546875 7.507812 11.15625 1.441406.734375 2.441406 2.121094 2.679688 3.722656.234375 1.601563-.320313 3.21875-1.488282 4.339844l-35.558593 34.074219c-.117188.960937-.515625 1.878906-1.15625 2.628906-.953125 1.109375-2.34375 1.75-3.804688 1.75zm-12.074219-10h8.570313c.226563-.296875.480469-.582031.757813-.84375l31.863281-30.539063c-5.890625-5.125-7.296875-11.4375-7.296875-16.292968v-3.269532c-6.386719 4.839844-13.191406 8.929688-20.320313 12.210938-6.074219 2.796875-13.039062 2.792969-19.105469 0-6.925781-3.1875-13.550781-7.144531-19.789062-11.816406v2.875c0 6.507812-2.550781 12.117187-7.296875 16.289062l31.863281 30.539063c.273438.265625.527344.546875.753906.847656zm0 0"/></g></svg>