<svg height="512pt" viewBox="-57 0 512 512.05196" width="512pt" xmlns="http://www.w3.org/2000/svg"><path d="m252.839844 497.652344c-25.398438-13.800782-35.199219-37.398438-41.199219-52-4.199219-10.199219-19.800781-50-2.398437-95.601563 14.199218-37.199219 41.800781-56.398437 51.597656-62.597656l-8.597656-2.199219c-7.800782-2-15.601563-4.402344-23.199219-7l-18-8.800781-2.601563-1.402344c-5.800781-2.796875-9.398437-8.796875-9.398437-15.199219v-8.800781l-.402344.402344c-8.398437 8.199219-19.800781 12.800781-31.597656 12.800781.199219 0-4.402344 0-4.601563 0-11.800781 0-23.199218-4.601562-31.601562-12.800781l-.796875-.800781v9c0 6.398437-3.601563 12.398437-9.402344 15.199218l-3.597656 1.800782-18.203125 9c-7 2.398437-14 4.398437-21 6.199218l-41 10.199219c-12.597656 3.203125-21.597656 14.203125-22.199219 27l-9.597656 171c-.402344 7.402344 5.597656 13.800781 13 13.800781h280.199219c-9.199219.800782-27.199219.601563-45.402344-9.199218zm0 0" fill="#1b87c9"/><path d="m255.640625 290.453125 2.402344-3.800781s0 0-.203125 0l-5.398438-1.398438c-7.800781-2-15.601562-4.402344-23.199218-7l-8.800782-4.402344-47.601562 62c12.203125 8.601563 26.800781 10 39.601562 5.601563 8.601563-21.199219 23.800782-39.199219 43.199219-51zm0 0" fill="#e8e6e6"/><path d="m77.839844 285.050781-6.597656 1.601563 21.199218 34.601562c14 23 42.601563 29.597656 63.800782 14.597656l-47.601563-62-10 4.800782c-6.597656 2.398437-13.597656 4.601562-20.800781 6.398437zm0 0" fill="#e8e6e6"/><path d="m236.839844 117.253906c-10.597656-2.402344-28.199219-10.203125-37.796875-37-.601563-1.601562-2.800781-2-3.800781-.601562-7 9.199218-29.199219 33-72.402344 30.601562-14.199219-.800781-24.199219 3.796875-30.199219 9.597656l-5.398437 59.601563c-1.199219 13.199219 3.597656 26.199219 13 35.398437l30.597656 29.800782c8.402344 8.199218 19.800781 12.800781 31.601562 12.800781.199219 0 4.800782 0 4.601563 0 11.796875 0 23.199219-4.601563 31.597656-12.800781l30.601563-29.800782c9.398437-9.199218 14.199218-22.199218 13-35.398437zm0 0" fill="#fcb275"/><path d="m92.242188 122.253906c-.402344 0-.800782 0-1.402344 0-13.398438 0-24 10.796875-24 24 0 12.398438 9.203125 22.398438 21.203125 23.796875zm0 0" fill="#fcb275"/><path d="m237.441406 122.253906c-.199218 0-.199218 0 0 0l4 47.796875c11.398438-2 20-11.796875 20-23.796875 0-13.203125-10.800781-24-24-24zm0 0" fill="#fcb275"/><path d="m248.640625 57.253906c-18.597656-45-50-56-84-51-34-5-65.398437 6-84 51-22 53-45.199219 61.199219-18 117.398438 6.800781 14 7.601563 23.199218 6.402344 28.800781-1 4.800781 2.796875 9.199219 7.597656 9.199219h21.601563c-8-9-12-21-10.800782-33.199219l.800782-9.199219c-12-1.402344-21.199219-11.601562-21.199219-23.800781 0-13.402344 10.796875-24 24-24h1.398437l.199219-2.402344c6-5.796875 16.199219-10.398437 30.199219-9.597656 43.203125 2.398437 65.402344-21.402344 72.402344-30.601563 1-1.398437 3.199218-1 3.800781.601563 9.796875 26.800781 27.398437 34.800781 37.796875 37l.402344 5h.199218c13.398438 0 24 10.800781 24 24 0 12-8.601562 21.800781-20 23.800781l.800782 9.398438c1.199218 12.199218-2.800782 24-10.800782 33.199218h21.398438c4.800781 0 8.601562-4.398437 7.601562-9.199218-1.199218-5.800782-.398437-14.800782 6.398438-28.800782 26.800781-56.398437 3.601562-64.597656-18.199219-117.597656zm0 0" fill="#7c292e"/><path d="m208.441406 268.050781c-5.800781-2.796875-9.398437-8.796875-9.398437-15.199219v-8.800781l-.402344.402344c-8.398437 8.199219-19.800781 12.800781-31.597656 12.800781.199219 0-4.402344 0-4.601563 0-11.800781 0-23.199218-4.601562-31.601562-12.800781l-.796875-.800781v9c0 6.398437-3.601563 12.398437-9.402344 15.199218l-3.597656 1.800782-8.203125 4 47.601562 62h16.601563l47.597656-62-9.199219-4.601563zm0 0" fill="#fcb275"/><g fill="#231f20"><path d="m164.640625 219.453125c-6.199219 0-12-2.199219-15.597656-6-2-2-1.800781-5.199219.199219-7 2-2 5.199218-1.800781 7 .199219 1.800781 1.800781 5 3 8.398437 3 3.402344 0 6.601563-1.199219 8.402344-3 2-2 5-2 7-.199219 2 2 2 5 .199219 7-3.601563 3.800781-9.199219 6-15.601563 6zm0 0"/><path d="m181.640625 147.453125c-1.800781 0-3.597656-1-4.398437-2.601563-1.199219-2.398437-.402344-5.398437 2-6.800781 3-1.597656 7.597656-2.597656 12.398437-2.597656s9.402344 1 12.402344 2.597656c2.398437 1.203125 3.398437 4.402344 2 6.800781-1.203125 2.402344-4.402344 3.402344-6.800781 2-1.199219-.597656-4.199219-1.398437-7.800782-1.398437-3.601562 0-6.601562.597656-7.800781 1.398437-.398437.402344-1.199219.601563-2 .601563zm0 0"/><path d="m147.441406 147.453125c-.800781 0-1.601562-.199219-2.398437-.601563-1.203125-.597656-4.203125-1.398437-7.800781-1.398437-3.601563 0-6.601563.597656-7.800782 1.398437-2.398437 1.199219-5.398437.402344-6.800781-2-1.199219-2.398437-.398437-5.398437 2-6.800781 3-1.597656 7.601563-2.597656 12.402344-2.597656 5 0 9.398437 1 12.398437 2.597656 2.398438 1.203125 3.398438 4.402344 2 6.800781-.398437 1.601563-2.199218 2.601563-4 2.601563zm0 0"/><path d="m138.242188 167.050781c-3.402344 0-6-2.597656-6-6v-1c0-3.398437 2.597656-6 6-6 3.398437 0 6 2.601563 6 6v1.203125c0 3.199219-2.800782 5.796875-6 5.796875zm0 0"/><path d="m191.242188 167.851562c-3.402344 0-6-2.597656-6-6v-1.199218c0-3.398438 2.597656-6 6-6 3.398437 0 6 2.601562 6 6v1.199218c0 3.402344-2.601563 6-6 6zm0 0"/><path d="m133.242188 476.652344h-50.402344c-2.796875 0-5-2.199219-5-5 0-2.800782 2.203125-5 5-5h50.402344c2.800781 0 5 2.199218 5 5 0 2.800781-2.199219 5-5 5zm0 0"/><path d="m91.242188 484.652344c-2.800782 0-5-2.199219-5-5v-6c0-2.800782 2.199218-5 5-5 2.800781 0 5 2.199218 5 5v6c0 2.800781-2.199219 5-5 5zm0 0"/><path d="m63.042969 509.253906c-2.800781 0-5-2.203125-5-5v-110.800781c0-2.800781 2.199219-5 5-5 2.796875 0 5 2.199219 5 5v110.800781c0 2.796875-2.203125 5-5 5zm0 0"/><path d="m198.042969 348.851562c-9.800781 0-19.402344-3-28-9-1.203125-.800781-1.800781-2-2-3.398437-.203125-1.402344.199219-2.800781 1-3.800781l47.597656-62c1.402344-1.800782 4-2.398438 6.199219-1.398438l8.402344 4.199219c7.398437 2.597656 15 4.800781 22.597656 6.800781l5.402344 1.398438c.199218 0 .199218 0 .398437.199218 1.402344.402344 2.601563 1.601563 3.199219 3 .601562 1.402344.402344 3-.398438 4.402344l-2.398437 3.796875c-.402344.601563-1 1.203125-1.601563 1.601563-18.398437 11.199218-33 28.398437-41.199218 48.601562-.601563 1.398438-1.601563 2.398438-3 2.796875-5.402344 2-10.800782 2.800781-16.199219 2.800781zm-17.800781-14.398437c8.800781 4.597656 19 5.597656 28.398437 2.800781 8.402344-19.402344 22.199219-36.203125 39.402344-48-7-1.800781-13.800781-4-20.601563-6.402344-.199218 0-.398437-.199218-.601562-.199218l-5-2.398438zm0 0"/><path d="m131.441406 348.851562c-3.199218 0-6.601562-.398437-9.800781-1-13.800781-2.800781-25.597656-11.398437-33.199219-24l-21.199218-34.597656c-.800782-1.402344-1-3-.402344-4.402344.601562-1.398437 1.800781-2.597656 3.402344-3l6.597656-1.597656c6.800781-1.800781 13.601562-3.800781 20.402344-6l9.597656-4.800781c2.203125-1 4.800781-.402344 6.203125 1.398437l47.597656 62c.800781 1 1.199219 2.402344 1 3.800782-.199219 1.398437-1 2.601562-2 3.398437-8.800781 5.800781-18.398437 8.800781-28.199219 8.800781zm-52.199218-59 17.597656 28.800782c6.203125 10.199218 15.800781 17.199218 26.800781 19.398437 8.800781 1.800781 17.601563.601563 25.601563-3.597656l-41.800782-54.402344-6.199218 3c-.199219 0-.402344.203125-.601563.203125-7.199219 2.597656-14.398437 4.796875-21.398437 6.597656zm-1.402344-4.800781"/><path d="m106.839844 341.253906c-1 0-2-.203125-2.796875-.800781-6.402344-4.199219-11.601563-9.800781-15.800781-16.601563l-5.601563-9.199218c-1.398437-2.199219-.800781-5.199219 1.402344-6.800782l33.597656-23c2.199219-1.398437 5.199219-1 6.800781 1l16.800782 22c1.597656 2.199219 1.199218 5.199219-.800782 7l-30.601562 25.199219c-.796875.800781-2 1.203125-3 1.203125zm-13.199219-27.601562 3.199219 5c2.601562 4.398437 6 8.199218 9.800781 11.199218l24-19.597656-11-14.402344zm0 0"/><path d="m217.242188 336.050781c-1.199219 0-2.199219-.398437-3.199219-1.199219l-25-20.398437c-2-1.800781-2.402344-4.800781-.800781-7l16.800781-22c1.597656-2.199219 4.597656-2.601563 6.796875-1l26.203125 17.800781c1.199219.796875 2 2.199219 2.199219 3.597656.199218 1.402344-.402344 3-1.402344 4-6.796875 7-12.597656 14.800782-17.199219 23.402344-.800781 1.398438-2 2.199219-3.398437 2.597656-.402344.199219-.601563.199219-1 .199219zm-18-26.199219 16.597656 13.601563c3.402344-5.601563 7.402344-11 11.800781-16l-17.398437-12zm0 0"/><path d="m165.242188 493.851562c-2.800782 0-5-2.199218-5-5v-135.199218c0-2.800782 2.199218-5 5-5 2.800781 0 5 2.199218 5 5v135.199218c0 2.800782-2.402344 5-5 5zm0 0"/><path d="m167.042969 262.453125h-4.601563c-13.199218 0-25.601562-5-35-14.199219l-30.601562-29.800781c-10.597656-10.402344-15.796875-24.601563-14.597656-39.402344l5.199218-59.597656c.199219-1.199219.601563-2.402344 1.398438-3.199219 4.800781-4.601562 15.402344-12.203125 34-11.203125 40.203125 2.203125 61-19.199219 68.203125-28.597656 1.597656-2.199219 4.199219-3.199219 6.796875-2.800781 2.601562.398437 4.800781 2.199218 5.800781 4.601562 8.601563 23.597656 23.402344 31.398438 34.199219 33.796875 2.203125.402344 3.800781 2.203125 3.800781 4.402344l5.402344 62.199219c1.398437 14.800781-4 29-14.601563 39.398437l-30.601562 29.800781c-9.199219 9.601563-21.597656 14.601563-34.796875 14.601563zm-69.800781-140.199219-5 57.597656c-1 11.800782 3.199218 23.199219 11.597656 31.402344l30.601562 29.796875c7.601563 7.402344 17.601563 11.402344 28.199219 11.402344h4.601563c10.597656 0 20.597656-4 28.199218-11.402344l30.601563-29.796875c8.398437-8.203125 12.597656-19.601562 11.597656-31.402344l-5.199219-58.597656c-10.601562-3.203125-26.398437-11.800781-36.199218-34.800781-10.199219 11.800781-33.402344 31-73.601563 28.800781-13.398437-.800781-21.398437 3.597656-25.398437 7zm0 0"/><path d="m88.042969 175.253906c-.203125 0-.402344 0-.601563 0-14.601562-1.800781-25.601562-14.203125-25.601562-28.800781 0-16 13-29 29-29h1.402344.398437c1.402344 0 2.601563.597656 3.601563 1.800781 1 1.199219 1.398437 2.398438 1.199218 3.796875l-4.199218 48c-.199219 1.402344-.800782 2.601563-1.800782 3.402344-1.199218.398437-2.398437.800781-3.398437.800781zm-1.402344-47.601562c-8.597656 1.800781-15 9.601562-15 18.601562 0 7.796875 4.800781 14.796875 11.800781 17.597656zm0 0"/><path d="m241.441406 175.050781c-1 0-2.199218-.398437-3-1-1.199218-.796875-1.800781-2.199219-2-3.597656l-4.199218-47.800781c-.199219-1.398438.398437-2.800782 1.199218-3.800782 1-1 2.199219-1.597656 3.398438-1.597656h.402344c16 0 29 13 29 29 0 14.199219-10.199219 26.199219-24.199219 28.597656 0 .199219-.402344.199219-.601563.199219zm1.398438-47 3.203125 35.402344c6.398437-3.199219 10.597656-9.601563 10.597656-17-.199219-8.800781-6-16-13.800781-18.402344zm0 0"/><path d="m252.640625 217.652344h-21.398437c-2 0-3.800782-1.199219-4.601563-3-.800781-1.800782-.398437-3.800782.800781-5.398438 7.199219-8 10.601563-18.601562 9.601563-29.402344l-.800781-9.398437c-.199219-2.601563 1.597656-5 4.199218-5.402344 9.199219-1.597656 15.800782-9.398437 15.800782-18.796875 0-10.402344-8.601563-19-19-19h-.199219c-2.601563 0-4.800781-2-5-4.601562l-.203125-1.398438c-10.597656-3.203125-26.398438-11.800781-36.199219-34.800781-10.199219 11.800781-33.398437 31-73.597656 28.800781-12.800781-.800781-20.800781 3.597656-24.800781 7v.398438c-.199219 2.601562-2.601563 4.601562-5.199219 4.601562h-.402344c-.199219 0-.398437 0-.597656 0-10.601563 0-19 8.597656-19 19 0 9.597656 7.199219 17.796875 16.796875 19 2.601562.398438 4.601562 2.796875 4.402344 5.398438l-.800782 9.199218c-1 10.601563 2.601563 21.402344 9.601563 29.402344 1.398437 1.398438 1.597656 3.597656.796875 5.398438-.796875 1.800781-2.597656 3-4.597656 3h-21.800782c-3.800781 0-7.601562-1.800782-10-4.800782-2.398437-3-3.398437-6.800781-2.601562-10.398437 1-4.199219.601562-12-6-25.601563-21.398438-44.398437-12.597656-61.398437 2.402344-89.199218 4.800781-9 10.199218-19.199219 15.597656-32.199219 17.402344-42 47.203125-60.199219 88.800781-54.402344 41.402344-5.796875 71.199219 12.402344 88.601563 54.203125 5.398437 13 10.800781 23.199219 15.597656 32.199219 14.800781 28 23.800781 44.800781 2.402344 89.199219-6.601563 13.601562-6.800782 21.398437-6 25.601562.800781 3.597656-.199219 7.597656-2.601563 10.398438-2.398437 3.199218-6 5-10 5zm-11.597656-10h11.597656c.800781 0 1.601563-.398438 2.199219-1 .203125-.398438.800781-1 .601562-2-1.800781-8.398438.398438-19.199219 6.601563-32 19.199219-39.800782 12-53.398438-2.203125-80.199219-5-9.199219-10.398438-19.601563-16-33-15.597656-37.800781-41.398438-53.402344-78.597656-48-.402344 0-1 0-1.402344 0-37.199219-5.402344-63 10.199219-78.597656 48-5.601563 13.398437-11.199219 23.800781-16 33-14.199219 26.800781-21.402344 40.398437-2.199219 80.199219 6.199219 13 8.597656 23.800781 6.597656 32-.199219 1 .199219 1.800781.601563 2 .597656.601562 1.398437 1 2.199218 1h11.800782c-4.800782-8.601563-7-18.601563-6.199219-28.601563l.398437-4.796875c-12.199218-3.601562-20.800781-14.800781-20.800781-27.800781 0-15.199219 11.601563-27.601563 26.402344-29 .199219-.402344.597656-.800781.796875-1 4.800781-4.601563 15.402344-12.199219 34-11.199219 40.203125 2.199219 61-19.203125 68.203125-28.601562 1.597656-2.199219 4.199219-3.199219 6.796875-2.800782 2.601562.402344 4.800781 2.199219 5.800781 4.601563 8.601563 23.597656 23.402344 31.398437 34.199219 33.800781 2.203125.398438 3.800781 2.199219 3.800781 4.398438v.800781c14 2.199219 24.601563 14.199219 24.601563 28.800781 0 12.597656-8 23.597656-19.601563 27.597656l.402344 5.199219c1.199219 10-1 19.800781-6 28.601563zm0 0"/><path d="m172.839844 340.851562h-16.597656c-1.601563 0-3-.800781-4-2l-47.601563-62c-1-1.199218-1.199219-2.800781-1-4.199218.199219-1.398438 1.402344-2.601563 2.601563-3.398438l11.800781-5.800781c4-2 6.597656-6.199219 6.597656-10.601563v-9c0-2 1.199219-3.800781 3-4.597656 1.800781-.800781 4-.402344 5.402344 1l.796875.796875c7.601562 7.402344 17.601562 11.402344 28.203125 11.402344h4.597656c10.601563 0 20.601563-4 28.199219-11.402344l.402344-.398437c1.398437-1.398438 3.597656-1.800782 5.398437-1 1.800781.800781 3 2.601562 3 4.601562v8.796875c0 4.601563 2.601563 8.601563 6.601563 10.601563l12 5.800781c1.398437.597656 2.398437 1.800781 2.597656 3.398437.203125 1.601563 0 3-1 4.199219l-47.597656 62c-.199219 1.203125-1.800782 1.800781-3.402344 1.800781zm-14-10h11.601562l42.398438-55.199218-6.398438-3.199219c-7-3.402344-11.601562-10.199219-12.199218-18-8 5.199219-17.402344 8-27.199219 8h-4.601563c-9.800781 0-19.199218-2.800781-27.398437-8-.601563 7.800781-5 14.597656-12.203125 18.199219l-6.398438 3.199218zm0 0"/><path d="m300.242188 502.050781s-6.199219 0-6.800782 0c-45.800781 0-85.800781-49.796875-85.800781-106.597656 0-48.199219 24.601563-89 58.199219-102.199219.601562-.203125 1.800781-.601562 1.800781-.601562 2-1.199219 3.199219-3.601563 2.601563-6.199219-.402344-2.199219-2.199219-3.800781-4.199219-4.402344l-1-.199219-11.402344-1.398437c-7.597656-2-15.199219-4.199219-22.597656-6.800781l-20.402344-10c-4-2-6.597656-6.199219-6.597656-10.601563v-8.597656c0-2-1.203125-3.800781-3-4.601563-1.800781-.800781-4-.398437-5.402344 1l-.597656.402344c-7.601563 7.398438-17.601563 11.398438-28 11.398438h-4.601563c-10.601562 0-20.601562-4-28.199218-11.398438l-.800782-.800781c-1.398437-1.402344-3.601562-1.800781-5.398437-1-1.800781.800781-3 2.597656-3 4.597656v9c0 4.601563-2.601563 8.601563-6.601563 10.601563l-21.398437 10.398437c-6.601563 2.203125-13.601563 4.203125-20.402344 6l-41 10.402344c-14.800781 3.597656-25.199219 16.398437-26 31.597656l-9.5976562 171c-.2031248 5 1.5976562 9.800781 5.0000002 13.402344 3.398437 3.597656 8.199219 5.597656 13 5.597656h282c.199219-2.398437.199219-10 .199219-10zm-51 0h-231c-2.199219 0-4.402344-.796875-5.800782-2.597656-1.601562-1.601563-2.398437-3.800781-2.199218-6l9.597656-171c.601562-10.800781 8-19.800781 18.601562-22.402344l41-10.199219c7.199219-1.800781 14.398438-4 21.398438-6.398437.203125 0 .402344-.199219.601562-.199219l21.800782-10.800781c7-3.601563 11.597656-10.402344 12.199218-18.199219 8 5.199219 17.601563 8 27.398438 8h4.601562c9.800782 0 19.199219-2.800781 27.199219-8 .601563 7.796875 5.199219 14.597656 12.199219 18l20.800781 10.199219c.199219 0 .402344.199219.601563.199219 6.800781 2.398437 13.597656 4.601562 20.597656 6.398437-20.597656 14-35 33.402344-42.597656 57.601563 0 0 0 .199218.199218.199218-5.199218 14.800782-8.199218 31.199219-8.199218 48.402344 0 30.597656 10.199218 59.796875 29 82.199219 8.597656 10.398437 18.597656 18.597656 29.398437 24.597656-4.800781 0-7.398437 0-7.398437 0zm0 0"/></g><path d="m387.242188 349.851562c-9.601563-30.800781-32.601563-56-62.601563-67.597656-8.199219-3.203125-17.199219-5.402344-26.199219-5.402344s-18 2.199219-26.199218 5.402344c-30.199219 11.597656-53.199219 36.796875-62.601563 67.597656-19.199219 62 13 125 13 125 7.601563 10.402344 19 17.601563 30.601563 22.601563 29 12.597656 62 12.597656 91 0 11.597656-5 23-12.402344 30.597656-22.601563-.597656.199219 31.601562-62.800781 12.402344-125zm0 0" fill="#1b87c9"/><path d="m380.441406 458.050781c-8.199218 11.203125-20.398437 19-33 24.402344-31.199218 13.597656-67 13.597656-98.199218 0-12.601563-5.402344-24.800782-13.199219-33-24.402344 0 0-1.601563-3.199219-4-8.796875 4.800781 15.796875 10 25.597656 10 25.597656 7.597656 10.402344 19 17.601563 30.597656 22.601563 29 12.597656 62 12.597656 91 0 11.601562-5 23-12.402344 30.601562-22.601563 0 0 5-10 10-25.597656-2.398437 5.597656-4 8.796875-4 8.796875zm0 0" fill="#515050"/><path d="m321.242188 284.453125v-3.199219c-7.402344-2.601562-15.199219-4.203125-23-4.203125-7.800782 0-15.601563 1.601563-23 4.203125v3.199219c0 5.199219 4.398437 9.597656 9.597656 9.597656h26.800781c5.402344 0 9.601563-4.398437 9.601563-9.597656zm0 0" fill="#e8e6e6"/><path d="m388.839844 355.851562c-24.199219-7.398437-55.796875-11.800781-90.597656-11.800781-34.800782 0-66.402344 4.402344-90.601563 11.800781-6.398437 25-5 49.601563-1.199219 70.199219 5.398438 1.601563 11.199219 3.203125 17.199219 4.601563 16.601563 3.601562 34 2.398437 49.800781-3.800782 7.398438-3 15.800782-4.597656 24.800782-4.597656s17.398437 1.597656 24.800781 4.597656c16.199219 6.601563 34.199219 7.402344 51.398437 3.402344 5.601563-1.203125 10.800782-2.601562 15.800782-4.203125 3.800781-20.597656 5.199218-45.398437-1.402344-70.199219zm0 0" fill="#30a9e5"/><path d="m324.242188 489.851562 16.398437-58.398437c-6-1-12-2.601563-17.597656-4.800781-7.402344-3-15.800781-4.601563-24.800781-4.601563s-17.402344 1.601563-24.800782 4.601563c-5.601562 2.199218-11.601562 3.800781-17.601562 4.800781l16.402344 58.398437c17.199218 3.800782 35 3.800782 52 0zm0 0" fill="#e8e6e6"/><path d="m298.242188 512.050781c-16.199219 0-32.402344-3.199219-47.402344-9.796875-14.398438-6.203125-25.398438-14.402344-32.597656-24.203125-.199219-.199219-.199219-.398437-.402344-.597656-1.398438-2.601563-32.796875-65.601563-13.199219-128.800781 10-32.398438 34.601563-58.800782 65.601563-70.800782 9.800781-3.800781 19.398437-5.800781 28-5.800781 8.597656 0 18.199218 2 28 5.800781 31 12 55.597656 38.402344 65.597656 70.800782 19.601562 63.199218-12 126.199218-13.199219 128.800781-.199219.199219-.199219.398437-.398437.597656-7.199219 9.800781-18.199219 18-32.601563 24.203125-15 6.597656-31.199219 9.796875-47.398437 9.796875zm-71.601563-39.597656c6.199219 8.199219 15.601563 15.199219 28.199219 20.597656 27.601562 12 59.402344 12 87 0 12.601562-5.398437 22.203125-12.398437 28.203125-20.597656 2.398437-5 30-64 12.398437-121-9.199218-29.402344-31.398437-53.402344-59.601562-64.402344-8.796875-3.398437-17-5-24.398438-5-7.398437 0-15.800781 1.800781-24.398437 5-28.203125 10.800781-50.601563 35-59.601563 64.402344-18 57 9.800782 115.800781 12.199219 121zm0 0" fill="#231f20"/><path d="m298.242188 512.050781c-16.199219 0-32.402344-3.199219-47.402344-9.796875-14.398438-6.203125-25.398438-14.402344-32.597656-24.203125-.199219-.199219-.402344-.398437-.402344-.597656-.199219-.402344-5.199219-10.402344-10.199219-26.402344-.800781-2.597656.601563-5.199219 3-6.199219 2.402344-1 5.199219.402344 6.402344 2.800782 1.796875 4.199218 3.199219 7.199218 3.597656 8 6.601563 9 17 16.398437 30.601563 22.398437 30 13 64.199218 13 94.199218 0 13.601563-6 24-13.597656 30.601563-22.398437.398437-1 1.796875-3.800782 3.597656-8 1-2.398438 3.800781-3.800782 6.402344-2.800782 2.597656 1 3.796875 3.601563 3 6.199219-5 16-10 26-10.203125 26.402344-.199219.199219-.199219.398437-.398438.597656-7.199218 9.800781-18.199218 18-32.601562 24.203125-15.199219 6.597656-31.398438 9.796875-47.597656 9.796875zm-64.402344-31.796875c5.601562 5 12.601562 9.199219 21 12.796875 27.601562 12 59.402344 12 87 0 8.402344-3.597656 15.402344-8 21-12.796875-4.199219 2.398438-8.597656 4.796875-13.398438 7-32.398437 14.199219-69.601562 14.199219-102.199218 0-4.800782-2.203125-9.199219-4.601562-13.402344-7zm0 0" fill="#231f20"/><path d="m311.640625 299.050781h-26.800781c-8 0-14.597656-6.597656-14.597656-14.597656v-3.199219c0-2.203125 1.398437-4 3.398437-4.800781 8.601563-3 17-4.402344 24.601563-4.402344 7.597656 0 16 1.601563 24.597656 4.402344 2 .597656 3.402344 2.597656 3.402344 4.800781v3.199219c0 8-6.402344 14.597656-14.601563 14.597656zm-31.199219-14.199219c.199219 2.402344 2.199219 4.199219 4.601563 4.199219h26.796875c2.402344 0 4.402344-1.796875 4.601562-4.199219-6.398437-1.800781-12.398437-2.800781-18-2.800781-5.601562 0-11.800781 1-18 2.800781zm0 0" fill="#231f20"/><path d="m242.839844 437.453125c-6.597656 0-13.398438-.800781-20-2.199219-6.199219-1.402344-12.199219-3-17.597656-4.601562-1.800782-.601563-3-2-3.402344-3.800782-4.796875-25.800781-4.398438-50.199218 1.203125-72.398437.398437-1.601563 1.796875-3 3.398437-3.601563 25.398438-7.800781 58.199219-12 92-12 33.800782 0 66.601563 4.199219 92 12 1.601563.601563 3 1.800782 3.398438 3.601563 5.800781 22 6.203125 46.398437 1.203125 72.398437-.402344 1.800782-1.601563 3.199219-3.402344 3.800782-5 1.601562-10.398437 3-16 4.398437-18.800781 4.203125-37.597656 3-54.398437-3.796875-14-5.601562-31.800782-5.601562-45.800782 0-10.398437 4.199219-21.398437 6.199219-32.601562 6.199219zm-32-15.402344c4.402344 1.402344 9.203125 2.601563 14 3.601563 16 3.601562 32.203125 2.398437 46.800781-3.601563 16.199219-6.597656 36.800781-6.597656 53.199219 0 15 6 31.601562 7 48.402344 3.203125 4.398437-1 8.398437-2 12.398437-3.203125 3.800781-22.199219 3.601563-43.199219-1-62.199219-24.199219-7-54.800781-10.800781-86.398437-10.800781-31.601563 0-62.199219 3.800781-86.402344 10.800781-4.398438 19-4.796875 39.800782-1 62.199219zm0 0" fill="#231f20"/><path d="m298.242188 497.652344c-9.199219 0-18.199219-1-27-2.800782-1.800782-.398437-3.199219-1.800781-3.800782-3.597656l-16.398437-58.402344c-.402344-1.398437-.203125-2.800781.597656-4 .800781-1.199218 2-2 3.402344-2.199218 5.796875-1 11.199219-2.398438 16.597656-4.601563 16.199219-6.597656 36.800781-6.597656 53.199219 0 5.203125 2 10.800781 3.601563 16.601562 4.402344 1.398438.199219 2.601563 1 3.398438 2.199219.800781 1.199218 1 2.601562.601562 4l-16.398437 58.398437c-.601563 1.800781-2 3.203125-3.800781 3.601563-8.800782 2-17.800782 3-27 3zm-22-12c14.398437 2.800781 29.597656 2.800781 44 0l14-50.199219c-4.601563-1-9-2.402344-13.199219-4-14-5.601563-31.800781-5.601563-45.800781 0-4.199219 1.597656-8.601563 3-13.199219 4zm0 0" fill="#231f20"/></svg>