<svg height="511pt" viewBox="-59 0 511 511.80618" width="511pt" xmlns="http://www.w3.org/2000/svg"><path d="m209.617188 349.605469c7.402343-21.199219 17-33.199219 19.601562-36.398438 8.800781-10.601562 19.398438-19.402343 31.597656-26l-9.398437-2.402343c-7-1.796876-14.199219-3.796876-21-6.199219l-21.601563-10.800781c-5.796875-2.796876-9.398437-8.796876-9.398437-15.199219v-11.800781c-10.398438 6.800781-22.398438 10.800781-35.199219 10.800781-12.199219 0-23.601562-3.597657-33.800781-9.800781v11c0 6.402343-3.601563 12.402343-9.398438 15.203124l-2.601562 1.398438-18 8.800781c-7.601563 2.597657-15.398438 5-23.199219 7l-39.800781 10c-12.601563 3.199219-21.601563 14-22.199219 27l-9.601562 170.800781c-.398438 7.398438 5.601562 13.796876 13 13.796876h280c-9.800782.402343-27.199219-.199219-45.398438-9.398438-33.601562-17-44.601562-50.398438-48-61-12.601562-38-1.199219-70.601562 4.398438-86.800781zm0 0" fill="#515050"/><path d="m238.617188 120.804688v48.601562c0 3.800781-.199219 7.601562-.800782 11.398438 1 .203124 2.203125.203124 3.402344.203124 16.597656 0 30.199219-13.601562 30.199219-30.203124-.199219-17.597657-15.398438-31.398438-32.800781-30zm0 0" fill="#fcb275"/><path d="m89.816406 169.40625v-48.601562c-.796875 0-1.597656-.199219-2.398437-.199219-16.601563 0-30.199219 13.601562-30.199219 30.199219 0 16.601562 13.597656 30.203124 30.199219 30.203124 1.199219 0 2.199219 0 3.398437-.203124-.796875-3.796876-1-7.597657-1-11.398438zm0 0" fill="#fcb275"/><path d="m234.417969 114.605469c-53.800781 11.800781-93.800781-13.800781-108.398438-25.199219-2.601562-2-6.203125-.800781-7.203125 2.199219-4.199218 13-18.597656 18.800781-25 20.800781-1.796875.601562-3.796875 2.199219-4 4.199219v52.800781c0 41 33.402344 82.398438 74.402344 82.398438s74.398438-41.398438 74.398438-82.398438v-51.199219c0-2.199219-2-4-4.199219-3.601562zm0 0" fill="#fcb275"/><path d="m256.019531 67.207031c-7-22.402343-23.800781-40.199219-45.203125-49.601562-93.199218-40.800781-117.796875 29.601562-117.796875 29.601562-27.402343 11.398438-33.203125 51.800781-25.402343 80.398438h.601562c5.199219-4.199219 11.800781-6.800781 19-6.800781.800781 0 1.597656 0 2.398438.203124 0-1.402343 0-2.601562 0-4.203124.199218-2 2.199218-3.597657 4-4.199219 6.402343-2 21-7.800781 25-20.800781 1-3 4.601562-4.199219 7.199218-2.199219 14.601563 11.402343 54.601563 37 108.402344 25.199219 2.199219-.398438 4.199219 1.402343 4.199219 3.601562v2.601562c8.601562-.800781 16.398437 2.199219 22.398437 7.398438 3.203125-25.398438 0-45.601562-4.796875-61.199219zm0 0" fill="#7c292e"/><path d="m236.816406 280.804688c-2.199218-.597657-4.199218-1.199219-6.398437-2l-20-10-39 46.402343c16.398437 10.597657 38.199219 6 49-10.199219zm0 0" fill="#938d8c"/><path d="m93.417969 280.605469 16.398437 24.601562c10.800782 16.199219 32.601563 20.800781 49 10.199219l-39.199218-46.601562-1.398438.601562-18 8.800781c-2.199219.800781-4.402344 1.597657-6.800781 2.398438zm0 0" fill="#938d8c"/><path d="m208.816406 268.007812c-5.796875-2.800781-9.398437-8.800781-9.398437-15.203124v-11.796876c-10.398438 6.796876-22.398438 10.796876-35.199219 10.796876-12.199219 0-23.601562-3.597657-33.800781-9.796876v11c0 6.398438-3.601563 12.398438-9.398438 15.199219l-1.203125.597657 39.203125 46.601562h12.597657l39-46.398438zm0 0" fill="#fcb275"/><g fill="#231f20"><path d="m63.417969 509.007812c-2.800781 0-5-2.203124-5-5v-110.601562c0-2.800781 2.199219-5 5-5s5 2.199219 5 5v110.601562c0 2.796876-2.199219 5-5 5zm0 0"/><path d="m165.617188 493.207031c-2.800782 0-5-2.199219-5-5v-154.800781c0-2.800781 2.199218-5 5-5 2.800781 0 5 2.199219 5 5v154.800781c0 2.800781-2.398438 5-5 5zm0 0"/><path d="m241.019531 186.007812c-1.203125 0-2.402343 0-4-.203124-1.402343-.199219-2.601562-.796876-3.402343-2-.800782-1.199219-1.199219-2.398438-1-3.796876.601562-3.601562.800781-7.203124.800781-10.601562v-48.601562c0-2.597657 2-4.796876 4.601562-5 9.796875-.796876 19.398438 2.601562 26.796875 9.203124 7.203125 6.597657 11.402344 16 11.402344 25.796876 0 19.402343-15.800781 35.203124-35.199219 35.203124zm2.597657-60v43.597657c0 2.199219 0 4.402343-.199219 6.601562 12.800781-1.199219 22.800781-12 22.800781-25 0-7.199219-2.800781-13.601562-8.199219-18.402343-4-4-9-6.398438-14.402343-6.796876zm0 0"/><path d="m87.21875 186.007812c-19.402344 0-35.199219-15.800781-35.199219-35.203124 0-19.398438 16-35 35.199219-35 1 0 2 0 2.800781.203124 2.597657.199219 4.597657 2.398438 4.597657 5v48.597657c0 3.402343.199218 7 .800781 10.601562.199219 1.398438-.199219 2.597657-1 3.800781-.800781 1-2 1.796876-3.398438 2-1.402343 0-2.601562 0-3.800781 0zm-2.402344-60.203124c-12.597656 1.203124-22.597656 12-22.597656 25 0 13.203124 10 24 22.800781 25-.203125-2.199219-.203125-4.398438-.203125-6.597657zm0 0"/><path d="m165.617188 214.207031c-8.800782 0-17.199219-4.402343-22-11.800781-1.597657-2.199219-1-5.398438 1.402343-7 2.199219-1.601562 5.398438-1 7 1.398438 3.199219 4.601562 8.199219 7.402343 13.796875 7.402343 5.601563 0 10.601563-2.800781 13.800782-7.402343 1.601562-2.199219 4.601562-2.796876 7-1.398438 2.199218 1.601562 2.800781 4.601562 1.402343 7-5.203125 7.398438-13.402343 11.800781-22.402343 11.800781zm0 0"/><path d="m202.816406 145.007812c-.796875 0-1.597656-.203124-2.398437-.601562-1.199219-.601562-4.199219-1.398438-7.800781-1.398438-3.597657 0-6.398438.597657-7.800782 1.398438-2.398437 1.199219-5.398437.398438-6.796875-2-1.203125-2.398438-.402343-5.398438 2-6.800781 3-1.597657 7.597657-2.597657 12.398438-2.597657s9.398437 1 12.398437 2.597657c2.402344 1.199219 3.402344 4.402343 2 6.800781-.398437 1.601562-2.199218 2.601562-4 2.601562zm0 0"/><path d="m148.617188 145.007812c-.800782 0-1.597657-.203124-2.398438-.601562-1.199219-.601562-4.199219-1.398438-7.800781-1.398438-3.601563 0-6.398438.597657-7.800781 1.398438-2.398438 1.199219-5.398438.398438-6.800782-2-1.199218-2.398438-.398437-5.398438 2-6.800781 3-1.597657 7.601563-2.597657 12.402344-2.597657s9.398438 1 12.398438 2.597657c2.402343 1.199219 3.402343 4.402343 2 6.800781-.597657 1.601562-2.398438 2.601562-4 2.601562zm0 0"/><path d="m139.21875 164.605469c-3.402344 0-6-2.597657-6-6v-1.199219c0-3.398438 2.597656-6 6-6 3.398438 0 6 2.601562 6 6v1.199219c0 3.199219-2.601562 6-6 6zm0 0"/><path d="m192.21875 165.40625c-3.402344 0-6-2.601562-6-6v-1.199219c0-3.402343 2.597656-6 6-6 3.398438 0 6 2.597657 6 6v1.199219c0 3.199219-2.800781 6-6 6zm0 0"/><path d="m164.21875 256.804688c-45.402344 0-79.402344-46.199219-79.402344-87.398438v-52.800781c0-.199219 0-.199219 0-.398438.402344-4.402343 4.203125-7.402343 7.601563-8.601562 5.398437-1.597657 18.398437-6.800781 21.800781-17.597657 1-3 3.398438-5.402343 6.398438-6.203124 3-1 6.199218-.398438 8.601562 1.601562 14.199219 11 52.597656 35.601562 104.199219 24.199219 2.398437-.597657 5 .199219 7 1.800781s3.199219 4.199219 3.199219 6.800781v51.199219c0 41.398438-34 87.398438-79.398438 87.398438zm-69.402344-139.199219v51.800781c0 44.398438 36.601563 77.398438 69.402344 77.398438s69.398438-33 69.398438-77.398438v-49.398438c-54.199219 11.199219-94.597657-14-110.199219-26-5 14.796876-21.398438 21.398438-28.199219 23.398438-.199219 0-.199219 0-.402344.199219zm139.601563-3"/><path d="m261.019531 133.40625c-1.203125 0-2.402343-.398438-3.402343-1.199219-5.199219-4.601562-11.800782-6.800781-18.597657-6.199219-1.402343.199219-2.800781-.402343-3.800781-1.402343s-1.601562-2.199219-1.601562-3.597657v-1c-54.199219 11.199219-94.597657-14-110.199219-26-5 14.796876-21.398438 21.398438-28.199219 23.398438-.199219 0-.402344.199219-.601562.199219v3.199219c0 1.402343-.597657 2.800781-1.597657 3.601562s-2.402343 1.398438-3.800781 1.398438c-.601562 0-1.402344 0-2 0-5.800781 0-11.402344 2-15.800781 5.601562-1 .800781-2 1.199219-3.199219 1.199219h-.601562c-2.199219 0-4.199219-1.597657-4.800782-3.597657-4.398437-15.800781-4.398437-33.800781-.398437-49.203124 4.601562-17.597657 13.800781-30 26.800781-36.199219 2.800781-6.597657 13.199219-26.800781 37.199219-37.398438 23.398437-10.199219 52.601562-7.800781 86.199219 7 23.199218 10.199219 40.601562 29.398438 48 52.800781 6 19.199219 7.800781 40.597657 5.199218 63.199219-.199218 1.800781-1.398437 3.398438-3.199218 4-.398438 0-1 .199219-1.597657.199219zm-103.203125-123.601562c-10 0-19.199218 1.800781-27.398437 5.402343-24.398438 10.597657-32.601563 33.398438-32.601563 33.597657-.398437 1.402343-1.398437 2.402343-2.796875 3-17.402343 7.203124-30.601562 34.800781-24 68 4.199219-2.199219 9-3.597657 13.796875-4 .601563-4.199219 4.203125-7 7.402344-8 5.398438-1.597657 18.398438-6.796876 21.800781-17.597657 1-3 3.398438-5.402343 6.398438-6.199219 3-1 6.199219-.402343 8.601562 1.597657 14.199219 11 52.597657 35.601562 104.199219 24.199219h.199219c2.398437-.398438 4.800781.203124 6.800781 1.800781 1.398438 1.199219 2.398438 2.601562 3 4.402343 4.800781.199219 9.398438 1.597657 13.597656 3.597657 1.203125-18.199219-.597656-35.199219-5.597656-50.800781-6.601562-20.597657-22-37.597657-42.601562-46.597657-18.597657-8.199219-35.597657-12.402343-50.800782-12.402343zm0 0"/><path d="m190.617188 326.007812c-7.597657 0-15.199219-2-21.800782-6.402343-1.199218-.800781-2-2-2.199218-3.398438-.199219-1.402343.199218-2.800781 1.199218-4l39-46.402343c1.402344-1.796876 4-2.199219 6-1.199219l19.800782 9.800781c1.402343.398438 2.800781 1 4.199218 1.398438l1.601563.402343c1.601562.398438 2.601562 1.597657 3.199219 3.199219.601562 1.398438.402343 3.199219-.597657 4.398438l-16.203125 24.402343c-8 11.398438-21 17.800781-34.199218 17.800781zm-11.199219-12.203124c13.199219 5.203124 28.800781.800781 37-11.398438l12.601562-18.800781c-.203125 0-.402343-.199219-.601562-.199219l-16.398438-8.199219zm0 0"/><path d="m139.617188 326.007812c-13.199219 0-26.199219-6.402343-34-18l-16.398438-24.601562c-.800781-1.398438-1-3-.601562-4.398438.402343-1.402343 1.601562-2.601562 3.199218-3.203124 2.203125-.796876 4.402344-1.398438 6.402344-2.199219l19.199219-9.398438c2-1 4.601562-.402343 6 1.199219l39.199219 46.601562c1 1.199219 1.402343 2.597657 1.199218 4-.199218 1.398438-1 2.597657-2.199218 3.398438-6.800782 4.601562-14.398438 6.601562-22 6.601562zm-38.398438-42.800781 12.800781 19.199219c8.199219 12.199219 23.796875 16.800781 37 11.398438l-32.601562-38.796876-15.800781 7.796876c-.199219 0-.398438.203124-.597657.203124-.203125 0-.601562.199219-.800781.199219zm0 0"/><path d="m120.816406 320.605469c-1 0-1.796875-.199219-2.597656-.800781-5-3.199219-9.199219-7.199219-12.402344-12l-4.199218-6.398438c-.800782-1.199219-1-2.601562-.800782-3.800781.203125-1.199219 1-2.398438 2.203125-3.199219l25.796875-16.199219c2.203125-1.402343 4.800782-.800781 6.402344 1l13 15.398438c.800781 1 1.199219 2.402343 1.199219 3.800781-.199219 1.398438-.800781 2.601562-2 3.398438l-23.601563 17.601562c-1 1-2 1.199219-3 1.199219zm-8.199218-20.398438 1.402343 2.199219c1.796875 2.800781 4 5.199219 6.597657 7.199219l16.402343-12.398438-6.800781-8zm0 0"/><path d="m210.019531 320.40625c-1 0-2.203125-.398438-3-1l-23.601562-17.800781c-1-.800781-1.800781-2-2-3.398438-.199219-1.402343.199219-2.800781 1.199219-3.800781l13-15.398438c1.601562-2 4.402343-2.402343 6.402343-1l25.796875 16.199219c1.203125.800781 2 1.800781 2.203125 3.199219.199219 1.398438 0 2.800781-.800781 3.800781l-4.601562 6.800781c-3.199219 4.796876-7.199219 8.597657-12 11.796876-.800782.402343-1.597657.601562-2.597657.601562zm-16.402343-23.601562 16.601562 12.402343c2.398438-2 4.597656-4.199219 6.199219-6.800781l1.601562-2.398438-17.800781-11zm0 0"/><path d="m171.417969 320.40625h-12.601563c-1.398437 0-2.796875-.601562-3.796875-1.800781l-39.203125-46.597657c-1-1.203124-1.398437-2.800781-1-4.203124.402344-1.597657 1.402344-2.796876 2.601563-3.398438l1.199219-.601562c4-2 6.601562-6.199219 6.601562-10.597657v-11c0-1.800781 1-3.402343 2.597656-4.402343 1.601563-.796876 3.601563-.796876 5 0 10 6 20.402344 9.203124 31.203125 9.203124 11.199219 0 22.398438-3.402343 32.398438-10 1.601562-1 3.398437-1 5-.203124 1.601562.800781 2.601562 2.601562 2.601562 4.402343v11.800781c0 4.597657 2.597657 8.597657 6.597657 10.597657l1.601562.800781c1.398438.601562 2.398438 2 2.597656 3.398438.203125 1.402343 0 3-1 4.203124l-39 46.398438c-.398437 1.398438-1.796875 2-3.398437 2zm-10.199219-10h8l33.597656-40.199219c-5.398437-4-8.398437-10.402343-8.398437-17.402343v-3.199219c-9.601563 4.800781-20 7.199219-30.199219 7.199219-9.800781 0-19.601562-2.199219-28.800781-6.597657v2.597657c0 6.800781-3 13-8.199219 17zm0 0"/><path d="m300.617188 501.804688s-6.199219 0-6.800782 0c-45.796875 0-85.796875-49.796876-85.796875-106.597657 0-48.199219 24.597657-89 58.199219-102.199219.597656-.203124 1.800781-.601562 1.800781-.601562 2-1.199219 3.199219-3.601562 2.597657-6.199219-.398438-2.199219-2.199219-3.800781-4.199219-4.402343l-1-.199219-11.398438-1.398438c-7.601562-2-15.203125-4.199219-22.601562-6.800781l-20.398438-10c-4-2-6.601562-6.199219-6.601562-10.601562v-8.597657c0-.199219 1.199219-3.601562-1-5.800781-.199219-.199219-1.398438-1.601562-3.398438-1.800781 0 0-1 0-4.800781 1.199219-3.199219 2-7.601562 4.203124-12.800781 6-6.199219 2-11.601563 2.800781-15.800781 3h-4.597657c-4.601562-.398438-10.402343-1.199219-17-3.597657-4-1.402343-7.203125-3-10-4.601562-.402343-.398438-1-.597657-1.402343-1-2.199219-1.398438-5-1.199219-6.800782.601562-1.398437 1.398438-2 3.597657-1.199218 5.597657v9c0 4.601562-2.597657 8.601562-6.597657 10.601562l-21.601562 10.398438c-6.601563 2.203124-13.601563 4.203124-20.398438 6l-41 10.402343c-14.800781 3.597657-25.203125 16.398438-26 31.597657l-9.601562 171c-.199219 5 1.601562 9.800781 5 13.402343 3.398437 3.597657 8.199219 5.597657 13 5.597657h282c0-3.398438.199219-6.597657.199219-10zm-51 0h-231c-2.199219 0-4.398438-.796876-5.800782-2.597657-1.597656-1.601562-2.398437-3.800781-2.199218-6l9.601562-171c.597656-10.800781 8-19.800781 18.597656-22.402343l41-10.199219c7.203125-1.800781 14.402344-4 21.402344-6.398438.199219 0 .398438-.199219.597656-.199219l21.800782-10.800781c7-3.601562 11.199218-14 11.800781-21.800781 8 5.199219 16.398437 6.601562 26.199219 6.601562h4.601562c9.800781 0 20.199219-2 28.199219-7.203124.601562 7.800781 5.800781 19 12.800781 22.402343l20.800781 10.199219c.199219 0 .398438.199219.597657.199219 6.800781 2.402343 13.601562 4.601562 20.601562 6.402343-7 5-16 12.398438-24.601562 22.796876-10.398438 12.800781-16.398438 25.203124-19.800782 34-7.199218 20.402343-8.398437 37.800781-8.398437 49 .199219 12.601562 1 51.402343 29.398437 83.601562 10.402344 11.800781 21.203125 19.199219 28.601563 23.398438-1.398438 0-3.199219 0-4.800781 0zm0 0"/></g><path d="m298.617188 506.804688h12.601562c2.199219 0 4.398438-.597657 6.199219-1.597657-6.398438 1-12.601563 1.597657-18.800781 1.597657zm0 0" fill="#515050"/><path d="m382.617188 349.605469c-9.597657-30.800781-32.597657-56-62.597657-67.597657-8.203125-3.203124-17.203125-5.402343-26.203125-5.402343s-18 2.199219-26.199218 5.402343c-30.199219 11.597657-53.199219 36.796876-62.597657 67.597657-19.203125 62 13 125 13 125 7.597657 10.402343 19 17.601562 30.597657 22.601562 29 12.597657 62 12.597657 91 0 11.601562-5 23-12.402343 30.601562-22.601562-.601562.199219 31.597656-62.800781 12.398438-125zm0 0" fill="#e04e36"/><path d="m375.617188 457.804688c-8.199219 11.203124-20.398438 19-33 24.402343-31.199219 13.597657-67 13.597657-98.199219 0-12.601563-5.402343-24.800781-13.199219-33-24.402343 0 0-1.601563-3.199219-4-8.796876 4.800781 15.796876 10 25.597657 10 25.597657 7.601562 10.402343 19 17.601562 30.601562 22.601562 29 12.597657 62 12.597657 91 0 11.597657-5 23-12.402343 30.597657-22.601562 0 0 5-10 10-25.597657-2.398438 5.597657-4 8.796876-4 8.796876zm0 0" fill="#515050"/><path d="m316.617188 284.207031v-3.199219c-7.398438-2.601562-15.199219-4.203124-23-4.203124-7.800782 0-15.597657 1.601562-23 4.203124v3.199219c0 5.199219 4.402343 9.597657 9.601562 9.597657h26.800781c5.398438 0 9.597657-4.398438 9.597657-9.597657zm0 0" fill="#e8e6e6"/><path d="m384.21875 355.605469c-24.199219-7.398438-55.800781-11.800781-90.601562-11.800781-34.800782 0-66.398438 4.402343-90.597657 11.800781-6.402343 25-5 49.601562-1.203125 70.199219 5.402344 1.601562 11.203125 3.203124 17.203125 4.601562 16.597657 3.601562 34 2.398438 49.796875-3.800781 7.402344-3 15.800782-4.597657 24.800782-4.597657s17.402343 1.597657 24.800781 4.597657c16.199219 6.601562 34.199219 7.402343 51.398437 3.402343 5.601563-1.203124 10.800782-2.601562 15.800782-4.203124 3.601562-20.597657 5.199218-45.398438-1.398438-70.199219zm0 0" fill="#30a9e5"/><path d="m319.617188 489.605469 16.402343-58.398438c-6-1-12-2.601562-17.601562-4.800781-7.398438-3-15.800781-4.601562-24.800781-4.601562s-17.398438 1.601562-24.800782 4.601562c-5.597656 2.199219-11.597656 3.800781-17.597656 4.800781l16.398438 58.398438c17.199218 3.800781 35 3.800781 52 0zm0 0" fill="#e8e6e6"/><path d="m293.617188 511.804688c-16.199219 0-32.398438-3.199219-47.398438-9.796876-14.402344-6.203124-25.402344-14.402343-32.601562-24.203124-.199219-.199219-.199219-.398438-.398438-.597657-1.402344-2.601562-32.800781-65.601562-13.199219-128.800781 10-32.398438 34.597657-58.800781 65.597657-70.800781 9.800781-3.800781 19.402343-5.800781 28-5.800781 8.601562 0 18.199218 2 28 5.800781 31 12 55.601562 38.402343 65.601562 70.800781 19.597656 63.199219-12 126.199219-13.199219 128.800781-.203125.199219-.203125.398438-.402343.597657-7.199219 9.800781-18.199219 18-32.597657 24.203124-15 6.597657-31.203125 9.796876-47.402343 9.796876zm-71.597657-39.597657c6.199219 8.199219 15.597657 15.199219 28.199219 20.597657 27.597656 12 59.398438 12 87 0 12.597656-5.398438 22.199219-12.398438 28.199219-20.597657 2.398437-5 30-64 12.398437-121-9.199218-29.402343-31.398437-53.402343-59.597656-64.402343-8.800781-3.398438-17-5-24.402344-5-7.398437 0-15.796875 1.800781-24.398437 5-28.199219 10.800781-50.601563 35-59.601563 64.402343-18 57 9.601563 115.800781 12.203125 121zm0 0" fill="#231f20"/><path d="m293.617188 511.804688c-16.199219 0-32.398438-3.199219-47.398438-9.796876-14.402344-6.203124-25.402344-14.402343-32.601562-24.203124-.199219-.199219-.398438-.398438-.398438-.597657-.199219-.402343-5.199219-10.402343-10.199219-26.402343-.800781-2.597657.597657-5.199219 3-6.199219 2.597657-1 5.199219.402343 6.398438 2.800781 1.800781 4.199219 3.199219 7.199219 3.601562 8 6.597657 9 17 16.398438 30.597657 22.398438 30 13 64.199218 13 94.199218 0 13.601563-6 24-13.597657 30.601563-22.398438.398437-1 1.800781-3.800781 3.601562-8 1-2.398438 3.796875-3.800781 6.398438-2.800781 2.601562 1 3.800781 3.601562 3 6.199219-5 16-10 26-10.199219 26.402343-.199219.199219-.199219.398438-.402344.597657-7.199218 9.800781-18.199218 18-32.597656 24.203124-15.199219 6.597657-31.402344 9.796876-47.601562 9.796876zm-64.398438-31.796876c5.597656 5 12.597656 9.199219 21 12.796876 27.597656 12 59.398438 12 87 0 8.398438-3.597657 15.398438-8 21-12.796876-4.199219 2.398438-8.601562 4.796876-13.402344 7-32.398437 14.199219-69.597656 14.199219-102.199218 0-4.800782-2.203124-9.398438-4.601562-13.398438-7zm0 0" fill="#231f20"/><path d="m307.019531 298.804688h-26.800781c-8 0-14.601562-6.597657-14.601562-14.597657v-3.199219c0-2.203124 1.402343-4 3.402343-4.800781 8.597657-3 17-4.402343 24.597657-4.402343 7.601562 0 16 1.601562 24.601562 4.402343 2 .597657 3.398438 2.597657 3.398438 4.800781v3.199219c0 8-6.398438 14.597657-14.597657 14.597657zm-31.402343-14.199219c.199218 2.402343 2.199218 4.199219 4.601562 4.199219h26.800781c2.398438 0 4.398438-1.796876 4.597657-4.199219-6.398438-1.800781-12.398438-2.800781-18-2.800781-5.597657 0-11.597657 1-18 2.800781zm0 0" fill="#231f20"/><path d="m238.019531 437.207031c-6.601562 0-13.402343-.800781-20-2.199219-6.203125-1.402343-12.203125-3-17.601562-4.601562-1.800781-.601562-3-2-3.398438-3.800781-4.800781-25.800781-4.402343-50.199219 1.199219-72.398438.398438-1.601562 1.800781-3 3.398438-3.601562 25.402343-7.800781 58.199218-12 92-12 33.800781 0 66.601562 4.199219 92 12 1.601562.601562 3 1.800781 3.402343 3.601562 5.796875 22 6.199219 46.398438 1.199219 72.398438-.402344 1.800781-1.601562 3.199219-3.402344 3.800781-5 1.601562-10.398437 3-16 4.398438-18.796875 4.203124-37.597656 3-54.398437-3.796876-14-5.601562-31.800781-5.601562-45.800781 0-10.199219 4.199219-21.199219 6.199219-32.597657 6.199219zm-31.800781-15.402343c4.398438 1.402343 9.199219 2.601562 14 3.601562 16 3.601562 32.199219 2.398438 46.800781-3.601562 16.199219-6.597657 36.796875-6.597657 53.199219 0 15 6 31.597656 7 48.398438 3.203124 4.402343-1 8.402343-2 12.402343-3.203124 3.796875-22.199219 3.597657-43.199219-1-62.199219-24.203125-7-54.800781-10.800781-86.402343-10.800781-31.800782 0-62.199219 3.800781-86.398438 10.800781-4.402344 19-4.800781 39.800781-1 62.199219zm0 0" fill="#231f20"/><path d="m293.617188 497.40625c-9.199219 0-18.199219-1-27-2.800781-1.800782-.398438-3.199219-1.800781-3.800782-3.597657l-16.398437-58.402343c-.398438-1.398438-.199219-2.800781.601562-4 .796875-1.199219 2-2 3.398438-2.199219 5.800781-1 11.199219-2.398438 16.601562-4.601562 16.199219-6.597657 36.796875-6.597657 53.199219 0 5.199219 2 10.800781 3.601562 16.597656 4.402343 1.402344.199219 2.601563 1 3.402344 2.199219s1 2.601562.597656 4l-16.398437 58.398438c-.601563 1.800781-2 3.203124-3.800781 3.601562-8.800782 2-17.800782 3-27 3zm-22-12c14.402343 2.800781 29.601562 2.800781 44 0l14-50.199219c-4.597657-1-9-2.402343-13.199219-4-14-5.601562-31.800781-5.601562-45.800781 0-4.199219 1.597657-8.597657 3-13.199219 4zm0 0" fill="#231f20"/></svg>