<svg height="512pt" viewBox="-94 0 512 512" width="512pt" xmlns="http://www.w3.org/2000/svg"><path d="m318.972656 493.449219c-2.972656-53.375-6.425781-115.378907-9.375-168.328125-.132812-2.394532-.558594-4.71875-1.242187-6.933594l-130.527344 20.695312c4.246094 5.375 8.625 12.910157 12.296875 21.671876 7.988281 19.070312 9.582031 36.578124 3.558594 39.097656-6.023438 2.523437-17.382813-10.890625-25.371094-29.964844-3.375-8.058594-5.59375-15.824219-6.59375-22.3125-.078125 0-.15625.011719-.234375.011719s-.15625-.011719-.234375-.011719c-1 6.488281-3.214844 14.253906-6.59375 22.3125-7.988281 19.074219-19.34375 32.488281-25.367188 29.964844-6.023437-2.519532-4.433593-20.027344 3.558594-39.097656 3.667969-8.761719 8.046875-16.296876 12.296875-21.671876l-129.550781-20.535156c-.652344 2.167969-1.0625 4.4375-1.195312 6.773438-2.027344 36.429687-7.605469 136.574218-9.375 168.328125-.410157 7.359375 5.445312 13.546875 12.8125 13.546875h288.324218c7.367188.003906 13.222656-6.1875 12.8125-13.546875zm0 0" fill="#e8e6e6"/><path d="m145.71875 331.621094c0-6.578125 4.03125-12.210938 9.761719-14.574219l-39.472657-43.980469-17.632812 8.695313c-17.722656 6.273437-27.746094 7.894531-62.035156 16.765625-10.074219 2.535156-17.84375 10.183594-20.75 19.816406l132.128906 20.945312c-1.269531-2.269531-2-4.882812-2-7.667968zm0 0" fill="#1b87c9"/><path d="m177.246094 331.621094c0 2.785156-.730469 5.398437-1.996094 7.671875l133.109375-21.101563c-2.941406-9.5625-10.683594-17.140625-20.707031-19.664062-35.25-9.066406-44.652344-10.699219-61.003906-16.257813l-17.816407-8.789062c-.195312-.15625-.765625-.394531-1.558593-.761719l-39.785157 44.328125c5.726563 2.363281 9.757813 7.996094 9.757813 14.574219zm0 0" fill="#1b87c9"/><path d="m177.246094 331.621094c0 8.707031-7.054688 15.765625-15.761719 15.765625s-15.765625-7.058594-15.765625-15.765625c0-8.707032 7.058594-15.761719 15.765625-15.761719s15.761719 7.054687 15.761719 15.761719zm0 0" fill="#fc5d4c"/><path d="m98.375 281.761719c-.933594.328125-1.839844.640625-2.734375.949219l53.214844 39.53125c1.695312-2.273438 3.964843-4.097657 6.621093-5.195313l-39.472656-43.980469zm0 0" fill="#e8e6e6"/><path d="m226.511719 282.199219-17.679688-8.71875c-.195312-.15625-.765625-.394531-1.558593-.761719l-39.785157 44.328125c2.613281 1.078125 4.84375 2.859375 6.527344 5.078125l52.496094-39.765625zm0 0" fill="#e8e6e6"/><path d="m195.960938 256.78125v-6.800781l-.75.730469c-8.261719 8.042968-19.335938 12.546874-30.867188 12.546874.136719 0-4.238281 0-4.464844 0-11.53125 0-22.609375-4.503906-30.867187-12.546874l-.976563-.953126v7.023438c0 12.234375-11.351562 15.757812-11.929687 16.234375l-.097657.050781 39.472657 43.980469c1.851562-.761719 3.875-1.191406 6.003906-1.191406s4.15625.429687 6.007813 1.191406l39.78125-44.328125c-3.480469-1.609375-11.3125-5.65625-11.3125-15.9375zm0 0" fill="#fcb275"/><path d="m190.125 360.554688c-4.117188-9.828126-9.125-18.128907-13.839844-23.546876-2.179687 5.976563-7.859375 10.269532-14.566406 10.367188 1 6.488281 3.214844 14.253906 6.59375 22.3125 7.988281 19.074219 19.34375 32.488281 25.367188 29.964844 6.027343-2.519532 4.433593-20.027344-3.554688-39.097656zm0 0" fill="#e04e36"/><path d="m146.683594 337.007812c-4.714844 5.417969-9.722656 13.71875-13.839844 23.546876-7.988281 19.070312-9.582031 36.578124-3.558594 39.097656 6.023438 2.523437 17.378906-10.890625 25.367188-29.964844 3.378906-8.058594 5.597656-15.824219 6.59375-22.3125-6.707032-.097656-12.386719-4.390625-14.5625-10.367188zm0 0" fill="#e04e36"/><path d="m258.730469 66.042969h-193.464844c-5.878906 0-10.09375 5.675781-8.386719 11.304687l11.0625 36.515625c1.152344 3.804688 4.660156 6.40625 8.636719 6.40625h170.960937c3.984376 0 7.496094-2.613281 8.640626-6.429687l10.941406-36.519532c1.6875-5.621093-2.523438-11.277343-8.390625-11.277343zm0 0" fill="#1b87c9"/><path d="m243.515625 66.042969c-10.300781-35.265625-42.851563-61.042969-81.445313-61.042969-38.597656 0-71.148437 25.777344-81.449218 61.042969zm0 0" fill="#e8e6e6"/><path d="m256.035156 114.214844c-1.261718 3.605468-4.648437 6.054687-8.496094 6.054687h-29.507812c5.304688 3.386719 10.425781 5.160157 14.472656 6.054688l.425782 4.851562c.042968 0 .082031-.003906.125-.003906 12.992187 0 23.523437 10.527344 23.523437 23.519531 0 11.628906-8.449219 21.265625-19.539063 23.160156l.804688 9.183594c1.199219 12.847656-3.476562 25.542969-12.71875 34.542969l-2.054688 2h.503907 19.675781c4.476562 0 7.964844-4.09375 7.015625-8.46875-1.144531-5.296875-.433594-13.65625 5.816406-26.613281 17.796875-36.863282 12.050781-51.320313-.046875-74.28125zm0 0" fill="#7c292e"/><path d="m86.382812 187.039062.789063-9.003906c-11.671875-1.382812-20.730469-11.296875-20.730469-23.339844 0-12.992187 10.53125-23.523437 23.523438-23.523437.445312 0 .882812.042969 1.324218.066406l.207032-2.359375c3.894531-3.804687 9.574218-7.070312 16.992187-8.609375h-31.910156c-3.894531 0-7.324219-2.503906-8.546875-6.183593-12.148438 23.035156-17.949219 37.476562-.113281 74.414062 6.253906 12.953125 6.964843 21.316406 5.816406 26.613281-.945313 4.375 2.539063 8.46875 7.015625 8.46875h19.890625.519531l-2.058594-2.003906c-9.242187-9-13.917968-21.695313-12.71875-34.539063zm0 0" fill="#7c292e"/><path d="m232.503906 126.328125c-4.046875-.894531-9.171875-2.671875-14.472656-6.058594h-109.546875c-7.414063 1.539063-13.097656 4.804688-16.992187 8.609375l-5.113282 58.160156c-1.199218 12.84375 3.476563 25.539063 12.71875 34.539063l29.910156 29.132813c8.261719 8.042968 19.335938 12.546874 30.867188 12.546874.230469 0 4.605469 0 4.464844 0 11.53125 0 22.609375-4.503906 30.867187-12.546874l29.910157-29.132813c9.242187-9 13.917968-21.695313 12.71875-34.539063zm0 0" fill="#fcb275"/><path d="m91.289062 131.238281c-.445312-.023437-.878906-.066406-1.328124-.066406-12.988282 0-23.523438 10.527344-23.523438 23.519531 0 12.046875 9.058594 21.960938 20.734375 23.34375zm0 0" fill="#fcb275"/><path d="m233.054688 131.171875c-.042969 0-.082032.007813-.125.007813l4.105468 46.675781c11.089844-1.894531 19.542969-11.53125 19.542969-23.160157-.003906-12.992187-10.535156-23.523437-23.523437-23.523437zm0 0" fill="#fcb275"/><g fill="#231f20"><path d="m306.160156 512h-288.324218c-4.878907 0-9.605469-2.035156-12.957032-5.578125-3.355468-3.546875-5.125-8.375-4.8515622-13.246094l9.3750002-168.332031c.152344-2.6875.621094-5.355469 1.402344-7.941406.722656-2.394532 3.089843-3.894532 5.570312-3.496094l129.546875 20.539062c1.753906.277344 3.230469 1.464844 3.875 3.121094.644531 1.652344.367187 3.527344-.734375 4.917969-4.140625 5.238281-8.261719 12.519531-11.605469 20.5-7.523437 17.957031-7.496093 29.632813-6.164062 32.378906 2.890625-.980469 11.226562-9.152343 18.75-27.105469 3.066406-7.320312 5.292969-14.832031 6.265625-21.144531.375-2.4375 2.472656-4.238281 4.941406-4.238281.054688 0 .136719.003906.222656.007812 2.550782-.117187 4.796875 1.710938 5.1875 4.230469.972656 6.3125 3.195313 13.820313 6.265625 21.144531 7.523438 17.957032 15.863281 26.125 18.75 27.105469 1.332031-2.746093 1.359375-14.421875-6.164062-32.378906-3.339844-7.976563-7.460938-15.257813-11.605469-20.5-1.101562-1.390625-1.378906-3.265625-.734375-4.917969.644531-1.65625 2.121094-2.84375 3.875-3.121094l130.53125-20.695312c2.464844-.394531 4.828125 1.089844 5.5625 3.464844.808594 2.636718 1.296875 5.375 1.453125 8.128906l9.375 168.328125c.273438 4.871094-1.496094 9.703125-4.847656 13.246094-3.359375 3.546875-8.082032 5.582031-12.960938 5.582031zm-286.65625-187.96875c-.050781.453125-.089844.914062-.117187 1.371094l-9.375 168.328125c-.121094 2.171875.636719 4.238281 2.128906 5.820312 1.496094 1.578125 3.515625 2.453125 5.691406 2.453125h288.324219c2.175781 0 4.199219-.875 5.691406-2.453125 1.496094-1.582031 2.253906-3.648437 2.132813-5.824219l-9.378907-168.328124c-.027343-.511719-.070312-1.023438-.132812-1.53125l-117.972656 18.703124c2.988281 4.773438 5.8125 10.265626 8.238281 16.050782 8.160156 19.484375 11.597656 41.15625.878906 45.644531-3.605469 1.511719-9.597656 1.304687-17.699219-8.265625-5.113281-6.039062-10.160156-14.699219-14.214843-24.378906-.796875-1.902344-1.539063-3.796875-2.21875-5.679688-.683594 1.878906-1.421875 3.777344-2.21875 5.679688-4.054688 9.683594-9.105469 18.339844-14.214844 24.378906-8.097656 9.566406-14.09375 9.777344-17.699219 8.265625-10.714844-4.488281-7.28125-26.160156.878906-45.644531 2.425782-5.789063 5.253907-11.28125 8.238282-16.050782zm0 0"/><path d="m147.71875 344.292969c-.261719 0-.523438-.019531-.785156-.0625l-132.125-20.945313c-1.425782-.226562-2.683594-1.058594-3.453125-2.28125-.765625-1.222656-.964844-2.71875-.550781-4.101562 3.4375-11.414063 12.757812-20.3125 24.316406-23.222656 10.707031-2.769532 19.203125-4.871094 26.027344-6.558594 15.101562-3.738282 23.476562-5.808594 35.28125-9.976563l17.367187-8.558593c2.011719-.992188 4.4375-.527344 5.933594 1.140624l39.46875 43.984376c1.085937 1.207031 1.515625 2.867187 1.152343 4.449218-.359374 1.582032-1.464843 2.894532-2.964843 3.515625-4.050781 1.667969-6.667969 5.570313-6.667969 9.949219 0 1.851562.457031 3.613281 1.363281 5.230469.933594 1.671875.832031 3.730469-.265625 5.296875-.941406 1.355468-2.480468 2.140625-4.097656 2.140625zm-124.964844-29.875 118.019532 18.710937c-.035157-.503906-.054688-1.003906-.054688-1.507812 0-6.125 2.65625-11.765625 7.089844-15.632813l-32.992188-36.761719-14.230468 7.015626c-.175782.089843-.359376.164062-.542969.230468-12.414063 4.394532-20.964844 6.511719-36.492188 10.351563-6.804687 1.6875-15.269531 3.78125-25.960937 6.542969-6.265625 1.582031-11.589844 5.625-14.835938 11.050781zm0 0"/><path d="m175.25 344.292969c-1.617188 0-3.15625-.785157-4.097656-2.140625-1.097656-1.566406-1.199219-3.625-.265625-5.296875.902343-1.617188 1.359375-3.378907 1.359375-5.230469 0-4.378906-2.613282-8.28125-6.664063-9.949219-1.5-.621093-2.605469-1.929687-2.964843-3.515625-.363282-1.582031.066406-3.238281 1.152343-4.449218l39.785157-44.332032c1.460937-1.636718 3.820312-2.121094 5.816406-1.199218l.4375.199218c.585937.265625 1.0625.484375 1.507812.753906l17.253906 8.507813c10.78125 3.65625 18.398438 5.542969 33.429688 9.273437 7.050781 1.746094 15.664062 3.882813 26.902344 6.777344 11.460937 2.878906 20.757812 11.707032 24.238281 23.03125.425781 1.386719.230469 2.886719-.539063 4.117188-.765624 1.226562-2.027343 2.0625-3.457031 2.292968l-133.109375 21.101563c-.261718.039063-.523437.058594-.785156.058594zm-.089844-28.304688c4.433594 3.867188 7.085938 9.511719 7.085938 15.632813 0 .503906-.015625 1.003906-.054688 1.507812l118.964844-18.859375c-3.257812-5.347656-8.539062-9.335937-14.722656-10.890625-11.226563-2.890625-19.8125-5.019531-26.839844-6.761718-14.960938-3.710938-23.207031-5.753907-34.554688-9.617188-.207031-.070312-.402343-.152344-.601562-.25l-15.972656-7.875zm0 0"/><path d="m161.484375 352.386719c-11.449219 0-20.765625-9.316407-20.765625-20.765625 0-11.449219 9.316406-20.765625 20.765625-20.765625s20.761719 9.316406 20.761719 20.765625c0 11.449218-9.3125 20.765625-20.761719 20.765625zm0-31.527344c-5.9375 0-10.765625 4.828125-10.765625 10.761719 0 5.9375 4.828125 10.765625 10.765625 10.765625 5.933594 0 10.761719-4.828125 10.761719-10.765625 0-5.933594-4.828125-10.761719-10.761719-10.761719zm0 0"/><path d="m148.855469 327.242188c-1.035157 0-2.082031-.320313-2.976563-.984376l-53.21875-39.535156c-1.488281-1.105468-2.242187-2.945312-1.957031-4.78125.285156-1.832031 1.5625-3.359375 3.316406-3.960937.792969-.269531 1.59375-.546875 2.410157-.835938l17.371093-8.5625c2.007813-.992187 4.433594-.523437 5.929688 1.144531l39.472656 43.980469c1.082031 1.207031 1.511719 2.871094 1.152344 4.453125-.363281 1.582032-1.46875 2.890625-2.96875 3.511719-1.761719.722656-3.324219 1.957031-4.515625 3.558594-.984375 1.316406-2.492188 2.011719-4.015625 2.011719zm-43.34375-43.429688 40.265625 29.910156-30.957032-34.496094zm0 0"/><path d="m174.019531 327.125c-1.507812 0-3-.679688-3.980469-1.972656-1.191406-1.566406-2.730468-2.769532-4.457031-3.480469-1.5-.621094-2.605469-1.929687-2.964843-3.511719-.363282-1.585937.066406-3.242187 1.152343-4.453125l39.785157-44.332031c1.460937-1.632812 3.820312-2.121094 5.816406-1.199219l.4375.199219c.585937.269531 1.0625.488281 1.507812.753906l17.40625 8.585938c1.707032.839844 2.789063 2.578125 2.789063 4.484375v.160156c0 1.5625-.730469 3.039063-1.976563 3.984375l-52.496094 39.769531c-.90625.683594-1.96875 1.011719-3.019531 1.011719zm34.445313-48.25-30.503906 33.992188 39.203124-29.703126zm0 0"/><path d="m167.488281 322.046875c-.640625 0-1.289062-.121094-1.90625-.375-2.613281-1.078125-5.578125-1.082031-8.195312 0-1.957031.804687-4.214844.292969-5.628907-1.285156l-39.46875-43.980469c-1.046874-1.167969-1.488281-2.757812-1.1875-4.292969.289063-1.480469 1.226563-2.746093 2.550782-3.457031.324218-.1875.652344-.335938 1.003906-.496094 3.597656-1.632812 8.378906-4.589844 8.378906-11.375v-7.027344c0-2.011718 1.203125-3.824218 3.050782-4.605468 1.855468-.785156 3.992187-.378906 5.433593 1.023437l.976563.949219c7.371094 7.179688 17.09375 11.132812 27.382812 11.132812h4.46875c10.28125 0 20.003906-3.957031 27.375-11.128906l.753906-.734375c1.441407-1.398437 3.578126-1.796875 5.429688-1.019531 1.851562.785156 3.054688 2.597656 3.054688 4.605469v6.804687c0 6.652344 4.496093 9.585938 8.410156 11.398438 1.441406.664062 2.476562 1.972656 2.796875 3.527344.320312 1.554687-.117188 3.167968-1.175781 4.347656l-39.785157 44.332031c-.964843 1.074219-2.328125 1.65625-3.71875 1.65625zm-6.003906-11.1875c1.496094 0 2.972656.15625 4.417969.472656l33.597656-37.441406c-5.429688-4.121094-7.597656-9.140625-8.277344-13.601563-7.929687 5.179688-17.207031 7.964844-26.878906 7.964844h-4.464844c-9.753906 0-19.105468-2.832031-27.082031-8.105468-.679687 4.691406-2.96875 9.996093-8.90625 14.214843l33.175781 36.964844c1.445313-.3125 2.921875-.46875 4.417969-.46875zm0 0"/><path d="m261.90625 509.238281c-2.761719 0-5-2.234375-5-5v-109.023437c0-2.761719 2.238281-5 5-5s5 2.238281 5 5v109.023437c0 2.765625-2.238281 5-5 5zm0 0"/><path d="m62.089844 509.238281c-2.761719 0-5-2.234375-5-5v-109.023437c0-2.761719 2.238281-5 5-5 2.761718 0 5 2.238281 5 5v109.023437c0 2.765625-2.238282 5-5 5zm0 0"/><path d="m192.132812 404.960938c-3.554687 0-8.328124-2.007813-14.214843-8.960938-5.113281-6.039062-10.160157-14.699219-14.214844-24.378906-3.421875-8.167969-5.816406-16.289063-6.925781-23.484375-.21875-1.429688.191406-2.882813 1.121094-3.988281.933593-1.105469 2.300781-1.75 3.746093-1.773438 4.429688-.0625 8.425781-2.910156 9.941407-7.078125.605468-1.664063 2.042968-2.882813 3.789062-3.207031 1.734375-.320313 3.519531.296875 4.683594 1.632812 5.285156 6.074219 10.496094 14.914063 14.679687 24.898438 8.160157 19.484375 11.597657 41.152344.878907 45.644531-.988282.414063-2.148438.695313-3.484376.695313zm-24.539062-53.515626c1.179688 5.148438 3.015625 10.78125 5.332031 16.3125 7.523438 17.957032 15.863281 26.125 18.75 27.105469 1.332031-2.746093 1.359375-14.421875-6.164062-32.378906-2.597657-6.199219-5.6875-12.011719-8.859375-16.726563-2.464844 2.632813-5.59375 4.609376-9.058594 5.6875zm0 0"/><path d="m130.835938 404.960938c-1.335938 0-2.5-.285157-3.484376-.695313-10.714843-4.492187-7.28125-26.160156.882813-45.644531 4.179687-9.980469 9.394531-18.824219 14.679687-24.898438 1.160157-1.335937 2.9375-1.957031 4.683594-1.632812 1.742188.320312 3.179688 1.542968 3.785156 3.207031 1.519532 4.167969 5.511719 7.015625 9.941407 7.078125 1.445312.023438 2.8125.667969 3.746093 1.773438.933594 1.105468 1.34375 2.558593 1.121094 3.988281-1.109375 7.199219-3.503906 15.316406-6.921875 23.484375-4.054687 9.683594-9.105469 18.339844-14.214843 24.378906-5.890626 6.953125-10.667969 8.960938-14.21875 8.960938zm.703124-9.707032h.019532zm14.777344-49.5c-3.171875 4.71875-6.261718 10.53125-8.859375 16.730469-7.519531 17.957031-7.492187 29.628906-6.164062 32.375 2.890625-.976563 11.226562-9.148437 18.75-27.105469 2.316406-5.53125 4.152343-11.164062 5.332031-16.308594-3.464844-1.078124-6.589844-3.054687-9.058594-5.691406zm0 0"/><path d="m161.257812 407.121094c-1.320312 0-2.601562-.519532-3.519531-1.460938-.941406-.941406-1.480469-2.21875-1.480469-3.539062 0-.320313.039063-.660156.097657-.980469.0625-.320313.160156-.621094.28125-.921875.140625-.296875.28125-.597656.460937-.875.199219-.261719.398438-.523438.640625-.761719 1.160157-1.160156 2.878907-1.703125 4.5-1.363281.320313.0625.640625.160156.9375.285156.300781.136719.601563.277344.863281.457032.28125.179687.539063.398437.757813.621093.242187.238281.441406.5.621094.761719.179687.277344.339843.578125.460937.875.121094.300781.21875.601562.28125.921875.078125.320313.097656.660156.097656.980469 0 1.320312-.539062 2.621094-1.457031 3.539062-.238281.21875-.480469.441406-.761719.621094s-.558593.339844-.859374.460938c-.300782.121093-.621094.21875-.941407.28125-.320312.078124-.640625.097656-.980469.097656zm0 0"/><path d="m161.257812 443.421875c-1.300781 0-2.601562-.542969-3.519531-1.460937-.242187-.242188-.441406-.5-.640625-.761719-.179687-.277344-.320312-.558594-.460937-.878907-.121094-.296874-.21875-.601562-.28125-.917968-.058594-.320313-.097657-.660156-.097657-.980469s.039063-.660156.097657-.980469c.0625-.320312.160156-.640625.28125-.9375.140625-.300781.28125-.582031.460937-.863281.199219-.28125.398438-.519531.640625-.761719.21875-.21875.480469-.4375.757813-.617187.261718-.183594.5625-.339844.859375-.460938.300781-.121093.621093-.21875.921875-.28125.660156-.140625 1.320312-.140625 1.960937 0 .320313.058594.640625.160157.9375.28125.300781.121094.582031.28125.863281.460938.28125.179687.539063.398437.757813.617187.941406.941406 1.460937 2.222656 1.460937 3.542969 0 .320313-.019531.660156-.101562.980469-.058594.316406-.160156.621094-.28125.917968-.121094.320313-.28125.601563-.457031.878907-.179688.261719-.402344.519531-.621094.761719-.941406.917968-2.21875 1.460937-3.539063 1.460937zm0 0"/><path d="m161.257812 479.71875c-1.300781 0-2.601562-.539062-3.519531-1.480469-.242187-.21875-.441406-.476562-.621093-.757812-.199219-.261719-.339844-.558594-.480469-.863281-.121094-.296876-.21875-.597657-.28125-.917969-.058594-.339844-.097657-.660157-.097657-.980469 0-1.320312.539063-2.621094 1.460938-3.539062.238281-.242188.5-.441407.757812-.621094.28125-.183594.582032-.34375.878907-.460938.300781-.140625.621093-.21875.941406-.300781 1.621094-.316406 3.339844.222656 4.5 1.382813.941406.917968 1.460937 2.21875 1.460937 3.539062 0 .320312-.019531.660156-.101562.980469-.058594.320312-.160156.621093-.28125.917969-.121094.300781-.28125.601562-.457031.863281-.179688.28125-.378907.539062-.621094.757812-.238281.242188-.480469.441407-.761719.640625-.261718.160156-.558594.320313-.859375.441406-.300781.136719-.621093.21875-.941406.296876-.316406.0625-.636719.101562-.976563.101562zm0 0"/><path d="m247.539062 125.269531h-170.960937c-6.222656 0-11.613281-4-13.417969-9.957031l-11.066406-36.515625c-1.277344-4.210937-.503906-8.65625 2.121094-12.191406 2.621094-3.539063 6.652344-5.5625 11.050781-5.5625h193.464844c4.394531 0 8.417969 2.019531 11.039062 5.546875 2.625 3.523437 3.40625 7.957031 2.144531 12.167968l-10.941406 36.515626c-1.765625 5.882812-7.289062 9.996093-13.433594 9.996093zm-182.273437-54.226562c-1.203125 0-2.304687.554687-3.023437 1.519531-.71875.96875-.925782 2.183594-.578126 3.332031l11.0625 36.519531c.519532 1.707032 2.066407 2.855469 3.851563 2.855469h170.957031c1.765625 0 3.347656-1.175781 3.855469-2.867187l10.941406-36.515625c.34375-1.152344.128907-2.363281-.585937-3.328125-.714844-.960938-1.816406-1.515625-3.019532-1.515625zm0 0"/><path d="m243.515625 71.042969h-162.894531c-1.574219 0-3.054688-.742188-4-2-.945313-1.261719-1.238282-2.890625-.796875-4.402344 11.117187-38.058594 46.582031-64.640625 86.246093-64.640625 39.664063 0 75.128907 26.582031 86.246094 64.640625.441406 1.511719.144532 3.140625-.800781 4.402344-.941406 1.257812-2.425781 2-4 2zm-155.921875-10h148.953125c-11.78125-30.363281-41.496094-51.042969-74.476563-51.042969-32.980468 0-62.695312 20.679688-74.476562 51.042969zm0 0"/><path d="m243.242188 228.582031h-20.179688c-2.035156 0-3.867188-1.230469-4.632812-3.117187-.761719-1.886719-.308594-4.046875 1.144531-5.464844l2.058593-2.003906c8.199219-7.980469 12.289063-19.097656 11.230469-30.492188l-.808593-9.210937c-.230469-2.59375 1.570312-4.929688 4.136718-5.367188 8.910156-1.523437 15.378906-9.191406 15.378906-18.230469 0-10.179687-8.25-18.464843-18.414062-18.523437-.082031.003906-.164062.007813-.230469.007813-2.589843 0-4.753906-1.980469-4.976562-4.5625l-.121094-1.347657c-4.351563-1.320312-8.539063-3.261719-12.492187-5.789062-1.871094-1.195313-2.730469-3.480469-2.105469-5.613281.621093-2.136719 2.578125-3.597657 4.796875-3.597657h29.507812c1.691406 0 3.207032-1.085937 3.773438-2.707031.660156-1.875 2.367187-3.1875 4.351562-3.335938 1.972656-.167968 3.863282.894532 4.792969 2.65625 12.347656 23.429688 18.960937 39.773438.125 78.789063-5.988281 12.402344-6.257813 19.558594-5.433594 23.378906.761719 3.515625-.109375 7.152344-2.386719 9.976563-2.332031 2.898437-5.800781 4.554687-9.515624 4.554687zm-8.992188-10h8.992188c.960937 0 1.53125-.578125 1.734374-.828125.265626-.332031.546876-.875.398438-1.585937-1.6875-7.785157.398438-17.824219 6.199219-29.84375 15.070312-31.210938 12.425781-44.933594 3.40625-63.207031-2.183594 1.375-4.746094 2.152343-7.441407 2.152343h-10.148437c.042969.203125.074219.410157.09375.621094l.054687.632813c13.601563 2.160156 24.035157 13.96875 24.035157 28.171874 0 12.351563-7.839844 23.039063-19.1875 26.9375l.433593 4.96875c1.070313 11.484376-2.011718 22.761719-8.570312 31.980469zm0 0"/><path d="m101.160156 228.582031h-20.410156c-3.710938 0-7.179688-1.65625-9.515625-4.550781-2.277344-2.824219-3.148437-6.460938-2.390625-9.976562.828125-3.820313.558594-10.972657-5.433594-23.378907-18.839844-39.027343-12.199218-55.414062.195313-78.921875.9375-1.773437 2.84375-2.832031 4.835937-2.648437 1.996094.164062 3.703125 1.503906 4.332032 3.40625.550781 1.648437 2.078124 2.761719 3.804687 2.761719h31.90625c2.5625 0 4.710937 1.9375 4.972656 4.488281.261719 2.546875-1.449219 4.882812-3.957031 5.40625-6.261719 1.296875-10.503906 3.847656-13.199219 6.101562l-.035156.410157c-.238281 2.691406-2.574219 4.726562-5.269531 4.550781l-.414063-.027344c-.207031-.011719-.414062-.03125-.625-.03125-10.210937 0-18.523437 8.308594-18.523437 18.523437 0 9.375 7.019531 17.273438 16.320312 18.375 2.683594.316407 4.632813 2.710938 4.394532 5.402344l-.792969 9c0 .011719 0 .019532-.003907.03125-1.0625 11.394532 3.03125 22.511719 11.230469 30.492188l2.0625 2.003906c1.457031 1.417969 1.914063 3.578125 1.144531 5.464844-.765624 1.886718-2.597656 3.117187-4.628906 3.117187zm-36.101562-59.984375c1.730468 5.242188 4.148437 11.078125 7.359375 17.726563 5.800781 12.019531 7.890625 22.058593 6.203125 29.847656-.152344.707031.132812 1.25.398437 1.582031.203125.25.777344.828125 1.730469.828125h9.222656c-6.558594-9.21875-9.636718-20.492187-8.570312-31.992187l.402344-4.574219c-7.21875-2.144531-13.175782-7.042969-16.746094-13.417969zm21.324218 18.441406h.019532zm-17.347656-63.976562c-4.890625 9.859375-7.886718 18.191406-7.417968 28.449219 1.484374-13.332031 12.199218-23.917969 25.59375-25.207031.214843-.363282.480468-.699219.789062-1 .011719-.011719.023438-.023438.035156-.035157h-11.457031c-2.746094 0-5.34375-.796875-7.542969-2.207031zm0 0"/><path d="m164.34375 268.257812h-4.464844c-12.90625 0-25.109375-4.960937-34.355468-13.964843l-29.910157-29.128907c-10.375-10.105468-15.554687-24.171874-14.210937-38.589843l5.113281-58.128907c.105469-1.191406.632813-2.304687 1.488281-3.140624 5.007813-4.890626 11.738282-8.324219 19.464844-9.929688.335938-.066406.675781-.101562 1.015625-.101562h109.546875c.957031 0 1.886719.273437 2.695312.785156 5.027344 3.214844 9.769532 4.707031 12.859376 5.390625 2.128906.472656 3.710937 2.269531 3.898437 4.445312l5.339844 60.707031c1.339843 14.394532-3.839844 28.457032-14.210938 38.5625l-29.910156 29.128907c-9.25 9.003906-21.449219 13.964843-34.359375 13.964843zm-68.039062-136.988281-4.941407 56.207031c-1.066406 11.421876 3.027344 22.539063 11.226563 30.523438l29.910156 29.128906c7.371094 7.175782 17.09375 11.128906 27.378906 11.128906h4.46875c10.285156 0 20.003906-3.957031 27.375-11.128906l29.910156-29.128906c8.199219-7.984375 12.292969-19.101562 11.230469-30.496094l-5.035156-57.234375c-3.886719-1.179687-7.644531-2.855469-11.21875-4.996093h-107.59375c-5.996094 1.324218-10.089844 3.796874-12.710937 5.996093zm0 0"/><path d="m87.171875 183.035156c-.195313 0-.390625-.011718-.585937-.035156-14.335938-1.699219-25.144532-13.867188-25.144532-28.304688 0-15.726562 12.792969-28.523437 28.523438-28.523437.4375 0 .867187.027344 1.292968.054687l.316407.019532c1.351562.078125 2.613281.699218 3.496093 1.722656.886719 1.023438 1.320313 2.359375 1.199219 3.707031l-4.113281 46.796875c-.117188 1.347656-.777344 2.589844-1.828125 3.441406-.898437.726563-2.011719 1.121094-3.15625 1.121094zm-1.378906-46.390625c-8.214844 1.894531-14.355469 9.269531-14.355469 18.046875 0 7.582032 4.59375 14.199219 11.269531 17.035156zm0 0"/><path d="m237.035156 182.855469c-1.101562 0-2.171875-.363281-3.054687-1.042969-1.105469-.855469-1.804688-2.128906-1.925781-3.523438l-4.105469-46.675781c-.125-1.394531.347656-2.78125 1.292969-3.8125.902343-.988281 2.160156-1.570312 3.492187-1.621093.105469-.003907.230469-.007813.316406-.007813 15.730469 0 28.523438 12.792969 28.523438 28.519531 0 13.929688-9.964844 25.742188-23.699219 28.089844-.28125.046875-.5625.074219-.839844.074219zm1.421875-45.878907 3.007813 34.210938c6.082031-3.082031 10.109375-9.363281 10.109375-16.496094 0-8.332031-5.53125-15.398437-13.117188-17.714844zm0 0"/><path d="m161.996094 226.234375c-8.761719 0-16.929688-4.339844-21.839844-11.613281-1.546875-2.285156-.945312-5.394532 1.34375-6.941406 2.285156-1.546876 5.394531-.945313 6.941406 1.34375 3.050782 4.515624 8.117188 7.207031 13.554688 7.207031s10.503906-2.695313 13.554687-7.207031c1.542969-2.289063 4.65625-2.890626 6.941407-1.34375 2.292968 1.542968 2.890624 4.65625 1.34375 6.941406-4.910157 7.273437-13.074219 11.613281-21.839844 11.613281zm0 0"/><path d="m136.714844 177.332031c-3.3125 0-6-2.6875-6-6v-1.089843c0-3.3125 2.6875-6 6-6 3.316406 0 6 2.6875 6 6v1.089843c0 3.3125-2.683594 6-6 6zm0 0"/><path d="m188.941406 178.164062c-3.3125 0-6-2.683593-6-6v-1.089843c0-3.3125 2.6875-6 6-6s6 2.6875 6 6v1.089843c0 3.316407-2.6875 6-6 6zm0 0"/><path d="m199.042969 158.074219c-.792969 0-1.597657-.191407-2.34375-.589844-1.25-.664063-4.117188-1.332031-7.703125-1.332031-3.585938 0-6.449219.667968-7.699219 1.332031-2.441406 1.296875-5.46875.375-6.761719-2.0625-1.296875-2.441406-.375-5.464844 2.0625-6.765625 2.996094-1.589844 7.515625-2.503906 12.398438-2.503906 4.882812 0 9.398437.914062 12.394531 2.503906 2.4375 1.296875 3.363281 4.324219 2.066406 6.765625-.894531 1.6875-2.625 2.648437-4.414062 2.652344zm0 0"/><path d="m145.039062 158.074219c-.792968 0-1.597656-.191407-2.34375-.589844-1.246093-.664063-4.113281-1.332031-7.699218-1.332031-3.585938 0-6.449219.667968-7.695313 1.332031-2.4375 1.296875-5.464843.378906-6.761719-2.0625-1.296874-2.441406-.375-5.464844 2.0625-6.765625 2.996094-1.589844 7.511719-2.503906 12.398438-2.503906s9.402344.914062 12.394531 2.503906c2.4375 1.296875 3.363281 4.324219 2.066407 6.765625-.902344 1.691406-2.632813 2.648437-4.421876 2.652344zm0 0"/><path d="m233.082031 97.070312h-15.183593c-2.761719 0-5-2.234374-5-5 0-2.761718 2.238281-5 5-5h15.183593c2.761719 0 5 2.238282 5 5 0 2.765626-2.238281 5-5 5zm0 0"/></g></svg>