<svg height="511pt" viewBox="-89 0 511 511.996" width="511pt" xmlns="http://www.w3.org/2000/svg"><path d="m196.320312 356.042969c-4.242187-10.132813-9.40625-18.6875-14.265624-24.273438-2.242188 6.164063-8.097657 10.585938-15.011719 10.6875 1.027343 6.6875 3.316406 14.691407 6.796875 23.003907 8.234375 19.660156 19.941406 33.488281 26.148437 30.886718 6.210938-2.601562 4.570313-20.644531-3.667969-40.304687zm0 0" fill="#e04e36"/><path d="m151.542969 331.769531c-4.859375 5.585938-10.019531 14.140625-14.265625 24.273438-8.234375 19.660156-9.875 37.703125-3.667969 40.304687 6.207031 2.597656 17.917969-11.230468 26.148437-30.890625 3.480469-8.308593 5.769532-16.3125 6.800782-23-6.914063-.101562-12.769532-4.523437-15.015625-10.6875zm0 0" fill="#e04e36"/><path d="m183.050781 326.21875c0 8.976562-7.277343 16.25-16.25 16.25-8.976562 0-16.25-7.273438-16.25-16.25 0-8.972656 7.273438-16.25 16.25-16.25 8.972657 0 16.25 7.277344 16.25 16.25zm0 0" fill="#fc5d4c"/><path d="m329.140625 493.03125c-3.066406-55.019531-6.625-118.933594-9.664063-173.511719-.140624-2.46875-.578124-4.867187-1.277343-7.152343v.003906l-134.550781 21.332031c4.378906 5.535156 8.890624 13.304687 12.671874 22.335937 8.234376 19.660157 9.878907 37.703126 3.667969 40.304688-6.207031 2.601562-17.914062-11.230469-26.148437-30.886719-3.480469-8.308593-5.769532-16.3125-6.796875-23.003906-.082031.003906-.160157.011719-.242188.011719s-.160156-.007813-.242187-.011719c-1.03125 6.6875-3.320313 14.691406-6.800782 23.003906-8.230468 19.660157-19.941406 33.488281-26.148437 30.886719s-4.566406-20.644531 3.667969-40.304688c3.78125-9.03125 8.296875-16.796874 12.675781-22.335937l-133.539063-21.171875c-.671874 2.238281-1.097656 4.578125-1.230468 6.988281-2.09375 37.550781-7.84375 140.777344-9.664063 173.511719-.421875 7.582031 5.613281 13.964844 13.207031 13.964844h297.203126c7.597656 0 13.632812-6.382813 13.210937-13.964844zm0 0" fill="#e8e6e6"/><path d="m150.550781 326.21875c0-6.78125 4.160157-12.585938 10.0625-15.019531l-40.6875-45.335938-18.175781 8.960938c-18.269531 6.46875-28.601562 8.140625-63.945312 17.285156-10.386719 2.613281-18.394532 10.496094-21.386719 20.425781l136.195312 21.59375c-1.308593-2.34375-2.0625-5.035156-2.0625-7.910156zm0 0" fill="#1b87c9"/><path d="m183.050781 326.21875c0 2.875-.753906 5.566406-2.058593 7.90625l137.207031-21.75c-3.03125-9.855469-11.011719-17.667969-21.34375-20.265625-36.335938-9.347656-46.027344-11.027344-62.882813-16.761719l-18.367187-9.054687c-.203125-.164063-.789063-.410157-1.605469-.789063l-41.007812 45.695313c5.902343 2.433593 10.058593 8.238281 10.058593 15.019531zm0 0" fill="#1b87c9"/><path d="m101.75 274.824219c-.960938.339843-1.894531.664062-2.820312.980469l54.855468 40.746093c1.746094-2.34375 4.085938-4.222656 6.824219-5.351562l-40.6875-45.335938zm0 0" fill="#e8e6e6"/><path d="m233.828125 275.277344-18.222656-8.988282c-.203125-.160156-.789063-.410156-1.605469-.785156l-41.007812 45.695313c2.691406 1.109375 4.992187 2.945312 6.730468 5.234375l54.109375-40.992188v-.164062zm0 0" fill="#e8e6e6"/><path d="m240.414062 114.136719c-1.109374 0-2.203124.082031-3.28125.207031l2.257813 21.773438c1.246094 11.726562.695313 23.449218-1.46875 34.804687.824219.070313 1.652344.125 2.492187.125 15.71875 0 28.457032-12.738281 28.457032-28.453125 0-15.71875-12.738282-28.457031-28.457032-28.457031zm0 0" fill="#fcb275"/><path d="m94.730469 136.117188 2.359375-19.199219.269531-2.578125c-1.082031-.125-2.171875-.203125-3.285156-.203125-15.714844 0-28.457031 12.738281-28.457031 28.457031 0 15.714844 12.742187 28.453125 28.457031 28.453125.71875 0 1.421875-.050781 2.128906-.105469-2.171875-11.363281-2.722656-23.09375-1.472656-34.824218zm0 0" fill="#fcb275"/><path d="m257.84375 62.164062h-181.167969c-5.503906 0-9.449219 5.316407-7.851562 10.585938l10.363281 34.195312c1.078125 3.5625 4.363281 6 8.085938 6h160.09375c3.730468 0 7.023437-2.449218 8.09375-6.023437l10.246093-34.199219c1.578125-5.261718-2.367187-10.558594-7.863281-10.558594zm0 0" fill="#1b87c9"/><path d="m237.113281 112.945312h-139.664062c-.542969 6.957032-1.613281 13.277344-2.71875 23.171876-5.5 51.703124 23.429687 98.371093 64.78125 117.414062 4.792969 2.207031 10.300781 2.207031 15.097656 0 41.167969-18.957031 70.304687-65.488281 64.78125-117.414062-.882813-6.957032-1.75-14.882813-2.277344-23.171876zm0 0" fill="#fcb275"/><path d="m243.601562 62.164062c-9.648437-33.027343-40.128906-57.164062-76.273437-57.164062-36.140625 0-66.621094 24.136719-76.269531 57.164062zm0 0" fill="#e8e6e6"/><path d="m160.613281 311.199219c1.90625-.789063 3.996094-1.230469 6.1875-1.230469 2.195313 0 4.28125.441406 6.191407 1.230469l41.007812-45.695313c-3.585938-1.65625-11.664062-5.832031-11.664062-16.429687v-14.105469c-8.300782 7.621094-17.652344 13.921875-27.730469 18.5625-4.792969 2.207031-10.300781 2.207031-15.09375 0-9.875-4.546875-19.03125-10.683594-27.191407-18.078125v13.625c0 12.613281-11.699218 16.238281-12.292968 16.734375l-.105469.050781zm0 0" fill="#fcb275"/><g fill="#231f20"><path d="m166.582031 209.558594c-8.972656 0-17.339843-4.445313-22.371093-11.894532-1.546876-2.289062-.945313-5.394531 1.34375-6.941406 2.289062-1.546875 5.398437-.941406 6.941406 1.34375 3.167968 4.695313 8.433594 7.492188 14.085937 7.492188 5.648438 0 10.914063-2.796875 14.085938-7.492188 1.542969-2.285156 4.65625-2.886718 6.941406-1.34375 2.289063 1.546875 2.890625 4.65625 1.34375 6.941406-5.03125 7.449219-13.394531 11.894532-22.371094 11.894532zm0 0"/><path d="m204.300781 139.328125c-.792969 0-1.59375-.1875-2.34375-.585937-1.195312-.632813-3.984375-1.375-7.917969-1.375-3.929687 0-6.722656.742187-7.917968 1.375-2.441406 1.292968-5.464844.371093-6.761719-2.066407-1.296875-2.441406-.371094-5.46875 2.070313-6.765625 3.042968-1.617187 7.640624-2.542968 12.609374-2.542968s9.566407.929687 12.609376 2.542968c2.441406 1.296875 3.367187 4.324219 2.070312 6.765625-.898438 1.691407-2.628906 2.652344-4.417969 2.652344zm0 0"/><path d="m128.613281 139.328125c-1.792969 0-3.523437-.960937-4.417969-2.652344-1.296874-2.441406-.371093-5.464843 2.066407-6.765625 3.042969-1.617187 7.640625-2.542968 12.609375-2.542968s9.566406.929687 12.609375 2.542968c2.4375 1.296875 3.367187 4.324219 2.070312 6.765625-1.296875 2.4375-4.324219 3.363281-6.761719 2.066407-1.195312-.632813-3.984374-1.375-7.917968-1.375-3.929688 0-6.722656.742187-7.914063 1.375-.75.398437-1.554687.585937-2.34375.585937zm0 0"/><path d="m139.691406 159.160156c-3.316406 0-6-2.683594-6-6v-1.121094c0-3.3125 2.683594-6 6-6 3.3125 0 6 2.6875 6 6v1.125c0 3.3125-2.691406 5.996094-6 5.996094zm0 0"/><path d="m193.480469 160.023438c-3.316407 0-6-2.6875-6-6v-1.125c0-3.3125 2.683593-6 6-6 3.3125 0 6 2.6875 6 6v1.125c0 3.3125-2.6875 6-6 6zm0 0"/><path d="m270.3125 509.152344c-2.761719 0-5-2.238282-5-5v-112.378906c0-2.761719 2.238281-5 5-5s5 2.238281 5 5v112.378906c0 2.761718-2.238281 5-5 5zm0 0"/><path d="m64.34375 509.152344c-2.761719 0-5-2.238282-5-5v-112.378906c0-2.761719 2.238281-5 5-5 2.765625 0 5 2.238281 5 5v112.378906c0 2.761718-2.234375 5-5 5zm0 0"/><path d="m233.828125 91.539062h-14.214844c-2.765625 0-5-2.238281-5-5 0-2.761718 2.234375-5 5-5h14.214844c2.761719 0 5 2.238282 5 5 0 2.761719-2.238281 5-5 5zm0 0"/><path d="m315.929688 511.996094h-297.203126c-4.988281 0-9.816406-2.078125-13.242187-5.703125-3.429687-3.628907-5.234375-8.558594-4.957031-13.542969l9.664062-173.511719c.148438-2.75.632813-5.488281 1.4375-8.148437.71875-2.390625 3.089844-3.890625 5.570313-3.492188l133.535156 21.167969c1.753906.277344 3.226563 1.464844 3.875 3.121094.644531 1.652343.363281 3.523437-.734375 4.917969-4.28125 5.414062-8.539062 12.933593-11.984375 21.167968-7.796875 18.617188-7.691406 30.984375-6.292969 33.621094 2.863282-.851562 11.75-9.453125 19.546875-28.066406 3.167969-7.558594 5.464844-15.3125 6.46875-21.832032.382813-2.480468 2.609375-4.289062 5.058594-4.234374.035156 0 .082031 0 .136719.003906l.109375-.003906c2.449219-.132813 4.679687 1.75 5.0625 4.234374 1.003906 6.515626 3.300781 14.269532 6.46875 21.832032 7.792969 18.613281 16.6875 27.214844 19.546875 28.066406 1.398437-2.636719 1.503906-15.007812-6.289063-33.621094-3.449219-8.234375-7.707031-15.753906-11.984375-21.167968-1.101562-1.394532-1.382812-3.265626-.738281-4.917969.648437-1.65625 2.125-2.84375 3.878906-3.121094l134.34375-21.300781c.082031-.015625.164063-.027344.246094-.039063 2.25-.328125 4.417969.882813 5.3125 2.925781.097656.207032.171875.421876.234375.640626.8125 2.675781 1.304688 5.449218 1.464844 8.246093l9.664062 173.515625c.277344 4.980469-1.53125 9.917969-4.960937 13.539063-3.421875 3.625-8.25 5.703125-13.238281 5.703125zm-295.613282-193.78125c-.066406.527344-.109375 1.054687-.140625 1.582031l-9.664062 173.511719c-.125 2.285156.667969 4.453125 2.238281 6.113281s3.695312 2.574219 5.976562 2.574219h297.203126c2.285156 0 4.410156-.914063 5.980468-2.574219 1.570313-1.660156 2.367188-3.832031 2.238282-6.113281l-9.664063-173.511719c-.035156-.585937-.085937-1.167969-.160156-1.746094l-121.992188 19.339844c3.121094 4.957031 6.074219 10.683594 8.601563 16.722656 8.382812 20.007813 11.941406 42.253907.992187 46.84375-10.957031 4.589844-24.3125-13.554687-32.699219-33.566406-.875-2.09375-1.683593-4.179687-2.425781-6.253906-.742187 2.074219-1.554687 4.160156-2.429687 6.253906-8.382813 20.011719-21.746094 38.15625-32.691406 33.566406-10.953126-4.585937-7.394532-26.835937.988281-46.847656 2.527343-6.039063 5.480469-11.761719 8.601562-16.71875zm0 0"/><path d="m166.570312 403.898438c-1.300781 0-2.601562-.539063-3.539062-1.457032-.921875-.941406-1.460938-2.222656-1.460938-3.542968 0-1.320313.539063-2.621094 1.460938-3.539063.238281-.242187.5-.441406.757812-.621094.28125-.179687.558594-.339843.878907-.460937.300781-.121094.601562-.21875.921875-.28125.660156-.136719 1.320312-.136719 1.960937 0 .320313.0625.640625.160156.9375.28125.300781.121094.582031.28125.859375.460937.28125.179688.523438.378907.761719.621094.21875.21875.441406.480469.621094.757813.179687.261718.339843.5625.460937.863281.121094.296875.21875.621093.277344.941406.0625.316406.101562.636719.101562.976563 0 .320312-.039062.640624-.101562.980468-.058594.320313-.15625.621094-.277344.917969-.121094.300781-.28125.601563-.460937.882813-.179688.257812-.398438.519531-.621094.757812-.238281.21875-.480469.441406-.761719.621094-.277344.179687-.558594.320312-.859375.460937-.296875.117188-.617187.21875-.9375.277344-.320312.0625-.660156.101563-.980469.101563zm0 0"/><path d="m166.570312 441.296875c-.320312 0-.660156-.019531-.980468-.097656-.320313-.0625-.621094-.160157-.921875-.28125-.320313-.121094-.597657-.28125-.878907-.460938-.257812-.179687-.519531-.378906-.757812-.617187-.222656-.222656-.441406-.480469-.621094-.761719-.179687-.28125-.320312-.558594-.460937-.863281-.121094-.296875-.21875-.617188-.28125-.9375-.058594-.320313-.097657-.660156-.097657-.980469s.039063-.660156.097657-.980469c.0625-.320312.160156-.621094.28125-.941406.140625-.296875.28125-.578125.460937-.859375.179688-.257813.398438-.519531.621094-.757813.238281-.222656.5-.441406.757812-.625.28125-.179687.558594-.316406.878907-.457031.300781-.121093.601562-.21875.921875-.28125 1.640625-.339843 3.359375.203125 4.519531 1.363281.21875.238282.441406.5.621094.757813.179687.28125.339843.558594.460937.859375.121094.320312.21875.621094.277344.941406.0625.320313.101562.660156.101562.980469s-.039062.660156-.101562.980469c-.058594.320312-.15625.636718-.277344.9375-.121094.300781-.28125.582031-.460937.863281-.179688.28125-.398438.539063-.621094.761719-.941406.941406-2.21875 1.457031-3.539063 1.457031zm0 0"/><path d="m166.570312 478.71875c-1.320312 0-2.601562-.539062-3.539062-1.457031-.921875-.941407-1.460938-2.222657-1.460938-3.542969 0-.339844.039063-.660156.097657-.980469.0625-.316406.160156-.636719.28125-.941406.140625-.296875.28125-.578125.460937-.859375.179688-.28125.398438-.519531.621094-.757812.238281-.222657.5-.441407.757812-.621094.28125-.183594.558594-.34375.859376-.460938.320312-.121094.621093-.21875.941406-.28125 1.621094-.339844 3.359375.203125 4.519531 1.363282.21875.238281.441406.476562.621094.757812.179687.28125.339843.558594.460937.859375s.21875.625.277344.941406c.0625.320313.101562.640625.101562.980469 0 1.320312-.539062 2.601562-1.457031 3.542969-.242187.21875-.480469.4375-.761719.617187-.28125.183594-.558593.320313-.859374.460938-.300782.121094-.621094.21875-.941407.28125-.320312.058594-.640625.097656-.980469.097656zm0 0"/><path d="m198.367188 401.675781c-10.171876.003907-21.644532-16.394531-29.136719-34.285156-3.523438-8.414063-5.988281-16.773437-7.125-24.171875-.222657-1.429688.1875-2.882812 1.121093-3.988281.933594-1.105469 2.300782-1.753907 3.746094-1.773438 4.625-.070312 8.800782-3.042969 10.386719-7.398437.605469-1.664063 2.042969-2.878906 3.789063-3.207032 1.738281-.320312 3.523437.296876 4.683593 1.632813 5.4375 6.246094 10.800781 15.34375 15.105469 25.625 8.382812 20.011719 11.941406 42.257813.992188 46.847656-1.167969.488281-2.355469.71875-3.5625.71875zm-25.449219-55.128906c1.214843 5.347656 3.125 11.21875 5.535156 16.980469 7.792969 18.613281 16.6875 27.210937 19.546875 28.0625 1.398438-2.632813 1.503906-15.003906-6.289062-33.617188-2.710938-6.476562-5.945313-12.535156-9.253907-17.4375-2.578125 2.808594-5.878906 4.898438-9.539062 6.011719zm0 0"/><path d="m135.234375 401.675781c-1.207031 0-2.394531-.230469-3.554687-.714843-10.953126-4.589844-7.394532-26.835938.988281-46.847657 4.304687-10.28125 9.667969-19.378906 15.105469-25.625 1.164062-1.335937 2.9375-1.957031 4.683593-1.632812 1.742188.324219 3.179688 1.542969 3.785157 3.207031 1.585937 4.359375 5.761718 7.328125 10.390624 7.398438 1.445313.019531 2.8125.667968 3.746094 1.773437s1.34375 2.558594 1.121094 3.988281c-1.136719 7.402344-3.605469 15.761719-7.125 24.171875-7.496094 17.886719-18.96875 34.28125-29.140625 34.28125zm.582031-9.765625h.019532zm15.328125-51.367187c-3.3125 4.898437-6.539062 10.957031-9.253906 17.433593-7.796875 18.613282-7.6875 30.980469-6.285156 33.617188 2.859375-.851562 11.75-9.453125 19.542969-28.0625 2.414062-5.757812 4.320312-11.628906 5.539062-16.980469-3.664062-1.117187-6.964844-3.203125-9.542969-6.007812zm0 0"/><path d="m152.613281 339.125c-.261719 0-.523437-.019531-.785156-.0625l-136.195313-21.589844c-1.425781-.226562-2.683593-1.058594-3.453124-2.28125-.765626-1.222656-.964844-2.71875-.550782-4.097656 3.53125-11.714844 13.09375-20.851562 24.957032-23.835938 11.027343-2.855468 19.777343-5.019531 26.808593-6.761718 15.585938-3.851563 24.222657-5.988282 36.410157-10.289063l17.910156-8.832031c2.011718-.988281 4.4375-.523438 5.933594 1.144531l40.683593 45.335938c1.085938 1.207031 1.515625 2.867187 1.15625 4.453125-.359375 1.582031-1.46875 2.890625-2.96875 3.511718-4.230469 1.742188-6.964843 5.828126-6.964843 10.398438 0 1.9375.480468 3.777344 1.421874 5.46875.933594 1.671875.832032 3.726562-.265624 5.296875-.945313 1.359375-2.484376 2.140625-4.097657 2.140625zm-129.0625-30.519531 122.070313 19.351562c-.046875-.574219-.070313-1.15625-.070313-1.734375 0-6.320312 2.761719-12.140625 7.371094-16.101562l-34.1875-38.097656-14.777344 7.285156c-.175781.085937-.359375.164062-.542969.226562-12.792968 4.53125-21.613281 6.710938-37.621093 10.675782-7.007813 1.730468-15.730469 3.890624-26.738281 6.738281-6.574219 1.65625-12.148438 5.929687-15.503907 11.65625zm0 0"/><path d="m180.992188 339.125c-1.617188 0-3.15625-.785156-4.101563-2.136719-1.09375-1.566406-1.199219-3.625-.265625-5.296875.945312-1.695312 1.425781-3.535156 1.425781-5.46875 0-4.574218-2.734375-8.65625-6.96875-10.402344-1.5-.621093-2.605469-1.929687-2.964843-3.511718-.363282-1.582032.070312-3.242188 1.152343-4.449219l41.011719-45.699219c1.464844-1.628906 3.832031-2.121094 5.820312-1.195312l.472657.214844c.589843.269531 1.070312.492187 1.519531.761718l17.796875 8.777344c11.132813 3.773438 18.992187 5.71875 34.507813 9.570312 7.261718 1.800782 16.132812 4 27.703124 6.976563 11.765626 2.960937 21.304688 12.023437 24.875 23.636719.425782 1.386718.230469 2.886718-.535156 4.117187-.769531 1.226563-2.03125 2.066407-3.460937 2.292969l-137.207031 21.75c-.261719.046875-.523438.0625-.78125.0625zm-.316407-29.003906c4.613281 3.957031 7.375 9.78125 7.375 16.101562 0 .578125-.023437 1.160156-.070312 1.734375l123.042969-19.503906c-3.367188-5.644531-8.898438-9.863281-15.386719-11.496094-11.558594-2.972656-20.402344-5.167969-27.644531-6.960937-15.429688-3.824219-23.929688-5.933594-35.625-9.910156-.210938-.070313-.40625-.15625-.605469-.25l-16.566407-8.171876zm0 0"/><path d="m153.78125 321.550781c-1.035156 0-2.082031-.320312-2.976562-.984375l-54.855469-40.75c-1.492188-1.109375-2.246094-2.953125-1.957031-4.785156.289062-1.835938 1.566406-3.359375 3.324218-3.960938.816406-.277343 1.640625-.5625 2.484375-.863281l17.914063-8.832031c2.011718-.988281 4.433594-.523438 5.929687 1.144531l40.6875 45.335938c1.082031 1.207031 1.511719 2.867187 1.152344 4.453125-.359375 1.582031-1.46875 2.890625-2.96875 3.511718-1.839844.757813-3.472656 2.042969-4.71875 3.71875-.984375 1.320313-2.488281 2.011719-4.015625 2.011719zm-44.96875-44.636719 42.941406 31.902344-33.019531-36.792968zm0 0"/><path d="m179.722656 321.433594c-1.507812 0-3-.679688-3.984375-1.972656-1.242187-1.640626-2.855469-2.898438-4.65625-3.640626-1.5-.621093-2.605469-1.929687-2.964843-3.511718-.363282-1.582032.070312-3.242188 1.152343-4.449219l41.011719-45.699219c1.464844-1.628906 3.832031-2.121094 5.820312-1.195312l.472657.214844c.589843.269531 1.070312.492187 1.519531.761718l17.949219 8.847656c1.707031.84375 2.789062 2.582032 2.789062 4.484376v.164062c0 1.566406-.734375 3.042969-1.980469 3.988281l-54.109374 40.988281c-.90625.6875-1.964844 1.019532-3.019532 1.019532zm35.46875-49.773438-32.597656 36.320313 41.894531-31.738281zm0 0"/><path d="m240.414062 176.046875c-.988281 0-1.960937-.058594-2.929687-.144531-1.410156-.125-2.699219-.839844-3.550781-1.964844-.851563-1.125-1.1875-2.5625-.925782-3.953125 2.113282-11.058594 2.585938-22.277344 1.410157-33.339844l-2.257813-21.789062c-.285156-2.722657 1.675782-5.167969 4.394532-5.480469 1.382812-.160156 2.648437-.238281 3.859374-.238281 18.453126 0 33.460938 15.007812 33.460938 33.457031-.003906 18.449219-15.007812 33.453125-33.460938 33.453125zm2.253907-56.804687 1.695312 16.359374c1.0625 10.011719.886719 20.144532-.527343 30.199219 11.320312-1.660156 20.039062-11.433593 20.039062-23.207031-.003906-12.175781-9.324219-22.214844-21.207031-23.351562zm0 0"/><path d="m94.074219 176.046875c-18.449219 0-33.457031-15.007813-33.457031-33.457031 0-18.449219 15.007812-33.457032 33.457031-33.457032 1.210937 0 2.476562.078126 3.859375.238282 2.71875.316406 4.679687 2.761718 4.398437 5.484375l-.269531 2.578125-2.363281 19.25c-1.171875 11.046875-.699219 22.257812 1.414062 33.316406.265625 1.394531-.074219 2.839844-.9375 3.964844-.859375 1.132812-2.160156 1.839844-3.574219 1.957031-.835937.070313-1.675781.125-2.527343.125zm-2.308594-56.796875c-11.855469 1.160156-21.148437 11.1875-21.148437 23.34375 0 11.636719 8.523437 21.328125 19.660156 23.148438-1.40625-10.039063-1.582032-20.152344-.519532-30.152344.003907-.03125.007813-.054688.007813-.082032zm0 0"/><path d="m247.367188 117.945312h-160.09375c-5.96875 0-11.140626-3.835937-12.875-9.546874l-10.359376-34.199219c-1.226562-4.042969-.484374-8.304688 2.03125-11.695313 2.515626-3.394531 6.382813-5.339844 10.609376-5.339844h181.167968c4.214844 0 8.074219 1.941407 10.59375 5.320313 2.515625 3.382813 3.265625 7.636719 2.054688 11.675781l-10.246094 34.195313c-1.691406 5.644531-6.988281 9.589843-12.882812 9.589843zm-170.691407-50.78125c-1.402343 0-2.214843.8125-2.574219 1.296876-.359374.480468-.898437 1.496093-.492187 2.835937l10.359375 34.199219c.441406 1.460937 1.769531 2.449218 3.300781 2.449218h160.09375c1.511719 0 2.871094-1.011718 3.304688-2.460937l10.246093-34.195313c.402344-1.34375-.140624-2.351562-.5-2.832031-.359374-.484375-1.171874-1.292969-2.570312-1.292969zm0 0"/><path d="m167.058594 260.1875c-3.285156 0-6.574219-.707031-9.640625-2.117188-45.289063-20.855468-73.113281-71.21875-67.664063-122.480468.464844-4.125.914063-7.617188 1.328125-10.792969.574219-4.4375 1.070313-8.269531 1.382813-12.246094.203125-2.601562 2.371094-4.609375 4.984375-4.609375h139.664062c2.636719 0 4.820313 2.046875 4.988281 4.683594.441407 6.933594 1.179688 14.410156 2.246094 22.863281 5.464844 51.363281-22.359375 101.730469-67.648437 122.582031-3.0625 1.410157-6.351563 2.117188-9.640625 2.117188zm-65.058594-142.242188c-.285156 2.613282-.625 5.253907-1 8.136719-.40625 3.125-.851562 6.558594-1.300781 10.59375-5.003907 47.03125 20.453125 93.222657 61.90625 112.3125 3.46875 1.601563 7.445312 1.597657 10.90625 0 41.457031-19.085937 66.910156-65.285156 61.90625-112.34375-.851563-6.71875-1.5-12.898437-1.957031-18.703125h-130.460938zm0 0"/><path d="m243.601562 67.164062h-152.542968c-1.574219 0-3.058594-.742187-4-2-.945313-1.261718-1.242188-2.890624-.800782-4.402343 10.449219-35.777344 43.789063-60.761719 81.070313-60.761719 37.285156 0 70.625 24.984375 81.070313 60.761719.441406 1.511719.148437 3.140625-.796876 4.402343-.945312 1.257813-2.425781 2-4 2zm-145.550781-10h138.558594c-11.101563-28.078124-38.683594-47.164062-69.28125-47.164062-30.59375 0-58.175781 19.085938-69.277344 47.164062zm0 0"/><path d="m160.613281 316.199219c-1.390625 0-2.753906-.582031-3.722656-1.660157l-40.6875-45.335937c-1.042969-1.164063-1.484375-2.75-1.191406-4.285156.289062-1.480469 1.226562-2.757813 2.550781-3.464844.332031-.191406.667969-.34375 1.03125-.507813 3.746094-1.703124 8.726562-4.78125 8.726562-11.871093v-13.621094c0-1.976563 1.164063-3.769531 2.972657-4.570313 1.804687-.804687 3.917969-.460937 5.382812.863282 7.902344 7.15625 16.625 12.960937 25.925781 17.242187 3.464844 1.597657 7.445313 1.601563 10.910157 0 9.523437-4.382812 18.417969-10.339843 26.445312-17.703125 1.457031-1.34375 3.574219-1.691406 5.390625-.894531s2.988282 2.59375 2.988282 4.578125v14.105469c0 6.953125 4.679687 10.003906 8.757812 11.886719 1.441406.667968 2.480469 1.976562 2.800781 3.53125.320313 1.554687-.117187 3.167968-1.175781 4.351562l-41.011719 45.695312c-1.414062 1.574219-3.667969 2.089844-5.625 1.28125-2.730469-1.125-5.835937-1.125-8.566406 0-.613281.253907-1.261719.378907-1.902344.378907zm6.1875-11.230469c1.5625 0 3.101563.171875 4.609375.503906l34.800782-38.78125c-7.1875-5.386718-8.875-12.308594-8.875-17.617187v-3.421875c-6.484376 4.921875-13.394532 9.082031-20.640626 12.414062-6.121093 2.824219-13.148437 2.824219-19.277343 0-7.035157-3.238281-13.765625-7.261718-20.097657-12.011718v3.019531c0 5.496093-1.785156 12.691406-9.5 18.097656l34.371094 38.300781c1.507813-.335937 3.046875-.503906 4.609375-.503906zm0 0"/><path d="m166.800781 347.46875c-11.71875 0-21.25-9.53125-21.25-21.25 0-11.714844 9.53125-21.25 21.25-21.25 11.714844 0 21.25 9.535156 21.25 21.25 0 11.71875-9.535156 21.25-21.25 21.25zm0-32.5c-6.207031 0-11.25 5.046875-11.25 11.25 0 6.207031 5.042969 11.25 11.25 11.25 6.203125 0 11.25-5.042969 11.25-11.25 0-6.203125-5.046875-11.25-11.25-11.25zm0 0"/></g></svg>