<svg height="512pt" viewBox="-81 0 512 512.01253" width="512pt" xmlns="http://www.w3.org/2000/svg"><path d="m314.195312 322.394531c-.722656-12.902343-9.746093-23.839843-22.277343-26.992187l-40.886719-10.292969-15.222656-4.367187c-10.929688-3.445313-7.5-3.183594-23.84375-10.738282-.441406-.21875-3.914063-1.929687-3.695313-1.820312-5.773437-2.847656-9.425781-8.722656-9.425781-15.160156v-11.820313l-1.335938 1.300781c-8.382812 8.164063-19.625 12.734375-31.328124 12.734375.140624 0-4.296876 0-4.535157 0-11.703125 0-22.941406-4.570312-31.328125-12.734375l-.421875-.414062v10.933594c0 6.4375-3.65625 12.3125-9.429687 15.160156-.273438.136718-4.023438 1.984375-3.804688 1.875-8.59375 3.464844-11.339844 8.097656-40.078125 15.332031l-39.765625 10.007813c-12.53125 3.152343-21.558594 14.09375-22.273437 26.992187-10.933594 196.304687-8.105469 145.554687-9.519531 170.867187-.414063 7.46875 5.527343 13.753907 13.007812 13.753907h216.335938c-7.660157 0-13.445313-5.539063-14.820313-12.078125-2.324219-11.039063 5.953125-14.230469 32.910156-53.074219.933594-1.269531 1.808594-2.574219 2.640625-3.902344.8125-1.308593 1.574219-2.648437 2.292969-4.011719 4.699219-8.910156 7.207031-18.867187 7.207031-29.035156v-39.679687h-5.371094c-5.90625 0-10.738281-4.832031-10.738281-10.738281s4.832031-10.742188 10.738281-10.742188h45.113282c5.90625 0 10.738281 4.835938 10.738281 10.742188s-4.832031 10.738281-10.738281 10.738281h-5.371094v39.679687c0 10.152344 2.5 20.09375 7.183594 28.996094.726562 1.375 1.496094 2.726562 2.320312 4.050781.832032 1.328125 1.707032 2.632813 2.640625 3.898438l10.53125 14.296875c-2.484375-44.578125-4.972656-89.238282-7.449219-133.757813zm0 0" fill="#1b87c9"/><path d="m219.546875 494.933594c-2.320313-11.035156 5.953125-14.226563 32.910156-53.074219.933594-1.265625 1.8125-2.570313 2.640625-3.898437.8125-1.3125 1.578125-2.652344 2.296875-4.011719 4.695313-8.914063 7.207031-18.867188 7.207031-29.035157v-39.679687h-5.371093c-5.910157 0-10.742188-4.835937-10.742188-10.742187s4.835938-10.738282 10.742188-10.738282h45.109375c5.910156 0 10.742187 4.832032 10.742187 10.738282s-4.835937 10.742187-10.742187 10.742187h-5.367188v39.679687c0 10.152344 2.496094 20.09375 7.183594 28.996094.722656 1.375 1.496094 2.726563 2.320312 4.050782.832032 1.328124 1.707032 2.632812 2.640626 3.898437l10.53125 14.292969c-2.484376-44.582032-4.972657-89.242188-7.449219-133.761719-.722657-12.898437-9.746094-23.839844-22.277344-26.992187l-40.886719-10.292969-15.222656-4.367188c-10.929688-3.441406-7.5-3.183593-23.84375-10.734375-.441406-.21875-3.914062-1.933594-3.695312-1.824218-2.957032-1.457032-5.347657-3.71875-6.984376-6.433594v245.265625h33.082032c-7.660156 0-13.449219-5.535157-14.824219-12.078125zm0 0" fill="#e8e6e6"/><path d="m14.542969 322.394531c.722656-12.902343 9.746093-23.839843 22.277343-26.992187l40.886719-10.292969 15.222657-4.367187c10.929687-3.445313 7.5-3.183594 23.84375-10.738282.441406-.21875 3.914062-1.929687 3.695312-1.820312 2.957031-1.460938 5.34375-3.71875 6.984375-6.4375v245.265625h-109.417969c-7.480468 0-13.421875-6.28125-13.007812-13.753907 3.164062-56.847656 6.347656-113.992187 9.515625-170.863281zm0 0" fill="#e8e6e6"/><path d="m201.285156 261.75c-1.5625-2.585938-2.445312-5.585938-2.445312-8.726562v-11.820313l-1.335938 1.300781c-8.382812 8.164063-19.621094 12.734375-31.328125 12.734375.140625 0-4.296875 0-4.53125 0-11.703125 0-22.945312-4.570312-31.328125-12.734375l-.425781-.414062v10.933594c0 3.140624-.882813 6.140624-2.441406 8.730468 0-.003906 0-.003906.003906-.003906v14.589844l37.832031 50.671875 36-49.089844zm0 0" fill="#fcb275"/><path d="m315.078125 354.496094c0-5.910156-4.832031-10.742188-10.738281-10.742188h-45.113282c-5.90625 0-10.738281 4.835938-10.738281 10.742188s4.832031 10.738281 10.738281 10.738281h45.113282c5.90625 0 10.738281-4.832031 10.738281-10.738281zm0 0" fill="#49c3f2"/><path d="m247.03125 56.664062c-18.445312-44.523437-49.550781-55.492187-83.234375-50.5625-33.683594-4.929687-64.789063 6.039063-83.234375 50.5625-21.773438 52.558594-44.742188 60.71875-17.898438 116.328126 6.722657 13.925781 7.488282 22.914062 6.253907 28.605468-1.015625 4.703125 2.730469 9.105469 7.542969 9.105469h21.378906c-7.957032-8.9375-11.90625-20.8125-10.789063-32.824219l.804688-9.136718c-11.847657-1.402344-21.042969-11.464844-21.042969-23.691407 0-13.183593 10.6875-23.871093 23.875-23.871093.453125 0 .898438.039062 1.347656.066406l.207032-2.394532c5.945312-5.808593 15.96875-10.402343 29.960937-9.609374 42.773437 2.429687 64.898437-21.152344 71.816406-30.292969 1.054688-1.398438 3.214844-1.046875 3.8125.597656 9.664063 26.542969 27.109375 34.40625 37.53125 36.71875l.429688 4.921875c.042969 0 .082031-.007812.125-.007812 13.1875 0 23.875 10.6875 23.875 23.875 0 11.804687-8.578125 21.582031-19.835938 23.503906l.820313 9.324218c1.121094 12.007813-2.828125 23.882813-10.789063 32.824219h21.148438c4.8125 0 8.5625-4.402343 7.539062-9.105469-1.230469-5.695312-.464843-14.683593 6.257813-28.605468 26.839844-55.613282 3.871094-63.773438-17.902344-116.332032zm0 0" fill="#7c292e"/><path d="m153.566406 336.601562v170.410157h22.6875v-171.023438l-10.96875-8.976562zm0 0" fill="#30a9e5"/><path d="m201.285156 277.921875-36 49.089844 36 29.453125zm0 0" fill="#49c3f2"/><path d="m127.453125 276.339844v81.625l37.832031-30.953125zm0 0" fill="#49c3f2"/><path d="m219.546875 494.933594c-1.882813-8.949219 4.832031-14.242188 6.785156-17.617188l10.953125-86.304687-16-20 20-32-20.21875-64.617188c-2.152344-1.09375-5.003906-2.496093-9.101562-4.390625-.441406-.21875-3.917969-1.929687-3.695313-1.820312-2.960937-1.460938-5.347656-3.71875-6.988281-6.4375v245.265625h21.277344l.628906-4.929688c-1.816406-2.015625-3.082031-4.492187-3.640625-7.148437zm0 0" fill="#e8e6e6"/><path d="m91.453125 391.011719 16-20-20-32 20.214844-64.617188c2.152343-1.09375 5.003906-2.496093 9.105469-4.390625.441406-.21875 3.914062-1.929687 3.695312-1.820312 2.957031-1.460938 5.34375-3.71875 6.984375-6.4375v245.265625h-21.28125zm0 0" fill="#e8e6e6"/><path d="m341.371094 482.929688-30.257813-41.070313c-7.890625-10.703125-12.144531-23.648437-12.144531-36.945313v-39.679687h-34.367188v39.679687c0 13.296876-4.253906 26.242188-12.144531 36.945313l-30.257812 41.070313c-7.355469 9.980468-.230469 24.082031 12.167969 24.082031h94.835937c12.398437 0 19.523437-14.101563 12.167969-24.082031zm0 0" fill="#30a9e5"/><path d="m281.785156 507.011719h47.417969c12.398437 0 19.523437-14.101563 12.167969-24.082031l-30.257813-41.066407c-1.867187-2.53125-3.507812-5.195312-4.960937-7.949219h-48.734375c-1.449219 2.753907-3.097657 5.417969-4.960938 7.949219l-30.257812 41.066407c-7.355469 9.984374-.230469 24.085937 12.167969 24.085937h47.417968zm0 0" fill="#fcbd4c"/><path d="m299.285156 479.011719c0 4.417969-3.582031 8-8 8-4.417968 0-8-3.582031-8-8s3.582032-8 8-8c4.417969 0 8 3.582031 8 8zm0 0" fill="#f9d498"/><path d="m235.359375 116.261719c-10.421875-2.308594-27.867187-10.171875-37.53125-36.71875-.597656-1.640625-2.757813-1.992188-3.8125-.597657-6.917969 9.140626-29.042969 32.722657-71.816406 30.296876-13.992188-.796876-24.015625 3.800781-29.960938 9.609374l-5.1875 59.027344c-1.21875 13.035156 3.527344 25.921875 12.910157 35.058594l30.355468 29.566406c8.386719 8.164063 19.625 12.734375 31.328125 12.734375.238281 0 4.675781 0 4.535157 0 11.703124 0 22.945312-4.570312 31.328124-12.734375l30.359376-29.566406c9.378906-9.136719 14.125-22.023438 12.910156-35.058594zm0 0" fill="#fcb275"/><path d="m92.03125 121.246094c-.449219-.027344-.894531-.066406-1.347656-.066406-13.1875 0-23.875 10.6875-23.875 23.871093 0 12.226563 9.195312 22.289063 21.042968 23.691407zm0 0" fill="#fcb275"/><path d="m235.914062 121.179688c-.042968 0-.082031.003906-.125.003906l4.164063 47.375c11.257813-1.921875 19.835937-11.703125 19.835937-23.507813 0-13.183593-10.6875-23.871093-23.875-23.871093zm0 0" fill="#fcb275"/><path d="m222.386719 127.011719h-117.199219c-7.371094 0-13.402344 6.03125-13.402344 13.402343v9.769532c0 18.664062 13.878906 34.855468 32.457032 36.65625 14.972656 1.453125 28.371093-6.417969 35.054687-18.472656 1.992187-3.589844 6.988281-3.589844 8.980469 0 6.683594 12.054687 20.082031 19.925781 35.050781 18.472656 18.578125-1.800782 32.457031-17.992188 32.457031-36.65625v-9.769532c0-7.371093-6.03125-13.402343-13.398437-13.402343zm0 0" fill="#f9d498"/><g fill="#231f20"><path d="m234.367188 512.011719h-216.332032c-4.933594 0-9.710937-2.054688-13.097656-5.640625-3.390625-3.582032-5.179688-8.460938-4.9023438-13.386719l9.5156248-170.867187c.84375-15.171876 11.3125-27.855469 26.046875-31.566407l39.765625-10.007812c20.246094-5.09375 27.042969-8.777344 32.507813-11.734375 2.160156-1.171875 4.203125-2.277344 6.742187-3.308594l3.640625-1.796875c4.097656-2.019531 6.640625-6.109375 6.640625-10.675781v-10.933594c0-2.011719 1.207031-3.828125 3.058594-4.609375 1.855469-.78125 3.996094-.375 5.433594 1.03125l.425781.414063c7.488281 7.292968 17.375 11.3125 27.832031 11.3125h4.539063c10.457031 0 20.34375-4.023438 27.835937-11.316407l1.335938-1.300781c1.441406-1.402344 3.582031-1.800781 5.433593-1.027344 1.851563.785156 3.054688 2.597656 3.054688 4.609375v11.820313c0 4.566406 2.542969 8.65625 6.636719 10.675781.171875.082031.335937.175781.488281.277344.871094.386719 1.914062.902343 3.214844 1.546875 6.546875 3.027344 9.949218 4.8125 12.433594 6.117187 3.421874 1.796875 4.578124 2.402344 10.691406 4.328125l15.101562 4.332032 40.730469 10.25c14.734375 3.707031 25.199219 16.394531 26.046875 31.5625v.003906l7.449219 133.757812c.121093 2.210938-1.21875 4.234375-3.300781 4.984375-2.078126.746094-4.410157.042969-5.71875-1.742187l-10.53125-14.289063c-.972657-1.320312-1.90625-2.699219-2.851563-4.214843-.882813-1.417969-1.722656-2.882813-2.507813-4.375-5.074218-9.644532-7.757812-20.476563-7.757812-31.324219v-39.679688c0-2.761719 2.238281-5 5-5h5.371094c3.164062 0 5.742187-2.574219 5.742187-5.738281 0-3.167969-2.578125-5.742188-5.742187-5.742188h-45.113282c-3.164062 0-5.738281 2.574219-5.738281 5.742188 0 3.164062 2.574219 5.738281 5.738281 5.738281h5.375c2.761719 0 5 2.238281 5 5v39.679688c0 10.863281-2.695312 21.707031-7.785156 31.367187-.785156 1.488282-1.617187 2.945313-2.472656 4.320313-.960938 1.539062-1.894531 2.917969-2.863281 4.226562-9.378907 13.523438-16.546875 22.789063-21.785157 29.550781-9.875 12.761719-11.230468 14.898438-10.253906 19.527344.847656 4.027344 4.527344 8.105469 9.925782 8.105469 2.761718 0 5 2.238281 5 5s-2.238282 4.996094-5 4.996094zm-115.84375-237.328125.007812.015625c-2.09375.84375-3.859375 1.796875-5.898438 2.902343-5.957031 3.226563-13.367187 7.238282-34.828124 12.640626l-39.765626 10.007812c-10.46875 2.632812-17.902343 11.644531-18.503906 22.421875l-9.515625 170.867187c-.125 2.226563.652344 4.34375 2.183594 5.960938 1.53125 1.621094 3.601563 2.511719 5.832031 2.511719h198.964844c-1.085938-1.839844-1.886719-3.875-2.34375-6.046875-1.992188-9.453125 2.144531-14.792969 12.132812-27.703125 5.167969-6.679688 12.242188-15.824219 21.5625-29.25.894532-1.222657 1.691407-2.394531 2.507813-3.707031.722656-1.164063 1.4375-2.40625 2.113281-3.6875 4.335938-8.226563 6.628906-17.457032 6.628906-26.703126v-34.679687h-.375c-8.675781 0-15.738281-7.0625-15.738281-15.742187 0-8.679688 7.0625-15.742188 15.738281-15.742188h45.113282c2.054687 0 4.019531.398438 5.820312 1.117188l-.957031-17.195313c-.601563-10.78125-8.039063-19.792969-18.503906-22.421875l-40.890625-10.292969-15.378906-4.414062c-7.09375-2.230469-8.777344-3.117188-12.460938-5.050781-2.390625-1.253907-5.660156-2.972657-12.097656-5.949219l-3.8125-1.875c-.003906-.003907-.007813-.007813-.015625-.007813-7.523438-3.71875-12.199219-11.242187-12.199219-19.636718v-1.144532c-8.132812 5.4375-17.691406 8.359375-27.664062 8.359375h-4.535157c-9.601562 0-18.820312-2.707031-26.75-7.761719v.546876c0 8.402343-4.683593 15.929687-12.21875 19.644531l-3.53125 1.742187c-.050781.023438-.101562.046875-.148437.070313-.039063.023437-.082032.042969-.121094.0625l-.003906-.007813c-.117188.058594-.234375.101563-.347656.148438zm185.445312 95.550781v34.679687c0 9.234376 2.285156 18.453126 6.609375 26.667969.671875 1.277344 1.390625 2.535157 2.140625 3.738281.804688 1.289063 1.597656 2.460938 2.417969 3.574219l.582031.789063-3.972656-71.300782c-2.207032 1.183594-4.730469 1.855469-7.40625 1.855469h-.371094zm0 0"/><path d="m165.285156 332.011719c-1.578125 0-3.0625-.742188-4.007812-2.007813l-37.832032-50.671875c-.644531-.867187-.992187-1.914062-.992187-2.992187v-14.589844c0-.910156.246094-1.800781.714844-2.582031 1.128906-1.871094 1.726562-3.992188 1.726562-6.144531v-10.933594c0-2.011719 1.207031-3.828125 3.058594-4.605469 1.855469-.785156 3.996094-.378906 5.433594 1.03125l.425781.414063c7.488281 7.289062 17.375 11.308593 27.832031 11.308593h4.539063c10.457031 0 20.34375-4.019531 27.835937-11.316406l1.335938-1.300781c1.441406-1.402344 3.582031-1.800782 5.433593-1.023438 1.851563.78125 3.054688 2.597656 3.054688 4.605469v11.820313c0 2.152343.597656 4.273437 1.722656 6.140624.472656.78125.71875 1.675782.71875 2.585938v16.171875c0 1.0625-.335937 2.101563-.96875 2.957031l-36 49.089844c-.9375 1.28125-2.425781 2.039062-4.007812 2.042969-.007813 0-.015625 0-.023438 0zm-32.832031-57.332031 32.792969 43.925781 31.039062-42.320313v-13.238281c-1.601562-3.105469-2.445312-6.542969-2.445312-10.023437v-1.140626c-8.128906 5.4375-17.6875 8.359376-27.664063 8.359376h-4.53125c-9.605469 0-18.824219-2.710938-26.753906-7.761719v.542969c0 3.480468-.839844 6.914062-2.441406 10.019531v11.636719zm0 0"/><path d="m62.957031 509.210938c-2.761719 0-5-2.238282-5-5v-110.667969c0-2.761719 2.238281-5 5-5s5 2.238281 5 5v110.667969c0 2.761718-2.238281 5-5 5zm0 0"/><path d="m304.339844 370.234375h-45.113282c-8.679687 0-15.738281-7.058594-15.738281-15.738281 0-8.679688 7.058594-15.742188 15.738281-15.742188h45.113282c8.679687 0 15.742187 7.0625 15.742187 15.742188 0 8.679687-7.0625 15.738281-15.742187 15.738281zm-45.113282-21.480469c-3.164062 0-5.738281 2.574219-5.738281 5.742188 0 3.164062 2.574219 5.738281 5.738281 5.738281h45.113282c3.164062 0 5.742187-2.574219 5.742187-5.738281 0-3.167969-2.578125-5.742188-5.742187-5.742188zm0 0"/><path d="m273.277344 464.011719c-1.300782 0-2.601563-.542969-3.523438-1.460938-.238281-.238281-.4375-.5-.617187-.757812-.179688-.28125-.339844-.558594-.460938-.859375-.140625-.300782-.21875-.625-.300781-.941406-.058594-.320313-.097656-.660157-.097656-.980469 0-.320313.039062-.660157.097656-.980469.082031-.320312.160156-.640625.300781-.9375.121094-.300781.261719-.582031.441407-.863281.199218-.28125.398437-.519531.636718-.761719 1.863282-1.859375 5.203125-1.859375 7.0625 0 .238282.242188.4375.480469.621094.761719.179688.28125.339844.558593.457031.863281.140625.296875.222657.617188.300781.9375.058594.320312.101563.660156.101563.980469 0 .320312-.042969.660156-.101563.980469-.078124.316406-.160156.636718-.300781.941406-.117187.296875-.277343.578125-.457031.859375-.183594.257812-.382812.519531-.621094.757812-.21875.222657-.480468.445313-.761718.625-.257813.179688-.558594.339844-.859376.457031-.300781.121094-.621093.21875-.941406.28125-.316406.054688-.636718.097657-.976562.097657zm0 0"/><path d="m137.597656 163.664062c-3.316406 0-6-2.6875-6-6v-1.101562c0-3.3125 2.683594-6 6-6 3.3125 0 6 2.6875 6 6v1.101562c0 3.3125-2.6875 6-6 6zm0 0"/><path d="m190.246094 164.503906c-3.3125 0-6-2.683594-6-6v-1.097656c0-3.316406 2.6875-6 6-6 3.316406 0 6 2.683594 6 6v1.097656c0 3.316406-2.6875 6-6 6zm0 0"/><path d="m251.132812 215.703125h-21.148437c-1.96875 0-3.757813-1.15625-4.5625-2.953125s-.480469-3.898438.828125-5.375c7.046875-7.914062 10.53125-18.496094 9.546875-29.03125l-.824219-9.347656c-.226562-2.59375 1.574219-4.929688 4.140625-5.367188 9.082031-1.550781 15.675781-9.367187 15.675781-18.582031 0-10.371094-8.410156-18.8125-18.769531-18.871094-.082031.003907-.164062.003907-.230469.003907-2.589843 0-4.753906-1.980469-4.980468-4.5625l-.121094-1.417969c-10.511719-3.1875-26.046875-11.707031-35.773438-34.441407-10.128906 11.625-33.058593 30.746094-72.996093 28.472657-13.042969-.746094-20.84375 3.625-24.867188 7.003906l-.042969.449219c-.234374 2.6875-2.546874 4.703125-5.261718 4.550781l-.449219-.03125c-.203125-.011719-.40625-.03125-.613281-.03125-10.40625 0-18.875 8.464844-18.875 18.875 0 9.550781 7.152344 17.605469 16.632812 18.726563 2.683594.316406 4.628906 2.710937 4.390625 5.402343l-.804687 9.132813c-.984375 10.5625 2.496094 21.148437 9.542968 29.0625 1.3125 1.472656 1.636719 3.574218.828126 5.375-.804688 1.792968-2.589844 2.953125-4.5625 2.953125h-21.375c-3.878907 0-7.5-1.734375-9.933594-4.753907-2.378906-2.949218-3.289063-6.746093-2.492188-10.410156.898438-4.164062.613282-11.941406-5.871094-25.375-21.28125-44.082031-12.394531-60.800781 2.324219-88.5 4.753907-8.949218 10.140625-19.085937 15.457031-31.914062 17.152344-41.398438 46.703126-59.464844 87.851563-53.695313 41.160156-5.777343 70.699219 12.300781 87.855469 53.703125 5.316406 12.828125 10.703125 22.964844 15.457031 31.914063 14.71875 27.699219 23.605469 44.417969 2.324219 88.5-6.484375 13.433593-6.769532 21.210937-5.871094 25.375.796875 3.664062-.113281 7.460937-2.492188 10.410156-2.4375 3.015625-6.0625 4.75-9.9375 4.75zm-11.460937-10h11.460937c.835938 0 1.621094-.375 2.152344-1.03125.277344-.34375.707032-1.058594.5-2.015625-1.792968-8.289062.441406-18.996094 6.636719-31.835938 19.078125-39.519531 11.984375-52.867187-2.144531-79.460937-4.859375-9.144531-10.367188-19.507813-15.867188-32.78125-15.488281-37.386719-40.972656-52.933594-77.886718-47.53125-.480469.070313-.96875.070313-1.453126 0-36.917968-5.410156-62.398437 10.140625-77.886718 47.53125-5.5 13.273437-11.007813 23.632813-15.867188 32.78125-14.128906 26.59375-21.226562 39.941406-2.148437 79.460937 6.199219 12.839844 8.433593 23.546876 6.640625 31.835938-.207032.957031.226562 1.671875.5 2.015625.527344.65625 1.316406 1.03125 2.152344 1.03125h11.691406c-4.820313-8.527344-7-18.421875-6.082032-28.289063l.414063-4.683593c-12.070313-3.558594-20.671875-14.714844-20.671875-27.679688 0-14.996093 11.488281-27.355469 26.125-28.746093.21875-.375.492188-.71875.808594-1.03125 4.671875-4.566407 15.261718-12.058594 33.738281-11.027344 39.898437 2.269531 60.53125-19.046875 67.542969-28.316406 1.585937-2.097657 4.195312-3.152344 6.789062-2.773438 2.617188.390625 4.804688 2.1875 5.710938 4.675781 8.519531 23.40625 23.144531 31.160157 33.910156 33.546875 2.128906.46875 3.707031 2.269532 3.898438 4.445313l.0625.699219c13.800781 2.160156 24.390624 14.128906 24.390624 28.527343 0 12.527344-7.960937 23.363281-19.484374 27.292969l.449218 5.097656c.917969 9.847656-1.261718 19.738282-6.082031 28.261719zm0 0"/><path d="m163.980469 219.984375c-8.871094 0-17.132813-4.394531-22.105469-11.753906-1.546875-2.289063-.941406-5.394531 1.34375-6.941407 2.289062-1.546874 5.398438-.945312 6.941406 1.34375 3.109375 4.601563 8.277344 7.351563 13.820313 7.351563s10.710937-2.75 13.820312-7.351563c1.542969-2.289062 4.648438-2.890624 6.941407-1.34375 2.289062 1.542969 2.890624 4.652344 1.34375 6.941407-4.964844 7.359375-13.230469 11.753906-22.105469 11.753906zm0 0"/><path d="m176.253906 512.011719h-22.6875c-2.761718 0-5-2.238281-5-5v-170.410157c0-1.5.671875-2.921874 1.832032-3.871093l11.71875-9.589844c1.84375-1.507813 4.492187-1.507813 6.332031 0l10.96875 8.976563c1.160156.949218 1.832031 2.371093 1.832031 3.871093v171.023438c.003906 2.761719-2.234375 5-4.996094 5zm-17.6875-10h12.6875v-163.65625l-5.96875-4.882813-6.71875 5.496094zm0 0"/><path d="m201.285156 361.46875c-1.132812 0-2.253906-.382812-3.164062-1.128906l-36-29.457032c-2.058594-1.683593-2.4375-4.683593-.867188-6.828124l36-49.089844c1.277344-1.742188 3.53125-2.46875 5.585938-1.792969 2.054687.671875 3.445312 2.589844 3.445312 4.753906v78.542969c0 1.933594-1.113281 3.691406-2.859375 4.519531-.683593.320313-1.414062.480469-2.140625.480469zm-29.164062-35.324219 24.164062 19.773438v-52.722657zm0 0"/><path d="m127.453125 362.964844c-.726563 0-1.460937-.15625-2.140625-.480469-1.746094-.824219-2.859375-2.585937-2.859375-4.519531v-81.621094c0-2.15625 1.378906-4.066406 3.425781-4.746094 2.046875-.679687 4.292969.03125 5.582032 1.753906l37.832031 50.671876c1.601562 2.144531 1.230469 5.167968-.839844 6.859374l-37.832031 30.957032c-.914063.742187-2.035156 1.125-3.167969 1.125zm5-71.570313v56.019531l25.960937-21.242187zm0 0"/><path d="m222.5625 512.011719h-21.277344c-2.761718 0-5-2.238281-5-5v-245.261719c0-2.246094 1.496094-4.214844 3.660156-4.816406 2.160157-.609375 4.460938.308594 5.621094 2.234375 1.183594 1.957031 2.882813 3.527343 4.910156 4.53125.003907 0 .007813 0 .007813.003906.171875.082031.335937.175781.492187.277344.871094.386719 1.914063.902343 3.210938 1.546875 3.355469 1.546875 6.386719 3.011718 9.144531 4.410156 1.203125.609375 2.105469 1.679688 2.503907 2.964844l20.21875 64.617187c.4375 1.390625.242187 2.90625-.53125 4.144531l-18.121094 28.992188 13.785156 17.230469c.847656 1.058593 1.226562 2.410156 1.054688 3.753906l-10.949219 86.304687c-.085938.660157-.300781 1.300782-.636719 1.875-.609375 1.054688-1.402344 2.058594-2.242188 3.121094-2.90625 3.671875-4.890624 6.609375-3.976562 10.960938.375 1.792968 1.226562 3.460937 2.460938 4.832031.976562 1.078125 1.429687 2.53125 1.246093 3.972656l-.621093 4.929688c-.316407 2.5-2.441407 4.375-4.960938 4.375zm-16.277344-10h10.695313c-1.089844-1.875-1.875-3.917969-2.328125-6.046875-1.949219-9.277344 2.976562-15.503906 5.917968-19.222656.332032-.421876.671876-.851563.949219-1.222657l10.539063-83.035156-14.679688-18.347656c-1.324218-1.65625-1.460937-3.972657-.335937-5.773438l18.78125-30.050781-18.898438-60.398438c-2.136719-1.058593-4.464843-2.167968-7.058593-3.367187l-3.582032-1.765625zm0 0"/><path d="m127.453125 512.011719h-21.28125c-2.515625 0-4.640625-1.875-4.957031-4.371094l-14.722656-116c-.171876-1.34375.210937-2.695313 1.054687-3.753906l13.785156-17.230469-18.121093-28.992188c-.773438-1.238281-.96875-2.753906-.53125-4.144531l20.21875-64.617187c.402343-1.289063 1.304687-2.355469 2.507812-2.964844 2.808594-1.425781 5.753906-2.847656 9.265625-4.46875 1.246094-.617188 2.25-1.117188 3.097656-1.496094.152344-.097656.316407-.1875.484375-.273437l.027344.054687-.027344-.054687c2.03125-1 3.730469-2.570313 4.914063-4.53125 1.160156-1.925781 3.464843-2.84375 5.625-2.234375 2.164062.601562 3.660156 2.570312 3.660156 4.816406v245.261719c0 2.761719-2.238281 5-5 5zm-16.875-10h11.875v-229.230469l-3.460937 1.707031c-2.714844 1.257813-5.027344 2.359375-7.179688 3.425781l-18.898438 60.398438 18.78125 30.050781c1.125 1.800781.992188 4.117188-.335937 5.773438l-14.675781 18.347656zm0 0"/><path d="m234.367188 512.011719h-33.082032c-2.761718 0-5-2.238281-5-5v-245.261719c0-2.246094 1.496094-4.214844 3.660156-4.816406 2.160157-.609375 4.460938.308594 5.621094 2.234375 1.183594 1.957031 2.882813 3.527343 4.910156 4.53125.003907 0 .007813 0 .007813.003906.171875.082031.335937.175781.492187.277344.871094.386719 1.914063.902343 3.210938 1.546875 6.546875 3.023437 9.949219 4.808594 12.429688 6.113281 3.425781 1.800781 4.578124 2.40625 10.695312 4.332031l15.097656 4.332032 40.730469 10.246093c14.734375 3.710938 25.203125 16.394531 26.046875 31.566407l7.449219 133.761718c.125 2.207032-1.21875 4.234375-3.300781 4.980469-2.082032.75-4.40625.042969-5.714844-1.738281l-10.535156-14.292969c-.96875-1.320313-1.902344-2.699219-2.851563-4.210937-.878906-1.417969-1.71875-2.882813-2.503906-4.375-5.078125-9.644532-7.757813-20.476563-7.757813-31.324219v-39.679688c0-2.765625 2.238282-5 5-5h5.367188c3.167968 0 5.742187-2.574219 5.742187-5.742187 0-3.164063-2.574219-5.742188-5.742187-5.742188h-45.109375c-3.167969 0-5.742188 2.578125-5.742188 5.742188 0 3.167968 2.578125 5.742187 5.742188 5.742187h5.371093c2.761719 0 5 2.234375 5 5v39.679688c0 10.863281-2.691406 21.707031-7.78125 31.367187-.785156 1.488282-1.617187 2.941406-2.472656 4.316406-.964844 1.539063-1.898437 2.917969-2.863281 4.226563-9.382813 13.527344-16.550781 22.789063-21.785156 29.554687-9.878907 12.757813-11.230469 14.898438-10.257813 19.523438.847656 4.03125 4.53125 8.109375 9.929688 8.109375 2.761718 0 5 2.238281 5 5s-2.242188 4.996094-5.003906 4.996094zm-28.082032-10h10.710938c-1.082032-1.839844-1.882813-3.875-2.34375-6.046875-1.988282-9.453125 2.144531-14.792969 12.132812-27.703125 5.167969-6.679688 12.246094-15.824219 21.5625-29.25.898438-1.222657 1.691406-2.394531 2.511719-3.707031.722656-1.164063 1.4375-2.40625 2.109375-3.6875 4.335938-8.226563 6.628906-17.457032 6.628906-26.703126v-34.679687h-.371094c-8.679687 0-15.742187-7.0625-15.742187-15.742187 0-8.679688 7.0625-15.742188 15.742187-15.742188h45.109376c2.054687 0 4.019531.398438 5.820312 1.117188l-.957031-17.195313c-.601563-10.78125-8.039063-19.792969-18.503907-22.421875l-40.886718-10.292969-15.382813-4.414062c-7.09375-2.230469-8.777343-3.117188-12.460937-5.050781-2.390625-1.253907-5.660156-2.972657-12.097656-5.949219l-3.585938-1.765625v229.234375zm97.683594-131.777344v34.679687c0 9.234376 2.285156 18.453126 6.609375 26.667969.671875 1.277344 1.390625 2.535157 2.140625 3.738281.804688 1.289063 1.597656 2.460938 2.417969 3.574219l.582031.789063-3.972656-71.300782c-2.207032 1.183594-4.730469 1.855469-7.40625 1.855469h-.371094zm0 0"/><path d="m127.453125 512.011719h-109.417969c-4.933594 0-9.707031-2.054688-13.097656-5.640625-3.390625-3.582032-5.179688-8.460938-4.9023438-13.386719l9.5156248-170.867187c.84375-15.171876 11.3125-27.855469 26.046875-31.566407l40.886719-10.289062 15.0625-4.328125c5.996094-1.886719 7.148437-2.492188 10.570313-4.292969 2.484374-1.300781 5.882812-3.089844 12.554687-6.171875 1.246094-.617188 2.25-1.117188 3.09375-1.496094.15625-.097656.316406-.1875.484375-.273437l.027344.054687-.027344-.054687c2.035156-1 3.734375-2.570313 4.917969-4.53125 1.160156-1.925781 3.460937-2.84375 5.621093-2.234375 2.164063.601562 3.660157 2.570312 3.660157 4.816406v245.261719c.003906 2.761719-2.234375 5-4.996094 5zm-107.917969-189.339844-9.515625 170.863281c-.125 2.226563.652344 4.347656 2.183594 5.964844s3.601563 2.511719 5.832031 2.511719h104.417969v-229.230469l-3.460937 1.707031c-6.566407 3.035157-9.835938 4.753907-12.21875 6.007813-3.6875 1.9375-5.371094 2.820312-12.339844 5.015625l-15.347656 4.40625-41.042969 10.335937c-10.472657 2.628906-17.90625 11.640625-18.507813 22.417969zm0 0"/><path d="m329.203125 512.011719h-94.835937c-7.632813 0-14.511719-4.230469-17.957032-11.042969-3.441406-6.8125-2.765625-14.863281 1.761719-21.007812l30.261719-41.066407c7.304687-9.914062 11.167968-21.660156 11.167968-33.976562v-39.679688c0-2.765625 2.234376-5 5-5h34.367188c2.761719 0 5 2.234375 5 5v39.679688c0 12.3125 3.863281 24.0625 11.167969 33.976562l30.257812 41.066407c4.527344 6.144531 5.203125 14.195312 1.761719 21.007812s-10.324219 11.042969-17.953125 11.042969zm-59.601563-141.777344v34.679687c0 14.464844-4.539062 28.269532-13.121093 39.914063l-30.257813 41.066406c-2.3125 3.136719-2.644531 7.085938-.886718 10.5625 1.757812 3.476563 5.132812 5.554688 9.03125 5.554688h94.835937c3.898437 0 7.269531-2.078125 9.027344-5.554688 1.757812-3.476562 1.425781-7.425781-.882813-10.5625l-30.261718-41.066406c-8.582032-11.648437-13.117188-25.449219-13.117188-39.914063v-34.679687zm0 0"/><path d="m329.203125 512.011719h-94.835937c-7.632813 0-14.511719-4.230469-17.957032-11.042969-3.441406-6.8125-2.765625-14.863281 1.761719-21.007812l30.261719-41.066407c1.648437-2.234375 3.183594-4.695312 4.558594-7.3125.898437-1.707031 2.703124-2.695312 4.570312-2.667969h48.589844c1.855468 0 3.558594 1.027344 4.421875 2.671876 1.375 2.609374 2.910156 5.070312 4.558593 7.308593l30.261719 41.066407c4.527344 6.144531 5.203125 14.195312 1.757813 21.007812-3.4375 6.8125-10.320313 11.042969-17.949219 11.042969zm-68.84375-73.101563c-1.210937 2.078125-2.507813 4.058594-3.878906 5.917969l-30.257813 41.066406c-2.3125 3.136719-2.640625 7.085938-.882812 10.5625 1.757812 3.476563 5.132812 5.554688 9.03125 5.554688h94.832031c3.898437 0 7.273437-2.078125 9.03125-5.554688 1.753906-3.476562 1.425781-7.425781-.886719-10.5625l-30.261718-41.066406c-1.367188-1.863281-2.667969-3.84375-3.875-5.917969zm0 0"/><path d="m291.285156 492.011719c-7.167968 0-13-5.832031-13-13s5.832032-13 13-13c7.167969 0 13 5.832031 13 13s-5.832031 13-13 13zm0-16c-1.65625 0-3 1.347656-3 3 0 1.65625 1.34375 3 3 3 1.652344 0 3-1.34375 3-3 0-1.652344-1.347656-3-3-3zm0 0"/><path d="m166.179688 260.238281h-4.535157c-13.078125 0-25.441406-5.027343-34.816406-14.152343l-30.355469-29.566407c-10.515625-10.238281-15.761718-24.492187-14.402344-39.105469l5.1875-59c.105469-1.191406.632813-2.304687 1.488282-3.136718 4.671875-4.566406 15.261718-12.0625 33.738281-11.027344 39.898437 2.265625 60.53125-19.050781 67.542969-28.320312 1.585937-2.097657 4.195312-3.152344 6.789062-2.769532 2.617188.390625 4.804688 2.183594 5.710938 4.675782 8.519531 23.402343 23.144531 31.160156 33.914062 33.542968 2.128906.472656 3.707032 2.273438 3.894532 4.445313l5.417968 61.617187c1.359375 14.585938-3.886718 28.839844-14.402344 39.078125l-30.359374 29.566407c-9.367188 9.128906-21.734376 14.152343-34.8125 14.152343zm-69.128907-139-5.019531 57.078125c-1.082031 11.617188 3.078125 22.921875 11.417969 31.039063l30.355469 29.566406c7.496093 7.296875 17.382812 11.316406 27.839843 11.316406h4.539063c10.457031 0 20.34375-4.019531 27.835937-11.316406l30.359375-29.566406c8.335938-8.117188 12.5-19.421875 11.417969-31.011719l-5.109375-58.140625c-10.511719-3.1875-26.046875-11.707031-35.777344-34.441406-10.128906 11.625-33.0625 30.738281-72.992187 28.472656-13.042969-.746094-20.84375 3.625-24.867188 7.003906zm0 0"/><path d="m87.855469 173.742188c-.199219 0-.394531-.011719-.589844-.035157-14.511719-1.714843-25.457031-14.039062-25.457031-28.65625 0-15.921875 12.957031-28.875 28.875-28.875.4375 0 .867187.027344 1.292968.054688l.335938.023437c1.347656.074219 2.609375.695313 3.496094 1.71875.886718 1.023438 1.320312 2.363282 1.199218 3.707032l-4.175781 47.496093c-.117187 1.347657-.777343 2.589844-1.824219 3.441407-.894531.734374-2.011718 1.125-3.152343 1.125zm-1.320313-47.105469c-8.417968 1.894531-14.726562 9.433593-14.726562 18.414062 0 7.765625 4.722656 14.535157 11.578125 17.398438zm0 0"/><path d="m239.957031 173.558594c-1.097656 0-2.171875-.363282-3.054687-1.042969-1.105469-.851563-1.804688-2.128906-1.925782-3.519531l-4.167968-47.378906c-.121094-1.394532.347656-2.78125 1.292968-3.8125.902344-.984376 2.164063-1.566407 3.496094-1.621094.105469-.003906.230469-.007813.316406-.007813 15.921876 0 28.875 12.953125 28.875 28.871094 0 14.105469-10.089843 26.0625-23.988281 28.4375-.28125.050781-.566406.074219-.84375.074219zm1.359375-46.59375 3.074219 34.945312c6.25-3.121094 10.398437-9.546875 10.398437-16.859375 0-8.527343-5.6875-15.753906-13.472656-18.085937zm0 0"/><path d="m199.839844 192.007812c-14.816406 0-28.628906-8.035156-35.9375-21.214843l-4.605469-2.425781 4.371094 2.425781c-7.957031 14.351562-23.625 22.613281-39.90625 21.027343-20.734375-2.011718-36.976563-20.296874-36.976563-41.636718v-9.769532c0-10.144531 8.253906-18.398437 18.402344-18.398437h117.199219c10.148437 0 18.402343 8.253906 18.402343 18.398437v9.769532c0 21.339844-16.242187 39.625-36.976562 41.636718-1.332031.125-2.65625.1875-3.972656.1875zm-36.054688-31.332031c3.664063 0 7.058594 2.015625 8.863282 5.265625 6.023437 10.867188 17.886718 17.128906 30.199218 15.921875 15.667969-1.519531 27.9375-15.433593 27.9375-31.679687v-9.773438c0-4.628906-3.765625-8.398437-8.398437-8.398437h-117.203125c-4.632813 0-8.398438 3.769531-8.398438 8.398437v9.773438c0 16.246094 12.273438 30.160156 27.941406 31.679687 12.316407 1.191407 24.167969-5.054687 30.195313-15.921875 1.800781-3.246094 5.199219-5.265625 8.863281-5.265625zm0 0"/></g></svg>