<svg height="512pt" viewBox="-81 0 511 512" width="512pt" xmlns="http://www.w3.org/2000/svg"><path d="m107.945312 371-20-32 20.148438-64.390625c-5.421875 2.820313-13.25 6.296875-31.015625 10.769531l-39.765625 10.007813c-12.53125 3.15625-21.558594 14.09375-22.273438 26.996093-10.9375 196.300782-8.109374 145.550782-9.519531 170.863282-.417969 7.46875 5.527344 13.753906 13.007813 13.753906h88.140625l-14.722657-116zm0 0" fill="#e8e6e6"/><path d="m314.6875 322.382812c-.71875-12.902343-9.742188-23.839843-22.277344-26.996093l-40.886718-10.289063-15.222657-4.371094c-8.1875-2.578124-8.316406-3.078124-14.742187-6.34375l20.21875 64.617188-20 32 16 20-10.914063 86.003906c5.285157-7.015625 13.710938-17.320312 26.089844-35.15625.933594-1.269531 1.808594-2.574218 2.636719-3.902344.816406-1.308593 1.578125-2.648437 2.296875-4.007812 4.699219-8.914062 7.207031-18.871094 7.207031-29.039062v-39.679688h-5.371094c-5.90625 0-10.738281-4.832031-10.738281-10.738281s4.832031-10.742188 10.738281-10.742188h45.113282c5.90625 0 10.738281 4.835938 10.738281 10.742188s-4.832031 10.738281-10.738281 10.738281h-5.371094v39.679688c0 10.152343 2.5 20.09375 7.183594 28.996093.726562 1.378907 1.496093 2.730469 2.320312 4.054688.832031 1.328125 1.707031 2.628906 2.640625 3.898437l10.53125 14.292969c-2.488281-44.582031-4.972656-89.242187-7.453125-133.757813zm0 0" fill="#e8e6e6"/><path d="m235.738281 111.113281c2.09375 86.742188 1.375 56.824219 1.527344 63.292969 17.246094-.3125 31.140625-14.367188 31.140625-31.691406 0-18.03125-14.988281-32.160156-32.667969-31.601563zm0 0" fill="#fcb275"/><path d="m93.507812 111.125c-17.980468-.953125-33.355468 13.324219-33.355468 31.589844 0 17.347656 13.929687 31.425781 31.214844 31.695312 2.078124-74.78125 1.332031-40.046875 2.140624-63.285156zm0 0" fill="#fcb275"/><path d="m237.554688 187.488281c0 .023438.003906.042969.003906.0625-.003906-.085937-.003906-.121093-.003906-.0625zm0 0" fill="#fcb275"/><path d="m237.578125 188.414062c0 .015626 0-.015624-.003906-.066406v.015625c.003906.015625.003906.03125.003906.050781zm0 0" fill="#fcb275"/><path d="m237.574219 188.300781c-.003907-.132812-.007813-.359375-.011719-.542969v.011719c0 .128907.007812.300781.011719.53125zm0 0" fill="#fcb275"/><path d="m237.554688 187.550781c0 .035157.003906.050781.003906.082031v.015626c0-.035157 0-.070313-.003906-.097657zm0 0" fill="#fcb275"/><path d="m237.578125 188.363281c0-.007812 0-.011719 0-.019531-.003906-.082031-.007813-.285156-.015625-.574219 0-.003906 0-.011719 0-.015625 0-.042968 0-.074218 0-.121094-.003906-.066406-.003906-.117187-.003906-.144531-.089844-3.597656-.492188-19.625-2.007813-79.992187-.078125-3.054688-1.375-5.96875-3.625-8.039063-6.03125-5.558593-18.101562-18.46875-21.707031-35.621093-.746094-3.550782-5.074219-4.863282-7.746094-2.410157-9.929687 9.113281-31.582031 22.960938-69.515625 19.871094-9.054687-.738281-18.222656 1.167969-25.761719 6.234375-2.324218 1.558594-4.667968 3.460938-6.902343 5.773438-4.097657 4.25-6.417969 9.910156-6.691407 15.804687l-1.054687 22.96875-1.566406 56.332031c-1.863281 18.273438 7.652343 35.902344 24.066406 44.144532 13.613281 6.835937 21.5625 11.375 32.265625 14.175781 10.964844 2.871093 22.453125 2.925781 33.4375.128906 10.003906-2.550781 17.527344-6.578125 29.277344-12.542969 17.230468-8.746094 27.945312-26.589844 27.550781-45.90625zm0 0" fill="#fcb275"/><path d="m225.820312 26.09375c-16-7.859375-37.015624-21.09375-61.542968-21.09375s-45.542969 13.234375-61.542969 21.09375c-20.621094 10.132812-33.160156 31.636719-31.898437 54.582031l1.722656 36.941407c5.785156-4.433594 13.117187-6.910157 20.945312-6.496094v.011718l.09375-2.023437c.273438-5.894531 2.597656-11.558594 6.695313-15.804687 2.234375-2.316407 4.578125-4.214844 6.898437-5.773438 7.539063-5.066406 16.707032-6.972656 25.761719-6.234375 37.933594 3.089844 59.585937-10.757813 69.515625-19.871094 2.671875-2.453125 7.003906-1.140625 7.75 2.410157 3.601562 17.152343 15.671875 30.0625 21.707031 35.621093 2.25 2.070313 3.546875 4.984375 3.621094 8.039063l.191406 3.613281c7.574219-.238281 14.644531 2.234375 20.261719 6.539063l1.71875-36.972657c1.261719-22.945312-11.273438-44.449219-31.898438-54.582031zm0 0" fill="#7c292e"/><path d="m201.777344 261.734375c-1.558594-2.585937-2.441406-5.582031-2.441406-8.722656v-13.316407c-6.402344 3.121094-11.960938 5.480469-18.585938 7.167969-10.984375 2.796875-22.476562 2.742188-33.441406-.128906-6.011719-1.574219-11.15625-3.695313-16.921875-6.464844v12.746094c0 3.136719-.882813 6.136719-2.441407 8.726563 0-.003907 0-.003907.003907-.003907v4.589844l37.832031 32.675781 36-31.09375v-6.175781zm0 0" fill="#fcb275"/><path d="m220.042969 494.921875c-1.886719-8.949219 4.828125-14.242187 6.78125-17.617187l10.953125-86.304688-16-20 20-32-20.21875-64.617188c-2.148438-1.09375-5.003906-2.496093-9.101563-4.390624-.441406-.21875-3.914062-1.933594-3.695312-1.820313-2.957031-1.460937-5.347657-3.71875-6.984375-6.4375v245.265625h21.277344l.625-4.929688c-1.8125-2.015624-3.082032-4.496093-3.636719-7.148437zm0 0" fill="#e8e6e6"/><path d="m91.945312 391 16-20-20-32 20.21875-64.617188c2.148438-1.09375 5.003907-2.496093 9.101563-4.390624.441406-.21875 3.914063-1.933594 3.695313-1.820313 2.957031-1.460937 5.347656-3.71875 6.988281-6.4375v245.265625h-21.28125zm0 0" fill="#e8e6e6"/><path d="m154.058594 507h22.6875v-199.027344l-10.96875-8.972656-11.71875 9.589844zm0 0" fill="#30a9e5"/><path d="m127.945312 329.953125v177.046875h26.113282v-198.410156zm0 0" fill="#1b87c9"/><path d="m176.746094 307.972656v199.027344h25.03125v-178.546875zm0 0" fill="#1b87c9"/><path d="m201.777344 267.910156-36 31.089844 36 29.453125zm0 0" fill="#49c3f2"/><path d="m127.945312 266.328125v63.625l37.832032-30.953125zm0 0" fill="#49c3f2"/><path d="m341.867188 482.914062-30.261719-41.066406c-7.886719-10.707031-12.140625-23.652344-12.140625-36.949218v-39.679688h-34.371094v39.679688c0 13.296874-4.253906 26.242187-12.140625 36.949218l-30.261719 41.066406c-7.355468 9.980469-.226562 24.082032 12.171875 24.082032h94.835938c12.394531.003906 19.519531-14.101563 12.167969-24.082032zm0 0" fill="#30a9e5"/><path d="m315.574219 354.480469c0-5.90625-4.835938-10.738281-10.742188-10.738281h-45.109375c-5.910156 0-10.742187 4.832031-10.742187 10.738281s4.835937 10.742187 10.742187 10.742187h45.109375c5.910157 0 10.742188-4.835937 10.742188-10.742187zm0 0" fill="#49c3f2"/><path d="m282.277344 507h47.417968c12.394532 0 19.523438-14.101562 12.167969-24.085938l-30.261719-41.0625c-1.863281-2.53125-3.507812-5.195312-4.957031-7.953124h-48.734375c-1.449218 2.757812-3.097656 5.421874-4.960937 7.953124l-30.261719 41.066407c-7.351562 9.980469-.226562 24.085937 12.171875 24.085937h47.417969zm0 0" fill="#fcbd4c"/><path d="m299.777344 479c0 4.417969-3.582032 8-8 8-4.417969 0-8-3.582031-8-8s3.582031-8 8-8c4.417968 0 8 3.582031 8 8zm0 0" fill="#f9d498"/><path d="m222.878906 121h-117.199218c-7.371094 0-13.398438 6.03125-13.398438 13.398438v9.773437c0 18.664063 13.878906 34.855469 32.457031 36.65625 14.96875 1.453125 28.367188-6.421875 35.050781-18.472656 1.992188-3.589844 6.988282-3.589844 8.980469 0 6.683594 12.050781 20.082031 19.925781 35.050781 18.472656 18.578126-1.800781 32.460938-17.992187 32.460938-36.65625v-9.773437c-.003906-7.367188-6.035156-13.398438-13.402344-13.398438zm0 0" fill="#f9d498"/><g fill="#231f20"><path d="m63.449219 509.199219c-2.761719 0-5-2.238281-5-5v-110.667969c0-2.761719 2.238281-5 5-5s5 2.238281 5 5v110.667969c0 2.761719-2.238281 5-5 5zm0 0"/><path d="m164.410156 212.371094c-9.109375 0-17.59375-4.511719-22.699218-12.066406-1.546876-2.289063-.945313-5.398438 1.34375-6.941407 2.289062-1.550781 5.398437-.945312 6.941406 1.34375 3.242187 4.796875 8.628906 7.664063 14.410156 7.664063s11.167969-2.867188 14.410156-7.664063c1.546875-2.292969 4.65625-2.894531 6.941406-1.34375 2.289063 1.542969 2.890626 4.652344 1.34375 6.941407-5.101562 7.554687-13.585937 12.066406-22.691406 12.066406zm0 0"/><path d="m237.375 179.425781c-.050781 0-.214844-.003906-.457031-.03125-.800781-.050781-1.554688-.296875-2.210938-.691406-.703125-.398437-1.394531-1.011719-1.863281-1.960937-.351562-.664063-.554688-1.414063-.578125-2.210938 0-.007812 0-.015625 0-.023438l-.007813-.359374c0-.011719 0-.023438 0-.035157l-1.519531-62.882812c-.066406-2.746094 2.097657-5.03125 4.839844-5.117188 10.046875-.304687 19.503906 3.359375 26.714844 10.347657 7.167969 6.941406 11.113281 16.269531 11.113281 26.253906 0 19.738281-15.957031 36.113281-35.65625 36.683594-.171875.019531-.296875.027343-.359375.027343-.003906 0-.007813 0-.015625 0zm3.492188-63.015625c.75 30.929688 1.105468 45.648438 1.269531 52.441406 12.097656-2.546874 21.269531-13.375 21.269531-26.132812 0-7.257812-2.867188-14.03125-8.070312-19.074219-4.039063-3.914062-9.054688-6.402343-14.46875-7.234375zm0 0"/><path d="m91.371094 179.410156c-.03125 0-.054688 0-.082032 0-19.925781-.3125-36.136718-16.777344-36.136718-36.695312 0-10.144532 4.050781-19.570313 11.40625-26.546875 7.28125-6.910157 17.199218-10.597657 27.210937-10.039063 2.722657.144532 4.828125 2.441406 4.734375 5.167969-.28125 8.054687-.378906 9.261719-.472656 10.425781-.152344 1.917969-.300781 3.730469-1.664062 52.828125-.078126 2.710938-2.296876 4.859375-4.996094 4.859375zm-3.058594-63.109375c-5.550781.722657-10.707031 3.167969-14.875 7.125-5.34375 5.066407-8.285156 11.917969-8.285156 19.289063 0 12.808594 9.214844 23.652344 21.367187 26.15625 1.230469-44.089844 1.371094-45.804688 1.542969-47.953125.058594-.707031.121094-1.480469.25-4.617188zm0 0"/><path d="m237.554688 192.550781c-2.664063 0-4.871094-2.09375-4.992188-4.773437-.003906-.046875-.003906-.160156-.007812-.207032-.046876-2.757812 2.148437-5.058593 4.902343-5.113281 2.664063.011719 4.949219 2.136719 5.09375 4.820313v.09375c0 .023437 0 .042968.003907.066406.058593 2.738281-2.09375 5.015625-4.832032 5.109375-.054687.003906-.113281.003906-.167968.003906zm0 0"/><path d="m237.578125 193.417969c-1.28125 0-2.519531-.496094-3.453125-1.382813-.972656-.929687-1.527344-2.210937-1.546875-3.550781 0-.039063 0-.078125 0-.121094 0-2.742187 2.210937-4.980469 4.953125-5.007812h.046875c2.722656 0 4.949219 2.171875 4.996094 4.898437v.054688.105468c-.035157 2.636719-2.113281 4.875-4.765625 4.996094-.074219.003906-.152344.007813-.230469.007813zm0 0"/><path d="m237.574219 193.300781c-2.695313 0-4.917969-2.144531-4.996094-4.855469l-.015625-.5625c-.0625-2.757812 2.117188-5.050781 4.875-5.121093 2.765625-.007813 5.046875 2.105469 5.121094 4.863281l.015625.546875c.070312 2.757813-2.105469 5.046875-4.863281 5.125-.042969.003906-.089844.003906-.136719.003906zm0 0"/><path d="m237.554688 192.621094c-2.703126 0-4.921876-2.125-4.996094-4.839844-.074219-2.757812 2.101562-5.105469 4.863281-5.179688 1.34375-.054687 2.597656.457032 3.523437 1.296876v.003906c.003907 0 .007813.003906.007813.003906s0 .003906.003906.003906v.003906c.003907 0 .003907.003907.003907.003907.417968.386719.773437.847656 1.039062 1.359375v.003906s0 .003906.003906.007812c0-.003906 0 0 0 .003907 0 .003906 0 .003906.003906.003906v.003906c.324219.632813.515626 1.347657.539063 2.113281v.078126c.054687 2.753906-2.128906 5.0625-4.882813 5.128906-.03125 0-.070312 0-.109374 0zm0 0"/><path d="m164.296875 253.914062c-6.140625 0-12.28125-.78125-18.253906-2.347656-9.546875-2.496094-16.976563-6.277344-27.257813-11.507812-1.878906-.957032-3.863281-1.964844-5.984375-3.03125-18.042969-9.0625-28.800781-28.710938-26.816406-48.933594l1.5625-56.152344 1.054687-23.0625c.332032-7.21875 3.207032-13.984375 8.089844-19.042968 2.316406-2.398438 4.910156-4.574219 7.707032-6.457032 8.070312-5.421875 18.351562-7.929687 28.960937-7.066406 36.351563 2.980469 56.785156-10.363281 65.726563-18.570312 2.578124-2.363282 6.242187-3.171876 9.558593-2.105469 3.332031 1.066406 5.746094 3.746093 6.464844 7.171875 3.378906 16.082031 15.253906 28.414062 20.203125 32.96875 3.214844 2.957031 5.121094 7.1875 5.234375 11.59375l2.003906 79.992187-4.992187.34375 5-.128906.015625.644531v.042969.050781c.429687 21.09375-11.457031 40.902344-30.285157 50.457032l-2.515624 1.277343c-10.441407 5.316407-17.984376 9.15625-27.792969 11.652344-5.78125 1.476563-11.730469 2.210937-17.683594 2.210937zm-35.042969-167.765624c-7.152344 0-13.894531 1.917968-19.273437 5.535156-2.214844 1.484375-4.261719 3.203125-6.089844 5.097656-3.195313 3.308594-5.074219 7.769531-5.296875 12.558594l-1.054688 22.972656-1.5625 56.238281c0 .125-.011718.246094-.023437.371094-1.652344 16.191406 6.921875 31.929687 21.335937 39.167969 2.136719 1.074218 4.136719 2.09375 6.03125 3.054687 10.085938 5.132813 16.75 8.527344 25.253907 10.75 10.132812 2.65625 20.832031 2.699219 30.941406.121094 8.730469-2.222656 15.488281-5.664063 25.722656-10.875l2.523438-1.28125c15.425781-7.828125 25.167969-24.058594 24.816406-41.34375 0-.035156-.003906-.121094-.003906-.152344l-.011719-.460937c0-.003906-.007812-.226563-.007812-.230469l-2.007813-80.046875c-.042969-1.714844-.777344-3.351562-2.007813-4.488281-6.949218-6.394531-19.113281-19.738281-23.085937-37.664063-10.34375 9.335938-33.277344 24.027344-72.910156 20.8125-1.101563-.09375-2.203125-.136718-3.289063-.136718zm0 0"/><path d="m256 122.648438c-1.082031 0-2.152344-.347657-3.039062-1.03125-4.890626-3.742188-10.957032-5.726563-17.070313-5.507813-2.722656.128906-5.003906-2.019531-5.148437-4.738281l-.191407-3.609375c-.046875-1.855469-.78125-3.492188-2.015625-4.628907-6.949218-6.394531-19.109375-19.738281-23.082031-37.664062-10.34375 9.335938-33.28125 24.027344-72.910156 20.8125-8.355469-.691406-16.371094 1.234375-22.570313 5.398438-2.210937 1.484374-4.261718 3.203124-6.085937 5.097656-3.199219 3.3125-5.078125 7.773437-5.296875 12.5625l-.09375 2.023437c-.121094 2.714844-2.4375 4.90625-5.109375 4.769531-.164063-.003906-.328125-.015624-.492188-.035156-6.191406-.242187-12.347656 1.695313-17.300781 5.488282-1.476562 1.132812-3.460938 1.347656-5.148438.5625-1.6875-.785157-2.800781-2.441407-2.886718-4.300782l-1.71875-36.941406c-1.375-24.976562 12.238281-48.273438 34.6875-59.300781 2.460937-1.210938 5.039062-2.546875 7.734375-3.945313 15.191406-7.867187 34.085937-17.660156 56.015625-17.660156 21.929687 0 40.828125 9.792969 56.011718 17.664062 2.695313 1.394532 5.273438 2.734376 7.734376 3.941407 22.449218 11.03125 36.0625 34.328125 34.683593 59.347656l-1.714843 36.929687c-.085938 1.859376-1.195313 3.515626-2.882813 4.300782-.671875.3125-1.390625.464844-2.109375.464844zm-15.515625-16.355469c3.757813.390625 7.441406 1.367187 10.90625 2.878906l1.332031-28.730469c1.160156-21.046875-10.265625-40.601562-29.105468-49.863281-2.523438-1.234375-5.167969-2.609375-7.929688-4.039063-14.21875-7.367187-31.917969-16.539062-51.410156-16.539062-19.488282 0-37.191406 9.171875-51.410156 16.542969-2.761719 1.429687-5.40625 2.800781-7.925782 4.039062-18.84375 9.257813-30.269531 28.8125-29.109375 49.816407l1.335938 28.742187c3.699219-1.613281 7.644531-2.609375 11.675781-2.941406.839844-6.203125 3.574219-11.933594 7.847656-16.363281 2.316406-2.402344 4.910156-4.574219 7.707032-6.457032 8.070312-5.421875 18.351562-7.933594 28.960937-7.066406 36.351563 2.980469 56.785156-10.363281 65.726563-18.570312 2.582031-2.363282 6.246093-3.171876 9.5625-2.109376 3.328124 1.070313 5.742187 3.75 6.460937 7.171876 3.378906 16.085937 15.253906 28.414062 20.203125 32.972656 2.949219 2.71875 4.800781 6.503906 5.171875 10.515625zm0 0"/><path d="m138.617188 156.320312c-3.3125 0-6-2.6875-6-6v-1.109374c0-3.3125 2.6875-6 6-6s6 2.6875 6 6v1.109374c0 3.3125-2.6875 6-6 6zm0 0"/><path d="m191.625 157.164062c-3.3125 0-6-2.683593-6-6v-1.105468c0-3.3125 2.6875-6 6-6s6 2.6875 6 6v1.105468c0 3.316407-2.6875 6-6 6zm0 0"/><path d="m234.863281 512h-33.085937c-2.761719 0-5-2.238281-5-5v-245.265625c0-2.246094 1.5-4.210937 3.660156-4.8125 2.160156-.609375 4.460938.308594 5.621094 2.230469 1.183594 1.960937 2.882812 3.53125 4.914062 4.535156 0 0 .003906 0 .007813.003906.167969.082032.332031.175782.492187.277344.867188.386719 1.910156.902344 3.207032 1.546875 6.546874 3.023437 9.949218 4.808594 12.433593 6.113281 3.421875 1.800782 4.574219 2.40625 10.691407 4.332032l15.101562 4.332031 40.730469 10.246093c14.734375 3.707032 25.199219 16.394532 26.042969 31.5625l7.453124 133.761719c.121094 2.207031-1.21875 4.234375-3.300781 4.984375-2.078125.746094-4.40625.039063-5.71875-1.738281l-10.53125-14.292969c-.960937-1.308594-1.898437-2.683594-2.851562-4.210937-.886719-1.421875-1.726563-2.890625-2.507813-4.378907-5.074218-9.640624-7.757812-20.472656-7.757812-31.324218v-39.675782c0-2.761718 2.238281-5 5-5h5.371094c3.167968 0 5.742187-2.578124 5.742187-5.742187 0-3.167969-2.578125-5.742187-5.742187-5.742187h-45.109376c-3.167968 0-5.742187 2.574218-5.742187 5.742187 0 3.164063 2.578125 5.742187 5.742187 5.742187h5.371094c2.761719 0 5 2.238282 5 5v39.675782c0 10.867187-2.691406 21.710937-7.78125 31.371094-.789062 1.496093-1.621094 2.949218-2.476562 4.320312-.960938 1.539062-1.894532 2.917969-2.859375 4.222656-9.382813 13.527344-16.550781 22.792969-21.785157 29.554688-9.878906 12.761718-11.230468 14.898437-10.257812 19.523437.847656 4.03125 4.53125 8.109375 9.929688 8.109375 2.761718 0 5 2.238282 5 5 0 2.761719-2.242188 4.996094-5.003907 4.996094zm-28.085937-10h10.714844c-1.085938-1.84375-1.886719-3.875-2.34375-6.046875-1.992188-9.457031 2.144531-14.796875 12.132812-27.707031 5.167969-6.675782 12.242188-15.820313 21.558594-29.25.898437-1.21875 1.695312-2.390625 2.511718-3.703125.71875-1.15625 1.433594-2.402344 2.113282-3.691407 4.335937-8.222656 6.625-17.457031 6.625-26.703124v-34.679688h-.371094c-8.679688 0-15.738281-7.0625-15.738281-15.742188 0-8.679687 7.058593-15.738281 15.738281-15.738281h45.113281c2.054688 0 4.015625.394531 5.820313 1.117188l-.957032-17.199219c-.605468-10.777344-8.039062-19.789062-18.507812-22.421875l-40.886719-10.289063-15.382812-4.414062c-7.089844-2.230469-8.773438-3.117188-12.460938-5.050781-2.386719-1.257813-5.65625-2.972657-12.097656-5.949219l-3.582031-1.765625zm97.683594-131.777344v34.675782c0 9.234374 2.285156 18.457031 6.609374 26.667968.667969 1.28125 1.390626 2.539063 2.140626 3.742188.808593 1.296875 1.605468 2.46875 2.417968 3.574218l.582032.789063-3.972657-71.304687c-2.207031 1.183593-4.730469 1.855468-7.40625 1.855468zm0 0"/><path d="m127.945312 512h-109.414062c-4.9375 0-9.710938-2.054688-13.101562-5.640625-3.386719-3.582031-5.175782-8.464844-4.902344-13.390625l9.515625-170.863281v-.003907c.847656-15.167968 11.316406-27.855468 26.046875-31.5625l40.886718-10.292968 15.066407-4.324219c5.992187-1.886719 7.144531-2.492187 10.570312-4.292969 2.480469-1.304687 5.878907-3.089844 12.550781-6.171875 1.246094-.617187 2.25-1.117187 3.09375-1.496093.15625-.097657.320313-.1875.488282-.273438l.023437.050781-.023437-.050781c2.03125-1 3.730468-2.570312 4.914062-4.535156 1.160156-1.921875 3.464844-2.839844 5.625-2.230469 2.164063.601563 3.660156 2.566406 3.660156 4.8125v245.265625c0 2.761719-2.238281 5-5 5zm-107.914062-189.34375-9.519531 170.867188c-.121094 2.226562.652343 4.347656 2.1875 5.964843 1.53125 1.617188 3.601562 2.511719 5.832031 2.511719h104.414062v-229.230469l-3.460937 1.707031c-6.5625 3.035157-9.832031 4.753907-12.21875 6.007813-3.6875 1.9375-5.371094 2.820313-12.339844 5.015625l-15.347656 4.40625-41.042969 10.332031c-10.46875 2.632813-17.90625 11.644531-18.503906 22.417969zm0 0"/><path d="m106.667969 512h-88.140625c-4.933594 0-9.707032-2.054688-13.097656-5.640625-3.386719-3.582031-5.175782-8.464844-4.902344-13.390625l9.519531-170.863281c.84375-15.171875 11.3125-27.859375 26.042969-31.566407l39.765625-10.007812c17.109375-4.304688 24.730469-7.652344 29.929687-10.359375 1.789063-.933594 3.96875-.695313 5.515625.601563 1.546875 1.296874 2.167969 3.398437 1.5625 5.328124l-19.460937 62.199219 18.78125 30.050781c1.125 1.796876.992187 4.113282-.335938 5.773438l-14.675781 18.347656 14.457031 113.898438c.179688 1.425781-.257812 2.859375-1.210937 3.933594-.949219 1.078124-2.316407 1.695312-3.75 1.695312zm-6.648438-228.339844c-5.171875 1.953125-12.042969 4.128906-21.722656 6.566406l-39.761719 10.011719c-10.46875 2.632813-17.90625 11.644531-18.503906 22.421875l-9.519531 170.863282c-.125 2.226562.652343 4.347656 2.183593 5.964843 1.53125 1.617188 3.605469 2.511719 5.832032 2.511719h82.464844l-14.007813-110.371094c-.167969-1.34375.210937-2.695312 1.058594-3.753906l13.785156-17.230469-18.121094-28.996093c-.777343-1.238282-.96875-2.75-.535156-4.140626zm0 0"/><path d="m226.863281 482.003906c-.632812 0-1.269531-.121094-1.882812-.367187-2.097657-.855469-3.363281-3.015625-3.078125-5.261719l10.648437-83.90625-14.675781-18.347656c-1.328125-1.65625-1.460938-3.972656-.335938-5.773438l18.78125-30.050781-19.53125-62.421875c-.601562-1.917969.003907-4.011719 1.539063-5.3125 1.539063-1.296875 3.703125-1.550781 5.496094-.636719 1.316406.667969 2.371093 1.222657 3.289062 1.707031 3.421875 1.796876 4.574219 2.402344 10.6875 4.328126l15.101563 4.332031 40.726562 10.246093c14.734375 3.707032 25.203125 16.394532 26.046875 31.566407l7.449219 133.757812c.125 2.207031-1.21875 4.234375-3.300781 4.984375-2.078125.746094-4.40625.039063-5.714844-1.738281l-10.535156-14.292969c-.972657-1.320312-1.90625-2.699218-2.851563-4.210937-.882812-1.417969-1.722656-2.886719-2.503906-4.378907-5.078125-9.640624-7.757812-20.472656-7.757812-31.324218v-39.679688c0-2.761718 2.238281-5 5-5h5.371093c3.164063 0 5.738281-2.574218 5.738281-5.742187 0-3.164063-2.574218-5.738281-5.738281-5.738281h-45.113281c-3.164062 0-5.738281 2.574218-5.738281 5.738281 0 3.167969 2.574219 5.742187 5.738281 5.742187h5.371094c2.761718 0 5 2.238282 5 5v39.679688c0 10.863281-2.6875 21.707031-7.78125 31.367187-.796875 1.507813-1.625 2.957031-2.472656 4.320313-.964844 1.539062-1.902344 2.917968-2.863282 4.222656-9.390625 13.542969-16.558594 22.800781-21.792968 29.566406-1.628907 2.105469-3.066407 3.964844-4.328126 5.636719-.960937 1.277344-2.457031 1.988281-3.988281 1.988281zm1.03125-111.359375 13.785157 17.230469c.847656 1.058594 1.226562 2.410156 1.058593 3.753906l-8.585937 67.660156c4.101562-5.429687 8.972656-12.054687 14.691406-20.292968.894531-1.214844 1.691406-2.390625 2.511719-3.703125.714843-1.152344 1.429687-2.398438 2.113281-3.695313 4.335938-8.222656 6.625-17.457031 6.625-26.699218v-34.679688h-.371094c-8.679687 0-15.742187-7.0625-15.742187-15.742188 0-8.679687 7.0625-15.738281 15.742187-15.738281h45.109375c2.054688 0 4.019531.394531 5.820313 1.117188l-.957032-17.195313c-.601562-10.78125-8.039062-19.792968-18.503906-22.425781l-40.886718-10.289063-15.382813-4.414062c-2.15625-.675781-3.808594-1.230469-5.171875-1.726562l16.800781 53.703124c.4375 1.390626.242188 2.902344-.53125 4.140626zm76.566407-.421875v34.679688c0 9.230468 2.285156 18.453125 6.609374 26.667968.671876 1.277344 1.390626 2.535157 2.140626 3.738282.804687 1.289062 1.597656 2.460937 2.417968 3.574218l.582032.789063-3.972657-71.304687c-2.207031 1.183593-4.730469 1.855468-7.40625 1.855468zm0 0"/><path d="m165.777344 304c-1.164063 0-2.328125-.40625-3.269532-1.214844l-37.832031-32.671875c-1.097656-.953125-1.730469-2.332031-1.730469-3.785156v-4.59375c0-.910156.246094-1.796875.714844-2.578125 1.128906-1.871094 1.726563-3.996094 1.726563-6.144531v-12.742188c0-1.71875.882812-3.316406 2.335937-4.230469 1.457032-.917968 3.28125-1.019531 4.828125-.277343 6.316407 3.035156 10.957031 4.808593 16.023438 6.132812 10.132812 2.652344 20.832031 2.699219 30.941406.121094 6.347656-1.617187 11.636719-3.890625 17.628906-6.8125 1.546875-.757813 3.375-.660156 4.839844.253906 1.460937.914063 2.347656 2.515625 2.347656 4.238281v13.316407c0 2.148437.597657 4.273437 1.726563 6.140625.46875.78125.71875 1.671875.71875 2.582031v6.175781c0 1.453125-.632813 2.832032-1.734375 3.785156l-36 31.089844c-.933594.808594-2.097657 1.214844-3.265625 1.214844zm-32.832032-39.960938 32.832032 28.355469 31-26.773437v-2.585938c-1.601563-3.105468-2.441406-6.542968-2.441406-10.023437v-5.519531c-3.75 1.585937-7.820313 3.058593-12.355469 4.214843-11.746094 2.988281-24.171875 2.941407-35.9375-.140625-3.582031-.933594-6.945313-2.054687-10.65625-3.578125v5.023438c0 3.480469-.839844 6.914062-2.441407 10.019531zm0 0"/><path d="m273.769531 464c-.320312 0-.640625-.042969-.960937-.101562-.320313-.058594-.640625-.160157-.9375-.28125-.300782-.121094-.601563-.277344-.863282-.457032-.277343-.179687-.539062-.398437-.757812-.621094-.242188-.242187-.441406-.5-.621094-.761718-.179687-.28125-.339844-.558594-.460937-.859375-.136719-.300781-.21875-.621094-.296875-.941407-.0625-.320312-.082032-.660156-.082032-.980468 0-1.316406.519532-2.597656 1.460938-3.539063 1.160156-1.160156 2.878906-1.699219 4.5-1.359375.320312.058594.640625.160156.9375.277344.300781.121094.601562.28125.863281.460938.277344.179687.539063.398437.757813.621093.941406.941407 1.460937 2.21875 1.460937 3.539063 0 .320312-.019531.660156-.101562.980468-.058594.320313-.136719.640626-.277344.941407-.121094.296875-.28125.578125-.460937.859375-.179688.261718-.378907.519531-.621094.761718-.9375.917969-2.21875 1.460938-3.539063 1.460938zm0 0"/><path d="m223.058594 512h-21.28125c-2.761719 0-5-2.238281-5-5v-245.265625c0-2.246094 1.5-4.210937 3.660156-4.8125 2.160156-.609375 4.460938.308594 5.621094 2.230469 1.183594 1.960937 2.882812 3.53125 4.914062 4.535156 0 0 .003906 0 .007813.003906.167969.082032.332031.175782.492187.277344.867188.386719 1.910156.902344 3.207032 1.546875 3.359374 1.546875 6.390624 3.011719 9.144531 4.410156 1.203125.609375 2.105469 1.679688 2.507812 2.964844l20.21875 64.617187c.433594 1.390626.242188 2.902344-.535156 4.140626l-18.121094 28.996093 13.785157 17.230469c.847656 1.058594 1.226562 2.410156 1.058593 3.753906l-10.953125 86.304688c-.082031.660156-.296875 1.296875-.632812 1.875-.609375 1.054687-1.40625 2.058594-2.246094 3.121094-2.90625 3.671874-4.890625 6.609374-3.976562 10.960937.378906 1.792969 1.230468 3.460937 2.464843 4.828125.972657 1.082031 1.429688 2.535156 1.246094 3.976562l-.625 4.929688c-.3125 2.5-2.441406 4.375-4.957031 4.375zm-16.28125-10h10.699218c-1.089843-1.875-1.878906-3.917969-2.328124-6.046875-1.953126-9.277344 2.972656-15.503906 5.914062-19.226563.335938-.417968.671875-.847656.949219-1.21875l10.539062-83.035156-14.675781-18.347656c-1.328125-1.660156-1.460938-3.972656-.335938-5.773438l18.78125-30.050781-18.898437-60.398437c-2.140625-1.058594-4.46875-2.171875-7.058594-3.367188l-3.585937-1.765625zm0 0"/><path d="m127.945312 512h-21.277343c-2.519531 0-4.644531-1.875-4.960938-4.371094l-14.722656-116c-.167969-1.34375.210937-2.695312 1.058594-3.753906l13.785156-17.230469-18.121094-28.996093c-.777343-1.238282-.96875-2.75-.535156-4.140626l20.21875-64.617187c.402344-1.289063 1.308594-2.355469 2.507813-2.964844 2.808593-1.429687 5.753906-2.847656 9.269531-4.46875 1.246093-.617187 2.25-1.117187 3.09375-1.496093.15625-.097657.316406-.1875.484375-.273438l.027344.050781-.027344-.050781c2.035156-1 3.734375-2.570312 4.917968-4.535156 1.160157-1.921875 3.460938-2.839844 5.621094-2.230469 2.164063.601563 3.660156 2.566406 3.660156 4.8125v245.265625c0 2.761719-2.238281 5-5 5zm-16.871093-10h11.875v-229.230469l-3.460938 1.707031c-2.71875 1.257813-5.03125 2.359376-7.183593 3.425782l-18.898438 60.398437 18.78125 30.050781c1.125 1.796876.992188 4.113282-.335938 5.773438l-14.675781 18.347656zm0 0"/><path d="m176.746094 512h-22.6875c-2.761719 0-5-2.238281-5-5v-198.410156c0-1.5.671875-2.921875 1.835937-3.871094l11.71875-9.589844c1.839844-1.507812 4.488281-1.507812 6.332031 0l10.964844 8.976563c1.164063.949219 1.835938 2.367187 1.835938 3.867187v199.027344c0 2.761719-2.238282 5-5 5zm-17.6875-10h12.6875v-191.65625l-5.964844-4.882812-6.71875 5.496093v191.042969zm0 0"/><path d="m154.058594 512h-26.113282c-2.761718 0-5-2.238281-5-5v-177.046875c0-1.5.671876-2.917969 1.835938-3.867187l26.113281-21.367188c1.496094-1.222656 3.5625-1.480469 5.308594-.648438 1.746094.824219 2.855469 2.585938 2.855469 4.519532v198.410156c0 2.761719-2.238282 5-5 5zm-21.113282-10h16.113282v-182.863281l-16.113282 13.183593zm0 0"/><path d="m201.777344 512h-25.03125c-2.761719 0-5-2.238281-5-5v-199.027344c0-1.929687 1.113281-3.691406 2.855468-4.515625 1.746094-.832031 3.8125-.578125 5.308594.648438l25.035156 20.480469c1.160157.949218 1.832032 2.367187 1.832032 3.867187v178.546875c0 2.761719-2.238282 5-5 5zm-20.03125-10h15.035156v-171.175781l-15.035156-12.296875zm0 0"/><path d="m201.78125 333.457031c-1.136719 0-2.257812-.386719-3.167969-1.132812l-36-29.453125c-1.140625-.933594-1.8125-2.328125-1.832031-3.804688-.023438-1.472656.613281-2.882812 1.730469-3.847656l36-31.089844c1.480469-1.28125 3.570312-1.578125 5.347656-.765625 1.777344.816407 2.917969 2.59375 2.917969 4.546875v60.542969c0 1.933594-1.113282 3.691406-2.859375 4.519531-.679688.324219-1.414063.484375-2.136719.484375zm-28.234375-34.5625 23.230469 19.007813v-39.066406zm0 0"/><path d="m127.945312 334.953125c-.726562 0-1.457031-.15625-2.140624-.480469-1.746094-.828125-2.855469-2.585937-2.855469-4.519531v-63.625c0-1.953125 1.136719-3.730469 2.917969-4.542969 1.777343-.8125 3.867187-.515625 5.347656.761719l37.832031 32.671875c1.117187.964844 1.75 2.375 1.730469 3.851562-.019532 1.476563-.691406 2.871094-1.832032 3.800782l-37.832031 30.953125c-.910156.742187-2.035156 1.128906-3.167969 1.128906zm5-57.699219v42.148438l25.0625-20.507813zm0 0"/><path d="m329.695312 512h-94.832031c-7.632812 0-14.515625-4.230469-17.957031-11.042969s-2.769531-14.863281 1.757812-21.007812l30.261719-41.066407c7.304688-9.914062 11.164063-21.664062 11.164063-33.980468v-39.679688c0-2.761718 2.238281-5 5-5h34.375c2.761718 0 5 2.238282 5 5v39.679688c0 12.316406 3.859375 24.066406 11.164062 33.980468l30.261719 41.066407c4.527344 6.144531 5.199219 14.195312 1.757813 21.007812-3.441407 6.8125-10.320313 11.042969-17.953126 11.042969zm-59.605468-141.777344v34.679688c0 14.464844-4.535156 28.265625-13.113282 39.910156l-30.261718 41.066406c-2.3125 3.136719-2.640625 7.089844-.882813 10.566406 1.757813 3.476563 5.132813 5.550782 9.03125 5.550782h94.832031c3.894532 0 7.273438-2.074219 9.03125-5.550782 1.757813-3.476562 1.425782-7.429687-.886718-10.566406l-30.257813-41.066406c-8.582031-11.644531-13.117187-25.445312-13.117187-39.910156v-34.679688zm0 0"/><path d="m304.832031 370.222656h-45.109375c-8.679687 0-15.742187-7.0625-15.742187-15.742187 0-8.679688 7.0625-15.742188 15.742187-15.742188h45.109375c8.679688 0 15.742188 7.0625 15.742188 15.742188 0 8.679687-7.0625 15.742187-15.742188 15.742187zm-45.109375-21.484375c-3.167968 0-5.742187 2.574219-5.742187 5.742188 0 3.164062 2.578125 5.742187 5.742187 5.742187h45.109375c3.167969 0 5.742188-2.578125 5.742188-5.742187 0-3.167969-2.578125-5.742188-5.742188-5.742188zm0 0"/><path d="m329.695312 512h-94.832031c-7.632812 0-14.515625-4.230469-17.957031-11.042969s-2.769531-14.863281 1.757812-21.007812l30.261719-41.066407c1.652344-2.242187 3.1875-4.703124 4.558594-7.3125.863281-1.640624 2.570313-2.671874 4.425781-2.671874h48.734375c1.859375 0 3.5625 1.03125 4.425781 2.671874 1.375 2.613282 2.90625 5.070313 4.558594 7.3125l30.261719 41.066407c4.527344 6.144531 5.199219 14.195312 1.757813 21.007812-3.441407 6.8125-10.320313 11.042969-17.953126 11.042969zm-68.839843-73.105469c-1.207031 2.074219-2.507813 4.058594-3.878907 5.917969l-30.257812 41.066406c-2.3125 3.136719-2.644531 7.089844-.886719 10.566406 1.757813 3.476563 5.132813 5.550782 9.03125 5.550782h94.835938c3.894531 0 7.269531-2.074219 9.027343-5.550782 1.757813-3.476562 1.425782-7.429687-.882812-10.566406l-30.261719-41.066406c-1.371093-1.859375-2.667969-3.84375-3.875-5.917969zm0 0"/><path d="m291.777344 492c-7.167969 0-13-5.832031-13-13s5.832031-13 13-13c7.167968 0 13 5.832031 13 13s-5.832032 13-13 13zm0-16c-1.652344 0-3 1.347656-3 3s1.347656 3 3 3 3-1.347656 3-3-1.347656-3-3-3zm0 0"/><path d="m200.335938 185.996094c-14.820313 0-28.628907-8.035156-35.941407-21.214844l-4.605469-2.425781 4.371094 2.425781c-7.957031 14.351562-23.621094 22.609375-39.90625 21.023438-20.734375-2.007813-36.972656-20.292969-36.972656-41.632813v-9.773437c0-10.144532 8.253906-18.398438 18.398438-18.398438h117.203124c10.144532 0 18.398438 8.253906 18.398438 18.398438v9.773437c0 21.335937-16.242188 39.621094-36.976562 41.632813-1.332032.128906-2.65625.191406-3.96875.191406zm-36.058594-31.332032c3.664062-.003906 7.058594 2.015626 8.863281 5.265626 6.027344 10.867187 17.886719 17.128906 30.199219 15.921874 15.667968-1.519531 27.941406-15.4375 27.941406-31.679687v-9.773437c0-4.628907-3.769531-8.398438-8.402344-8.398438h-117.203125c-4.628906 0-8.398437 3.769531-8.398437 8.398438v9.773437c0 16.242187 12.273437 30.160156 27.941406 31.679687 12.316406 1.199219 24.171875-5.054687 30.199219-15.921874 1.800781-3.246094 5.195312-5.265626 8.859375-5.265626zm0 0"/></g></svg>