<svg height="512pt" viewBox="-95 0 512 512.0055" width="512pt" xmlns="http://www.w3.org/2000/svg"><path d="m316.820312 493.550781-9.308593-167.171875c-.707031-12.625-9.535157-23.324218-21.796875-26.410156l-40.003906-10.070312c-6.9375-1.746094-13.804688-3.773438-20.578126-6.082032l-17.695312-8.726562-3.5625-1.753906c-5.648438-2.785157-9.222656-8.535157-9.222656-14.832032v-11.554687c-10.257813 6.582031-21.972656 10.492187-34.394532 10.492187-11.886718 0-23.125-3.601562-33.0625-9.679687v10.742187c0 6.296875-3.578124 12.046875-9.226562 14.828125l-2.621094 1.292969-17.609375 8.683594c-7.457031 2.640625-15.03125 4.929687-22.703125 6.859375l-38.90625 9.792969c-12.261718 3.085937-21.089844 13.785156-21.792968 26.410156l-9.3125 167.175781c-.40625 7.304687 5.410156 13.453125 12.726562 13.453125h286.34375c7.316406.003906 13.132812-6.140625 12.726562-13.449219zm0 0" fill="#e8e6e6"/><path d="m193.191406 80.199219c-.605468-1.660157-2.785156-2.011719-3.851562-.605469-6.976563 9.21875-29.296875 33.007812-72.449219 30.5625-17.421875-.988281-26.757813 6.304688-31.753906 13.957031v50.660157c0 41.050781 33.585937 82.667968 74.640625 82.667968 41.050781 0 74.636718-41.617187 74.636718-82.667968v-56.921876c-9.660156-1.339843-30.34375-7.757812-41.222656-37.652343zm0 0" fill="#fcb275"/><path d="m85.136719 174.773438v-48.753907c-.8125-.066406-1.636719-.105469-2.472657-.105469-16.707031 0-30.253906 13.546876-30.253906 30.253907 0 16.710937 13.546875 30.253906 30.253906 30.253906 1.128907 0 2.230469-.097656 3.324219-.226563-.558593-3.789062-.851562-7.609374-.851562-11.421874zm0 0" fill="#fcb275"/><path d="m243.746094 57.117188c-18.609375-44.917969-49.984375-55.984376-83.96875-51.007813-33.980469-4.976563-65.359375 6.09375-83.96875 51.007813-21.964844 53.019531-45.136719 61.253906-18.054688 117.351562 6.78125 14.046875 7.550782 23.113281 6.308594 28.859375-1.027344 4.746094 2.753906 9.183594 7.609375 9.183594h22.703125c-4.148438-8.292969-7.046875-17.21875-8.386719-26.316407-1.09375.128907-2.195312.226563-3.324219.226563-16.707031 0-30.253906-13.542969-30.253906-30.253906 0-16.710938 13.546875-30.253907 30.253906-30.253907.832032 0 1.65625.035157 2.472657.101563v-1.902344c5-7.65625 14.332031-14.949219 31.757812-13.960937 43.148438 2.449218 65.46875-21.339844 72.449219-30.5625 1.0625-1.40625 3.242188-1.054688 3.847656.605468 10.882813 29.894532 31.5625 36.316407 41.226563 37.65625v8.207032c17.542969-1.457032 32.726562 12.371094 32.726562 30.105468 0 16.710938-13.542969 30.253907-30.253906 30.253907-1.128906 0-2.230469-.097657-3.324219-.226563-1.339844 9.097656-4.238281 18.023438-8.386718 26.320313h22.707031c4.855469 0 8.636719-4.441407 7.605469-9.1875-1.242188-5.742188-.46875-14.8125 6.3125-28.855469 27.078124-56.097656 3.90625-64.332031-18.058594-117.351562zm0 0" fill="#7c292e"/><path d="m234.417969 126.0625v48.710938c0 3.8125-.292969 7.632812-.851563 11.421874 1.09375.128907 2.195313.226563 3.324219.226563 16.707031 0 30.253906-13.542969 30.253906-30.253906-.003906-17.734375-15.1875-31.566407-32.726562-30.105469zm0 0" fill="#fcb275"/><path d="m231.304688 285.78125c-2.058594-.648438-4.128907-1.269531-6.171876-1.964844l-17.695312-8.726562-1.898438-.933594-38.109374 45.488281c9.484374 25.269531 45.554687 24.296875 53.664062-1.445312zm0 0" fill="#e8e6e6"/><path d="m91.003906 285.578125 10.324219 32.707031c8.121094 25.730469 44.175781 26.691406 53.660156 1.433594l.027344-.074219-38.285156-45.695312-1.382813.679687-17.613281 8.683594c-2.230469.789062-4.476563 1.539062-6.730469 2.265625zm0 0" fill="#e8e6e6"/><path d="m203.875 273.335938c-5.648438-2.78125-9.222656-8.53125-9.222656-14.828126v-11.554687c-10.261719 6.578125-21.976563 10.488281-34.398438 10.488281-11.886718 0-23.121094-3.597656-33.058594-9.675781v10.738281c0 6.296875-3.578124 12.046875-9.226562 14.832032l-1.234375.609374 38.285156 45.699219h12.410157l38.109374-45.492187zm0 0" fill="#fcb275"/><path d="m167.425781 319.644531h-12.410156l-.027344.074219c-2.515625 6.703125-6.917969 11.542969-12.160156 14.582031 3.289063 6.679688 10.144531 11.289063 18.09375 11.289063 8.074219 0 15.023437-4.753906 18.246094-11.605469-5.058594-3.050781-9.289063-7.8125-11.742188-14.339844zm0 0" fill="#e04e36"/><path d="m197.910156 337.78125c-6.417968.859375-13.097656-.390625-18.746094-3.796875-1.910156 4.054687-5.140624 7.34375-9.121093 9.378906 6.464843 10.078125 16.773437 28.421875 19.882812 47.117188.851563 5.121093 6.449219 7.945312 11.148438 5.734375l14.777343-6.953125c1.683594-.792969 2.609376-2.632813 2.246094-4.457031l-.488281-2.433594c-.320313-1.609375.359375-3.25 1.722656-4.160156 1.589844-1.058594 2.222657-3.074219 1.527344-4.847657-2.730469-6.953125-10.390625-24.160156-22.949219-35.582031zm0 0" fill="#e04e36"/><path d="m142.828125 334.300781c-5.738281 3.324219-12.484375 4.472657-18.929687 3.46875-12.566407 11.425781-20.226563 28.636719-22.960938 35.59375-.699219 1.777344-.0625 3.789063 1.523438 4.847657 1.363281.910156 2.046874 2.554687 1.726562 4.164062l-.488281 2.429688c-.367188 1.828124.5625 3.664062 2.246093 4.457031l14.777344 6.957031c4.695313 2.207031 10.296875-.617188 11.148438-5.738281 3.109375-18.707031 13.429687-37.066407 19.898437-47.136719-3.863281-1.984375-7.023437-5.140625-8.941406-9.042969zm0 0" fill="#e04e36"/><g fill="#231f20"><path d="m159.777344 262.441406c-45.582032 0-79.640625-46.285156-79.640625-87.667968v-50.660157c0-.96875.28125-1.917969.816406-2.734375 5.246094-8.039062 15.796875-17.375 36.222656-16.214844 40.292969 2.289063 61.097657-19.230468 68.175781-28.585937 1.59375-2.105469 4.199219-3.167969 6.8125-2.777344 2.621094.394531 4.816407 2.191407 5.722657 4.6875 9.757812 26.804688 27.503906 33.066407 37.21875 34.414063 2.46875.34375 4.308593 2.457031 4.308593 4.953125v56.921875c.003907 41.378906-34.054687 87.664062-79.636718 87.664062zm-69.640625-136.769531v49.105469c0 44.449218 36.765625 77.667968 69.640625 77.667968s69.640625-33.21875 69.640625-77.667968v-52.785156c-10.542969-2.5-28.414063-10.449219-39.15625-35.605469-10.191407 11.714843-33.332031 31.046875-73.652344 28.761719-11.980469-.679688-20.871094 2.859374-26.472656 10.523437zm98.355469-43.765625v.003906c0-.003906 0-.003906 0-.003906zm-.003907 0c.003907 0 .003907 0 0 0zm0 0"/><path d="m82.664062 191.421875c-19.4375 0-35.25-15.8125-35.25-35.25s15.8125-35.253906 35.25-35.253906c.972657 0 1.933594.042969 2.886719.121093 2.589844.214844 4.585938 2.382813 4.585938 4.984376v48.753906c0 3.507812.269531 7.105468.796875 10.691406.199218 1.335938-.152344 2.695312-.972656 3.765625-.820313 1.074219-2.039063 1.769531-3.378907 1.929687-.941406.109376-2.375.257813-3.917969.257813zm-2.527343-60.378906c-12.742188 1.273437-22.722657 12.054687-22.722657 25.125 0 13.164062 10.121094 24.003906 22.988282 25.152343-.175782-2.195312-.265625-4.386718-.265625-6.546874zm0 0"/><path d="m247.882812 217.511719h-22.703124c-1.734376 0-3.34375-.894531-4.257813-2.371094-.90625-1.472656-.992187-3.316406-.214844-4.863281 4-8 6.664063-16.347656 7.914063-24.8125.394531-2.679688 2.855468-4.546875 5.539062-4.238282 1.109375.132813 1.953125.191407 2.730469.191407 13.921875 0 25.253906-11.328125 25.253906-25.25 0-7.125-2.890625-13.707031-8.132812-18.535157-5.183594-4.769531-12.171875-7.167968-19.179688-6.589843-1.402343.117187-2.773437-.359375-3.800781-1.304688-1.03125-.945312-1.613281-2.28125-1.613281-3.679687v-4.066406c-10.542969-2.503907-28.414063-10.453126-39.15625-35.609376-10.191407 11.714844-33.332031 31.050782-73.652344 28.761719-11.980469-.679687-20.871094 2.859375-26.472656 10.523438v.347656c0 1.398437-.582031 2.734375-1.613281 3.679687-1.027344.945313-2.402344 1.414063-3.796876 1.304688-.679687-.054688-1.367187-.085938-2.0625-.085938-13.921874 0-25.25 11.328126-25.25 25.25 0 13.925782 11.328126 25.253907 25.25 25.253907.78125 0 1.621094-.058594 2.730469-.191407 2.691407-.3125 5.144531 1.554688 5.542969 4.234376 1.25 8.464843 3.910156 16.8125 7.914062 24.8125.773438 1.550781.691407 3.390624-.21875 4.867187-.914062 1.472656-2.519531 2.371094-4.253906 2.371094h-22.707031c-3.898437 0-7.539063-1.742188-9.988281-4.78125-2.394532-2.964844-3.304688-6.777344-2.507813-10.464844.910157-4.203125.621094-12.0625-5.925781-25.621094-21.457031-44.449219-12.5-61.3125 2.34375-89.242187 4.796875-9.027344 10.230469-19.257813 15.59375-32.203125 17.296875-41.746094 47.113281-59.957031 88.589844-54.144531 41.496094-5.8125 71.292968 12.402343 88.589844 54.148437 5.363281 12.945313 10.796874 23.175781 15.59375 32.199219 14.839843 27.933594 23.800781 44.792968 2.34375 89.242187-6.546876 13.5625-6.835938 21.421875-5.925782 25.625.800782 3.6875-.113281 7.503907-2.503906 10.464844-2.453125 3.039063-6.09375 4.777344-9.992188 4.777344zm-14.972656-10h14.972656c.859376 0 1.664063-.382813 2.207032-1.054688.285156-.355469.726562-1.089843.515625-2.074219-1-4.617187-.757813-9.984374.714843-16.054687-4.164062 1.878906-8.757812 2.96875-13.589843 3.082031-1.09375 5.453125-2.703125 10.835938-4.820313 16.101563zm-164.675781-19.179688c1.472656 6.066407 1.714844 11.433594.714844 16.054688-.210938.980469.234375 1.714843.515625 2.070312.542968.671875 1.347656 1.058594 2.207031 1.058594h14.972656c-2.113281-5.269531-3.726562-10.652344-4.820312-16.101563-4.832031-.113281-9.425781-1.203124-13.589844-3.082031zm171.183594-67.28125c7.898437.570313 15.46875 3.796875 21.367187 9.226563 3.144532 2.890625 5.703125 6.3125 7.589844 10.066406 2.757812-18.132812-3.628906-30.152344-13.246094-48.25-4.902344-9.222656-10.457031-19.675781-16-33.0625-15.636718-37.742188-41.351562-53.433594-78.625-47.976562-.480468.070312-.96875.070312-1.449218 0-37.269532-5.460938-62.992188 10.234374-78.625 47.976562-5.546876 13.386719-11.101563 23.839844-16 33.0625-9.617188 18.089844-16 30.113281-13.25 48.234375 5.609374-11.101563 16.921874-18.855469 30.0625-19.378906 5.34375-7.9375 15.875-16.914063 35.9375-15.785157 40.289062 2.289063 61.09375-19.230468 68.175781-28.585937 1.589843-2.101563 4.199219-3.167969 6.808593-2.777344 2.625.394531 4.816407 2.191407 5.726563 4.691407 9.753906 26.800781 27.503906 33.066406 37.214844 34.414062 2.472656.339844 4.3125 2.457031 4.3125 4.953125zm0 0"/><path d="m236.886719 191.421875c-1.542969 0-2.972657-.148437-3.914063-.261719-1.339844-.160156-2.558594-.855468-3.378906-1.925781-.820312-1.074219-1.171875-2.429687-.972656-3.765625.527344-3.589844.792968-7.1875.792968-10.691406v-48.714844c0-2.601562 1.996094-4.769531 4.585938-4.984375 9.789062-.8125 19.546875 2.539063 26.78125 9.199219 7.21875 6.644531 11.359375 16.082031 11.359375 25.894531 0 19.4375-15.8125 35.25-35.253906 35.25zm2.53125-60.335937v43.691406c0 2.15625-.089844 4.347656-.265625 6.546875 12.871094-1.148438 22.992187-11.992188 22.992187-25.152344 0-7.125-2.890625-13.707031-8.132812-18.535156-4.046875-3.726563-9.199219-6.007813-14.59375-6.550781zm0 0"/><path d="m159.75 219.351562c-6.257812 0-11.957031-2.210937-15.644531-6.070312-1.90625-1.996094-1.832031-5.160156.164062-7.070312 2-1.90625 5.164063-1.832032 7.070313.164062 1.753906 1.835938 4.976562 2.976562 8.410156 2.976562 3.4375 0 6.660156-1.140624 8.414062-2.976562 1.90625-1.996094 5.070313-2.070312 7.070313-.164062 1.996094 1.910156 2.070313 5.074218.164063 7.070312-3.691407 3.859375-9.394532 6.070312-15.648438 6.070312zm0 0"/><path d="m196.992188 147.425781c-.792969 0-1.597657-.1875-2.34375-.585937-1.265626-.671875-4.164063-1.351563-7.789063-1.351563s-6.523437.675781-7.789063 1.351563c-2.4375 1.296875-5.460937.371094-6.761718-2.066406-1.292969-2.441407-.371094-5.46875 2.070312-6.765626 3.011719-1.601562 7.5625-2.519531 12.484375-2.519531 4.917969 0 9.464844.917969 12.480469 2.519531 2.4375 1.296876 3.363281 4.324219 2.066406 6.765626-.898437 1.691406-2.628906 2.652343-4.417968 2.652343zm0 0"/><path d="m142.515625 147.425781c-.792969 0-1.597656-.1875-2.34375-.585937-1.265625-.671875-4.164063-1.351563-7.789063-1.351563-3.621093 0-6.519531.675781-7.785156 1.351563-2.441406 1.296875-5.464844.371094-6.765625-2.066406-1.292969-2.441407-.371093-5.46875 2.070313-6.765626 3.011718-1.601562 7.5625-2.519531 12.480468-2.519531 4.921876 0 9.472657.917969 12.484376 2.519531 2.4375 1.296876 3.363281 4.324219 2.070312 6.765626-.902344 1.691406-2.632812 2.652343-4.421875 2.652343zm0 0"/><path d="m133.191406 167.023438c-3.3125 0-6-2.6875-6-6v-1.109376c0-3.316406 2.6875-6 6-6s6 2.683594 6 6v1.109376c0 3.3125-2.6875 6-6 6zm0 0"/><path d="m186.304688 167.871094c-3.3125 0-6-2.6875-6-6v-1.109375c0-3.3125 2.6875-6 6-6 3.316406 0 6 2.6875 6 6v1.109375c0 3.3125-2.683594 6-6 6zm0 0"/><path d="m260.144531 509.265625c-2.761719 0-5-2.238281-5-5v-108.277344c0-2.761719 2.238281-5 5-5s5 2.238281 5 5v108.277344c0 2.761719-2.238281 5-5 5zm0 0"/><path d="m61.699219 509.265625c-2.761719 0-5-2.238281-5-5v-108.277344c0-2.761719 2.238281-5 5-5s5 2.238281 5 5v108.277344c0 2.761719-2.238281 5-5 5zm0 0"/><path d="m193.957031 343.0625c-14.058593 0-26.242187-8.417969-31.210937-21.660156-.632813-1.6875-.308594-3.585938.847656-4.96875l38.109375-45.488282c1.480469-1.769531 3.980469-2.292968 6.046875-1.273437l19.296875 9.511719c1.390625.46875 2.789063.902344 4.191406 1.335937l1.5625.484375c1.265625.398438 2.324219 1.285156 2.9375 2.460938.613281 1.175781.734375 2.546875.335938 3.816406l-10.210938 32.417969c-4.347656 13.792969-16.496093 22.957031-30.953125 23.347656-.316406.011719-.636718.015625-.953125.015625zm-20.714843-22.574219c4.785156 9.5 13.96875 12.765625 21.398437 12.566407 8.058594-.21875 17.988281-4.628907 21.683594-16.359376l8.707031-27.640624c-.503906-.164063-1.007812-.332032-1.507812-.5-.207032-.070313-.410157-.15625-.605469-.25l-16.070313-7.925782zm0 0"/><path d="m128.457031 343.132812c-.3125 0-.628906-.003906-.941406-.011718-14.453125-.386719-26.605469-9.542969-30.957031-23.332032l-10.324219-32.707031c-.828125-2.621093.617187-5.417969 3.230469-6.261719 2.117187-.683593 4.230468-1.386718 6.328125-2.121093l18.726562-9.234375c2.066407-1.019532 4.5625-.496094 6.042969 1.273437l38.285156 45.699219c1.152344 1.375 1.476563 3.261719.855469 4.945312-5.003906 13.332032-17.1875 21.75-31.246094 21.75zm-31.203125-54.359374 8.84375 28.007812c3.699219 11.71875 13.625 16.125 21.683594 16.34375 7.417969.160156 16.648438-3.082031 21.421875-12.628906l-33.78125-40.328125-15.472656 7.628906c-.175781.085937-.355469.164063-.542969.230469-.714844.253906-1.433594.503906-2.152344.746094zm0 0"/><path d="m304.09375 512.003906h-286.34375c-4.855469 0-9.554688-2.023437-12.894531-5.550781-3.335938-3.527344-5.09375-8.332031-4.824219-13.179687l9.3125-167.175782c.828125-14.890625 11.101562-27.339844 25.5625-30.980468l38.90625-9.792969c7.398438-1.859375 14.792969-4.089844 21.980469-6.625l19.96875-9.847657c3.964843-1.953124 6.429687-5.917968 6.429687-10.34375v-10.742187c0-1.804687.976563-3.472656 2.554688-4.359375s3.507812-.847656 5.054687.09375c9.699219 5.933594 19.949219 8.945312 30.453125 8.945312 10.847656 0 21.804688-3.355468 31.699219-9.703124 1.539063-.984376 3.496094-1.050782 5.097656-.175782 1.605469.875 2.601563 2.558594 2.601563 4.386719v11.554687c0 4.425782 2.464844 8.390626 6.433594 10.347657l20.964843 10.335937c6.523438 2.210938 13.210938 4.179688 19.882813 5.859375l40.003906 10.070313c14.460938 3.640625 24.734375 16.089844 25.5625 30.980468l9.3125 167.171876c.269531 4.847656-1.488281 9.652343-4.824219 13.183593-3.339843 3.523438-8.039062 5.546875-12.894531 5.546875zm-171.902344-255.882812v2.386718c0 8.257813-4.601562 15.660157-12.007812 19.316407l-20.234375 9.976562c-.175781.085938-.355469.164063-.542969.226563-7.570312 2.683594-15.359375 5.035156-23.152344 6.996094l-38.902344 9.792968c-10.199218 2.566406-17.441406 11.339844-18.023437 21.839844l-9.3125 167.171875c-.121094 2.148437.628906 4.191406 2.105469 5.753906 1.480468 1.5625 3.476562 2.421875 5.628906 2.421875h286.34375c2.152344 0 4.148438-.859375 5.628906-2.421875 1.476563-1.5625 2.226563-3.605469 2.105469-5.753906l-9.3125-167.171875c-.582031-10.5-7.828125-19.273438-18.023437-21.839844l-40.003907-10.070312c-7.035156-1.773438-14.09375-3.855469-20.96875-6.195313-.207031-.070312-.40625-.152343-.601562-.25l-21.257813-10.480469c-7.410156-3.65625-12.011718-11.054687-12.011718-19.316406v-3.019531c-9.398438 4.570313-19.414063 6.957031-29.394532 6.957031-9.632812 0-19.039062-2.121094-28.0625-6.320312zm0 0"/><path d="m167.425781 324.644531h-12.410156c-1.480469 0-2.882813-.65625-3.835937-1.789062l-38.285157-45.699219c-.984375-1.175781-1.375-2.742188-1.058593-4.242188.316406-1.503906 1.304687-2.777343 2.683593-3.453124l1.234375-.613282c3.96875-1.957031 6.433594-5.921875 6.433594-10.34375v-10.742187c0-1.804688.976562-3.472657 2.554688-4.359375 1.578124-.886719 3.507812-.847656 5.054687.09375 9.699219 5.933594 19.945313 8.945312 30.453125 8.945312 10.84375 0 21.804688-3.355468 31.699219-9.703125 1.539062-.984375 3.492187-1.054687 5.097656-.175781 1.601563.875 2.601563 2.558594 2.601563 4.386719v11.554687c0 4.425782 2.464843 8.390625 6.433593 10.347656l1.660157.820313c1.378906.675781 2.367187 1.953125 2.683593 3.453125.316407 1.503906-.074219 3.066406-1.058593 4.242188l-38.113282 45.492187c-.945312 1.132813-2.347656 1.785156-3.828125 1.785156zm-10.074219-10h7.742188l32.816406-39.171875c-5.175781-4.023437-8.257812-10.207031-8.257812-16.964844v-3.019531c-9.398438 4.570313-19.417969 6.957031-29.398438 6.957031-9.480468 0-19.042968-2.175781-28.058594-6.34375v2.40625c0 6.601563-2.941406 12.648438-7.898437 16.679688zm0 0"/><path d="m160.921875 350.589844c-9.652344 0-18.304687-5.394532-22.578125-14.082032-1.164062-2.359374-.296875-5.214843 1.976562-6.535156 4.578126-2.652344 8.035157-6.804687 9.988282-12.011718.730468-1.953126 2.625-3.316407 4.707031-3.316407h12.414063c2.082031 0 3.949218 1.292969 4.679687 3.246094 1.90625 5.074219 5.238281 9.160156 9.640625 11.8125 2.195312 1.324219 3.035156 4.09375 1.941406 6.414063-4.136718 8.792968-13.074218 14.472656-22.769531 14.472656zm-11.234375-14.980469c2.828125 3.140625 6.863281 4.980469 11.234375 4.980469 4.457031 0 8.652344-2 11.5-5.304688-3.429687-2.898437-6.226563-6.492187-8.273437-10.636718h-5.851563c-2.125 4.316406-5.03125 8.011718-8.609375 10.960937zm0 0"/><path d="m197.683594 401.984375c-2.0625 0-4.121094-.5-6.023438-1.496094-3.578125-1.875-6.007812-5.226562-6.667968-9.1875-3.003907-18.0625-13.289063-36.09375-19.160157-45.234375-.761719-1.1875-.984375-2.644531-.617187-4.003906.367187-1.363281 1.292968-2.507812 2.550781-3.148438 3.019531-1.542968 5.457031-4.046874 6.875-7.054687.601563-1.285156 1.71875-2.246094 3.074219-2.65625 1.355468-.410156 2.820312-.230469 4.03125.503906 4.550781 2.742188 10.054687 3.847657 15.496094 3.121094 1.464843-.199219 2.941406.261719 4.03125 1.253906 13.375 12.167969 21.40625 30.246094 24.238281 37.457031 1.488281 3.792969.304687 8.003907-2.878907 10.457032l.367188 1.832031c.816406 4.09375-1.25 8.1875-5.019531 9.964844l-14.777344 6.953125c-1.761719.824218-3.640625 1.238281-5.519531 1.238281zm-20.828125-57.136719c6.359375 10.542969 15.125 27.507813 18.003906 44.8125.191406 1.15625.988281 1.730469 1.445313 1.972656.835937.4375 1.796874.457032 2.640624.058594l14.101563-6.636718-.339844-1.703126c-.667969-3.351562.585938-6.742187 3.226563-8.84375-2.660156-6.625-9.300782-21.183593-19.808594-31.535156-5.1875.316406-10.371094-.53125-15.089844-2.472656-1.214844 1.609375-2.617187 3.070312-4.179687 4.347656zm0 0"/><path d="m124.113281 401.984375c-1.878906 0-3.757812-.414063-5.519531-1.242187l-14.777344-6.953126c-3.769531-1.777343-5.835937-5.875-5.019531-9.960937l.363281-1.835937c-3.179687-2.453126-4.367187-6.664063-2.875-10.457032 2.832032-7.210937 10.867188-25.300781 24.25-37.464844 1.117188-1.019531 2.625-1.476562 4.128906-1.242187 5.453126.847656 11.015626-.167969 15.660157-2.859375 1.199219-.691406 2.632812-.859375 3.957031-.457031 1.324219.402343 2.421875 1.332031 3.035156 2.578125 1.417969 2.882812 3.8125 5.300781 6.738282 6.804687 1.253906.644531 2.175781 1.785157 2.542968 3.148438.363282 1.359375.136719 2.8125-.621094 4-5.871093 9.148437-16.167968 27.1875-19.171874 45.257812-.660157 3.957031-3.089844 7.308594-6.667969 9.183594-1.902344 1-3.964844 1.5-6.023438 1.5zm-15.367187-16.925781 14.105468 6.636718c.84375.394532 1.804688.375 2.636719-.0625.460938-.238281 1.253907-.816406 1.449219-1.972656 2.878906-17.3125 11.65625-34.289062 18.023438-44.839844-1.476563-1.210937-2.8125-2.585937-3.976563-4.085937-4.824219 1.914063-10.089844 2.699219-15.347656 2.273437-10.488281 10.34375-17.117188 24.878907-19.773438 31.5 2.636719 2.101563 3.898438 5.492188 3.222657 8.847657zm0 0"/><path d="m161.421875 383.648438c-.320313 0-.660156-.019532-.980469-.101563-.320312-.058594-.621094-.160156-.917968-.28125-.300782-.117187-.601563-.277344-.882813-.457031-.257813-.179688-.519531-.382813-.757813-.621094-.921874-.941406-1.460937-2.21875-1.460937-3.539062 0-1.300782.539063-2.601563 1.460937-3.539063.238282-.222656.5-.421875.757813-.621094.28125-.179687.582031-.320312.882813-.460937.296874-.121094.597656-.21875.917968-.28125 1.621094-.320313 3.359375.203125 4.519532 1.363281.242187.238281.441406.5.621093.777344.179688.261719.339844.5625.460938.859375.117187.300781.21875.621094.277343.921875.082032.339843.101563.660156.101563.980469 0 1.320312-.519531 2.597656-1.460937 3.539062-.9375.941406-2.21875 1.460938-3.539063 1.460938zm0 0"/><path d="m161.421875 409.488281c-.320313 0-.660156-.019531-.980469-.101562-.320312-.058594-.621094-.160157-.917968-.277344-.300782-.121094-.601563-.28125-.882813-.460937-.257813-.179688-.519531-.382813-.757813-.621094-.921874-.941406-1.460937-2.21875-1.460937-3.539063 0-1.300781.539063-2.601562 1.460937-3.539062.238282-.222657.5-.441407.757813-.621094.28125-.179687.582031-.320313.882813-.460937.296874-.121094.597656-.21875.917968-.28125 1.640625-.320313 3.359375.203124 4.519532 1.363281.242187.238281.441406.5.621093.757812.179688.28125.339844.582031.460938.878907.117187.300781.21875.621093.277343.921874.082032.339844.101563.660157.101563.980469 0 1.320313-.519531 2.597657-1.460937 3.539063-.9375.941406-2.21875 1.460937-3.539063 1.460937zm0 0"/><path d="m161.421875 435.328125c-.320313 0-.660156-.019531-.980469-.101563-.320312-.058593-.621094-.160156-.917968-.277343-.300782-.121094-.601563-.28125-.882813-.460938-.257813-.179687-.519531-.378906-.757813-.621093-.921874-.941407-1.460937-2.21875-1.460937-3.539063 0-1.300781.539063-2.601563 1.460937-3.519531.238282-.242188.5-.441406.757813-.640625.28125-.179688.582031-.320313.882813-.460938.296874-.121093.597656-.21875.917968-.28125.640625-.117187 1.320313-.117187 1.960938 0 .320312.0625.640625.160157.941406.28125.296875.140625.578125.28125.859375.460938.277344.199219.539063.398437.757813.640625.941406.917968 1.460937 2.199218 1.460937 3.519531s-.519531 2.621094-1.460937 3.539063c-.21875.242187-.480469.441406-.757813.621093-.28125.179688-.5625.339844-.859375.460938-.300781.117187-.621094.21875-.941406.277343-.320313.082032-.640625.101563-.980469.101563zm0 0"/><path d="m161.421875 461.167969c-.320313 0-.660156-.019531-.980469-.101563-.320312-.058594-.621094-.160156-.917968-.277344-.300782-.121093-.601563-.28125-.882813-.460937-.257813-.179687-.519531-.402344-.757813-.621094-.921874-.941406-1.460937-2.21875-1.460937-3.539062 0-1.320313.539063-2.601563 1.460937-3.539063.238282-.222656.5-.441406.757813-.621094.28125-.179687.582031-.320312.882813-.460937.296874-.121094.597656-.21875.917968-.28125.640625-.117187 1.320313-.117187 1.960938 0 .320312.0625.640625.160156.941406.28125.296875.140625.578125.28125.859375.460937.277344.199219.539063.398438.757813.621094.941406.9375 1.460937 2.21875 1.460937 3.539063 0 1.320312-.519531 2.597656-1.460937 3.539062-.21875.21875-.480469.441407-.757813.621094-.28125.179687-.5625.339844-.859375.460937-.300781.117188-.621094.21875-.941406.277344-.320313.082032-.640625.101563-.980469.101563zm0 0"/><path d="m161.421875 487.007812c-.320313 0-.660156-.019531-.980469-.101562-.320312-.058594-.621094-.160156-.917968-.277344-.300782-.121094-.601563-.28125-.882813-.460937-.257813-.179688-.519531-.378907-.757813-.621094-.921874-.9375-1.460937-2.21875-1.460937-3.539063 0-1.300781.539063-2.601562 1.460937-3.539062.238282-.222656.5-.421875.757813-.621094.28125-.179687.582031-.320312.882813-.460937.296874-.121094.597656-.21875.917968-.277344 1.640625-.320313 3.359375.199219 4.519532 1.359375.941406.9375 1.460937 2.238281 1.460937 3.539062 0 1.320313-.519531 2.601563-1.460937 3.539063-.9375.941406-2.21875 1.460937-3.539063 1.460937zm0 0"/></g></svg>