<svg height="511pt" viewBox="-81 0 511 511.93256" width="511pt" xmlns="http://www.w3.org/2000/svg"><path d="m222.339844 221.382812c-1.855469 2.339844-3.785156 4.5625-5.816406 6.621094-.796876.8125-1.625 1.605469-2.449219 2.398438 0 0 .003906-.003906.003906-.003906.519531 6.589843-1.28125 21.324218 2.761719 23.316406l3.855468 1.902344 14.808594 4.257812c3.703125-6.515625 6.777344-13.542969 8.898438-21.089844-5.738282-6.9375-13.292969-12.820312-22.0625-17.402344zm0 0" fill="#f45687"/><path d="m345.402344 492.34375-10.089844-181.152344c-.761719-13.679687-10.332031-25.273437-23.617188-28.617187l-43.347656-10.914063c-2.445312-.613281-4.867187-1.3125-7.292968-1.992187.066406 11.796875-5.3125 23.648437-16.054688 31.203125-14.203125 9.988281-36.847656 21.898437-65.097656 20.320312-1.789063-.101562-2.984375-1.269531-3.4375-2.667968-.453125 1.398437-1.644532 2.566406-3.4375 2.667968-28.246094 1.582032-50.894532-10.332031-65.09375-20.320312-10.742188-7.554688-16.125-19.40625-16.058594-31.207032-2.816406.804688-5.640625 1.582032-8.480469 2.296876l-42.160156 10.613281c-13.285156 3.34375-22.851563 14.9375-23.617187 28.617187l-3.558594 63.910156c10.210937-15.640624 28.445312-25.628906 48.742187-23.992187 27.699219 2.234375 48.664063 26.113281 48.664063 53.902344v101.917969h220.148437c7.929688-.003907 14.230469-6.664063 13.789063-14.585938zm0 0" fill="#f45687"/><path d="m133.253906 255.117188 2.839844-1.398438c3.972656-1.957031 2.292969-16.238281 2.730469-22.984375-.941407-.902344-1.878907-1.808594-2.789063-2.726563-1.992187-2.019531-3.894531-4.203124-5.714844-6.5-8.648437 4.566407-16.101562 10.402344-21.789062 17.28125 2.121094 7.546876 5.195312 14.574219 8.898438 21.089844zm0 0" fill="#f45687"/><path d="m223.707031 457.535156h-94.484375c-5.402344 22.382813-15.367187 40.1875-27.714844 49.394532h149.917969c-12.351562-9.207032-22.316406-27.011719-27.71875-49.394532zm0 0" fill="#f982ad"/><path d="m245.902344 239.824219c-.9375-.691407-1.503906-1.039063-1.503906-1.039063-11.039063 39.316406-47.816407 64.699219-66.230469 75.257813-3.324219 1.90625-2.085938 6.933593 1.734375 7.148437 28.25 1.582032 50.894531-10.332031 65.097656-20.320312 20.972656-14.75 21.574219-45.875.902344-61.046875zm0 0" fill="#f982ad"/><path d="m107.03125 239.824219c.933594-.691407 1.5-1.039063 1.5-1.039063 11.042969 39.316406 47.820312 64.699219 66.234375 75.257813 3.324219 1.90625 2.085937 6.933593-1.738281 7.148437-28.246094 1.582032-50.894532-10.332031-65.09375-20.320312-20.972656-14.75-21.574219-45.875-.902344-61.046875zm0 0" fill="#f982ad"/><path d="m322.871094 207.953125c-5.746094 6.65625-17.640625 16.675781-29.871094 4.285156-26.03125-26.367187 37.769531-149.851562-42.496094-197.1875-30.269531-17.851562-52.398437-8.382812-64.300781.300781 3.261719 1.894532 5.839844 4.824219 7.324219 8.328126l3-.527344s63.660156-2.414063 61.953125 65.601562c3.144531 9.785156 4.875 20.296875 4.875 31.257813 0 5.980469-.515625 11.832031-1.492188 17.503906 3.152344 3.160156 5.105469 7.515625 5.105469 12.335937 0 8.886719-6.628906 16.203126-15.207031 17.328126-.691407 1.308593-1.402344 2.601562-2.148438 3.867187-3.585937 41.902344 1.25 73.808594 45.1875 72.589844 5.609375-.152344 11.167969-1.59375 16.074219-4.320313 7.085938-3.941406 14.96875-14.765625 15.675781-29.925781.09375-1.980469-2.382812-2.9375-3.679687-1.4375zm0 0" fill="#7c292e"/><path d="m176.414062 25.339844c-48.019531 0-86.941406 42.386718-86.941406 94.671875 0 5.984375.519532 11.835937 1.496094 17.511719 3.03125-3.035157 7.164062-4.96875 11.753906-5.132813l.164063-4.535156c.21875-4.425781 3.875-7.898438 8.304687-7.996094 65.78125-1.496094 96.550782-14.351563 110.617188-27.742187 3.058594-2.914063 7.820312-3.199219 11.09375-.535157 9.128906 7.425781 14.992187 16.578125 16.222656 29.25l.003906.035157c.453125 4.265624.648438 8.726562.648438 13.300781 0-.597657.011718-1.203125.003906-1.792969 4.71875.082031 8.980469 2.035156 12.078125 5.140625.976563-5.671875 1.492187-11.523437 1.492187-17.503906.003907-52.285157-38.917968-94.671875-86.9375-94.671875zm0 0" fill="#7c292e"/><path d="m102.722656 132.390625c-9.367187.335937-16.863281 8.015625-16.863281 17.464844 0 9.660156 7.832031 17.492187 17.496094 17.492187 1.011719 0 2.003906-.101562 2.972656-.269531-2.554687-11.832031-3.777344-23.734375-3.605469-34.6875zm0 0" fill="#fcb275"/><path d="m249.132812 120.871094-.003906-.039063c-1.128906-11.621093-7.019531-22.257812-16.269531-29.382812-.019531-.015625-.042969-.03125-.0625-.046875-3.285156-2.527344-7.929687-2.203125-10.925781.660156-14.039063 13.40625-44.808594 26.304688-110.691406 27.796875-4.449219.097656-8.082032 3.597656-8.316407 8.042969-1.734375 33.058594 10.050781 76.652344 33.171875 100.101562 9.082032 9.210938 19.9375 17.621094 32.636719 23.46875 4.832031 2.226563 10.382813 2.226563 15.21875 0 12.699219-5.847656 23.550781-14.257812 32.632813-23.46875 24.617187-24.964844 36.316406-72.265625 32.609374-107.132812zm0 0" fill="#fcb275"/><path d="m249.785156 132.375c.136719 11.085938-1.066406 22.945312-3.5625 34.660156 1.054688.199219 2.140625.3125 3.253906.3125 9.660157 0 17.492188-7.832031 17.492188-17.492187 0-9.558594-7.667969-17.3125-17.183594-17.480469zm0 0" fill="#fcb275"/><path d="m220.695312 255.617188-3.855468-1.902344c-4.042969-1.992188-2.242188-16.726563-2.761719-23.316406-8.570313 8.265624-18.605469 15.742187-30.191406 21.078124-4.832031 2.222657-10.378907 2.222657-15.210938 0-11.429687-5.265624-21.355469-12.613281-29.851562-20.746093-.4375 6.746093 1.242187 21.027343-2.730469 22.984375l-2.839844 1.402344-15.824218 4.757812c15.59375 27.417969 42.457031 45.636719 57.335937 54.167969.882813.503906 1.425781 1.238281 1.699219 2.035156.277344-.796875.816406-1.53125 1.703125-2.035156 14.878906-8.53125 41.742187-26.75 57.335937-54.167969zm0 0" fill="#fcb275"/><g fill="#231f20"><path d="m235.503906 264.875c-.457031 0-.921875-.0625-1.378906-.195312l-14.8125-4.257813c-.285156-.082031-.5625-.1875-.828125-.320313l-3.855469-1.902343c-5.746094-2.832031-5.617187-11.597657-5.480468-20.878907.039062-2.414062.070312-4.699218-.039063-6.304687-.179687-1.476563.292969-3.015625 1.429687-4.152344.019532-.019531.042969-.039062.0625-.0625l.339844-.332031c.683594-.652344 1.363282-1.308594 2.019532-1.976562 1.8125-1.835938 3.648437-3.925782 5.457031-6.21875 1.488281-1.882813 4.113281-2.441407 6.238281-1.328126 9.558594 4.996094 17.5 11.269532 23.601562 18.648438 1.042969 1.261719 1.40625 2.957031.960938 4.539062-2.117188 7.527344-5.269531 14.996094-9.367188 22.207032-.90625 1.601562-2.585937 2.535156-4.347656 2.535156zm-13-13.9375 10.523438 3.023438c2.367187-4.589844 4.3125-9.269532 5.800781-13.972657-4.203125-4.617187-9.320313-8.710937-15.285156-12.222656-1.152344 1.328125-2.308594 2.582031-3.457031 3.75-.300782.304687-.609376.605469-.914063.910156.027344 1.550781.003906 3.265625-.027344 5.042969-.046875 3.539062-.144531 9.933594.628907 12.125zm0 0"/><path d="m176.886719 217.003906c-8.925781 0-17.238281-4.421875-22.238281-11.824218-1.542969-2.289063-.941407-5.398438 1.347656-6.941407 2.285156-1.546875 5.394531-.945312 6.941406 1.34375 3.136719 4.648438 8.351562 7.417969 13.949219 7.417969 5.597656 0 10.8125-2.773438 13.957031-7.417969 1.539062-2.292969 4.652344-2.890625 6.941406-1.34375 2.289063 1.542969 2.890625 4.652344 1.34375 6.941407-5.007812 7.40625-13.320312 11.824218-22.242187 11.824218zm0 0"/><path d="m214.328125 147.285156c-.792969 0-1.597656-.1875-2.34375-.585937-1.179687-.625-3.945313-1.359375-7.84375-1.359375-3.894531 0-6.660156.734375-7.84375 1.359375-2.433594 1.300781-5.464844.371093-6.761719-2.066407-1.292968-2.4375-.367187-5.464843 2.070313-6.761718 3.027343-1.609375 7.597656-2.53125 12.535156-2.53125 4.941406 0 9.511719.921875 12.539063 2.53125 2.4375 1.296875 3.363281 4.324218 2.070312 6.761718-.902344 1.691407-2.632812 2.652344-4.421875 2.652344zm0 0"/><path d="m159.5625 147.285156c-.792969 0-1.597656-.1875-2.34375-.585937-1.179688-.625-3.945312-1.359375-7.84375-1.359375s-6.660156.734375-7.84375 1.359375c-2.429688 1.300781-5.464844.371093-6.761719-2.066407s-.371093-5.464843 2.070313-6.761718c3.027344-1.609375 7.597656-2.53125 12.535156-2.53125 4.941406 0 9.511719.921875 12.539062 2.53125 2.4375 1.296875 3.363282 4.324218 2.066407 6.761718-.894531 1.691407-2.628907 2.652344-4.417969 2.652344zm0 0"/><path d="m150.1875 166.980469c-3.316406 0-6-2.6875-6-6v-1.113281c0-3.316407 2.683594-6 6-6 3.3125 0 6 2.683593 6 6v1.113281c0 3.3125-2.683594 6-6 6zm0 0"/><path d="m203.585938 167.835938c-3.3125 0-6-2.6875-6-6v-1.117188c0-3.3125 2.6875-6 6-6s6 2.6875 6 6v1.117188c0 3.3125-2.6875 6-6 6zm0 0"/><path d="m283.984375 508.957031c-2.761719 0-5-2.238281-5-5v-117.332031c0-2.761719 2.238281-5 5-5 2.765625 0 5 2.238281 5 5v117.332031c0 2.761719-2.234375 5-5 5zm0 0"/><path d="m331.609375 511.925781h-220.144531c-2.761719 0-5-2.238281-5-5v-101.914062c0-25.4375-19.355469-46.925781-44.066406-48.917969-17.550782-1.410156-34.46875 6.914062-44.148438 21.742188-1.242188 1.898437-3.601562 2.71875-5.746094 2.019531-2.152344-.707031-3.558594-2.769531-3.4375-5.03125l3.558594-63.910157c.890625-15.953124 11.898438-29.289062 27.390625-33.191406l42.15625-10.609375c2.480469-.625 5.128906-1.34375 8.332031-2.257812 1.511719-.429688 3.136719-.125 4.394532.824219 1.253906.953124 1.984374 2.4375 1.976562 4.011718-.0625 10.78125 5.144531 20.910156 13.933594 27.089844 19.769531 13.902344 40.359375 20.433594 61.207031 19.457031.847656-1.648437 2.550781-2.714843 4.449219-2.714843 1.894531 0 3.597656 1.066406 4.449218 2.714843 20.839844.96875 41.445313-5.554687 61.207032-19.457031 8.785156-6.179688 13.992187-16.304688 13.933594-27.085938-.007813-1.570312.71875-3.050781 1.964843-4 1.246094-.953124 2.871094-1.261718 4.378907-.839843l1.417968.398437c1.910156.535156 3.820313 1.074219 5.746094 1.5625l43.351562 10.910156c15.492188 3.898438 26.5 17.238282 27.386719 33.191407l10.089844 181.152343c.292969 5.214844-1.523437 10.175782-5.113281 13.972657-3.535156 3.738281-8.519532 5.882812-13.667969 5.882812zm-215.144531-10h215.144531c2.449219 0 4.722656-.980469 6.40625-2.757812 1.679687-1.777344 2.53125-4.101563 2.394531-6.542969l-10.09375-181.15625c-.640625-11.558594-8.617187-21.222656-19.84375-24.046875l-43.347656-10.910156c-.507812-.128907-1.015625-.261719-1.523438-.394531-1.695312 11.558593-8.046874 22.035156-17.726562 28.84375-21.882812 15.390624-44.871094 22.523437-68.25 21.222656-1.121094-.0625-2.1875-.332032-3.160156-.769532-.972656.441407-2.042969.707032-3.164063.769532-23.410156 1.308594-46.363281-5.832032-68.246093-21.222656-9.683594-6.8125-16.039063-17.292969-17.726563-28.855469-.933594.25-1.832031.480469-2.714844.703125l-42.15625 10.613281c-11.226562 2.824219-19.203125 12.488281-19.847656 24.046875l-2.742187 49.261719c11.707031-10.46875 27.292968-15.910157 43.335937-14.609375 29.867187 2.410156 53.261719 28.277344 53.261719 58.890625zm0 0"/><path d="m212.957031 387.886719c-2.761719 0-5-2.234375-5-5v-72.976563c0-2.761718 2.238281-5 5-5s5 2.238282 5 5v72.976563c0 2.761719-2.238281 5-5 5zm0 0"/><path d="m138.867188 387.886719c-2.761719 0-5-2.234375-5-5v-72.976563c0-2.761718 2.238281-5 5-5 2.761718 0 5 2.238282 5 5v72.976563c0 2.761719-2.238282 5-5 5zm0 0"/><path d="m117.429688 264.875c-1.761719 0-3.441407-.933594-4.347657-2.527344-4.101562-7.214844-7.25-14.683594-9.367187-22.210937-.441406-1.574219-.082032-3.273438.960937-4.535157 6.046875-7.3125 13.886719-13.542968 23.304688-18.515624 2.128906-1.125 4.761719-.574219 6.253906 1.316406 1.769531 2.230468 3.570313 4.28125 5.359375 6.089844.875.886718 1.78125 1.761718 2.6875 2.628906 1.066406 1.019531 1.621094 2.460937 1.53125 3.929687-.105469 1.609375-.070312 3.871094-.035156 6.265625.140625 9.285156.269531 18.050782-5.472656 20.886719l-2.84375 1.402344c-.246094.121093-.503907.222656-.769532.304687l-15.824218 4.757813c-.476563.140625-.957032.207031-1.4375.207031zm15.824218-9.757812h.019532zm-19.144531-15.128907c1.480469 4.6875 3.417969 9.351563 5.777344 13.929688l11.53125-3.46875 1.738281-.855469c.777344-2.195312.679688-8.589844.625-12.128906-.023438-1.644532-.050781-3.230469-.03125-4.679688-.433594-.421875-.859375-.84375-1.277344-1.269531-1.117187-1.132813-2.230468-2.339844-3.34375-3.613281-5.84375 3.476562-10.875 7.527344-15.019531 12.085937zm0 0"/><path d="m251.425781 511.925781h-149.917969c-2.152343 0-4.066406-1.378906-4.746093-3.425781-.675781-2.046875.03125-4.296875 1.757812-5.582031 11.320313-8.433594 20.738281-25.40625 25.84375-46.558594.539063-2.246094 2.550781-3.828125 4.859375-3.828125h94.484375c2.308594 0 4.320313 1.582031 4.863281 3.828125 5.105469 21.152344 14.523438 38.125 25.84375 46.558594 1.722657 1.285156 2.433594 3.535156 1.757813 5.582031-.679687 2.046875-2.59375 3.425781-4.746094 3.425781zm-137.488281-10h125.058594c-8.21875-9.761719-14.828125-23.277343-19.171875-39.394531h-86.71875c-4.34375 16.117188-10.949219 29.632812-19.167969 39.394531zm0 0"/><path d="m185.066406 326.335938c-1.8125 0-3.625-.050782-5.441406-.152344-3.957031-.222656-7.230469-2.957032-8.140625-6.808594-.90625-3.828125.78125-7.710938 4.195313-9.667969 45.226562-25.933593 59.453124-56.414062 63.90625-72.273437.425781-1.503906 1.539062-2.71875 2.992187-3.292969 1.457031-.570313 3.109375-.421875 4.445313.386719 0 0 .691406.421875 1.839843 1.261718v.003907c11.078125 8.132812 17.347657 20.714843 17.210938 34.527343-.144531 13.980469-6.777344 26.609376-18.195313 34.640626-20.1875 14.199218-41.292968 21.375-62.8125 21.375zm-.921875-10.003907c19.851563.1875 39.230469-6.363281 57.976563-19.550781 8.757812-6.15625 13.839844-15.839844 13.949218-26.5625.089844-8.773438-3.203124-16.894531-9.167968-22.949219-12.59375 34.234375-42.984375 57.179688-62.757813 69.0625zm0 0"/><path d="m167.867188 326.335938c-21.519532 0-42.625-7.175782-62.8125-21.375-11.417969-8.03125-18.046876-20.660157-18.191407-34.640626-.140625-13.8125 6.128907-26.394531 17.207031-34.527343 0 0 .003907 0 .003907-.003907 1.144531-.839843 1.839843-1.261718 1.839843-1.261718 1.335938-.8125 2.984376-.957032 4.441407-.386719 1.453125.574219 2.570312 1.789063 2.992187 3.292969 4.453125 15.859375 18.679688 46.339844 63.90625 72.269531 3.417969 1.960937 5.101563 5.84375 4.195313 9.667969-.910157 3.851562-4.183594 6.589844-8.140625 6.8125-1.816406.101562-3.632813.152344-5.441406.152344zm-61.835938-79.066407c-5.96875 6.054688-9.257812 14.175781-9.167969 22.949219.105469 10.722656 5.191407 20.40625 13.945313 26.5625 18.464844 12.988281 37.648437 19.554688 57.09375 19.554688.292968 0 .589844-.003907.886718-.003907-19.773437-11.882812-50.164062-34.828125-62.757812-69.0625zm0 0"/><path d="m292.355469 248.671875c-15.796875 0-27.449219-4.199219-35.570313-12.800781-14.328125-15.179688-14.1875-41.503906-12.15625-65.25.066406-.746094.296875-1.46875.679688-2.117188.707031-1.199218 1.378906-2.421875 2.035156-3.660156.757812-1.433594 2.164062-2.410156 3.769531-2.621094 6.1875-.808594 10.855469-6.128906 10.855469-12.371094 0-3.320312-1.292969-6.449218-3.640625-8.804687-1.148437-1.148437-1.664063-2.78125-1.390625-4.378906.945312-5.480469 1.421875-11.085938 1.421875-16.65625 0-10.152344-1.558594-20.15625-4.632813-29.730469-.171874-.53125-.253906-1.09375-.238281-1.652344.484375-19.394531-4.578125-34.472656-15.050781-44.816406-15.640625-15.441406-38.488281-15.710938-41.414062-15.671875l-2.625.460937c-2.292969.414063-4.5625-.832031-5.472657-2.976562-1.050781-2.488281-2.910156-4.605469-5.230469-5.953125-1.457031-.847656-2.390624-2.375-2.480468-4.0625-.085938-1.683594.683594-3.300781 2.046875-4.296875 11.804687-8.621094 36.582031-20.152344 69.789062-.566406 53.527344 31.566406 46.296875 95.472656 41.023438 142.136718-2.78125 24.601563-5.410157 47.839844 2.488281 55.839844 3.015625 3.054688 5.929688 4.457032 9.046875 4.390625 5.558594-.1875 10.832031-5.359375 13.484375-8.425781 1.976562-2.292969 5.203125-3.082031 8.015625-1.957031 2.796875 1.117187 4.582031 3.886719 4.441406 6.894531-.792969 16.960938-9.734375 29.328125-18.242187 34.058594-5.496094 3.058594-11.847656 4.769531-18.363282 4.949218-.878906.027344-1.742187.039063-2.589843.039063zm-37.851563-76.085937c-1.65625 20.070312-1.921875 44.261718 9.554688 56.421874 6.488281 6.871094 16.476562 10.019532 30.605468 9.632813 4.914063-.136719 9.679688-1.414063 13.78125-3.695313 4.574219-2.542968 9.59375-8.832031 11.886719-17.632812-4.003906 3.121094-8.886719 5.613281-14.394531 5.796875-5.886719.207031-11.480469-2.277344-16.496094-7.355469-11.253906-11.402344-8.632812-34.613281-5.308594-63.992187 5.246094-46.394531 11.773438-104.132813-36.167968-132.402344-23.171875-13.667969-41.195313-10.25-53.414063-3.433594.601563.707031 1.164063 1.457031 1.671875 2.234375.042969 0 .078125-.003906.117188-.003906 1.207031-.050781 29.449218-.875 49.121094 18.542969 12.359374 12.203125 18.425781 29.46875 18.042968 51.335937 3.222656 10.316406 4.859375 21.070313 4.859375 31.976563 0 5.335937-.398437 10.695312-1.183593 15.96875 3.109374 3.945312 4.792968 8.78125 4.792968 13.875 0 10.339843-7.113281 19.277343-16.933594 21.777343-.179687.320313-.359374.636719-.535156.953126zm72.152344 38.636718s-.003906 0-.007812.007813c.003906-.003907.003906-.007813.007812-.007813zm-3.785156-3.269531h.019531zm0 0"/><path d="m90.96875 142.527344c-.507812 0-1.015625-.078125-1.511719-.234375-1.78125-.566407-3.101562-2.078125-3.417969-3.917969-1.039062-6.050781-1.566406-12.226562-1.566406-18.363281 0-54.957031 41.242188-99.667969 91.941406-99.667969 50.699219 0 91.945313 44.710938 91.945313 99.667969 0 6.148437-.527344 12.324219-1.566406 18.355469-.316407 1.839843-1.632813 3.351562-3.417969 3.917968-1.777344.5625-3.726562.085938-5.046875-1.238281-1.480469-1.480469-3.273437-2.550781-5.226563-3.140625-.882812.785156-2.042968 1.261719-3.320312 1.261719-2.761719 0-5-2.242188-5-5v-.003907c.003906-4.574218-.203125-8.871093-.617188-12.765624-1.03125-10.558594-5.605468-18.773438-14.410156-25.9375-1.289062-1.050782-3.222656-.933594-4.492187.277343-18.949219 18.035157-57.289063 27.832031-113.953125 29.117188-1.832032.042969-3.339844 1.46875-3.425782 3.242187l-.160156 4.472656c-.09375 2.621094-2.199218 4.722657-4.820312 4.816407-3.160156.113281-6.144532 1.414062-8.390625 3.667969-.957031.957031-2.238281 1.472656-3.542969 1.472656zm85.445312-112.1875c-45.183593 0-81.941406 40.226562-81.941406 89.671875 0 3 .136719 6.015625.414063 9.015625.972656-.394532 1.96875-.71875 2.992187-.976563l.011719-.375c.34375-7.054687 6.136719-12.65625 13.191406-12.816406 67.382813-1.527344 95.535157-15.179687 107.28125-26.363281 4.902344-4.667969 12.515625-5.007813 17.699219-.792969 10.867188 8.839844 16.769531 19.515625 18.042969 32.644531.257812 2.414063.441406 4.964844.550781 7.621094 1.125.265625 2.222656.617188 3.289062 1.046875.273438-2.992187.414063-6.003906.414063-9.007813-.003906-49.441406-36.761719-89.667968-81.945313-89.667968zm0 0"/><path d="m103.351562 172.347656c-12.402343 0-22.492187-10.089844-22.492187-22.492187 0-12.160157 9.523437-22.027344 21.6875-22.457031 1.355469-.046876 2.699219.464843 3.675781 1.425781.980469.957031 1.523438 2.277343 1.5 3.648437-.167968 10.578125 1.039063 22.179688 3.488282 33.550782.289062 1.332031.019531 2.726562-.746094 3.851562-.761719 1.128906-1.953125 1.898438-3.292969 2.128906-1.347656.230469-2.59375.34375-3.820313.34375zm-5.578124-33.671875c-4.121094 2.039063-6.914063 6.273438-6.914063 11.175781 0 5.808594 3.984375 10.707032 9.363281 12.097657-1.390625-7.851563-2.21875-15.734375-2.449218-23.273438zm0 0"/><path d="m176.28125 258.144531c-3.3125 0-6.621094-.710937-9.703125-2.128906-12.085937-5.566406-23.558594-13.8125-34.105469-24.5-24.964844-25.320313-36.304687-71.421875-34.601562-103.878906.371094-7.003907 6.164062-12.617188 13.191406-12.777344 67.46875-1.527344 95.621094-15.207031 107.355469-26.417969 4.839843-4.621094 12.167969-5.046875 17.425781-1.003906 10.367188 7.984375 17 19.960938 18.261719 32.902344 3.566406 33.546875-7.144531 83.914062-34.023438 111.171875-10.542969 10.691406-22.015625 18.933593-34.101562 24.5-3.082031 1.421875-6.390625 2.132812-9.699219 2.132812zm51.453125-163.4375c-.871094 0-1.738281.328125-2.410156.96875-18.925781 18.078125-57.292969 27.898438-114.03125 29.183594-1.832031.042969-3.339844 1.492187-3.4375 3.304687-1.585938 30.265626 8.804687 73.074219 31.742187 96.328126 9.691406 9.832031 20.175782 17.378906 31.164063 22.441406 3.507812 1.613281 7.53125 1.613281 11.035156 0 10.988281-5.0625 21.472656-12.609375 31.164063-22.441406 24.722656-25.066407 34.523437-71.824219 31.199218-103.09375 0-.007813 0-.011719 0-.019532l-.007812-.039062c-.992188-10.230469-6.21875-19.671875-14.34375-25.929688-.617188-.472656-1.347656-.703125-2.074219-.703125zm0 0"/><path d="m249.476562 172.347656c-1.367187 0-2.773437-.132812-4.183593-.402344-1.320313-.25-2.488281-1.019531-3.234375-2.144531-.746094-1.117187-1.007813-2.496093-.726563-3.808593 2.390625-11.234376 3.589844-22.835938 3.453125-33.554688-.015625-1.351562.515625-2.652344 1.472656-3.605469.957032-.953125 2.21875-1.492187 3.617188-1.457031 12.183594.214844 22.09375 10.296875 22.09375 22.476562 0 12.40625-10.089844 22.496094-22.492188 22.496094zm5.25-33.808594c-.234374 7.664063-1.058593 15.621094-2.441406 23.488282 5.542969-1.277344 9.683594-6.25 9.683594-12.175782 0-4.96875-2.976562-9.3125-7.242188-11.3125zm0 0"/><path d="m176.464844 321.078125c-1.960938 0-3.722656-1.144531-4.539063-2.898437-15.214843-8.769532-42.746093-27.523438-58.84375-55.832032-.753906-1.324218-.863281-2.917968-.296875-4.332031s1.746094-2.492187 3.207032-2.929687l15.425781-4.636719 1.738281-.859375c.777344-2.191406.679688-8.585938.625-12.128906-.039062-2.59375-.078125-5.046876.050781-7.050782.125-1.941406 1.363281-3.632812 3.175781-4.335937 1.800782-.707031 3.867188-.300781 5.273438 1.042969 8.949219 8.566406 18.53125 15.234374 28.484375 19.816406 3.503906 1.613281 7.523437 1.613281 11.027344 0 10.070312-4.636719 19.765625-11.414063 28.8125-20.136719 1.394531-1.34375 3.441406-1.761719 5.246093-1.078125 1.808594.6875 3.058594 2.355469 3.207032 4.285156.164062 2.078125.125 4.691406.085937 7.460938-.050781 3.539062-.144531 9.933594.628907 12.125l2.726562 1.34375 14.378906 4.136718c1.476563.421876 2.671875 1.5 3.25 2.917969s.472656 3.023438-.285156 4.355469c-16.097656 28.308594-43.625 47.0625-58.84375 55.832031-.808594 1.757813-2.570312 2.902344-4.535156 2.902344zm-51.394532-58.277344c15.039063 23.019531 38 38.679688 51.394532 46.453125 13.386718-7.765625 36.3125-23.402344 51.351562-46.382812l-8.503906-2.445313c-.289062-.082031-.5625-.191406-.832031-.324219l-3.855469-1.902343c-4.875-2.402344-5.519531-9.082031-5.519531-16.726563-7.394531 5.992188-15.140625 10.867188-23.128907 14.542969-6.164062 2.839844-13.234374 2.835937-19.390624 0-7.863282-3.617187-15.484376-8.390625-22.761719-14.242187-.015625 7.515624-.707031 14.054687-5.519531 16.425781l-2.839844 1.402343c-.25.121094-.507813.226563-.773438.304688zm0 0"/></g><path d="m111.464844 506.933594v-101.925782c0-27.789062-20.964844-51.667968-48.664063-53.902343-31.082031-2.503907-57.335937 22.246093-57.335937 52.828125v96.449218c0 3.617188 2.933594 6.550782 6.550781 6.550782zm0 0" fill="#30a9e5"/><path d="m5.464844 418.933594v81.449218c0 3.617188 2.933594 6.550782 6.550781 6.550782h99.449219v-88zm0 0" fill="#1b87c9"/><path d="m111.464844 511.933594h-99.449219c-6.371094 0-11.550781-5.179688-11.550781-11.550782v-96.449218c0-16.089844 6.832031-31.617188 18.738281-42.605469 12.054687-11.121094 27.691406-16.53125 44-15.207031 29.867187 2.410156 53.261719 28.277344 53.261719 58.890625v101.921875c0 2.761718-2.238282 5-5 5zm-53.042969-156.003906c-12.050781 0-23.445313 4.449218-32.4375 12.75-9.863281 9.097656-15.519531 21.945312-15.519531 35.253906v96.449218c0 .855469.699218 1.550782 1.550781 1.550782h94.449219v-96.921875c0-25.4375-19.355469-46.925781-44.066406-48.917969-1.332032-.109375-2.660157-.164062-3.976563-.164062zm0 0" fill="#231f20"/><path d="m111.464844 511.933594h-99.449219c-6.371094 0-11.550781-5.179688-11.550781-11.550782v-81.449218c0-2.761719 2.238281-5 5-5h106c2.761718 0 5 2.238281 5 5v88c0 2.761718-2.238282 5-5 5zm-101-88v76.449218c0 .855469.699218 1.550782 1.550781 1.550782h94.449219v-78zm0 0" fill="#231f20"/><path d="m176.414062 25.339844c6.257813 0 12.359376.738281 18.242188 2.105468-1.441406-8.207031-8.589844-14.453124-17.210938-14.453124-8.464843 0-15.523437 6.011718-17.144531 14 5.222657-1.066407 10.605469-1.652344 16.113281-1.652344zm0 0" fill="#f45687"/><path d="m194.65625 32.445312c-.375 0-.757812-.042968-1.132812-.128906-10.558594-2.457031-21.425782-2.632812-32.222657-.429687-1.636719.335937-3.34375-.175781-4.53125-1.359375-1.1875-1.1875-1.703125-2.890625-1.371093-4.53125 2.117187-10.433594 11.386718-18.003906 22.042968-18.003906 10.933594 0 20.246094 7.8125 22.136719 18.585937.292969 1.652344-.269531 3.339844-1.484375 4.496094-.9375.890625-2.171875 1.371093-3.4375 1.371093zm-18.242188-12.105468c2.976563 0 5.964844.160156 8.941407.476562-2.164063-1.777344-4.929688-2.824218-7.910157-2.824218-2.839843 0-5.5.964843-7.632812 2.609374 2.207031-.171874 4.410156-.261718 6.601562-.261718zm0 0" fill="#231f20"/></svg>