<svg height="512pt" viewBox="-89 0 512 512" width="512pt" xmlns="http://www.w3.org/2000/svg"><path d="m317.339844 420.625c.097656 0 .191406.011719.285156.015625l-5.164062-92.753906c-.699219-12.515625-9.453126-23.125-21.613282-26.1875l-39.667968-9.984375-14.769532-4.238282-43.023437 43.777344c-2.253907 1.691406-5.449219 1.285156-7.210938-.917968l-8.363281-10.453126-2.550781-3.1875c-.285157-.351562-.417969-.765624-.484375-1.1875h-15.511719c-.066406.421876-.203125.835938-.484375 1.1875l-2.550781 3.1875-8.363281 10.453126c-1.761719 2.203124-4.957032 2.609374-7.210938.917968l-43.023438-43.773437c-5.179687 1.667969-10.414062 3.179687-15.695312 4.507812l-38.574219 9.710938c-12.160156 3.0625-20.914062 13.671875-21.613281 26.1875l-5.164062 92.746093c.039062 0 .082031-.007812.125-.007812h52.007812v86.375h196.777344l-.003906-62.949219v-23.425781zm0 0" fill="#e8e6e6"/><path d="m321.695312 493.65625-2.769531-49.726562c-.523437.074218-1.050781.121093-1.585937.121093h-51.847656l.003906 62.949219h43.578125c7.253906-.003906 13.023437-6.097656 12.621093-13.34375zm0 0" fill="#fcb275"/><path d="m16.710938 444.050781c-.484376 0-.957032-.035156-1.425782-.09375l-2.769531 49.699219c-.402344 7.246094 5.363281 13.34375 12.621094 13.34375h43.578125v-62.949219zm0 0" fill="#fcb275"/><path d="m120.820312 277.117188-16.367187 8.070312c-2.261719.796875-4.539063 1.554688-6.820313 2.289062l43.023438 43.777344c2.257812 1.691406 5.453125 1.285156 7.214844-.917968l10.910156-13.640626c.824219-1.023437.722656-2.507812-.226562-3.417968zm0 0" fill="#1b87c9"/><path d="m240.378906 383.007812h-36.675781c-3.914063 0-7.085937 3.171876-7.085937 7.085938v51.460938c0 3.914062 3.171874 7.085937 7.085937 7.085937h36.675781c3.914063 0 7.085938-3.171875 7.085938-7.085937v-51.460938c-.003906-3.914062-3.175782-7.085938-7.085938-7.085938zm0 0" fill="#1b87c9"/><path d="m130.347656 383.007812h-36.675781c-3.914063 0-7.085937 3.171876-7.085937 7.085938v51.460938c0 3.914062 3.171874 7.085937 7.085937 7.085937h36.675781c3.914063 0 7.085938-3.171875 7.085938-7.085937v-51.460938c0-3.914062-3.171875-7.085938-7.085938-7.085938zm0 0" fill="#1b87c9"/><path d="m230.773438 285.6875-17.492188-8.625-37.789062 36.21875c-.949219.910156-1.046876 2.390625-.226563 3.417969l10.914063 13.640625c1.761718 2.199218 4.953124 2.605468 7.210937.914062l43.023437-43.773437c-1.882812-.59375-3.773437-1.15625-5.640624-1.792969zm0 0" fill="#1b87c9"/><path d="m317.339844 420.625h-51.847656v23.425781h51.847656c6.441406 0 11.710937-5.269531 11.710937-11.710937s-5.269531-11.714844-11.710937-11.714844zm0 0" fill="#30a9e5"/><path d="m68.71875 420.625h-52.007812c-6.441407 0-11.714844 5.269531-11.714844 11.714844 0 6.441406 5.273437 11.710937 11.714844 11.710937h52.007812zm0 0" fill="#30a9e5"/><path d="m240.378906 383.007812h-36.675781c-3.914063 0-7.085937 3.171876-7.085937 7.085938v10.921875c0 3.914063 3.171874 7.085937 7.085937 7.085937h36.675781c3.914063 0 7.085938-3.171874 7.085938-7.085937v-10.921875c-.003906-3.914062-3.175782-7.085938-7.085938-7.085938zm0 0" fill="#30a9e5"/><path d="m130.347656 383.007812h-36.675781c-3.914063 0-7.085937 3.171876-7.085937 7.085938v10.921875c0 3.914063 3.171874 7.085937 7.085937 7.085937h36.675781c3.914063 0 7.085938-3.171874 7.085938-7.085937v-10.921875c0-3.914062-3.171875-7.085938-7.085938-7.085938zm0 0" fill="#30a9e5"/><path d="m244.222656 115.628906c-5.441406 0-9.898437 4.453125-9.898437 9.898438v63.34375c0 5.441406 4.457031 9.898437 9.898437 9.898437 5.445313 0 9.898438-4.457031 9.898438-9.898437v-63.347656c0-5.445313-4.453125-9.894532-9.898438-9.894532zm0 0" fill="#e04e36"/><path d="m89.824219 115.628906c-5.445313 0-9.898438 4.453125-9.898438 9.898438v63.34375c0 5.441406 4.453125 9.898437 9.898438 9.898437 5.445312 0 9.898437-4.457031 9.898437-9.898437v-63.347656c0-5.445313-4.453125-9.894532-9.898437-9.894532zm0 0" fill="#e04e36"/><path d="m251.03125 118.382812c1.894531 1.808594 3.089844 4.335938 3.089844 7.144532v63.34375c0 2.804687-1.199219 5.335937-3.089844 7.140625 18.128906-3.621094 31.789062-19.617188 31.789062-38.8125.003907-19.195313-13.660156-35.191407-31.789062-38.816407zm0 0" fill="#fc5d4c"/><path d="m79.929688 188.867188v-63.34375c0-2.804688 1.195312-5.335938 3.089843-7.140626-18.132812 3.625-31.796875 19.621094-31.796875 38.8125 0 19.195313 13.664063 35.191407 31.792969 38.816407-1.890625-1.808594-3.085937-4.335938-3.085937-7.144531zm0 0" fill="#fc5d4c"/><path d="m81.367188 118.789062v-8.527343c0-47.125 38.339843-85.464844 85.46875-85.464844 47.128906 0 85.46875 38.339844 85.46875 85.464844v8.433593c7.714843 1.8125 14.550781 5.863282 19.792968 11.449219v-19.882812c0-58.039063-47.222656-105.261719-105.261718-105.261719-58.039063 0-105.261719 47.21875-105.261719 105.261719v20.300781c5.203125-5.707031 12.046875-9.875 19.792969-11.773438zm0 0" fill="#e8e6e6"/><path d="m213.226562 277.035156-3.53125-1.738281c-5.601562-2.761719-9.144531-8.460937-9.144531-14.707031v-6.667969c-1.152343.652344-2.445312 1.097656-3.847656 1.242187l-.863281.09375c-6.144532 4.871094-12.917969 9.222657-20.363282 12.648438-4.652343 2.144531-9.996093 2.144531-14.648437 0-10.308594-4.746094-19.34375-11.261719-27.171875-18.5v11.183594c0 6.246094-3.542969 11.945312-9.144531 14.707031l-2.601563 1.28125-1.089844.539063 37.734376 36.160156c.621093.59375.839843 1.433594.714843 2.230468h15.511719c-.128906-.796874.089844-1.632812.710938-2.230468l37.789062-36.214844zm0 0" fill="#fcb275"/><path d="m234.324219 188.867188v-57.855469c-.859375-1.050781-1.921875-1.941407-3.164063-2.585938-6.15625-3.195312-12.5-5.886719-18.964844-8.078125-.886718-.300781-1.53125-1.0625-1.664062-1.984375l-4.183594-28.230469c-.117187-.792968-1.246094-.832031-1.417968-.046874l-5.242188 24.113281c-.292969 1.347656-1.617188 2.179687-2.960938 1.898437-5.796874-1.230468-11.652343-2.074218-17.53125-2.535156-1.160156-.089844-2.105468-.957031-2.273437-2.105469l-2.28125-15.378906c-.117187-.792969-1.246094-.832031-1.417969-.046875l-3.296875 15.183594c-.25 1.140625-1.253906 1.9375-2.417969 1.949218-21.417968.171876-42.800781 5.390626-62.292968 15.679688-2.996094 1.582031-5.019532 4.550781-5.375 7.921875l-.117188 1.066406v51.039063c0 .097656-.023437.1875-.027344.28125 4.269532 20.992187 14.363282 40.59375 29.710938 56.15625 8.746094 8.871094 19.199219 16.972656 31.429688 22.601562 4.648437 2.144532 9.992187 2.144532 14.644531 0 7.445312-3.425781 14.222656-7.777344 20.363281-12.648437l-8.171875.859375c-.355469.035156-.703125.054687-1.050781.054687-5.003906 0-9.296875-3.777343-9.832032-8.863281-.570312-5.433594 3.371094-10.304688 8.808594-10.878906l9.039063-.953125c5.433593-.566407 10.308593 3.375 10.882812 8.808593.085938.84375.03125 1.660157-.082031 2.464844.488281-.484375.996094-.957031 1.472656-1.445312 14.25-14.449219 23.964844-32.382813 28.703125-51.675782-.796875-1.421874-1.289062-3.03125-1.289062-4.765624zm0 0" fill="#fcb275"/><path d="m99.695312 189.148438c-.246093 8.519531-10.457031 12.792968-16.675781 6.859374-3.894531-.777343-7.558593-2.15625-10.949219-3.980468 4.359376 25.695312 6.941407 50.511718-3.492187 72.605468-5.234375 11.082032-6.25 21.820313-4.605469 31.878907 14.863282-3.839844 21.570313-5.136719 33.664063-9.035157 12.292969-3.957031 5.949219-2.425781 23.183593-10.363281l1.09375-.539062c.660157-.527344 10.753907-3.5625 11.652344-14.667969v-8.90625l.09375.089844v-3.6875c-18.417968-17.027344-29.425781-37.914063-33.964844-60.253906zm0 0" fill="#7c292e"/><path d="m265.46875 264.632812c-10.433594-22.09375-7.847656-46.910156-3.492188-72.605468-3.285156 1.773437-7.089843 3.207031-10.914062 3.976562-.011719 0-.019531.003906-.03125.007813-4.695312 4.476562-12.332031 3.257812-15.433594-2.324219-4.746094 19.269531-14.457031 37.183594-28.691406 51.617188-.476562.488281-.984375.964843-1.472656 1.445312v-.003906c-.445313 3.039062-2.257813 5.683594-4.878906 7.175781v6.667969c0 6.246094 3.542968 11.945312 9.144531 14.707031l3.53125 1.738281.054687.027344 2.890625 1.425781c3.445313 1.625 5.699219 2.761719 7.339844 3.617188l6.375 3.144531c1.402344.542969 3.3125 1.191406 6.433594 2.199219.03125.007812.0625.019531.09375.027343l14.769531 4.238282 18.898438 4.753906c1.628906-10.042969.613281-20.765625-4.617188-31.835938zm0 0" fill="#7c292e"/><path d="m166.835938 24.796875c-47.125 0-85.46875 38.339844-85.46875 85.464844v8.527343c.550781-.136718 1.09375-.296874 1.652343-.40625 1.777344-1.695312 4.167969-2.757812 6.804688-2.757812 5.445312 0 9.898437 4.453125 9.898437 9.898438v12.300781l.113282-1.0625c.355468-3.371094 2.378906-6.339844 5.378906-7.921875 19.488281-10.289063 40.871094-15.511719 62.289062-15.679688 1.167969-.011718 2.171875-.808594 2.417969-1.949218l3.300781-15.183594c.167969-.785156 1.300782-.746094 1.417969.046875l2.277344 15.378906c.171875 1.148437 1.113281 2.015625 2.273437 2.105469 5.882813.460937 11.738282 1.304687 17.53125 2.535156 1.347656.285156 2.671875-.550781 2.964844-1.898438l5.242188-24.113281c.167968-.785156 1.300781-.746093 1.417968.046875l4.179688 28.230469c.136718.921875.78125 1.683594 1.664062 1.984375 6.46875 2.191406 12.8125 4.882812 18.964844 8.078125 1.242188.644531 2.304688 1.535156 3.167969 2.585937v-5.488281c0-5.445312 4.453125-9.898437 9.898437-9.898437 2.636719 0 5.027344 1.0625 6.808594 2.757812.429688.085938.847656.214844 1.273438.3125 0 0 0 0-.003907 0v-8.433594c0-47.121093-38.339843-85.460937-85.464843-85.460937zm0 0" fill="#7c292e"/><path d="m186.617188 256.171875c-5 0-9.296876-3.78125-9.832032-8.863281-.570312-5.4375 3.371094-10.308594 8.808594-10.878906l9.039062-.953126c5.433594-.570312 10.308594 3.371094 10.882813 8.808594.570313 5.433594-3.375 10.308594-8.808594 10.878906l-9.042969.953126c-.351562.035156-.699218.054687-1.046874.054687zm0 0" fill="#fc5d4c"/><path d="m312.460938 327.890625c-.355469-6.359375-2.800782-12.222656-6.703126-16.859375l-34.449218 28.546875c-3.683594 3.054687-5.816406 7.59375-5.816406 12.378906v68.667969c11.511718.003906 51.054687-.011719 52.136718.015625zm0 0" fill="#1b87c9"/><path d="m21.75 327.890625c.355469-6.359375 2.796875-12.222656 6.703125-16.859375l34.445313 28.546875c3.6875 3.054687 5.816406 7.59375 5.816406 12.378906v68.667969c-11.507813.003906-51.050782-.011719-52.132813.015625zm0 0" fill="#1b87c9"/><g fill="#231f20"><path d="m168.382812 230.457031c-8.75 0-16.902343-4.332031-21.800781-11.589843-1.546875-2.289063-.945312-5.394532 1.34375-6.941407 2.285157-1.546875 5.398438-.945312 6.941407 1.34375 3.042968 4.5 8.09375 7.1875 13.515624 7.1875 5.421876 0 10.476563-2.683593 13.515626-7.1875 1.546874-2.289062 4.660156-2.886719 6.945312-1.34375 2.289062 1.546875 2.886719 4.652344 1.34375 6.941407-4.90625 7.257812-13.058594 11.589843-21.804688 11.589843zm0 0"/><path d="m204.921875 162.421875c-.792969 0-1.597656-.1875-2.34375-.582031-1.230469-.65625-4.058594-1.316406-7.597656-1.316406-3.539063 0-6.367188.660156-7.597657 1.3125-2.433593 1.292968-5.464843.371093-6.761718-2.066407-1.296875-2.441406-.371094-5.46875 2.066406-6.761719 2.96875-1.582031 7.449219-2.484374 12.292969-2.484374 4.835937 0 9.316406.90625 12.289062 2.484374 2.441407 1.292969 3.367188 4.320313 2.070313 6.761719-.898438 1.6875-2.628906 2.652344-4.417969 2.652344zm0 0"/><path d="m151.476562 162.421875c-.792968 0-1.59375-.1875-2.34375-.582031-1.230468-.65625-4.058593-1.316406-7.597656-1.316406-3.542968 0-6.367187.660156-7.597656 1.316406-2.441406 1.289062-5.46875.367187-6.761719-2.070313-1.296875-2.441406-.371093-5.46875 2.066407-6.761719 2.972656-1.578124 7.453124-2.484374 12.292968-2.484374s9.320313.90625 12.289063 2.484374c2.441406 1.292969 3.367187 4.320313 2.070312 6.761719-.898437 1.6875-2.628906 2.652344-4.417969 2.652344zm0 0"/><path d="m142.324219 181.664062c-3.3125 0-6-2.683593-6-6v-1.085937c0-3.3125 2.6875-6 6-6 3.316406 0 6 2.6875 6 6v1.085937c0 3.316407-2.683594 6-6 6zm0 0"/><path d="m194.4375 182.5c-3.316406 0-6-2.6875-6-6v-1.085938c0-3.3125 2.683594-6 6-6 3.3125 0 6 2.6875 6 6v1.085938c0 3.3125-2.6875 6-6 6zm0 0"/><path d="m205.507812 249.386719c-2.53125 0-4.699218-1.90625-4.96875-4.476563-.289062-2.746094 1.703126-5.207031 4.449219-5.496094l19.816407-2.082031c8.113281-.855469 14.230468-7.648437 14.230468-15.808593v-22.757813c0-2.761719 2.238282-5 5-5 2.761719 0 5 2.238281 5 5v22.757813c0 13.289062-9.96875 24.359374-23.183594 25.753906l-19.816406 2.082031c-.175781.019531-.355468.027344-.527344.027344zm0 0"/><path d="m173.804688 350.78125c-1.320313 0-2.621094-.519531-3.539063-1.460938-.242187-.21875-.445313-.480468-.625-.761718-.179687-.257813-.339844-.558594-.457031-.859375-.121094-.300781-.21875-.621094-.28125-.9375-.082032-.320313-.101563-.640625-.101563-.960938 0-.339843.019531-.660156.101563-.980469.058594-.320312.160156-.640624.28125-.941406.121094-.300781.28125-.597656.457031-.859375.179687-.28125.382813-.539062.625-.757812 1.160156-1.160157 2.875-1.703125 4.519531-1.382813.320313.082032.617188.160156.917969.300782.300781.121093.601563.28125.882813.460937.257812.179687.519531.378906.757812.621094.21875.21875.441406.476562.621094.757812.179687.261719.320312.558594.460937.859375.117188.300782.214844.621094.277344.941406.0625.320313.101563.640626.101563.980469 0 .320313-.039063.640625-.101563.960938-.058594.316406-.160156.636719-.277344.9375-.140625.300781-.285156.601562-.460937.859375-.179688.28125-.402344.542968-.621094.761718-.238281.238282-.5.441407-.757812.621094-.285157.179688-.582032.339844-.882813.457032-.300781.140624-.597656.222656-.917969.300781-.320312.0625-.660156.082031-.980468.082031zm0 0"/><path d="m173.804688 382.699219c-1.320313 0-2.621094-.519531-3.539063-1.460938-.242187-.21875-.445313-.476562-.625-.757812-.179687-.261719-.339844-.558594-.457031-.859375-.121094-.300782-.21875-.621094-.28125-.941406-.082032-.320313-.101563-.640626-.101563-.960938 0-1.320312.519531-2.617188 1.460938-3.539062 1.160156-1.160157 2.878906-1.699219 4.519531-1.378907.320312.078125.621094.160157.921875.300781.300781.117188.597656.277344.878906.457032.261719.179687.519531.382812.761719.621094.214844.21875.4375.480468.617188.761718.179687.257813.320312.558594.460937.859375.121094.300781.21875.621094.28125.9375.058594.320313.097656.640625.097656.980469 0 .320312-.039062.640625-.097656.960938-.0625.320312-.160156.640624-.28125.941406-.140625.300781-.28125.597656-.460937.859375-.179688.28125-.398438.539062-.617188.757812-.242188.242188-.5.441407-.761719.621094-.28125.179687-.578125.339844-.878906.460937-.300781.140626-.601563.21875-.921875.300782-.316406.058594-.65625.078125-.976562.078125zm0 0"/><path d="m173.804688 414.640625c-1.320313 0-2.621094-.539063-3.539063-1.480469-.242187-.21875-.445313-.480468-.625-.761718-.179687-.257813-.339844-.558594-.457031-.859376-.121094-.300781-.21875-.617187-.28125-.9375-.082032-.320312-.101563-.640624-.101563-.960937 0-1.320313.519531-2.621094 1.460938-3.539063 1.160156-1.160156 2.878906-1.703124 4.519531-1.363281.320312.0625.621094.160157.921875.28125.300781.121094.597656.28125.878906.460938.261719.179687.519531.378906.761719.621093.214844.21875.4375.476563.617188.757813.179687.261719.320312.5625.460937.859375.121094.300781.21875.621094.28125.941406.058594.320313.097656.640625.097656.980469 0 .320313-.039062.640625-.097656.960937-.0625.320313-.160156.636719-.28125.9375-.140625.300782-.28125.601563-.460937.859376-.179688.28125-.398438.542968-.617188.761718-.242188.238282-.5.441406-.761719.640625-.28125.179688-.578125.320313-.878906.460938-.300781.117187-.601563.21875-.921875.277343-.316406.0625-.65625.101563-.976562.101563zm0 0"/><path d="m173.804688 446.558594c-1.320313 0-2.621094-.539063-3.539063-1.457032-.242187-.242187-.445313-.5-.625-.761718-.179687-.28125-.339844-.578125-.457031-.878906-.121094-.300782-.21875-.601563-.28125-.921876-.082032-.339843-.101563-.660156-.101563-.980468 0-.320313.019531-.660156.101563-.980469.058594-.316406.160156-.636719.28125-.9375s.28125-.582031.457031-.859375c.179687-.28125.382813-.519531.625-.761719 1.160156-1.160156 2.875-1.699219 4.519531-1.359375.320313.058594.617188.160156.917969.28125.300781.117188.601563.277344.882813.457032.257812.179687.519531.402343.757812.621093.921875.941407 1.457031 2.21875 1.457031 3.539063 0 .320312-.039062.640625-.097656.980468-.0625.320313-.160156.621094-.28125.921876-.140625.300781-.28125.597656-.460937.878906-.179688.261718-.398438.519531-.617188.761718-.242188.21875-.5.4375-.761719.617188-.28125.179688-.578125.320312-.878906.460938-.300781.121093-.601563.21875-.921875.28125-.316406.058593-.65625.097656-.976562.097656zm0 0"/><path d="m173.804688 478.480469c-1.320313 0-2.621094-.539063-3.539063-1.460938-.242187-.238281-.445313-.5-.625-.757812-.179687-.28125-.339844-.5625-.457031-.863281-.121094-.320313-.21875-.617188-.28125-.9375-.082032-.320313-.101563-.660157-.101563-.980469 0-.320313.019531-.660157.101563-.980469.058594-.320312.160156-.640625.28125-.941406.121094-.296875.28125-.578125.457031-.859375.179687-.277344.382813-.519531.625-.757813 1.160156-1.160156 2.875-1.703125 4.519531-1.363281.320313.0625.617188.160156.917969.28125s.601563.28125.882813.460937c.257812.179688.519531.398438.757812.621094.21875.238282.441406.480469.621094.757813.179687.28125.320312.5625.460937.859375.117188.300781.214844.621094.277344.941406s.101563.660156.101563.980469c0 .320312-.039063.660156-.101563.980469-.058594.320312-.160156.617187-.277344.9375-.140625.300781-.285156.582031-.460937.863281-.179688.257812-.402344.519531-.621094.757812-.238281.21875-.5.441407-.757812.621094-.285157.179687-.582032.339844-.882813.460937-.300781.117188-.597656.21875-.917969.277344-.320312.0625-.660156.101563-.980468.101563zm0 0"/><path d="m159.964844 512c-2.761719 0-5-2.238281-5-5v-184.542969c0-2.761719 2.238281-5 5-5 2.761718 0 5 2.238281 5 5v184.542969c0 2.761719-2.238282 5-5 5zm0 0"/><path d="m265.492188 512h-196.773438c-2.761719 0-5-2.238281-5-5v-81.375h-46.878906c-.101563.007812-.179688.007812-.253906.007812-1.355469 0-2.652344-.546874-3.597657-1.523437-.964843-1.003906-1.472656-2.363281-1.394531-3.753906l5.164062-92.746094c.824219-14.785156 11.023438-27.144531 25.382813-30.757813l38.574219-9.710937c5.039062-1.265625 10.214844-2.753906 15.386718-4.417969 1.796876-.578125 3.773438-.097656 5.097657 1.253906l42.578125 43.324219c.058594-.003906.136718-.023437.1875-.085937l10.507812-13.136719c.625-2.089844 2.558594-3.566406 4.792969-3.566406h15.515625c2.230469 0 4.164062 1.472656 4.789062 3.566406l10.515626 13.136719c.042968.058594.15625.082031.183593.082031l42.578125-43.320313c1.285156-1.304687 3.183594-1.808593 4.945313-1.300781l14.769531 4.238281 39.511719 9.941407c14.355469 3.613281 24.554687 15.972656 25.382812 30.757812l5.164063 92.753907c.078125 1.390624-.429688 2.75-1.394532 3.75-.964843 1-2.316406 1.566406-3.699218 1.523437-.066406 0-.203125-.007813-.300782-.011719h-46.730468v81.375c0 1.324219-.527344 2.597656-1.460938 3.535156-.941406.933594-2.214844 1.460938-3.542968 1.460938zm-191.773438-10h186.777344l-.003906-81.375c0-2.761719 2.238281-5 5-5h46.847656l-4.871094-87.457031c-.578125-10.390625-7.75-19.078125-17.839844-21.617188l-39.667968-9.984375-12.066407-3.460937-40.9375 41.652343c-.175781.179688-.367187.34375-.566406.496094-4.449219 3.335938-10.644531 2.546875-14.117187-1.792968l-10.363282-12.949219h-9.777344l-10.359374 12.949219c-3.46875 4.339843-9.671876 5.125-14.117188 1.796874-.203125-.152343-.390625-.316406-.566406-.496093l-40.875-41.589844c-4.394532 1.359375-8.773438 2.589844-13.058594 3.667969l-38.578125 9.710937c-10.089844 2.539063-17.261719 11.226563-17.839844 21.617188l-4.871093 87.457031h46.847656c2.761718 0 5 2.238281 5 5v81.375zm243.621094-76.375h.019531zm-163.011719-110.898438c-.003906 0-.003906 0-.003906 0zm25.386719-.019531"/><path d="m309.070312 512h-43.578124c-2.761719 0-5-2.238281-5-5v-62.949219c0-1.324219.527343-2.597656 1.464843-3.535156s2.207031-1.464844 3.535157-1.464844h51.847656c.304687 0 .609375-.03125.90625-.074219 1.394531-.183593 2.785156.207032 3.859375 1.09375 1.078125.890626 1.734375 2.1875 1.808593 3.582032l2.773438 49.726562c.269531 4.820313-1.480469 9.59375-4.796875 13.101563-3.320313 3.507812-7.992187 5.519531-12.820313 5.519531zm-38.578124-10h38.578124c2.125 0 4.09375-.847656 5.554688-2.390625 1.457031-1.542969 2.191406-3.554687 2.074219-5.671875l-2.5-44.882812h-43.707031zm0 0"/><path d="m68.71875 512h-43.582031c-4.828125 0-9.496094-2.011719-12.8125-5.519531-3.316407-3.507813-5.066407-8.28125-4.796875-13.101563l2.769531-49.699218c.074219-1.382813.722656-2.671876 1.785156-3.558594 1.0625-.890625 2.441407-1.300782 3.820313-1.125.265625.03125.535156.058594.808594.058594h52.007812c2.761719 0 5 2.238281 5 5v62.945312c0 2.761719-2.238281 5-5 5zm-48.707031-62.949219-2.5 44.882813c-.121094 2.117187.617187 4.132812 2.074219 5.675781 1.457031 1.539063 3.429687 2.386719 5.550781 2.386719h38.578125v-52.945313zm0 0"/><path d="m143.800781 337.3125c-2.136719 0-4.289062-.671875-6.140625-2.058594-.203125-.152344-.390625-.316406-.566406-.496094l-43.023438-43.773437c-1.214843-1.238281-1.703124-3.015625-1.289062-4.699219s1.671875-3.03125 3.320312-3.566406c2.140626-.6875 4.28125-1.398438 6.40625-2.148438l16.101563-7.9375c1.886719-.933593 4.15625-.582031 5.671875.875l37.734375 36.164063c2.839844 2.71875 3.125 7.085937.667969 10.152344l-10.910156 13.636719c-2.027344 2.53125-4.980469 3.851562-7.972657 3.851562zm-.019531-10.015625c.074219.015625.136719-.023437.183594-.082031l9.507812-11.882813-33.582031-32.183593-13.132813 6.476562zm11.097656-13.722656h-.003906zm-50.425781-28.386719h.019531zm0 0"/><path d="m240.378906 453.640625h-36.679687c-6.664063 0-12.082031-5.421875-12.082031-12.085937v-51.460938c0-6.664062 5.417968-12.085938 12.082031-12.085938h36.679687c6.664063 0 12.085938 5.421876 12.085938 12.085938v51.460938c0 6.664062-5.421875 12.085937-12.085938 12.085937zm-36.679687-65.632813c-1.148438 0-2.082031.9375-2.082031 2.085938v51.460938c0 1.148437.933593 2.085937 2.082031 2.085937h36.679687c1.148438 0 2.085938-.9375 2.085938-2.085937v-51.460938c0-1.148438-.9375-2.085938-2.085938-2.085938zm0 0"/><path d="m130.347656 453.640625h-36.675781c-6.664063 0-12.085937-5.421875-12.085937-12.085937v-51.460938c0-6.664062 5.421874-12.085938 12.085937-12.085938h36.675781c6.664063 0 12.085938 5.421876 12.085938 12.085938v51.460938c0 6.664062-5.421875 12.085937-12.085938 12.085937zm-36.675781-65.632813c-1.152344 0-2.085937.9375-2.085937 2.085938v51.460938c0 1.148437.933593 2.085937 2.085937 2.085937h36.675781c1.148438 0 2.085938-.9375 2.085938-2.085937v-51.460938c0-1.148438-.9375-2.085938-2.085938-2.085938zm0 0"/><path d="m190.246094 337.316406c-2.992188 0-5.949219-1.324218-7.972656-3.855468l-10.910157-13.640626c-2.457031-3.058593-2.167969-7.425781.664063-10.144531l37.792968-36.21875c1.519532-1.453125 3.785157-1.808593 5.671876-.875l17.195312 8.476563c1.179688.398437 2.371094.765625 3.558594 1.132812l1.667968.519532c1.660157.523437 2.929688 1.875 3.351563 3.558593.417969 1.6875-.066406 3.472657-1.289063 4.714844l-43.023437 43.773437c-.175781.179688-.363281.34375-.566406.496094-1.847657 1.386719-4.003907 2.0625-6.140625 2.0625zm-9.671875-21.984375 9.507812 11.882813c.042969.058594.15625.085937.183594.082031l37.078125-37.722656-13.132812-6.476563zm-1.40625-1.761719.003906.003907s-.003906-.003907-.003906-.003907zm0 0"/><path d="m317.339844 449.050781h-51.847656c-2.761719 0-5-2.238281-5-5v-23.425781c0-2.761719 2.238281-5 5-5h51.847656c9.210937 0 16.707031 7.5 16.707031 16.714844 0 9.210937-7.492187 16.710937-16.707031 16.710937zm-46.847656-10h46.847656c3.699218 0 6.707031-3.011719 6.707031-6.710937 0-3.699219-3.007813-6.710938-6.707031-6.710938h-46.847656zm0 0"/><path d="m68.71875 449.050781h-52.007812c-9.214844 0-16.710938-7.496093-16.710938-16.710937s7.496094-16.710938 16.710938-16.710938h52.007812c2.761719 0 5 2.238282 5 5v23.425782c0 2.757812-2.238281 4.996093-5 4.996093zm-52.007812-23.425781c-3.703126 0-6.710938 3.011719-6.710938 6.714844 0 3.699218 3.011719 6.710937 6.710938 6.710937h47.007812v-13.425781zm0 0"/><path d="m240.378906 413.101562h-36.679687c-6.664063 0-12.082031-5.421874-12.082031-12.085937v-10.921875c0-6.664062 5.417968-12.085938 12.082031-12.085938h36.679687c6.664063 0 12.085938 5.421876 12.085938 12.085938v10.921875c0 6.664063-5.421875 12.085937-12.085938 12.085937zm-36.679687-25.09375c-1.148438 0-2.082031.9375-2.082031 2.085938v10.921875c0 1.148437.933593 2.085937 2.082031 2.085937h36.679687c1.148438 0 2.085938-.9375 2.085938-2.085937v-10.921875c0-1.148438-.9375-2.085938-2.085938-2.085938zm0 0"/><path d="m130.347656 413.101562h-36.675781c-6.664063 0-12.085937-5.421874-12.085937-12.085937v-10.921875c0-6.664062 5.421874-12.085938 12.085937-12.085938h36.675781c6.664063 0 12.085938 5.421876 12.085938 12.085938v10.921875c0 6.664063-5.421875 12.085937-12.085938 12.085937zm-36.675781-25.09375c-1.152344 0-2.085937.9375-2.085937 2.085938v10.921875c0 1.148437.933593 2.085937 2.085937 2.085937h36.675781c1.148438 0 2.085938-.9375 2.085938-2.085937v-10.921875c0-1.148438-.9375-2.085938-2.085938-2.085938zm0 0"/><path d="m244.222656 203.765625c-8.210937 0-14.894531-6.683594-14.894531-14.898437v-63.34375c0-8.214844 6.683594-14.898438 14.894531-14.898438 8.214844 0 14.898438 6.683594 14.898438 14.898438v63.34375c0 8.214843-6.683594 14.898437-14.898438 14.898437zm0-83.140625c-2.699218 0-4.894531 2.199219-4.894531 4.898438v63.34375c0 2.699218 2.199219 4.898437 4.894531 4.898437 2.703125 0 4.898438-2.199219 4.898438-4.898437v-63.34375c0-2.699219-2.195313-4.898438-4.898438-4.898438zm0 0"/><path d="m89.824219 203.765625c-8.214844 0-14.898438-6.683594-14.898438-14.898437v-63.34375c0-8.214844 6.683594-14.898438 14.898438-14.898438 8.214843 0 14.894531 6.683594 14.894531 14.898438v63.34375c.003906 8.214843-6.679688 14.898437-14.894531 14.898437zm0-83.140625c-2.703125 0-4.898438 2.199219-4.898438 4.898438v63.34375c0 2.699218 2.199219 4.898437 4.898438 4.898437s4.894531-2.199219 4.894531-4.898437v-63.34375c.003906-2.699219-2.195312-4.898438-4.894531-4.898438zm0 0"/><path d="m251.027344 201.007812c-1.835938 0-3.5625-1.015624-4.433594-2.695312-1.027344-1.972656-.625-4.386719.984375-5.921875.996094-.949219 1.542969-2.199219 1.542969-3.523437v-63.34375c0-1.324219-.546875-2.574219-1.542969-3.519532-1.609375-1.539062-2.011719-3.953125-.984375-5.925781 1.027344-1.976563 3.238281-3.03125 5.417969-2.597656 20.75 4.144531 35.808593 22.53125 35.808593 43.714843 0 21.183594-15.058593 39.570313-35.808593 43.714844-.328125.066406-.65625.097656-.984375.097656zm8.09375-74.535156v61.449219c11.230468-5.824219 18.703125-17.582031 18.703125-30.726563-.003907-13.144531-7.472657-24.902343-18.703125-30.722656zm0 0"/><path d="m83.019531 201.007812c-.324219 0-.652343-.03125-.980469-.097656-20.75-4.144531-35.8125-22.53125-35.8125-43.714844 0-21.183593 15.0625-39.570312 35.8125-43.714843 2.179688-.433594 4.390626.621093 5.417969 2.597656 1.023438 1.972656.621094 4.390625-.988281 5.925781-.996094.945313-1.542969 2.195313-1.542969 3.519532v63.34375c0 1.324218.546875 2.574218 1.542969 3.523437 1.609375 1.535156 2.011719 3.949219.988281 5.921875-.875 1.679688-2.597656 2.695312-4.4375 2.695312zm-8.09375-74.535156c-11.226562 5.824219-18.703125 17.578125-18.703125 30.722656 0 13.148438 7.472656 24.902344 18.703125 30.726563zm0 0"/><path d="m61.570312 135.5625c-.605468 0-1.214843-.109375-1.804687-.335938-1.921875-.746093-3.195313-2.597656-3.195313-4.664062v-20.300781c0-60.796875 49.464844-110.261719 110.265626-110.261719 60.796874 0 110.261718 49.460938 110.261718 110.261719v19.882812c0 2.050781-1.253906 3.894531-3.160156 4.648438-1.914062.753906-4.085938.265625-5.488281-1.230469-4.675781-4.984375-10.652344-8.441406-17.289063-10-2.261718-.53125-3.859375-2.546875-3.859375-4.867188v-8.433593c0-44.371094-36.097656-80.464844-80.464843-80.464844-44.371094 0-80.46875 36.097656-80.46875 80.464844v8.527343c0 2.300782-1.570313 4.308594-3.808594 4.855469-6.664063 1.632813-12.644532 5.191407-17.289063 10.289063-.96875 1.058594-2.316406 1.628906-3.699219 1.628906zm105.265626-125.5625c-55.289063 0-100.265626 44.976562-100.265626 100.261719v9.546875c3.050782-1.980469 6.335938-3.582032 9.796876-4.761719v-4.785156c0-49.886719 40.582031-90.46875 90.464843-90.46875 49.882813 0 90.46875 40.585937 90.46875 90.46875v4.652343c3.453125 1.148438 6.738281 2.707032 9.792969 4.644532v-9.296875c.003906-55.285157-44.972656-100.261719-100.257812-100.261719zm-85.46875 108.789062h.019531zm0 0"/><path d="m174.78125 320.507812h-15.511719c-1.460937 0-2.851562-.640624-3.800781-1.75-.640625-.75-1.039062-1.664062-1.160156-2.625l-36.945313-35.40625c-1.179687-1.128906-1.730469-2.761718-1.484375-4.375.25-1.613281 1.269532-3 2.730469-3.722656l3.691406-1.820312c3.921875-1.933594 6.359375-5.847656 6.359375-10.21875v-11.1875c0-1.988282 1.175782-3.785156 2.996094-4.582032 1.820312-.796874 3.945312-.433593 5.398438.910157 8.171874 7.558593 16.875 13.492187 25.871093 17.632812 3.320313 1.53125 7.136719 1.53125 10.460938 0 6.625-3.050781 13.132812-7.097656 19.347656-12.027343.742187-.59375 1.640625-.957032 2.585937-1.058594l.867188-.089844c.660156-.070312 1.296875-.277344 1.890625-.617188 1.546875-.878906 3.449219-.871093 4.984375.023438 1.542969.894531 2.488281 2.542969 2.488281 4.324219v6.667969c0 4.371093 2.4375 8.289062 6.359375 10.21875l3.53125 1.742187c.007813.003906.015625.007813.023438.011719l.054687.03125c1.453125.722656 2.464844 2.113281 2.707031 3.722656.246094 1.609375-.308593 3.234375-1.484374 4.359375l-37 35.457031c-.121094.957032-.515626 1.871094-1.15625 2.625-.953126 1.113282-2.34375 1.753906-3.804688 1.753906zm-12.015625-10h8.515625c.226562-.296874.476562-.578124.75-.839843l32.804688-31.4375c-5.480469-3.738281-8.898438-9.773438-9.253907-16.488281-5.816406 4.28125-11.863281 7.875-18.015625 10.707031-5.976562 2.753906-12.84375 2.753906-18.828125 0-6.898437-3.175781-13.625-7.289063-20.082031-12.265625v.410156c0 7.207031-3.527344 13.761719-9.375 17.707031l32.734375 31.371094c.273437.257813.523437.539063.75.835937zm0 0"/><path d="m168.152344 274.515625c-3.207032 0-6.421875-.6875-9.414063-2.066406-11.664062-5.371094-22.726562-13.320313-32.894531-23.632813-15.757812-15.980468-26.496094-36.269531-31.050781-58.671875-.070313-.359375-.105469-.730469-.097657-1.097656.003907-.113281.011719-.265625.027344-.414063v-50.804687c0-.175781.007813-.355469.027344-.527344l.113281-1.066406c.535157-5.03125 3.53125-9.449219 8.019531-11.816406 19.222657-10.144531 40.816407-15.738281 62.582032-16.226563l2.875-13.222656c.585937-2.699219 3.078125-4.609375 5.777344-4.503906 2.761718.089844 5.0625 2.140625 5.472656 4.871094l1.984375 13.410156c4.601562.429687 9.210937 1.085937 13.761719 1.964844l4.710937-21.6875c.585937-2.699219 2.921875-4.578126 5.78125-4.5 2.765625.089843 5.0625 2.144531 5.46875 4.878906l3.957031 26.710937c6.253906 2.195313 12.371094 4.839844 18.214844 7.875 1.8125.941407 3.402344 2.238281 4.726562 3.851563.734376.890625 1.132813 2.015625 1.132813 3.171875v57.855469c0 .773437.21875 1.558593.648437 2.332031.617188 1.101562.789063 2.398437.488282 3.625-5.042969 20.539062-15.417969 39.210937-30 53.992187-.328125.332032-.660156.65625-.996094.980469l-.53125.515625c-1.535156 1.507812-3.847656 1.867188-5.769531.898438-1.914063-.972657-2.996094-3.058594-2.6875-5.183594.074219-.5.09375-.890625.058593-1.222656-.28125-2.679688-2.6875-4.625-5.386718-4.351563l-9.035156.949219c-2.6875.285156-4.640626 2.699218-4.359376 5.386718.28125 2.667969 2.640626 4.652344 5.378907 4.355469l8.175781-.859375c2.21875-.230468 4.3125 1.023438 5.152344 3.082032.839844 2.058593.222656 4.421874-1.519532 5.808593-6.839843 5.425781-14.035156 9.890625-21.378906 13.277344-2.988281 1.375-6.199218 2.0625-9.414062 2.0625zm-63.429688-85.746094c4.238282 20.253907 13.992188 38.578125 28.242188 53.027344 9.316406 9.445313 19.394531 16.707031 29.957031 21.570313 3.324219 1.53125 7.136719 1.53125 10.460937 0 2.332032-1.074219 4.644532-2.269532 6.9375-3.585938-4.601562-2.144531-7.941406-6.578125-8.507812-11.949219-.859375-8.171875 5.089844-15.515625 13.257812-16.378906l9.039063-.949219c5.582031-.585937 10.804687 2.019532 13.804687 6.339844 10.550782-12.191406 18.230469-26.8125 22.410157-42.722656-.664063-1.695313-1-3.457032-1-5.253906v-55.726563c-.148438-.101563-.308594-.195313-.46875-.277344-5.84375-3.039062-11.992188-5.65625-18.265625-7.785156-2.675782-.902344-4.59375-3.199219-5.003906-5.984375l-.75-5.042969-.261719 1.210938c-.875 4.007812-4.859375 6.574219-8.882813 5.722656-5.558594-1.179687-11.238281-2-16.890625-2.441406-2.285156-.179688-4.269531-1.351563-5.519531-3.105469-1.371094 1.667969-3.4375 2.699219-5.738281 2.71875-20.847657.164062-41.59375 5.386719-59.996094 15.101562-1.535156.808594-2.558594 2.316407-2.738281 4.027344l-.085938.804688zm0 0"/><path d="m83.058594 201.007812c-2.761719 0-5.011719-2.238281-5.011719-5 0-2.761718 2.230469-5 4.992187-5h.019532c2.761718 0 5 2.238282 5 5 0 2.761719-2.242188 5-5 5zm0 0"/><path d="m63.972656 301.511719c-.957031 0-1.910156-.277344-2.730468-.8125-1.175782-.765625-1.972657-1.992188-2.203126-3.378907-1.953124-11.929687-.265624-23.644531 5.015626-34.824218 10.117187-21.410156 7.070312-46.140625 3.085937-69.632813-.320313-1.882812.460937-3.785156 2.015625-4.898437 1.550781-1.113282 3.605469-1.246094 5.285156-.335938 3.074219 1.65625 6.292969 2.828125 9.554688 3.480469.933594.183594 1.789062.628906 2.472656 1.285156 2.128906 2.035157 4.523438 1.269531 5.203125.992188.691406-.28125 2.941406-1.433594 3.027344-4.378907.074219-2.539062 2.039062-4.621093 4.570312-4.835937 2.527344-.21875 4.820313 1.5 5.328125 3.984375 4.578125 22.527344 15.5 41.902344 32.457032 57.582031 1.023437.949219 1.605468 2.28125 1.605468 3.671875v3.6875c0 .328125-.03125.648438-.09375.960938v7.851562c0 .132813-.007812.269532-.015625.402344-.464843 5.757812-3.253906 13.640625-13.890625 18.484375l-.226562.105469c-.097656.058594-.203125.113281-.304688.164062l-1.09375.542969c-7.125 3.28125-10.132812 4.898437-12.128906 5.96875-3.253906 1.75-4.40625 2.304687-11.734375 4.664063-8.707031 2.808593-14.570313 4.265624-22.683594 6.277343-3.28125.816407-6.921875 1.714844-11.261719 2.839844-.414062.101563-.835937.152344-1.253906.152344zm14.453125-101.488281c3.375 22.382812 4.699219 45.515624-5.328125 66.746093-3.585937 7.589844-5.1875 15.464844-4.777344 23.472657 2.058594-.515626 3.960938-.988282 5.753907-1.433594 7.917969-1.964844 13.640625-3.386719 22.027343-6.089844 6.765626-2.179688 7.402344-2.519531 10.070313-3.953125 2.101563-1.132813 5.277344-2.835937 12.554687-6.191406l.753907-.375c.332031-.191407.667969-.34375 1.035156-.507813 3.460937-1.578125 7.496094-4.140625 8.046875-10.003906v-8.6875c0-.328125.035156-.648438.09375-.964844v-.46875c-14.539062-13.945312-25.097656-31.050781-30.964844-50.058594-.699218.425782-1.4375.804688-2.21875 1.125-5.011718 2.066407-10.539062 1.285157-14.746094-2.003906-.773437-.179687-1.539062-.382812-2.300781-.605468zm46.609375 80.460937c-.003906 0-.003906 0 0 0zm.007813-.003906c-.003907 0-.003907 0-.007813.003906.003906-.003906.003906-.003906.007813-.003906zm0 0"/><path d="m270.078125 301.472656c-.40625 0-.816406-.050781-1.21875-.152344l-18.898437-4.757812-14.925782-4.277344c-.070312-.019531-.136718-.042968-.207031-.0625-3.332031-1.074218-5.273437-1.738281-6.742187-2.308594-.140626-.054687-.277344-.113281-.40625-.179687l-6.378907-3.140625c-2.15625-1.125-4.425781-2.246094-7.257812-3.582031l-6.554688-3.230469c-7.363281-3.628906-11.9375-10.984375-11.9375-19.191406v-6.667969c0-1.796875.964844-3.457031 2.53125-4.347656 1.289063-.730469 2.183594-2.054688 2.402344-3.546875.15625-1.082032.664063-2.082032 1.449219-2.847656l.550781-.539063c.292969-.28125.582031-.5625.867187-.84375 13.292969-13.484375 22.769532-30.535156 27.386719-49.304687.492188-1.996094 2.15625-3.484376 4.195313-3.757813 2.019531-.269531 4.035156.730469 5.035156 2.527344.726562 1.308593 2.007812 2.195312 3.515625 2.421875 1.511719.222656 3-.242188 4.097656-1.289063.671875-.636719 1.503907-1.078125 2.402344-1.269531.035156-.007812.066406-.015625.101563-.023438 3.164062-.632812 6.546874-1.867187 9.523437-3.472656 1.679687-.902344 3.730469-.773437 5.285156.339844 1.554688 1.113281 2.335938 3.015625 2.015625 4.898438-3.980468 23.496093-7.027344 48.226562 3.085938 69.632812 5.273437 11.160156 6.960937 22.863281 5.027344 34.78125-.226563 1.378906-1.019532 2.605469-2.191407 3.375-.828125.535156-1.785156.816406-2.753906.816406zm-38.183594-20.808594c1.269531.484376 3.027344 1.082032 5.960938 2.027344l14.707031 4.21875 13.164062 3.3125c.40625-8.003906-1.195312-15.871094-4.777343-23.453125-10.027344-21.226562-8.703125-44.367187-5.324219-66.75-.769531.222657-1.535156.425781-2.304688.605469-3.207031 2.496094-7.257812 3.558594-11.34375 2.941406-1.285156-.195312-2.519531-.550781-3.679687-1.046875-5.570313 17.5-15.097656 33.382813-27.832031 46.296875-.15625.15625-.3125.3125-.46875.46875-.769532 2.761719-2.324219 5.257813-4.445313 7.160156v4.144532c0 4.371094 2.4375 8.285156 6.359375 10.21875l6.472656 3.195312c2.882813 1.355469 5.273438 2.535156 7.445313 3.671875zm0 0"/><path d="m99.726562 142.828125c-.089843 0-.179687-.003906-.269531-.007813-2.65625-.136718-4.734375-2.332031-4.734375-4.992187v-12.300781c0-2.703125-2.199218-4.898438-4.898437-4.898438-1.234375 0-2.425781.488282-3.355469 1.375-.683594.648438-1.539062 1.097656-2.460938 1.285156-.28125.054688-.546874.125-.816406.195313l-.632812.164063c-1.492188.363281-3.066406.027343-4.277344-.921876-1.207031-.949218-1.910156-2.398437-1.910156-3.933593v-8.527344c0-49.882813 40.582031-90.464844 90.464844-90.464844 49.882812 0 90.464843 40.582031 90.464843 90.464844v8.179687c.015625.269532.007813.546876-.027343.824219-.289063 2.523438-2.425782 4.429688-4.964844 4.429688-.445313 0-.890625-.058594-1.320313-.175781l-.460937-.117188c-.15625-.039062-.316406-.085938-.476563-.117188-.929687-.183593-1.785156-.632812-2.46875-1.285156-.929687-.886718-2.121093-1.375-3.355469-1.375-2.699218 0-4.898437 2.199219-4.898437 4.898438v5.488281c0 2.109375-1.324219 3.996094-3.3125 4.707031-1.988281.710938-4.210937.09375-5.550781-1.535156-.457032-.5625-1-1.007812-1.605469-1.320312-5.84375-3.039063-11.992187-5.65625-18.265625-7.78125-2.675781-.90625-4.59375-3.203126-5.003906-5.988282l-.75-5.042968-.261719 1.210937c-.875 4.007813-4.859375 6.574219-8.882813 5.722656-5.558593-1.179687-11.238281-2-16.890624-2.441406-2.285157-.179687-4.269532-1.351563-5.519532-3.105469-1.371094 1.667969-3.4375 2.699219-5.738281 2.71875-20.847656.164063-41.59375 5.386719-59.996094 15.101563-1.535156.808593-2.558593 2.316406-2.738281 4.027343l-.113281 1.066407c-.277344 2.554687-2.433594 4.472656-4.972657 4.472656zm-9.902343-32.203125c7.539062 0 13.789062 5.628906 14.765625 12.90625 18.789062-9.585938 39.75-14.871094 60.871094-15.339844l2.875-13.222656c.585937-2.699219 3.078124-4.609375 5.777343-4.503906 2.761719.089844 5.066407 2.140625 5.476563 4.871094l1.984375 13.410156c4.601562.429687 9.210937 1.085937 13.757812 1.964844l4.710938-21.6875c.585937-2.699219 2.925781-4.578126 5.78125-4.5 2.769531.089843 5.066406 2.144531 5.46875 4.878906l3.960937 26.710937c4.929688 1.730469 9.773438 3.742188 14.464844 6.003907 1.546875-6.578126 7.464844-11.488282 14.503906-11.488282 1.042969 0 2.074219.109375 3.078125.324219v-.6875c0-44.371094-36.097656-80.46875-80.464843-80.46875-44.367188 0-80.46875 36.097656-80.46875 80.464844v.773437c1.121093-.269531 2.28125-.410156 3.457031-.410156zm0 0"/><path d="m186.617188 261.171875c-7.636719 0-14-5.734375-14.804688-13.335937-.414062-3.960938.734375-7.84375 3.238281-10.9375 2.503907-3.09375 6.0625-5.027344 10.019531-5.441407l9.042969-.953125c8.1875-.851562 15.515625 5.09375 16.375 13.257813.859375 8.167969-5.085937 15.515625-13.257812 16.375l-9.039063.953125c-.539062.054687-1.058594.082031-1.574218.082031zm9.050781-20.746094c-.171875 0-.34375.007813-.515625.023438l-9.035156.953125c-1.300782.136718-2.472657.773437-3.296876 1.789062-.824218 1.019532-1.199218 2.292969-1.0625 3.59375.285157 2.675782 2.679688 4.648438 5.394532 4.359375l9.03125-.949219c2.683594-.285156 4.636718-2.699218 4.355468-5.386718-.261718-2.511719-2.394531-4.382813-4.871093-4.382813zm0 0"/><path d="m317.625 425.640625c-.039062 0-.082031 0-.121094-.003906-1.023437-.015625-21.804687-.015625-36.980468-.011719h-15.035157c-2.757812 0-4.996093-2.238281-4.996093-5v-68.667969c0-6.296875 2.78125-12.210937 7.625-16.226562l34.449218-28.546875c2.117188-1.753906 5.246094-1.472656 7.015625.625 4.738281 5.628906 7.460938 12.476562 7.871094 19.800781l5.164063 92.75c.078124 1.394531-.429688 2.757813-1.402344 3.757813-.941406.976562-2.238282 1.523437-3.589844 1.523437zm-21.886719-10.015625c7.046875 0 12.757813 0 16.601563.003906l-4.871094-87.460937c-.195312-3.46875-1.125-6.789063-2.738281-9.792969l-30.234375 25.054688c-2.542969 2.109374-4.003906 5.214843-4.003906 8.523437v63.671875h10.03125zm0 0"/><path d="m16.605469 425.640625c-1.359375 0-2.667969-.550781-3.613281-1.535156-.960938-1-1.476563-2.359375-1.398438-3.746094l5.164062-92.75c.410157-7.328125 3.128907-14.175781 7.871094-19.800781 1.769532-2.097656 4.902344-2.378906 7.015625-.625l34.449219 28.546875c4.847656 4.015625 7.625 9.929687 7.625 16.226562v68.667969c0 2.761719-2.238281 5-5 5h-15.03125c-15.175781-.003906-35.957031-.003906-36.996094.015625-.027344 0-.054687 0-.085937 0zm10.136719-97.472656-4.871094 87.460937c6.324218-.003906 17.71875-.007812 31.816406-.003906h10.027344v-63.667969c0-3.308593-1.457032-6.417969-4.003906-8.527343l-30.234376-25.054688c-1.605468 3.003906-2.539062 6.324219-2.734374 9.792969zm0 0"/></g></svg>