<svg height="512pt" viewBox="-83 0 512 512" width="512pt" xmlns="http://www.w3.org/2000/svg"><path d="m111 507v-101.925781c0-27.785157-20.96875-51.667969-48.664062-53.898438-31.082032-2.507812-57.335938 22.242188-57.335938 52.824219v96.453125c0 3.613281 2.933594 6.546875 6.546875 6.546875zm0 0" fill="#30a9e5"/><path d="m5 419v81.453125c0 3.613281 2.933594 6.546875 6.546875 6.546875h99.453125v-88zm0 0" fill="#1b87c9"/><path d="m185.664062 19v-4c0-5.523438-4.476562-10-10-10-5.519531 0-10 4.476562-10 10v4zm0 0" fill="#3f3f3f"/><path d="m128.007812 262.292969 2.757813-1.359375c4.425781-2.183594 7.632813-6.09375 8.992187-10.6875.003907.003906.011719.007812.015626.007812-3.582032-1.78125-7.476563-3.796875-12.019532-6.078125-2.238281-1.125-4.375-2.445312-6.40625-3.902343l-11.367187 6.148437c2.058593 7.332031 5.046875 14.164063 8.644531 20.492187zm0 0" fill="#e04e36"/><path d="m220.796875 245.921875c-3.175781 1.609375-6.019531 3.0625-8.703125 4.394531.046875-.023437.097656-.042968.144531-.070312 1.355469 4.59375 4.566407 8.507812 8.992188 10.6875l3.746093 1.847656 8.394532 4.140625c3.597656-6.332031 6.585937-13.160156 8.644531-20.496094l-12.007813-6.390625c-2.867187 2.253906-5.957031 4.234375-9.210937 5.886719zm0 0" fill="#e04e36"/><path d="m340.171875 492.828125-9.808594-176.039063c-.738281-13.296874-10.039062-24.5625-22.953125-27.8125l-42.121094-10.605468c-2.378906-.597656-4.730468-1.277344-7.085937-1.9375.066406 11.46875-5.164063 22.980468-15.601563 30.324218-13.800781 9.703126-35.808593 21.28125-63.257812 19.746094-1.742188-.101562-2.902344-1.234375-3.34375-2.59375-.441406 1.359375-1.601562 2.492188-3.34375 2.59375-27.449219 1.535156-49.457031-10.042968-63.257812-19.746094-10.4375-7.34375-15.667969-18.859374-15.601563-30.328124-2.738281.78125-5.484375 1.535156-8.242187 2.230468l-40.96875 10.3125c-12.910157 3.25-22.210938 14.519532-22.953126 27.8125l-2.875 51.691406c9.710938-10.71875 23.726563-17.476562 39.242188-17.476562 29.148438 0 53 23.851562 53 53v103h215.769531c7.703125 0 13.832031-6.476562 13.402344-14.171875zm0 0" fill="#e04e36"/><path d="m111 405h169.484375v30h-169.484375zm0 0" fill="#fcbd4c"/><path d="m243.476562 247.429688c-.910156-.667969-1.457031-1.003907-1.457031-1.003907-10.730469 38.203125-46.472656 62.871094-64.367187 73.132813-3.230469 1.851562-2.027344 6.738281 1.691406 6.945312 27.449219 1.535156 49.457031-10.039062 63.257812-19.746094 20.378907-14.335937 20.960938-44.578124.875-59.328124zm0 0" fill="#fc5d4c"/><path d="m108.523438 247.429688c.910156-.667969 1.457031-1.003907 1.457031-1.003907 10.730469 38.203125 46.472656 62.871094 64.367187 73.132813 3.230469 1.851562 2.027344 6.738281-1.691406 6.945312-27.449219 1.535156-49.457031-10.039062-63.257812-19.746094-20.378907-14.335937-20.960938-44.578124-.875-59.328124zm0 0" fill="#fc5d4c"/><path d="m174.347656 319.558594c.859375.492187 1.382813 1.203125 1.652344 1.976562.269531-.773437.792969-1.484375 1.652344-1.976562 14.460937-8.292969 40.566406-25.996094 55.71875-52.640625l-8.390625-4.136719-3.75-1.847656c-4.421875-2.183594-7.632813-6.097656-8.992188-10.6875-7.097656 3.53125-12.960937 6.128906-20.101562 7.949218-10.761719 2.738282-22.019531 2.683594-32.761719-.128906-6.917969-1.808594-12.671875-4.367187-19.613281-7.820312-1.359375 4.59375-4.566407 8.503906-8.992188 10.6875l-2.761719 1.359375-9.378906 4.625c15.152344 26.644531 41.257813 44.347656 55.71875 52.640625zm0 0" fill="#fcb275"/><path d="m296 91h-44v20h44c5.523438 0 10-4.476562 10-10s-4.476562-10-10-10zm0 0" fill="#3f3f3f"/><path d="m115.664062 91h-15.664062c-5.523438 0-10 4.476562-10 10s4.476562 10 10 10h15.664062zm0 0" fill="#e04e36"/><path d="m202.070312 19h-52.140624c-27.460938 0-49.929688 22.46875-49.929688 49.929688v22.070312h15.664062v20h136.335938v-42.070312c0-27.460938-22.46875-49.929688-49.929688-49.929688zm0 0" fill="#e8e6e6"/><path d="m115.664062 111h-9.171874l-1.523438 45.097656v-.003906l7.046875 12.242188c2.785156 4.84375 4.699219 10.113281 5.890625 15.570312 2.71875 12.46875 13.59375 37.59375 57.09375 39.09375 43.5-1.5 54.375-26.625 57.09375-39.09375 1.191406-5.457031 3.105469-10.730469 5.890625-15.570312l8.074219-14.03125 1-.164063c-.238282-9.507813-.550782-25.433594-.953125-43.140625zm0 0" fill="#fcb275"/><path d="m106.492188 111h-6.492188c-.582031 0-1.144531-.074219-1.699219-.171875-10.316406 2.988281-17.886719 11.101563-17.886719 20.859375 0 11.664062 10.863282 21.183594 24.632813 22.058594zm0 0" fill="#fcb275"/><path d="m254.246094 111h-8.140625c.398437 17.464844.703125 33.1875.941406 42.738281 13.726563-.910156 24.535156-10.414062 24.535156-22.050781 0-9.582031-7.300781-17.574219-17.335937-20.6875zm0 0" fill="#fcb275"/><path d="m175.460938 297c-15.871094 0-30.761719-4.253906-43.671876-11.675781 14.394532 16.550781 31.738282 28.027343 42.558594 34.234375.859375.492187 1.382813 1.203125 1.652344 1.976562.269531-.773437.792969-1.484375 1.652344-1.976562 11.085937-6.355469 29.003906-18.265625 43.597656-35.476563-13.382812 8.195313-29.042969 12.917969-45.789062 12.917969zm0 0" fill="#515050"/><path d="m249.808594 200.152344-2.75-46.011719-1 .164063-8.074219 14.03125c-2.785156 4.839843-4.699219 10.113281-5.890625 15.570312-2.71875 12.46875-13.59375 37.59375-57.09375 39.09375-43.5-1.5-54.375-26.625-57.09375-39.09375-1.191406-5.457031-3.105469-10.730469-5.890625-15.570312l-7.046875-12.242188-2.800781 44.824219c-1.828125 17.90625 9.5 35.183593 25.585937 43.261719 13.339844 6.699218 21.128906 11.144531 31.617188 13.886718 10.742187 2.8125 22 2.867188 32.761718.128906 9.796876-2.496093 17.164063-6.441406 28.664063-12.277343 16.863281-8.558594 29.414063-25.761719 29.011719-45.765625zm0 0" fill="#7c292e"/><path d="m249.8125 200.277344v.027344c.011719.652343.019531.703124 0-.027344zm0 0" fill="#7c292e"/><g fill="#231f20"><path d="m118.632812 271.917969c-1.746093 0-3.433593-.914063-4.351562-2.53125-3.988281-7.011719-7.054688-14.285157-9.117188-21.613281-.628906-2.25.378907-4.636719 2.4375-5.75l11.367188-6.148438c1.675781-.910156 3.738281-.78125 5.292969.335938 1.898437 1.359374 3.828125 2.539062 5.734375 3.496093 2.066406 1.039063 4 2.019531 5.828125 2.949219 2.167969 1.105469 4.195312 2.136719 6.128906 3.097656.023437.011719.042969.023438.066406.035156 2.308594 1.164063 3.351563 3.898438 2.402344 6.300782-1.84375 5.796875-5.992187 10.636718-11.449219 13.324218l-12.136718 5.984376c-.707032.355468-1.460938.519531-2.203126.519531zm-2.667968-23.046875c1.292968 3.84375 2.890625 7.664062 4.789062 11.425781l5.042969-2.488281 2.757813-1.359375c1.847656-.910157 3.425781-2.269531 4.605468-3.921875-.609375-.3125-1.230468-.628906-1.867187-.953125-1.816407-.921875-3.734375-1.898438-5.78125-2.929688-1.488281-.746093-2.976563-1.589843-4.453125-2.53125zm0 0"/><path d="m233.367188 271.917969c-.742188 0-1.496094-.164063-2.207032-.515625l-12.140625-5.988282c-5.152343-2.539062-9.140625-7-11.121093-12.375-.101563-.15625-.195313-.320312-.28125-.492187-1.230469-2.46875-.226563-5.46875 2.238281-6.699219.003906-.003906.007812-.003906.011719-.007812 2.140624-1.0625 4.382812-2.203125 6.816406-3.441406l1.847656-.9375c2.933594-1.488282 5.753906-3.292969 8.390625-5.359376 1.554687-1.226562 3.691406-1.414062 5.4375-.484374l12.007813 6.390624c2.074218 1.105469 3.097656 3.503907 2.460937 5.765626-2.054687 7.328124-5.121094 14.597656-9.113281 21.613281-.914063 1.617187-2.601563 2.53125-4.347656 2.53125zm-14.53125-19.394531c1.179687 1.65625 2.757812 3.011718 4.605468 3.925781l7.804688 3.847656c1.890625-3.753906 3.488281-7.566406 4.777344-11.398437l-5.570313-2.964844c-2.367187 1.664062-4.84375 3.152344-7.390625 4.445312l-1.847656.9375c-.8125.414063-1.605469.816406-2.378906 1.207032zm-4.363282 2.195312h.019532zm0 0"/><path d="m280.484375 509.117188c-2.761719 0-5-2.238282-5-5v-114.023438c0-2.761719 2.238281-5 5-5s5 2.238281 5 5v114.023438c0 2.757812-2.238281 5-5 5zm0 0"/><path d="m175.925781 205.148438c-9.082031 0-17.546875-4.5-22.636719-12.03125-1.546874-2.289063-.945312-5.398438 1.34375-6.941407 2.289063-1.546875 5.398438-.945312 6.941407 1.34375 3.230469 4.777344 8.597656 7.628907 14.355469 7.628907 5.757812 0 11.121093-2.851563 14.351562-7.628907 1.542969-2.292969 4.65625-2.890625 6.941406-1.34375 2.289063 1.542969 2.890625 4.652344 1.34375 6.941407-5.09375 7.53125-13.554687 12.03125-22.640625 12.03125zm0 0"/><path d="m193.375 133.894531c-1.789062 0-3.519531-.964843-4.417969-2.65625-1.296875-2.4375-.371093-5.464843 2.066407-6.761719 3.078124-1.632812 7.730468-2.574218 12.761718-2.574218 5.035156 0 9.6875.941406 12.761719 2.578125 2.4375 1.296875 3.363281 4.324219 2.066406 6.761719-1.300781 2.4375-4.324219 3.363281-6.761719 2.066406-1.21875-.648438-4.0625-1.40625-8.066406-1.40625s-6.847656.757812-8.066406 1.40625c-.75.398437-1.554688.585937-2.34375.585937zm0 0"/><path d="m137.398438 133.894531c-1.789063 0-3.519532-.964843-4.417969-2.65625-1.296875-2.4375-.371094-5.464843 2.066406-6.761719 3.078125-1.632812 7.730469-2.574218 12.761719-2.574218 5.035156 0 9.6875.941406 12.761718 2.578125 2.441407 1.296875 3.363282 4.324219 2.066407 6.761719s-4.324219 3.363281-6.761719 2.066406c-1.21875-.648438-4.0625-1.40625-8.066406-1.40625s-6.847656.757812-8.066406 1.40625c-.75.398437-1.550782.585937-2.34375.585937zm0 0"/><path d="m148.636719 154.003906c-3.3125 0-6-2.6875-6-6v-1.140625c0-3.3125 2.6875-6 6-6 3.316406 0 6 2.6875 6 6v1.140625c0 3.3125-2.683594 6-6 6zm0 0"/><path d="m203.214844 154.875c-3.316406 0-6-2.6875-6-6v-1.140625c0-3.3125 2.683594-6 6-6 3.3125 0 6 2.6875 6 6v1.140625c0 3.3125-2.683594 6-6 6zm0 0"/><path d="m185.664062 24h-20c-2.761718 0-5-2.238281-5-5v-4c0-8.273438 6.730469-15 15-15 8.273438 0 15 6.726562 15 15v4c0 2.761719-2.234374 5-5 5zm-14.898437-10h9.800781c-.464844-2.28125-2.488281-4-4.902344-4-2.410156 0-4.433593 1.71875-4.898437 4zm0 0"/><path d="m326.769531 512h-215.769531c-2.761719 0-5-2.238281-5-5v-103c0-26.46875-21.535156-48-48-48-13.464844 0-26.417969 5.773438-35.539062 15.835938-1.421876 1.566406-3.683594 2.070312-5.632813 1.253906-1.957031-.820313-3.183594-2.777344-3.0625-4.894532l2.875-51.6875c.871094-15.566406 11.609375-28.578124 26.722656-32.382812l40.96875-10.3125c2.429688-.613281 5-1.308594 8.089844-2.191406 1.511719-.429688 3.140625-.128906 4.394531.824218 1.253906.949219 1.988282 2.4375 1.976563 4.011719-.058594 10.429688 4.980469 20.230469 13.480469 26.207031 19.160156 13.472657 39.125 19.839844 59.316406 18.882813.855468-1.601563 2.539062-2.640625 4.40625-2.640625 1.867187 0 3.550781 1.039062 4.40625 2.640625 20.183594.949219 40.15625-5.410156 59.316406-18.882813 8.5-5.976562 13.539062-15.773437 13.480469-26.207031-.007813-1.570312.714843-3.050781 1.964843-4 1.246094-.953125 2.871094-1.265625 4.378907-.839843l1.402343.394531c1.847657.519531 3.695313 1.039062 5.558594 1.507812l42.121094 10.601563c15.117188 3.804687 25.855469 16.820312 26.722656 32.382812l9.804688 176.042969c.28125 5.03125-1.542969 10.019531-5.011719 13.683594-3.453125 3.667969-8.332031 5.769531-13.371094 5.769531zm-210.769531-10h210.769531c2.339844 0 4.511719-.9375 6.117188-2.632812 1.609375-1.703126 2.421875-3.921876 2.292969-6.257813l-9.804688-176.042969c-.625-11.171875-8.332031-20.511718-19.179688-23.242187l-42.125-10.601563c-.445312-.113281-.886718-.226562-1.332031-.34375-1.683593 11.210938-7.867187 21.359375-17.261719 27.972656-21.289062 14.972657-43.636718 21.910157-66.414062 20.644532-1.082031-.058594-2.113281-.3125-3.058594-.730469-.949218.417969-1.980468.671875-3.0625.730469-22.757812 1.28125-45.125-5.671875-66.414062-20.644532-9.398438-6.613281-15.582032-16.765624-17.265625-27.980468-.851563.226562-1.671875.4375-2.484375.644531l-40.96875 10.308594c-10.847656 2.730469-18.554688 12.070312-19.179688 23.242187l-2.210937 39.730469c9.75-6.953125 21.492187-10.796875 33.582031-10.796875 31.980469 0 58 26.019531 58 58zm0 0"/><path d="m175.460938 510c-2.761719 0-5-2.238281-5-5v-180c0-2.761719 2.238281-5 5-5 2.761718 0 5 2.238281 5 5v180c0 2.761719-2.238282 5-5 5zm0 0"/><path d="m211.460938 391.457031c-2.761719 0-5-2.238281-5-5v-70.917969c0-2.761718 2.238281-5 5-5 2.761718 0 5 2.238282 5 5v70.917969c0 2.761719-2.238282 5-5 5zm0 0"/><path d="m139.460938 391.457031c-2.761719 0-5-2.238281-5-5v-70.917969c0-2.761718 2.238281-5 5-5 2.761718 0 5 2.238282 5 5v70.917969c0 2.761719-2.238282 5-5 5zm0 0"/><path d="m280.484375 440h-169.484375c-2.761719 0-5-2.238281-5-5v-30c0-2.761719 2.238281-5 5-5h169.484375c2.761719 0 5 2.238281 5 5v30c0 2.761719-2.238281 5-5 5zm-164.484375-10h159.484375v-20h-159.484375zm0 0"/><path d="m184.359375 331.644531c-1.761719 0-3.53125-.050781-5.296875-.148437-3.910156-.21875-7.140625-2.921875-8.039062-6.726563-.894532-3.777343.773437-7.617187 4.144531-9.550781 43.90625-25.175781 57.714843-54.753906 62.039062-70.148438.421875-1.503906 1.539063-2.714843 2.992188-3.289062 1.457031-.574219 3.109375-.425781 4.441406.382812 0 0 .679687.414063 1.800781 1.234376 10.796875 7.929687 16.914063 20.203124 16.777344 33.667968-.136719 13.636719-6.605469 25.949219-17.738281 33.78125-19.644531 13.8125-40.179688 20.796875-61.121094 20.796875zm-.394531-10.003906h.359375c18.867187 0 37.476562-6.371094 55.398437-18.976563 8.46875-5.957031 13.386719-15.324218 13.492188-25.699218.085937-8.410156-3.039063-16.199219-8.710938-22.039063-12.210937 32.945313-41.34375 55.113281-60.539062 66.714844zm0 0"/><path d="m167.640625 331.644531c-20.945313 0-41.476563-6.984375-61.117187-20.796875-11.136719-7.832031-17.601563-20.144531-17.742188-33.777344-.136719-13.46875 5.980469-25.742187 16.78125-33.667968 1.121094-.824219 1.800781-1.234375 1.800781-1.234375 1.332031-.808594 2.984375-.957031 4.441407-.386719 1.453124.574219 2.566406 1.789062 2.992187 3.292969 4.320313 15.390625 18.128906 44.972656 62.039063 70.148437 3.371093 1.933594 5.039062 5.769532 4.144531 9.550782-.902344 3.800781-4.132813 6.507812-8.042969 6.722656-1.765625.097656-3.535156.148437-5.296875.148437zm-60.144531-76.714843c-5.675782 5.839843-8.796875 13.628906-8.710938 22.039062.105469 10.375 5.023438 19.742188 13.492188 25.699219 17.917968 12.605469 36.535156 18.976562 55.398437 18.976562h.359375c-19.195312-11.605469-48.328125-33.773437-60.539062-66.714843zm0 0"/><path d="m176 326.535156c-1.949219 0-3.699219-1.128906-4.519531-2.859375-14.808594-8.542969-41.550781-26.777343-57.199219-54.289062-.679688-1.195313-.835938-2.621094-.433594-3.9375.40625-1.316407 1.332032-2.410157 2.566406-3.015625l12.140626-5.984375c3.089843-1.523438 5.425781-4.300781 6.40625-7.621094.421874-1.414063 1.445312-2.574219 2.796874-3.164063 1.355469-.589843 2.894532-.550781 4.222657.105469 6.757812 3.359375 12.234375 5.78125 18.65625 7.460938 9.910156 2.589843 20.375 2.632812 30.257812.117187 6.628907-1.6875 12.03125-4.054687 19.113281-7.578125 1.328126-.660156 2.871094-.699219 4.222657-.109375 1.355469.589844 2.378906 1.75 2.796875 3.164063.980468 3.320312 3.316406 6.097656 6.410156 7.621093l12.136719 5.988282c1.234375.605468 2.164062 1.699218 2.570312 3.015625.402344 1.316406.246094 2.742187-.433593 3.9375-15.644532 27.507812-42.386719 45.746093-57.199219 54.289062-.8125 1.730469-2.5625 2.859375-4.511719 2.859375zm-4.136719-2.640625h.019531zm-46.136719-54.902343c14.558594 22.679687 37.125 38.109374 50.273438 45.746093 13.148438-7.636719 35.710938-23.0625 50.273438-45.742187l-7.253907-3.578125c-3.832031-1.890625-7.019531-4.839844-9.214843-8.4375-5.527344 2.589843-10.574219 4.570312-16.433594 6.0625-11.527344 2.933593-23.71875 2.886719-35.261719-.136719-5.65625-1.480469-10.554687-3.414062-15.914063-5.921875-2.199218 3.597656-5.386718 6.546875-9.214843 8.4375zm0 0"/><path d="m296 116h-44c-2.761719 0-5-2.238281-5-5v-20c0-2.761719 2.238281-5 5-5h44c8.273438 0 15 6.726562 15 15s-6.726562 15-15 15zm-39-10h39c2.757812 0 5-2.242188 5-5s-2.242188-5-5-5h-39zm0 0"/><path d="m115.664062 116h-15.664062c-8.273438 0-15-6.726562-15-15s6.726562-15 15-15h15.664062c2.765626 0 5 2.238281 5 5v20c0 2.761719-2.234374 5-5 5zm-15.664062-20c-2.757812 0-5 2.242188-5 5s2.242188 5 5 5h10.664062v-10zm0 0"/><path d="m252 116h-136.335938c-2.761718 0-5-2.238281-5-5v-15h-10.664062c-2.761719 0-5-2.238281-5-5v-22.070312c0-30.289063 24.640625-54.929688 54.929688-54.929688h52.140624c30.289063 0 54.929688 24.640625 54.929688 54.929688v42.070312c0 2.761719-2.238281 5-5 5zm-131.335938-10h126.335938v-37.070312c0-24.773438-20.15625-44.929688-44.929688-44.929688h-52.140624c-24.773438 0-44.929688 20.15625-44.929688 44.929688v17.070312h10.664062c2.765626 0 5 2.238281 5 5zm0 0"/><path d="m175 228c-.054688 0-.117188 0-.171875-.003906-47.675781-1.640625-59.105469-30.632813-61.804687-43.023438-1.132813-5.195312-2.929688-9.953125-5.339844-14.144531l-6.945313-12.0625c-.484375-.773437-.769531-1.6875-.769531-2.667969 0-.058594.003906-.121094.003906-.175781l1.523438-45.09375c.09375-2.691406 2.300781-4.828125 4.996094-4.828125h139.613281c2.714843 0 4.9375 2.171875 4.996093 4.886719.1875 8.179687.355469 15.976562.503907 22.941406.171875 8.105469.324219 15.074219.449219 20.191406.050781 1.949219-1.035157 3.699219-2.6875 4.558594l-7.046876 12.25c-2.410156 4.191406-4.207031 8.949219-5.339843 14.140625-2.703125 12.390625-14.128907 41.382812-61.804688 43.027344-.058593.003906-.121093.003906-.175781.003906zm-64.984375-73.164062 6.335937 11.003906c2.921876 5.085937 5.089844 10.800781 6.441407 17 2.730469 12.53125 13.148437 33.75 52.207031 35.15625 39.058594-1.40625 49.476562-22.625 52.207031-35.15625 1.351563-6.199219 3.519531-11.914063 6.441407-17l8.074218-14.03125c.082032-.144532.171875-.28125.265625-.414063-.113281-4.742187-.238281-10.664062-.378906-17.355469-.121094-5.558593-.25-11.648437-.394531-18.042968h-129.886719zm0 0"/><path d="m105.050781 158.746094c-.105469 0-.210937 0-.316406-.007813-16.441406-1.042969-29.316406-12.925781-29.316406-27.050781 0-11.625 8.636719-21.933594 21.488281-25.660156.730469-.210938 1.492188-.253906 2.234375-.128906.273437.050781.617187.101562.859375.101562h6.492188c1.359374 0 2.652343.550781 3.597656 1.523438.941406.972656 1.449218 2.289062 1.402344 3.644531l-1.445313 42.746093c-.042969 1.351563-.636719 2.628907-1.636719 3.535157-.921875.839843-2.121094 1.296875-3.359375 1.296875zm-6.328125-42.8125c-8 2.667968-13.304687 8.898437-13.304687 15.753906 0 7.457031 6.199219 13.945312 14.824219 16.242188l1.078124-31.929688h-1.320312c-.453125 0-.878906-.027344-1.277344-.066406zm0 0"/><path d="m247.046875 158.738281c-1.246094 0-2.449219-.460937-3.371094-1.304687-1.007812-.917969-1.597656-2.210938-1.628906-3.570313-.125-5.089843-.273437-11.933593-.441406-19.859375-.148438-6.949218-.316407-14.726562-.5-22.886718-.035157-1.347657.480469-2.648438 1.421875-3.609376.941406-.964843 2.230468-1.503906 3.574218-1.503906h8.144532c.5 0 1 .074219 1.480468.222656 12.472657 3.871094 20.851563 14.101563 20.851563 25.460938 0 14.308594-12.550781 25.933594-29.203125 27.042969-.105469.003906-.21875.007812-.328125.007812zm4.167969-42.738281c.140625 6.300781.269531 12.300781.386718 17.789062.113282 5.234376.214844 10 .304688 14.09375 8.542969-2.335937 14.671875-8.796874 14.671875-16.195312 0-6.757812-5.242187-12.988281-13.125-15.6875zm0 0"/><path d="m176 326.535156c-1.949219 0-3.699219-1.128906-4.519531-2.859375-11.953125-6.890625-29.058594-18.515625-43.460938-35.070312-1.605469-1.84375-1.640625-4.574219-.089843-6.460938 1.550781-1.886719 4.234374-2.371093 6.355468-1.15625 12.527344 7.203125 26.765625 11.007813 41.175782 11.007813 15.234374 0 30.164062-4.210938 43.179687-12.179688 2.09375-1.28125 4.808594-.855468 6.40625 1.007813 1.597656 1.867187 1.605469 4.617187.019531 6.488281-14.613281 17.234375-32.214844 29.253906-44.546875 36.363281-.820312 1.730469-2.570312 2.859375-4.519531 2.859375zm-22.347656-27.152344c8.0625 6.527344 15.949218 11.640626 22.347656 15.355469 5.660156-3.292969 13.96875-8.578125 22.714844-15.707031-14.617188 3.796875-30.320313 3.933594-45.0625.351562zm0 0"/><path d="m249.808594 205.160156c-2.648438 0-4.847656-2.0625-4.992188-4.71875-.003906-.074218-.007812-.214844-.007812-.3125 0-.019531 0-.039062 0-.054687 0-2.761719 2.238281-5 5-5 2.734375 0 4.957031 2.195312 5 4.917969v.160156c0 2.710937-2.15625 4.933594-4.863282 5.007812-.046874 0-.089843 0-.136718 0zm0-5.089844h.261718zm5 0h.019531zm0 0h.019531zm0 0"/><path d="m176.019531 265.207031c-6.027343 0-12.050781-.765625-17.910156-2.300781-9.371094-2.449219-16.652344-6.15625-26.730469-11.285156-1.84375-.9375-3.789062-1.925782-5.867187-2.972656-18.617188-9.351563-30.261719-29.1875-28.316407-48.238282l2.785157-44.628906c.136719-2.203125 1.703125-4.054688 3.851562-4.558594 2.144531-.503906 4.375.464844 5.472657 2.375l7.042968 12.246094c2.925782 5.082031 5.09375 10.800781 6.441406 17 2.734376 12.53125 13.152344 33.746094 52.207032 35.152344 39.058594-1.40625 49.476562-22.621094 52.210937-35.152344 1.347657-6.199219 3.515625-11.917969 6.441407-17l8.070312-14.03125c.75-1.304688 2.050781-2.203125 3.535156-2.441406l1-.164063c1.402344-.226562 2.820313.148438 3.925782 1.03125 1.105468.886719 1.78125 2.195313 1.867187 3.605469l2.753906 46.011719c.003907.066406.007813.128906.007813.199219.410156 20.570312-12.046875 40.324218-31.746094 50.324218l-2.449219 1.246094c-10.234375 5.203125-17.625 8.96875-27.246093 11.417969-5.671876 1.441406-11.507813 2.164062-17.347657 2.164062zm-67.105469-92.078125-1.753906 28.097656c-1.546875 15.210938 7.851563 30.957032 22.835938 38.484376 2.101562 1.050781 4.058594 2.050781 5.914062 2.996093 9.878906 5.023438 16.402344 8.347657 24.730469 10.523438 9.90625 2.59375 20.371094 2.636719 30.257813.121093 8.542968-2.175781 15.160156-5.542968 25.179687-10.640624l2.460937-1.25c16.261719-8.257813 26.570313-24.386719 26.273438-41.109376l-1.832031-30.667968-.660157 1.144531c-2.410156 4.191406-4.207031 8.949219-5.339843 14.140625-2.703125 12.390625-14.128907 41.382812-61.804688 43.027344-.117187.003906-.230469.003906-.347656 0-47.675781-1.644532-59.105469-30.636719-61.804687-43.027344-.929688-4.261719-2.308594-8.234375-4.109376-11.839844zm0 0"/><path d="m249.824219 205.808594c-.828125 0-1.65625-.207032-2.410157-.617188-2.15625-1.1875-2.515624-3.21875-2.582031-4.316406h-.007812l-.011719-.464844c0-.042968 0-.089844 0-.132812 0-2.738282 2.199219-4.964844 4.933594-5h.066406c2.640625 0 4.820312 2.050781 4.988281 4.671875.007813.113281.011719.230469.011719.34375 0 .015625 0 .035156.003906.054687l.003906.300782h-.003906c-.015625 1.140624-.277344 3.140624-2.386718 4.425781-.800782.488281-1.703126.734375-2.605469.734375zm0 0"/><path d="m111 512h-99.453125c-6.367187 0-11.546875-5.179688-11.546875-11.546875v-96.453125c0-16.089844 6.828125-31.617188 18.734375-42.605469 12.058594-11.121093 27.695313-16.519531 44-15.203125 29.871094 2.410156 53.265625 28.273438 53.265625 58.886719v101.921875c0 2.761719-2.238281 5-5 5zm-53.046875-156.003906c-12.046875 0-23.441406 4.453125-32.433594 12.75-9.863281 9.097656-15.519531 21.949218-15.519531 35.253906v96.453125c0 .851563.695312 1.546875 1.546875 1.546875h94.453125v-96.921875c0-25.4375-19.359375-46.925781-44.066406-48.917969-1.332032-.109375-2.660156-.164062-3.980469-.164062zm0 0"/><path d="m111 512h-99.453125c-6.367187 0-11.546875-5.179688-11.546875-11.546875v-81.453125c0-2.761719 2.238281-5 5-5h106c2.761719 0 5 2.238281 5 5v88c0 2.761719-2.238281 5-5 5zm-101-88v76.453125c0 .851563.695312 1.546875 1.546875 1.546875h94.453125v-78zm0 0"/></g></svg>