<svg height="512pt" viewBox="-93 0 512 512" width="512pt" xmlns="http://www.w3.org/2000/svg"><path d="m65.707031 289.738281c7.175781-1.914062 17.796875-4.050781 33.320313-9.550781 1.152344-.566406 4.929687-2.425781 20.515625-10.113281 5.726562-2.824219 9.351562-8.652344 9.351562-15.039063v-14.402344c7.660157 6.925782 16.425781 13.140626 26.378907 17.726563 4.628906 2.128906 10.132812 2.132813 14.765624 0 10.335938-4.757813 19.394532-11.273437 27.257813-18.519531v15.195312c0 12.726563 11.976563 16.027344 12.957031 16.816406l17.945313 8.847657c14.289062 4.859375 23.855469 6.824219 31.328125 8.796875v-127.65625c3.707031-7.683594 3.710937-16.441406 0-24.132813v-35.796875c0-53.519531-43.386719-96.910156-96.910156-96.910156-53.523438 0-96.910157 43.386719-96.910157 96.910156v36.707032c-3.121093 7.125-3.125 15.179687 0 22.3125zm0 0" fill="#7c292e"/><path d="m321.164062 493.355469-9.441406-169.503907c-.714844-12.800781-9.664062-23.648437-22.097656-26.777343l-40.5625-10.210938c-7.035156-1.769531-13.996094-3.828125-20.867188-6.164062l-17.945312-8.847657-3.605469-1.78125c-5.726562-2.824218-9.351562-8.652343-9.351562-15.035156v-15.195312c-7.863281 7.242187-16.921875 13.757812-27.257813 18.515625-4.632812 2.132812-10.136718 2.128906-14.765625 0-9.953125-4.582031-18.71875-10.796875-26.378906-17.722657v14.402344c0 6.382813-3.625 12.210938-9.351563 15.035156l-2.65625 1.3125-17.859374 8.804688c-7.558594 2.675781-15.238282 4.996094-23.019532 6.953125l-39.445312 9.929687c-12.433594 3.132813-21.386719 13.980469-22.097656 26.78125l-9.445313 169.503907c-.410156 7.40625 5.484375 13.640625 12.90625 13.640625h290.335937c7.421876.003906 13.320313-6.230469 12.90625-13.640625zm0 0" fill="#1b87c9"/><path d="m171.257812 312.992188 12.199219 14.351562c12.960938 15.25 37.6875 9.558594 42.730469-9.808594 2.480469-9.507812 4.1875-21.386718 4.332031-36.097656-.773437-.253906-1.554687-.476562-2.324219-.738281l-17.941406-8.847657-3.609375-1.78125c-.894531-.441406-1.722656-.980468-2.507812-1.5625zm0 0" fill="#30a9e5"/><path d="m99.605469 317.535156c5.046875 19.367188 29.777343 25.058594 42.738281 9.808594l12.199219-14.351562-32.738281-44.285157c-.714844.503907-1.464844.972657-2.265626 1.367188l-2.65625 1.308593-17.859374 8.804688c-1.242188.441406-2.496094.855469-3.746094 1.277344.148437 14.699218 1.855468 26.570312 4.328125 36.070312zm0 0" fill="#30a9e5"/><path d="m171.257812 312.992188h-16.714843l-6.140625 7.226562v54.480469c0 2.527343 1.578125 4.773437 3.941406 5.675781 3.34375 1.28125 6.96875 1.988281 10.75 1.988281s7.402344-.707031 10.746094-1.984375c2.363281-.902344 3.945312-3.148437 3.945312-5.675781v-54.027344zm0 0" fill="#30a9e5"/><path d="m197.292969 255.035156v-15.195312c-7.863281 7.246094-16.921875 13.761718-27.253907 18.519531-4.636718 2.132813-10.140624 2.128906-14.765624 0-9.953126-4.582031-18.722657-10.800781-26.378907-17.726563v14.402344c0 5.492188-2.695312 10.558594-7.085937 13.671875l32.734375 44.285157h16.714843l32.878907-44.480469c-4.246094-3.125-6.84375-8.089844-6.84375-13.476563zm0 0" fill="#fcb275"/><path d="m91.859375 143.433594 2.078125-21.378906c-.894531-.085938-1.800781-.136719-2.722656-.136719-15.382813 0-27.851563 12.46875-27.851563 27.851562 0 15.382813 12.46875 27.851563 27.851563 27.851563.703125 0 1.390625-.054688 2.085937-.101563-2.125-11.121093-2.664062-22.605469-1.441406-34.085937zm0 0" fill="#fcb275"/><path d="m234.457031 121.921875c-1.042969 0-2.066406.066406-3.078125.179687l2.074219 21.335938c1.21875 11.472656.683594 22.949219-1.4375 34.066406.804687.066406 1.617187.121094 2.441406.121094 15.382813 0 27.851563-12.46875 27.851563-27.851562 0-15.382813-12.472656-27.851563-27.851563-27.851563zm0 0" fill="#fcb275"/><path d="m233.449219 143.433594-1.722657-17.738282c-.335937-3.457031-2.402343-6.507812-5.484374-8.105468-6.214844-3.226563-12.613282-5.941406-19.140626-8.15625-.894531-.300782-1.542968-1.070313-1.679687-2l-4.21875-28.488282c-.121094-.800781-1.261719-.839843-1.433594-.050781l-5.289062 24.335938c-.296875 1.359375-1.632813 2.203125-2.992188 1.914062-5.847656-1.242187-11.757812-2.09375-17.691406-2.558593-1.171875-.09375-2.125-.964844-2.296875-2.125l-2.296875-15.519532c-.117187-.800781-1.261719-.839844-1.433594-.046875l-3.328125 15.320313c-.25 1.148437-1.261718 1.957031-2.441406 1.96875-21.613281.167968-43.191406 5.4375-62.859375 15.820312-3.027344 1.597656-5.070313 4.59375-5.429687 7.996094l-1.84375 17.433594c-3.605469 33.878906 7.761718 67.847656 31.6875 92.109375 8.824218 8.949219 19.375 17.125 31.714843 22.808593 4.695313 2.164063 10.085938 2.164063 14.78125 0 12.34375-5.679687 22.890625-13.859374 31.714844-22.808593 23.917969-24.257813 35.289063-58.226563 31.683594-92.109375zm0 0" fill="#fcb275"/><g fill="#231f20"><path d="m163.21875 217.90625c-6.214844 0-11.878906-2.199219-15.539062-6.03125-1.910157-2-1.835938-5.164062.160156-7.070312s5.160156-1.835938 7.070312.164062c1.355469 1.417969 4.25 2.9375 8.304688 2.9375 4.054687 0 6.953125-1.519531 8.308594-2.9375 1.902343-2 5.070312-2.070312 7.066406-.164062s2.070312 5.070312.164062 7.070312c-3.65625 3.832031-9.320312 6.03125-15.535156 6.03125zm0 0"/><path d="m200.136719 146.609375c-.792969 0-1.597657-.1875-2.34375-.585937-1.25-.664063-4.117188-1.332032-7.703125-1.332032-3.585938 0-6.449219.667969-7.699219 1.332032-2.4375 1.296874-5.464844.375-6.761719-2.066407-1.296875-2.4375-.371094-5.464843 2.066406-6.761719 2.992188-1.589843 7.511719-2.503906 12.394532-2.503906 4.882812 0 9.398437.914063 12.394531 2.503906 2.4375 1.296876 3.363281 4.324219 2.066406 6.761719-.894531 1.691407-2.625 2.652344-4.414062 2.652344zm0 0"/><path d="m146.136719 146.609375c-.792969 0-1.597657-.1875-2.34375-.585937-1.25-.664063-4.117188-1.332032-7.703125-1.332032-3.585938 0-6.449219.667969-7.699219 1.332032-2.4375 1.296874-5.464844.375-6.761719-2.066407-1.296875-2.4375-.371094-5.464843 2.066406-6.761719 2.992188-1.589843 7.511719-2.503906 12.394532-2.503906 4.882812 0 9.398437.914063 12.394531 2.503906 2.4375 1.296876 3.363281 4.324219 2.066406 6.761719-.894531 1.691407-2.625 2.652344-4.414062 2.652344zm0 0"/><path d="m136.894531 166.042969c-3.316406 0-6-2.6875-6-6v-1.097657c0-3.316406 2.683594-6 6-6 3.3125 0 6 2.683594 6 6v1.097657c0 3.3125-2.683593 6-6 6zm0 0"/><path d="m189.542969 166.882812c-3.3125 0-6-2.683593-6-6v-1.097656c0-3.3125 2.6875-6 6-6s6 2.6875 6 6v1.097656c0 3.316407-2.6875 6-6 6zm0 0"/><path d="m91.21875 182.625c-18.117188 0-32.851562-14.738281-32.851562-32.851562 0-18.117188 14.734374-32.851563 32.851562-32.851563 1.035156 0 2.117188.050781 3.207031.160156 2.746094.269531 4.757813 2.714844 4.488281 5.460938l-2.078124 21.375c-.003907.015625-.003907.03125-.003907.042969-1.152343 10.820312-.6875 21.792968 1.378907 32.617187.269531 1.402344-.074219 2.851563-.945313 3.984375-.867187 1.128906-2.179687 1.835938-3.601563 1.941406-.882812.066406-1.660156.121094-2.445312.121094zm-2.792969-55.535156c-11.289062 1.378906-20.058593 11.027344-20.058593 22.683594 0 11.289062 8.230468 20.695312 19.007812 22.527343-1.359375-9.777343-1.523438-19.628906-.488281-29.371093zm3.433594 16.34375h.019531zm0 0"/><path d="m234.457031 182.625c-.972656 0-1.929687-.0625-2.878906-.144531-1.410156-.121094-2.699219-.835938-3.554687-1.960938-.851563-1.128906-1.1875-2.566406-.921876-3.957031 2.0625-10.816406 2.527344-21.78125 1.375-32.597656l-2.078124-21.378906c-.265626-2.726563 1.707031-5.15625 4.429687-5.457032 1.277344-.140625 2.464844-.207031 3.625-.207031 18.117187 0 32.851563 14.738281 32.851563 32.851563 0 18.113281-14.734376 32.851562-32.847657 32.851562zm2.425781-55.578125 1.542969 15.90625c1.039063 9.734375.871094 19.605469-.5 29.40625 10.960938-1.675781 19.378907-11.167969 19.378907-22.585937 0-11.78125-8.960938-21.507813-20.421876-22.726563zm0 0"/><path d="m263.699219 509.222656c-2.761719 0-5-2.238281-5-5v-109.789062c0-2.761719 2.238281-5 5-5s5 2.238281 5 5v109.789062c0 2.761719-2.238281 5-5 5zm0 0"/><path d="m62.488281 509.222656c-2.761719 0-5-2.238281-5-5v-109.789062c0-2.761719 2.238281-5 5-5s5 2.238281 5 5v109.789062c0 2.761719-2.238281 5-5 5zm0 0"/><path d="m202.222656 341.054688c-8.589844 0-16.851562-3.734376-22.578125-10.46875l-12.199219-14.351563c-1.503906-1.769531-1.59375-4.34375-.210937-6.210937l32.875-44.480469c1.640625-2.21875 4.769531-2.691407 6.984375-1.058594.667969.492187 1.230469.84375 1.761719 1.109375l21.242187 10.46875c.277344.089844.550782.175781.828125.261719.386719.121093.777344.238281 1.160157.367187 2.066406.679688 3.453124 2.621094 3.429687 4.792969-.132813 13.847656-1.644531 26.402344-4.492187 37.3125-2.804688 10.78125-11.289063 19.023437-22.140626 21.503906-2.21875.507813-4.449218.753907-6.660156.753907zm-24.585937-28.277344 9.628906 11.332031c4.847656 5.703125 12.09375 8.117187 19.386719 6.445313 7.308594-1.671876 12.804687-7.007813 14.699218-14.277344 2.394532-9.199219 3.773438-19.730469 4.101563-31.351563l-19.957031-9.839843zm0 0"/><path d="m123.578125 341.054688c-2.210937 0-4.441406-.246094-6.660156-.753907-10.851563-2.480469-19.339844-10.71875-22.148438-21.503906-2.84375-10.90625-4.351562-23.449219-4.492187-37.28125-.019532-2.164063 1.355468-4.097656 3.40625-4.789063l.5625-.1875c.945312-.320312 1.894531-.636718 2.835937-.96875l20.246094-9.980468c.5-.246094 1.019531-.5625 1.589844-.964844 2.222656-1.570312 5.292969-1.078125 6.910156 1.109375l32.734375 44.292969c1.378906 1.867187 1.292969 4.4375-.210938 6.207031l-12.199218 14.351563c-5.726563 6.734374-13.984375 10.46875-22.574219 10.46875zm-23.230469-56.03125c.332032 11.582031 1.707032 22.082031 4.097656 31.253906 1.894532 7.265625 7.390626 12.605468 14.703126 14.277344 7.300781 1.667968 14.539062-.746094 19.386718-6.449219l9.628906-11.328125-27.757812-37.558594-19.167969 9.453125c-.175781.085937-.355469.160156-.542969.226563-.113281.042968-.230468.082031-.347656.125zm0 0"/><path d="m163.09375 387.359375c-4.296875 0-8.515625-.777344-12.535156-2.3125-4.285156-1.636719-7.15625-5.792969-7.15625-10.347656v-54.480469c0-1.1875.421875-2.335938 1.191406-3.238281l6.140625-7.222657c.949219-1.121093 2.339844-1.765624 3.808594-1.765624h16.710937c1.46875 0 2.863282.644531 3.8125 1.765624l6.527344 7.679688c.765625.902344 1.191406 2.050781 1.191406 3.238281v54.027344c0 4.554687-2.878906 8.710937-7.164062 10.34375-4.015625 1.535156-8.230469 2.3125-12.527344 2.3125zm-9.691406-65.304687v52.644531c0 .441406.285156.835937.726562 1.003906 5.75 2.199219 12.179688 2.199219 17.925782 0 .445312-.167969.730468-.5625.730468-1.003906v-52.1875l-3.84375-4.519531h-12.089844zm0 0"/><path d="m171.257812 317.992188h-16.714843c-1.585938 0-3.078125-.75-4.023438-2.027344l-32.734375-44.289063c-.796875-1.078125-1.128906-2.4375-.914062-3.765625.210937-1.324218.949218-2.511718 2.042968-3.285156 3.121094-2.210938 4.976563-5.792969 4.976563-9.589844v-14.402344c0-1.976562 1.164063-3.769531 2.96875-4.570312 1.8125-.804688 3.917969-.464844 5.382813.859375 7.964843 7.203125 16.417968 12.882813 25.121093 16.890625 3.3125 1.527344 7.269531 1.527344 10.582031 0 9.019532-4.152344 17.75-10.09375 25.957032-17.652344 1.457031-1.347656 3.574218-1.703125 5.398437-.902344 1.816407.796876 2.992188 2.59375 2.992188 4.582032v15.195312c0 3.699219 1.792969 7.234375 4.804687 9.449219 1.070313.789063 1.78125 1.96875 1.976563 3.28125.199219 1.3125-.132813 2.648437-.921875 3.71875l-32.875 44.480469c-.941406 1.277344-2.433594 2.027344-4.019532 2.027344zm-14.195312-10h11.671875l28.75-38.894532c-3.308594-3.898437-5.191406-8.890625-5.191406-14.0625v-4.4375c-6.488281 4.992188-13.238281 9.113282-20.164063 12.300782-5.9375 2.730468-13.019531 2.730468-18.949218 0-6.609376-3.042969-13.070313-6.941407-19.289063-11.640626v3.777344c0 5.308594-1.960937 10.390625-5.390625 14.316406zm0 0"/><path d="m308.261719 512h-290.335938c-4.90625 0-9.652343-2.042969-13.023437-5.609375-3.375-3.566406-5.148438-8.417969-4.8750002-13.3125l9.4414062-169.503906c.839844-15.066407 11.234375-27.664063 25.871094-31.347657l39.449218-9.929687c7.5-1.886719 15-4.148437 22.292969-6.722656l20.246094-9.984375c4.050781-1.996094 6.5625-6.039063 6.5625-10.554688v-14.402344c0-1.976562 1.164063-3.765624 2.96875-4.570312 1.8125-.804688 3.917969-.460938 5.382813.863281 7.964843 7.199219 16.417968 12.882813 25.121093 16.886719 3.3125 1.53125 7.269531 1.527344 10.582031 0 9.019532-4.152344 17.75-10.089844 25.957032-17.652344 1.457031-1.34375 3.574218-1.699218 5.398437-.898437 1.816407.792969 2.992188 2.59375 2.992188 4.578125v15.195312c0 4.515625 2.511719 8.558594 6.558593 10.554688l21.261719 10.480468c6.617188 2.242188 13.398438 4.242188 20.171875 5.949219l40.558594 10.207031c14.636719 3.683594 25.03125 16.285157 25.871094 31.347657l9.441406 169.503906c.273438 4.894531-1.5 9.75-4.871094 13.3125-3.371094 3.566406-8.117187 5.609375-13.023437 5.609375zm-174.371094-260.738281v3.773437c0 8.351563-4.652344 15.832032-12.140625 19.523438l-20.511719 10.113281c-.175781.085937-.359375.164063-.542969.226563-7.675781 2.71875-15.570312 5.105468-23.46875 7.09375l-39.449218 9.929687c-10.367188 2.609375-17.730469 11.535156-18.324219 22.207031l-9.441406 169.503906c-.125 2.195313.640625 4.285157 2.152343 5.882813 1.511719 1.601563 3.558594 2.480469 5.757813 2.480469h290.335937c2.203126 0 4.246094-.878906 5.757813-2.480469 1.511719-1.597656 2.28125-3.6875 2.15625-5.882813l-9.441406-169.503906c-.59375-10.671875-7.960938-19.597656-18.328125-22.207031l-40.558594-10.207031c-7.136719-1.796875-14.292969-3.910156-21.257812-6.28125-.207032-.070313-.40625-.152344-.601563-.25l-21.554687-10.625c-7.488282-3.691406-12.136719-11.171875-12.136719-19.523438v-4.4375c-6.488281 4.992188-13.238281 9.113282-20.164063 12.300782-5.933594 2.734374-13.015625 2.734374-18.949218 0-6.609376-3.042969-13.066407-6.941407-19.289063-11.636719zm0 0"/><path d="m162.65625 264.976562c-3.238281 0-6.472656-.695312-9.484375-2.082031-11.761719-5.417969-22.925781-13.4375-33.183594-23.839843-24.855469-25.203126-36.921875-60.25-33.101562-96.152344l1.847656-17.429688c.535156-5.0625 3.550781-9.507812 8.066406-11.890625 19.402344-10.242187 41.203125-15.886719 63.171875-16.371093l2.910156-13.378907c.589844-2.707031 3.042969-4.585937 5.785157-4.507812 2.765625.089843 5.070312 2.144531 5.476562 4.882812l2.011719 13.5625c4.667969.433594 9.347656 1.101563 13.957031 1.996094l4.769531-21.933594c.589844-2.703125 3.042969-4.582031 5.785157-4.507812 2.765625.089843 5.070312 2.144531 5.476562 4.882812l3.996094 26.988281c6.316406 2.214844 12.5 4.890626 18.402344 7.953126 4.609375 2.390624 7.65625 6.902343 8.160156 12.0625l1.71875 17.71875c3.808594 35.890624-8.253906 70.925781-33.101563 96.125-10.257812 10.402343-21.425781 18.421874-33.183593 23.839843-3.011719 1.386719-6.246094 2.082031-9.480469 2.082031zm5.171875-160.566406c-1.371094 1.699219-3.460937 2.753906-5.789063 2.773438-21.050781.167968-41.992187 5.4375-60.570312 15.246094-1.5625.824218-2.609375 2.355468-2.792969 4.097656l-1.847656 17.433594c-3.5 32.910156 7.539063 65.011718 30.277344 88.070312 9.40625 9.539062 19.585937 16.867188 30.246093 21.777344 3.371094 1.554687 7.230469 1.554687 10.605469 0 10.660157-4.910156 20.835938-12.238282 30.246094-21.777344 22.738281-23.058594 33.773437-55.160156 30.273437-88.070312 0-.015626 0-.03125-.003906-.046876l-1.722656-17.734374c-.171875-1.78125-1.226562-3.332032-2.8125-4.15625-5.902344-3.066407-12.109375-5.707032-18.441406-7.855469-2.683594-.90625-4.605469-3.207031-5.023438-6.003907l-.792968-5.339843-.316407 1.46875c-.871093 4.019531-4.867187 6.601562-8.910156 5.742187-5.609375-1.1875-11.347656-2.015625-17.050781-2.464844-2.3125-.179687-4.320313-1.375-5.574219-3.160156zm0 0"/><path d="m65.707031 294.738281c-1.089843 0-2.164062-.355469-3.046875-1.035156-1.230468-.945313-1.953125-2.414063-1.953125-3.964844v-127.808593c-3.105469-7.785157-3.105469-16.527344 0-24.3125v-35.707032c0-56.195312 45.714844-101.910156 101.910157-101.910156 56.195312 0 101.910156 45.714844 101.910156 101.910156v34.703125c3.703125 8.425781 3.703125 17.894531 0 26.320313v126.5625c0 1.550781-.71875 3.015625-1.949219 3.960937-1.226563.945313-2.828125 1.269531-4.328125.875-1.726562-.457031-3.566406-.910156-5.546875-1.402343-6.667969-1.652344-14.96875-3.707032-26.117187-7.496094-.207032-.070313-.40625-.152344-.601563-.25l-17.941406-8.847656c-.148438-.074219-.292969-.152344-.433594-.238282-.121094-.058594-.265625-.121094-.429687-.195312-9.878907-4.457032-14.886719-11.476563-14.886719-20.867188v-4.4375c-6.488281 4.992188-13.238281 9.113282-20.164063 12.300782-5.933594 2.730468-13.015625 2.730468-18.949218 0-6.609376-3.042969-13.070313-6.941407-19.289063-11.640626v3.777344c0 8.347656-4.652344 15.832032-12.140625 19.519532l-20.515625 10.117187c-.175781.085937-.355469.164063-.542969.226563-12.246094 4.339843-21.570312 6.644531-28.378906 8.324218-1.960938.484375-3.726562.917969-5.320312 1.34375-.425782.117188-.855469.171875-1.285157.171875zm96.910157-284.738281c-50.679688 0-91.910157 41.230469-91.910157 91.910156v36.707032c0 .691406-.144531 1.375-.421875 2.007812-2.546875 5.816406-2.546875 12.484375 0 18.296875.277344.628906.421875 1.3125.421875 2.003906v122.394531c6.476563-1.601562 15.1875-3.800781 26.375-7.75l20.246094-9.980468c4.050781-1.996094 6.5625-6.042969 6.5625-10.554688v-14.402344c0-1.976562 1.164063-3.769531 2.96875-4.570312 1.8125-.804688 3.917969-.464844 5.382813.859375 7.964843 7.203125 16.417968 12.882813 25.121093 16.890625 3.3125 1.527344 7.269531 1.527344 10.582031 0 9.019532-4.152344 17.75-10.09375 25.957032-17.652344 1.457031-1.347656 3.574218-1.703125 5.398437-.902344 1.816407.796876 2.992188 2.59375 2.992188 4.582032v15.195312c0 6.773438 4.546875 9.742188 9 11.75.535156.242188.996093.449219 1.425781.707032l17.394531 8.578124c10.273438 3.480469 18.089844 5.445313 24.410157 7.007813v-121.242187c0-.75.171874-1.496094.496093-2.171876 3.035157-6.289062 3.035157-13.5 0-19.789062-.324219-.675781-.496093-1.417969-.496093-2.171875v-35.792969c.003906-50.679687-41.226563-91.910156-91.90625-91.910156zm44.5 265.746094c.003906 0 .003906.003906.007812.007812-.003906-.003906-.003906-.007812-.007812-.007812zm0 0"/></g></svg>