<svg height="511pt" viewBox="-90 0 511 511.93335" width="511pt" xmlns="http://www.w3.org/2000/svg"><path d="m92.042969 114.789062c.144531 0 .285156.019532.425781.019532l-4.453125 47.804687c-11.386719-1.921875-20.066406-11.800781-20.066406-23.730469-.003907-13.308593 10.785156-24.09375 24.09375-24.09375zm0 0" fill="#fcb275"/><path d="m325.171875 493.136719-9.546875-171.402344c-.71875-12.945313-9.773438-23.914063-22.34375-27.078125l-41.015625-10.324219c-7.117187-1.789062-14.15625-3.871093-21.101563-6.234375l-18.144531-8.945312-3.652343-1.800782c-5.789063-2.855468-9.453126-8.75-9.453126-15.207031v-14.96875l-.0625.058594c-8.460937 8.242187-19.804687 12.851563-31.617187 12.851563.140625 0-4.339844 0-4.574219 0-11.8125 0-23.15625-4.609376-31.621094-12.851563l-1.292968-1.261719v16.171875c0 6.457031-3.667969 12.351563-9.457032 15.207031l-2.6875 1.324219-18.058593 8.902344c-7.644531 2.710937-15.414063 5.054687-23.277344 7.035156l-39.890625 10.039063c-12.570312 3.164062-21.621094 14.136718-22.34375 27.082031l-9.546875 171.402344c-.417969 7.492187 5.546875 13.796875 13.046875 13.796875h293.589844c7.503906 0 13.46875-6.304688 13.050781-13.796875zm0 0" fill="#fcbd4c"/><path d="m238.613281 114.789062c-.023437 0-.050781 0-.078125.003907l4.164063 47.808593c11.355469-1.945312 20.011719-11.808593 20.011719-23.71875 0-13.308593-10.789063-24.09375-24.097657-24.09375zm0 0" fill="#fcb275"/><path d="m243.519531 172.011719-4.867187-55.910157c-.242188-2.769531-2.867188-4.691406-5.582032-4.09375-52.3125 11.519532-91.375-13.417968-105.578124-24.5-2.390626-1.863281-5.972657-.855468-6.871094 2.042969-3.949219 12.777344-18.21875 18.492188-24.460938 20.417969-1.796875.554688-3.0625 2.160156-3.210937 4.039062l-4.574219 58.003907c-1.226562 13.160156 3.5625 26.164062 13.03125 35.386719l30.636719 29.839843c8.460937 8.238281 19.804687 12.851563 31.617187 12.851563.238282 0 4.71875 0 4.578125 0 11.808594 0 23.152344-4.613282 31.617188-12.851563l30.636719-29.839843c9.464843-9.222657 14.253906-22.226563 13.027343-35.386719zm0 0" fill="#fcb275"/><path d="m256.15625 65.824219c-6.882812-21.777344-23.226562-39.238281-44.140625-48.410157-90.597656-39.730468-114.585937 28.804688-114.585937 28.804688-26.597657 11.199219-32.296876 50.460938-24.71875 78.324219 4.390624-5.910157 11.402343-9.753907 19.332031-9.753907.144531 0 .285156.019532.425781.019532l.417969-.019532.0625-.78125c.148437-1.875 1.410156-3.484374 3.210937-4.039062 6.242188-1.925781 20.511719-7.640625 24.460938-20.417969.898437-2.898437 4.480468-3.90625 6.871094-2.042969 14.203124 11.082032 53.265624 36.019532 105.578124 24.5 2.261719-.5 4.457032.75 5.269532 2.78125l.199218.003907c.023438-.003907.050782-.003907.078126-.003907 9.777343 0 18.179687 5.835938 21.957031 14.207032 3.621093-26.296875.574219-47.363282-4.417969-63.171875zm0 0" fill="#7c292e"/><path d="m237.492188 280.105469c-2.113282-.660157-4.234376-1.296875-6.328126-2.007813l-18.144531-8.945312-1.945312-.960938-39.074219 46.640625 29.664062 19.023438zm0 0" fill="#f9d498"/><path d="m93.640625 279.902344 35.96875 53.953125 29.664063-19.023438-39.25-46.855469-1.421876.699219-18.054687 8.902344c-2.289063.8125-4.59375 1.578125-6.90625 2.324219zm0 0" fill="#f9d498"/><path d="m172 314.832031.125-.152343h-12.980469l.128907.152343-6.355469 4.074219v59.679688c0 2.609374 2.113281 4.722656 4.722656 4.722656h15.378906c2.605469 0 4.722657-2.113282 4.722657-4.722656v-60.070313zm0 0" fill="#f9d498"/><path d="m172.125 314.679688-.125.152343zm0 0" fill="#fcb275"/><path d="m211.070312 268.191406-1.703124-.839844c-5.789063-2.855468-9.457032-8.75-9.457032-15.207031v-14.96875l-.058594.058594c-8.464843 8.242187-19.808593 12.851563-31.617187 12.851563.136719 0-4.339844 0-4.578125 0-11.8125 0-23.15625-4.609376-31.617188-12.851563l-1.296874-1.261719v16.171875c0 6.457031-3.664063 12.351563-9.457032 15.207031l-1.265625.625 39.214844 46.8125-.089844-.109374h12.980469zm0 0" fill="#fcb275"/><g fill="#231f20"><path d="m88.015625 167.613281c-.277344 0-.554687-.023437-.832031-.070312-14.042969-2.367188-24.234375-14.421875-24.234375-28.660157 0-16.042968 13.050781-29.09375 29.09375-29.09375.199219 0 .390625.007813.585937.023438 1.390625.027344 2.675782.628906 3.597656 1.667969.929688 1.035156 1.351563 2.410156 1.222657 3.789062l-4.457031 47.804688c-.128907 1.386719-.828126 2.652343-1.933594 3.5-.875.679687-1.949219 1.039062-3.042969 1.039062zm-1.097656-47.128906c-8.046875 2.246094-13.96875 9.644531-13.96875 18.398437 0 7.453126 4.257812 13.996094 10.660156 17.121094zm0 0"/><path d="m267.058594 509.125c-2.761719 0-5-2.238281-5-5v-111.019531c0-2.761719 2.238281-5 5-5 2.765625 0 5 2.238281 5 5v111.019531c0 2.761719-2.234375 5-5 5zm0 0"/><path d="m63.597656 509.125c-2.761718 0-5-2.238281-5-5v-111.019531c0-2.761719 2.238282-5 5-5 2.761719 0 5 2.238281 5 5v111.019531c0 2.761719-2.238281 5-5 5zm0 0"/><path d="m167.914062 213.167969c-8.886718 0-17.167968-4.402344-22.148437-11.773438-1.546875-2.289062-.945313-5.398437 1.34375-6.941406 2.285156-1.546875 5.394531-.945313 6.941406 1.34375 3.121094 4.617187 8.300781 7.371094 13.867188 7.371094 5.558593 0 10.742187-2.753907 13.863281-7.371094 1.546875-2.289063 4.65625-2.890625 6.941406-1.34375 2.289063 1.546875 2.890625 4.652344 1.34375 6.941406-4.984375 7.375-13.265625 11.773438-22.152344 11.773438zm0 0"/><path d="m205.171875 143.792969c-.792969 0-1.59375-.1875-2.34375-.585938-1.265625-.671875-4.164063-1.351562-7.792969-1.351562-3.625 0-6.527344.679687-7.789062 1.351562-2.441406 1.296875-5.46875.371094-6.761719-2.066406-1.296875-2.4375-.375-5.46875 2.0625-6.761719 3.015625-1.605468 7.566406-2.523437 12.488281-2.523437s9.472656.917969 12.488282 2.523437c2.4375 1.292969 3.363281 4.324219 2.066406 6.761719-.898438 1.6875-2.628906 2.652344-4.417969 2.652344zm0 0"/><path d="m130.402344 143.792969c-1.792969 0-3.523438-.964844-4.421875-2.65625-1.292969-2.4375-.367188-5.464844 2.070312-6.757813 3.019531-1.605468 7.566407-2.523437 12.484375-2.523437 4.921875 0 9.472656.917969 12.488282 2.523437 2.4375 1.296875 3.363281 4.324219 2.066406 6.761719-1.296875 2.441406-4.328125 3.363281-6.761719 2.070313-1.269531-.671876-4.164063-1.355469-7.792969-1.355469-3.875 0-6.621094.730469-7.792968 1.355469-.746094.394531-1.550782.582031-2.339844.582031zm0 0"/><path d="m141.347656 163.394531c-3.316406 0-6-2.683593-6-6v-1.105469c0-3.316406 2.683594-6 6-6 3.3125 0 6 2.683594 6 6v1.105469c0 3.316407-2.6875 6-6 6zm0 0"/><path d="m194.484375 164.246094c-3.316406 0-6-2.6875-6-6v-1.109375c0-3.3125 2.683594-6 6-6 3.3125 0 6 2.6875 6 6v1.109375c0 3.3125-2.6875 6-6 6zm0 0"/><path d="m167.914062 213.167969c-8.886718 0-17.167968-4.402344-22.148437-11.773438-1.546875-2.289062-.945313-5.398437 1.34375-6.941406 2.285156-1.546875 5.394531-.945313 6.941406 1.34375 3.121094 4.617187 8.300781 7.371094 13.867188 7.371094 5.558593 0 10.742187-2.753907 13.863281-7.371094 1.546875-2.289063 4.65625-2.890625 6.941406-1.34375 2.289063 1.546875 2.890625 4.652344 1.34375 6.941406-4.984375 7.375-13.265625 11.773438-22.152344 11.773438zm0 0"/><path d="m205.171875 143.792969c-.792969 0-1.59375-.1875-2.34375-.585938-1.265625-.671875-4.164063-1.351562-7.792969-1.351562-3.625 0-6.527344.679687-7.789062 1.351562-2.441406 1.296875-5.46875.371094-6.761719-2.066406-1.296875-2.4375-.375-5.46875 2.0625-6.761719 3.015625-1.605468 7.566406-2.523437 12.488281-2.523437s9.472656.917969 12.488282 2.523437c2.4375 1.292969 3.363281 4.324219 2.066406 6.761719-.898438 1.6875-2.628906 2.652344-4.417969 2.652344zm0 0"/><path d="m130.402344 143.792969c-1.792969 0-3.523438-.964844-4.421875-2.65625-1.292969-2.4375-.367188-5.464844 2.070312-6.757813 3.019531-1.605468 7.566407-2.523437 12.484375-2.523437 4.921875 0 9.472656.917969 12.488282 2.523437 2.4375 1.296875 3.363281 4.324219 2.066406 6.761719-1.296875 2.441406-4.328125 3.363281-6.761719 2.070313-1.269531-.671876-4.164063-1.355469-7.792969-1.355469-3.875 0-6.621094.730469-7.792968 1.355469-.746094.394531-1.550782.582031-2.339844.582031zm0 0"/><path d="m141.347656 163.394531c-3.316406 0-6-2.683593-6-6v-1.105469c0-3.316406 2.683594-6 6-6 3.3125 0 6 2.683594 6 6v1.105469c0 3.316407-2.6875 6-6 6zm0 0"/><path d="m194.484375 164.246094c-3.316406 0-6-2.6875-6-6v-1.109375c0-3.3125 2.683594-6 6-6 3.3125 0 6 2.6875 6 6v1.109375c0 3.3125-2.6875 6-6 6zm0 0"/><path d="m312.121094 511.933594h-293.585938c-4.945312 0-9.730468-2.058594-13.128906-5.652344-3.394531-3.59375-5.1875-8.484375-4.910156-13.421875l9.542968-171.402344c.847657-15.210937 11.34375-27.933593 26.121094-31.652343l39.886719-10.039063c7.582031-1.910156 15.167969-4.195313 22.554687-6.800781l20.476563-10.097656c4.113281-2.027344 6.667969-6.136719 6.667969-10.722657v-16.171875c0-2.007812 1.203125-3.824218 3.054687-4.605468 1.851563-.78125 3.992188-.375 5.433594 1.023437l1.292969 1.261719c7.570312 7.375 17.5625 11.433594 28.128906 11.433594h4.582031c10.5625 0 20.550781-4.058594 28.121094-11.433594 1.441406-1.402344 3.609375-1.832032 5.464844-1.054688 1.851562.785156 3.085937 2.570313 3.085937 4.578125v14.96875c0 4.585938 2.550782 8.691407 6.664063 10.722657l21.503906 10.597656c6.699219 2.269531 13.558594 4.292968 20.402344 6.015625l41.015625 10.324219c14.777344 3.71875 25.269531 16.4375 26.117187 31.648437l9.546875 171.402344c.277344 4.941406-1.515625 9.832031-4.914062 13.425781-3.390625 3.59375-8.175782 5.652344-13.125 5.652344zm-176.375-265.285156v5.496093c0 8.421875-4.695313 15.96875-12.246094 19.691407l-20.742188 10.226562c-.175781.085938-.359374.164062-.542968.230469-7.765625 2.75-15.75 5.160156-23.726563 7.167969l-39.886719 10.039062c-10.507812 2.648438-17.972656 11.691406-18.574218 22.507812l-9.546875 171.40625c-.125 2.238282.652343 4.367188 2.195312 5.992188 1.539063 1.628906 3.621094 2.523438 5.863281 2.523438h293.589844c2.238282 0 4.320313-.894532 5.863282-2.523438 1.539062-1.625 2.316406-3.753906 2.195312-5.992188l-9.546875-171.40625c-.601563-10.816406-8.066406-19.863281-18.574219-22.507812l-41.015625-10.324219c-7.207031-1.8125-14.4375-3.949219-21.492187-6.347656-.203125-.070313-.402344-.152344-.601563-.25l-21.792969-10.746094c-7.550781-3.722656-12.242187-11.265625-12.242187-19.6875v-4.699219c-7.933594 4.976563-17.117187 7.640626-26.679687 7.640626h-4.574219c-10.074219 0-19.71875-2.949219-27.921875-8.4375zm0 0"/><path d="m242.699219 167.601562c-1.097657 0-2.171875-.363281-3.054688-1.042968-1.105469-.851563-1.800781-2.132813-1.925781-3.523438l-4.160156-47.808594c-.121094-1.363281.324218-2.714843 1.230468-3.742187.902344-1.023437 2.191407-1.636719 3.558594-1.6875.0625 0 .203125-.007813.269532-.007813 16.042968 0 29.09375 13.050782 29.09375 29.09375 0 14.203126-10.164063 26.25-24.167969 28.648438-.28125.046875-.5625.070312-.84375.070312zm1.359375-47.023437 3.082031 35.378906c6.351563-3.148437 10.566406-9.664062 10.566406-17.074219 0-8.636718-5.761719-15.953124-13.648437-18.304687zm0 0"/><path d="m168.234375 255.085938h-4.574219c-13.191406 0-25.660156-5.066407-35.109375-14.269532l-30.636719-29.835937c-10.601562-10.324219-15.890624-24.695313-14.519531-39.429688l4.566407-57.933593c.3125-3.953126 2.953124-7.261719 6.71875-8.425782 5.277343-1.625 17.898437-6.558594 21.164062-17.117187.894531-2.894531 3.164062-5.164063 6.070312-6.074219 2.960938-.929688 6.195313-.347656 8.648438 1.566406 13.792969 10.761719 51.28125 34.601563 101.429688 23.558594 2.703124-.597656 5.527343.003906 7.757812 1.640625 2.226562 1.636719 3.640625 4.152344 3.878906 6.90625l4.871094 55.894531c1.367188 14.730469-3.925781 29.09375-14.523438 39.414063l-30.636718 29.839843c-9.449219 9.199219-21.914063 14.265626-35.105469 14.265626zm-70.320313-140.425782-4.554687 57.746094c-1.097656 11.78125 3.105469 23.203125 11.53125 31.410156l30.640625 29.839844c7.570312 7.375 17.558594 11.433594 28.128906 11.433594h4.578125c10.5625 0 20.554688-4.058594 28.125-11.433594l30.636719-29.839844c8.425781-8.207031 12.628906-19.628906 11.539062-31.335937 0-.011719 0-.019531 0-.03125l-4.832031-55.460938c-53.277343 11.542969-93.238281-13.1875-108.621093-25.015625-4.976563 14.242188-20.378907 20.546875-27.171876 22.6875zm0 0"/><path d="m260.570312 133.996094c-1.945312 0-3.742187-1.132813-4.558593-2.945313-3.070313-6.8125-9.851563-11.222656-17.296875-11.261719-.101563.003907-.203125.003907-.296875.003907-1.886719-.046875-3.75-1.152344-4.578125-2.835938-53.347656 11.621094-93.355469-13.148437-108.75-24.984375-4.976563 14.242188-20.375 20.546875-27.175782 22.6875l-.042968.511719c-.191406 2.507813-2.214844 4.480469-4.726563 4.609375l-.417969.019531c-.117187.007813-.234374.007813-.359374.007813-.082032-.003906-.363282-.015625-.445313-.023438-5.960937.003906-11.542969 2.820313-15.199219 7.738282-1.140625 1.539062-3.058594 2.289062-4.941406 1.929687-1.878906-.355469-3.394531-1.753906-3.894531-3.601563-4.195313-15.425781-4.371094-32.914062-.472657-47.972656 4.421876-17.085937 13.429688-29.273437 26.125-35.390625 2.792969-6.472656 12.9375-26.214843 36.324219-36.394531 22.914063-9.964844 51.226563-7.699219 84.15625 6.738281 22.601563 9.910157 39.695313 28.675781 46.902344 51.480469 6.289063 19.90625 7.835937 41.898438 4.601563 65.359375-.304688 2.210937-2.035157 3.949219-4.238282 4.265625-.242187.042969-.480468.058594-.714844.058594zm-19.53125-24.105469c5.851563.492187 11.339844 2.75 15.804688 6.34375 1.121094-17.449219-.703125-33.851563-5.460938-48.90625-6.335937-20.058594-21.421874-36.582031-41.378906-45.335937-30.277344-13.273438-55.894531-15.539063-76.148437-6.726563-23.667969 10.300781-31.628907 32.382813-31.707031 32.605469-.464844 1.335937-1.476563 2.410156-2.78125 2.957031-16.460938 6.933594-29.152344 32.6875-23.703126 64.003906 3.9375-2.703125 8.492188-4.390625 13.335938-4.886719 1.152344-2.242187 3.164062-3.972656 5.679688-4.75 5.277343-1.628906 17.898437-6.558593 21.164062-17.121093.894531-2.890625 3.164062-5.160157 6.070312-6.074219 2.960938-.929688 6.195313-.34375 8.648438 1.570312 13.792969 10.761719 51.28125 34.597657 101.429688 23.558594 3.390624-.753906 6.792968.371094 9.046874 2.761719zm0 0"/><path d="m201.65625 338.855469c-.925781 0-1.859375-.257813-2.695312-.792969l-29.664063-19.023438c-1.207031-.777343-2.027344-2.035156-2.242187-3.453124-.214844-1.421876.1875-2.863282 1.113281-3.964844l39.070312-46.640625c1.480469-1.769531 3.976563-2.292969 6.042969-1.273438l19.792969 9.757813c1.445312.488281 2.902343.9375 4.359375 1.386718l1.550781.484376c1.503906.46875 2.695313 1.621093 3.21875 3.105468s.320313 3.128906-.550781 4.441406l-35.832032 53.746094c-.960937 1.441406-2.546874 2.226563-4.164062 2.226563zm-22.179688-25.167969 20.746094 13.308594 29.421875-44.132813c-.03125-.011719-.058593-.023437-.09375-.03125-.207031-.070312-.40625-.15625-.601562-.25l-16.570313-8.171875zm0 0"/><path d="m129.613281 338.855469c-1.617187 0-3.199219-.785157-4.164062-2.226563l-35.964844-53.953125c-.871094-1.304687-1.078125-2.9375-.5625-4.417969.515625-1.480468 1.695313-2.632812 3.183594-3.113281 2.175781-.703125 4.34375-1.421875 6.496093-2.183593l19.210938-9.472657c2.066406-1.015625 4.5625-.492187 6.042969 1.273438l39.253906 46.855469c.921875 1.101562 1.328125 2.546874 1.109375 3.964843-.214844 1.421875-1.035156 2.679688-2.242188 3.457031l-29.664062 19.023438c-.839844.535156-1.773438.792969-2.699219.792969zm-28.183593-56.285157 29.617187 44.421876 20.746094-13.304688-33.082031-39.492188-15.953126 7.867188c-.175781.085938-.359374.164062-.542968.226562-.261719.097657-.523438.191407-.785156.28125zm0 0"/><path d="m173.019531 388.308594h-15.378906c-5.359375 0-9.71875-4.359375-9.71875-9.722656v-59.675782c0-1.703125.867187-3.289062 2.296875-4.207031l5.421875-3.480469c.90625-.957031 2.148437-1.542968 3.503906-1.542968h12.980469c1.464844 0 2.828125.640624 3.765625 1.710937l4.546875 2.917969c1.433594.917968 2.300781 2.503906 2.300781 4.207031v60.070313c0 5.363281-4.363281 9.722656-9.71875 9.722656zm-15.101562-10h14.820312v-57.0625l-2.445312-1.566406h-9.316407l-3.058593 1.960937zm0 0"/><path d="m171.996094 319.832031c-1.128906 0-2.261719-.378906-3.199219-1.160156-1.1875-.992187-1.796875-2.414063-1.796875-3.84375 0-1.128906.378906-2.261719 1.15625-3.199219 1.769531-2.125 4.984375-2.484375 7.105469-.714844 1.207031 1 1.839843 2.425782 1.839843 3.859376 0 1.09375-.371093 2.1875-1.132812 3.105468l-.125.152344c-.992188 1.1875-2.414062 1.800781-3.847656 1.800781zm0 0"/><path d="m159.238281 319.789062c-1.417969 0-2.828125-.601562-3.816406-1.769531-.007813-.007812-.011719-.015625-.015625-.019531l-39.21875-46.8125c-.984375-1.175781-1.375-2.738281-1.058594-4.238281s1.300782-2.773438 2.675782-3.453125l1.269531-.625c4.117187-2.03125 6.671875-6.136719 6.671875-10.722656v-16.171876c0-2.011718 1.203125-3.828124 3.054687-4.605468 1.855469-.78125 3.992188-.378906 5.433594 1.023437l1.296875 1.261719c7.570312 7.375 17.558594 11.433594 28.128906 11.433594h4.578125c10.5625 0 20.554688-4.058594 28.125-11.433594 1.441407-1.402344 3.605469-1.835938 5.460938-1.054688 1.851562.78125 3.085937 2.566407 3.085937 4.578126v14.964843c0 4.585938 2.554688 8.695313 6.667969 10.722657l1.703125.839843c1.375.679688 2.363281 1.953125 2.679688 3.453125.316406 1.503906-.074219 3.066406-1.058594 4.242188l-38.945313 46.488281c-.949219 1.132813-2.355469 1.789063-3.832031 1.789063h-11.847656c-.34375.070312-.691406.109374-1.039063.109374zm2.238281-10.109374h8.3125l33.644532-40.160157c-5.339844-4.101562-8.523438-10.441406-8.523438-17.375v-4.695312c-7.933594 4.976562-17.117187 7.636719-26.675781 7.636719h-4.578125c-10.066406 0-19.710938-2.949219-27.914062-8.4375v5.496093c0 6.773438-3.035157 12.980469-8.152344 17.085938zm0 0"/></g></svg>