<svg height="511pt" viewBox="-94 0 511 511.89748" width="511pt" xmlns="http://www.w3.org/2000/svg"><path d="m89.074219 286.21875h.011719c4.089843 11.242188 14.117187 19.464844 26.371093 25.085938l2.808594-14.746094c.003906 0 .003906.003906.003906.003906-4.625-2.804688-7.722656-7.871094-7.722656-13.671875 0-2.300781.496094-4.480469 1.367187-6.460937l-13.730468 6.773437c-3.015625 1.070313-6.054688 2.0625-9.109375 3.015625zm0 0" fill="#fcb275"/><path d="m264.449219 244.476562c-26.230469-55.527343 26.230469-127.511718-6.054688-189.210937-32.28125-61.695313-96.84375-49.359375-96.84375-49.359375s-64.566406-12.335938-96.847656 49.359375c-32.28125 61.699219 20.175781 133.683594-6.050781 189.210937-5.605469 11.863282-9.96875 41.476563-1.289063 50.148438l18.113281-4.558594c7.671876-1.929687 15.25-4.222656 22.707032-6.859375l13.730468-6.773437c2.316407-5.238282 7.351563-8.992188 13.320313-9.476563 1.535156-2.539062 2.402344-5.480469 2.402344-8.558593v-16.222657c7.648437 6.867188 16.382812 13.023438 26.28125 17.582031 4.667969 2.148438 10.21875 2.152344 14.894531 0 9.898438-4.554687 18.636719-10.714843 26.285156-17.578124v16.222656c0 6.296875 3.574219 12.046875 9.21875 14.828125l3.5625 1.757812 17.695313 8.726563c6.777343 2.300781 13.644531 4.332031 20.582031 6.078125l20.140625 5.070312c8.945313-9.027343 3.78125-38.472656-1.847656-50.386719zm0 0" fill="#7c292e"/><path d="m230.519531 120.472656c-10.628906-3.066406-26.191406-11.765625-35.140625-36.347656-.601562-1.660156-2.78125-2.007812-3.847656-.605469-6.980469 9.222657-29.300781 33.011719-72.449219 30.5625-11.789062-.667969-20.777343 2.460938-26.917969 6.925781l-2.21875 22.808594c-3.636718 34.183594 7.832032 68.449219 31.96875 92.925782 8.90625 9.03125 19.550782 17.28125 32.003907 23.011718 4.667969 2.152344 10.222656 2.152344 14.898437 0 12.453125-5.734375 23.097656-13.980468 32.003906-23.011718 24.136719-24.476563 35.605469-58.742188 31.96875-92.925782zm0 0" fill="#fcb275"/><path d="m89.945312 143.816406 2.097657-21.566406c-.90625-.085938-1.820313-.136719-2.746094-.136719-15.519531 0-28.097656 12.582031-28.097656 28.097657 0 15.519531 12.578125 28.097656 28.097656 28.097656.707031 0 1.40625-.054688 2.101563-.105469-2.144532-11.21875-2.6875-22.800781-1.453126-34.386719zm0 0" fill="#fcb275"/><path d="m233.800781 122.113281c-1.050781 0-2.082031.066407-3.105469.179688l2.09375 21.523437c1.230469 11.578125.6875 23.15625-1.453124 34.367188.816406.074218 1.632812.125 2.464843.125 15.519531 0 28.097657-12.578125 28.097657-28.097656 0-15.515626-12.578126-28.097657-28.097657-28.097657zm0 0" fill="#fcb275"/><path d="m225.574219 283.710938-17.699219-8.726563-3.558594-1.753906c-5.648437-2.785157-9.222656-8.535157-9.222656-14.832031v-16.222657c-7.648438 6.867188-16.382812 13.023438-26.28125 17.578125-4.675781 2.152344-10.230469 2.152344-14.898438 0-9.894531-4.554687-18.632812-10.710937-26.28125-17.578125v16.222657c0 3.078124-.863281 6.019531-2.398437 8.554687.433594-.035156.871094-.066406 1.3125-.066406.554687 0 1.097656.027343 1.636719.082031 1.613281.164062 3.15625.570312 4.59375 1.175781.957031.402344 1.863281.898438 2.714844 1.476563.855468.574218 1.644531 1.226562 2.371093 1.953125.359375.359375.703125.742187 1.03125 1.136719 1.957031 2.367187 3.242188 5.3125 3.570313 8.539062.054687.539062.082031 1.085938.082031 1.636719 0 .554687-.027344 1.097656-.082031 1.636719-.519532 5.113281-3.457032 9.496093-7.640625 12.039062 0 0 .003906-.003906.003906-.003906l4.210937 22.089844c.613282.117187 1.230469.25 1.847657.359374 12.449219 2.199219 21.660156 12.78125 21.660156 25.421876v-.214844c0-12.523438 9.046875-23.0625 21.355469-25.371094 25.050781-4.691406 44.34375-17.066406 50.050781-32.472656-2.804687-.851563-5.605469-1.71875-8.378906-2.660156zm0 0" fill="#fcb275"/><path d="m233.953125 286.371094.003906.003906zm0 0" fill="#fcb275"/><path d="m317.265625 493.441406-5.851563-105.023437-1.363281-24.519531-2.097656-37.632813c-.703125-12.621094-9.535156-23.320313-21.792969-26.40625l-24.8125-6.246094c-15.359375 29.546875-53.691406 50.636719-98.796875 51.246094-6.453125.082031-12.6875-.238281-18.691406-.917969l1.289063 6.773438c1.039062 5.445312-3.136719 10.488281-8.679688 10.488281-.613281 0-19.414062 0-19.835938 0-5.542968 0-9.71875-5.042969-8.679687-10.488281l2.820313-14.796875c-24.207032-9.382813-41.9375-25.082031-50.828126-41.945313l-23.371093 5.878906c-12.261719 3.089844-21.089844 13.789063-21.792969 26.414063l-3.457031 62.082031-5.855469 105.09375c-.40625 7.304688 5.410156 13.453125 12.730469 13.453125h286.34375c7.3125.003907 13.128906-6.144531 12.722656-13.453125zm0 0" fill="#1b87c9"/><path d="m246.15625 289.789062c-4.097656-1.03125-8.164062-2.191406-12.203125-3.417968-5.707031 15.40625-25 27.777344-50.050781 32.472656-12.308594 2.308594-21.355469 12.847656-21.355469 25.371094v.648437c45.109375-.609375 83.441406-21.699219 98.800781-51.246093zm0 0" fill="#30a9e5"/><path d="m115.457031 311.304688c-12.253906-5.621094-22.28125-13.847657-26.371093-25.089844-4.5 1.40625-9.035157 2.699218-13.609376 3.851562l-15.535156 3.910156c8.894532 16.863282 26.621094 32.5625 50.828125 41.945313zm0 0" fill="#30a9e5"/><path d="m140.886719 319.007812c-.617188-.109374-1.234375-.242187-1.847657-.359374l4.816407 25.296874c6.003906.679688 12.242187 1 18.691406.917969v-.429687c0-12.644532-9.210937-23.230469-21.660156-25.425782zm0 0" fill="#30a9e5"/><path d="m207.878906 274.984375-3.5625-1.753906c-4.085937-2.015625-7.066406-5.597657-8.410156-9.804688-7.117188 6.933594-21.285156 11.464844-34.355469 11.464844-13.238281 0-27.601562-4.644531-34.628906-11.722656-.402344 1.339843-.988281 2.601562-1.707031 3.789062.441406-.035156.882812-.066406 1.335937-.066406 8.835938 0 16 7.164063 16 16 0 5.023437-2.320312 9.5-5.941406 12.433594 7.613281 2.289062 16.027344 3.566406 24.941406 3.566406 22.601563 0 42.058594-8.101563 53.152344-20.542969zm0 0" fill="#e04e36"/><path d="m230.6875 451.320312h-37.621094c-2.179687 0-3.964844-1.78125-3.964844-3.960937v-43.160156c0-2.179688 1.785157-3.964844 3.964844-3.964844h37.621094c2.179688 0 3.960938 1.785156 3.960938 3.964844v43.160156c0 2.175781-1.78125 3.960937-3.960938 3.960937zm0 0" fill="#e8e6e6"/><path d="m230.6875 400.230469h-37.625c-2.179688 0-3.960938 1.785156-3.960938 3.96875v14.277343h45.546876v-14.277343c0-2.183594-1.78125-3.96875-3.960938-3.96875zm0 0" fill="#fc5d4c"/><path d="m222.808594 369.214844c0-6.046875-4.894532-10.949219-10.933594-10.949219-6.035156 0-10.929688 4.902344-10.929688 10.949219s4.894532 10.945312 10.929688 10.945312c6.039062 0 10.933594-4.898437 10.933594-10.945312zm0 0" fill="#fcbd4c"/><path d="m142.546875 282.890625c0 8.835937-7.164063 16-16 16s-16-7.164063-16-16 7.164063-16 16-16 16 7.164063 16 16zm0 0" fill="#fc5d4c"/><path d="m145.144531 350.71875-10.316406-54.160156c-2.417969 1.46875-5.246094 2.332031-8.28125 2.332031s-5.863281-.859375-8.28125-2.332031l-10.316406 54.160156c-1.039063 5.445312 3.136719 10.488281 8.679687 10.488281h19.835938c5.546875 0 9.71875-5.042969 8.679687-10.488281zm0 0" fill="#e04e36"/><g fill="#231f20"><path d="m266.296875 299.859375c-.40625 0-.816406-.046875-1.21875-.148437l-20.140625-5.070313c-7.050781-1.777344-14.109375-3.863281-20.96875-6.195313-.207031-.070312-.40625-.15625-.601562-.25l-21.257813-10.480468c-7.410156-3.652344-12.011719-11.054688-12.011719-19.316406v-5.640626c-6.195312 4.648438-12.621094 8.515626-19.195312 11.542969-5.964844 2.75-13.101563 2.746094-19.074219 0-6.574219-3.027343-13-6.890625-19.191406-11.542969v5.640626c0 3.917968-1.082031 7.773437-3.125 11.148437-.832031 1.371094-2.273438 2.261719-3.871094 2.394531-4.015625.324219-7.519531 2.820313-9.152344 6.511719-.472656 1.074219-1.308593 1.945313-2.363281 2.460937l-13.734375 6.777344c-.175781.085938-.359375.160156-.542969.226563-7.570312 2.679687-15.363281 5.035156-23.152344 6.996093l-18.113281 4.558594c-1.707031.429688-3.511719-.066406-4.753906-1.3125-11.507813-11.496094-4.929687-44.757812.296875-55.824218 11.84375-25.066407 6.644531-54.109376 1.144531-84.859376-6.226562-34.792968-12.664062-70.773437 5-104.53125 31.457031-60.109374 92.945313-53.324218 101.28125-52.097656 8.332031-1.222656 69.820313-8.015625 101.277344 52.101563 17.664063 33.757812 11.226563 69.734375 5 104.53125-5.5 30.75-10.699219 59.792969 1.144531 84.863281 5.015625 10.617188 12.878906 43.933594.875 56.039062-.949218.957032-2.234375 1.476563-3.550781 1.476563zm-38.804687-20.777344c6.511718 2.207031 13.199218 4.175781 19.882812 5.863281l16.84375 4.234376c4.285156-8.820313.925781-31.523438-4.289062-42.566407-13.207032-27.957031-7.480469-59.953125-1.945313-90.890625 5.925781-33.140625 12.058594-67.410156-4.019531-98.136718-30.113282-57.554688-88.988282-47.230469-91.484375-46.765626-.617188.121094-1.253907.121094-1.871094 0-2.476563-.457031-61.363281-10.789062-91.476563 46.765626-16.074218 30.726562-9.945312 64.992187-4.015624 98.132812 5.535156 30.941406 11.261718 62.9375-1.945313 90.890625-4.902344 10.375-8.003906 33.535156-3.734375 42.339844l14.816406-3.734375c7.394532-1.859375 14.789063-4.085938 21.980469-6.625l11.964844-5.898438c2.90625-5.234375 7.898437-8.957031 13.703125-10.273437.480468-1.285157.730468-2.644531.730468-4.019531v-16.222657c0-1.96875 1.160157-3.761719 2.964844-4.5625 1.804688-.808593 3.90625-.472656 5.375.84375 7.941406 7.128907 16.367188 12.769531 25.03125 16.761719 3.359375 1.539062 7.367188 1.539062 10.714844 0 8.664062-3.992188 17.089844-9.628906 25.035156-16.757812 1.46875-1.320313 3.574219-1.648438 5.375-.847657 1.804688.804688 2.964844 2.59375 2.964844 4.566407v16.21875c0 4.425781 2.460938 8.390624 6.433594 10.347656zm0 0"/><path d="m260.585938 507.503906c-2.761719 0-5-2.238281-5-5v-146.390625c0-2.761719 2.238281-5 5-5 2.765624 0 5 2.238281 5 5v146.390625c0 2.761719-2.234376 5-5 5zm0 0"/><path d="m62.144531 507.503906c-2.761719 0-5-2.238281-5-5v-146.390625c0-2.761719 2.238281-5 5-5s5 2.238281 5 5v146.390625c0 2.761719-2.238281 5-5 5zm0 0"/><path d="m161.367188 266.359375c-3.277344 0-6.550782-.6875-9.539063-2.058594-11.867187-5.464843-23.128906-13.554687-33.476563-24.046875-25.0625-25.417968-37.230468-60.761718-33.378906-96.964844l2.214844-22.765624c.136719-1.425782.878906-2.71875 2.035156-3.558594 5.582032-4.058594 15.339844-8.699219 30.144532-7.871094 40.296874 2.28125 61.097656-19.230469 68.175781-28.589844 1.597656-2.105468 4.207031-3.164062 6.8125-2.777344 2.621093.394532 4.8125 2.191407 5.722656 4.6875 8.089844 22.230469 21.773437 30.355469 31.824219 33.253907 1.96875.570312 3.390625 2.285156 3.589844 4.320312l2.273437 23.34375c3.847656 36.160157-8.320313 71.503907-33.386719 96.921875-10.34375 10.492188-21.605468 18.582032-33.472656 24.042969-2.988281 1.375-6.261719 2.0625-9.539062 2.0625zm-64.457032-142.511719-1.988281 20.457032c-3.539063 33.253906 7.601563 65.652343 30.550781 88.929687 9.496094 9.628906 19.769532 17.027344 30.539063 21.984375 3.351562 1.539062 7.359375 1.539062 10.707031 0 10.769531-4.960938 21.042969-12.355469 30.539062-21.984375 22.953126-23.277344 34.09375-55.671875 30.554688-88.886719l-1.957031-20.128906c-11.0625-4.007812-24.585938-13.167969-33.410157-33.898438-10.191406 11.714844-33.316406 31.042969-73.648437 28.761719-10.320313-.597656-17.414063 2.027344-21.886719 4.765625zm0 0"/><path d="m89.296875 183.308594c-18.25 0-33.097656-14.847656-33.097656-33.097656s14.847656-33.097657 33.097656-33.097657c1.050781 0 2.105469.050781 3.230469.160157 2.746094.269531 4.757812 2.710937 4.492187 5.460937l-2.097656 21.566406c-.003906.011719-.003906.027344-.003906.042969-1.164063 10.917969-.695313 21.992188 1.390625 32.917969.265625 1.402343-.078125 2.851562-.945313 3.984375-.871093 1.128906-2.179687 1.835937-3.605469 1.941406-.902343.070312-1.675781.121094-2.460937.121094zm-2.765625-56.03125c-11.4375 1.371094-20.332031 11.128906-20.332031 22.933594 0 11.433593 8.347656 20.953124 19.273437 22.78125-1.375-9.878907-1.542968-19.835938-.5-29.679688zm3.414062 16.539062h.019532zm0 0"/><path d="m233.800781 183.308594c-.976562 0-1.9375-.058594-2.894531-.144532-1.40625-.121093-2.699219-.832031-3.550781-1.960937-.855469-1.125-1.191407-2.5625-.925781-3.957031 2.082031-10.914063 2.546874-21.984375 1.386718-32.898438l-2.097656-21.566406c-.261719-2.722656 1.710938-5.152344 4.425781-5.457031 1.285157-.140625 2.480469-.210938 3.65625-.210938 18.25 0 33.097657 14.847657 33.097657 33.097657s-14.847657 33.097656-33.097657 33.097656zm2.398438-56.074219 1.566406 16.097656c1.042969 9.839844.871094 19.816407-.515625 29.71875 11.109375-1.671875 19.648438-11.277343 19.648438-22.839843 0-11.925782-9.085938-21.769532-20.699219-22.976563zm0 0"/><path d="m162.550781 349.429688c-2.761719 0-5-2.234376-5-5 0-10.085938-7.375-18.707032-17.53125-20.5-.433593-.070313-.875-.160157-1.3125-.25l-.617187-.121094c-2.011719-.390625-3.582032-1.964844-3.964844-3.976563l-4.171875-21.90625c-.46875-2.046875.398437-4.246093 2.28125-5.386719 2.949219-1.792968 4.914063-4.878906 5.257813-8.269531.039062-.371093.058593-.75.058593-1.128906s-.019531-.757813-.058593-1.128906c-.21875-2.160157-1.066407-4.1875-2.453126-5.863281-.222656-.273438-.460937-.535157-.710937-.785157-.503906-.5-1.046875-.957031-1.625-1.34375-.589844-.398437-1.21875-.738281-1.878906-1.023437-.996094-.417969-2.054688-.691406-3.140625-.796875-.667969-.066407-1.355469-.066407-2.023438-.007813-1.867187.148438-3.675781-.746094-4.671875-2.347656-.992187-1.597656-1.003906-3.617188-.027343-5.226562 1.097656-1.8125 1.675781-3.875 1.675781-5.964844v-16.222656c0-1.972657 1.160156-3.761719 2.964843-4.566407 1.800782-.800781 3.902344-.472656 5.375.847657 7.941407 7.128906 16.367188 12.769531 25.035157 16.757812 3.355469 1.542969 7.363281 1.542969 10.710937 0 8.667969-3.988281 17.089844-9.628906 25.035156-16.757812 1.46875-1.320313 3.574219-1.648438 5.375-.847657 1.804688.804688 2.964844 2.59375 2.964844 4.566407v16.222656c0 4.425781 2.460938 8.390625 6.433594 10.34375l20.957031 10.335937c2.691407.90625 5.390625 1.742188 7.914063 2.507813 1.320312.398437 2.414062 1.328125 3.027344 2.5625.613281 1.234375.691406 2.664062.210937 3.957031-6.277344 16.945313-26.898437 30.605469-53.820313 35.648437-10.007812 1.878907-17.273437 10.480469-17.273437 20.460938v.210938c.003906 2.761718-2.234375 5-4.996094 5zm-19.230469-35.03125c8.089844 1.847656 14.859376 6.695312 19.164063 13.210937 4.515625-6.945313 11.804687-12.046875 20.496094-13.679687 20.683593-3.875 36.902343-13.042969 43.9375-24.507813-.972657-.3125-1.960938-.640625-2.953125-.976563-.207032-.070312-.40625-.152343-.601563-.25l-21.257812-10.480468c-7.40625-3.648438-12.007813-11.050782-12.007813-19.3125v-5.640625c-6.195312 4.648437-12.621094 8.515625-19.195312 11.539062-5.96875 2.753907-13.101563 2.75-19.074219.003907-6.574219-3.027344-13-6.894532-19.195313-11.542969v5.640625c0 1.433594-.144531 2.863281-.429687 4.261718.855469.238282 1.695313.53125 2.515625.875 1.261719.539063 2.460938 1.1875 3.578125 1.945313 1.101563.742187 2.144531 1.605469 3.097656 2.558594.476563.472656.925781.96875 1.351563 1.484375 2.652344 3.210937 4.277344 7.09375 4.695312 11.222656.070313.703125.109375 1.414062.109375 2.140625 0 .722656-.039062 1.4375-.109375 2.140625-.539062 5.289062-3.128906 10.199219-7.113281 13.675781zm0 0"/><path d="m233.957031 291.371094c-2.761719 0-5.003906-2.238282-5.003906-5 0-2.761719 2.238281-5 5-5h.003906c2.761719 0 5 2.238281 5 5 0 2.761718-2.238281 5-5 5zm0 0"/><path d="m304.539062 511.898438h-286.34375c-4.859374 0-9.554687-2.023438-12.894531-5.550782-3.335937-3.527344-5.09375-8.332031-4.824219-13.183594l9.308594-167.171874c.832032-14.890626 11.105469-27.339844 25.566406-30.980469l23.371094-5.882813c2.234375-.558594 4.570313.472656 5.644532 2.515625 8.816406 16.71875 26.386718 31.15625 48.207031 39.617188 2.25.875 3.558593 3.226562 3.109375 5.597656l-2.820313 14.796875c-.292969 1.542969.382813 2.644531.8125 3.164062.429688.519532 1.382813 1.390626 2.957031 1.390626h19.832032c1.570312 0 2.527344-.875 2.957031-1.390626.433594-.519531 1.109375-1.621093.8125-3.164062l-1.289063-6.773438c-.296874-1.5625.164063-3.171874 1.242188-4.335937 1.082031-1.164063 2.640625-1.75 4.226562-1.570313 5.902344.664063 11.960938.953126 18.070313.886719 42.328125-.574219 79.390625-19.628906 94.421875-48.554687 1.070312-2.054688 3.40625-3.101563 5.660156-2.542969l24.8125 6.246094c14.460938 3.640625 24.734375 16.09375 25.566406 30.980469l9.308594 167.175781c.273438 4.847656-1.488281 9.648437-4.824218 13.179687-3.335938 3.527344-8.035157 5.550782-12.890626 5.550782zm-247.074218-212.144532-19.671875 4.957032c-10.195313 2.566406-17.4375 11.34375-18.023438 21.839843l-9.308593 167.171875c-.121094 2.148438.625 4.191406 2.105468 5.753906 1.480469 1.5625 3.476563 2.421876 5.628906 2.421876h286.34375c2.152344 0 4.148438-.859376 5.625-2.421876 1.480469-1.5625 2.226563-3.605468 2.109376-5.753906l-9.3125-167.175781c-.582032-10.492187-7.828126-19.269531-18.023438-21.835937l-21.082031-5.308594c-17.75 30.1875-56.957031 49.859375-101.238281 50.460937-4.222657.039063-8.4375-.0625-12.609376-.34375l.050782.265625c.773437 4.0625-.292969 8.21875-2.933594 11.410156-2.636719 3.1875-6.523438 5.015626-10.660156 5.015626h-19.835938c-4.136718 0-8.019531-1.828126-10.65625-5.015626-2.640625-3.191406-3.707031-7.347656-2.933594-11.410156l2.050782-10.777344c-20.800782-8.882812-37.828125-22.917968-47.625-39.253906zm0 0"/><path d="m211.875 405.230469c-2.761719 0-5-2.238281-5-5v-20.070313c0-2.761718 2.238281-5 5-5s5 2.238282 5 5v20.070313c0 2.761719-2.238281 5-5 5zm0 0"/><path d="m160.867188 221.859375c-8.871094 0-17.132813-4.390625-22.105469-11.75-1.546875-2.289063-.945313-5.398437 1.34375-6.945313 2.289062-1.542968 5.398437-.941406 6.941406 1.34375 3.109375 4.605469 8.277344 7.351563 13.820313 7.351563 5.542968 0 10.707031-2.746094 13.820312-7.351563 1.542969-2.285156 4.65625-2.886718 6.941406-1.34375 2.289063 1.546876 2.890625 4.65625 1.34375 6.945313-4.972656 7.359375-13.234375 11.75-22.105468 11.75zm0 0"/><path d="m135.207031 172.210938c-3.316406 0-6-2.683594-6-6v-1.105469c0-3.3125 2.683594-6 6-6 3.3125 0 6 2.6875 6 6v1.105469c0 3.316406-2.6875 6-6 6zm0 0"/><path d="m188.214844 173.058594c-3.316406 0-6-2.683594-6-6v-1.105469c0-3.316406 2.683594-6 6-6 3.3125 0 6 2.683594 6 6v1.105469c0 3.316406-2.6875 6-6 6zm0 0"/><path d="m178.078125 152.679688c-1.789063 0-3.519531-.960938-4.417969-2.648438-1.296875-2.441406-.375-5.46875 2.0625-6.765625 3.027344-1.609375 7.597656-2.535156 12.546875-2.535156 4.945313 0 9.519531.925781 12.542969 2.535156 2.4375 1.296875 3.367188 4.324219 2.066406 6.761719-1.296875 2.4375-4.328125 3.363281-6.761718 2.066406-1.179688-.625-3.945313-1.363281-7.847657-1.363281-3.90625 0-6.667969.734375-7.851562 1.363281-.742188.398438-1.546875.585938-2.339844.585938zm0 0"/><path d="m143.65625 152.679688c-.792969 0-1.597656-.1875-2.347656-.585938-1.179688-.628906-3.941406-1.363281-7.847656-1.363281-3.902344 0-6.667969.734375-7.847657 1.363281-2.4375 1.292969-5.46875.371094-6.761719-2.066406-1.296874-2.4375-.375-5.464844 2.0625-6.761719 3.03125-1.609375 7.601563-2.535156 12.546876-2.535156 4.949218 0 9.519531.925781 12.542968 2.535156 2.441406 1.296875 3.363282 4.324219 2.066406 6.765625-.898437 1.6875-2.625 2.648438-4.414062 2.648438zm0 0"/><path d="m160.867188 221.859375c-8.871094 0-17.132813-4.390625-22.105469-11.75-1.546875-2.289063-.945313-5.398437 1.34375-6.945313 2.289062-1.542968 5.398437-.941406 6.941406 1.34375 3.109375 4.605469 8.277344 7.351563 13.820313 7.351563 5.542968 0 10.707031-2.746094 13.820312-7.351563 1.542969-2.285156 4.65625-2.886718 6.941406-1.34375 2.289063 1.546876 2.890625 4.65625 1.34375 6.945313-4.972656 7.359375-13.234375 11.75-22.105468 11.75zm0 0"/><path d="m135.207031 172.210938c-3.316406 0-6-2.683594-6-6v-1.105469c0-3.3125 2.683594-6 6-6 3.3125 0 6 2.6875 6 6v1.105469c0 3.316406-2.6875 6-6 6zm0 0"/><path d="m188.214844 173.058594c-3.316406 0-6-2.683594-6-6v-1.105469c0-3.316406 2.683594-6 6-6 3.3125 0 6 2.683594 6 6v1.105469c0 3.316406-2.6875 6-6 6zm0 0"/><path d="m178.078125 152.679688c-1.789063 0-3.519531-.960938-4.417969-2.648438-1.296875-2.441406-.375-5.46875 2.0625-6.765625 3.027344-1.609375 7.597656-2.535156 12.546875-2.535156 4.945313 0 9.519531.925781 12.542969 2.535156 2.4375 1.296875 3.367188 4.324219 2.066406 6.761719-1.296875 2.4375-4.328125 3.363281-6.761718 2.066406-1.179688-.625-3.945313-1.363281-7.847657-1.363281-3.90625 0-6.667969.734375-7.851562 1.363281-.742188.398438-1.546875.585938-2.339844.585938zm0 0"/><path d="m143.65625 152.679688c-.792969 0-1.597656-.1875-2.347656-.585938-1.179688-.628906-3.941406-1.363281-7.847656-1.363281-3.902344 0-6.667969.734375-7.847657 1.363281-2.4375 1.292969-5.46875.371094-6.761719-2.066406-1.296874-2.4375-.375-5.464844 2.0625-6.761719 3.03125-1.609375 7.601563-2.535156 12.546876-2.535156 4.949218 0 9.519531.925781 12.542968 2.535156 2.441406 1.296875 3.363282 4.324219 2.066406 6.765625-.898437 1.6875-2.625 2.648438-4.414062 2.648438zm0 0"/><path d="m162.550781 349.859375c-1.316406 0-2.578125-.519531-3.511719-1.441406-.957031-.941407-1.488281-2.21875-1.488281-3.558594v-.644531c0-14.789063 10.695313-27.523438 25.433594-30.285156 23.484375-4.402344 41.214844-15.628907 46.28125-29.296876.917969-2.480468 3.617187-3.8125 6.136719-3.046874 4.460937 1.355468 8.378906 2.453124 11.972656 3.355468l15.191406 3.820313c1.484375.375 2.714844 1.40625 3.339844 2.800781.628906 1.394531.582031 3-.121094 4.355469-16.710937 32.148437-57.207031 53.320312-103.167968 53.945312-.023438-.003906-.046876-.003906-.066407-.003906zm74.15625-57.457031c-7.9375 14.9375-27.277343 26.746094-51.882812 31.355468-8.453125 1.585938-14.945313 7.964844-16.761719 15.917969 37.253906-1.949219 69.742188-18.253906 85.628906-42.835937l-8.757812-2.199219c-2.566406-.648437-5.285156-1.386719-8.226563-2.238281zm0 0"/><path d="m110.769531 340.921875c-.613281 0-1.222656-.113281-1.804687-.339844-24.042969-9.316406-43.519532-25.453125-53.441406-44.273437-.71875-1.359375-.773438-2.96875-.144532-4.371094.621094-1.398438 1.855469-2.4375 3.34375-2.8125l15.535156-3.910156c4.265626-1.070313 8.753907-2.339844 13.339844-3.773438 2.558594-.800781 5.277344.554688 6.191406 3.0625 4.097657 11.269532 15.179688 18.320313 23.753907 22.253906 2.09375.957032 3.257812 3.21875 2.828125 5.480469l-4.6875 24.617188c-.277344 1.457031-1.191406 2.714843-2.484375 3.4375-.753907.417969-1.589844.628906-2.429688.628906zm-43.105469-43.730469c8.589844 12.941406 22.480469 24.15625 39.347657 31.738282l2.816406-14.804688c-11.035156-5.714844-19.054687-13.164062-23.53125-21.835938-3.28125.964844-6.496094 1.847657-9.601563 2.625zm0 0"/><path d="m160.566406 349.875c-5.816406 0-11.617187-.324219-17.269531-.960938-2.179687-.246093-3.941406-1.878906-4.351563-4.035156l-4.820312-25.296875c-.308594-1.625.207031-3.300781 1.378906-4.472656 1.175782-1.167969 2.859375-1.683594 4.480469-1.371094l.691406.136719c.355469.070312.710938.140625 1.066407.207031h.011718c14.949219 2.636719 25.792969 15.402344 25.792969 30.351563v.429687c0 2.734375-2.199219 4.960938-4.933594 5-.679687.003907-1.367187.011719-2.046875.011719zm-12.496094-10.535156c2.957032.253906 5.953126.417968 8.957032.492187-1.433594-6.214843-5.714844-11.445312-11.5625-14.183593zm0 0"/><path d="m161.550781 303.890625c-9.164062 0-18.039062-1.269531-26.378906-3.777344-1.777344-.535156-3.109375-2.003906-3.46875-3.820312-.355469-1.820313.320313-3.6875 1.761719-4.851563 2.597656-2.109375 4.085937-5.222656 4.085937-8.550781 0-6.066406-4.933593-11-11-11-.308593 0-.613281.023437-.917969.046875-1.835937.15625-3.675781-.746094-4.664062-2.347656-.992188-1.597656-1.003906-3.613282-.03125-5.222656.527344-.875.933594-1.765626 1.199219-2.648438.511719-1.683594 1.871093-2.976562 3.578125-3.402344 1.707031-.421875 3.515625.078125 4.753906 1.328125 5.898438 5.9375 18.96875 10.246094 31.082031 10.246094 11.910157 0 24.890625-4.226563 30.867188-10.046875 1.242187-1.207031 3.023437-1.6875 4.699219-1.269531 1.683593.421875 3.027343 1.679687 3.550781 3.328125.957031 2.984375 3.09375 5.476562 5.867187 6.84375l3.558594 1.753906 6.820312 3.367188c1.402344.691406 2.398438 1.996093 2.699219 3.527343.300781 1.535157-.136719 3.117188-1.175781 4.285157-12.40625 13.90625-33.671875 22.210937-56.886719 22.210937zm-16.238281-11.554687c5.238281 1.035156 10.671875 1.554687 16.238281 1.554687 17.558594 0 33.683594-5.222656 44.558594-14.207031l-4-1.96875c-3.136719-1.546875-5.835937-3.855469-7.875-6.664063-8.429687 5.417969-20.71875 8.839844-32.6875 8.839844-4.886719 0-9.816406-.566406-14.507813-1.597656.332032 1.476562.507813 3.019531.507813 4.597656.003906 3.332031-.777344 6.554687-2.234375 9.445313zm0 0"/><path d="m230.6875 456.320312h-37.621094c-4.945312 0-8.964844-4.019531-8.964844-8.960937v-43.160156c0-4.945313 4.023438-8.964844 8.964844-8.964844h37.621094c4.945312 0 8.964844 4.019531 8.964844 8.964844v43.160156c0 4.941406-4.023438 8.960937-8.964844 8.960937zm-36.585938-10h35.546876v-41.089843h-35.546876zm0 0"/><path d="m234.652344 423.476562h-45.550782c-2.761718 0-5-2.238281-5-5v-14.277343c0-4.945313 4.023438-8.96875 8.960938-8.96875h37.625c4.941406 0 8.960938 4.023437 8.960938 8.96875v14.277343c.003906 2.761719-2.238282 5-4.996094 5zm-40.550782-10h35.546876v-8.246093h-35.546876zm36.585938-8.246093h.019531zm0 0"/><path d="m211.875 385.160156c-8.785156 0-15.929688-7.152344-15.929688-15.945312 0-8.796875 7.144532-15.949219 15.929688-15.949219s15.933594 7.152344 15.933594 15.949219c0 8.792968-7.148438 15.945312-15.933594 15.945312zm0-21.894531c-3.269531 0-5.929688 2.667969-5.929688 5.949219s2.660157 5.949218 5.929688 5.949218c3.273438 0 5.933594-2.667968 5.933594-5.949218s-2.660156-5.949219-5.933594-5.949219zm0 0"/><path d="m126.550781 303.890625c-11.582031 0-21-9.421875-21-21 0-11.582031 9.417969-21 21-21 11.578125 0 21 9.417969 21 21 0 11.578125-9.421875 21-21 21zm0-32c-6.066406 0-11 4.933594-11 11 0 6.0625 4.933594 11 11 11 6.0625 0 11-4.9375 11-11 0-6.066406-4.9375-11-11-11zm0 0"/><path d="m136.464844 366.207031h-19.832032c-4.136718 0-8.023437-1.828125-10.660156-5.015625-2.636718-3.1875-3.707031-7.347656-2.933594-11.410156l10.316407-54.15625c.304687-1.613281 1.378906-2.96875 2.878906-3.632812 1.496094-.667969 3.226563-.558594 4.625.292968 3.453125 2.097656 7.917969 2.097656 11.375 0 1.398437-.851562 3.128906-.960937 4.625-.292968 1.5.664062 2.574219 2.023437 2.878906 3.632812l10.316407 54.15625c.773437 4.0625-.292969 8.222656-2.933594 11.410156-2.632813 3.1875-6.519532 5.015625-10.65625 5.015625zm-14.410156-62.808593-9.191407 48.253906c-.292969 1.542968.382813 2.644531.8125 3.164062.429688.519532 1.382813 1.390625 2.957031 1.390625h19.832032c1.570312 0 2.527344-.871093 2.957031-1.390625.433594-.515625 1.109375-1.621094.8125-3.164062l-9.191406-48.253906c-2.941407.652343-6.046875.652343-8.988281 0zm0 0"/></g></svg>