<svg height="511pt" viewBox="-59 0 511 511.992" width="511pt" xmlns="http://www.w3.org/2000/svg"><path d="m101.546875 43.433594c-53.046875 0-96.050781 184.636718-96.050781 412.398437 0 12.816407.136718 25.496094.40625 38.011719.15625 7.300781 6.085937 13.144531 13.390625 13.144531h177.574219c.484374-16.761719.738281-33.832031.738281-51.15625-.003907-227.761719-43.007813-412.398437-96.058594-412.398437zm0 0" fill="#e8e6e6"/><path d="m22.101562 224.003906 172.917969 136.523438c-.933593-16.929688-2.113281-33.449219-3.511719-49.5l-162.003906-127.90625c-2.660156 12.933594-5.132812 26.582031-7.402344 40.882812zm0 0" fill="#fcbd4c"/><path d="m29.503906 183.121094 162.003906 127.90625c-1.539062-17.597656-3.347656-34.628906-5.402343-50.988282l-147.335938-116.328124c-3.292969 12.21875-6.386719 25.398437-9.265625 39.410156zm0 0" fill="#e04e36"/><path d="m306.964844 123.226562v59.589844c14.683594-2.003906 26.007812-14.5625 26.007812-29.792968 0-15.234376-11.328125-27.792969-26.007812-29.796876zm0 0" fill="#fcb275"/><path d="m301.226562 114.507812c-10.464843-3.652343-24.46875-12.796874-32.769531-35.605468-.605469-1.660156-2.8125-1.972656-3.871093-.566406-6.945313 9.230468-9.246094 29.570312-51.554688 37.628906-23.183594 4.417968-39.761719 15.515625-48.441406 28.730468 7.597656 28.402344 14.144531 61.851563 19.359375 99.125 10.585937 7.75 23.636719 12.332032 37.761719 12.332032h21.230468c35.359375 0 64.023438-28.664063 64.023438-64.023438v-69.644531c0-3.621094-2.324219-6.785156-5.738282-7.976563zm0 0" fill="#fcb275"/><path d="m267.113281 15.539062c-7.675781-6.507812-19.78125-10.546874-33.90625-10.546874-52.480469 0-83.769531 30.527343-94.675781 70.136718 9.570312 17.15625 18.351562 40.761719 26.058594 69.566406 8.679687-13.214843 25.257812-24.3125 48.441406-28.730468 42.296875-8.054688 44.609375-28.386719 51.546875-37.621094 1.0625-1.410156 3.277344-1.09375 3.878906.566406 8.304688 22.804688 22.304688 31.945313 32.765625 35.597656 3.417969 1.191407 5.738282 4.359376 5.738282 7.976563v.742187c12.605468 1.722657 22.714843 11.226563 25.328124 23.519532v-38.136719c0-63.261719-24.429687-93.527344-65.175781-93.070313zm0 0" fill="#7c292e"/><path d="m332.289062 178.230469v-18.933594c-2.613281 12.292969-12.722656 21.800781-25.324218 23.519531v9.3125c0 12.847656-3.816406 24.785156-10.332032 34.808594l1-.339844c20.722657-7.039062 34.65625-26.484375 34.65625-48.367187zm0 0" fill="#7c292e"/><path d="m389.449219 493.535156-9.3125-167.171875c-.703125-12.625-9.535157-23.324219-21.792969-26.410156l-40.003906-10.070313c-6.941406-1.746093-13.808594-3.773437-20.582032-6.078124l-17.699218-8.726563-3.558594-1.753906c-5.644531-2.785157-9.222656-8.535157-9.222656-14.832031v-7.140626c-6.375 2.625-13.265625 4.246094-20.480469 4.675782-4.46875.941406-9.039063 1.417968-13.609375 1.390625-.101562 0-.203125.011719-.304688.011719-3.855468 0-7.636718-.414063-11.332031-1.132813-.09375-.019531-.1875-.035156-.28125-.054687-.167969-.035157-.328125-.078126-.496093-.113282-7.347657-.105468-14.402344-1.433594-20.953126-3.820312v6.183594c0 6.296874-3.578124 12.046874-9.222656 14.832031l-2.625 1.292969-.117187.058593c.871093 7.617188 1.683593 15.367188 2.445312 23.238281.003907.023438.003907.042969.007813.0625 1.542968 15.976563 2.855468 32.460938 3.925781 49.378907.027344.367187.046875.738281.070313 1.105469 2.148437 34.238281 3.296874 70.226562 3.296874 107.375 0 17.320312-.25 34.394531-.734374 51.15625h179.851562c7.320312 0 13.136719-6.148438 12.730469-13.457032zm0 0" fill="#fcb275"/><path d="m302.507812 373.519531c-2.140624-2.960937-5.5-4.558593-8.929687-4.558593-1.925781 0-3.871094.503906-5.632813 1.554687-15.851562 9.464844-34.03125 14.464844-52.5625 14.464844-13.664062 0-27.078124-2.714844-39.539062-7.925781 1.148438 25.503906 1.757812 51.832031 1.757812 78.777343 0 17.324219-.25 34.394531-.734374 51.15625h135.902343v-105.675781c-11.703125-7.058594-22.058593-16.441406-30.261719-27.792969zm0 0" fill="#fc5d4c"/><path d="m290.675781 394.078125c-17.125 8.472656-36.050781 12.917969-55.292969 12.917969-13.210937 0-26.234374-2.097656-38.636718-6.140625.558594 17.988281.855468 36.335937.855468 54.976562 0 17.324219-.253906 34.394531-.738281 51.15625h135.90625v-80.730469c-16.015625-7.542968-30.4375-18.457031-42.09375-32.179687zm0 0" fill="#e04e36"/><g fill="#231f20"><path d="m233.675781 219.339844c-6.261719 0-11.960937-2.214844-15.644531-6.070313-1.910156-2-1.835938-5.164062.160156-7.070312 1.996094-1.910157 5.160156-1.835938 7.070313.160156 1.753906 1.835937 4.976562 2.980469 8.414062 2.980469 3.433594 0 6.65625-1.140625 8.410157-2.980469 1.90625-1.996094 5.070312-2.070313 7.066406-.164063 2 1.90625 2.070312 5.074219.164062 7.070313-3.683594 3.859375-9.382812 6.074219-15.640625 6.074219zm0 0"/><path d="m270.917969 147.410156c-.792969 0-1.597657-.1875-2.347657-.585937-1.261718-.671875-4.15625-1.351563-7.785156-1.351563s-6.523437.679688-7.785156 1.351563c-2.4375 1.296875-5.464844.375-6.765625-2.0625-1.292969-2.441407-.371094-5.464844 2.066406-6.765625 3.011719-1.601563 7.5625-2.523438 12.484375-2.523438s9.472656.921875 12.484375 2.523438c2.4375 1.300781 3.359375 4.328125 2.0625 6.765625-.898437 1.6875-2.625 2.648437-4.414062 2.648437zm0 0"/><path d="m216.441406 147.410156c-.792968 0-1.597656-.1875-2.347656-.585937-1.261719-.671875-4.15625-1.351563-7.785156-1.351563s-6.523438.679688-7.785156 1.351563c-2.441407 1.296875-5.464844.375-6.765626-2.0625-1.296874-2.441407-.375-5.464844 2.0625-6.765625 3.015626-1.601563 7.5625-2.523438 12.484376-2.523438 4.921874 0 9.472656.921875 12.484374 2.523438 2.4375 1.300781 3.363282 4.328125 2.066407 6.765625-.898438 1.6875-2.625 2.648437-4.414063 2.648437zm0 0"/><path d="m207.117188 167.007812c-3.316407 0-6-2.6875-6-6v-1.109374c0-3.3125 2.683593-6 6-6 3.3125 0 6 2.6875 6 6v1.109374c0 3.3125-2.6875 6-6 6zm0 0"/><path d="m260.230469 167.859375c-3.3125 0-6-2.6875-6-6v-1.109375c0-3.3125 2.6875-6 6-6 3.316406 0 6 2.6875 6 6v1.109375c0 3.3125-2.683594 6-6 6zm0 0"/><path d="m332.769531 509.253906c-2.761719 0-5-2.238281-5-5v-108.28125c0-2.761718 2.238281-5 5-5s5 2.238282 5 5v108.28125c0 2.761719-2.238281 5-5 5zm0 0"/><path d="m306.964844 187.816406c-1.203125 0-2.371094-.433594-3.289063-1.234375-1.085937-.949219-1.710937-2.320312-1.710937-3.765625v-59.589844c0-1.441406.625-2.816406 1.710937-3.765624 1.085938-.949219 2.539063-1.386719 3.960938-1.1875 17.292969 2.359374 30.332031 17.296874 30.332031 34.75 0 17.449218-13.039062 32.386718-30.332031 34.746093-.222657.03125-.449219.046875-.671875.046875zm5-58.164062v46.738281c9.429687-3.679687 16.007812-12.890625 16.007812-23.367187 0-10.480469-6.578125-19.691407-16.007812-23.371094zm0 0"/><path d="m242.9375 261.152344h-21.230469c-14.746093 0-28.824219-4.597656-40.714843-13.296875-1.089844-.796875-1.808594-2.003907-1.996094-3.339844-5.179688-37.027344-11.648438-70.175781-19.234375-98.53125-.371094-1.375-.128907-2.84375.648437-4.035156 10.195313-15.515625 28.546875-26.488281 51.6875-30.898438 32.117188-6.117187 39.222656-19.3125 44.417969-28.949219 1.3125-2.449218 2.558594-4.757812 4.078125-6.773437 1.59375-2.121094 4.226562-3.191406 6.847656-2.804687 2.621094.386718 4.8125 2.179687 5.714844 4.667968 7.65625 21.039063 20.386719 29.335938 29.714844 32.589844 5.4375 1.898438 9.09375 7 9.09375 12.699219v69.644531c0 38.0625-30.964844 69.027344-69.027344 69.027344zm-54.339844-20.167969c9.789063 6.660156 21.195313 10.167969 33.109375 10.167969h21.230469c32.546875 0 59.027344-26.476563 59.027344-59.027344v-69.640625c0-1.449219-.957032-2.757813-2.386719-3.257813-10.535156-3.671874-24.558594-12.453124-33.722656-33.375-.175781.324219-.355469.65625-.539063.996094-5.796875 10.761719-14.554687 27.023438-51.351562 34.03125-19.21875 3.660156-35.089844 12.632813-43.949219 24.761719 7.285156 27.6875 13.535156 59.742187 18.582031 95.34375zm0 0"/><path d="m332.285156 151.746094c-2.332031 0-4.390625-1.628906-4.886718-3.960938-2.191407-10.300781-10.675782-18.179687-21.109376-19.601562-2.476562-.339844-4.324218-2.457032-4.324218-4.957032v-.742187c0-1.449219-.957032-2.757813-2.386719-3.257813-10.535156-3.671874-24.558594-12.453124-33.722656-33.375-.175781.324219-.355469.65625-.539063.996094-5.792968 10.761719-14.550781 27.023438-51.351562 34.03125-20.15625 3.839844-36.628906 13.519532-45.195313 26.5625-1.082031 1.648438-3.03125 2.507813-4.972656 2.191406-1.945313-.3125-3.527344-1.738281-4.035156-3.644531-7.691407-28.726562-16.300781-51.75-25.601563-68.417969-.636718-1.144531-.800781-2.5-.453125-3.761718 12.726563-46.214844 49.921875-73.808594 99.5-73.808594 14.003907 0 26.871094 3.824219 35.664063 10.542969 17.679687.175781 32.320312 5.882812 43.539062 16.976562 16.511719 16.324219 24.878906 43.609375 24.878906 81.09375v38.140625c0 2.554688-1.933593 4.703125-4.476562 4.96875-.175781.015625-.351562.023438-.527344.023438zm-188.382812-77.222656c8.253906 15.261718 15.9375 35.199218 22.886718 59.390624 10.675782-11.273437 26.394532-19.261718 45.304688-22.863281 32.121094-6.117187 39.226562-19.3125 44.417969-28.949219 1.316406-2.445312 2.558593-4.75 4.070312-6.765624 1.601563-2.125 4.242188-3.199219 6.851563-2.808594 2.625.386718 4.816406 2.179687 5.722656 4.667968 7.65625 21.039063 20.386719 29.332032 29.714844 32.585938 4.304687 1.5 7.492187 5.015625 8.632812 9.242188 6.019532 1.527343 11.441406 4.617187 15.785156 8.832031v-19.25c0-34.714844-7.375-59.609375-21.910156-73.984375-9.625-9.519532-22.441406-14.265625-38.207031-14.085938-1.261719-.011718-2.375-.40625-3.292969-1.183594-7.015625-5.949218-18.195312-9.359374-30.671875-9.359374-44.777343 0-77.21875 23.488281-89.304687 64.53125zm0 0"/><path d="m296.632812 231.9375c-1.515624 0-2.980468-.691406-3.949218-1.929688-1.308594-1.683593-1.40625-4.011718-.242188-5.796874 6.230469-9.585938 9.523438-20.679688 9.523438-32.085938v-9.3125c0-2.5 1.847656-4.613281 4.324218-4.953125 10.433594-1.421875 18.917969-9.300781 21.109376-19.605469.539062-2.5 2.863281-4.199218 5.414062-3.933594 2.546875.269532 4.476562 2.414063 4.476562 4.972657v18.933593c0 24.035157-15.292968 45.375-38.046874 53.097657l-1 .339843c-.527344.183594-1.070313.273438-1.609376.273438zm15.332032-45.039062v5.226562c0 8.179688-1.449219 16.21875-4.246094 23.800781 12.058594-8.476562 19.570312-22.421875 19.570312-37.695312v-.042969c-4.230468 4.101562-9.488281 7.140625-15.324218 8.710938zm0 0"/><path d="m376.71875 511.992188h-179.855469c-1.351562 0-2.644531-.546876-3.585937-1.515626s-1.453125-2.277343-1.410156-3.628906c.488281-16.863281.734374-34.027344.734374-51.011718 0-36.238282-1.109374-72.257813-3.289062-107.0625l-.070312-1.101563c-1.050782-16.660156-2.371094-33.21875-3.914063-49.210937-.753906-7.816407-1.574219-15.605469-2.445313-23.21875-.238281-2.097657.871094-4.121094 2.761719-5.050782l2.734375-1.351562c3.972656-1.957032 6.4375-5.921875 6.4375-10.347656v-6.183594c0-1.628906.792969-3.160156 2.132813-4.09375 1.335937-.9375 3.042969-1.160156 4.574219-.601563 6.152343 2.238281 12.652343 3.421875 19.316406 3.519531.308594.003907.621094.039063.925781.097657l.609375.132812c3.683594.714844 7.171875 1.066407 10.503906 1.066407l.253906-.011719c4.269532.039062 8.464844-.40625 12.632813-1.28125.242187-.050781.484375-.085938.730469-.097657 6.519531-.390624 12.871094-1.839843 18.875-4.308593 1.542968-.632813 3.300781-.457031 4.6875.46875 1.382812.929687 2.214844 2.488281 2.214844 4.15625v7.140625c0 4.425781 2.464843 8.390625 6.433593 10.347656l20.964844 10.335938c6.519531 2.207031 13.207031 4.179687 19.878906 5.859374l40.003907 10.066407c14.464843 3.640625 24.738281 16.09375 25.566406 30.984375l9.3125 167.171875c.269531 4.847656-1.488282 9.652343-4.824219 13.179687-3.332031 3.527344-8.03125 5.550782-12.890625 5.550782zm-174.714844-10h174.714844c2.152344 0 4.152344-.859376 5.628906-2.425782 1.476563-1.558594 2.222656-3.605468 2.105469-5.75l-9.308594-167.171875c-.585937-10.5-7.828125-19.273437-18.023437-21.839843l-40.003906-10.070313c-7.042969-1.769531-14.09375-3.855469-20.96875-6.195313-.207032-.070312-.40625-.152343-.601563-.25l-21.257813-10.480468c-7.40625-3.652344-12.011718-11.050782-12.011718-19.316406v-.097657c-4.8125 1.402344-9.769532 2.273438-14.816406 2.601563-4.742188.972656-9.59375 1.457031-14.304688 1.421875.019531.007812-.125.011719-.277344.011719-3.96875 0-8.101562-.410157-12.28125-1.226563l-.421875-.082031c-5.230469-.113282-10.375-.804688-15.367187-2.058594-.203125 7.878906-4.59375 14.90625-11.59375 18.539062.730468 6.550782 1.421875 13.207032 2.058594 19.835938 1.5625 16.164062 2.886718 32.832031 3.949218 49.601562l.070313 1.105469c2.195312 35.011719 3.304687 71.246094 3.304687 107.691407.003906 15.359374-.199218 30.859374-.59375 46.15625zm0 0"/><path d="m295.089844 372.773438c-2.765625 0-5-2.238282-5-5v-84.742188c0-2.761719 2.234375-5 5-5 2.761718 0 5 2.238281 5 5v84.742188c0 2.761718-2.242188 5-5 5zm0 0"/><path d="m332.769531 511.992188h-135.90625c-1.351562 0-2.644531-.546876-3.585937-1.515626s-1.453125-2.277343-1.410156-3.628906c.488281-16.863281.734374-34.027344.734374-51.011718 0-26.296876-.589843-52.726563-1.753906-78.554688-.078125-1.710938.726563-3.339844 2.128906-4.324219 1.402344-.980469 3.210938-1.171875 4.792969-.511719 11.96875 5 24.625 7.539063 37.613281 7.539063 17.632813 0 34.921876-4.757813 50-13.757813 2.480469-1.480468 5.3125-2.265624 8.195313-2.265624 5.128906 0 9.980469 2.480468 12.984375 6.632812 7.710938 10.667969 17.394531 19.566406 28.792969 26.441406 1.5.90625 2.414062 2.53125 2.414062 4.28125v105.675782c0 2.761718-2.238281 5-5 5zm-130.765625-10h125.769532v-97.894532c-11.511719-7.355468-21.367188-16.644531-29.316407-27.648437-1.757812-2.433594-5.351562-3.191407-7.949219-1.640625-16.625 9.925781-35.6875 15.171875-55.125 15.171875-11.722656 0-23.199218-1.875-34.21875-5.582031.957032 23.558593 1.441407 47.550781 1.441407 71.433593-.003907 15.363281-.207031 30.863281-.601563 46.160157zm0 0"/><path d="m332.769531 511.992188h-135.90625c-1.351562 0-2.644531-.546876-3.585937-1.515626s-1.453125-2.277343-1.410156-3.628906c.488281-16.863281.734374-34.027344.734374-51.011718 0-18.234376-.289062-36.683594-.851562-54.824219-.050781-1.628907.695312-3.179688 1.996094-4.15625 1.304687-.980469 2.996094-1.257813 4.550781-.753907 11.996094 3.910157 24.472656 5.890626 37.082031 5.890626 18.335938 0 36.6875-4.285157 53.074219-12.394532 2.0625-1.019531 4.542969-.503906 6.03125 1.242188 10.984375 12.933594 24.960937 23.617187 40.414063 30.894531 1.753906.828125 2.871093 2.585937 2.871093 4.527344v80.730469c0 2.761718-2.238281 5-5 5zm-130.765625-10h125.769532v-72.605469c-14.4375-7.246094-27.589844-17.246094-38.367188-29.167969-16.855469 7.714844-35.449219 11.777344-54.023438 11.777344-11.316406 0-22.53125-1.472656-33.433593-4.386719.433593 16.007813.652343 32.199219.652343 48.226563 0 15.359374-.203124 30.859374-.597656 46.15625zm0 0"/><path d="m196.867188 511.992188h-177.578126c-9.925781 0-18.175781-8.09375-18.386718-18.042969-.269532-12.644531-.40625-25.46875-.40625-38.117188 0-110.527343 10.039062-214.492187 28.265625-292.746093 13.242187-56.867188 36.621093-124.652344 72.785156-124.652344s59.546875 67.785156 72.792969 124.65625c18.222656 78.25 28.261718 182.214844 28.261718 292.746094 0 17.058593-.246093 34.320312-.734374 51.300781-.082032 2.703125-2.296876 4.855469-5 4.855469zm-95.320313-463.558594c-43.972656 0-91.050781 163.703125-91.050781 407.402344 0 12.574218.136718 25.328124.402344 37.902343.101562 4.628907 3.785156 8.253907 8.390624 8.253907h172.710938c.398438-15.3125.601562-30.816407.601562-46.15625 0-243.699219-47.082031-407.402344-91.054687-407.402344zm0 0"/><path d="m195.015625 365.527344c-1.101563 0-2.199219-.367188-3.097656-1.078125l-172.914063-136.523438c-1.417968-1.121093-2.125-2.917969-1.839844-4.707031 2.253907-14.226562 4.757813-28.054688 7.441407-41.105469.347656-1.703125 1.550781-3.097656 3.183593-3.691406 1.632813-.59375 3.453126-.300781 4.8125.773437l162 127.910157c1.082032.851562 1.765626 2.113281 1.882813 3.488281 1.417969 16.210938 2.601563 32.917969 3.523437 49.660156.109376 1.960938-.945312 3.804688-2.691406 4.710938-.722656.375-1.511718.5625-2.300781.5625zm-167.511719-143.632813 161.871094 127.804688c-.753906-12.164063-1.648438-24.25-2.664062-36.085938l-153.90625-121.515625c-1.875 9.609375-3.652344 19.59375-5.300782 29.796875zm0 0"/><path d="m191.507812 316.027344c-1.105468 0-2.199218-.363282-3.101562-1.074219l-162-127.910156c-1.484375-1.167969-2.179688-3.078125-1.800781-4.929688 2.90625-14.128906 6.042969-27.484375 9.335937-39.703125.4375-1.625 1.660156-2.917968 3.253906-3.449218 1.601563-.527344 3.351563-.21875 4.671876.824218l147.335937 116.328125c1.03125.8125 1.699219 2 1.863281 3.296875 2.058594 16.367188 3.882813 33.585938 5.421875 51.183594.171875 1.984375-.851562 3.886719-2.605469 4.835938-.75.398437-1.566406.597656-2.375.597656zm-156.480468-134.917969 150.4375 118.78125c-1.210938-12.726563-2.578125-25.1875-4.070313-37.199219l-139.726562-110.320312c-2.3125 9.0625-4.535157 18.691406-6.640625 28.738281zm0 0"/></g></svg>