<svg height="511pt" viewBox="-58 0 511 511.986" width="511pt" xmlns="http://www.w3.org/2000/svg"><path d="m101.546875 43.425781c-53.050781 0-96.054687 184.636719-96.054687 412.398438 0 12.820312.140624 25.496093.40625 38.015625.15625 7.296875 6.089843 13.144531 13.390624 13.144531h177.574219c.484375-16.765625.738281-33.835937.738281-51.160156-.003906-227.761719-43.007812-412.398438-96.054687-412.398438zm0 0" fill="#e8e6e6"/><path d="m22.097656 223.996094 172.917969 136.523437c-.933594-16.925781-2.109375-33.449219-3.511719-49.496093l-162.003906-127.910157c-2.660156 12.9375-5.132812 26.582031-7.402344 40.882813zm0 0" fill="#fcbd4c"/><path d="m29.5 183.113281 162.003906 127.910157c-1.539062-17.597657-3.34375-34.632813-5.402344-50.992188l-147.335937-116.328125c-3.292969 12.222656-6.386719 25.402344-9.265625 39.410156zm0 0" fill="#e04e36"/><path d="m307.445312 40.425781c-3.074218-1.460937-5.605468-3.832031-7.449218-6.691406-6.054688-9.367187-23.113282-28.726563-60.671875-28.726563-49.542969 0-71.34375 31.707032-91.160157 37.648438-11.5625 3.46875-17.054687-.480469-19.621093-4.375-2.0625-3.132812-6.449219-3.65625-9.375-1.3125-2.796875 2.234375-5.292969 5.238281-7.441407 8.761719 17.660157 7.988281 33.894532 36.511719 47.378907 79.921875 24.964843-2.519532 41.980469-19.089844 50.175781-24.453125 1.316406-.863281 2.964844.453125 2.410156 1.929687l-2.4375 6.507813c-.792968 2.117187.859375 4.355469 3.113282 4.234375 24.40625-1.335938 41.648437-12.652344 48.898437-18.378906 1.570313-1.238282 3.875-.285157 4.109375 1.703124 3.101562 26.179688 33.320312 36.207032 39.941406 38.210938.40625.121094.820313.199219 1.234375.257812l-1.464843-15.699218c.144531 0 .28125-.019532.421874-.019532 6.996094 0 13.265626 3.035157 17.617188 7.84375.003906.003907.007812.003907.011719.003907 19.1875-63.300781-4.90625-82.253907-15.691407-87.367188zm0 0" fill="#7c292e"/><path d="m305.511719 119.945312c-.144531 0-.28125.019532-.421875.023438l4.398437 47.179688c11.234375-1.894532 19.804688-11.644532 19.804688-23.421876-.003907-13.132812-10.648438-23.78125-23.78125-23.78125zm0 0" fill="#fcb275"/><path d="m310.351562 176.425781-3.800781-40.761719c-.414062-.054687-.828125-.132812-1.234375-.257812-6.621094-2.003906-36.839844-12.03125-39.941406-38.210938-.234375-1.988281-2.539062-2.941406-4.109375-1.703124-7.25 5.726562-24.492187 17.042968-48.898437 18.378906-2.253907.121094-3.90625-2.121094-3.113282-4.234375l2.4375-6.507813c.554688-1.476562-1.09375-2.792968-2.414062-1.929687-7.875 5.15625-23.894532 20.660156-47.289063 24.097656l-.707031 7.59375c7.410156 25.300781 13.925781 55.207031 19.320312 88.703125l19.71875 19.207031c8.351563 8.132813 19.546876 12.683594 31.207032 12.683594.234375 0 4.65625 0 4.515625 0 11.65625 0 22.855469-4.550781 31.207031-12.683594l30.238281-29.449219c9.347657-9.101562 14.074219-21.941406 12.863281-34.925781zm0 0" fill="#fcb275"/><path d="m391.308594 493.367188-9.421875-169.171876c-.710938-12.773437-9.648438-23.601562-22.054688-26.726562l-40.484375-10.1875c-7.019531-1.769531-13.96875-3.820312-20.824218-6.152344l-17.910157-8.832031-3.601562-1.773437c-5.714844-2.820313-9.332031-8.636719-9.332031-15.007813v-15.132813l-.429688.414063c-8.351562 8.132813-19.546875 12.683594-31.203125 12.683594.136719 0-4.285156 0-4.519531 0-11.65625 0-22.851563-4.550781-31.203125-12.683594l-.914063-.886719v15.605469c0 6.371094-3.617187 12.1875-9.332031 15.007813l-2.558594 1.261718c.0625.527344.121094 1.058594.179688 1.585938.929687 8.035156 1.792969 16.21875 2.597656 24.539062.003906.019532.003906.042969.007813.0625 1.542968 15.976563 2.855468 32.460938 3.925781 49.375.023437.371094.046875.738282.070312 1.109375 2.144531 34.238281 3.296875 70.226563 3.296875 107.371094 0 17.324219-.253906 34.394531-.738281 51.15625h181.566406c7.410157 0 13.296875-6.21875 12.882813-13.617187zm0 0" fill="#fcb275"/><path d="m301.8125 282.175781c-1.09375-.359375-2.203125-.675781-3.292969-1.046875l-14.246093-7.023437c.019531 1.097656.070312 2.179687.070312 3.285156 0 53.914063-22.742188 97.617187-50.800781 97.617187-16.222657 0-30.65625-14.628906-39.957031-37.375.222656 3.222657.4375 6.460938.644531 9.714844.023437.367188.046875.738282.070312 1.105469 2.144531 34.238281 3.296875 70.226563 3.296875 107.371094 0 17.324219-.253906 34.398437-.738281 51.160156h137.089844v-78.214844c-37.9375-50.179687-32.796875-137.359375-32.136719-146.59375zm0 0" fill="#7dbfa3"/><g fill="#231f20"><path d="m306.550781 140.664062c-.230469 0-.464843-.015624-.699219-.046874-.730468-.101563-1.378906-.242188-1.980468-.421876-31.660156-9.574218-40.347656-28.609374-42.71875-38.367187-9.367188 6.695313-26.027344 15.804687-48.511719 17.035156-2.777344.152344-5.375-1.089843-7.007813-3.316406-.941406-1.277344-1.46875-2.773437-1.566406-4.300781-9.730468 7.25-24.710937 17.386718-44.457031 19.382812-2.359375.242188-4.574219-1.222656-5.277344-3.492187-13.203125-42.503907-29.066406-69.792969-44.667969-76.851563-1.304687-.589844-2.292968-1.710937-2.714843-3.082031-.421875-1.367187-.238281-2.851563.507812-4.078125 2.527344-4.140625 5.414063-7.527344 8.589844-10.066406 2.539063-2.035156 5.855469-2.917969 9.058594-2.40625 3.121093.492187 5.890625 2.269531 7.613281 4.875 2.390625 3.625 7.113281 4.410156 14.011719 2.339844 5.632812-1.691407 11.957031-6.101563 19.277343-11.210938 16.128907-11.25 38.214844-26.65625 73.316407-26.65625 40.457031 0 58.84375 21.691406 64.871093 31.015625 1.417969 2.195313 3.289063 3.882813 5.398438 4.882813 12.253906 5.816406 38.570312 26.554687 18.328125 93.339843-.507813 1.683594-1.863281 2.972657-3.570313 3.402344-1.042968.261719-2.125.175781-3.09375-.214844-.699218-.285156-1.328124-.71875-1.835937-1.285156-2.386719-2.632813-5.441406-4.515625-8.777344-5.476563l.886719 9.535157c.140625 1.519531-.421875 3.023437-1.527344 4.082031-.9375.898438-2.175781 1.382812-3.453125 1.382812zm-43.695312-50.71875c.972656 0 1.949219.1875 2.875.570313 2.519531 1.042969 4.289062 3.375 4.609375 6.089844 2.140625 18.082031 19.824218 27.730469 30.527344 31.957031l-.757813-8.128906c-.128906-1.390625.324219-2.769532 1.257813-3.804688.933593-1.039062 2.257812-1.640625 3.652343-1.660156.113281-.011719.300781-.019531.492188-.019531 5.289062 0 10.433593 1.476562 14.890625 4.183593 14.195312-53.5625-5.597656-69.679687-15.101563-74.1875-3.789062-1.800781-7.074219-4.734374-9.503906-8.492187-15.429687-23.871094-44.632813-26.445313-56.472656-26.445313-31.960938 0-51.71875 13.78125-67.597657 24.855469-8.023437 5.597657-14.957031 10.433594-22.125 12.585938-15.257812 4.578125-22.355468-2.054688-25.234374-6.414063-.179688-.277344-.457032-.445312-.816407-.5-.445312-.070312-.898437.050782-1.257812.335938-1.125.902344-2.214844 1.976562-3.265625 3.214844 16.140625 10.640624 30.773437 36.164062 43.582031 76.054687 16.949219-2.875 29.628906-12.472656 38.234375-18.980469 2.171875-1.644531 4.046875-3.0625 5.699219-4.144531 2.40625-1.574219 5.53125-1.421875 7.769531.367187 2.242188 1.792969 3.074219 4.808594 2.066406 7.5l-1.425781 3.792969c21.078125-1.890625 36.023437-11.421875 43.214844-17.105469 1.355469-1.074218 3.015625-1.625 4.6875-1.625zm0 0"/><path d="m309.484375 172.148438c-1.09375 0-2.167969-.359376-3.046875-1.035157-1.101562-.847656-1.800781-2.117187-1.929688-3.5l-4.398437-47.183593c-.128906-1.386719.328125-2.769532 1.257813-3.804688.933593-1.039062 2.257812-1.640625 3.652343-1.660156.113281-.011719.300781-.019532.492188-.019532 15.871093 0 28.777343 12.914063 28.777343 28.78125 0 14.085938-10.078124 26.007813-23.96875 28.351563-.28125.046875-.558593.070313-.835937.070313zm1.15625-46.492188 3.25 34.871094c6.25-3.09375 10.398437-9.5 10.398437-16.800782 0-8.578124-5.78125-15.832031-13.648437-18.070312zm0 0"/><path d="m236.046875 258.484375h-4.519531c-13.035156 0-25.355469-5.007813-34.695313-14.101563l-19.71875-19.207031c-.769531-.75-1.277343-1.726562-1.445312-2.789062-5.363281-33.296875-11.820313-62.933594-19.1875-88.089844-.175781-.605469-.238281-1.242187-.179688-1.867187l.707031-7.597657c.214844-2.292969 1.972657-4.144531 4.253907-4.480469 17.640625-2.59375 30.84375-12.585937 39.578125-19.195312 2.171875-1.640625 4.046875-3.058594 5.695312-4.140625 2.40625-1.574219 5.53125-1.425781 7.773438.367187 2.242187 1.792969 3.074218 4.808594 2.0625 7.5l-1.421875 3.789063c21.074219-1.886719 36.023437-11.421875 43.214843-17.101563 2.144532-1.695312 5.042969-2.101562 7.566407-1.054687 2.523437 1.042969 4.285156 3.378906 4.605469 6.09375 2.625 22.132813 28.542968 31.628906 36.425781 34.011719.15625.050781.320312.070312.484375.09375 2.292968.324218 4.066406 2.179687 4.28125 4.488281l3.796875 40.761719c1.359375 14.5625-3.875 28.765625-14.347657 38.96875l-30.242187 29.449218c-9.332031 9.09375-21.65625 14.101563-34.6875 14.101563zm-50.769531-39.320313 18.535156 18.054688c7.460938 7.265625 17.304688 11.265625 27.71875 11.265625h4.519531c10.410157 0 20.253907-4 27.710938-11.265625l30.242187-29.449219c8.300782-8.085937 12.445313-19.339843 11.367188-30.878906l-3.476563-37.324219c-10.5-3.484375-35.507812-14.144531-40.789062-37.699218-9.375 6.6875-26.019531 15.769531-48.460938 17-2.777343.152343-5.375-1.089844-7.007812-3.316407-.941407-1.277343-1.46875-2.773437-1.566407-4.300781-8.488281 6.320312-21.144531 14.957031-37.453124 18.308594l-.269532 2.851562c7.253906 24.9375 13.617188 54.109375 18.929688 86.753906zm0 0"/><path d="m333.953125 509.214844c-2.761719 0-5-2.238282-5-5v-109.574219c0-2.761719 2.238281-5 5-5s5 2.238281 5 5v109.574219c0 2.761718-2.238281 5-5 5zm0 0"/><path d="m233.648438 217.113281c-8.792969 0-16.984376-4.355469-21.914063-11.652343-1.546875-2.285157-.945313-5.394532 1.34375-6.941407 2.285156-1.542969 5.398437-.945312 6.941406 1.34375 3.066407 4.539063 8.164063 7.25 13.628907 7.25 5.46875 0 10.566406-2.710937 13.628906-7.25 1.546875-2.289062 4.65625-2.886719 6.945312-1.34375 2.289063 1.546875 2.886719 4.65625 1.34375 6.941407-4.929687 7.296874-13.121094 11.652343-21.917968 11.652343zm0 0"/><path d="m270.425781 148.636719c-.792969 0-1.597656-.1875-2.34375-.585938-1.242187-.660156-4.09375-1.324219-7.660156-1.324219-3.570313 0-6.421875.664063-7.660156 1.324219-2.4375 1.296875-5.464844.375-6.761719-2.066406-1.296875-2.4375-.375-5.464844 2.066406-6.761719 2.980469-1.585937 7.484375-2.496094 12.355469-2.496094 4.867187 0 9.367187.910157 12.351563 2.496094 2.441406 1.296875 3.367187 4.324219 2.070312 6.761719-.898438 1.691406-2.628906 2.652344-4.417969 2.652344zm0 0"/><path d="m196.625 148.636719c-1.789062 0-3.519531-.960938-4.421875-2.652344-1.292969-2.4375-.367187-5.464844 2.070313-6.761719 2.984374-1.585937 7.488281-2.496094 12.355468-2.496094 4.871094 0 9.375.910157 12.355469 2.496094 2.441406 1.296875 3.363281 4.324219 2.066406 6.761719-1.296875 2.441406-4.324219 3.363281-6.761719 2.066406-1.238281-.660156-4.089843-1.324219-7.660156-1.324219-3.566406 0-6.417968.664063-7.660156 1.324219-.746094.398438-1.550781.585938-2.34375.585938zm0 0"/><path d="m207.425781 168c-3.3125 0-6-2.6875-6-6v-1.09375c0-3.3125 2.6875-6 6-6 3.316407 0 6 2.6875 6 6v1.09375c0 3.3125-2.683593 6-6 6zm0 0"/><path d="m259.871094 168.839844c-3.3125 0-6-2.6875-6-6v-1.097656c0-3.3125 2.6875-6 6-6s6 2.6875 6 6v1.097656c0 3.3125-2.683594 6-6 6zm0 0"/><path d="m378.429688 511.984375h-181.566407c-1.351562 0-2.644531-.542969-3.585937-1.515625-.941406-.96875-1.453125-2.277344-1.414063-3.625.488281-16.863281.734375-34.027344.734375-51.015625 0-36.234375-1.105468-72.257813-3.285156-107.058594l-.070312-1.105469c-1.058594-16.71875-2.375-33.273437-3.914063-49.210937-.792969-8.222656-1.664063-16.445313-2.59375-24.507813l-.179687-1.589843c-.242188-2.097657.859374-4.121094 2.753906-5.054688l2.558594-1.261719c4.039062-1.988281 6.542968-6.019531 6.542968-10.523437v-15.605469c0-2.007812 1.207032-3.824218 3.058594-4.605468 1.847656-.78125 3.996094-.375 5.433594 1.027343l.910156.886719c7.457031 7.261719 17.300781 11.265625 27.714844 11.265625h4.519531c10.40625 0 20.253906-4 27.710937-11.265625l.433594-.421875c1.445313-1.398437 3.585938-1.800781 5.429688-1.015625 1.855468.78125 3.054687 2.597656 3.054687 4.605469v15.128906c0 4.5 2.507813 8.535156 6.542969 10.523437l21.214844 10.460938c6.59375 2.234375 13.367187 4.226562 20.128906 5.933594l40.484375 10.1875c14.609375 3.679687 24.984375 16.257812 25.824219 31.300781l9.425781 169.167969c.273437 4.890625-1.503906 9.734375-4.871094 13.292968-3.359375 3.5625-8.097656 5.601563-12.996093 5.601563zm-176.429688-10h176.429688c2.191406 0 4.230468-.875 5.738281-2.46875 1.507812-1.59375 2.269531-3.679687 2.148437-5.871094l-9.421875-169.171875c-.59375-10.648437-7.941406-19.550781-18.285156-22.15625l-40.480469-10.1875c-7.132812-1.792968-14.273437-3.90625-21.214844-6.265625-.210937-.070312-.40625-.15625-.601562-.25l-21.511719-10.605469c-7.476562-3.6875-12.125-11.15625-12.125-19.492187v-4.75c-7.894531 5.023437-17.070312 7.714844-26.628906 7.714844h-4.519531c-9.753906 0-19.109375-2.804688-27.117188-8.027344v5.058594c0 8.113281-4.398437 15.402343-11.523437 19.1875.851562 7.507812 1.652343 15.148437 2.382812 22.726562 1.558594 16.109375 2.882813 32.777344 3.953125 49.601563l.066406 1.109375c2.195313 35.011719 3.304688 71.246093 3.304688 107.6875.003906 15.363281-.195312 30.867187-.59375 46.160156zm0 0"/><path d="m333.953125 511.984375h-137.09375c-1.351563 0-2.640625-.542969-3.585937-1.515625-.941407-.96875-1.449219-2.277344-1.410157-3.625.488281-16.863281.734375-34.027344.734375-51.015625 0-36.234375-1.105468-72.257813-3.285156-107.058594l-.070312-1.105469c-.210938-3.242187-.421876-6.46875-.644532-9.683593-.167968-2.449219 1.464844-4.660157 3.855469-5.214844 2.390625-.550781 4.832031.707031 5.765625 2.976563 8.773438 21.460937 21.976562 34.269531 35.328125 34.269531 24.824219 0 45.796875-42.414063 45.796875-92.621094 0-.628906-.019531-1.25-.035156-1.867187l-.039063-1.328126c-.027343-1.746093.851563-3.378906 2.324219-4.3125 1.472656-.933593 3.324219-1.03125 4.886719-.261718l13.945312 6.875c.484375.160156.972657.308594 1.460938.460937.492187.152344.980469.304688 1.46875.464844 2.183593.710937 3.605469 2.816406 3.441406 5.109375-.6875 9.539062-5.621094 94.605469 31.140625 143.226562.65625.867188 1.011719 1.925782 1.011719 3.015626v78.210937c.003906 2.761719-2.234375 5-4.996094 5zm-131.953125-10h126.953125v-71.554687c-34.753906-47.46875-33.367187-124.710938-32.363281-144.6875-.09375-.039063-.1875-.082032-.277344-.128907l-7.023438-3.460937c-1.308593 55.246094-25.320312 97.859375-55.742187 97.859375-12.421875 0-24.078125-7.171875-33.566406-20.230469 1.738281 31.375 2.617187 63.625 2.617187 96.046875 0 15.359375-.199218 30.863281-.597656 46.15625zm0 0"/><path d="m196.863281 511.984375h-177.578125c-9.925781 0-18.175781-8.089844-18.386718-18.039063-.269532-12.675781-.40625-25.5-.40625-38.121093 0-110.527344 10.039062-214.492188 28.265624-292.746094 13.242188-56.863281 36.625-124.652344 72.789063-124.652344s59.542969 67.789063 72.789063 124.65625c18.226562 78.253907 28.261718 182.21875 28.261718 292.746094 0 17.082031-.246094 34.34375-.738281 51.300781-.078125 2.707032-2.292969 4.855469-4.996094 4.855469zm-95.316406-463.558594c-43.972656 0-91.054687 163.703125-91.054687 407.402344 0 12.546875.136718 25.300781.402343 37.90625.101563 4.628906 3.785157 8.25 8.390625 8.25h172.710938c.398437-15.292969.601562-30.796875.601562-46.15625 0-243.699219-47.078125-407.402344-91.050781-407.402344zm0 0"/><path d="m195.015625 365.519531c-1.101563 0-2.199219-.363281-3.097656-1.074219l-172.914063-136.523437c-1.421875-1.121094-2.125-2.921875-1.839844-4.710937 2.253907-14.222657 4.757813-28.054688 7.4375-41.105469.351563-1.699219 1.554688-3.09375 3.183594-3.691407 1.636719-.589843 3.457032-.300781 4.8125.777344l162.003906 127.90625c1.082032.855469 1.761719 2.117188 1.882813 3.488282 1.417969 16.210937 2.601563 32.921874 3.523437 49.660156.105469 1.960937-.945312 3.804687-2.691406 4.710937-.726562.378907-1.515625.5625-2.300781.5625zm-167.515625-143.628906 161.871094 127.804687c-.753906-12.164062-1.644532-24.253906-2.660156-36.089843l-153.910157-121.511719c-1.875 9.609375-3.652343 19.589844-5.300781 29.796875zm0 0"/><path d="m191.503906 316.023438c-1.101562 0-2.199218-.367188-3.097656-1.078126l-162.003906-127.90625c-1.484375-1.171874-2.179688-3.082031-1.800782-4.929687 2.90625-14.128906 6.046876-27.488281 9.335938-39.707031.4375-1.621094 1.660156-2.917969 3.253906-3.445313 1.59375-.527343 3.351563-.222656 4.671875.824219l147.335938 116.328125c1.03125.8125 1.699219 1.996094 1.863281 3.296875 2.058594 16.367188 3.882812 33.582031 5.421875 51.179688.175781 1.988281-.847656 3.886718-2.605469 4.835937-.746094.402344-1.5625.601563-2.375.601563zm-156.480468-134.917969 150.441406 118.777343c-1.214844-12.722656-2.578125-25.183593-4.070313-37.195312l-139.730469-110.324219c-2.308593 9.066407-4.535156 18.691407-6.640624 28.742188zm0 0"/></g></svg>