<svg height="512pt" viewBox="-90 0 512 512.00375" width="512pt" xmlns="http://www.w3.org/2000/svg"><path d="m90.21875 102.441406v63.140625c0 41.414063 33.882812 83.394531 75.296875 83.394531s75.300781-41.980468 75.300781-83.394531v-63.140625zm0 0" fill="#fcb275"/><path d="m91.074219 177.070312c5.492187 37.34375 36.867187 71.910157 74.445312 71.910157s68.953125-34.566407 74.441407-71.910157zm0 0" fill="#e8e6e6"/><path d="m256.660156 97.984375-9.550781-66.847656c-.453125-3.160157-2.359375-5.941407-5.175781-7.441407-19.957032-10.636718-44.195313-15.46875-59.863282-17.613281-10.25-1.402343-21.015624-1.464843-31.730468 0-15.667969 2.144531-39.90625 6.976563-59.859375 17.613281-2.816407 1.503907-4.726563 4.285157-5.175781 7.445313l-9.550782 66.847656c-.335937 2.351563 1.488282 4.457031 3.863282 4.457031h173.175781c2.378906-.003906 4.203125-2.109374 3.867187-4.460937zm0 0" fill="#7dbfa3"/><path d="m186.636719 46.914062h-11.210938c-.949219 0-1.714843-.765624-1.714843-1.714843v-11.210938c0-.949219-.769532-1.714843-1.71875-1.714843h-11.527344c-.949219 0-1.714844.765624-1.714844 1.714843v11.210938c0 .949219-.769531 1.714843-1.714844 1.714843h-11.214844c-.945312 0-1.714843.769532-1.714843 1.71875v11.527344c0 .949219.769531 1.714844 1.714843 1.714844h11.214844c.945313 0 1.714844.769531 1.714844 1.714844v11.214844c0 .945312.765625 1.714843 1.714844 1.714843h11.527344c.949218 0 1.71875-.769531 1.71875-1.714843v-11.210938c0-.949219.765624-1.714844 1.714843-1.714844h11.210938c.949219 0 1.714843-.769531 1.714843-1.71875v-11.527344c0-.945312-.765624-1.71875-1.714843-1.71875zm0 0" fill="#fc5d4c"/><path d="m327.390625 493.089844-9.625-172.839844c-.726563-13.050781-9.855469-24.117188-22.535156-27.304688l-41.359375-10.410156c-5.378906-1.355468-10.695313-2.925781-15.980469-4.601562l-64.527344 64.527344c-1.898437 1.898437-4.472656 2.960937-7.15625 2.960937-2.683593 0-5.257812-1.0625-7.15625-2.960937l-64.566406-64.566407c-5.636719 1.832031-11.332031 3.480469-17.078125 4.925781l-40.222656 10.125c-12.675782 3.191407-21.804688 14.253907-22.535156 27.304688l-9.625 172.839844c-.421876 7.554687 5.59375 13.914062 13.15625 13.914062h296.054687c7.566406-.003906 13.578125-6.359375 13.15625-13.914062zm0 0" fill="#7dbfa3"/><path d="m166.207031 345.421875c2.683594 0 5.257813-1.0625 7.15625-2.960937l64.527344-64.527344c-1.765625-.5625-3.542969-1.085938-5.296875-1.683594l-10.132812-4.996094-4.367188-2.152344-51.886719 51.886719-51.886719-51.886719-4.367187 2.152344-9.070313 4.472656c-2.125.753907-4.257812 1.472657-6.398437 2.167969l64.570313 64.566407c1.894531 1.894531 4.46875 2.960937 7.152343 2.960937zm0 0" fill="#8bd8b5"/><path d="m240.816406 116.441406v49.140625c0 3.847657-.292968 7.699219-.859375 11.523438 1.101563.128906 2.214844.226562 3.351563.226562 16.855468 0 30.519531-13.664062 30.519531-30.519531 0-17.890625-15.320313-31.839844-33.011719-30.371094zm0 0" fill="#fcb275"/><path d="m90.21875 165.582031v-49.183593c-.820312-.066407-1.652344-.101563-2.492188-.101563-16.855468 0-30.519531 13.664063-30.519531 30.519531 0 16.855469 13.664063 30.519532 30.519531 30.519532 1.140626 0 2.25-.097657 3.351563-.230469-.5625-3.824219-.859375-7.675781-.859375-11.523438zm0 0" fill="#fcb275"/><path d="m218.09375 269.101562-3.796875-1.875c-2.363281-1.402343-6.425781-2.292968-9.945313-7.15625-4.96875-6.878906-2.695312-12.851562-3.269531-21.9375-10.609375 6.804688-22.722656 10.84375-35.5625 10.84375-12.292969 0-23.90625-3.71875-34.183593-10.003906v11.105469c0 3.664063-1.207032 7.128906-3.273438 9.988281-1.601562 2.222656-3.710938 4.085938-6.261719 5.34375l-2.710937 1.335938-4.769532 2.351562 51.886719 51.890625zm0 0" fill="#fcb275"/><path d="m255.726562 101.113281c-.710937.804688-1.753906 1.328125-2.929687 1.328125h-11.980469v14c6.042969-.503906 11.792969.828125 16.765625 3.46875zm0 0" fill="#7c292e"/><path d="m87.726562 116.296875c.839844 0 1.671876.035156 2.496094.101563 0-4.820313 0-9.523438 0-13.957032h-10.601562c-1.175782 0-2.21875-.523437-2.929688-1.328125l-1.78125 18.03125c3.898438-1.8125 8.230469-2.847656 12.816406-2.847656zm0 0" fill="#7c292e"/><g fill="#231f20"><path d="m198.636719 173.839844c-.738281 0-1.480469-.027344-2.226563-.089844-14.945312-1.203125-26.125-14.34375-24.921875-29.289062 1.207031-14.945313 14.359375-26.113282 29.292969-24.917969 14.945312 1.203125 26.125 14.34375 24.917969 29.289062-.582031 7.238281-3.953125 13.820313-9.484375 18.527344-4.960938 4.222656-11.132813 6.480469-17.578125 6.480469zm-.054688-44.386719c-8.859375 0-16.402343 6.832031-17.125 15.816406-.761719 9.449219 6.304688 17.753907 15.757813 18.519531 4.582031.355469 9.023437-1.070312 12.519531-4.042968 3.5-2.976563 5.628906-7.136719 6-11.714844.757813-9.449219-6.308594-17.757812-15.757813-18.519531-.46875-.039063-.933593-.058594-1.394531-.058594zm0 0"/><path d="m133.839844 173.839844c-.730469 0-1.464844-.027344-2.203125-.085938-14.945313-1.207031-26.128907-14.34375-24.921875-29.289062.585937-7.242188 3.953125-13.820313 9.484375-18.527344 5.53125-4.710938 12.566406-6.988281 19.804687-6.394531 14.949219 1.203125 26.128906 14.34375 24.921875 29.289062-1.144531 14.207031-13.074219 25.007813-27.085937 25.007813zm-.046875-44.386719c-4.074219 0-7.976563 1.429687-11.113281 4.097656-3.5 2.976563-5.628907 7.136719-6 11.714844-.757813 9.449219 6.308593 17.757813 15.761718 18.519531 9.4375.75 17.753906-6.304687 18.519532-15.757812.757812-9.449219-6.308594-17.757813-15.757813-18.519532-.472656-.035156-.941406-.054687-1.410156-.054687zm22.152343 18.976563h.019532zm0 0"/><path d="m166.207031 155.96875c-5.21875 0-10.019531-1.621094-13.167969-4.445312-2.054687-1.84375-2.226562-5.007813-.382812-7.0625 1.84375-2.054688 5.007812-2.226563 7.0625-.382813.972656.875 3.253906 1.890625 6.492188 1.890625 3.234374 0 5.519531-1.019531 6.492187-1.890625 2.054687-1.84375 5.214844-1.671875 7.058594.386719 1.84375 2.054687 1.667969 5.21875-.382813 7.058594-3.152344 2.824218-7.953125 4.445312-13.171875 4.445312zm0 0"/><path d="m268.792969 509.167969c-2.761719 0-5-2.234375-5-5v-111.945313c0-2.761718 2.238281-5 5-5s5 2.238282 5 5v111.945313c0 2.765625-2.238281 5-5 5zm0 0"/><path d="m63.621094 509.167969c-2.761719 0-5-2.234375-5-5v-111.945313c0-2.761718 2.238281-5 5-5 2.761718 0 5 2.238282 5 5v111.945313c0 2.765625-2.238282 5-5 5zm0 0"/><path d="m140.265625 154.464844c-3.3125 0-6-2.6875-6-6v-1.117188c0-3.316406 2.6875-6 6-6 3.316406 0 6 2.683594 6 6v1.117188c0 3.3125-2.683594 6-6 6zm0 0"/><path d="m193.851562 155.320312c-3.3125 0-6-2.6875-6-6v-1.117187c0-3.316406 2.6875-6 6-6s6 2.683594 6 6v1.117187c0 3.3125-2.6875 6-6 6zm0 0"/><path d="m171.992188 81.519531h-11.523438c-3.707031 0-6.71875-3.011719-6.71875-6.714843v-7.929688h-7.925781c-3.703125 0-6.714844-3.011719-6.714844-6.714844v-11.527344c0-3.703124 3.011719-6.71875 6.714844-6.71875h7.925781v-7.925781c0-3.703125 3.011719-6.714843 6.71875-6.714843h11.523438c3.707031 0 6.71875 3.011718 6.71875 6.714843v7.925781h7.925781c3.703125 0 6.714843 3.015626 6.714843 6.71875v11.527344c0 3.703125-3.011718 6.714844-6.714843 6.714844h-7.925781v7.929688c0 3.703124-3.011719 6.714843-6.71875 6.714843zm-8.242188-10h4.960938v-7.929687c0-3.703125 3.011718-6.714844 6.714843-6.714844h7.925781v-4.960938h-7.925781c-3.703125 0-6.714843-3.011718-6.714843-6.714843v-7.925781h-4.960938v7.925781c0 3.703125-3.011719 6.714843-6.714844 6.714843h-7.925781v4.960938h7.925781c3.703125 0 6.714844 3.011719 6.714844 6.714844zm22.886719-19.601562h.019531zm0 0"/><path d="m314.234375 512.003906h-296.054687c-4.972657 0-9.785157-2.074218-13.207032-5.6875-3.417968-3.613281-5.21875-8.535156-4.941406-13.503906l9.625-172.839844c.851562-15.320312 11.421875-28.128906 26.304688-31.875l40.222656-10.125c5.558594-1.398437 11.195312-3.023437 16.75-4.832031 1.792968-.582031 3.757812-.109375 5.082031 1.21875l64.570313 64.566406c1.917968 1.914063 5.316406 1.917969 7.242187 0l64.523437-64.527343c1.320313-1.320313 3.269532-1.792969 5.050782-1.230469 5.832031 1.851562 10.960937 3.332031 15.6875 4.519531l41.359375 10.410156c14.878906 3.746094 25.453125 16.554688 26.304687 31.875l9.628906 172.839844c.273438 4.96875-1.527343 9.890625-4.949218 13.503906-3.410156 3.613282-8.226563 5.6875-13.199219 5.6875zm-221.132813-228.421875c-4.816406 1.503907-9.671874 2.878907-14.472656 4.085938l-40.226562 10.125c-10.613282 2.671875-18.152344 11.808593-18.761719 22.734375l-9.625 172.839844c-.125 2.265624.664063 4.425781 2.222656 6.074218 1.5625 1.648438 3.671875 2.558594 5.941407 2.558594h296.054687c2.269531 0 4.378906-.910156 5.941406-2.558594 1.5625-1.648437 2.351563-3.808594 2.226563-6.074218l-9.625-172.839844c-.613282-10.925782-8.152344-20.0625-18.765625-22.734375l-41.359375-10.410157c-4.113282-1.035156-8.511719-2.277343-13.363282-3.777343l-62.386718 62.386719c-2.859375 2.855468-6.65625 4.425781-10.691406 4.425781-4.039063 0-7.835938-1.570313-10.691407-4.425781zm0 0"/><path d="m166.207031 350.421875c-4.039062 0-7.832031-1.570313-10.691406-4.429687l-64.566406-64.5625c-1.230469-1.230469-1.730469-3.011719-1.328125-4.703126.40625-1.691406 1.660156-3.046874 3.3125-3.585937 2.011718-.65625 4.011718-1.328125 6-2.027344l13.175781-6.496093c1.917969-.949219 4.230469-.566407 5.742187.949218l48.355469 48.351563 48.351563-48.351563c1.515625-1.515625 3.828125-1.898437 5.746094-.949218l14.199218 7c1.03125.34375 2.070313.664062 3.109375.988281l1.789063.558593c1.664062.527344 2.933594 1.886719 3.347656 3.582032.414062 1.695312-.089844 3.484375-1.324219 4.71875l-64.527343 64.527344c-2.855469 2.859374-6.652344 4.429687-10.691407 4.429687zm-62.589843-70.46875 58.96875 58.96875c1.921874 1.917969 5.320312 1.917969 7.242187 0l58.96875-58.96875-9.699219-4.785156-49.355468 49.359375c-1.875 1.875-5.195313 1.875-7.070313 0l-49.355469-49.355469zm0 0"/><path d="m243.308594 182.332031c-1.195313 0-2.414063-.082031-3.945313-.261719-1.339843-.160156-2.558593-.855468-3.378906-1.929687-.820313-1.070313-1.171875-2.429687-.976563-3.765625.535157-3.625.804688-7.253906.804688-10.792969v-49.140625c0-2.601562 1.996094-4.769531 4.585938-4.984375 9.863281-.824219 19.695312 2.5625 26.984374 9.269531 7.273438 6.691407 11.441407 16.203126 11.441407 26.085938.003906 19.585938-15.929688 35.519531-35.515625 35.519531zm2.507812-60.871093v44.121093c0 2.199219-.089844 4.417969-.273437 6.65625 13.03125-1.132812 23.285156-12.105469 23.285156-25.421875 0-7.203125-2.917969-13.855468-8.214844-18.730468-4.105469-3.777344-9.324219-6.085938-14.796875-6.625zm0 0"/><path d="m87.726562 182.332031c-19.585937 0-35.519531-15.933593-35.519531-35.519531s15.933594-35.519531 35.519531-35.519531c.980469 0 1.945313.042969 2.902344.121093 2.59375.214844 4.59375 2.382813 4.59375 4.984376v49.183593c0 3.539063.269532 7.167969.804688 10.792969.195312 1.335938-.15625 2.695312-.976563 3.765625-.820312 1.074219-2.039062 1.769531-3.378906 1.929687-.949219.113282-2.390625.261719-3.945313.261719zm-2.507812-60.914062c-12.898438 1.261719-23.011719 12.167969-23.011719 25.394531 0 13.320312 10.257813 24.289062 23.285157 25.421875-.179688-2.234375-.269532-4.457031-.269532-6.652344v-44.164062zm0 0"/><path d="m165.515625 253.976562c-37.597656 0-73.210937-34.171874-79.386719-76.179687-.210937-1.4375.210938-2.894531 1.164063-3.996094.949219-1.097656 2.332031-1.730469 3.78125-1.730469h148.886719c1.453124 0 2.835937.632813 3.785156 1.730469.949218 1.101563 1.375 2.558594 1.164062 3.996094-6.179687 42.007813-41.792968 76.179687-79.394531 76.179687zm-68.421875-71.90625c7.007812 30.789063 33.792969 61.910157 68.421875 61.910157 34.632813 0 61.417969-31.121094 68.425781-61.910157zm0 0"/><path d="m166.207031 325.988281c-1.324219 0-2.597656-.523437-3.535156-1.460937l-51.886719-51.890625c-1.140625-1.140625-1.664062-2.757813-1.398437-4.347657.261719-1.59375 1.273437-2.960937 2.722656-3.671874l7.476563-3.6875c1.738281-.859376 3.226562-2.128907 4.421874-3.789063 1.523438-2.101563 2.328126-4.542969 2.328126-7.0625v-11.101563c0-1.808593.976562-3.476562 2.554687-4.363281s3.507813-.847656 5.054687.097657c10.054688 6.148437 20.679688 9.265624 31.574219 9.265624 11.242188 0 22.609375-3.476562 32.863281-10.054687 1.496094-.957031 3.378907-1.050781 4.957032-.253906 1.582031.800781 2.621094 2.378906 2.734375 4.148437.179687 2.847656.101562 5.390625.035156 7.636719-.152344 5.09375-.246094 8.167969 2.296875 11.6875 1.925781 2.667969 3.945312 3.601563 6.082031 4.589844.800781.375 1.53125.722656 2.171875 1.085937l3.648438 1.796875c1.445312.710938 2.457031 2.082031 2.722656 3.671875.261719 1.589844-.257812 3.207032-1.398438 4.347656l-51.890624 51.890626c-.9375.9375-2.207032 1.464843-3.535157 1.464843zm-43.417969-55.488281 43.417969 43.417969 43.417969-43.417969c-2.574219-1.210938-6.148438-3.105469-9.324219-7.5-4.128906-5.714844-4.351562-11.101562-4.234375-16.308594-9.757812 4.789063-20.175781 7.289063-30.550781 7.289063-10.019531 0-19.800781-2.226563-29.183594-6.632813v2.730469c0 4.632813-1.457031 9.101563-4.21875 12.921875-2.132812 2.949219-4.933593 5.332031-8.105469 6.898438zm0 0"/><path d="m252.796875 107.441406h-173.175781c-2.585938 0-5.035156-1.121094-6.726563-3.070312-1.691406-1.953125-2.453125-4.539063-2.089843-7.09375l9.550781-66.847656c.679687-4.746094 3.585937-8.914063 7.773437-11.148438 20.3125-10.824219 44.675782-15.847656 61.535156-18.15625 10.980469-1.5 22.113282-1.5 33.085938 0 16.863281 2.308594 41.226562 7.332031 61.535156 18.15625 4.191406 2.234375 7.097656 6.402344 7.773438 11.148438l9.550781 66.847656c.367187 2.554687-.394531 5.140625-2.085937 7.09375-1.695313 1.949218-4.144532 3.070312-6.726563 3.070312zm-1.085937-8.75h.019531zm-170.828126-1.25h170.648438l-9.375-65.597656c-.226562-1.601562-1.191406-3-2.578125-3.738281-19.003906-10.128907-42.132813-14.875-58.1875-17.070313-10.074219-1.378906-20.292969-1.378906-30.375 0-16.050781 2.195313-39.179687 6.9375-58.1875 17.070313-1.382813.738281-2.347656 2.136719-2.578125 3.738281zm0 0"/><path d="m165.515625 253.976562c-45.957031 0-80.296875-46.667968-80.296875-88.394531v-63.140625c0-2.761718 2.238281-5 5-5h150.59375c2.761719 0 5 2.238282 5 5v63.140625c.003906 41.726563-34.335938 88.394531-80.296875 88.394531zm-70.296875-146.535156v58.140625c0 44.871094 37.113281 78.398438 70.296875 78.398438 33.1875 0 70.296875-33.527344 70.296875-78.398438v-58.140625zm0 0"/><path d="m257.582031 124.910156c-.800781 0-1.605469-.195312-2.34375-.585937-4.332031-2.300781-9.175781-3.300781-14.007812-2.902344-1.402344.113281-2.773438-.355469-3.800781-1.304687-1.03125-.945313-1.613282-2.28125-1.613282-3.675782v-14c0-2.761718 2.238282-5 5-5h11.515625c1.3125-1.214844 3.195313-1.648437 4.925781-1.089844 1.898438.609376 3.25 2.289063 3.445313 4.269532l1.855469 18.796875c.183594 1.832031-.660156 3.617187-2.1875 4.644531-.84375.5625-1.8125.847656-2.789063.847656zm-11.765625-13.484375c2.023438.144531 4.027344.464844 6 .957031l-.488281-4.941406h-5.511719zm0 0"/><path d="m74.910156 124.144531c-1.019531 0-2.035156-.3125-2.898437-.921875-1.460938-1.039062-2.257813-2.78125-2.082031-4.566406l1.785156-18.035156c.195312-1.980469 1.546875-3.65625 3.441406-4.265625 1.734375-.5625 3.613281-.128907 4.925781 1.085937h10.140625c2.761719 0 5 2.238282 5 5v13.957032c0 1.398437-.585937 2.730468-1.613281 3.675781-1.027344.949219-2.40625 1.414062-3.796875 1.308593-4.308594-.355468-8.738281.414063-12.796875 2.296876-.675781.3125-1.390625.464843-2.105469.464843zm6.175782-16.703125-.449219 4.574219c1.507812-.3125 3.039062-.523437 4.582031-.632813v-3.941406zm0 0"/></g></svg>