<svg height="512pt" viewBox="-96 0 512 512" width="512pt" xmlns="http://www.w3.org/2000/svg"><path d="m237.410156 113.8125h-159.453125c-7.207031 0-13.105469-5.894531-13.105469-13.101562v-3.421876c0-7.207031 5.898438-13.101562 13.105469-13.101562h159.453125c7.207032 0 13.101563 5.894531 13.101563 13.101562v3.421876c0 7.207031-5.894531 13.101562-13.101563 13.101562zm0 0" fill="#515050"/><path d="m87.074219 113.8125c14.515625 11.804688 41.617187 19.75 72.679687 19.75 31.066406 0 58.167969-7.945312 72.683594-19.75zm0 0" fill="#fcbd4c"/><path d="m266.003906 60.253906c-10.921875-21.351562-43.441406-55.253906-106.789062-55.253906-63.351563 0-95.871094 33.902344-106.792969 55.253906-8.613281 16.835938 3.675781 31.023438 12.433594 38.386719v-1.351563c0-7.203124 5.894531-13.101562 13.101562-13.101562h159.453125c7.207032 0 13.101563 5.898438 13.101563 13.101562v3.425782c0 .125-.015625.242187-.019531.367187 8.417968-6.277343 25.210937-21.871093 15.511718-40.828125zm0 0" fill="#3f3f3f"/><path d="m86.6875 185.71875v-47.722656c-.796875-.066406-1.601562-.101563-2.417969-.101563-16.355469 0-29.613281 13.257813-29.613281 29.613281 0 16.355469 13.257812 29.613282 29.613281 29.613282 1.105469 0 2.183594-.09375 3.25-.222656-.542969-3.707032-.832031-7.445313-.832031-11.179688zm0 0" fill="#df9966"/><path d="m232.820312 138.035156v47.683594c0 3.734375-.289062 7.472656-.832031 11.179688 1.070313.128906 2.148438.226562 3.25.226562 16.355469 0 29.613281-13.261719 29.613281-29.613281.003907-17.363281-14.863281-30.902344-32.03125-29.476563zm0 0" fill="#df9966"/><path d="m215.4375 123.613281c-14.8125 6.1875-34.308594 9.953125-55.683594 9.953125-21.320312 0-40.773437-3.746094-55.574218-9.910156-8.675782 2.277344-14.101563 7.289062-17.488282 12.472656v49.589844c0 40.1875 32.878906 80.925781 73.066406 80.925781 40.183594 0 73.0625-40.738281 73.0625-80.925781v-55.714844c-4.238281-.589844-10.648437-2.1875-17.382812-6.390625zm0 0" fill="#df9966"/><path d="m86.6875 185.71875v-47.722656c-.796875-.066406-1.601562-.101563-2.417969-.101563-16.355469 0-29.613281 13.257813-29.613281 29.613281 0 16.355469 13.257812 29.613282 29.613281 29.613282 1.105469 0 2.183594-.09375 3.25-.222656-.542969-3.707032-.832031-7.445313-.832031-11.179688zm0 0" fill="#fcb275"/><path d="m232.820312 138.035156v47.683594c0 3.734375-.289062 7.472656-.832031 11.179688 1.070313.128906 2.148438.226562 3.25.226562 16.355469 0 29.613281-13.261719 29.613281-29.613281.003907-17.363281-14.863281-30.902344-32.03125-29.476563zm0 0" fill="#fcb275"/><path d="m215.4375 123.613281c-14.8125 6.1875-34.308594 9.953125-55.683594 9.953125-21.320312 0-40.773437-3.746094-55.574218-9.910156-8.675782 2.277344-14.101563 7.289062-17.488282 12.472656v49.589844c0 40.1875 32.878906 80.925781 73.066406 80.925781 40.183594 0 73.0625-40.738281 73.0625-80.925781v-55.714844c-4.238281-.589844-10.648437-2.1875-17.382812-6.390625zm0 0" fill="#fcb275"/><path d="m193.527344 262.121094c0 .519531.035156 1.035156.082031 1.546875 1.015625 4.890625 4.1875 9.140625 8.777344 11.402343l3.535156 1.742188 17.566406 8.660156c6.722657 2.289063 13.539063 4.300782 20.425781 6.035156l.847657.214844c.582031-2.777344.929687-5.636718.929687-8.585937 0-4.277344-.636718-8.402344-1.816406-12.292969-.792969-2.617188.003906-5.472656 2.046875-7.289062 7.128906-6.332032 11.621094-15.5625 11.621094-25.84375 0-7.242188-2.246094-13.945313-6.0625-19.492188-1.59375-2.324219-1.570313-5.328125-.164063-7.769531 2.246094-3.910157 3.457032-8.488281 3.238282-13.375-.097657-2.152344-.507813-4.226563-1.144532-6.210938-5.019531 3.910157-11.3125 6.261719-18.167968 6.261719-1.105469 0-2.183594-.097656-3.253907-.226562 0-.003907 0-.007813.003907-.015626-3.554688 24.140626-18.261719 47.0625-38.460938 59.683594v5.554688zm0 0" fill="#7c292e"/><path d="m62.007812 237.710938c0 10.28125 4.492188 19.515624 11.621094 25.84375 2.039063 1.816406 2.839844 4.671874 2.042969 7.289062-1.175781 3.886719-1.816406 8.015625-1.816406 12.292969 0 2.945312.347656 5.800781.933593 8.574219 7.515626-1.902344 14.941407-4.148438 22.253907-6.738282l17.476562-8.617187 2.601563-1.28125c4.527344-2.234375 7.679687-6.398438 8.734375-11.207031.0625-.578126.125-1.15625.125-1.746094v-5.554688c-20.199219-12.621094-34.90625-35.542968-38.460938-59.683594v.015626c-1.066406.128906-2.144531.226562-3.25.226562-6.839843 0-13.121093-2.34375-18.132812-6.238281-.632813 1.976562-1.042969 4.042969-1.140625 6.1875-.222656 4.882812.988281 9.464843 3.238281 13.375 1.402344 2.441406 1.429687 5.445312-.167969 7.765625-3.8125 5.550781-6.058594 12.253906-6.058594 19.496094zm0 0" fill="#7c292e"/><path d="m87.074219 113.8125h-9.117188c-2.90625 0-5.589843-.96875-7.769531-2.585938-2.707031 9.601563-4.171875 19.800782-4.171875 30.375 0 .863282.042969 1.714844.0625 2.574219 5.023437-3.921875 11.328125-6.285156 18.191406-6.285156.816407 0 1.625.039063 2.421875.101563v-1.863282c3.386719-5.1875 8.8125-10.199218 17.488282-12.476562-6.761719-2.8125-12.554688-6.136719-17.105469-9.839844zm0 0" fill="#7c292e"/><path d="m237.410156 113.8125h-4.972656c-4.527344 3.683594-10.28125 6.992188-17 9.800781 6.738281 4.203125 13.144531 5.800781 17.382812 6.390625v8.03125c7.726563-.640625 14.96875 1.765625 20.613282 6.164063.019531-.863281.058594-1.726563.058594-2.597657 0-11.792968-1.835938-23.113281-5.175782-33.660156-2.351562 3.53125-6.367187 5.871094-10.90625 5.871094zm0 0" fill="#7c292e"/><path d="m113.789062 30.859375h17.773438v17.777344h-17.773438zm0 0" fill="#fcbd4c"/><path d="m149.335938 30.859375h17.777343v17.777344h-17.777343zm0 0" fill="#fcbd4c"/><path d="m184.890625 30.859375h17.773437v17.777344h-17.773437zm0 0" fill="#fcbd4c"/><path d="m131.5625 48.636719h17.773438v17.773437h-17.773438zm0 0" fill="#fcbd4c"/><path d="m167.113281 48.636719h17.777344v17.773437h-17.777344zm0 0" fill="#fcbd4c"/><path d="m314.492188 493.640625c-1.132813-20.265625-7.828126-140.476563-9.242188-165.925781-.359375-6.4375-2.859375-12.363282-6.847656-17.027344l-.015625.019531c-3.769531-4.417969-8.855469-7.714843-14.769531-9.203125l-39.707032-9.992187c-6.886718-1.734375-13.699218-3.746094-20.425781-6.035157l-17.566406-8.660156-3.53125-1.742187c-5.609375-2.761719-9.15625-8.46875-9.15625-14.71875v-3.605469c-10.046875 6.210938-21.425781 9.894531-33.476563 9.894531-12.050781 0-23.433594-3.683593-33.480468-9.894531v3.605469c0 6.25-3.546876 11.953125-9.152344 14.71875l-2.601563 1.28125-17.476562 8.617187c-7.402344 2.625-14.921875 4.894532-22.535157 6.8125l-38.613281 9.71875c-5.917969 1.488282-10.996093 4.789063-14.765625 9.207032l-.019531-.023438c-3.988281 4.664062-6.488281 10.589844-6.847656 17.03125-.984375 17.675781-8.144531 146.222656-9.242188 165.925781-.40625 7.253907 5.367188 13.355469 12.632813 13.355469h284.207031c7.265625 0 13.039063-6.105469 12.632813-13.359375zm0 0" fill="#fcbd4c"/><path d="m166.273438 313.148438 28.976562 18.582031 30.824219-45.433594c-.859375-.28125-1.734375-.53125-2.589844-.824219l-17.566406-8.660156-3.53125-1.742188c-.992188-.484374-1.890625-1.097656-2.746094-1.753906zm0 0" fill="#3f3f3f"/><path d="m124.863281 331.730469 28.976563-18.582031-33.609375-40.121094c-.953125.78125-1.976563 1.488281-3.109375 2.042968l-2.605469 1.285157-17.476563 8.617187c-.988281.351563-1.984374.679688-2.980468 1.015625zm0 0" fill="#3f3f3f"/><path d="m193.234375 260.351562v-3.605468c-10.046875 6.214844-21.429687 9.898437-33.480469 9.898437-12.046875 0-23.429687-3.683593-33.476562-9.898437v3.605468c0 4.988282-2.285156 9.597657-6.046875 12.675782l33.613281 40.121094h12.429688l33.371093-39.832032c-3.980469-3.070312-6.410156-7.820312-6.410156-12.964844zm0 0" fill="#fcb275"/><path d="m232.742188 507v-55.835938c0-3.046874-2.492188-5.535156-5.539063-5.535156h-34.351563c-3.046874 0-5.539062 2.492188-5.539062 5.535156v55.835938zm0 0" fill="#f9d498"/><path d="m132.011719 507v-55.835938c0-3.046874-2.492188-5.535156-5.535157-5.535156h-34.351562c-3.046875 0-5.539062 2.492188-5.539062 5.535156v55.835938zm0 0" fill="#f9d498"/><path d="m227.207031 445.628906h-34.355469c-3.042968 0-5.535156 2.492188-5.535156 5.535156v14.601563c0 3.046875 2.492188 5.539063 5.535156 5.539063h34.355469c3.042969 0 5.535157-2.492188 5.535157-5.539063v-14.601563c0-3.046874-2.492188-5.535156-5.535157-5.535156zm0 0" fill="#f9d498"/><path d="m126.476562 445.628906h-34.351562c-3.046875 0-5.539062 2.492188-5.539062 5.535156v14.601563c0 3.046875 2.492187 5.539063 5.539062 5.539063h34.351562c3.042969 0 5.535157-2.492188 5.535157-5.539063v-14.601563c0-3.046874-2.492188-5.535156-5.535157-5.535156zm0 0" fill="#f9d498"/><g fill="#231f20"><path d="m237.410156 118.8125h-159.453125c-9.980469 0-18.101562-8.121094-18.101562-18.101562v-3.421876c0-9.980468 8.121093-18.101562 18.101562-18.101562h159.457031c9.980469 0 18.101563 8.121094 18.101563 18.101562v3.421876c-.003906 9.984374-8.125 18.101562-18.105469 18.101562zm-159.453125-29.625c-4.464843 0-8.101562 3.632812-8.101562 8.101562v3.425782c0 4.464844 3.632812 8.101562 8.101562 8.101562h159.457031c4.464844 0 8.101563-3.632812 8.101563-8.101562v-3.425782c0-4.464843-3.632813-8.101562-8.101563-8.101562zm0 0"/><path d="m159.753906 138.5625c-31.414062 0-59.765625-7.800781-75.835937-20.871094-1.644531-1.332031-2.265625-3.558594-1.558594-5.550781.710937-1.996094 2.597656-3.328125 4.710937-3.328125h145.367188c2.117188 0 4.003906 1.332031 4.710938 3.328125.707031 1.992187.085937 4.21875-1.554688 5.550781-16.074219 13.070313-44.425781 20.871094-75.839844 20.871094zm-54.214844-19.75c14.550782 6.171875 33.855469 9.75 54.214844 9.75s39.667969-3.578125 54.21875-9.75zm0 0"/><path d="m250.492188 106.082031c-.789063 0-1.582032-.1875-2.308594-.566406-1.703125-.886719-2.746094-2.671875-2.6875-4.589844 0-.070312.015625-.296875.019531-.367187l-.003906-3.269532c0-4.46875-3.632813-8.101562-8.101563-8.101562h-159.453125c-4.464843 0-8.101562 3.632812-8.101562 8.101562v1.351563c0 1.945313-1.125 3.710937-2.886719 4.535156-1.757812.8125-3.839844.542969-5.332031-.710937-16.421875-13.8125-21.277344-29.609375-13.664063-44.488282 4.949219-9.683593 33.585938-57.976562 111.242188-57.976562 77.652344 0 106.289062 48.292969 111.242187 57.976562 8.109375 15.847657 1.921875 33.019532-16.972656 47.113282-.882813.65625-1.933594.992187-2.992187.992187zm-172.535157-26.894531h159.457031c7.804688 0 14.472657 4.964844 17.007813 11.910156 6.96875-7.0625 12.941406-17.210937 7.132813-28.566406-4.488282-8.769531-30.507813-52.53125-102.339844-52.53125-71.832032 0-97.855469 43.761719-102.339844 52.53125-5.15625 10.078125-1.074219 19.238281 5.070312 26.316406 3.039063-5.742187 9.078126-9.660156 16.011719-9.660156zm0 0"/><path d="m256.96875 509.3125c-2.761719 0-5-2.238281-5-5v-106.085938c0-2.761718 2.238281-5 5-5s5 2.238282 5 5v106.085938c0 2.761719-2.238281 5-5 5zm0 0"/><path d="m62.542969 509.3125c-2.765625 0-5-2.238281-5-5v-106.085938c0-2.761718 2.234375-5 5-5 2.761719 0 5 2.238282 5 5v106.085938c0 2.761719-2.242188 5-5 5zm0 0"/><path d="m186.199219 362.675781h-7.722657c-1.671874 0-3.027343-1.359375-3.027343-3.03125v-7.71875c0-1.671875 1.355469-3.03125 3.027343-3.03125h7.722657c1.671875 0 3.027343 1.359375 3.027343 3.03125v7.71875c.003907 1.671875-1.351562 3.03125-3.027343 3.03125zm0 0"/><path d="m213.761719 362.675781h-7.722657c-1.671874 0-3.027343-1.359375-3.027343-3.03125v-7.71875c0-1.671875 1.355469-3.03125 3.027343-3.03125h7.722657c1.671875 0 3.027343 1.359375 3.027343 3.03125v7.71875c0 1.671875-1.355468 3.03125-3.027343 3.03125zm0 0"/><path d="m241.320312 362.675781h-7.722656c-1.671875 0-3.027344-1.359375-3.027344-3.03125v-7.71875c0-1.671875 1.355469-3.03125 3.027344-3.03125h7.722656c1.671876 0 3.027344 1.359375 3.027344 3.03125v7.71875c.003906 1.671875-1.351562 3.03125-3.027344 3.03125zm0 0"/><path d="m199.980469 376.453125h-7.722657c-1.671874 0-3.027343-1.355469-3.027343-3.027344v-7.722656c0-1.671875 1.355469-3.027344 3.027343-3.027344h7.722657c1.671875 0 3.027343 1.355469 3.027343 3.027344v7.722656c0 1.671875-1.355468 3.027344-3.027343 3.027344zm0 0"/><path d="m227.542969 376.453125h-7.722657c-1.671874 0-3.027343-1.355469-3.027343-3.027344v-7.722656c0-1.671875 1.355469-3.027344 3.027343-3.027344h7.722657c1.671875 0 3.027343 1.355469 3.027343 3.027344v7.722656c0 1.671875-1.355468 3.027344-3.027343 3.027344zm0 0"/><path d="m159.664062 509.878906c-2.761718 0-5-2.238281-5-5v-173.808594c0-2.761718 2.238282-5 5-5 2.761719 0 5 2.238282 5 5v173.808594c0 2.761719-2.238281 5-5 5zm0 0"/><path d="m130.039062 375.574219h-43.453124c-2.761719 0-5-2.238281-5-5s2.238281-5 5-5h43.453124c2.761719 0 5 2.238281 5 5s-2.242187 5-5 5zm0 0"/><path d="m84.269531 202.125c-19.085937 0-34.613281-15.53125-34.613281-34.617188 0-19.085937 15.527344-34.613281 34.613281-34.613281.957031 0 1.902344.042969 2.835938.121094 2.589843.210937 4.582031 2.378906 4.582031 4.980469v47.722656c0 3.421875.265625 6.9375.785156 10.453125.195313 1.335937-.15625 2.695313-.976562 3.769531-.820313 1.070313-2.039063 1.765625-3.382813 1.925782-1.5.175781-2.683593.257812-3.84375.257812zm-2.582031-59.09375c-12.363281 1.289062-22.03125 11.777344-22.03125 24.476562 0 12.789063 9.800781 23.328126 22.285156 24.507813-.167968-2.117187-.253906-4.21875-.253906-6.292969zm0 0"/><path d="m235.238281 202.125c-1.15625 0-2.34375-.082031-3.839843-.257812-1.34375-.160157-2.5625-.855469-3.382813-1.925782-.820313-1.074218-1.171875-2.433594-.972656-3.769531.515625-3.507813.777343-7.023437.777343-10.453125v-47.683594c0-2.601562 1.996094-4.765625 4.585938-4.980468 9.617188-.792969 19.195312 2.492187 26.296875 9.03125 7.089844 6.523437 11.152344 15.792968 11.152344 25.425781 0 19.082031-15.53125 34.613281-34.617188 34.613281zm2.582031-59.054688v42.648438c0 2.078125-.085937 4.179688-.25 6.292969 12.484376-1.175781 22.285157-11.71875 22.285157-24.503907 0-6.949218-2.8125-13.363281-7.925781-18.066406-3.917969-3.601562-8.890626-5.820312-14.109376-6.371094zm0 0"/><path d="m159.753906 229.527344c-8.78125 0-16.957031-4.351563-21.878906-11.632813-1.546875-2.289062-.945312-5.398437 1.34375-6.941406 2.285156-1.546875 5.394531-.945313 6.941406 1.34375 3.058594 4.527344 8.144532 7.230469 13.597656 7.230469 5.453126 0 10.539063-2.707032 13.59375-7.230469 1.546876-2.289063 4.65625-2.890625 6.945313-1.34375 2.289063 1.542969 2.886719 4.652344 1.34375 6.941406-4.925781 7.28125-13.101563 11.632813-21.886719 11.632813zm0 0"/><path d="m134.414062 180.507812c-3.316406 0-6-2.6875-6-6v-1.09375c0-3.3125 2.683594-6 6-6 3.3125 0 6 2.6875 6 6v1.09375c0 3.3125-2.6875 6-6 6zm0 0"/><path d="m186.761719 181.34375c-3.316407 0-6-2.6875-6-6v-1.089844c0-3.316406 2.683593-6 6-6 3.3125 0 6 2.683594 6 6v1.089844c0 3.3125-2.6875 6-6 6zm0 0"/><path d="m196.882812 161.207031c-.792968 0-1.59375-.1875-2.34375-.585937-1.25-.667969-4.125-1.339844-7.722656-1.339844-3.59375 0-6.46875.671875-7.722656 1.339844-2.441406 1.292968-5.464844.371094-6.761719-2.070313-1.292969-2.4375-.371093-5.460937 2.070313-6.761719 3-1.59375 7.523437-2.507812 12.414062-2.507812 4.894532 0 9.421875.914062 12.417969 2.511719 2.4375 1.296875 3.363281 4.324219 2.066406 6.761719-.898437 1.6875-2.628906 2.652343-4.417969 2.652343zm0 0"/><path d="m142.757812 161.207031c-.792968 0-1.597656-.1875-2.34375-.585937-1.253906-.667969-4.125-1.339844-7.722656-1.339844-3.59375 0-6.46875.671875-7.722656 1.339844-2.441406 1.292968-5.46875.371094-6.761719-2.070313-1.296875-2.4375-.371093-5.460937 2.066407-6.761719 3-1.59375 7.527343-2.507812 12.417968-2.507812 4.894532 0 9.417969.914062 12.417969 2.511719 2.4375 1.296875 3.363281 4.324219 2.066406 6.761719-.898437 1.6875-2.628906 2.652343-4.417969 2.652343zm0 0"/><path d="m159.753906 271.644531c-44.679687 0-78.0625-45.363281-78.0625-85.925781v-49.589844c0-.972656.285156-1.921875.8125-2.734375 4.820313-7.382812 11.6875-12.289062 20.40625-14.578125 1.058594-.277344 2.179688-.199218 3.191406.222656 14.742188 6.140626 33.796876 9.523438 53.652344 9.523438 19.90625 0 38.996094-3.394531 53.753906-9.566406 1.496094-.625 3.203126-.484375 4.578126.375 6.015624 3.757812 11.707031 5.164062 15.421874 5.679687 2.472657.34375 4.3125 2.457031 4.3125 4.953125v55.714844c0 40.5625-33.386718 85.925781-78.066406 85.925781zm-68.0625-133.957031v48.03125c0 43.457031 35.9375 75.925781 68.0625 75.925781 32.128906 0 68.066406-32.46875 68.066406-75.925781v-51.578125c-3.691406-.871094-8.132812-2.375-12.796874-4.96875-15.589844 6.066406-35.09375 9.390625-55.269532 9.390625-20.421875 0-40.167968-3.410156-55.847656-9.621094-5.054688 1.632813-9.152344 4.570313-12.214844 8.746094zm0 0"/><path d="m84.269531 202.125c-19.085937 0-34.613281-15.53125-34.613281-34.617188 0-19.085937 15.527344-34.613281 34.613281-34.613281.957031 0 1.902344.042969 2.835938.121094 2.589843.210937 4.582031 2.378906 4.582031 4.980469v47.722656c0 3.421875.265625 6.9375.785156 10.453125.195313 1.335937-.15625 2.695313-.976562 3.769531-.820313 1.070313-2.039063 1.765625-3.382813 1.925782-1.5.175781-2.683593.257812-3.84375.257812zm-2.582031-59.09375c-12.363281 1.289062-22.03125 11.777344-22.03125 24.476562 0 12.789063 9.800781 23.328126 22.285156 24.507813-.167968-2.117187-.253906-4.21875-.253906-6.292969zm0 0"/><path d="m235.238281 202.125c-1.15625 0-2.34375-.082031-3.839843-.257812-1.34375-.160157-2.5625-.855469-3.382813-1.925782-.820313-1.074218-1.171875-2.433594-.972656-3.769531.515625-3.507813.777343-7.023437.777343-10.453125v-47.683594c0-2.601562 1.996094-4.765625 4.585938-4.980468 9.617188-.792969 19.195312 2.492187 26.296875 9.03125 7.089844 6.523437 11.152344 15.792968 11.152344 25.425781 0 19.082031-15.53125 34.613281-34.617188 34.613281zm2.582031-59.054688v42.648438c0 2.078125-.085937 4.179688-.25 6.292969 12.484376-1.175781 22.285157-11.71875 22.285157-24.503907 0-6.949218-2.8125-13.363281-7.925781-18.066406-3.917969-3.601562-8.890626-5.820312-14.109376-6.371094zm0 0"/><path d="m159.753906 229.527344c-8.78125 0-16.957031-4.351563-21.878906-11.632813-1.546875-2.289062-.945312-5.398437 1.34375-6.941406 2.285156-1.546875 5.394531-.945313 6.941406 1.34375 3.058594 4.527344 8.144532 7.230469 13.597656 7.230469 5.453126 0 10.539063-2.707032 13.59375-7.230469 1.546876-2.289063 4.65625-2.890625 6.945313-1.34375 2.289063 1.542969 2.886719 4.652344 1.34375 6.941406-4.925781 7.28125-13.101563 11.632813-21.886719 11.632813zm0 0"/><path d="m134.414062 180.507812c-3.316406 0-6-2.6875-6-6v-1.09375c0-3.3125 2.683594-6 6-6 3.3125 0 6 2.6875 6 6v1.09375c0 3.3125-2.6875 6-6 6zm0 0"/><path d="m186.761719 181.34375c-3.316407 0-6-2.6875-6-6v-1.089844c0-3.316406 2.683593-6 6-6 3.3125 0 6 2.683594 6 6v1.089844c0 3.3125-2.6875 6-6 6zm0 0"/><path d="m196.882812 161.207031c-.792968 0-1.59375-.1875-2.34375-.585937-1.25-.667969-4.125-1.339844-7.722656-1.339844-3.59375 0-6.46875.671875-7.722656 1.339844-2.441406 1.292968-5.464844.371094-6.761719-2.070313-1.292969-2.4375-.371093-5.460937 2.070313-6.761719 3-1.59375 7.523437-2.507812 12.414062-2.507812 4.894532 0 9.421875.914062 12.417969 2.511719 2.4375 1.296875 3.363281 4.324219 2.066406 6.761719-.898437 1.6875-2.628906 2.652343-4.417969 2.652343zm0 0"/><path d="m142.757812 161.207031c-.792968 0-1.597656-.1875-2.34375-.585937-1.253906-.667969-4.125-1.339844-7.722656-1.339844-3.59375 0-6.46875.671875-7.722656 1.339844-2.441406 1.292968-5.46875.371094-6.761719-2.070313-1.296875-2.4375-.371093-5.460937 2.066407-6.761719 3-1.59375 7.527343-2.507812 12.417968-2.507812 4.894532 0 9.417969.914062 12.417969 2.511719 2.4375 1.296875 3.363281 4.324219 2.066406 6.761719-.898437 1.6875-2.628906 2.652343-4.417969 2.652343zm0 0"/><path d="m159.753906 271.644531c-44.679687 0-78.0625-45.363281-78.0625-85.925781v-49.589844c0-.972656.285156-1.921875.8125-2.734375 4.820313-7.382812 11.6875-12.289062 20.40625-14.578125 1.058594-.277344 2.179688-.199218 3.191406.222656 14.742188 6.140626 33.796876 9.523438 53.652344 9.523438 19.90625 0 38.996094-3.394531 53.753906-9.566406 1.496094-.625 3.203126-.484375 4.578126.375 6.015624 3.757812 11.707031 5.164062 15.421874 5.679687 2.472657.34375 4.3125 2.457031 4.3125 4.953125v55.714844c0 40.5625-33.386718 85.925781-78.066406 85.925781zm-68.0625-133.957031v48.03125c0 43.457031 35.9375 75.925781 68.0625 75.925781 32.128906 0 68.066406-32.46875 68.066406-75.925781v-51.578125c-3.691406-.871094-8.132812-2.375-12.796874-4.96875-15.589844 6.066406-35.09375 9.390625-55.269532 9.390625-20.421875 0-40.167968-3.410156-55.847656-9.621094-5.054688 1.632813-9.152344 4.570313-12.214844 8.746094zm0 0"/><path d="m244.761719 296.722656c-.410157 0-.816407-.046875-1.21875-.152344l-.847657-.210937c-6.984374-1.757813-13.988281-3.828125-20.816406-6.148437-.210937-.070313-.40625-.15625-.605468-.25l-21.097657-10.402344c-5.929687-2.921875-10.109375-8.34375-11.460937-14.875-.039063-.1875-.066406-.371094-.082032-.558594-.058593-.664062-.105468-1.328125-.105468-2.003906v-5.550782c0-1.722656.890625-3.328124 2.351562-4.242187 18.949219-11.839844 32.804688-33.363281 36.164063-56.171875.042969-.289062.113281-.578125.203125-.851562.800781-2.394532 3.253906-3.8125 5.707031-3.324219.910156.097656 1.628906.144531 2.289063.144531 5.507812 0 10.726562-1.800781 15.09375-5.207031 1.292968-1.003907 2.992187-1.320313 4.546874-.832031 1.558594.476562 2.789063 1.691406 3.289063 3.246093.804687 2.507813 1.269531 5.035157 1.378906 7.519531.253907 5.644532-1.09375 11.207032-3.898437 16.089844-.378906.660156-.59375 1.648438-.046875 2.441406 4.542969 6.605469 6.941406 14.328126 6.941406 22.328126 0 11.292968-4.851563 22.078124-13.300781 29.585937-.582032.515625-.808594 1.339844-.582032 2.101563 1.347657 4.441406 2.03125 9.066406 2.03125 13.738281 0 3.113281-.347656 6.347656-1.035156 9.617187-.28125 1.332032-1.089844 2.488282-2.242187 3.210938-.808594.496094-1.726563.757812-2.65625.757812zm-19.359375-15.875c5 1.691406 10.097656 3.246094 15.207031 4.628906.054687-.785156.082031-1.5625.082031-2.339843 0-3.691407-.539062-7.339844-1.601562-10.84375-1.355469-4.480469.023437-9.375 3.507812-12.472657 6.320313-5.613281 9.945313-13.671874 9.945313-22.113281 0-5.96875-1.792969-11.730469-5.183594-16.660156-2.652344-3.859375-2.800781-8.875-.378906-13.09375 1.570312-2.730469 2.449219-5.792969 2.582031-8.933594-4.191406 1.917969-8.71875 2.96875-13.410156 3.089844-4.652344 22.996094-18.695313 44.378906-37.625 57.171875v2.835938c0 .269531.019531.535156.039062.796874.777344 3.375 2.964844 6.160157 6.03125 7.671876zm0 0"/><path d="m74.789062 296.707031c-.929687 0-1.847656-.257812-2.644531-.757812-1.15625-.71875-1.964843-1.878907-2.246093-3.210938-.6875-3.261719-1.039063-6.492187-1.039063-9.601562 0-4.671875.683594-9.292969 2.03125-13.742188.230469-.757812 0-1.582031-.582031-2.101562-8.453125-7.507813-13.300782-18.289063-13.300782-29.585938 0-8 2.402344-15.722656 6.945313-22.324219.539063-.792968.328125-1.785156-.050781-2.449218-2.800782-4.875-4.152344-10.4375-3.898438-16.085938.113282-2.472656.574219-4.992187 1.375-7.488281.5-1.554687 1.722656-2.765625 3.285156-3.25 1.554688-.480469 3.257813-.171875 4.542969.828125 4.367188 3.390625 9.578125 5.183594 15.066407 5.183594.660156 0 1.378906-.042969 2.285156-.144532.199218-.039062.398437-.066406.601562-.078124 2.609375-.203126 4.933594 1.667968 5.3125 4.257812 3.359375 22.804688 17.214844 44.328125 36.164063 56.171875 1.457031.914063 2.347656 2.515625 2.347656 4.238281v5.550782c0 .75-.066406 1.484374-.144531 2.214843-.019532.1875-.050782.421875-.09375.605469-1.410156 6.410156-5.566406 11.738281-11.40625 14.617188l-20.082032 9.902343c-.175781.089844-.355468.164063-.539062.230469-7.414062 2.621094-15.050781 4.933594-22.699219 6.867188-.410156.101562-.820312.152343-1.230469.152343zm-4.800781-97.671875c.132813 3.140625 1.015625 6.195313 2.582031 8.921875 2.417969 4.214844 2.273438 9.230469-.382812 13.09375-3.386719 4.929688-5.179688 10.6875-5.179688 16.660157 0 8.4375 3.625 16.496093 9.9375 22.109374 3.492188 3.101563 4.871094 7.996094 3.515626 12.476563-1.0625 3.503906-1.601563 7.152344-1.601563 10.839844 0 .765625.027344 1.53125.078125 2.300781 5.449219-1.507812 10.863281-3.210938 16.160156-5.078125l19.8125-9.769531c3.027344-1.492188 5.203125-4.238282 6.007813-7.554688.035156-.316406.0625-.613281.0625-.914062v-2.839844c-18.925781-12.792969-32.96875-34.175781-37.621094-57.167969-4.675781-.121093-9.191406-1.167969-13.371094-3.078125zm0 0"/><path d="m66.078125 149.175781c-.730469 0-1.457031-.15625-2.140625-.480469-1.707031-.808593-2.8125-2.515624-2.859375-4.40625l-.023437-.839843c-.023438-.617188-.039063-1.230469-.039063-1.847657 0-10.804687 1.464844-21.480468 4.359375-31.730468.449219-1.582032 1.640625-2.847656 3.199219-3.378906 1.5625-.53125 3.273437-.261719 4.59375.71875 1.414062 1.046874 3.066406 1.601562 4.789062 1.601562h9.117188c1.148437 0 2.261719.398438 3.152343 1.125 4.171876 3.386719 9.511719 6.449219 15.875 9.101562 1.980469.824219 3.214844 2.820313 3.066407 4.960938-.148438 2.136719-1.644531 3.949219-3.71875 4.488281-5.765625 1.515625-10.386719 4.609375-13.757813 9.203125v.3125c-.003906 1.394532-.589844 2.726563-1.617187 3.675782-1.027344.945312-2.414063 1.414062-3.800781 1.296874-.660157-.050781-1.328126-.082031-2-.082031-5.519532 0-10.746094 1.804688-15.117188 5.21875-.894531.703125-1.984375 1.0625-3.078125 1.0625zm7.488281-30.902343c-1.253906 5.625-2.046875 11.375-2.378906 17.183593 3.671875-1.507812 7.585938-2.367187 11.625-2.53125 2.613281-3.878906 5.800781-7.046875 9.542969-9.492187-2.542969-1.457032-4.882813-3-7.015625-4.621094h-7.386719c-1.492187 0-2.964844-.183594-4.386719-.539062zm0 0"/><path d="m253.433594 149.199219c-1.09375 0-2.179688-.359375-3.074219-1.054688-4.894531-3.8125-10.980469-5.632812-17.125-5.125-1.402344.121094-2.769531-.359375-3.800781-1.300781-1.027344-.949219-1.613282-2.28125-1.613282-3.679688v-3.894531c-4.273437-1.007812-9.554687-2.871093-15.03125-6.289062-1.585937-.992188-2.484374-2.785157-2.335937-4.648438.152344-1.863281 1.332031-3.484375 3.054687-4.207031 6.316407-2.636719 11.625-5.691406 15.777344-9.0625.890625-.722656 2.007813-1.121094 3.152344-1.121094h4.972656c2.703125 0 5.222656-1.363281 6.746094-3.644531 1.066406-1.601563 2.972656-2.445313 4.859375-2.179687 1.90625.273437 3.484375 1.609374 4.066406 3.445312 3.589844 11.335938 5.410157 23.167969 5.410157 35.164062 0 .625-.015626 1.246094-.035157 1.863282l-.027343.851562c-.042969 1.886719-1.148438 3.59375-2.855469 4.402344-.679688.324219-1.414063.480469-2.140625.480469zm-15.613282-16.171875c3.617188.269531 7.15625 1.109375 10.5 2.476562-.355468-6.308594-1.265624-12.542968-2.722656-18.652344-2.5 1.273438-5.292968 1.960938-8.1875 1.960938h-3.242187c-2.179688 1.65625-4.582031 3.230469-7.1875 4.71875 2.507812.816406 4.746093 1.269531 6.527343 1.515625 2.472657.34375 4.3125 2.460937 4.3125 4.957031zm0 0"/><path d="m131.5625 53.636719h-17.777344c-2.761718 0-5-2.238281-5-5v-17.777344c0-2.761719 2.238282-5 5-5h17.777344c2.761719 0 5 2.238281 5 5v17.777344c0 2.761719-2.238281 5-5 5zm-12.773438-10h7.773438v-7.777344h-7.773438zm0 0"/><path d="m167.113281 53.636719h-17.777343c-2.761719 0-5-2.238281-5-5v-17.777344c0-2.761719 2.238281-5 5-5h17.777343c2.761719 0 5 2.238281 5 5v17.777344c0 2.761719-2.238281 5-5 5zm-12.777343-10h7.777343v-7.777344h-7.777343zm0 0"/><path d="m202.664062 53.636719h-17.773437c-2.761719 0-5-2.238281-5-5v-17.777344c0-2.761719 2.238281-5 5-5h17.773437c2.761719 0 5 2.238281 5 5v17.777344c0 2.761719-2.238281 5-5 5zm-12.773437-10h7.773437v-7.777344h-7.773437zm0 0"/><path d="m149.335938 71.410156h-17.773438c-2.761719 0-5-2.234375-5-5v-17.773437c0-2.761719 2.238281-5 5-5h17.773438c2.761718 0 5 2.238281 5 5v17.773437c0 2.765625-2.238282 5-5 5zm-12.773438-10h7.773438v-7.773437h-7.773438zm0 0"/><path d="m184.890625 71.410156h-17.78125c-2.761719 0-5-2.234375-5-5v-17.773437c0-2.761719 2.238281-5 5-5h17.78125c2.761719 0 5 2.238281 5 5v17.773437c0 2.765625-2.238281 5-5 5zm-12.777344-10h7.777344v-7.773437h-7.777344zm0 0"/><path d="m301.859375 512h-284.207031c-4.832032 0-9.507813-2.015625-12.824219-5.523438-3.320313-3.507812-5.070313-8.289062-4.8007812-13.113281 1.0976562-19.703125 8.2578122-148.246093 9.2382812-165.925781.417969-7.417969 3.199219-14.335938 8.042969-20 .128906-.152344.265625-.292969.410156-.425781 4.527344-5.125 10.375-8.703125 16.953125-10.359375l38.617187-9.71875c7.347657-1.847656 14.683594-4.0625 21.808594-6.574219l19.816406-9.773437c3.925782-1.9375 6.363282-5.859376 6.363282-10.234376v-3.605468c0-1.8125.984375-3.484375 2.566406-4.367188 1.585938-.882812 3.527344-.839844 5.0625.113282 9.820312 6.070312 20.199219 9.148437 30.851562 9.148437 10.652344 0 21.03125-3.078125 30.847657-9.148437 1.542969-.953126 3.480469-.996094 5.0625-.113282 1.585937.882813 2.566406 2.554688 2.566406 4.367188v3.605468c0 4.375 2.441406 8.296876 6.367187 10.234376l20.804688 10.257812c6.472656 2.195312 13.109375 4.148438 19.730469 5.8125l39.703125 9.996094c6.597656 1.660156 12.464844 5.25 17 10.398437.128906.121094.25.25.367187.382813 4.84375 5.667968 7.621094 12.585937 8.039063 20l9.242187 165.929687c.269531 4.820313-1.480469 9.601563-4.800781 13.113281-3.324219 3.507813-8 5.523438-12.828125 5.523438zm-277.273437-197.679688c-3.207032 3.914063-5.050782 8.632813-5.335938 13.675782-.980469 17.675781-8.140625 146.21875-9.238281 165.925781-.121094 2.121094.621093 4.140625 2.082031 5.683594 1.457031 1.542969 3.433594 2.394531 5.558594 2.394531h284.207031c2.125 0 4.101563-.851562 5.558594-2.394531 1.460937-1.542969 2.203125-3.5625 2.082031-5.683594l-9.242188-165.929687c-.285156-5.054688-2.132812-9.789063-5.367187-13.710938-.109375-.105469-.210937-.214844-.308594-.328125-3.222656-3.777344-7.4375-6.40625-12.183593-7.597656l-39.707032-9.996094c-6.984375-1.757813-13.988281-3.828125-20.816406-6.148437-.207031-.070313-.40625-.15625-.601562-.25l-21.097657-10.402344c-5.972656-2.945313-10.113281-8.339844-11.460937-14.652344-9.285156 4.429688-19.160156 6.738281-28.960938 6.738281-9.796875 0-19.675781-2.308593-28.957031-6.738281-1.351563 6.3125-5.488281 11.707031-11.460937 14.652344l-20.082032 9.902344c-.175781.085937-.355468.164062-.539062.226562-7.507813 2.660156-15.238282 4.996094-22.984375 6.945312l-38.617188 9.722657c-4.742187 1.191406-8.957031 3.820312-12.179687 7.601562-.113282.125-.226563.25-.347656.363281zm0 0"/><path d="m195.25 336.730469c-.925781 0-1.863281-.253907-2.695312-.789063l-28.980469-18.585937c-1.207031-.777344-2.027344-2.035157-2.242188-3.453125-.21875-1.421875.1875-2.867188 1.109375-3.964844l33.371094-39.832031c1.71875-2.054688 4.761719-2.382813 6.878906-.753907.726563.558594 1.332032.953126 1.902344 1.234376l20.800781 10.253906c.332031.109375.667969.210937 1.003907.3125.414062.128906.828124.257812 1.238281.394531 1.492187.488281 2.664062 1.652344 3.167969 3.136719.507812 1.480468.285156 3.121094-.59375 4.417968l-30.820313 45.433594c-.964844 1.425782-2.539063 2.195313-4.140625 2.195313zm-21.496094-24.722657 20.097656 12.882813 24.628907-36.308594-17.765625-8.761719zm0 0"/><path d="m124.871094 336.730469c-1.613282 0-3.191406-.773438-4.152344-2.207031l-30.804688-45.742188c-.871093-1.292969-1.089843-2.914062-.589843-4.390625.496093-1.476563 1.652343-2.632813 3.128906-3.132813l.953125-.324218c.566406-.191406 1.132812-.378906 1.699219-.574219l19.808593-9.769531c.6875-.339844 1.390626-.808594 2.15625-1.433594 2.117188-1.726562 5.234376-1.441406 6.996094.660156l33.609375 40.121094c.925781 1.101562 1.328125 2.546875 1.113281 3.964844-.214843 1.421875-1.035156 2.679687-2.242187 3.457031l-28.980469 18.582031c-.835937.535156-1.769531.789063-2.695312.789063zm-23.238282-48.445313 24.644532 36.601563 20.082031-12.878907-27.136719-32.394531zm0 0"/><path d="m166.273438 318.148438h-12.429688c-1.480469 0-2.882812-.65625-3.832031-1.789063l-33.613281-40.125c-.859376-1.023437-1.269532-2.347656-1.144532-3.679687.125-1.328126.777344-2.550782 1.8125-3.398438 2.675782-2.191406 4.207032-5.398438 4.207032-8.804688v-3.605468c0-1.8125.984374-3.484375 2.566406-4.367188 1.585937-.882812 3.519531-.839844 5.0625.113282 9.820312 6.070312 20.199218 9.148437 30.851562 9.148437s21.03125-3.078125 30.847656-9.148437c1.542969-.953126 3.480469-.996094 5.0625-.113282 1.585938.882813 2.566407 2.554688 2.566407 4.367188v3.605468c0 3.535157 1.625 6.8125 4.464843 9.003907 1.078126.832031 1.769532 2.066406 1.914063 3.421875.148437 1.351562-.261719 2.707031-1.136719 3.75l-33.371094 39.832031c-.945312 1.132813-2.347656 1.789063-3.828124 1.789063zm-10.097657-10h7.765625l28.925782-34.53125c-2.039063-2.554688-3.457032-5.527344-4.148438-8.714844-9.285156 4.429687-19.160156 6.742187-28.960938 6.742187-9.800781 0-19.683593-2.316406-28.96875-6.746093-.660156 3.027343-1.972656 5.871093-3.855468 8.339843zm0 0"/><path d="m232.742188 512h-45.429688c-2.761719 0-5-2.238281-5-5v-55.835938c0-5.808593 4.726562-10.539062 10.539062-10.539062h34.355469c5.808594 0 10.535157 4.726562 10.535157 10.539062v55.835938c0 2.761719-2.238282 5-5 5zm-40.429688-10h35.429688v-50.835938c0-.28125-.257813-.539062-.539063-.539062h-34.355469c-.28125 0-.535156.257812-.535156.539062zm0 0"/><path d="m132.011719 512h-45.425781c-2.761719 0-5-2.238281-5-5v-55.835938c0-5.808593 4.726562-10.539062 10.539062-10.539062h34.351562c5.8125 0 10.539063 4.726562 10.539063 10.539062v55.835938c-.003906 2.761719-2.242187 5-5.003906 5zm-40.425781-10h35.425781v-50.835938c0-.28125-.253907-.539062-.535157-.539062h-34.351562c-.285156 0-.539062.257812-.539062.539062zm0 0"/><path d="m227.207031 476.300781h-34.355469c-5.808593 0-10.539062-4.726562-10.539062-10.535156v-14.605469c0-5.808594 4.726562-10.535156 10.539062-10.535156h34.355469c5.808594 0 10.535157 4.726562 10.535157 10.535156v14.605469c0 5.808594-4.726563 10.535156-10.535157 10.535156zm-34.355469-25.675781c-.28125 0-.539062.257812-.539062.539062v14.601563c0 .285156.253906.539063.539062.539063h34.355469c.285157 0 .535157-.253907.535157-.539063v-14.601563c0-.28125-.253907-.539062-.535157-.539062zm0 0"/><path d="m126.476562 476.300781h-34.351562c-5.8125 0-10.539062-4.726562-10.539062-10.535156v-14.605469c0-5.808594 4.726562-10.535156 10.539062-10.535156h34.351562c5.8125 0 10.539063 4.726562 10.539063 10.535156v14.605469c-.003906 5.808594-4.726563 10.535156-10.539063 10.535156zm-34.351562-25.675781c-.285156 0-.539062.257812-.539062.539062v14.601563c0 .285156.25.539063.539062.539063h34.351562c.285157 0 .539063-.253907.539063-.539063v-14.601563c0-.28125-.257813-.539062-.539063-.539062zm0 0"/></g></svg>