<svg height="511pt" viewBox="-96 0 511 511.996" width="511pt" xmlns="http://www.w3.org/2000/svg"><path d="m314.988281 493.640625c-1.128906-20.269531-7.824219-140.476563-9.242187-165.925781-.359375-6.4375-2.859375-12.363282-6.847656-17.027344l-.015626.015625c-3.769531-4.414063-8.851562-7.710937-14.769531-9.199219l-39.703125-9.996094c-6.890625-1.734374-13.703125-3.746093-20.425781-6.035156l-17.566406-8.660156-3.535157-1.742188c-5.605468-2.761718-9.152343-8.46875-9.152343-14.71875v-5.941406c-7.925781 3.34375-16.632813 5.195313-25.773438 5.195313h-16.222656c-8.832031 0-17.253906-1.742188-24.960937-4.875v5.621093c0 6.25-3.550782 11.957032-9.152344 14.71875l-2.605469 1.285157-17.476563 8.617187c-7.402343 2.625-14.917968 4.894532-22.535156 6.8125l-38.613281 9.71875c-5.917969 1.488282-10.996094 4.789063-14.761719 9.203125l-.023437-.019531c-3.984375 4.664062-6.484375 10.589844-6.847657 17.027344-.984374 17.675781-8.144531 146.222656-9.242187 165.925781-.402344 7.253906 5.371094 13.355469 12.636719 13.355469h284.203125c7.265625 0 13.039062-6.105469 12.632812-13.355469zm0 0" fill="#fcbd4c"/><path d="m227.703125 392.296875h-34.355469c-3.042968 0-5.535156 2.492187-5.535156 5.539063v58.050781c0 3.046875 2.492188 5.539062 5.535156 5.539062h34.355469c3.042969 0 5.535156-2.492187 5.535156-5.539062v-58.050781c0-3.046876-2.492187-5.539063-5.535156-5.539063zm0 0" fill="#f9d498"/><path d="m126.972656 392.296875h-34.351562c-3.046875 0-5.539063 2.492187-5.539063 5.539063v58.050781c0 3.046875 2.492188 5.539062 5.539063 5.539062h34.351562c3.046875 0 5.539063-2.492187 5.539063-5.539062v-58.050781c0-3.046876-2.492188-5.539063-5.539063-5.539063zm0 0" fill="#f9d498"/><path d="m227.703125 392.296875h-34.355469c-3.042968 0-5.535156 2.492187-5.535156 5.539063v14.601562c0 3.042969 2.492188 5.535156 5.535156 5.535156h34.355469c3.042969 0 5.535156-2.492187 5.535156-5.535156v-14.601562c0-3.046876-2.492187-5.539063-5.535156-5.539063zm0 0" fill="#f9d498"/><path d="m126.972656 392.296875h-34.351562c-3.046875 0-5.539063 2.492187-5.539063 5.539063v14.601562c0 3.042969 2.492188 5.535156 5.539063 5.535156h34.351562c3.046875 0 5.539063-2.492187 5.539063-5.535156v-14.601562c0-3.046876-2.492188-5.539063-5.539063-5.539063zm0 0" fill="#f9d498"/><path d="m85.390625 138.96875v-9.394531c-14.34375.734375-26.101563 12.53125-26.101563 27.414062 0 14.726563 11.5625 26.703125 26.101563 27.472657zm0 0" fill="#fcb275"/><path d="m234.332031 129.628906-.027343 12.53125v42.238282c14.109374-1.203126 25.195312-12.988282 25.195312-27.410157.003906-14.5625-11.25-26.175781-25.167969-27.359375zm0 0" fill="#fcb275"/><path d="m237.910156 113.8125h-159.453125c-7.207031 0-13.105469-5.894531-13.105469-13.101562v-3.421876c0-7.207031 5.898438-13.101562 13.105469-13.101562h159.453125c7.203125 0 13.101563 5.894531 13.101563 13.101562v3.421876c-.003907 7.207031-5.898438 13.101562-13.101563 13.101562zm0 0" fill="#515050"/><path d="m85.390625 113.8125v79.445312c0 36.640626 29.703125 66.347657 66.34375 66.347657h16.226563c36.640624 0 66.34375-29.707031 66.34375-66.347657v-79.445312zm0 0" fill="#fcb275"/><path d="m87.570312 113.8125c14.515626 11.804688 41.617188 19.75 72.683594 19.75 31.0625 0 58.167969-7.945312 72.683594-19.75zm0 0" fill="#fcbd4c"/><path d="m266.503906 60.253906c-10.921875-21.351562-43.441406-55.253906-106.792968-55.253906-63.351563 0-95.871094 33.902344-106.792969 55.253906-8.609375 16.835938 3.675781 31.019532 12.433593 38.386719v-1.351563c0-7.207031 5.898438-13.101562 13.105469-13.101562h159.453125c7.203125 0 13.101563 5.894531 13.101563 13.101562v3.421876c0 .125-.015625.246093-.019531.367187 8.417968-6.277344 25.207031-21.867187 15.511718-40.824219zm0 0" fill="#3f3f3f"/><path d="m248.527344 108.339844c-2.382813 3.300781-6.253906 5.472656-10.617188 5.472656h-3.605468l.027343 15.816406c6.84375.582032 13.03125 3.695313 17.566407 8.429688.117187-1.816406.195312-3.640625.195312-5.484375 0-8.410157-1.261719-16.535157-3.566406-24.234375zm0 0" fill="#7c292e"/><path d="m68.515625 136.503906c4.5625-4.046875 10.453125-6.601562 16.875-6.929687v-15.761719h-6.933594c-2.730469 0-5.269531-.847656-7.371093-2.289062-1.734376 6.746093-2.671876 13.792968-2.671876 21.050781 0 1.320312.042969 2.628906.101563 3.929687zm0 0" fill="#7c292e"/><path d="m166.769531 313.144531 28.980469 18.585938 30.820312-45.4375c-.859374-.28125-1.730468-.527344-2.585937-.820313l-17.566406-8.660156-3.535157-1.742188c-.988281-.488281-1.890624-1.097656-2.742187-1.757812zm0 0" fill="#3f3f3f"/><path d="m125.359375 331.730469 28.980469-18.585938-33.609375-40.117187c-.953125.777344-1.976563 1.484375-3.109375 2.042968l-2.605469 1.285157-17.476563 8.617187c-.988281.347656-1.984374.675782-2.980468 1.015625zm0 0" fill="#3f3f3f"/><path d="m193.730469 260.351562v-5.945312c-7.921875 3.347656-16.632813 5.195312-25.769531 5.195312h-16.226563c-8.832031 0-17.25-1.738281-24.960937-4.871093v5.621093c0 4.984376-2.285157 9.597657-6.042969 12.671876l33.609375 40.121093h12.429687l33.371094-39.832031c-3.976563-3.070312-6.410156-7.816406-6.410156-12.960938zm0 0" fill="#fcb275"/><path d="m168.304688 188.566406c-4.394532-.117187-8.050782 3.34375-8.050782 7.738282v4.945312c0 2.507812 2.027344 4.523438 4.535156 4.53125 6.714844.019531 19.519532.960938 29.019532 7.113281 6.761718 4.378907 14.238281-4.292969 9.101562-10.402343-6.273437-7.453126-16.847656-13.4375-34.605468-13.925782zm0 0" fill="#7c292e"/><path d="m160.253906 201.25v-4.945312c0-4.394532-3.65625-7.859376-8.050781-7.738282-17.761719.488282-28.332031 6.476563-34.605469 13.929688-5.136718 6.105468 2.332032 14.78125 9.097656 10.402344 9.5-6.152344 22.304688-7.097657 29.019532-7.117188 2.507812-.007812 4.539062-2.023438 4.539062-4.53125zm0 0" fill="#7c292e"/><path d="m114.285156 30.859375h17.777344v17.777344h-17.777344zm0 0" fill="#fcbd4c"/><path d="m149.835938 30.859375h17.773437v17.777344h-17.773437zm0 0" fill="#fcbd4c"/><path d="m185.386719 30.859375h17.777343v17.777344h-17.777343zm0 0" fill="#fcbd4c"/><path d="m132.058594 48.636719h17.777344v17.773437h-17.777344zm0 0" fill="#fcbd4c"/><path d="m167.609375 48.636719h17.777344v17.773437h-17.777344zm0 0" fill="#fcbd4c"/><g fill="#231f20"><path d="m257.46875 509.3125c-2.761719 0-5-2.238281-5-5v-106.089844c0-2.761718 2.238281-5 5-5s5 2.238282 5 5v106.089844c0 2.761719-2.238281 5-5 5zm0 0"/><path d="m63.039062 509.3125c-2.761718 0-5-2.238281-5-5v-106.089844c0-2.761718 2.238282-5 5-5 2.761719 0 5 2.238282 5 5v106.089844c0 2.761719-2.238281 5-5 5zm0 0"/><path d="m196.632812 152.664062c-.792968 0-1.597656-.191406-2.347656-.589843-1.257812-.667969-4.144531-1.34375-7.761718-1.34375-3.613282 0-6.503907.675781-7.761719 1.34375-2.441407 1.296875-5.464844.375-6.761719-2.0625-1.296875-2.441407-.375-5.464844 2.0625-6.765625 3.007812-1.597656 7.546875-2.515625 12.457031-2.515625 4.914063 0 9.457031.917969 12.460938 2.515625 2.4375 1.296875 3.363281 4.324218 2.066406 6.765625-.894531 1.691406-2.625 2.648437-4.414063 2.652343zm0 0"/><path d="m142.289062 152.664062c-.792968 0-1.597656-.191406-2.347656-.589843-1.257812-.667969-4.144531-1.34375-7.761718-1.34375-3.613282 0-6.5.675781-7.757813 1.34375-2.4375 1.296875-5.464844.375-6.765625-2.0625-1.296875-2.4375-.375-5.464844 2.066406-6.765625 3.003906-1.597656 7.542969-2.515625 12.457032-2.515625 4.910156 0 9.453124.917969 12.460937 2.515625 2.4375 1.296875 3.359375 4.324218 2.0625 6.765625-.894531 1.691406-2.625 2.648437-4.414063 2.652343zm0 0"/><path d="m132.988281 172.210938c-3.316406 0-6-2.683594-6-6v-1.105469c0-3.3125 2.683594-6 6-6 3.3125 0 6 2.6875 6 6v1.105469c0 3.316406-2.6875 6-6 6zm0 0"/><path d="m185.972656 173.058594c-3.316406 0-6-2.683594-6-6v-1.105469c0-3.3125 2.683594-6 6-6 3.3125 0 6 2.6875 6 6v1.105469c0 3.316406-2.683594 6-6 6zm0 0"/><path d="m302.355469 511.996094h-284.207031c-4.828126 0-9.503907-2.015625-12.824219-5.523438-3.320313-3.511718-5.070313-8.289062-4.800781-13.113281l9.242187-165.921875c.414063-7.417969 3.195313-14.335938 8.042969-20.003906.125-.148438.265625-.292969.40625-.425782 4.53125-5.125 10.378906-8.703124 16.957031-10.359374l38.613281-9.71875c7.335938-1.84375 14.671875-4.054688 21.808594-6.574219l19.816406-9.769531c3.925782-1.9375 6.363282-5.859376 6.363282-10.234376v-5.625c0-1.664062.828124-3.214843 2.210937-4.148437 1.375-.925781 3.128906-1.109375 4.671875-.480469 7.355469 2.988282 15.121094 4.503906 23.078125 4.503906h16.222656c8.265625 0 16.28125-1.617187 23.832031-4.800781 1.539063-.644531 3.304688-.484375 4.707032.441407 1.394531.929687 2.234375 2.492187 2.234375 4.167968v5.941406c0 4.375 2.441406 8.296876 6.363281 10.234376l20.808594 10.257812c6.453125 2.1875 13.085937 4.140625 19.726562 5.816406l39.707032 9.992188c6.59375 1.660156 12.457031 5.246094 16.988281 10.390625.132812.121093.257812.253906.378906.390625 4.84375 5.671875 7.621094 12.589844 8.039063 20l9.242187 165.925781c.269531 4.824219-1.480469 9.601563-4.800781 13.113281-3.320313 3.507813-7.996094 5.523438-12.828125 5.523438zm-277.273438-197.679688c-3.207031 3.917969-5.050781 8.632813-5.332031 13.675782l-9.242188 165.921874c-.117187 2.125.625 4.144532 2.082032 5.6875 1.460937 1.542969 3.433594 2.394532 5.558594 2.394532h284.207031c2.125 0 4.101562-.851563 5.558593-2.394532 1.460938-1.542968 2.203126-3.5625 2.082032-5.6875l-9.242188-165.921874c-.28125-5.050782-2.128906-9.78125-5.359375-13.707032-.109375-.105468-.214843-.21875-.316406-.335937-3.222656-3.777344-7.4375-6.40625-12.183594-7.597657l-39.707031-9.996093c-7.007812-1.765625-14.011719-3.835938-20.816406-6.152344-.207032-.066406-.40625-.152344-.601563-.246094l-21.097656-10.402343c-7.015625-3.457032-11.5-10.292969-11.910156-18.03125-6.707031 2.042968-13.679688 3.078124-20.804688 3.078124h-16.222656c-6.824219 0-13.523437-.957031-20.003906-2.855468-.488281 7.644531-4.953125 14.378906-11.898438 17.804687l-20.082031 9.902344c-.175781.085937-.355469.164063-.539062.230469-7.519532 2.660156-15.253907 5-22.984376 6.945312l-38.613281 9.71875c-4.746093 1.195313-8.957031 3.820313-12.183593 7.601563-.109376.128906-.222657.253906-.347657.367187zm0 0"/><path d="m186.5625 362.671875h-7.453125c-1.746094 0-3.164063-1.414063-3.164063-3.160156v-7.457031c0-1.746094 1.417969-3.160157 3.164063-3.160157h7.453125c1.746094 0 3.164062 1.414063 3.164062 3.160157v7.457031c0 1.746093-1.414062 3.160156-3.164062 3.160156zm0 0"/><path d="m214.125 362.671875h-7.453125c-1.746094 0-3.164063-1.414063-3.164063-3.160156v-7.457031c0-1.746094 1.417969-3.160157 3.164063-3.160157h7.453125c1.746094 0 3.164062 1.414063 3.164062 3.160157v7.457031c0 1.746093-1.417968 3.160156-3.164062 3.160156zm0 0"/><path d="m241.683594 362.671875h-7.453125c-1.746094 0-3.160157-1.414063-3.160157-3.160156v-7.457031c0-1.746094 1.414063-3.160157 3.160157-3.160157h7.453125c1.746094 0 3.164062 1.414063 3.164062 3.160157v7.457031c0 1.746093-1.417968 3.160156-3.164062 3.160156zm0 0"/><path d="m200.34375 376.453125h-7.453125c-1.746094 0-3.164063-1.417969-3.164063-3.164063v-7.453124c0-1.746094 1.417969-3.160157 3.164063-3.160157h7.453125c1.746094 0 3.160156 1.414063 3.160156 3.160157v7.453124c.003906 1.746094-1.414062 3.164063-3.160156 3.164063zm0 0"/><path d="m227.90625 376.453125h-7.453125c-1.746094 0-3.164063-1.417969-3.164063-3.164063v-7.453124c0-1.746094 1.417969-3.160157 3.164063-3.160157h7.453125c1.746094 0 3.160156 1.414063 3.160156 3.160157v7.453124c0 1.746094-1.414062 3.164063-3.160156 3.164063zm0 0"/><path d="m160.378906 227.054688c-8.871094 0-17.132812-4.394532-22.105468-11.753907-1.542969-2.289062-.941407-5.394531 1.347656-6.941406 2.289062-1.542969 5.394531-.945313 6.941406 1.34375 3.109375 4.601563 8.273438 7.351563 13.816406 7.351563 5.542969 0 10.707032-2.75 13.816406-7.351563 1.546876-2.289063 4.65625-2.890625 6.945313-1.34375 2.289063 1.542969 2.886719 4.65625 1.34375 6.941406-4.972656 7.359375-13.234375 11.753907-22.105469 11.753907zm0 0"/><path d="m160.160156 509.875c-2.761718 0-5-2.238281-5-5v-173.804688c0-2.761718 2.238282-5 5-5 2.761719 0 5 2.238282 5 5v173.804688c0 2.761719-2.238281 5-5 5zm0 0"/><path d="m130.539062 375.570312h-43.457031c-2.761719 0-5-2.234374-5-5 0-2.761718 2.238281-5 5-5h43.457031c2.761719 0 5 2.238282 5 5 0 2.765626-2.242187 5-5 5zm0 0"/><path d="m227.703125 466.425781h-34.355469c-5.808594 0-10.535156-4.726562-10.535156-10.539062v-58.050781c0-5.8125 4.726562-10.539063 10.535156-10.539063h34.355469c5.808594 0 10.539063 4.726563 10.539063 10.539063v58.050781c-.003907 5.8125-4.730469 10.539062-10.539063 10.539062zm-34.355469-69.128906c-.28125 0-.535156.253906-.535156.539063v58.050781c0 .285156.253906.539062.535156.539062h34.355469c.28125 0 .539063-.253906.539063-.539062v-58.050781c0-.285157-.257813-.539063-.539063-.539063zm0 0"/><path d="m126.972656 466.425781h-34.351562c-5.808594 0-10.539063-4.726562-10.539063-10.539062v-58.050781c0-5.8125 4.726563-10.539063 10.539063-10.539063h34.355468c5.808594 0 10.535157 4.726563 10.535157 10.539063v58.050781c0 5.8125-4.726563 10.539062-10.539063 10.539062zm-34.351562-69.128906c-.28125 0-.539063.253906-.539063.539063v58.050781c0 .285156.257813.539062.539063.539062h34.355468c.28125 0 .535157-.253906.535157-.539062v-58.050781c0-.285157-.253907-.539063-.535157-.539063zm0 0"/><path d="m227.703125 422.972656h-34.355469c-5.808594 0-10.535156-4.726562-10.535156-10.535156v-14.605469c0-5.808593 4.726562-10.539062 10.535156-10.539062h34.355469c5.808594 0 10.539063 4.726562 10.539063 10.539062v14.605469c-.003907 5.808594-4.730469 10.535156-10.539063 10.535156zm-34.355469-25.675781c-.28125 0-.535156.253906-.535156.539063v14.601562c0 .285156.25.535156.535156.535156h34.355469c.285156 0 .539063-.25.539063-.535156v-14.601562c0-.285157-.257813-.539063-.539063-.539063zm0 0"/><path d="m126.972656 422.972656h-34.351562c-5.808594 0-10.539063-4.726562-10.539063-10.535156v-14.605469c0-5.808593 4.726563-10.539062 10.539063-10.539062h34.355468c5.808594 0 10.535157 4.726562 10.535157 10.539062v14.605469c0 5.808594-4.726563 10.535156-10.539063 10.535156zm-34.351562-25.675781c-.28125 0-.539063.253906-.539063.539063v14.601562c0 .285156.253907.535156.539063.535156h34.355468c.285157 0 .535157-.25.535157-.535156v-14.601562c0-.285157-.253907-.539063-.535157-.539063zm0 0"/><path d="m85.386719 189.460938c-.085938 0-.175781-.003907-.261719-.007813-17.292969-.914063-30.835938-15.171875-30.835938-32.464844 0-17.285156 13.546876-31.523437 30.84375-32.410156 1.386719-.070313 2.703126.425781 3.699219 1.371094.992188.945312 1.554688 2.253906 1.554688 3.625v54.886719c0 1.371093-.5625 2.683593-1.558594 3.625-.929687.886718-2.164063 1.375-3.441406 1.375zm-5-54c-9.355469 2.761718-16.097657 11.386718-16.097657 21.527343 0 10.152344 6.742188 18.792969 16.097657 21.574219zm0 0"/><path d="m234.304688 189.398438c-1.25 0-2.457032-.464844-3.382813-1.316407-1.03125-.949219-1.617187-2.285156-1.617187-3.683593l.027343-54.78125c.003907-1.394532.589844-2.730469 1.621094-3.671876 1.03125-.949218 2.398437-1.40625 3.800781-1.296874 16.683594 1.417968 29.75 15.625 29.75 32.339843 0 17.019531-12.800781 30.945313-29.773437 32.390625-.144531.011719-.285157.019532-.425781.019532zm5-5h.019531zm.011718-48.632813-.011718 42.496094c8.851562-3.085938 15.199218-11.570313 15.199218-21.273438 0-9.683593-6.34375-18.148437-15.1875-21.222656zm0 0"/><path d="m237.910156 118.8125h-159.453125c-9.980469 0-18.105469-8.121094-18.105469-18.101562v-3.421876c0-9.980468 8.125-18.101562 18.105469-18.101562h159.453125c9.980469 0 18.101563 8.121094 18.101563 18.101562v3.421876c-.003907 9.984374-8.121094 18.101562-18.101563 18.101562zm-159.453125-29.625c-4.46875 0-8.105469 3.632812-8.105469 8.101562v3.425782c0 4.464844 3.636719 8.097656 8.105469 8.097656h159.453125c4.46875 0 8.101563-3.628906 8.101563-8.097656v-3.425782c0-4.464843-3.632813-8.101562-8.101563-8.101562zm0 0"/><path d="m167.960938 264.605469h-16.226563c-39.339844 0-71.34375-32.007813-71.34375-71.347657v-79.445312c0-2.761719 2.238281-5 5-5h148.914063c2.761718 0 5 2.238281 5 5v79.445312c0 39.339844-32.007813 71.347657-71.34375 71.347657zm-77.574219-145.792969v74.445312c0 33.828126 27.519531 61.347657 61.347656 61.347657h16.222656c33.824219 0 61.347657-27.519531 61.347657-61.347657v-74.445312zm0 0"/><path d="m160.253906 138.5625c-31.417968 0-59.769531-7.800781-75.835937-20.871094-1.644531-1.335937-2.265625-3.558594-1.558594-5.554687.710937-1.992188 2.597656-3.324219 4.710937-3.324219h145.367188c2.117188 0 4.003906 1.332031 4.710938 3.324219.707031 1.996093.085937 4.21875-1.558594 5.554687-16.070313 13.070313-44.421875 20.871094-75.835938 20.871094zm-54.222656-19.75c14.550781 6.171875 33.859375 9.75 54.222656 9.75 20.363282 0 39.667969-3.578125 54.21875-9.75zm0 0"/><path d="m250.988281 106.078125c-.792969 0-1.582031-.1875-2.3125-.5625-1.703125-.890625-2.746093-2.675781-2.683593-4.59375 0-.066406.015624-.292969.019531-.363281l-.003907-3.269532c0-4.46875-3.628906-8.101562-8.097656-8.101562h-159.453125c-4.46875 0-8.105469 3.632812-8.105469 8.101562v1.351563c0 1.945313-1.125 3.710937-2.886718 4.535156-1.753906.8125-3.835938.542969-5.328125-.710937-16.425781-13.8125-21.28125-29.609375-13.667969-44.488282 4.953125-9.683593 33.589844-57.976562 111.242188-57.976562 77.648437 0 106.292968 48.292969 111.246093 57.976562 8.109375 15.851563 1.921875 33.023438-16.976562 47.113282-.882813.65625-1.933594.988281-2.992188.988281zm-172.53125-26.890625h159.453125c7.808594 0 14.476563 4.964844 17.007813 11.910156 6.972656-7.0625 12.945312-17.207031 7.136719-28.566406-4.488282-8.769531-30.515626-52.53125-102.34375-52.53125-71.828126 0-97.851563 43.761719-102.339844 52.53125-5.152344 10.078125-1.074219 19.238281 5.074218 26.316406 3.039063-5.742187 9.074219-9.660156 16.011719-9.660156zm0 0"/><path d="m251.898438 143.058594c-1.339844 0-2.652344-.539063-3.613282-1.542969-3.816406-3.984375-8.925781-6.441406-14.378906-6.902344-2.582031-.21875-4.570312-2.378906-4.574219-4.972656l-.027343-15.820313c-.003907-1.324218.523437-2.601562 1.457031-3.539062.9375-.941406 2.210937-1.46875 3.542969-1.46875h3.605468c2.574219 0 5.027344-1.269531 6.5625-3.398438 1.113282-1.542968 2.996094-2.320312 4.886719-2.003906 1.875.316406 3.410156 1.671875 3.957031 3.496094 2.503906 8.371094 3.773438 17.007812 3.773438 25.671875 0 1.765625-.066406 3.660156-.203125 5.804687-.128907 1.976563-1.414063 3.695313-3.28125 4.375-.554688.199219-1.132813.300782-1.707031.300782zm-12.574219-17.6875c2.664062.617187 5.230469 1.566406 7.648437 2.824218-.210937-3.722656-.679687-7.429687-1.414062-11.101562-1.953125.921875-4.066406 1.492188-6.246094 1.664062zm0 0"/><path d="m68.515625 141.503906c-.65625 0-1.316406-.128906-1.941406-.390625-1.777344-.75-2.960938-2.453125-3.050781-4.378906-.0625-1.378906-.109376-2.761719-.109376-4.160156 0-7.484375.949219-14.988281 2.824219-22.292969.40625-1.582031 1.558594-2.867188 3.085938-3.4375 1.523437-.570312 3.238281-.371094 4.585937.554688 1.347656.925781 2.921875 1.414062 4.542969 1.414062h6.933594c2.761719 0 5 2.238281 5 5v15.761719c0 2.660156-2.085938 4.859375-4.742188 4.992187-5.070312.257813-9.976562 2.277344-13.808593 5.675782-.933594.828124-2.117188 1.261718-3.320313 1.261718zm6.175781-23.089844c-.539062 2.964844-.90625 5.953126-1.105468 8.949219 2.179687-.972656 4.460937-1.707031 6.800781-2.179687v-6.371094h-1.933594c-1.273437 0-2.535156-.132812-3.761719-.398438zm0 0"/><path d="m195.746094 336.730469c-.925782 0-1.859375-.257813-2.695313-.792969l-28.976562-18.582031c-1.210938-.777344-2.027344-2.035157-2.246094-3.457031-.214844-1.417969.1875-2.863282 1.113281-3.964844l33.367188-39.832032c1.722656-2.054687 4.761718-2.382812 6.878906-.75.726562.554688 1.332031.949219 1.90625 1.234376l20.792969 10.25c.332031.109374.664062.207031.992187.308593.421875.132813.839844.261719 1.257813.398438 1.488281.492187 2.660156 1.652343 3.167969 3.136719.503906 1.484374.285156 3.121093-.59375 4.417968l-30.820313 45.4375c-.96875 1.425782-2.539063 2.195313-4.144531 2.195313zm-21.492188-24.726563 20.09375 12.886719 24.632813-36.3125-17.769531-8.757813zm0 0"/><path d="m125.367188 336.730469c-1.609376 0-3.1875-.777344-4.148438-2.207031l-30.804688-45.742188c-.871093-1.292969-1.089843-2.914062-.59375-4.390625.5-1.476563 1.65625-2.632813 3.128907-3.132813l.933593-.316406c.574219-.195312 1.144532-.382812 1.714844-.582031l19.808594-9.769531c.6875-.339844 1.394531-.808594 2.15625-1.433594 2.121094-1.726562 5.238281-1.4375 6.996094.660156l33.613281 40.121094c.921875 1.101562 1.328125 2.546875 1.109375 3.964844-.214844 1.421875-1.035156 2.679687-2.242188 3.457031l-28.976562 18.582031c-.835938.53125-1.769531.789063-2.695312.789063zm-23.234376-48.445313 24.644532 36.597656 20.082031-12.875-27.136719-32.394531zm0 0"/><path d="m166.773438 318.144531h-12.433594c-1.476563 0-2.878906-.652343-3.832032-1.789062l-33.609374-40.121094c-.859376-1.023437-1.273438-2.351563-1.148438-3.679687.128906-1.332032.777344-2.554688 1.8125-3.402344 2.675781-2.1875 4.210938-5.394532 4.210938-8.800782v-5.625c0-1.664062.828124-3.214843 2.207031-4.148437 1.378906-.925781 3.128906-1.109375 4.675781-.480469 7.351562 2.988282 15.117188 4.503906 23.078125 4.503906h16.222656c8.261719 0 16.28125-1.617187 23.828125-4.800781 1.542969-.644531 3.308594-.484375 4.707032.441407 1.398437.929687 2.238281 2.492187 2.238281 4.167968v5.941406c0 3.535157 1.625 6.8125 4.460937 9.003907 1.078125.832031 1.773438 2.066406 1.917969 3.421875.144531 1.351562-.265625 2.707031-1.136719 3.75l-33.371094 39.832031c-.945312 1.132813-2.351562 1.785156-3.828124 1.785156zm-10.097657-10h7.761719l28.925781-34.527343c-2.742187-3.4375-4.359375-7.632813-4.601562-12.09375-6.707031 2.042968-13.679688 3.078124-20.800781 3.078124h-16.222657c-6.824219 0-13.527343-.957031-20.007812-2.855468-.273438 4.195312-1.777344 8.175781-4.296875 11.488281zm0 0"/><path d="m197.65625 219.078125c-2.234375 0-4.503906-.648437-6.566406-1.984375-8.417969-5.453125-20.101563-6.296875-26.316406-6.3125-5.25-.011719-9.519532-4.289062-9.519532-9.53125v-4.945312c0-3.457032 1.367188-6.6875 3.839844-9.101563 2.507812-2.4375 5.808594-3.726563 9.34375-3.636719 17.039062.46875 29.921875 5.753906 38.296875 15.710938 3.925781 4.660156 3.839844 11.117187-.203125 15.699218-2.382812 2.703126-5.59375 4.101563-8.875 4.101563zm-32.402344-18.296875c7.421875.066406 20.921875 1.214844 31.273438 7.917969.933594.605469 1.777344.492187 2.507812-.335938.433594-.492187 1.019532-1.492187.046875-2.648437-6.457031-7.675782-16.859375-11.761719-30.914062-12.148438-.835938-.007812-1.542969.269532-2.097657.804688-.304687.296875-.816406.945312-.816406 1.933594zm0 0"/><path d="m122.84375 219.078125c-3.277344 0-6.488281-1.398437-8.867188-4.097656-4.046874-4.582031-4.128906-11.042969-.207031-15.707031 8.378907-9.957032 21.261719-15.238282 38.296875-15.707032 3.511719-.121094 6.835938 1.199219 9.34375 3.636719 2.476563 2.410156 3.839844 5.640625 3.839844 9.097656v4.945313c0 5.242187-4.273438 9.519531-9.523438 9.53125-6.214843.019531-17.894531.863281-26.3125 6.316406-2.0625 1.335938-4.332031 1.984375-6.570312 1.984375zm29.578125-25.515625c-.027344 0-.050781 0-.082031 0-14.054688.386719-24.457032 4.476562-30.914063 12.148438-.972656 1.15625-.386719 2.160156.046875 2.652343.730469.828125 1.574219.941407 2.507813.335938 10.351562-6.707031 23.851562-7.855469 31.273437-7.917969v-4.480469c0-.988281-.511718-1.632812-.816406-1.929687-.539062-.519532-1.25-.808594-2.015625-.808594zm0 0"/><path d="m132.058594 53.636719h-17.777344c-2.761719 0-5-2.238281-5-5v-17.777344c0-2.761719 2.238281-5 5-5h17.777344c2.761718 0 5 2.238281 5 5v17.777344c0 2.761719-2.238282 5-5 5zm-12.773438-10h7.777344v-7.777344h-7.777344zm0 0"/><path d="m167.609375 53.636719h-17.773437c-2.761719 0-5-2.238281-5-5v-17.777344c0-2.761719 2.238281-5 5-5h17.773437c2.765625 0 5 2.238281 5 5v17.777344c0 2.761719-2.234375 5-5 5zm-12.773437-10h7.773437v-7.777344h-7.773437zm0 0"/><path d="m203.164062 53.636719h-17.777343c-2.761719 0-5-2.238281-5-5v-17.777344c0-2.761719 2.238281-5 5-5h17.777343c2.761719 0 5 2.238281 5 5v17.777344c0 2.761719-2.238281 5-5 5zm-12.777343-10h7.777343v-7.777344h-7.777343zm0 0"/><path d="m149.835938 71.410156h-17.777344c-2.761719 0-5-2.234375-5-5v-17.773437c0-2.761719 2.238281-5 5-5h17.777344c2.761718 0 5 2.238281 5 5v17.773437c0 2.765625-2.238282 5-5 5zm-12.777344-10h7.777344v-7.773437h-7.777344zm0 0"/><path d="m185.386719 71.410156h-17.777344c-2.761719 0-5-2.234375-5-5v-17.773437c0-2.761719 2.238281-5 5-5h17.777344c2.761719 0 5 2.238281 5 5v17.773437c0 2.765625-2.238281 5-5 5zm-12.777344-10h7.78125v-7.773437h-7.78125zm0 0"/></g></svg>