<svg height="511pt" viewBox="-62 0 511 511.89094" width="511pt" xmlns="http://www.w3.org/2000/svg"><path d="m382.730469 492.871094-9.699219-174.140625c-.734375-13.148438-9.933594-24.296875-22.703125-27.511719l-41.671875-10.488281c-7.007812-1.761719-13.941406-3.816407-20.789062-6.125l-29.5 44.25-3.832032-2.378907c9.660156 9.832032 15.609375 23.234376 17.828125 28.875.605469 1.542969.054688 3.292969-1.324219 4.210938-1.1875.789062-1.777343 2.21875-1.5 3.617188l.421876 2.109374c.320312 1.585938-.488282 3.1875-1.953126 3.875l-12.832031 6.039063c-4.082031 1.917969-8.945312-.53125-9.683593-4.980469-2.316407-13.925781-9.226563-27.613281-14.691407-36.753906.070313-.039062.128907-.085938.195313-.125-3 1.722656-6.46875 2.722656-10.183594 2.722656-3.957031 0-7.648438-1.128906-10.78125-3.070312-5.507812 9.140625-12.617188 23.0625-14.972656 37.226562-.738282 4.449219-5.601563 6.898438-9.683594 4.980469l-12.832031-6.039063c-1.464844-.6875-2.269531-2.289062-1.953125-3.875l.421875-2.109374c.277343-1.398438-.3125-2.828126-1.5-3.617188-1.378907-.917969-1.929688-2.667969-1.320313-4.210938 2.363282-6.019531 8.980469-20.886718 19.828125-30.8125l-5.726562 3.378907-29.070313-43.605469c-7.351562 2.558594-14.8125 4.804688-22.363281 6.707031l-40.527344 10.199219c-12.769531 3.214844-21.96875 14.363281-22.703125 27.511719l-5.078125 91.1875c10.679688-5.921875 22.636719-9.808594 35.371094-11.101563v-8.574218c0-5.222657 4.234375-9.457032 9.457031-9.457032s9.457032 4.234375 9.457032 9.457032v8.574218c45.746093 4.640625 81.625 42.558594 83.132812 89.167969 5.171875.0625 9.347656 4.261719 9.347656 9.445313 0 5.226562-4.234375 9.460937-9.457031 9.460937h169.609375c7.628906 0 13.6875-6.40625 13.261719-14.019531zm0 0" fill="#3f3f3f"/><path d="m287.21875 274.398438-18.433594-9.089844-3.710937-1.828125c-1.492188-.738281-2.84375-1.679688-4.035157-2.773438l-32.960937 39.34375 30.292969 18.800781 29.5-44.25c-.21875-.070312-.4375-.128906-.652344-.203124zm0 0" fill="#515050"/><path d="m179.957031 260.359375c-1.273437 1.238281-2.726562 2.3125-4.371093 3.121094l-2.730469 1.347656-18.34375 9.042969c-.429688.152344-.859375.289062-1.289063.441406l29.074219 43.605469 30.703125-18.117188zm0 0" fill="#515050"/><path d="m272.363281 345.347656c-2.21875-5.640625-8.167969-19.042968-17.828125-28.871094l-13.363281-8.296874c-.855469 6.582031-4.808594 12.183593-10.367187 15.285156 5.464843 9.140625 12.375 22.828125 14.6875 36.753906.742187 4.449219 5.605468 6.902344 9.683593 4.980469l12.835938-6.039063c1.464843-.6875 2.269531-2.285156 1.953125-3.871094l-.421875-2.113281c-.28125-1.398437.308593-2.824219 1.496093-3.613281 1.378907-.921875 1.929688-2.671875 1.324219-4.214844zm0 0" fill="#e04e36"/><path d="m200.351562 307.261719-12.332031 7.277343c-10.84375 9.925782-17.460937 24.789063-19.828125 30.808594-.605468 1.542969-.054687 3.292969 1.324219 4.214844 1.1875.789062 1.777344 2.214844 1.496094 3.613281l-.421875 2.113281c-.316406 1.585938.488281 3.183594 1.953125 3.871094l12.835937 6.039063c4.082032 1.921875 8.941406-.53125 9.683594-4.980469 2.355469-14.164062 9.46875-28.097656 14.976562-37.230469-5.390624-3.335937-9.125-9.070312-9.6875-15.726562zm0 0" fill="#e04e36"/><path d="m228.078125 300.050781c-2.265625-1.355469-4.910156-2.148437-7.746094-2.148437-2.660156 0-5.160156.691406-7.332031 1.898437l-12.640625 7.460938c.886719 10.527343 9.699219 18.800781 20.457031 18.800781 10.445313 0 19.050782-7.800781 20.355469-17.886719zm0 0" fill="#e04e36"/><path d="m325.613281 248.890625c-26.714843-56.554687 26.714844-129.863281-6.164062-192.703125-32.878907-62.835938-98.636719-50.265625-98.636719-50.265625s-65.753906-12.566406-98.632812 50.269531c-32.875 62.835938 20.550781 136.144532-6.164063 192.699219-6.097656 12.917969-6.824219 25.390625-4.339844 36.957031l19.1875-4.828125c7.550781-1.902343 15.011719-4.148437 22.363281-6.707031.425782-.152344.859376-.289062 1.285157-.441406l18.347656-9.042969 2.730469-1.347656c1.644531-.808594 3.09375-1.882813 4.371094-3.121094h-.003907c3.28125-3.191406 5.242188-7.601563 5.242188-12.328125v-11.523438l1.417969 1.382813c8.613281 8.386719 20.164062 13.085937 32.1875 13.085937.242187 0 4.804687 0 4.660156 0 11.941406 0 23.410156-4.644531 32.003906-12.925781v9.980469c0 4.894531 2.078125 9.464844 5.570312 12.679688 1.191407 1.09375 2.542969 2.035156 4.035157 2.773437l3.710937 1.828125 18.433594 9.089844c.214844.074218.433594.132812.648438.203125 6.847656 2.3125 13.78125 4.363281 20.789062 6.128906l21.238281 5.34375c2.550781-11.632813 1.859375-24.1875-4.28125-37.1875zm0 0" fill="#7c292e"/><path d="m294.539062 108.183594c-10.707031-2.371094-28.628906-10.449219-38.558593-37.722656-.613281-1.691407-2.835938-2.046876-3.921875-.613282-7.105469 9.390625-29.835938 33.621094-73.78125 31.125-14.378906-.816406-24.675782 3.90625-30.785156 9.875l-5.332032 60.644532c-1.246094 13.394531 3.628906 26.632812 13.265625 36.019531l31.191407 30.378906c8.613281 8.386719 20.160156 13.082031 32.1875 13.082031.242187 0 4.800781 0 4.65625 0 12.023437 0 23.574218-4.695312 32.1875-13.082031l31.191406-30.378906c9.636718-9.386719 14.511718-22.625 13.261718-36.019531zm0 0" fill="#fcb275"/><path d="m147.277344 113.304688c-.460938-.027344-.914063-.070313-1.382813-.070313-13.546875 0-24.527343 10.984375-24.527343 24.527344 0 12.5625 9.445312 22.902343 21.621093 24.339843zm0 0" fill="#fcb275"/><path d="m295.109375 113.238281c-.042969 0-.082031.003907-.128906.003907l4.28125 48.675781c11.566406-1.976563 20.378906-12.023438 20.378906-24.152344-.003906-13.546875-10.984375-24.527344-24.53125-24.527344zm0 0" fill="#fcb275"/><path d="m255.46875 238.050781c-8.597656 8.28125-20.066406 12.921875-32.007812 12.921875.144531 0-4.414063 0-4.65625 0-12.023438 0-23.574219-4.695312-32.1875-13.082031l-1.421876-1.382813v11.519532c0 4.726562-1.957031 9.140625-5.238281 12.332031l33.039063 39.441406c2.175781-1.207031 4.671875-1.898437 7.335937-1.898437 2.835938 0 5.476563.792968 7.746094 2.148437l32.960937-39.34375c-3.496093-3.210937-5.570312-7.785156-5.570312-12.675781zm0 0" fill="#fcb275"/><path d="m199.859375 506.890625h-184.957031c-5.222656 0-9.457032-4.234375-9.457032-9.457031 0-5.226563 4.234376-9.457032 9.457032-9.457032h184.957031c5.222656 0 9.457031 4.230469 9.457031 9.457032 0 5.222656-4.234375 9.457031-9.457031 9.457031zm0 0" fill="#f9d498"/><path d="m14.902344 487.976562h184.957031c.039063 0 .070313.007813.109375.011719-1.605469-49.78125-42.417969-89.652343-92.585938-89.652343-50.171874 0-90.980468 39.871093-92.589843 89.652343.039062-.003906.074219-.011719.109375-.011719zm0 0" fill="#fcbd4c"/><path d="m107.382812 398.335938c3.191407 0 6.347657.164062 9.457032.480468v-8.574218c0-5.226563-4.234375-9.460938-9.457032-9.460938-5.226562 0-9.460937 4.234375-9.460937 9.460938v8.574218c3.113281-.316406 6.269531-.480468 9.460937-.480468zm0 0" fill="#f9d498"/><g fill="#231f20"><path d="m323.691406 509.035156c-2.761718 0-5-2.234375-5-5v-112.789062c0-2.761719 2.238282-5 5-5 2.761719 0 5 2.238281 5 5v112.789062c0 2.765625-2.238281 5-5 5zm0 0"/><path d="m219.976562 354.871094c-.316406 0-.660156-.039063-.976562-.097656-.320312-.058594-.621094-.160157-.921875-.28125-.320313-.140626-.601563-.277344-.878906-.460938-.257813-.179688-.519531-.398438-.757813-.617188-.222656-.242187-.441406-.5-.625-.761718-.179687-.28125-.316406-.558594-.457031-.878906-.121094-.300782-.21875-.601563-.28125-.921876-.058594-.320312-.101563-.660156-.101563-.980468 0-1.316406.542969-2.597656 1.460938-3.539063.238281-.21875.5-.4375.761719-.617187.277343-.183594.558593-.34375.878906-.460938.296875-.121094.597656-.222656.917969-.28125.640625-.140625 1.320312-.140625 1.960937 0 .320313.058594.636719.160156.9375.28125.300781.117188.582031.277344.863281.460938.28125.179687.519532.398437.757813.617187.941406.941407 1.460937 2.222657 1.460937 3.539063 0 .320312-.019531.660156-.101562.980468-.058594.320313-.160156.621094-.28125.921876-.121094.320312-.28125.597656-.457031.878906-.179688.261718-.402344.519531-.621094.761718-.238281.21875-.480469.4375-.761719.617188-.28125.183594-.558594.320312-.859375.460938-.300781.121093-.621093.222656-.941406.28125-.3125.058593-.652344.097656-.976563.097656zm0 0"/><path d="m219.976562 387.132812c-.316406 0-.660156-.019531-.976562-.101562-.320312-.058594-.621094-.160156-.921875-.277344-.320313-.121094-.601563-.28125-.878906-.460937-.257813-.179688-.519531-.378907-.757813-.621094-.921875-.917969-1.460937-2.21875-1.460937-3.539063 0-.320312.039062-.640624.101562-.960937.058594-.320313.15625-.640625.28125-.9375.136719-.300781.277344-.601563.457031-.863281.179688-.277344.398438-.539063.621094-.757813.238282-.242187.5-.441406.761719-.621093.277344-.179688.558594-.339844.878906-.460938.296875-.136719.597657-.21875.917969-.296875.660156-.121094 1.320312-.121094 1.960938 0 .320312.078125.636718.160156.9375.296875.300781.121094.582031.28125.863281.460938.28125.179687.519531.378906.757812.621093.21875.21875.441407.480469.621094.757813.179687.261718.339844.5625.460937.863281.121094.296875.21875.617187.28125.9375.078126.320313.097657.640625.097657.960937 0 1.320313-.519531 2.621094-1.457031 3.539063-.238282.242187-.480469.441406-.761719.621094-.28125.179687-.558594.339843-.859375.460937-.300782.117188-.621094.21875-.941406.277344-.320313.082031-.660157.101562-.984376.101562zm0 0"/><path d="m219.976562 419.414062c-.316406 0-.660156-.042968-.976562-.101562-.320312-.058594-.621094-.160156-.921875-.28125-.320313-.117188-.601563-.277344-.878906-.457031-.257813-.179688-.519531-.402344-.757813-.621094-.222656-.238281-.441406-.5-.625-.761719-.179687-.277344-.316406-.558594-.457031-.859375-.121094-.320312-.21875-.617187-.28125-.9375-.058594-.320312-.101563-.660156-.101563-.980469 0-.320312.042969-.660156.101563-.980468.058594-.320313.160156-.640625.28125-.941406.140625-.300782.28125-.578126.457031-.859376.183594-.28125.402344-.519531.625-.761718.238282-.21875.5-.4375.757813-.617188.28125-.179687.558593-.339844.878906-.460937.300781-.121094.601563-.21875.921875-.28125.636719-.140625 1.316406-.140625 1.957031 0 .320313.0625.640625.160156.941407.28125.300781.121093.578124.28125.859374.460937.28125.179688.523438.398438.761719.617188.21875.242187.441407.480468.621094.761718s.339844.558594.457031.859376c.121094.300781.21875.621093.28125.941406.082032.320312.101563.660156.101563.980468 0 .320313-.019531.660157-.101563.980469-.058594.320313-.160156.617188-.28125.9375-.121094.300781-.28125.582031-.457031.859375-.179687.261719-.402344.523438-.621094.761719-.238281.21875-.480469.441406-.761719.621094-.28125.179687-.558593.339843-.859374.457031-.300782.121094-.621094.222656-.941407.28125-.316406.058594-.65625.101562-.980469.101562zm0 0"/><path d="m219.976562 451.671875c-.316406 0-.660156-.019531-.976562-.078125-.320312-.082031-.621094-.160156-.921875-.300781-.320313-.121094-.601563-.28125-.878906-.460938-.257813-.179687-.519531-.378906-.757813-.617187-.921875-.921875-1.460937-2.222656-1.460937-3.523438 0-.339844.039062-.660156.101562-.976562.058594-.320313.15625-.640625.28125-.941406.136719-.300782.277344-.601563.457031-.859376.179688-.28125.398438-.542968.621094-.761718.238282-.238282.5-.4375.761719-.621094.277344-.179688.558594-.339844.878906-.457031.296875-.140625.597657-.222657.917969-.300781.660156-.121094 1.320312-.121094 1.960938 0 .320312.078124.636718.160156.9375.300781.300781.117187.582031.277343.863281.457031.28125.183594.519531.382812.757812.621094.21875.21875.441407.480468.621094.761718.179687.257813.339844.558594.460937.859376.121094.300781.21875.621093.28125.941406.078126.316406.097657.636718.097657.976562 0 1.300782-.519531 2.601563-1.457031 3.523438-.238282.238281-.480469.4375-.761719.617187-.28125.179688-.558594.339844-.859375.460938-.300782.140625-.621094.21875-.941406.300781-.320313.058594-.660157.078125-.984376.078125zm0 0"/><path d="m219.976562 483.953125c-.316406 0-.660156-.039063-.976562-.101563-.320312-.058593-.621094-.160156-.921875-.277343-.320313-.121094-.601563-.28125-.878906-.460938-.257813-.179687-.519531-.398437-.757813-.621093-.222656-.238282-.441406-.5-.625-.757813-.179687-.28125-.316406-.5625-.457031-.863281-.121094-.296875-.21875-.617188-.28125-.9375-.058594-.320313-.101563-.660156-.101563-.980469s.042969-.660156.101563-.980469c.058594-.320312.160156-.640625.28125-.941406.140625-.296875.28125-.578125.457031-.859375.183594-.257813.402344-.519531.625-.757813.238282-.222656.5-.441406.757813-.621093.28125-.179688.558593-.320313.878906-.460938.300781-.117187.601563-.21875.921875-.277343.636719-.121094 1.316406-.121094 1.957031 0 .320313.058593.640625.160156.941407.277343.300781.140625.578124.28125.859374.460938.28125.179687.523438.398437.761719.621093.21875.238282.441407.5.621094.757813.179687.28125.339844.5625.457031.859375.121094.300781.21875.621094.28125.941406.082032.320313.101563.660156.101563.980469s-.019531.660156-.101563.980469c-.058594.320312-.160156.640625-.28125.9375-.121094.300781-.28125.582031-.457031.863281-.179687.257813-.402344.519531-.621094.757813-.238281.222656-.480469.441406-.761719.621093-.28125.179688-.558593.339844-.859374.460938-.300782.117187-.621094.21875-.941407.277343-.316406.0625-.65625.101563-.980469.101563zm0 0"/><path d="m221.160156 212.730469c-6.253906 0-12.1875-2.300781-15.867187-6.15625-1.90625-2-1.832031-5.164063.164062-7.070313 1.996094-1.90625 5.164063-1.835937 7.070313.164063 1.800781 1.886719 5.109375 3.0625 8.632812 3.0625 3.519532 0 6.828125-1.175781 8.632813-3.0625 1.910156-2 5.078125-2.070313 7.070312-.164063 1.996094 1.910156 2.066407 5.074219.160157 7.070313-3.679688 3.855469-9.609376 6.15625-15.863282 6.15625zm0 0"/><path d="m259.089844 139.476562c-.789063 0-1.59375-.191406-2.34375-.585937-1.203125-.640625-4.011719-1.386719-7.972656-1.386719-3.960938 0-6.773438.746094-7.972657 1.386719-2.4375 1.292969-5.464843.371094-6.761719-2.066406-1.296874-2.4375-.375-5.46875 2.0625-6.761719 3.054688-1.628906 7.675782-2.558594 12.671876-2.558594 4.996093 0 9.617187.929688 12.671874 2.558594 2.4375 1.292969 3.363282 4.324219 2.0625 6.761719-.894531 1.6875-2.625 2.652343-4.417968 2.652343zm0 0"/><path d="m203.609375 139.476562c-.792969 0-1.597656-.191406-2.34375-.585937-1.203125-.640625-4.011719-1.386719-7.972656-1.386719-3.964844 0-6.773438.746094-7.976563 1.386719-2.4375 1.296875-5.464844.371094-6.761718-2.066406-1.296876-2.4375-.371094-5.46875 2.066406-6.761719 3.054687-1.628906 7.675781-2.558594 12.671875-2.558594 4.996093 0 9.613281.929688 12.667969 2.558594 2.4375 1.292969 3.363281 4.324219 2.066406 6.761719-.898438 1.6875-2.628906 2.652343-4.417969 2.652343zm0 0"/><path d="m194.113281 159.414062c-3.3125 0-6-2.683593-6-6v-1.128906c0-3.3125 2.6875-6 6-6s6 2.6875 6 6v1.128906c.003907 3.3125-2.6875 6-6 6zm0 0"/><path d="m248.210938 160.277344c-3.316407 0-6-2.683594-6-6v-1.125c0-3.316406 2.683593-6 6-6 3.3125 0 6 2.683594 6 6v1.125c0 3.316406-2.6875 6-6 6zm0 0"/><path d="m369.472656 511.890625h-169.613281c-2.761719 0-5-2.238281-5-5s2.238281-5 5-5c2.457031 0 4.457031-2 4.457031-4.457031 0-2.425782-1.976562-4.417969-4.40625-4.445313-2.675781-.035156-4.851562-2.164062-4.9375-4.839843-1.414062-43.683594-35.21875-79.953126-78.636718-84.355469-2.550782-.257813-4.496094-2.40625-4.496094-4.972657v-8.574218c0-2.460938-2-4.460938-4.457032-4.460938-2.460937 0-4.460937 2-4.460937 4.460938v8.574218c0 2.566407-1.941406 4.714844-4.496094 4.972657-11.785156 1.195312-23.039062 4.726562-33.449219 10.496093-1.59375.882813-3.539062.832032-5.082031-.132812-1.542969-.96875-2.4375-2.699219-2.335937-4.515625l5.082031-91.1875c.855469-15.417969 11.496094-28.308594 26.472656-32.082031l40.527344-10.199219c7.289063-1.835937 14.671875-4.050781 21.9375-6.582031 2.148437-.75 4.539063.050781 5.804687 1.949218l26.445313 39.667969 1.648437-.972656c2.207032-1.304687 5.039063-.726563 6.5625 1.332031 1.519532 2.058594 1.246094 4.933594-.644531 6.664063-9.542969 8.734375-15.628906 21.757812-18.140625 27.921875 2.222656 1.992187 3.257813 5.011718 2.660156 8.003906l-.195312.976562 11.785156 5.542969c.78125.371094 1.457032.09375 1.707032-.039062.355468-.1875.800781-.550781.914062-1.238281 2.480469-14.910157 9.863281-29.425782 15.621094-38.984376.6875-1.144531 1.808594-1.964843 3.109375-2.277343 1.296875-.3125 2.667969-.097657 3.804687.609375 4.730469 2.925781 10.964844 3.050781 15.828125.269531.023438-.011719.046875-.027344.074219-.039063 2.394531-1.335937 5.433594-.488281 6.785156 1.90625.242188.429688.414063.875.519532 1.332032 5.515624 9.429687 12.21875 23.136718 14.554687 37.1875.117187.6875.558594 1.050781.914063 1.238281.257812.132813.9375.40625 1.710937.039063l11.78125-5.542969-.191406-.972657c-.601563-2.996093.433593-6.015624 2.65625-8.007812-2.296875-5.636719-7.785157-17.476562-16.328125-26.167969-1.773438-1.804687-1.917969-4.652343-.335938-6.628906 1.511719-1.886719 4.140625-2.417969 6.253906-1.289063l26.824219-40.230468c1.253907-1.882813 3.617188-2.6875 5.757813-1.964844 6.796875 2.292969 13.664062 4.316406 20.410156 6.015625l41.671875 10.488281c14.972656 3.769532 25.613281 16.660156 26.472656 32.082032l9.703125 174.140624c.277344 4.996094-1.535156 9.945313-4.972656 13.578126-3.433594 3.628906-8.277344 5.710937-13.277344 5.710937zm-155.855468-10h155.855468c2.296875 0 4.4375-.917969 6.015625-2.589844 1.582031-1.667969 2.378907-3.851562 2.253907-6.148437l-9.703126-174.140625c-.613281-11.027344-8.222656-20.246094-18.929687-22.941407l-41.675781-10.492187c-5.789063-1.457031-11.667969-3.144531-17.515625-5.03125l-26.078125 39.113281c7.011718 9.261719 11.394531 19.332032 13.175781 23.859375 1.328125 3.378907.320313 7.253907-2.390625 9.582031l.242188 1.207032c.769531 3.851562-1.175782 7.707031-4.726563 9.375l-12.832031 6.042968c-3.410156 1.601563-7.277344 1.515626-10.613282-.234374-3.292968-1.726563-5.53125-4.808594-6.132812-8.453126-1.894531-11.386718-7.125-22.742187-11.867188-31.230468-5.390624 1.757812-11.375 1.636718-16.664062-.308594-4.824219 8.585938-10.125 20.042969-12.039062 31.539062-.605469 3.644532-2.84375 6.726563-6.132813 8.453126-3.339844 1.75-7.207031 1.835937-10.613281.234374l-12.832032-6.039062c-3.550781-1.671875-5.496093-5.527344-4.726562-9.375l.242188-1.207031c-2.710938-2.328125-3.71875-6.203125-2.390626-9.585938 1.875-4.773437 6.375-15.039062 13.566407-24.371093l-25.90625-38.863282c-6.351563 2.113282-12.765625 3.984375-19.117188 5.582032l-40.523437 10.203124c-10.710938 2.695313-18.320313 11.917969-18.933594 22.941407l-4.601562 82.605469c7.953124-3.519532 16.289062-5.933594 24.902343-7.210938v-4.160156c0-7.972656 6.484375-14.457032 14.457031-14.457032 7.972657 0 14.457032 6.484376 14.457032 14.457032v4.164062c44.894531 6.675782 79.59375 44.066406 82.917968 89.4375 5.5625 2.019532 9.5625 7.371094 9.5625 13.589844-.003906 1.550781-.25 3.046875-.703124 4.453125zm0 0"/><path d="m258.367188 323.855469c-.902344 0-1.8125-.246094-2.632813-.753907l-30.292969-18.800781c-1.230468-.765625-2.070312-2.027343-2.300781-3.457031-.226563-1.429688.175781-2.890625 1.105469-4.003906l32.960937-39.339844c.875-1.046875 2.144531-1.691406 3.507813-1.777344 1.351562-.097656 2.703125.382813 3.707031 1.304688.867187.796875 1.828125 1.460937 2.867187 1.96875l22.195313 10.875c1.46875.5 2.625 1.65625 3.121094 3.125.5 1.472656.289062 3.089844-.574219 4.378906l-29.5 44.25c-.964844 1.445312-2.550781 2.226562-4.164062 2.230469zm-22.753907-25.011719 21.28125 13.210938 23.597657-35.398438-17.625-8.691406c-.324219-.160156-.644532-.328125-.960938-.503906zm0 0"/><path d="m182.300781 322.917969c-1.621093 0-3.207031-.785157-4.164062-2.226563l-29.074219-43.609375c-.855469-1.285156-1.070312-2.898437-.578125-4.363281s1.632813-2.621094 3.09375-3.128906l1.007813-.34375 20.792968-10.25c1.089844-.542969 2.132813-1.289063 3.09375-2.222656 1-.964844 2.355469-1.488282 3.742188-1.40625 1.386718.070312 2.683594.714843 3.578125 1.78125l33.039062 39.441406c.945313 1.125 1.34375 2.609375 1.09375 4.058594-.246093 1.445312-1.121093 2.710937-2.382812 3.457031l-30.703125 18.117187c-.796875.46875-1.675782.695313-2.539063.695313zm-21.660156-46.492188 23.1875 34.78125 21.550781-12.714843-26.203125-31.273438c-.449219.265625-.910156.515625-1.375.746094zm0 0"/><path d="m252.230469 370.867188c-1.898438 0-3.789063-.457032-5.539063-1.375-3.292968-1.726563-5.527344-4.808594-6.132812-8.453126-2.1875-13.171874-8.847656-26.308593-14.046875-35.007812-.695313-1.160156-.886719-2.550781-.539063-3.859375s1.210938-2.417969 2.394532-3.074219c4.28125-2.386718 7.210937-6.710937 7.84375-11.566406.21875-1.683594 1.28125-3.140625 2.816406-3.871094 1.535156-.726562 3.335937-.625 4.78125.269532l13.363281 8.296874c.335937.207032.648437.457032.929687.742188 10.394532 10.578125 16.6875 24.882812 18.910157 30.546875 1.332031 3.386719.324219 7.257813-2.386719 9.585937l.242188 1.207032c.769531 3.851562-1.175782 7.707031-4.726563 9.375l-12.832031 6.042968c-1.625.761719-3.351563 1.140626-5.078125 1.140626zm-14.816407-45.953126c5.164063 9.246094 10.890626 21.726563 13.007813 34.484376.117187.6875.5625 1.050781.914063 1.238281.257812.132812.941406.40625 1.710937.039062l11.785156-5.542969-.195312-.972656c-.597657-2.996094.433593-6.015625 2.660156-8.007812-2.261719-5.542969-7.609375-17.097656-15.921875-25.75l-7.242188-4.496094c-1.542968 3.445312-3.835937 6.535156-6.71875 9.007812zm30.296876 22.265626h.019531zm0 0"/><path d="m188.324219 370.867188c-1.726563 0-3.453125-.378907-5.078125-1.140626l-12.832032-6.042968c-3.550781-1.671875-5.496093-5.527344-4.722656-9.375l.238282-1.207032c-2.710938-2.328124-3.71875-6.199218-2.390626-9.582031 2.460938-6.269531 9.453126-22.003906 21.109376-32.667969.253906-.234374.535156-.441406.832031-.617187l12.332031-7.28125c1.484375-.875 3.308594-.925781 4.835938-.132813 1.527343.789063 2.542968 2.304688 2.6875 4.019532.410156 4.863281 3.152343 9.308594 7.332031 11.890625 2.328125 1.441406 3.066406 4.488281 1.652343 6.835937-5.308593 8.808594-12.105468 22.113282-14.324218 35.46875-.609375 3.648438-2.84375 6.730469-6.132813 8.457032-1.75.917968-3.644531 1.375-5.539062 1.375zm-12.601563-15.734376 11.785156 5.542969c.78125.371094 1.457032.09375 1.707032-.039062.355468-.1875.800781-.554688.914062-1.242188 2.167969-13.027343 8.074219-25.75 13.371094-35.132812-2.792969-2.585938-4.976562-5.769531-6.386719-9.28125l-6.085937 3.589843c-9.328125 8.730469-15.289063 21.492188-17.769532 27.578126 2.222657 1.988281 3.257813 5.007812 2.664063 8zm0 0"/><path d="m220.8125 331.0625c-13.15625 0-24.332031-10.269531-25.441406-23.378906-.164063-1.914063.785156-3.753906 2.441406-4.730469l12.644531-7.460937c6.378907-3.542969 14.113281-3.363282 20.183594.265624.027344.011719.050781.027344.074219.042969l13.09375 8.125c1.664062 1.035157 2.574218 2.949219 2.320312 4.894531-1.648437 12.679688-12.53125 22.242188-25.316406 22.242188zm-14.925781-21.257812c1.878906 6.503906 7.945312 11.257812 14.929687 11.257812 6.722656 0 12.585938-4.347656 14.695313-10.515625l-10.03125-6.222656c-3.078125-1.828125-6.960938-1.871094-10.054688-.152344zm0 0"/><path d="m329.898438 291.078125c-.410157 0-.820313-.050781-1.222657-.152344l-21.242187-5.347656c-6.996094-1.761719-14.117188-3.859375-21.164063-6.238281l-.664062-.210938c-.207031-.070312-.402344-.152344-.597657-.246094l-22.140624-10.917968c-1.890626-.933594-3.644532-2.132813-5.210938-3.574219-4.511719-4.148437-7.121094-10.015625-7.183594-16.128906-8.042968 5.023437-17.34375 7.714843-27.011718 7.714843h-4.65625c-10.328126 0-20.21875-3.058593-28.605469-8.738281v.792969c0 5.941406-2.464844 11.742188-6.753907 15.914062-1.710937 1.664063-3.613281 3.019532-5.644531 4.019532l-21.078125 10.390625c-.175781.085937-.355468.164062-.542968.230469l-1.308594.449218c-7.550782 2.628906-15.21875 4.929688-22.789063 6.832032l-19.183593 4.832031c-1.316407.332031-2.710938.113281-3.859376-.601563-1.152343-.714844-1.964843-1.871094-2.25-3.195312-2.960937-13.757813-1.375-27.265625 4.707032-40.144532 12.070312-25.554687 6.777344-55.148437 1.171875-86.480468-6.339844-35.421875-12.890625-72.046875 5.082031-106.402344 32.023438-61.203125 94.640625-54.25 103.0625-53.011719 8.425781-1.242187 71.042969-8.1875 103.0625 53.011719 17.972656 34.355469 11.421875 70.980469 5.085938 106.402344-5.605469 31.332031-10.898438 60.921875 1.171874 86.480468 6.121094 12.957032 7.683594 26.546876 4.648438 40.394532-.292969 1.320312-1.105469 2.464844-2.253906 3.179687-.796875.488281-1.707032.746094-2.628906.746094zm-40.800782-21.328125.382813.121094c6.785156 2.289062 13.648437 4.3125 20.394531 6.011718l16.007812 4.027344c1.210938-9.878906-.394531-19.570312-4.792968-28.882812-13.433594-28.445313-7.609375-61.015625-1.96875-92.515625 6.039062-33.765625 12.285156-68.679688-4.105469-100-30.796875-58.871094-92.644531-47.792969-93.261719-47.675781-.621094.117187-1.257812.117187-1.878906 0-2.535156-.480469-62.566406-11-93.261719 47.675781-16.390625 31.320312-10.140625 66.234375-4.101562 100 5.636719 31.5 11.460937 64.070312-1.972657 92.515625-4.367187 9.242187-5.980468 18.855468-4.828124 28.648437l13.929687-3.503906c7.285156-1.835937 14.667969-4.046875 21.9375-6.582031l1.007813-.34375 20.792968-10.25c1.089844-.539063 2.132813-1.285156 3.09375-2.21875 2.402344-2.335938 3.722656-5.441406 3.722656-8.746094v-11.523438c0-2.007812 1.203126-3.824218 3.054688-4.605468 1.855469-.78125 3.996094-.378906 5.433594 1.023437l1.417968 1.382813c7.726563 7.523437 17.917969 11.667968 28.699219 11.667968h4.664063c10.6875 0 20.820312-4.09375 28.535156-11.527343 1.441406-1.390625 3.570312-1.789063 5.425781-1 1.84375.785156 3.042969 2.597656 3.042969 4.601562v9.980469c0 3.410156 1.441406 6.6875 3.953125 9 .867187.792969 1.828125 1.457031 2.867187 1.964844zm0 0"/><path d="m223.460938 255.976562h-4.65625c-13.402344 0-26.074219-5.152343-35.675782-14.503906l-31.191406-30.375c-10.773438-10.492187-16.148438-25.09375-14.753906-40.066406l5.328125-60.621094c.105469-1.1875.632812-2.304687 1.488281-3.136718 4.789062-4.679688 15.660156-12.359376 34.558594-11.289063 41.058594 2.324219 62.292968-19.613281 69.511718-29.152344 1.605469-2.121093 4.242188-3.1875 6.851563-2.792969 2.636719.394532 4.839844 2.203126 5.753906 4.714844 8.777344 24.101563 23.84375 32.09375 34.945313 34.554688 2.125.46875 3.707031 2.269531 3.894531 4.441406l5.566406 63.308594c1.394531 14.945312-3.984375 29.546875-14.757812 40.039062l-31.1875 30.378906c-9.601563 9.347657-22.269531 14.5-35.675781 14.5zm-71.15625-142.746093-5.164063 58.699219c-1.113281 11.976562 3.175781 23.628906 11.773437 32l31.1875 30.375c7.726563 7.523437 17.917969 11.667968 28.703126 11.667968h4.660156c10.78125 0 20.96875-4.144531 28.695312-11.667968l31.191406-30.375c8.597657-8.375 12.886719-20.027344 11.773438-31.976563l-5.257812-59.828125c-10.800782-3.253906-26.847657-12.015625-36.84375-35.539062-10.3125 11.90625-33.851563 31.703124-75.027344 29.375-13.480469-.757813-21.550782 3.777343-25.691406 7.269531zm0 0"/><path d="m142.988281 167.105469c-.195312 0-.394531-.011719-.589843-.035157-14.839844-1.753906-26.03125-14.355468-26.03125-29.304687 0-16.28125 13.246093-29.527344 29.527343-29.527344.449219 0 .890625.023438 1.332031.054688l.335938.023437c1.351562.078125 2.613281.699219 3.496094 1.71875.886718 1.027344 1.320312 2.363282 1.199218 3.710938l-4.289062 48.796875c-.121094 1.347656-.777344 2.589843-1.828125 3.441406-.894531.730469-2.011719 1.121094-3.152344 1.121094zm-1.203125-48.433594c-8.800781 1.890625-15.417968 9.734375-15.417968 19.09375 0 8.097656 4.964843 15.152344 12.152343 18.074219zm0 0"/><path d="m299.257812 166.914062c-1.097656 0-2.171874-.359374-3.050781-1.042968-1.109375-.851563-1.804687-2.128906-1.925781-3.519532l-4.28125-48.671874c-.121094-1.378907.332031-2.746094 1.257812-3.773438.890626-1 2.148438-1.59375 3.480469-1.660156.121094-.003906.269531-.011719.371094-.011719 16.285156 0 29.53125 13.246094 29.53125 29.527344 0 14.421875-10.320313 26.652343-24.539063 29.082031-.28125.050781-.5625.070312-.84375.070312zm1.246094-47.921874 3.195313 36.300781c6.566406-3.191407 10.941406-9.894531 10.941406-17.53125 0-8.894531-5.984375-16.421875-14.136719-18.769531zm-5.523437-5.75h.019531zm0 0"/><path d="m228.074219 305.050781c-.875 0-1.761719-.230469-2.5625-.707031-3.089844-1.847656-6.980469-1.894531-10.089844-.171875-2.09375 1.160156-4.71875.675781-6.257813-1.160156l-33.039062-39.441407c-1.679688-2.003906-1.53125-4.96875.347656-6.796874 2.402344-2.332032 3.722656-5.4375 3.722656-8.742188v-11.523438c0-2.011718 1.203126-3.828124 3.054688-4.605468 1.855469-.78125 3.992188-.382813 5.433594 1.023437l1.417968 1.382813c7.726563 7.523437 17.917969 11.664062 28.699219 11.664062h4.664063c10.6875 0 20.820312-4.089844 28.535156-11.527344 1.441406-1.386718 3.570312-1.789062 5.425781-1 1.84375.785157 3.042969 2.597657 3.042969 4.605469v9.980469c0 3.40625 1.441406 6.6875 3.953125 8.996094 1.96875 1.808594 2.164063 4.84375.449219 6.894531l-32.960938 39.339844c-.980468 1.167969-2.398437 1.789062-3.835937 1.789062zm-7.742188-12.148437c2.160157 0 4.304688.351562 6.34375 1.035156l27.800781-33.183594c-2.539062-3.644531-3.960937-8-4.007812-12.492187-8.042969 5.019531-17.339844 7.710937-27.007812 7.710937h-4.660157c-10.324219 0-20.21875-3.058594-28.605469-8.738281v.792969c0 4.375-1.332031 8.667968-3.746093 12.296875l28.023437 33.449219c1.894532-.574219 3.871094-.871094 5.859375-.871094zm0 0"/><path d="m199.859375 511.890625h-184.957031c-7.972656 0-14.457032-6.484375-14.457032-14.457031s6.484376-14.457032 14.457032-14.457032h184.957031c7.972656 0 14.457031 6.484376 14.457031 14.457032s-6.484375 14.457031-14.457031 14.457031zm-184.957031-18.914063c-2.457032 0-4.457032 2-4.457032 4.457032 0 2.457031 2 4.457031 4.457032 4.457031h184.957031c2.457031 0 4.457031-2 4.457031-4.457031 0-2.457032-2-4.457032-4.457031-4.457032zm0 0"/><path d="m14.796875 492.984375c-1.332031 0-2.609375-.53125-3.546875-1.476563-.96875-.976562-1.496094-2.308593-1.449219-3.683593 1.710938-52.984375 44.578125-94.488281 97.582031-94.488281 53.007813 0 95.875 41.503906 97.585938 94.488281.039062 1.375-.480469 2.710937-1.453125 3.6875-.96875.976562-2.292969 1.503906-3.679687 1.472656-.0625-.003906-.128907-.003906-.203126-.011719h-184.503906c-.117187.011719-.226562.015625-.332031.011719zm0-5h.019531zm5.3125-5.007813h174.546875c-4.046875-45.058593-41.433594-79.640624-87.273438-79.640624-45.839843 0-83.226562 34.578124-87.273437 79.640624zm0 0"/><path d="m116.839844 403.816406c-.167969 0-.335938-.007812-.503906-.027344-5.960938-.601562-11.941407-.601562-17.90625 0-1.40625.136719-2.804688-.316406-3.855469-1.261718-1.046875-.949219-1.648438-2.296875-1.648438-3.710938v-8.574218c0-7.972657 6.484375-14.457032 14.457031-14.457032 7.972657 0 14.457032 6.484375 14.457032 14.457032v8.574218c0 1.414063-.597656 2.761719-1.644532 3.710938-.925781.832031-2.121093 1.289062-3.355468 1.289062zm-9.457032-10.480468c1.480469 0 2.964844.03125 4.457032.101562v-3.195312c0-2.460938-2-4.460938-4.457032-4.460938-2.457031 0-4.457031 2-4.457031 4.460938v3.195312c1.492188-.070312 2.980469-.101562 4.457031-.101562zm0 0"/></g></svg>