<svg height="512pt" viewBox="-89 0 512 512" width="512pt" xmlns="http://www.w3.org/2000/svg"><path d="m317.339844 420.625h-51.847656v23.425781h51.847656c6.441406 0 11.710937-5.269531 11.710937-11.710937s-5.269531-11.714844-11.710937-11.714844zm0 0" fill="#fc5d4c"/><path d="m68.71875 420.625h-52.007812c-6.441407 0-11.714844 5.269531-11.714844 11.714844 0 6.441406 5.273437 11.710937 11.714844 11.710937h52.007812zm0 0" fill="#fc5d4c"/><path d="m321.695312 493.65625-2.769531-49.726562c-.523437.074218-1.050781.121093-1.585937.121093h-51.847656l.003906 62.949219h43.578125c7.253906-.003906 13.023437-6.097656 12.621093-13.34375zm0 0" fill="#fcb275"/><path d="m16.710938 444.050781c-.484376 0-.957032-.035156-1.425782-.09375l-2.769531 49.699219c-.402344 7.246094 5.363281 13.34375 12.621094 13.34375h43.578125v-62.949219zm0 0" fill="#fcb275"/><path d="m317.339844 420.625c.097656 0 .191406.011719.285156.015625l-5.164062-92.753906c-.699219-12.515625-9.453126-23.125-21.613282-26.1875l-39.667968-9.984375-14.769532-4.238282-43.023437 43.777344c-2.253907 1.691406-5.449219 1.285156-7.210938-.917968l-8.363281-10.453126-2.550781-3.1875c-.285157-.351562-.417969-.765624-.484375-1.1875h-15.511719c-.066406.421876-.203125.835938-.484375 1.1875l-2.550781 3.1875-8.363281 10.453126c-1.761719 2.203124-4.957032 2.609374-7.210938.917968l-43.023438-43.773437c-5.179687 1.667969-10.414062 3.179687-15.695312 4.507812l-38.574219 9.710938c-12.160156 3.0625-20.914062 13.671875-21.613281 26.1875l-5.164062 92.746093c.039062 0 .082031-.007812.125-.007812h52.007812v86.375h196.777344l-.003906-62.949219v-23.425781zm0 0" fill="#e8e6e6"/><path d="m240.378906 383.007812h-36.675781c-3.914063 0-7.085937 3.171876-7.085937 7.085938v51.460938c0 3.914062 3.171874 7.085937 7.085937 7.085937h36.675781c3.914063 0 7.085938-3.171875 7.085938-7.085937v-51.460938c-.003906-3.914062-3.175782-7.085938-7.085938-7.085938zm0 0" fill="#e04e36"/><path d="m130.347656 383.007812h-36.675781c-3.914063 0-7.085937 3.171876-7.085937 7.085938v51.460938c0 3.914062 3.171874 7.085937 7.085937 7.085937h36.675781c3.914063 0 7.085938-3.171875 7.085938-7.085937v-51.460938c0-3.914062-3.171875-7.085938-7.085938-7.085938zm0 0" fill="#e04e36"/><path d="m240.378906 383.007812h-36.675781c-3.914063 0-7.085937 3.171876-7.085937 7.085938v10.921875c0 3.914063 3.171874 7.085937 7.085937 7.085937h36.675781c3.914063 0 7.085938-3.171874 7.085938-7.085937v-10.921875c-.003906-3.914062-3.175782-7.085938-7.085938-7.085938zm0 0" fill="#fc5d4c"/><path d="m130.347656 383.007812h-36.675781c-3.914063 0-7.085937 3.171876-7.085937 7.085938v10.921875c0 3.914063 3.171874 7.085937 7.085937 7.085937h36.675781c3.914063 0 7.085938-3.171874 7.085938-7.085937v-10.921875c0-3.914062-3.171875-7.085938-7.085938-7.085938zm0 0" fill="#fc5d4c"/><path d="m312.460938 327.890625c-.355469-6.359375-2.800782-12.222656-6.703126-16.859375l-34.449218 28.546875c-3.683594 3.054687-5.816406 7.59375-5.816406 12.378906v68.667969c11.511718.003906 51.054687-.011719 52.136718.015625zm0 0" fill="#e04e36"/><path d="m21.75 327.890625c.355469-6.359375 2.796875-12.222656 6.703125-16.859375l34.445313 28.546875c3.6875 3.054687 5.816406 7.59375 5.816406 12.378906v68.667969c-11.507813.003906-51.050782-.011719-52.132813.015625zm0 0" fill="#e04e36"/><path d="m120.820312 277.117188-16.367187 8.070312c-2.261719.796875-4.539063 1.554688-6.820313 2.289062l43.023438 43.777344c2.257812 1.691406 5.453125 1.285156 7.214844-.917968l10.910156-13.640626c.824219-1.023437.722656-2.507812-.226562-3.417968zm0 0" fill="#e04e36"/><path d="m230.773438 285.6875-17.492188-8.625-37.789062 36.21875c-.949219.910156-1.046876 2.390625-.226563 3.417969l10.914063 13.640625c1.761718 2.199218 4.953124 2.605468 7.210937.914062l43.023437-43.773437c-1.882812-.59375-3.773437-1.15625-5.640624-1.792969zm0 0" fill="#e04e36"/><path d="m244.222656 115.628906c-5.441406 0-9.898437 4.453125-9.898437 9.898438v63.34375c0 5.441406 4.457031 9.898437 9.898437 9.898437 5.445313 0 9.898438-4.457031 9.898438-9.898437v-63.347656c0-5.445313-4.453125-9.894532-9.898438-9.894532zm0 0" fill="#e04e36"/><path d="m89.824219 115.628906c-5.445313 0-9.898438 4.453125-9.898438 9.898438v63.34375c0 5.441406 4.453125 9.898437 9.898438 9.898437 5.445312 0 9.898437-4.457031 9.898437-9.898437v-63.347656c0-5.445313-4.453125-9.894532-9.898437-9.894532zm0 0" fill="#e04e36"/><path d="m251.03125 118.382812c1.894531 1.808594 3.089844 4.335938 3.089844 7.144532v63.34375c0 2.804687-1.199219 5.335937-3.089844 7.140625 18.128906-3.621094 31.789062-19.617188 31.789062-38.8125.003907-19.195313-13.660156-35.191407-31.789062-38.816407zm0 0" fill="#fc5d4c"/><path d="m79.929688 188.867188v-63.34375c0-2.804688 1.195312-5.335938 3.089843-7.140626-18.132812 3.625-31.796875 19.621094-31.796875 38.8125 0 19.195313 13.664063 35.191407 31.792969 38.816407-1.890625-1.808594-3.085937-4.335938-3.085937-7.144531zm0 0" fill="#fc5d4c"/><path d="m81.367188 118.789062v-8.527343c0-47.125 38.339843-85.464844 85.46875-85.464844 47.128906 0 85.46875 38.339844 85.46875 85.464844v8.433593c7.714843 1.8125 14.550781 5.863282 19.792968 11.449219v-19.882812c0-58.039063-47.222656-105.261719-105.261718-105.261719-58.039063 0-105.261719 47.21875-105.261719 105.261719v20.300781c5.203125-5.707031 12.046875-9.875 19.792969-11.773438zm0 0" fill="#e8e6e6"/><path d="m234.324219 188.867188v-63.34375c0-1.320313.273437-2.582032.75-3.738282l-1.0625-11.132812c-.746094-.507813-1.570313-.921875-2.464844-1.210938-3.855469-1.238281-7.019531-3.898437-8.894531-7.324218-.859375-1.578126-2.742188-2.21875-4.453125-1.585938-1.503907.554688-3.128907.859375-4.832031.859375-3.894532 0-7.40625-1.582031-9.910157-4.121094-.902343-.914062-2.464843-.914062-3.359375 0-2.503906 2.539063-6.019531 4.121094-9.914062 4.121094-3.898438 0-7.40625-1.582031-9.914063-4.121094-.898437-.914062-2.460937-.914062-3.359375 0-2.503906 2.539063-6.015625 4.121094-9.914062 4.121094-3.894532 0-7.40625-1.582031-9.910156-4.121094-.941407-.953125-2.425782-.953125-3.363282 0-2.503906 2.539063-6.015625 4.121094-9.914062 4.121094-3.894532 0-7.40625-1.582031-9.914063-4.121094-.9375-.953125-2.421875-.953125-3.359375 0-2.503906 2.539063-6.015625 4.121094-9.914062 4.121094-1.441406 0-2.832032-.21875-4.140625-.621094-1.636719-.507812-3.390625.144531-4.230469 1.609375-1.957031 3.410156-5.21875 6.042969-9.183594 7.191406-.328125.09375-.625.25-.941406.378907l-2.402344 25.351562v53.5625c0 .03125-.007812.0625-.007812.089844 4.289062 20.886719 14.355468 40.382813 29.632812 55.871094 8.738282 8.863281 19.183594 16.957031 31.398438 22.582031 4.582031 2.109375 10.027344 2.113281 14.617187 0 7.136719-3.285156 13.652344-7.429688 19.59375-12.0625l-7.285156.765625c-.355469.035156-.703125.054687-1.050781.054687-5 0-9.296875-3.777343-9.832032-8.859374-.570312-5.4375 3.371094-10.308594 8.808594-10.878907l9.039063-.953125c5.433593-.570312 10.308593 3.371094 10.882812 8.808594.058594.59375.046875 1.179688.007813 1.757812.410156-.40625.835937-.804687 1.238281-1.214843 14.214844-14.417969 23.914063-32.308594 28.65625-51.554688-.679687-1.328125-1.097656-2.8125-1.097656-4.402343zm0 0" fill="#fcb275"/><path d="m186.617188 256.171875c-5 0-9.296876-3.78125-9.832032-8.863281-.570312-5.4375 3.371094-10.308594 8.808594-10.878906l9.039062-.953126c5.433594-.570312 10.308594 3.371094 10.882813 8.808594.570313 5.433594-3.375 10.308594-8.808594 10.878906l-9.042969.953126c-.351562.035156-.699218.054687-1.046874.054687zm0 0" fill="#fc5d4c"/><path d="m213.28125 277.0625-.054688-.027344-3.53125-1.738281c-5.601562-2.761719-9.144531-8.460937-9.144531-14.707031v-6.667969c-1.152343.652344-2.445312 1.097656-3.847656 1.242187l-1.753906.1875c-5.9375 4.628907-12.453125 8.773438-19.589844 12.058594-4.589844 2.113282-10.035156 2.109375-14.617187 0-10.273438-4.726562-19.277344-11.214844-27.085938-18.425781v11.605469c0 6.246094-3.542969 11.945312-9.144531 14.707031l-2.601563 1.28125-1.089844.539063 37.734376 36.160156c.621093.59375.839843 1.433594.714843 2.230468h15.511719c-.128906-.796874.089844-1.632812.710938-2.230468zm0 0" fill="#fcb275"/><path d="m166.835938 24.796875c-47.125 0-85.46875 38.339844-85.46875 85.464844v8.527343c.550781-.136718 1.09375-.296874 1.652343-.40625 1.777344-1.695312 4.167969-2.757812 6.804688-2.757812 5.445312 0 9.898437 4.453125 9.898437 9.898438v.746093h.855469l1.546875-16.316406c.316406-.128906.613281-.285156.941406-.378906 3.964844-1.148438 7.230469-3.78125 9.183594-7.191407.839844-1.460937 2.59375-2.117187 4.230469-1.609374 1.308593.402343 2.699219.621093 4.140625.621093 3.898437 0 7.410156-1.582031 9.914062-4.121093.9375-.953126 2.421875-.953126 3.359375 0 2.507813 2.539062 6.019531 4.121093 9.914063 4.121093 3.898437 0 7.410156-1.582031 9.914062-4.121093.9375-.953126 2.421875-.953126 3.363282 0 2.503906 2.539062 6.015624 4.121093 9.910156 4.121093 3.898437 0 7.410156-1.582031 9.914062-4.121093.898438-.914063 2.460938-.914063 3.359375 0 2.507813 2.539062 6.015625 4.121093 9.914063 4.121093 3.894531 0 7.410156-1.582031 9.914062-4.121093.898438-.914063 2.460938-.914063 3.359375 0 2.503907 2.539062 6.015625 4.121093 9.910157 4.121093 1.703124 0 3.328124-.304687 4.832031-.859375 1.710937-.636718 3.59375.007813 4.457031 1.585938 1.871094 3.425781 5.039062 6.085937 8.890625 7.324218.894531.289063 1.71875.703126 2.464844 1.210938l1.0625 11.132812c1.484375-3.601562 5.03125-6.160156 9.148437-6.160156 2.640625 0 5.03125 1.0625 6.808594 2.757813.429688.085937.847656.210937 1.273438.3125v-8.433594c-.003907-47.128906-38.34375-85.46875-85.46875-85.46875zm0 0" fill="#7c292e"/><g fill="#231f20"><path d="m317.335938 449.050781h-51.84375c-2.761719 0-5-2.238281-5-5v-23.425781c0-2.761719 2.238281-5 5-5h51.84375c9.214843 0 16.710937 7.5 16.710937 16.714844 0 9.210937-7.496094 16.710937-16.710937 16.710937zm-46.84375-10h46.84375c3.703124 0 6.710937-3.011719 6.710937-6.710937 0-3.699219-3.011719-6.710938-6.710937-6.710938h-46.84375zm0 0"/><path d="m68.71875 449.050781h-52.007812c-9.214844 0-16.710938-7.496093-16.710938-16.710937s7.496094-16.710938 16.710938-16.710938h52.007812c2.761719 0 5 2.238282 5 5v23.425782c0 2.757812-2.238281 4.996093-5 4.996093zm-52.007812-23.425781c-3.699219 0-6.710938 3.011719-6.710938 6.714844 0 3.699218 3.011719 6.710937 6.710938 6.710937h47.007812v-13.425781zm0 0"/><path d="m309.070312 512h-43.578124c-2.761719 0-5-2.238281-5-5v-62.949219c0-1.324219.527343-2.597656 1.464843-3.535156s2.207031-1.464844 3.535157-1.464844h51.84375c.308593 0 .613281-.03125.910156-.074219 1.394531-.1875 2.785156.207032 3.859375 1.09375 1.078125.890626 1.734375 2.1875 1.808593 3.582032l2.773438 49.722656c.265625 4.820312-1.484375 9.597656-4.800781 13.105469-3.316407 3.507812-7.988281 5.519531-12.816407 5.519531zm-38.578124-10h38.578124c2.125 0 4.09375-.847656 5.550782-2.390625 1.457031-1.542969 2.195312-3.554687 2.078125-5.675781l-2.5-44.882813h-43.707031zm0 0"/><path d="m68.71875 512h-43.582031c-4.828125 0-9.496094-2.011719-12.8125-5.519531-3.316407-3.507813-5.066407-8.28125-4.796875-13.101563l2.769531-49.699218c.074219-1.382813.722656-2.671876 1.785156-3.558594 1.0625-.890625 2.445313-1.292969 3.816407-1.128906.269531.035156.539062.0625.816406.0625h52.003906c2.761719 0 5 2.238281 5 5v62.945312c0 2.761719-2.238281 5-5 5zm-48.707031-62.949219-2.5 44.882813c-.121094 2.117187.617187 4.132812 2.074219 5.675781 1.457031 1.539063 3.429687 2.386719 5.550781 2.386719h38.578125v-52.945313zm0 0"/><path d="m265.492188 512h-196.773438c-2.761719 0-5-2.238281-5-5v-81.375h-46.878906c-.101563.007812-.179688.007812-.253906.007812-1.355469 0-2.652344-.546874-3.597657-1.523437-.964843-1.003906-1.472656-2.363281-1.394531-3.753906l5.164062-92.746094c.824219-14.785156 11.023438-27.144531 25.382813-30.757813l38.578125-9.710937c5.039062-1.265625 10.210938-2.753906 15.382812-4.417969 1.796876-.582031 3.773438-.097656 5.097657 1.253906l42.582031 43.320313c.039062-.007813.132812-.023437.183594-.082031l10.507812-13.140625c.625-2.089844 2.558594-3.566407 4.792969-3.566407h15.515625c2.230469 0 4.164062 1.476563 4.789062 3.566407l10.515626 13.136719c.042968.0625.15625.078124.183593.085937l42.578125-43.324219c1.285156-1.308594 3.183594-1.808594 4.945313-1.296875l14.769531 4.234375 39.511719 9.945313c14.355469 3.609375 24.554687 15.972656 25.382812 30.757812l5.164063 92.75c.078125 1.390625-.429688 2.75-1.394532 3.75-.964843 1-2.316406 1.574219-3.699218 1.527344-.066406 0-.203125-.007813-.300782-.015625h-46.730468v81.375c0 1.324219-.527344 2.597656-1.460938 3.535156-.941406.9375-2.214844 1.464844-3.542968 1.464844zm-191.773438-10h186.777344l-.003906-81.375c0-2.761719 2.238281-5 5-5h46.847656l-4.871094-87.457031c-.578125-10.390625-7.75-19.078125-17.839844-21.617188l-39.667968-9.984375-12.066407-3.460937-40.9375 41.652343c-.175781.179688-.367187.34375-.566406.496094-4.449219 3.335938-10.644531 2.542969-14.117187-1.792968l-10.363282-12.949219h-9.777344l-10.359374 12.949219c-3.472657 4.339843-9.667969 5.128906-14.117188 1.792968-.203125-.152344-.390625-.316406-.566406-.496094l-40.875-41.585937c-4.390625 1.359375-8.769532 2.589844-13.058594 3.667969l-38.578125 9.707031c-10.089844 2.542969-17.261719 11.230469-17.839844 21.617187l-4.871093 87.460938h46.847656c2.761718 0 5 2.238281 5 5v81.375zm243.621094-76.375h.019531zm-163.011719-110.898438c-.003906 0-.003906 0-.003906 0zm25.386719-.019531"/><path d="m167.851562 226.148438c-8.746093 0-16.894531-4.332032-21.800781-11.589844-1.542969-2.285156-.945312-5.394532 1.34375-6.941406 2.289063-1.542969 5.390625-.945313 6.945313 1.34375 3.039062 4.5 8.09375 7.1875 13.515625 7.1875s10.472656-2.6875 13.515625-7.1875c1.550781-2.289063 4.65625-2.886719 6.945312-1.34375 2.289063 1.546874 2.886719 4.65625 1.339844 6.941406-4.90625 7.257812-13.054688 11.589844-21.804688 11.589844zm0 0"/><path d="m204.390625 158.113281c-.789063 0-1.59375-.1875-2.34375-.585937-1.230469-.65625-4.054687-1.316406-7.59375-1.316406-3.542969 0-6.367187.660156-7.597656 1.316406-2.4375 1.289062-5.464844.371094-6.761719-2.070313-1.296875-2.4375-.371094-5.464843 2.066406-6.761719 2.96875-1.578124 7.449219-2.484374 12.292969-2.484374 4.839844 0 9.320313.90625 12.289063 2.484374 2.441406 1.296876 3.367187 4.324219 2.066406 6.761719-.898438 1.691407-2.628906 2.65625-4.417969 2.65625zm0 0"/><path d="m150.945312 158.113281c-.792968 0-1.59375-.1875-2.339843-.585937-1.234375-.65625-4.058594-1.316406-7.597657-1.316406-3.542968 0-6.367187.660156-7.597656 1.316406-2.4375 1.289062-5.464844.371094-6.761718-2.070313-1.296876-2.4375-.371094-5.464843 2.066406-6.761719 2.96875-1.578124 7.449218-2.484374 12.292968-2.484374 4.835938 0 9.316407.90625 12.289063 2.484374 2.4375 1.296876 3.363281 4.324219 2.070313 6.761719-.898438 1.691407-2.632813 2.65625-4.421876 2.65625zm0 0"/><path d="m141.796875 177.355469c-3.3125 0-6-2.683594-6-6v-1.085938c0-3.3125 2.6875-6 6-6 3.316406 0 6 2.6875 6 6v1.085938c0 3.316406-2.683594 6-6 6zm0 0"/><path d="m193.90625 178.191406c-3.3125 0-6-2.6875-6-6v-1.085937c0-3.316407 2.6875-6 6-6s6 2.683593 6 6v1.085937c0 3.3125-2.683594 6-6 6zm0 0"/><path d="m205.507812 249.386719c-2.53125 0-4.699218-1.90625-4.96875-4.476563-.289062-2.746094 1.703126-5.207031 4.449219-5.496094l19.816407-2.082031c8.113281-.855469 14.230468-7.648437 14.230468-15.808593v-22.757813c0-2.761719 2.238282-5 5-5 2.761719 0 5 2.238281 5 5v22.757813c0 13.289062-9.96875 24.359374-23.183594 25.753906l-19.816406 2.082031c-.175781.019531-.355468.027344-.527344.027344zm0 0"/><path d="m173.804688 350.800781c-1.320313 0-2.601563-.539062-3.539063-1.480469-.242187-.21875-.445313-.480468-.625-.761718-.179687-.257813-.339844-.558594-.457031-.859375-.121094-.300781-.21875-.621094-.28125-.9375-.082032-.320313-.101563-.640625-.101563-.980469 0-.320312.019531-.640625.101563-.960938.058594-.320312.160156-.640624.28125-.941406.121094-.300781.28125-.597656.457031-.859375.179687-.28125.382813-.539062.625-.757812 1.160156-1.160157 2.875-1.703125 4.519531-1.382813.320313.082032.617188.160156.917969.300782.300781.121093.601563.28125.882813.460937.257812.179687.519531.378906.757812.621094.21875.21875.441406.476562.621094.757812.179687.261719.320312.558594.460937.859375.117188.300782.214844.621094.277344.941406.0625.320313.101563.640626.101563.960938 0 .339844-.039063.660156-.101563.980469-.058594.316406-.160156.636719-.277344.9375-.140625.300781-.285156.601562-.460937.859375-.179688.28125-.402344.542968-.621094.761718-.238281.238282-.5.441407-.757812.621094-.285157.179688-.582032.339844-.882813.457032-.300781.140624-.597656.222656-.917969.300781-.320312.0625-.660156.101562-.980468.101562zm0 0"/><path d="m173.804688 382.71875c-1.320313 0-2.621094-.539062-3.539063-1.480469-.242187-.21875-.445313-.476562-.625-.757812-.179687-.261719-.339844-.558594-.457031-.859375-.121094-.300782-.21875-.621094-.28125-.941406-.082032-.320313-.101563-.640626-.101563-.960938 0-.339844.019531-.660156.101563-.980469.058594-.316406.160156-.636719.28125-.9375s.28125-.601562.457031-.859375c.179687-.28125.382813-.542968.625-.761718 1.160156-1.160157 2.875-1.699219 4.519531-1.359376.320313.058594.617188.140626.917969.28125.300781.117188.601563.277344.882813.457032.257812.179687.519531.382812.757812.621094.21875.21875.441406.480468.621094.761718.179687.257813.320312.558594.460937.859375.117188.300781.214844.621094.277344.9375.0625.320313.101563.640625.101563.980469 0 .320312-.039063.640625-.101563.960938-.058594.320312-.160156.640624-.277344.941406-.140625.300781-.285156.597656-.460937.859375-.179688.28125-.402344.539062-.621094.757812-.238281.242188-.5.441407-.757812.621094-.285157.179687-.582032.339844-.882813.460937-.300781.140626-.597656.21875-.917969.300782-.320312.058594-.660156.097656-.980468.097656zm0 0"/><path d="m173.804688 414.640625c-1.320313 0-2.621094-.539063-3.539063-1.480469-.242187-.21875-.445313-.480468-.625-.761718-.179687-.257813-.339844-.558594-.457031-.859376-.121094-.300781-.21875-.617187-.28125-.9375-.082032-.320312-.101563-.640624-.101563-.960937 0-.339844.019531-.660156.101563-.980469.058594-.320312.160156-.640625.28125-.941406.121094-.296875.28125-.597656.457031-.859375.179687-.28125.382813-.539063.625-.757813 1.160156-1.160156 2.875-1.703124 4.519531-1.363281.320313.0625.617188.160157.917969.28125.300781.121094.601563.28125.882813.460938.257812.179687.519531.378906.757812.621093.21875.21875.441406.476563.621094.757813.179687.261719.320312.5625.460937.859375.117188.300781.214844.621094.277344.941406.0625.320313.101563.640625.101563.980469 0 .320313-.039063.640625-.101563.960937-.058594.320313-.160156.636719-.277344.9375-.140625.300782-.285156.601563-.460937.859376-.179688.28125-.402344.542968-.621094.761718-.238281.238282-.5.441406-.757812.640625-.285157.160157-.582032.320313-.882813.4375-.300781.140625-.597656.222657-.917969.300781-.320312.0625-.660156.101563-.980468.101563zm0 0"/><path d="m173.804688 446.558594c-1.320313 0-2.601563-.539063-3.539063-1.457032-.242187-.242187-.445313-.5-.625-.761718-.179687-.28125-.339844-.578125-.457031-.878906-.121094-.300782-.21875-.601563-.28125-.921876-.082032-.320312-.101563-.660156-.101563-.980468 0-1.320313.519531-2.597656 1.460938-3.539063 1.160156-1.160156 2.878906-1.699219 4.519531-1.359375.320312.058594.621094.160156.921875.28125.300781.117188.597656.277344.878906.457032.261719.179687.519531.402343.761719.621093.214844.21875.4375.480469.617188.761719.179687.257812.320312.558594.460937.859375.121094.300781.21875.621094.28125.9375.058594.320313.097656.660156.097656.980469 0 .320312-.039062.660156-.097656.980468-.0625.320313-.160156.621094-.28125.921876-.140625.300781-.28125.597656-.460937.878906-.179688.261718-.398438.519531-.617188.761718-.242188.21875-.5.4375-.761719.617188-.28125.179688-.578125.320312-.878906.460938-.300781.121093-.601563.21875-.921875.28125-.316406.058593-.65625.097656-.976562.097656zm0 0"/><path d="m173.804688 478.480469c-1.320313 0-2.621094-.539063-3.539063-1.460938-.945313-.941406-1.460937-2.21875-1.460937-3.539062 0-.320313.019531-.660157.097656-.980469.0625-.320312.160156-.640625.285156-.941406.117188-.296875.277344-.578125.457031-.859375.179688-.257813.378907-.519531.621094-.757813 1.160156-1.160156 2.878906-1.703125 4.519531-1.363281.320313.0625.621094.160156.921875.28125s.597657.28125.878907.460937c.261718.179688.519531.398438.761718.621094.214844.238282.4375.5.617188.757813.179687.28125.320312.5625.460937.859375.121094.300781.21875.621094.28125.941406.058594.320312.097657.660156.097657.980469 0 .320312-.039063.660156-.097657.980469-.0625.320312-.160156.617187-.28125.9375-.140625.300781-.28125.582031-.460937.863281-.179688.257812-.398438.519531-.617188.757812-.242187.21875-.5.441407-.761718.621094-.28125.179687-.578126.339844-.878907.460937-.300781.117188-.601562.21875-.921875.277344-.320312.0625-.660156.101563-.980468.101563zm0 0"/><path d="m159.964844 512c-2.761719 0-5-2.238281-5-5v-184.542969c0-2.761719 2.238281-5 5-5 2.761718 0 5 2.238281 5 5v184.542969c0 2.761719-2.238282 5-5 5zm0 0"/><path d="m240.378906 453.640625h-36.679687c-6.664063 0-12.082031-5.421875-12.082031-12.085937v-51.460938c0-6.664062 5.417968-12.085938 12.082031-12.085938h36.679687c6.664063 0 12.085938 5.421876 12.085938 12.085938v51.460938c0 6.664062-5.421875 12.085937-12.085938 12.085937zm-36.679687-65.632813c-1.148438 0-2.082031.9375-2.082031 2.085938v51.460938c0 1.148437.933593 2.085937 2.082031 2.085937h36.679687c1.148438 0 2.085938-.9375 2.085938-2.085937v-51.460938c0-1.148438-.9375-2.085938-2.085938-2.085938zm0 0"/><path d="m130.347656 453.640625h-36.675781c-6.664063 0-12.085937-5.421875-12.085937-12.085937v-51.460938c0-6.664062 5.421874-12.085938 12.085937-12.085938h36.675781c6.664063 0 12.085938 5.421876 12.085938 12.085938v51.460938c0 6.664062-5.421875 12.085937-12.085938 12.085937zm-36.675781-65.632813c-1.152344 0-2.085937.9375-2.085937 2.085938v51.460938c0 1.148437.933593 2.085937 2.085937 2.085937h36.675781c1.148438 0 2.085938-.9375 2.085938-2.085937v-51.460938c0-1.148438-.9375-2.085938-2.085938-2.085938zm0 0"/><path d="m240.378906 413.101562h-36.679687c-6.664063 0-12.082031-5.421874-12.082031-12.085937v-10.921875c0-6.664062 5.417968-12.085938 12.082031-12.085938h36.679687c6.664063 0 12.085938 5.421876 12.085938 12.085938v10.921875c0 6.664063-5.421875 12.085937-12.085938 12.085937zm-36.679687-25.09375c-1.148438 0-2.082031.9375-2.082031 2.085938v10.921875c0 1.148437.933593 2.085937 2.082031 2.085937h36.679687c1.148438 0 2.085938-.9375 2.085938-2.085937v-10.921875c0-1.148438-.9375-2.085938-2.085938-2.085938zm0 0"/><path d="m130.347656 413.101562h-36.675781c-6.664063 0-12.085937-5.421874-12.085937-12.085937v-10.921875c0-6.664062 5.421874-12.085938 12.085937-12.085938h36.675781c6.664063 0 12.085938 5.421876 12.085938 12.085938v10.921875c0 6.664063-5.421875 12.085937-12.085938 12.085937zm-36.675781-25.09375c-1.152344 0-2.085937.9375-2.085937 2.085938v10.921875c0 1.148437.933593 2.085937 2.085937 2.085937h36.675781c1.148438 0 2.085938-.9375 2.085938-2.085937v-10.921875c0-1.148438-.9375-2.085938-2.085938-2.085938zm0 0"/><path d="m317.625 425.640625c-.039062 0-.082031 0-.121094-.003906-1.023437-.015625-21.804687-.015625-36.980468-.011719h-15.035157c-2.757812 0-4.996093-2.238281-4.996093-5v-68.667969c0-6.296875 2.78125-12.210937 7.625-16.226562l34.449218-28.546875c2.117188-1.75 5.246094-1.472656 7.015625.625 4.738281 5.628906 7.460938 12.476562 7.871094 19.800781l5.164063 92.75c.078124 1.394531-.429688 2.757813-1.402344 3.757813-.941406.976562-2.238282 1.523437-3.589844 1.523437zm-21.886719-10.015625c7.046875 0 12.757813 0 16.601563.003906l-4.871094-87.460937c-.195312-3.46875-1.125-6.789063-2.738281-9.792969l-30.234375 25.054688c-2.542969 2.109374-4.003906 5.214843-4.003906 8.523437v63.671875h10.03125zm0 0"/><path d="m16.605469 425.640625c-1.359375 0-2.667969-.550781-3.613281-1.535156-.960938-1-1.476563-2.359375-1.398438-3.746094l5.164062-92.75c.410157-7.328125 3.128907-14.175781 7.871094-19.800781 1.769532-2.097656 4.902344-2.375 7.015625-.625l34.449219 28.546875c4.847656 4.015625 7.625 9.929687 7.625 16.226562v68.667969c0 2.761719-2.238281 5-5 5h-15.03125c-15.175781 0-35.957031-.003906-36.996094.015625-.027344 0-.054687 0-.085937 0zm10.136719-97.472656-4.871094 87.460937c6.324218-.003906 17.71875-.003906 31.816406-.003906h10.027344v-63.667969c0-3.308593-1.457032-6.417969-4.003906-8.527343l-30.234376-25.054688c-1.605468 3.003906-2.539062 6.324219-2.734374 9.792969zm0 0"/><path d="m143.800781 337.3125c-2.136719 0-4.289062-.671875-6.140625-2.058594-.203125-.152344-.390625-.316406-.566406-.496094l-43.023438-43.773437c-1.214843-1.238281-1.703124-3.015625-1.289062-4.699219s1.671875-3.03125 3.320312-3.566406c2.140626-.6875 4.28125-1.398438 6.40625-2.148438l16.101563-7.9375c1.886719-.929687 4.15625-.582031 5.671875.875l37.734375 36.164063c2.839844 2.71875 3.125 7.085937.667969 10.152344l-10.910156 13.636719c-2.027344 2.53125-4.980469 3.851562-7.972657 3.851562zm-.019531-10.015625c.074219.003906.136719-.023437.183594-.082031l9.507812-11.882813-33.582031-32.183593-13.132813 6.476562zm11.097656-13.722656h-.003906zm-50.425781-28.386719h.019531zm0 0"/><path d="m190.246094 337.316406c-2.992188 0-5.949219-1.324218-7.972656-3.855468l-10.910157-13.640626c-2.457031-3.058593-2.167969-7.425781.664063-10.144531l37.792968-36.21875c1.519532-1.453125 3.785157-1.808593 5.671876-.875l17.195312 8.476563c1.179688.398437 2.371094.765625 3.558594 1.132812l1.667968.519532c1.660157.523437 2.929688 1.875 3.351563 3.558593.417969 1.6875-.066406 3.472657-1.289063 4.714844l-43.023437 43.773437c-.175781.179688-.363281.34375-.566406.496094-1.847657 1.386719-4.003907 2.0625-6.140625 2.0625zm-9.671875-21.984375 9.507812 11.882813c.042969.058594.15625.078125.183594.082031l37.078125-37.722656-13.132812-6.476563zm-1.40625-1.761719.003906.003907s-.003906-.003907-.003906-.003907zm0 0"/><path d="m244.222656 203.765625c-8.210937 0-14.894531-6.683594-14.894531-14.898437v-63.34375c0-8.214844 6.683594-14.898438 14.894531-14.898438 8.214844 0 14.898438 6.683594 14.898438 14.898438v63.34375c0 8.214843-6.683594 14.898437-14.898438 14.898437zm0-83.140625c-2.699218 0-4.894531 2.199219-4.894531 4.898438v63.34375c0 2.699218 2.199219 4.898437 4.894531 4.898437 2.703125 0 4.898438-2.199219 4.898438-4.898437v-63.34375c0-2.699219-2.195313-4.898438-4.898438-4.898438zm0 0"/><path d="m89.824219 203.765625c-8.214844 0-14.898438-6.683594-14.898438-14.898437v-63.34375c0-8.214844 6.683594-14.898438 14.898438-14.898438 8.214843 0 14.894531 6.683594 14.894531 14.898438v63.34375c.003906 8.214843-6.679688 14.898437-14.894531 14.898437zm0-83.140625c-2.703125 0-4.898438 2.199219-4.898438 4.898438v63.34375c0 2.699218 2.199219 4.898437 4.898438 4.898437s4.894531-2.199219 4.894531-4.898437v-63.34375c.003906-2.699219-2.195312-4.898438-4.894531-4.898438zm0 0"/><path d="m251.027344 201.007812c-1.835938 0-3.5625-1.015624-4.433594-2.695312-1.027344-1.972656-.625-4.386719.984375-5.921875.996094-.949219 1.542969-2.199219 1.542969-3.523437v-63.34375c0-1.324219-.546875-2.574219-1.542969-3.519532-1.609375-1.539062-2.011719-3.953125-.984375-5.925781 1.027344-1.976563 3.238281-3.03125 5.417969-2.597656 20.75 4.144531 35.808593 22.53125 35.808593 43.714843 0 21.183594-15.058593 39.570313-35.808593 43.714844-.328125.066406-.65625.097656-.984375.097656zm8.09375-74.535156v61.449219c11.230468-5.824219 18.703125-17.582031 18.703125-30.726563-.003907-13.144531-7.472657-24.902343-18.703125-30.722656zm0 0"/><path d="m83.019531 201.007812c-.324219 0-.652343-.03125-.980469-.097656-20.75-4.144531-35.8125-22.53125-35.8125-43.714844 0-21.183593 15.0625-39.570312 35.8125-43.714843 2.179688-.433594 4.390626.621093 5.417969 2.597656 1.023438 1.972656.621094 4.390625-.988281 5.925781-.996094.945313-1.542969 2.195313-1.542969 3.519532v63.34375c0 1.324218.546875 2.574218 1.542969 3.523437 1.609375 1.535156 2.011719 3.949219.988281 5.921875-.875 1.679688-2.597656 2.695312-4.4375 2.695312zm-8.09375-74.535156c-11.226562 5.824219-18.703125 17.578125-18.703125 30.722656 0 13.148438 7.472656 24.902344 18.703125 30.726563zm0 0"/><path d="m61.570312 135.5625c-.605468 0-1.214843-.109375-1.804687-.335938-1.921875-.746093-3.195313-2.597656-3.195313-4.664062v-20.300781c0-60.796875 49.464844-110.261719 110.265626-110.261719 60.796874 0 110.261718 49.460938 110.261718 110.261719v19.882812c0 2.050781-1.253906 3.894531-3.160156 4.648438-1.914062.757812-4.085938.265625-5.488281-1.230469-4.675781-4.984375-10.652344-8.441406-17.289063-10-2.261718-.53125-3.859375-2.546875-3.859375-4.867188v-8.433593c0-44.371094-36.097656-80.464844-80.464843-80.464844-44.371094 0-80.46875 36.097656-80.46875 80.464844v8.527343c0 2.300782-1.570313 4.308594-3.808594 4.855469-6.664063 1.632813-12.644532 5.191407-17.289063 10.289063-.96875 1.058594-2.316406 1.628906-3.699219 1.628906zm105.265626-125.5625c-55.289063 0-100.265626 44.976562-100.265626 100.261719v9.546875c3.050782-1.980469 6.335938-3.582032 9.796876-4.761719v-4.785156c0-49.886719 40.582031-90.46875 90.464843-90.46875 49.882813 0 90.46875 40.585937 90.46875 90.46875v4.652343c3.453125 1.148438 6.738281 2.707032 9.792969 4.644532v-9.296875c.003906-55.285157-44.972656-100.261719-100.257812-100.261719zm-85.46875 108.789062h.019531zm0 0"/><path d="m168.050781 273.984375c-3.226562 0-6.453125-.675781-9.394531-2.03125-11.648438-5.363281-22.707031-13.308594-32.871094-23.609375-15.683594-15.90625-26.390625-36.089844-30.972656-58.378906-.085938-.429688-.117188-.867188-.089844-1.308594 0 0 0-.003906 0-.007812v-53.34375c0-.15625.007813-.3125.019532-.46875l2.402343-25.355469c.175781-1.84375 1.359375-3.441407 3.074219-4.148438.582031-.257812 1.003906-.429687 1.457031-.558593 2.621094-.757813 4.894531-2.539063 6.234375-4.875 2.011719-3.507813 6.152344-5.109376 10.046875-3.902344 3.144531.96875 6.714844.101562 9.015625-2.234375 2.804688-2.839844 7.679688-2.839844 10.480469 0 1.675781 1.699219 3.933594 2.632812 6.355469 2.632812s4.675781-.933593 6.351562-2.632812c2.804688-2.839844 7.679688-2.835938 10.480469 0 1.675781 1.699219 3.933594 2.636719 6.355469 2.636719s4.679687-.9375 6.351562-2.632813c1.367188-1.382813 3.273438-2.175781 5.242188-2.175781 1.964844 0 3.875.792968 5.238281 2.171875 1.675781 1.699219 3.933594 2.632812 6.355469 2.632812s4.675781-.933593 6.351562-2.632812c1.359375-1.378907 3.273438-2.171875 5.242188-2.171875 1.964844 0 3.878906.792968 5.242187 2.175781 2.410157 2.441406 6.207031 3.273437 9.449219 2.082031 4.070312-1.507812 8.523438.121094 10.574219 3.875 1.292969 2.367188 3.4375 4.128906 6.035156 4.964844 1.320313.421875 2.578125 1.039062 3.746094 1.835938 1.230469.835937 2.027343 2.179687 2.164062 3.660156l1.066407 11.128906c.078124.808594-.042969 1.628906-.355469 2.378906-.246094.597656-.371094 1.214844-.371094 1.835938v63.34375c0 .703125.1875 1.425781.550781 2.152344.539063 1.066406.675782 2.289062.390625 3.449218-5.046875 20.492188-15.402343 39.121094-29.953125 53.871094-.265625.269531-.542968.542969-.828125.8125l-.457031.445312c-1.476562 1.460938-3.707031 1.855469-5.601562.988282-1.890626-.871094-3.046876-2.820313-2.898438-4.898438.027344-.386718.03125-.664062.007812-.882812-.28125-2.683594-2.6875-4.628906-5.386718-4.355469l-9.035156.949219c-1.300782.136718-2.472657.773437-3.296876 1.792968-.824218 1.015626-1.199218 2.289063-1.0625 3.59375.285157 2.675782 2.679688 4.640626 5.394532 4.355469l7.277344-.765625c2.210937-.234375 4.324218 1.03125 5.160156 3.101563.835937 2.070312.195312 4.445312-1.5625 5.816406-6.621094 5.164063-13.542969 9.421875-20.578125 12.660156-2.941407 1.351563-6.167969 2.027344-9.398438 2.027344zm-63.328125-85.492187c4.25 20.179687 13.988282 38.433593 28.183594 52.828124 9.3125 9.445313 19.382812 16.695313 29.933594 21.550782 3.265625 1.503906 7.164062 1.503906 10.429687 0 2.183594-1.007813 4.359375-2.125 6.519531-3.347656-4.324218-2.234376-7.429687-6.53125-7.972656-11.6875-.417968-3.960938.734375-7.84375 3.238282-10.9375 2.503906-3.09375 6.0625-5.027344 10.019531-5.441407l9.039062-.953125c5.457031-.5625 10.519531 1.878906 13.554688 5.988282 10.597656-12.214844 18.304687-26.875 22.488281-42.828126-.546875-1.558593-.828125-3.167968-.828125-4.796874v-63.34375c0-1.484376.222656-2.949219.664063-4.371094l-.6875-7.191406c-4.339844-1.570313-7.984376-4.507813-10.417969-8.386719-1.785157.542969-3.636719.820312-5.519531.820312-4.265626 0-8.300782-1.382812-11.589844-3.941406-3.292969 2.558594-7.328125 3.941406-11.59375 3.941406-4.269532 0-8.300782-1.382812-11.59375-3.941406-3.292969 2.554687-7.324219 3.941406-11.59375 3.941406-4.269532 0-8.300782-1.382812-11.59375-3.941406-3.292969 2.554687-7.328125 3.941406-11.59375 3.941406s-8.300782-1.382812-11.59375-3.941406c-3.289063 2.554687-7.324219 3.941406-11.59375 3.941406-1.5625 0-3.113282-.191406-4.617188-.570312-2.234375 3.449219-5.421875 6.117187-9.199218 7.71875l-2.085938 22v52.949219zm0 0"/><path d="m186.617188 261.171875c-7.636719 0-14-5.734375-14.804688-13.335937-.414062-3.960938.734375-7.84375 3.238281-10.9375 2.503907-3.09375 6.0625-5.027344 10.019531-5.441407l9.042969-.953125c8.1875-.855468 15.515625 5.09375 16.375 13.257813.859375 8.167969-5.085937 15.515625-13.257812 16.375l-9.039063.953125c-.539062.054687-1.058594.082031-1.574218.082031zm9.050781-20.746094c-.171875 0-.34375.007813-.515625.023438l-9.035156.953125c-1.300782.136718-2.472657.773437-3.296876 1.789062-.824218 1.019532-1.199218 2.292969-1.0625 3.59375.285157 2.675782 2.679688 4.644532 5.394532 4.359375l9.03125-.949219c2.683594-.285156 4.636718-2.699218 4.355468-5.386718-.261718-2.511719-2.394531-4.382813-4.871093-4.382813zm0 0"/><path d="m174.78125 320.507812h-15.511719c-1.464843 0-2.855469-.640624-3.804687-1.753906-.640625-.75-1.035156-1.664062-1.15625-2.625l-36.945313-35.40625c-1.179687-1.125-1.730469-2.757812-1.484375-4.371094.25-1.613281 1.269532-3 2.730469-3.722656l3.691406-1.820312c3.921875-1.933594 6.359375-5.851563 6.359375-10.222656v-11.605469c0-1.988281 1.175782-3.785157 2.996094-4.582031 1.820312-.792969 3.941406-.4375 5.394531.910156 8.148438 7.523437 16.824219 13.429687 25.789063 17.558594 3.265625 1.503906 7.164062 1.503906 10.429687 0 6.335938-2.914063 12.597657-6.773438 18.609375-11.464844.738282-.574219 1.625-.929688 2.554688-1.027344l1.753906-.183594c.660156-.070312 1.296875-.28125 1.890625-.621094 1.550781-.878906 3.449219-.867187 4.988281.027344 1.539063.894532 2.484375 2.539063 2.484375 4.320313v6.667969c0 4.371093 2.4375 8.289062 6.359375 10.222656l3.53125 1.738281c1.460938.722656 2.507813 2.125 2.757813 3.738281.246093 1.609375-.277344 3.253906-1.457031 4.386719l-37 35.453125c-.117188.960938-.515626 1.871094-1.152344 2.621094-.949219 1.121094-2.34375 1.761718-3.808594 1.761718zm-12.015625-10h8.515625c.226562-.296874.476562-.578124.75-.839843l32.804688-31.433594c-5.636719-3.847656-9.097657-10.125-9.277344-17.070313-5.867188 4.328126-11.945313 7.949219-18.109375 10.789063-5.886719 2.707031-12.914063 2.707031-18.796875 0-6.871094-3.164063-13.5625-7.25-19.996094-12.203125v.839844c0 7.207031-3.527344 13.761718-9.375 17.707031l32.734375 31.371094c.273437.265625.523437.542969.75.839843zm0 0"/><path d="m100.578125 131.273438h-.859375c-2.761719 0-5-2.238282-5-5v-.75c0-2.699219-2.195312-4.898438-4.894531-4.898438-1.234375 0-2.429688.488281-3.355469 1.375-.683594.652344-1.539062 1.097656-2.464844 1.285156-.277344.054688-.546875.128906-.816406.199219l-.632812.160156c-1.492188.367188-3.066407.027344-4.273438-.921875-1.210938-.945312-1.914062-2.398437-1.914062-3.933594v-8.523437c0-49.886719 40.585937-90.46875 90.46875-90.46875 49.878906 0 90.464843 40.585937 90.464843 90.46875v8.429687c0 1.527344-.699219 2.96875-1.894531 3.917969-1.199219.949219-2.765625 1.296875-4.25.949219l-.625-.160156c-.160156-.039063-.316406-.085938-.480469-.117188-.929687-.183594-1.789062-.632812-2.472656-1.289062-.929687-.882813-2.121094-1.371094-3.355469-1.371094-1.984375 0-3.757812 1.199219-4.527344 3.0625-.875 2.125-3.078124 3.378906-5.359374 3.039062-2.273438-.335937-4.023438-2.179687-4.238282-4.46875l-.796875-8.300781c-4.339843-1.570312-7.984375-4.503906-10.417969-8.386719-1.785156.546876-3.636718.820313-5.519531.820313-4.265625 0-8.300781-1.382813-11.589843-3.941406-3.292969 2.558593-7.328126 3.941406-11.59375 3.941406-4.269532 0-8.300782-1.382813-11.59375-3.941406-3.292969 2.558593-7.324219 3.941406-11.59375 3.941406-4.269532 0-8.300782-1.382813-11.59375-3.941406-3.292969 2.558593-7.328126 3.941406-11.59375 3.941406-4.269532 0-8.300782-1.382813-11.59375-3.941406-3.292969 2.558593-7.328126 3.941406-11.59375 3.941406-1.5625 0-3.113282-.1875-4.621094-.566406-2.230469 3.449219-5.421875 6.117187-9.195313 7.714843l-1.25 13.199219c-.238281 2.570313-2.394531 4.535157-4.972656 4.535157zm-10.753906-20.648438c2.546875 0 4.945312.644531 7.042969 1.773438l.277343-2.917969c.175781-1.84375 1.359375-3.441407 3.070313-4.148438.582031-.257812 1.007812-.429687 1.457031-.558593 2.625-.757813 4.898437-2.539063 6.238281-4.875 2.003906-3.503907 6.132813-5.113282 10.046875-3.902344 3.140625.96875 6.707031.101562 9.015625-2.234375 2.804688-2.839844 7.675782-2.839844 10.476563 0 1.679687 1.699219 3.933593 2.632812 6.355469 2.632812 2.421874 0 4.679687-.933593 6.355468-2.632812 2.804688-2.839844 7.679688-2.835938 10.476563 0 1.679687 1.699219 3.933593 2.636719 6.355469 2.636719 2.421874 0 4.679687-.9375 6.355468-2.632813 1.363282-1.382813 3.273438-2.175781 5.242188-2.175781 1.964844 0 3.875.792968 5.234375 2.171875 1.679687 1.699219 3.933593 2.632812 6.359375 2.632812 2.417968 0 4.675781-.933593 6.351562-2.632812 1.359375-1.378907 3.269532-2.171875 5.238282-2.171875s3.878906.792968 5.242187 2.175781c2.410156 2.441406 6.210937 3.273437 9.449219 2.082031 4.074218-1.507812 8.523437.121094 10.578125 3.875 1.292969 2.363282 3.433593 4.128906 6.035156 4.964844 1.316406.421875 2.574219 1.039062 3.742187 1.832031 1.230469.835938 2.027344 2.179688 2.167969 3.660157l.128907 1.347656c2.542968-.925782 5.464843-1.15625 8.183593-.574219v-.6875c0-44.371094-36.097656-80.46875-80.464843-80.46875-44.367188 0-80.46875 36.097656-80.46875 80.464844v.773437c1.121093-.269531 2.28125-.410156 3.457031-.410156zm0 0"/></g></svg>