<svg height="511pt" viewBox="-68 0 511 511.99732" width="511pt" xmlns="http://www.w3.org/2000/svg"><path d="m193.75 506.996094h-179.09375c-5.058594 0-9.15625-4.097656-9.15625-9.15625s4.097656-9.160156 9.15625-9.160156h179.09375c5.058594 0 9.15625 4.101562 9.15625 9.160156s-4.097656 9.15625-9.15625 9.15625zm0 0" fill="#f9d498"/><path d="m14.65625 488.679688h179.09375c.035156 0 .070312.007812.105469.007812-1.558594-48.199219-41.074219-86.804688-89.652344-86.804688s-88.09375 38.605469-89.652344 86.804688c.035157.003906.070313-.007812.105469-.007812zm0 0" fill="#fcbd4c"/><path d="m104.203125 401.882812c3.089844 0 6.144531.160157 9.15625.464844v-8.300781c0-5.058594-4.097656-9.15625-9.15625-9.15625s-9.160156 4.097656-9.160156 9.15625v8.300781c3.015625-.304687 6.066406-.464844 9.160156-.464844zm0 0" fill="#f9d498"/><path d="m286.300781 127.304688v48.039062c0 3.757812-.285156 7.527344-.839843 11.261719 1.078124.128906 2.164062.226562 3.277343.226562 16.476563 0 29.835938-13.359375 29.835938-29.835937 0-17.488282-14.976563-31.125-32.273438-29.691406zm0 0" fill="#fcb275"/><path d="m139.089844 175.34375v-48.078125c-.804688-.066406-1.617188-.101563-2.4375-.101563-16.476563 0-29.832032 13.355469-29.832032 29.832032 0 16.476562 13.355469 29.835937 29.832032 29.835937 1.113281 0 2.199218-.097656 3.277344-.226562-.554688-3.734375-.839844-7.5-.839844-11.261719zm0 0" fill="#fcb275"/><path d="m370.824219 493.421875-9.394531-168.621094c-.710938-12.734375-9.613282-23.527343-21.984376-26.640625l-40.347656-10.15625c-6.785156-1.707031-13.5-3.695312-20.132812-5.929687l-28.5625 42.847656v7.351563c0 3.359374-3.882813 5.640624-7.417969 4.367187l-19.132813-6.898437c-2.648437 2.605468-6.273437 4.214843-10.28125 4.214843-4.003906 0-7.632812-1.609375-10.28125-4.214843l-19.128906 6.898437c-3.539062 1.273437-7.417968-1.011719-7.417968-4.367187v-8.257813l-28.152344-42.222656c-7.121094 2.476562-14.339844 4.652343-21.652344 6.492187l-39.242188 9.878906c-12.367187 3.113282-21.273437 13.90625-21.984374 26.640626l-4.917969 88.292968c10.339843-5.730468 21.917969-9.5 34.25-10.75v-8.300781c0-5.058594 4.101562-9.15625 9.160156-9.15625s9.15625 4.097656 9.15625 9.15625v8.300781c44.296875 4.492188 79.039063 41.210938 80.496094 86.34375 5.007812.058594 9.050781 4.125 9.050781 9.148438 0 5.058594-4.097656 9.15625-9.15625 9.15625h164.234375c7.382813 0 13.25-6.199219 12.839844-13.574219zm0 0" fill="#3f3f3f"/><path d="m262.480469 94.300781c-13.433594-.761719-40.835938 16.210938-90.410157-.253906-17.367187-5.769531-32.984374 7.8125-32.984374 23.320313v57.976562c0 40.484375 33.125 81.527344 73.609374 81.527344 40.484376 0 73.605469-41.042969 73.605469-81.527344v-57.105469c0-12.808593-10.128906-24.246093-23.820312-23.9375zm0 0" fill="#fcb275"/><path d="m136.652344 127.164062c.820312 0 1.632812.035157 2.4375.101563v-9.902344c0-15.507812 15.613281-29.089843 32.980468-23.320312 49.578126 16.464843 76.976563-.507813 90.410157.257812 13.691406-.3125 23.824219 11.128907 23.824219 23.933594v9.070313c6.277343-.519532 12.234374.964843 17.296874 3.875 4.695313-17.15625 12.855469-58.789063-10.4375-81.605469 0 0-7.953124-21.425781-39.765624-25.324219-17.960938-2.195312-30.0625-10.085938-34.597657-16.484375-1.222656-1.726563-3.234375-2.707031-5.351562-2.753906v-.015625c-.027344 0-.050781.007812-.078125.007812-.023438 0-.046875-.007812-.074219-.007812v.019531c-2.117187.046875-4.128906 1.023437-5.355469 2.753906-4.53125 6.394531-16.636718 14.285157-34.59375 16.484375-31.816406 3.894532-39.765625 25.320313-39.765625 25.320313-23.003906 22.53125-15.335937 63.398437-10.621093 80.933593 4.105468-2.125 8.75-3.34375 13.691406-3.34375zm0 0" fill="#7c292e"/><path d="m242.984375 301.953125c3.535156-1.277344 7.417969 1.007813 7.417969 4.367187v18.601563l28.5625-42.847656c-.207032-.070313-.421875-.132813-.628906-.199219l-17.847657-8.804688-3.589843-1.769531c-1.449219-.714843-2.757813-1.625-3.910157-2.683593l-31.914062 38.097656c1.007812.601562 1.945312 1.3125 2.777343 2.132812zm0 0" fill="#515050"/><path d="m149.839844 281.367188c-.414063.144531-.832032.277343-1.25.425781l28.152344 42.222656v-17.695313c0-3.355468 3.878906-5.640624 7.417968-4.367187l19.128906 6.894531v.003906c.945313-.929687 2.011719-1.730468 3.179688-2.378906l-31.992188-38.1875c-1.234374 1.195313-2.640624 2.234375-4.234374 3.019532l-2.644532 1.300781zm0 0" fill="#515050"/><path d="m228.234375 319.296875c0 8.097656-6.5625 14.660156-14.660156 14.660156-8.097657 0-14.664063-6.5625-14.664063-14.660156s6.566406-14.664063 14.664063-14.664063c8.097656 0 14.660156 6.566407 14.660156 14.664063zm0 0" fill="#e04e36"/><path d="m242.984375 301.953125-19.132813 6.894531c2.707032 2.660156 4.382813 6.355469 4.382813 10.449219 0 4.089844-1.679687 7.785156-4.382813 10.445313l19.132813 6.898437c3.539063 1.273437 7.417969-1.011719 7.417969-4.371094v-25.949219c0-3.359374-3.882813-5.644531-7.417969-4.367187zm0 0" fill="#e04e36"/><path d="m198.910156 319.296875c0-4.09375 1.679688-7.789063 4.378906-10.449219l-19.128906-6.894531c-3.539062-1.277344-7.417968 1.007813-7.417968 4.367187v25.949219c0 3.359375 3.878906 5.644531 7.417968 4.371094l19.128906-6.898437c-2.699218-2.660157-4.378906-6.355469-4.378906-10.445313zm0 0" fill="#e04e36"/><path d="m291.046875 388.957031c-.222656-.414062-.484375-.8125-.835937-1.160156l-18.664063-18.667969c-1.941406-1.941406-5.085937-1.941406-7.027344 0l-18.667969 18.667969c-.347656.347656-.613281.746094-.835937 1.160156zm0 0" fill="#e8e6e6"/><path d="m247.59375 246.183594c-10.398438 6.703125-22.292969 10.683594-34.898438 10.683594-11.90625 0-23.167968-3.570313-33.144531-9.613282v9.085938c0 4.578125-1.894531 8.847656-5.074219 11.941406l31.992188 38.191406c2.105469-1.167968 4.527344-1.839844 7.101562-1.839844 2.746094 0 5.304688.769532 7.503907 2.082032l31.914062-38.09375c-3.382812-3.113282-5.394531-7.539063-5.394531-12.277344zm0 0" fill="#fcb275"/><g fill="#231f20"><path d="m214.203125 219.59375c-8.785156 0-16.96875-4.351562-21.890625-11.636719-1.546875-2.292969-.945312-5.398437 1.34375-6.945312 2.289062-1.542969 5.394531-.941407 6.945312 1.34375 3.058594 4.535156 8.144532 7.238281 13.605469 7.238281 5.457031 0 10.542969-2.703125 13.609375-7.238281 1.546875-2.289063 4.660156-2.882813 6.941406-1.339844 2.289063 1.546875 2.890626 4.652344 1.34375 6.941406-4.929687 7.289063-13.113281 11.636719-21.898437 11.636719zm0 0"/><path d="m250.929688 151.207031c-.792969 0-1.59375-.1875-2.34375-.585937-1.238282-.660156-4.082032-1.324219-7.644532-1.324219s-6.410156.667969-7.648437 1.324219c-2.441407 1.296875-5.464844.371094-6.761719-2.066406s-.371094-5.46875 2.066406-6.761719c2.980469-1.585938 7.480469-2.496094 12.34375-2.496094 4.859375 0 9.359375.910156 12.339844 2.496094 2.4375 1.292969 3.367188 4.324219 2.066406 6.761719-.898437 1.6875-2.628906 2.652343-4.417968 2.652343zm0 0"/><path d="m197.207031 151.207031c-.789062 0-1.59375-.1875-2.34375-.585937-1.238281-.660156-4.082031-1.324219-7.644531-1.324219s-6.40625.667969-7.648438 1.324219c-2.433593 1.296875-5.464843.371094-6.761718-2.066406s-.371094-5.46875 2.066406-6.761719c2.984375-1.585938 7.480469-2.496094 12.34375-2.496094s9.359375.910156 12.34375 2.496094c2.4375 1.292969 3.363281 4.324219 2.0625 6.761719-.898438 1.6875-2.628906 2.652343-4.417969 2.652343zm0 0"/><path d="m188.011719 170.546875c-3.3125 0-6-2.6875-6-6v-1.09375c0-3.3125 2.6875-6 6-6 3.316406 0 6 2.6875 6 6v1.09375c.003906 3.3125-2.683594 6-6 6zm0 0"/><path d="m240.394531 171.382812c-3.316406 0-6-2.683593-6-6v-1.089843c0-3.316407 2.683594-6 6-6 3.3125 0 6 2.683593 6 6v1.089843c0 3.316407-2.6875 6-6 6zm0 0"/><path d="m313.652344 509.234375c-2.761719 0-5-2.238281-5-5v-109.21875c0-2.761719 2.238281-5 5-5 2.761718 0 5 2.238281 5 5v109.21875c0 2.761719-2.238282 5-5 5zm0 0"/><path d="m296.523438 393.957031h-56.984376c-2.761718 0-5-2.238281-5-5 0-2.765625 2.238282-5 5-5h56.984376c2.761718 0 5 2.234375 5 5 0 2.761719-2.238282 5-5 5zm0 0"/><path d="m213.230469 359.957031c-.320313 0-.660157-.039062-.980469-.101562-.320312-.058594-.621094-.15625-.917969-.277344-.320312-.121094-.601562-.28125-.882812-.460937-.257813-.179688-.519531-.398438-.738281-.621094-.242188-.238282-.457032-.5-.636719-.757813-.183594-.28125-.320313-.5625-.460938-.859375-.121093-.320312-.21875-.621094-.28125-.941406-.058593-.320312-.097656-.660156-.097656-.980469 0-.320312.039063-.660156.097656-.980469.058594-.320312.160157-.640624.28125-.9375.140625-.300781.28125-.582031.460938-.863281.179687-.277343.394531-.519531.636719-.757812.21875-.21875.480468-.441407.738281-.621094.285156-.179687.5625-.339844.882812-.460937.296875-.117188.597657-.21875.917969-.277344.660156-.140625 1.320312-.140625 1.957031 0 .320313.058594.640625.160156.945313.277344.296875.121093.578125.28125.859375.460937.277343.179687.519531.402344.757812.621094.222657.238281.441407.480469.621094.757812.183594.28125.34375.5625.460937.863281.117188.296876.21875.617188.277344.9375.082032.320313.105469.660157.105469.980469 0 .320313-.023437.660157-.105469.980469-.054687.320312-.160156.621094-.277344.941406-.121093.296875-.28125.578125-.460937.859375-.179687.257813-.398437.519531-.621094.757813-.238281.222656-.480469.441406-.757812.621094-.28125.179687-.5625.339843-.859375.460937-.300782.121094-.625.21875-.945313.277344-.320312.0625-.660156.101562-.976562.101562zm0 0"/><path d="m213.230469 391.199219c-.320313 0-.660157-.023438-.980469-.101563-.320312-.058594-.621094-.160156-.917969-.28125-.320312-.117187-.601562-.277344-.882812-.460937-.257813-.179688-.519531-.378907-.738281-.617188-.941407-.921875-1.476563-2.222656-1.476563-3.539062 0-1.320313.539063-2.601563 1.476563-3.542969.21875-.21875.480468-.4375.738281-.617188.285156-.183593.5625-.320312.882812-.460937.296875-.121094.597657-.222656.917969-.28125.636719-.121094 1.320312-.121094 1.957031 0 .320313.058594.640625.160156.945313.28125.296875.140625.578125.277344.859375.460937.277343.179688.519531.398438.757812.617188.222657.242188.441407.5.621094.761719.183594.28125.34375.578125.460937.878906.117188.300781.21875.601563.277344.921875.082032.320312.105469.660156.105469.980469 0 1.316406-.523437 2.597656-1.460937 3.539062-.242188.238281-.480469.4375-.761719.617188-.277344.183593-.558594.34375-.859375.460937-.300782.121094-.621094.222656-.941406.28125-.324219.078125-.664063.101563-.980469.101563zm0 0"/><path d="m213.230469 422.457031c-.320313 0-.660157-.039062-.980469-.101562-.320312-.078125-.621094-.15625-.917969-.296875-.320312-.121094-.601562-.261719-.882812-.460938-.257813-.179687-.519531-.378906-.738281-.621094-.941407-.917968-1.476563-2.21875-1.476563-3.519531 0-1.320312.539063-2.621093 1.476563-3.539062.21875-.242188.480468-.441407.738281-.621094.285156-.179687.5625-.339844.882812-.460937.296875-.117188.597657-.21875.917969-.296876.660156-.121093 1.320312-.121093 1.957031 0 .320313.078126.640625.179688.945313.296876.296875.121093.578125.28125.859375.460937.277343.179687.519531.378906.757812.621094.941407.917969 1.460938 2.21875 1.460938 3.539062 0 1.300781-.523438 2.601563-1.460938 3.519531-.238281.242188-.480469.441407-.757812.621094-.28125.199219-.5625.339844-.859375.460938-.300782.140625-.625.21875-.945313.296875-.320312.0625-.660156.101562-.976562.101562zm0 0"/><path d="m213.230469 453.699219c-.320313 0-.660157-.042969-.980469-.101563s-.621094-.160156-.917969-.28125c-.320312-.117187-.601562-.277344-.882812-.460937-.257813-.179688-.519531-.398438-.738281-.617188-.242188-.242187-.457032-.5-.636719-.761719-.183594-.277343-.320313-.558593-.460938-.859374-.121093-.300782-.21875-.621094-.28125-.941407-.058593-.320312-.097656-.660156-.097656-.976562 0-.320313.039063-.660157.097656-.980469.058594-.320312.160157-.640625.28125-.941406.140625-.300782.28125-.578125.460938-.859375.179687-.261719.394531-.519531.636719-.761719.21875-.21875.480468-.4375.738281-.617188.285156-.183593.5625-.339843.882812-.460937.296875-.121094.597657-.222656.917969-.28125.636719-.121094 1.320312-.121094 1.957031 0 .320313.058594.640625.160156.945313.28125.296875.121094.578125.277344.859375.460937.277343.179688.519531.398438.757812.617188.222657.242188.441407.5.621094.761719.183594.28125.34375.558593.460937.859375.117188.300781.21875.621094.277344.941406.082032.320312.105469.660156.105469.980469 0 .316406-.023437.65625-.105469.976562-.054687.320313-.160156.640625-.277344.941407-.121093.300781-.28125.582031-.460937.859374-.179687.261719-.398437.519532-.621094.761719-.238281.21875-.480469.4375-.757812.617188-.28125.183593-.5625.34375-.859375.460937-.300782.121094-.625.222656-.945313.28125-.320312.058594-.660156.101563-.976562.101563zm0 0"/><path d="m213.230469 484.957031c-.320313 0-.660157-.039062-.980469-.101562-.320312-.078125-.621094-.15625-.917969-.296875-.320312-.121094-.601562-.28125-.882812-.460938-.257813-.179687-.519531-.378906-.738281-.621094-.941407-.917968-1.476563-2.21875-1.476563-3.539062 0-.320312.039063-.640625.097656-.960938.058594-.320312.160157-.640624.28125-.9375.140625-.300781.28125-.601562.460938-.863281.179687-.277343.394531-.539062.636719-.757812.21875-.242188.480468-.441407.738281-.621094.285156-.179687.5625-.339844.882812-.460937.296875-.136719.597657-.21875.917969-.296876.660156-.121093 1.320312-.121093 1.957031 0 .320313.078126.640625.160157.945313.296876.296875.121093.578125.28125.859375.460937.277343.179687.519531.378906.757812.621094.222657.21875.441407.480469.621094.757812.183594.261719.34375.5625.460937.863281.117188.296876.21875.617188.277344.9375.082032.320313.105469.640626.105469.960938 0 1.320312-.523437 2.621094-1.460937 3.539062-.242188.242188-.480469.441407-.761719.621094-.277344.179688-.558594.339844-.859375.460938-.300782.140625-.621094.21875-.941406.296875-.324219.0625-.664063.101562-.980469.101562zm0 0"/><path d="m193.75 511.996094h-179.09375c-7.804688 0-14.15625-6.351563-14.15625-14.15625 0-7.804688 6.351562-14.160156 14.15625-14.160156h179.09375c7.804688 0 14.15625 6.355468 14.15625 14.160156 0 7.804687-6.351562 14.15625-14.15625 14.15625zm-179.09375-18.316406c-2.292969 0-4.15625 1.867187-4.15625 4.15625 0 2.292968 1.863281 4.160156 4.15625 4.160156h179.09375c2.289062 0 4.15625-1.863282 4.15625-4.15625 0-2.292969-1.867188-4.160156-4.15625-4.160156zm0 0"/><path d="m193.855469 493.691406c-.101563 0-.207031-.003906-.316407-.011718h-178.671874c-.109376.007812-.214844.011718-.316407.011718-1.355469 0-2.648437-.546875-3.59375-1.523437-.941406-.96875-1.449219-2.285157-1.40625-3.636719 1.660157-51.390625 43.238281-91.644531 94.652344-91.644531s92.988281 40.253906 94.648437 91.644531c.042969 1.355469-.464843 2.667969-1.40625 3.636719-.941406.972656-2.238281 1.523437-3.589843 1.523437zm-173.988281-10.011718h168.667968c-3.992187-43.464844-40.085937-76.796876-84.332031-76.796876s-80.34375 33.332032-84.335937 76.796876zm0 0"/><path d="m113.359375 407.347656c-.167969 0-.335937-.007812-.503906-.023437-5.757813-.585938-11.550781-.585938-17.304688 0-1.414062.136719-2.808593-.320313-3.859375-1.265625-1.046875-.949219-1.648437-2.296875-1.648437-3.710938v-8.300781c0-7.804687 6.355469-14.15625 14.160156-14.15625s14.15625 6.351563 14.15625 14.15625v8.300781c0 1.414063-.597656 2.761719-1.648437 3.710938-.921876.835937-2.117188 1.289062-3.351563 1.289062zm-9.15625-10.464844c1.378906 0 2.765625.03125 4.15625.09375v-2.929687c0-2.292969-1.863281-4.15625-4.15625-4.15625s-4.160156 1.863281-4.160156 4.15625v2.929687c1.390625-.0625 2.78125-.09375 4.160156-.09375zm0 0"/><path d="m288.742188 191.832031c-1.53125 0-2.945313-.152343-3.878907-.261719-1.339843-.164062-2.554687-.855468-3.375-1.929687-.820312-1.070313-1.167969-2.429687-.972656-3.761719.523437-3.542968.785156-7.085937.785156-10.535156v-48.039062c0-2.597657 1.996094-4.765626 4.585938-4.980469 9.679687-.804688 19.316406 2.507812 26.460937 9.085937 7.132813 6.566406 11.226563 15.894532 11.226563 25.585938 0 19.210937-15.625 34.835937-34.832031 34.835937zm2.558593-59.496093v43.007812c0 2.105469-.085937 4.238281-.253906 6.382812 12.617187-1.167968 22.527344-11.8125 22.527344-24.730468 0-7.007813-2.839844-13.480469-7.996094-18.226563-3.960937-3.644531-8.992187-5.882812-14.277344-6.433593zm0 0"/><path d="m136.652344 191.832031c-19.207032 0-34.832032-15.625-34.832032-34.835937 0-19.207032 15.625-34.832032 34.832032-34.832032.960937 0 1.910156.042969 2.847656.121094 2.59375.210938 4.589844 2.378906 4.589844 4.980469v48.078125c0 3.457031.261718 7 .785156 10.535156.199219 1.332032-.15625 2.691406-.972656 3.761719-.816406 1.074219-2.035156 1.769531-3.375 1.929687-1.480469.179688-2.710938.261719-3.875.261719zm-2.5625-59.539062c-12.496094 1.289062-22.273438 11.875-22.273438 24.703125 0 12.917968 9.914063 23.5625 22.527344 24.730468-.167969-2.144531-.253906-4.277343-.253906-6.382812zm0 0"/><path d="m357.984375 511.996094h-164.234375c-2.761719 0-5-2.238282-5-5 0-2.761719 2.238281-5 5-5 2.289062 0 4.15625-1.863282 4.15625-4.15625 0-2.261719-1.84375-4.121094-4.113281-4.148438-2.675781-.03125-4.851563-2.164062-4.9375-4.839844-1.363281-42.222656-34.035157-77.273437-76-81.527343-2.554688-.257813-4.496094-2.410157-4.496094-4.976563v-8.300781c0-2.292969-1.863281-4.15625-4.15625-4.15625s-4.160156 1.863281-4.160156 4.15625v8.300781c0 2.566406-1.941407 4.71875-4.496094 4.976563-11.390625 1.15625-22.269531 4.566406-32.328125 10.144531-1.589844.882812-3.539062.832031-5.082031-.136719-1.539063-.964843-2.4375-2.695312-2.335938-4.511719l4.917969-88.296874c.835938-15 11.1875-27.539063 25.757812-31.207032l39.238282-9.878906c7.054687-1.773438 14.199218-3.917969 21.230468-6.367188 2.15625-.75 4.542969.054688 5.804688 1.949219l28.148438 42.222657c.546874.824218.839843 1.789062.839843 2.773437v7.910156c.160157.066407.425781.121094.722657.011719l19.132812-6.894531c1.804688-.652344 3.828125-.210938 5.203125 1.136719 1.820313 1.792968 4.222656 2.78125 6.773437 2.78125 2.546876 0 4.953126-.988282 6.773438-2.78125 1.371094-1.347657 3.394531-1.792969 5.203125-1.136719l19.128906 6.894531c.296875.109375.566407.054688.726563-.011719v-7.003906c0-.988281.289062-1.949219.839844-2.773437l28.5625-42.847657c1.257812-1.882812 3.617187-2.691406 5.757812-1.964843 6.582031 2.222656 13.226562 4.179687 19.753906 5.824218l40.347656 10.15625c14.570313 3.664063 24.921876 16.207032 25.757813 31.207032l9.390625 168.625c.273438 4.875-1.496094 9.710937-4.859375 13.261718-3.351563 3.550782-8.082031 5.585938-12.96875 5.585938zm-150.699219-10h150.703125c2.179688 0 4.207031-.871094 5.707031-2.457032 1.496094-1.585937 2.257813-3.660156 2.136719-5.835937l-9.394531-168.621094c-.589844-10.609375-7.910156-19.476562-18.210938-22.070312l-40.351562-10.15625c-5.574219-1.402344-11.226562-3.027344-16.859375-4.839844l-25.613281 38.417969v5.839844c0 3.09375-1.507813 5.925781-4.136719 7.773437-2.878906 2.023437-6.609375 2.511719-9.976563 1.296875l-16.453124-5.933594c-3.285157 2.304688-7.183594 3.546875-11.265626 3.546875-4.078124 0-7.980468-1.242187-11.261718-3.546875l-16.453125 5.933594c-3.363281 1.210938-7.09375.726562-9.980469-1.296875-2.625-1.847656-4.132812-4.679687-4.132812-7.773437v-6.742188l-25.179688-37.769531c-6.117188 2.03125-12.292969 3.835937-18.402344 5.375l-39.242187 9.875c-10.304688 2.59375-17.625 11.460937-18.214844 22.070312l-4.4375 79.730469c7.597656-3.339844 15.558594-5.640625 23.777344-6.875v-3.890625c0-7.808594 6.355469-14.160156 14.160156-14.160156s14.15625 6.351562 14.15625 14.160156v3.890625c43.445313 6.527344 77.015625 42.710938 80.28125 86.628906 5.394531 2.003906 9.265625 7.21875 9.265625 13.269532 0 1.449218-.21875 2.84375-.621094 4.160156zm0 0"/><path d="m212.695312 261.871094c-44.988281 0-78.605468-45.683594-78.605468-86.527344v-57.976562c0-9.398438 4.691406-18.390626 12.546875-24.0625 7.828125-5.648438 17.671875-7.105469 27.011719-4.003907 34.746093 11.539063 58.042968 6.050781 73.460937 2.417969 6.207031-1.460938 11.148437-2.613281 15.453125-2.417969 7.527344-.125 14.5625 2.695313 19.929688 7.941407 5.601562 5.472656 8.8125 13.128906 8.8125 20.996093v57.109375c-.003907 40.839844-33.617188 86.523438-78.609376 86.523438zm-48.835937-164.183594c-4.050781 0-7.949219 1.257812-11.371094 3.726562-5.257812 3.796876-8.402343 9.757813-8.402343 15.953126v57.976562c0 43.800781 36.222656 76.527344 68.609374 76.527344 32.386719 0 68.605469-32.726563 68.605469-76.527344v-57.105469c0-5.195312-2.113281-10.242187-5.800781-13.847656-3.46875-3.390625-7.996094-5.238281-12.90625-5.089844-.132812.003907-.265625 0-.398438-.003906-2.960937-.171875-7.503906.910156-12.792968 2.15625-16.519532 3.890625-41.476563 9.773437-78.90625-2.660156-2.222656-.742188-4.453125-1.105469-6.636719-1.105469zm0 0"/><path d="m303.601562 136.183594c-.867187 0-1.726562-.222656-2.496093-.667969-4.390625-2.527344-9.355469-3.636719-14.386719-3.226563-1.40625.121094-2.773438-.355468-3.800781-1.304687-1.027344-.945313-1.613281-2.277344-1.613281-3.675781v-9.070313c0-5.195312-2.117188-10.242187-5.800782-13.847656-3.472656-3.390625-7.996094-5.238281-12.910156-5.089844-.132812.003907-.265625 0-.394531-.003906-2.957031-.167969-7.503907.910156-12.792969 2.15625-16.523438 3.890625-41.476562 9.773437-78.910156-2.660156-6.347656-2.113281-12.738282-1.175781-18.003906 2.621093-5.257813 3.796876-8.402344 9.761719-8.402344 15.953126v9.902343c0 1.398438-.582032 2.730469-1.613282 3.679688-1.027343.945312-2.402343 1.414062-3.796874 1.300781-4.574219-.378906-9.238282.539062-13.417969 2.703125-1.339844.695313-2.929688.746094-4.316407.132813-1.382812-.609376-2.417968-1.816407-2.8125-3.277344-4.695312-17.464844-12.910156-60.457032 11.234376-85.089844 2.242187-4.867188 12.796874-23.679688 43.375-27.425781 18.078124-2.210938 28.070312-10.101563 31.121093-14.410157 1.996094-2.816406 5.246094-4.597656 8.777344-4.835937.242187-.0351562.484375-.05078125.734375-.04296875.25-.01171875.496094.00781255.738281.04296875 3.527344.238281 6.773438 2.019531 8.769531 4.832031 3.054688 4.3125 13.046876 12.199219 31.125 14.414063 30.578126 3.746093 41.132813 22.558593 43.375 27.425781 24.335938 24.828125 15.863282 68.175781 11.042969 85.785156-.40625 1.496094-1.484375 2.714844-2.917969 3.304688-.613281.25-1.261718.375-1.90625.375zm-12.300781-13.890625c3.046875.222656 6.039063.847656 8.917969 1.859375 4.285156-18.382813 8.652344-52.191406-10.550781-71.003906-.53125-.515626-.933594-1.144532-1.191407-1.832032-.285156-.730468-7.554687-18.65625-35.691406-22.101562-20.136718-2.464844-33.089844-11.539063-38.066406-18.554688-.269531-.386718-.773438-.625-1.347656-.644531-.578125.019531-1.078125.257813-1.347656.640625-4.976563 7.023438-17.929688 16.09375-38.070313 18.558594-28.464844 3.488281-35.621094 21.914062-35.6875 22.101562-.257813.6875-.664063 1.316406-1.1875 1.832032-19.101563 18.707031-14.832031 52.363281-10.660156 70.554687 2.488281-.773437 5.050781-1.253906 7.667969-1.449219v-4.890625c0-9.394531 4.691406-18.390625 12.550781-24.058593 7.824219-5.644532 17.667969-7.105469 27.007812-4.003907 34.746094 11.539063 58.042969 6.046875 73.460938 2.417969 6.207031-1.464844 11.132812-2.609375 15.453125-2.421875 7.433594-.125 14.566406 2.695313 19.933594 7.941406 5.597656 5.476563 8.808593 13.128907 8.808593 21zm0 0"/><path d="m250.402344 329.921875c-.480469 0-.96875-.070313-1.449219-.214844-2.109375-.636719-3.550781-2.582031-3.550781-4.785156v-18.253906c-.160156-.070313-.425782-.117188-.722656-.011719l-19.132813 6.894531c-1.804687.652344-3.828125.207031-5.199219-1.136719-.53125-.523437-1.148437-.996093-1.835937-1.40625-1.257813-.75-2.125-2.015624-2.367188-3.457031-.246093-1.445312.152344-2.921875 1.097657-4.046875l31.914062-38.097656c.875-1.046875 2.144531-1.6875 3.507812-1.777344 1.375-.085937 2.707032.382813 3.710938 1.308594.824219.761719 1.742188 1.390625 2.730469 1.878906l21.457031 10.515625c1.472656.496094 2.632812 1.652344 3.136719 3.125.5 1.472657.292969 3.09375-.574219 4.390625l-28.5625 42.847656c-.945312 1.414063-2.519531 2.226563-4.160156 2.226563zm-5.359375-33.332031c2.207031 0 4.386719.667968 6.222656 1.957031 2.628906 1.847656 4.136719 4.679687 4.136719 7.773437v2.085938l16.191406-24.28125-16.90625-8.335938c-.277344-.136718-.550781-.28125-.824219-.429687l-20.828125 24.867187 8.253906-2.976562c1.222657-.441406 2.492188-.660156 3.753907-.660156zm-2.058594 5.363281h.019531zm0 0"/><path d="m176.742188 329.015625c-1.640626 0-3.21875-.808594-4.160157-2.226563l-28.152343-42.222656c-.855469-1.289062-1.070313-2.902344-.578126-4.367187.492188-1.464844 1.636719-2.621094 3.097657-3.128907l.964843-.332031 20.117188-9.917969c1.046875-.515624 2.042969-1.226562 2.957031-2.117187.996094-.972656 2.339844-1.5 3.742188-1.410156 1.386719.066406 2.6875.714843 3.582031 1.78125l31.992188 38.1875c.957031 1.144531 1.355468 2.65625 1.082031 4.125-.269531 1.464843-1.183594 2.734375-2.484375 3.457031-.773438.425781-1.476563.957031-2.105469 1.574219-1.371094 1.351562-3.398437 1.792969-5.203125 1.136719l-19.128906-6.898438c-.300782-.105469-.566406-.054688-.722656.011719v17.347656c0 2.203125-1.441407 4.144531-3.550782 4.785156-.480468.144531-.96875.214844-1.449218.214844zm-20.738282-45.117187 15.738282 23.601562v-1.179688c0-3.09375 1.507812-5.925781 4.136718-7.773437 2.882813-2.027344 6.613282-2.507813 9.976563-1.296875l9.121093 3.289062-21.289062-25.410156c-.402344.234375-.816406.453125-1.230469.660156zm0 0"/><path d="m213.570312 338.957031c-10.839843 0-19.660156-8.820312-19.660156-19.660156 0-10.84375 8.820313-19.664063 19.660156-19.664063 10.84375 0 19.664063 8.820313 19.664063 19.664063 0 10.839844-8.820313 19.660156-19.664063 19.660156zm0-29.324219c-5.328124 0-9.660156 4.335938-9.660156 9.664063s4.332032 9.660156 9.660156 9.660156c5.328126 0 9.664063-4.332031 9.664063-9.660156s-4.335937-9.664063-9.664063-9.664063zm0 0"/><path d="m245.042969 342c-1.261719 0-2.53125-.214844-3.753907-.65625l-19.132812-6.894531c-1.617188-.585938-2.820312-1.957031-3.191406-3.636719-.367188-1.675781.152344-3.425781 1.378906-4.632812 1.863281-1.835938 2.890625-4.277344 2.890625-6.882813s-1.027344-5.050781-2.890625-6.882813c-1.226562-1.207031-1.746094-2.957031-1.378906-4.632812.371094-1.679688 1.574218-3.050781 3.191406-3.636719l19.132812-6.894531c3.367188-1.210938 7.09375-.730469 9.976563 1.296875 2.628906 1.847656 4.136719 4.679687 4.136719 7.773437v25.953126c0 3.09375-1.507813 5.925781-4.136719 7.773437-1.835937 1.289063-4.015625 1.953125-6.222656 1.953125zm-13.464844-14.785156 13.101563 4.71875c.296874.109375.5625.058594.722656-.007813v-25.257812c-.160156-.066407-.425782-.121094-.722656-.011719l-13.101563 4.722656c1.085937 2.460938 1.65625 5.144532 1.65625 7.917969 0 2.769531-.570313 5.453125-1.65625 7.917969zm0 0"/><path d="m182.101562 342c-2.207031 0-4.386718-.667969-6.222656-1.957031-2.628906-1.847657-4.136718-4.679688-4.136718-7.773438v-25.953125c0-3.089844 1.507812-5.925781 4.136718-7.773437 2.882813-2.023438 6.613282-2.507813 9.976563-1.296875l19.132812 6.898437c1.617188.582031 2.820313 1.953125 3.191407 3.632813.367187 1.679687-.152344 3.429687-1.378907 4.632812-1.863281 1.835938-2.886719 4.28125-2.886719 6.886719 0 2.601563 1.023438 5.046875 2.886719 6.878906 1.226563 1.207031 1.746094 2.957031 1.378907 4.636719-.371094 1.679688-1.574219 3.050781-3.191407 3.632812l-19.132812 6.894532c-1.222657.445312-2.492188.660156-3.753907.660156zm-.359374-10.074219c.15625.066407.421874.117188.722656.007813l13.097656-4.71875c-1.082031-2.460938-1.652344-5.144532-1.652344-7.917969 0-2.777344.570313-5.460937 1.652344-7.917969l-13.097656-4.722656c-.300782-.105469-.566406-.054688-.722656.011719zm0 0"/><path d="m291.046875 393.957031h-46.035156c-1.761719 0-3.394531-.929687-4.296875-2.445312-.898438-1.511719-.9375-3.390625-.097656-4.941407.492187-.902343 1.046874-1.660156 1.699218-2.3125l18.667969-18.664062c3.882813-3.886719 10.207031-3.886719 14.097656 0l18.664063 18.664062c.660156.660157 1.214844 1.421876 1.707031 2.328126.832031 1.550781.792969 3.421874-.113281 4.933593-.902344 1.511719-2.53125 2.4375-4.292969 2.4375zm-34.300781-10h22.5625l-11.296875-11.292969zm0 0"/><path d="m221.070312 311.714844c-.878906 0-1.761718-.230469-2.5625-.707032-2.921874-1.75-6.679687-1.792968-9.609374-.164062-2.097657 1.164062-4.722657.675781-6.261719-1.160156l-31.992188-38.191406c-1.683593-2.003907-1.53125-4.96875.347657-6.792969 2.292968-2.230469 3.554687-5.199219 3.554687-8.355469v-9.089844c0-1.800781.972656-3.46875 2.546875-4.355468 1.570312-.882813 3.503906-.855469 5.042969.082031 9.742187 5.898437 20.027343 8.890625 30.558593 8.890625 11.019532 0 22.152344-3.417969 32.1875-9.886719 1.542969-.992187 3.5-1.066406 5.105469-.1875 1.605469.875 2.605469 2.558594 2.605469 4.390625v10.160156c0 3.253906 1.375 6.386719 3.78125 8.59375 1.964844 1.808594 2.164062 4.847656.449219 6.894532l-31.917969 38.09375c-.980469 1.164062-2.398438 1.785156-3.835938 1.785156zm-7.5-12.082032c2.074219 0 4.128907.335938 6.09375.976563l26.773438-31.957031c-2.476562-3.59375-3.84375-7.890625-3.84375-12.3125v-1.597656c-9.546875 4.679687-19.742188 7.125-29.898438 7.125-9.65625 0-19.089843-2.113282-28.144531-6.292969v.765625c0 4.226562-1.277343 8.378906-3.589843 11.894531l26.996093 32.21875c1.816407-.539063 3.710938-.820313 5.613281-.820313zm0 0"/></g></svg>