<svg height="511pt" viewBox="-88 0 511 511.90309" width="511pt" xmlns="http://www.w3.org/2000/svg"><path d="m331.257812 492.84375-9.726562-174.671875c-.738281-13.191406-9.960938-24.371094-22.773438-27.597656l-41.796874-10.519531c-7.253907-1.824219-14.425782-3.945313-21.503907-6.351563l-18.492187-9.117187-3.71875-1.835938c-5.898438-2.910156-9.636719-8.917969-9.636719-15.496094v-13.550781l-.023437.023437c-8.460938 8.238282-19.800782 12.851563-31.609376 12.851563.140626 0-4.339843 0-4.578124 0-11.808594 0-23.152344-4.609375-31.609376-12.851563l-2.664062-2.59375v16.125c0 6.578126-3.738281 12.585938-9.640625 15.496094l-2.738281 1.347656-18.398438 9.074219c-7.792968 2.757813-15.707031 5.152344-23.722656 7.167969l-40.652344 10.230469c-12.8125 3.226562-22.035156 14.40625-22.769531 27.597656l-9.730469 174.671875c-.425781 7.636719 5.652344 14.0625 13.296875 14.0625h299.191407c7.648437-.003906 13.726562-6.425781 13.296874-14.0625zm0 0" fill="#e8e6e6"/><path d="m63.023438 284.269531 15.601562-3.925781c8.015625-2.019531 15.929688-4.410156 23.722656-7.167969l18.398438-9.074219 2.738281-1.347656c5.902344-2.910156 9.640625-8.917968 9.640625-15.496094v-16.125l2.664062 2.59375c8.460938 8.238282 19.800782 12.851563 31.609376 12.851563.238281 0 4.71875 0 4.578124 0 11.808594 0 23.148438-4.609375 31.609376-12.851563l.023437-.023437v13.550781c0 6.578125 3.738281 12.585938 9.636719 15.496094l3.71875 1.835938 18.492187 9.117187c7.078125 2.40625 14.253907 4.527344 21.503907 6.351563l18.628906 4.691406c3.515625-12.441406 3.394531-26.058594-3.292969-40.214844-26.234375-55.539062 26.234375-127.535156-6.054687-189.25-32.289063-61.710938-96.867188-49.367188-96.867188-49.367188s-64.578125-12.34375-96.867188 49.367188c-32.289062 61.710938 20.179688 133.707031-6.054687 189.246094-6.601563 13.976562-6.808594 27.433594-3.429687 39.742187zm0 0" fill="#7c292e"/><path d="m241.777344 106.34375c-10.515625-2.328125-28.117188-10.265625-37.867188-37.046875-.605468-1.660156-2.785156-2.015625-3.851562-.605469-6.976563 9.222656-29.304688 33.019532-72.460938 30.566406-14.121094-.800781-24.230468 3.835938-30.230468 9.699219l-5.234376 59.558594c-1.226562 13.15625 3.5625 26.160156 13.023438 35.378906l30.632812 29.832031c8.460938 8.238282 19.800782 12.847657 31.609376 12.847657.238281 0 4.71875 0 4.578124 0 11.808594 0 23.152344-4.609375 31.609376-12.847657l30.632812-29.832031c9.464844-9.21875 14.25-22.222656 13.023438-35.378906zm0 0" fill="#fcb275"/><path d="m97.152344 111.375c-.449219-.027344-.898438-.070312-1.355469-.070312-13.304687 0-24.089844 10.785156-24.089844 24.089843 0 12.335938 9.277344 22.492188 21.230469 23.90625zm0 0" fill="#fcb275"/><path d="m242.339844 111.304688c-.042969 0-.085938.007812-.125.007812l4.199218 47.800781c11.359376-1.941406 20.015626-11.808593 20.015626-23.71875 0-13.304687-10.785157-24.089843-24.089844-24.089843zm0 0" fill="#fcb275"/><path d="m317.960938 506.902344c7.648437 0 13.726562-6.421875 13.296874-14.058594l-9.726562-174.671875c-.738281-13.191406-9.964844-24.371094-22.773438-27.597656l-41.796874-10.519531c-7.253907-1.824219-14.425782-3.945313-21.503907-6.351563l-18.492187-9.117187-1.984375-.980469-30.785157 243.296875zm0 0" fill="#515050"/><path d="m18.769531 506.902344c-7.644531 0-13.722656-6.421875-13.296875-14.058594l9.730469-174.671875c.734375-13.191406 9.960937-24.371094 22.769531-27.597656l41.800782-10.519531c7.25-1.824219 14.425781-3.945313 21.503906-6.351563l18.488281-9.117187 2.425781-1.195313 30.347656 243.515625h-133.769531zm0 0" fill="#515050"/><path d="m246.0625 331.332031-4.394531-55.660156c-2.070313-.648437-4.152344-1.273437-6.210938-1.972656l-18.492187-9.117188-1.984375-.976562-30.785157 243.296875h16.144532zm0 0" fill="#515050"/><path d="m90.667969 331.332031 4.394531-55.660156c2.074219-.648437 4.15625-1.273437 6.214844-1.972656l18.488281-9.117188 2.425781-1.195312 30.347656 243.515625h-16.148437zm0 0" fill="#515050"/><path d="m175.160156 311.136719s4.851563 38.09375 28.558594 41.453125l11.261719-88.984375zm0 0" fill="#e8e6e6"/><path d="m162.195312 311.136719-40.003906-47.75 11.074219 88.855469c22.238281-5.003907 28.929687-41.105469 28.929687-41.105469zm0 0" fill="#e8e6e6"/><path d="m203.609375 247.253906v-13.550781l-.027344.023437c-8.457031 8.238282-19.800781 12.851563-31.609375 12.851563.140625 0-4.335937 0-4.574218 0-21.554688 0-33.027344-14.585937-34.277344-15.445313v16.121094c0 11.988282-10.726563 15.957032-10.929688 16.136719l40.003906 47.75h12.964844l39.820313-47.53125c-.359375-.3125-11.371094-4.03125-11.371094-16.355469zm0 0" fill="#fcb275"/><path d="m175.164062 311.136719h-12.96875s-1.894531 10.214843-7.011718 20.535156c3.59375 3.347656 8.382812 5.433594 13.6875 5.433594 4.773437 0 9.128906-1.691407 12.578125-4.464844v-.003906c-4.902344-10.636719-6.285157-21.5-6.285157-21.5zm0 0" fill="#fcbd4c"/><path d="m181.449219 332.636719c-3.246094 2.613281-7.304688 4.246093-11.75 4.429687 6.140625 10.496094 13.527343 25.578125 16.074219 40.902344.851562 5.121094 6.453124 7.945312 11.148437 5.734375l3.042969-1.429687 3.753906-29.683594c-11.046875-1.566406-17.996094-10.671875-22.269531-19.953125zm0 0" fill="#fcbd4c"/><path d="m155.179688 331.671875c-4.503907 9.074219-11.507813 18.230469-21.914063 20.570313l3.773437 30.285156 2.5 1.179687c4.699219 2.210938 10.296876-.617187 11.152344-5.738281 2.554688-15.363281 9.964844-30.476562 16.117188-40.972656-4.480469-.46875-8.503906-2.414063-11.628906-5.324219zm0 0" fill="#fcbd4c"/><g fill="#231f20"><path d="m171.972656 251.574219h-4.574218c-13.1875 0-25.652344-5.066407-35.097657-14.265625l-30.632812-29.835938c-10.597657-10.320312-15.890625-24.691406-14.515625-39.417968l5.234375-59.535157c.101562-1.191406.632812-2.304687 1.484375-3.136719 4.710937-4.609374 15.398437-12.171874 34.007812-11.117187 40.285156 2.289063 61.109375-19.234375 68.191406-28.59375 1.59375-2.101563 4.199219-3.171875 6.8125-2.777344 2.621094.394531 4.816407 2.191407 5.726563 4.6875 8.601563 23.636719 23.371094 31.46875 34.25 33.878907 2.128906.472656 3.707031 2.269531 3.894531 4.445312l5.46875 62.171875c1.367188 14.707031-3.921875 29.074219-14.519531 39.394531l-30.632813 29.835938c-9.445312 9.199218-21.910156 14.265625-35.097656 14.265625zm-69.796875-140.230469-5.066406 57.613281c-1.09375 11.730469 3.113281 23.152344 11.535156 31.355469l30.632813 29.832031c7.570312 7.371094 17.554687 11.433594 28.121094 11.433594h4.578124c10.5625 0 20.546876-4.0625 28.121094-11.433594l30.628906-29.832031c8.421876-8.203125 12.628907-19.625 11.539063-31.332031l-5.164063-58.699219c-10.605468-3.207031-26.308593-11.808594-36.125-34.800781-10.191406 11.71875-33.328124 31.066406-73.664062 28.769531-13.179688-.746094-21.074219 3.675781-25.136719 7.09375zm0 0"/><path d="m92.941406 164.300781c-.195312 0-.390625-.015625-.585937-.039062-14.621094-1.730469-25.644531-14.140625-25.644531-28.867188 0-16.042969 13.046874-29.089843 29.085937-29.089843.4375 0 .867187.023437 1.296875.050781l.339844.023437c1.351562.078125 2.613281.695313 3.5 1.71875.886718 1.027344 1.320312 2.363282 1.199218 3.710938l-4.214843 47.925781c-.117188 1.347656-.777344 2.585937-1.824219 3.441406-.894531.730469-2.011719 1.125-3.152344 1.125zm-1.28125-47.546875c-8.542968 1.894532-14.953125 9.53125-14.953125 18.640625 0 7.871094 4.800781 14.734375 11.765625 17.621094zm0 0"/><path d="m246.414062 164.113281c-1.09375 0-2.171874-.363281-3.050781-1.042969-1.109375-.851562-1.804687-2.128906-1.925781-3.519531l-4.203125-47.800781c-.121094-1.375.332031-2.742188 1.253906-3.773438.890625-.996093 2.144531-1.589843 3.476563-1.660156.121094-.003906.273437-.011718.375-.011718 16.039062 0 29.089844 13.050781 29.089844 29.089843 0 14.207031-10.167969 26.253907-24.171876 28.648438-.28125.046875-.5625.070312-.84375.070312zm1.324219-47.03125 3.113281 35.390625c6.355469-3.144531 10.578126-9.664062 10.578126-17.078125 0-8.652343-5.785157-15.976562-13.691407-18.3125zm-5.523437-5.769531h.019531zm0 0"/><path d="m169.714844 209.105469c-6.257813 0-11.960938-2.214844-15.648438-6.074219-1.90625-2-1.832031-5.164062.167969-7.070312 1.996094-1.90625 5.160156-1.832032 7.070313.167968 1.75 1.835938 4.976562 2.976563 8.414062 2.976563 3.433594 0 6.660156-1.140625 8.414062-2.976563 1.90625-2 5.070313-2.070312 7.070313-.164062 1.996094 1.90625 2.070313 5.070312.164063 7.066406-3.691407 3.863281-9.394532 6.074219-15.652344 6.074219zm0 0"/><path d="m206.964844 137.164062c-.792969 0-1.59375-.1875-2.339844-.585937-1.265625-.671875-4.167969-1.351563-7.792969-1.351563s-6.527343.675782-7.792969 1.351563c-2.433593 1.296875-5.464843.367187-6.761718-2.070313s-.371094-5.464843 2.070312-6.761718c3.011719-1.601563 7.5625-2.519532 12.480469-2.519532 4.921875 0 9.472656.917969 12.484375 2.519532 2.4375 1.296875 3.367188 4.324218 2.070312 6.761718-.894531 1.691407-2.628906 2.65625-4.417968 2.65625zm0 0"/><path d="m152.476562 137.164062c-.789062 0-1.59375-.1875-2.34375-.585937-1.261718-.671875-4.164062-1.351563-7.789062-1.351563s-6.527344.675782-7.789062 1.351563c-2.4375 1.296875-5.464844.371094-6.761719-2.070313-1.296875-2.4375-.375-5.464843 2.066406-6.761718 3.015625-1.601563 7.5625-2.519532 12.488281-2.519532 4.917969 0 9.46875.917969 12.480469 2.519532 2.441406 1.296875 3.367187 4.324218 2.070313 6.761718-.902344 1.691407-2.628907 2.65625-4.421876 2.65625zm0 0"/><path d="m143.152344 156.761719c-3.316406 0-6-2.683594-6-6v-1.105469c0-3.316406 2.683594-6 6-6 3.3125 0 6 2.683594 6 6v1.105469c0 3.316406-2.6875 6-6 6zm0 0"/><path d="m196.277344 157.613281c-3.3125 0-6-2.6875-6-6v-1.109375c0-3.3125 2.6875-6 6-6s6 2.6875 6 6v1.109375c0 3.3125-2.6875 6-6 6zm0 0"/><path d="m272.039062 509.042969c-2.761718 0-5-2.238281-5-5v-113.136719c0-2.761719 2.238282-5 5-5 2.761719 0 5 2.238281 5 5v113.136719c0 2.761719-2.238281 5-5 5zm0 0"/><path d="m64.691406 509.042969c-2.761718 0-5-2.238281-5-5v-113.136719c0-2.761719 2.238282-5 5-5 2.761719 0 5 2.238281 5 5v113.136719c0 2.761719-2.238281 5-5 5zm0 0"/><path d="m317.960938 511.902344h-133.769532c-1.4375 0-2.800781-.617188-3.75-1.691406-.949218-1.078126-1.390625-2.511719-1.207031-3.9375l30.789063-243.292969c.203124-1.605469 1.167968-3.011719 2.589843-3.777344s3.128907-.796875 4.578125-.082031l20.183594 9.953125c6.824219 2.3125 13.820312 4.371093 20.808594 6.132812l41.796875 10.519531c15.015625 3.777344 25.679687 16.703126 26.542969 32.164063l9.726562 174.671875c.28125 5.003906-1.535156 9.964844-4.980469 13.605469-3.445312 3.648437-8.296875 5.734375-13.308593 5.734375zm-128.09375-10h128.09375c2.308593 0 4.457031-.921875 6.042968-2.601563 1.585938-1.675781 2.390625-3.875 2.261719-6.175781l-9.726563-174.675781c-.621093-11.0625-8.253906-20.316407-19.003906-23.023438l-41.796875-10.519531c-7.351562-1.851562-14.71875-4.027344-21.894531-6.46875-.207031-.070312-.40625-.15625-.601562-.25l-14.183594-6.996094zm0 0"/><path d="m152.539062 511.902344h-133.769531c-5.011719 0-9.863281-2.085938-13.308593-5.730469-3.445313-3.640625-5.257813-8.601563-4.980469-13.605469l9.730469-174.671875c.859374-15.460937 11.527343-28.386719 26.542968-32.167969l41.796875-10.519531c6.988281-1.757812 13.984375-3.820312 20.808594-6.132812l20.621094-10.167969c1.453125-.714844 3.160156-.683594 4.585937.085938 1.421875.765624 2.390625 2.175781 2.589844 3.78125l30.34375 243.515624c.179688 1.421876-.261719 2.855469-1.210938 3.929688-.953124 1.066406-2.316406 1.683594-3.75 1.683594zm-34.4375-240.921875-14.617187 7.207031c-.191406.09375-.394531.179688-.597656.25-7.175781 2.441406-14.542969 4.617188-21.894531 6.46875l-41.796876 10.519531c-10.75 2.707031-18.386718 11.957031-19 23.023438l-9.730468 174.675781c-.128906 2.304688.675781 4.5 2.261718 6.175781 1.585938 1.679688 3.734376 2.601563 6.042969 2.601563h128.105469zm0 0"/><path d="m200.339844 511.902344h-16.144532c-1.4375 0-2.804687-.617188-3.75-1.691406-.953124-1.078126-1.390624-2.511719-1.210937-3.9375l30.789063-243.292969c.203124-1.605469 1.167968-3.011719 2.59375-3.777344 1.421874-.765625 3.128906-.792969 4.578124-.082031l20.175782 9.949218c1.367187.457032 2.75.886719 4.125 1.3125l1.667968.519532c1.949219.613281 3.328126 2.34375 3.488282 4.375l4.394531 55.660156c.042969.558594-.003906 1.117188-.144531 1.65625l-45.722656 175.570312c-.574219 2.199219-2.5625 3.738282-4.839844 3.738282zm-10.472656-10h6.609374l44.535157-171.011719-4.0625-51.449219c-1.039063-.324218-2.074219-.65625-3.101563-1.003906-.207031-.070312-.40625-.15625-.601562-.25l-14.183594-6.996094zm0 0"/><path d="m152.539062 511.902344h-16.148437c-2.277344 0-4.265625-1.539063-4.839844-3.738282l-45.71875-175.570312c-.140625-.539062-.191406-1.097656-.144531-1.65625l4.390625-55.660156c.160156-2.03125 1.542969-3.765625 3.488281-4.375l1.667969-.515625c1.378906-.429688 2.757813-.855469 4.128906-1.316407l20.617188-10.164062c1.453125-.714844 3.160156-.683594 4.585937.082031 1.421875.769531 2.390625 2.179688 2.589844 3.785157l30.34375 243.511718c.179688 1.425782-.261719 2.855469-1.210938 3.929688-.953124 1.070312-2.316406 1.6875-3.75 1.6875zm-12.285156-10h6.625l-28.777344-230.921875-14.613281 7.207031c-.195312.09375-.398437.179688-.601562.25-1.03125.347656-2.066407.679688-3.101563 1.003906l-4.0625 51.449219zm0 0"/><path d="m203.71875 357.589844c-.234375 0-.46875-.015625-.699219-.046875-27.171875-3.855469-32.601562-44.066407-32.816406-45.773438-.175781-1.382812.230469-2.777343 1.125-3.84375l39.820313-47.527343c1.421874-1.703126 3.796874-2.261719 5.832031-1.375 2.035156.890624 3.242187 3.007812 2.960937 5.210937l-11.261718 88.984375c-.167969 1.328125-.863282 2.535156-1.925782 3.347656-.875.667969-1.945312 1.023438-3.035156 1.023438zm-23.253906-44.996094c1.222656 6.710938 6.011718 27.574219 19.027344 33.589844l8.390624-66.320313zm-5.304688-1.457031h.023438zm0 0"/><path d="m133.265625 357.242188c-1.019531 0-2.027344-.3125-2.875-.910157-1.15625-.8125-1.914063-2.074219-2.085937-3.472656l-11.074219-88.855469c-.273438-2.199218.933593-4.316406 2.96875-5.199218 2.035156-.890626 4.402343-.328126 5.828125 1.371093l40.003906 47.75c.957031 1.144531 1.355469 2.65625 1.082031 4.125-.296875 1.605469-7.582031 39.40625-32.746093 45.070313-.367188.078125-.734376.121094-1.101563.121094zm-4.015625-77.640626 8.183594 65.664063c11.101562-6.457031 17.265625-23.738281 19.367187-32.777344zm0 0"/><path d="m317.960938 511.902344h-299.191407c-5.015625 0-9.867187-2.085938-13.308593-5.730469-3.445313-3.644531-5.261719-8.601563-4.980469-13.605469l9.726562-174.675781c.863281-15.460937 11.53125-28.386719 26.542969-32.164063l40.652344-10.234374c7.730468-1.941407 15.464844-4.277344 23-6.933594l20.875-10.292969c4.222656-2.082031 6.847656-6.300781 6.847656-11.011719v-16.121094c0-2.011718 1.203125-3.828124 3.054688-4.609374 1.851562-.78125 3.992187-.375 5.433593 1.027343l2.664063 2.59375c7.570312 7.371094 17.554687 11.433594 28.121094 11.433594h4.578124c10.5625 0 20.550782-4.0625 28.121094-11.433594 1.441406-1.402343 3.59375-1.816406 5.445313-1.035156 1.851562.78125 3.066406 2.582031 3.066406 4.59375v13.550781c0 4.710938 2.625 8.929688 6.847656 11.011719l21.917969 10.808594c6.824219 2.3125 13.824219 4.375 20.804688 6.132812l41.796874 10.519531c15.015626 3.78125 25.683594 16.707032 26.546876 32.167969l9.726562 174.671875c.28125 5.003906-1.535156 9.960938-4.980469 13.605469-3.445312 3.644531-8.296875 5.730469-13.308593 5.730469zm-179.839844-269.714844v5.066406c0 8.546875-4.761719 16.203125-12.425782 19.980469l-21.136718 10.425781c-.175782.085938-.359375.164063-.542969.226563-7.914063 2.800781-16.046875 5.261719-24.171875 7.304687l-40.648438 10.230469c-10.746093 2.707031-18.382812 11.960937-19 23.027344l-9.726562 174.675781c-.128906 2.304688.671875 4.5 2.261719 6.175781 1.585937 1.679688 3.734375 2.601563 6.042969 2.601563h299.191406c2.308594 0 4.457031-.921875 6.042968-2.601563 1.585938-1.675781 2.390626-3.875 2.261719-6.175781l-9.730469-174.675781c-.617187-11.066407-8.25-20.316407-19-23.023438l-41.796874-10.523437c-7.347657-1.847656-14.714844-4.023438-21.894532-6.464844-.207031-.070312-.40625-.15625-.601562-.25l-22.207032-10.953125c-7.664062-3.777344-12.425781-11.433594-12.425781-19.980469v-3.289062c-7.917969 4.957031-17.085937 7.613281-26.632812 7.613281h-4.578125c-10.628906-.003906-20.789063-3.296875-29.28125-9.390625zm0 0"/><path d="m175.160156 316.136719h-12.964844c-1.480468 0-2.882812-.65625-3.835937-1.789063l-40-47.75c-1.75-2.085937-1.507813-5.183594.539063-6.972656.554687-.488281 1.074218-.726562 1.414062-.886719 2.917969-1.347656 7.808594-4.636719 7.808594-11.484375v-16.125c0-1.859375 1.03125-3.558594 2.671875-4.425781 1.644531-.863281 3.628906-.746094 5.160156.304687.542969.375.945313.785157 1.617187 1.460938 3.203126 3.242188 12.949219 13.105469 29.828126 13.105469h4.578124c10.5625 0 20.546876-4.058594 28.121094-11.429688 1.4375-1.402343 3.589844-1.820312 5.441406-1.039062 1.851563.785156 3.070313 2.585937 3.070313 4.59375v13.554687c0 5.25 2.710937 9.15625 8.066406 11.613282.464844.214843.992188.457031 1.558594.941406 2.082031 1.785156 2.335937 4.910156.578125 7.007812l-39.820312 47.527344c-.945313 1.140625-2.351563 1.792969-3.832032 1.792969zm-10.628906-10h8.296875l34.542969-41.230469c-5.722656-4.3125-8.761719-10.402344-8.761719-17.652344v-3.289062c-7.917969 4.957031-17.085937 7.613281-26.632813 7.613281h-4.578124c-10.714844 0-20.527344-3.183594-29.273438-9.484375v5.160156c0 7.039063-2.988281 13.125-8.371094 17.375zm0 0"/><path d="m168.871094 342.105469c-6.339844 0-12.414063-2.40625-17.097656-6.777344-1.621094-1.507813-2.054688-3.898437-1.070313-5.878906 4.753906-9.582031 6.558594-19.125 6.578125-19.222657.4375-2.371093 2.503906-4.085937 4.914062-4.085937h12.96875c2.515626 0 4.640626 1.867187 4.957032 4.363281.027344.203125 1.394531 10.328125 5.867187 20.042969.960938 2.082031.382813 4.546875-1.402343 5.984375-4.53125 3.644531-9.964844 5.574219-15.714844 5.574219zm-7.457032-12c4.171876 2.402343 9.46875 2.621093 13.785157.589843-2.207031-5.664062-3.515625-11-4.242188-14.554687h-4.785156c-.863281 3.375-2.386719 8.484375-4.757813 13.964844zm0 0"/><path d="m193.53125 389.472656c-2.0625 0-4.121094-.5-6.023438-1.496094-3.578124-1.878906-6.007812-5.226562-6.667968-9.191406-2.453125-14.761718-9.761719-29.460937-15.457032-39.195312-.886718-1.511719-.914062-3.378906-.074218-4.921875.84375-1.539063 2.429687-2.523438 4.183594-2.597657 3.230468-.136718 6.28125-1.289062 8.820312-3.332031 1.203125-.964843 2.777344-1.324219 4.277344-.972656s2.753906 1.378906 3.398437 2.777344c4.734375 10.28125 10.9375 16.03125 18.429688 17.09375 2.707031.382812 4.605469 2.867187 4.261719 5.578125l-3.757813 29.683594c-.214844 1.695312-1.28125 3.164062-2.832031 3.894531l-3.039063 1.429687c-1.761719.835938-3.644531 1.25-5.519531 1.25zm-16.132812-48.882812c5.367187 10.054687 11.082031 23.175781 13.308593 36.558594.191407 1.15625.988281 1.730468 1.445313 1.96875.835937.4375 1.796875.460937 2.644531.0625l.554687-.261719 2.847657-22.511719c-7.40625-2.472656-13.761719-8.136719-18.710938-16.683594-.683593.324219-1.378906.609375-2.089843.867188zm0 0"/><path d="m142.933594 389.472656c-1.878906 0-3.757813-.414062-5.523438-1.246094l-2.5-1.171874c-1.550781-.730469-2.621094-2.207032-2.835937-3.90625l-3.773438-30.289063c-.316406-2.550781 1.355469-4.929687 3.863281-5.496094 7.203126-1.617187 13.441407-7.644531 18.535157-17.914062.703125-1.414063 2.03125-2.414063 3.585937-2.695313 1.554688-.285156 3.148438.183594 4.300782 1.257813 2.453124 2.285156 5.472656 3.671875 8.734374 4.007812 1.691407.171875 3.175782 1.199219 3.945313 2.714844s.714844 3.320313-.144531 4.785156c-5.714844 9.75-13.042969 24.480469-15.5 39.269531-.660156 3.960938-3.089844 7.3125-6.667969 9.1875-1.902344.996094-3.960937 1.496094-6.019531 1.496094zm-1.273438-10.296875.003906.003907c.84375.398437 1.808594.375 2.644532-.0625.457031-.238282 1.253906-.8125 1.445312-1.96875 2.253906-13.554688 8.09375-26.839844 13.523438-36.960938-.828125-.34375-1.640625-.734375-2.425782-1.167969-5.050781 8.332031-11.117187 13.941407-18.109374 16.742188zm0 0"/><path d="m275.589844 289.742188c-.402344 0-.8125-.046876-1.222656-.152344l-18.628907-4.6875c-7.347656-1.847656-14.714843-4.023438-21.894531-6.46875-.207031-.070313-.40625-.152344-.601562-.25l-22.207032-10.949219c-7.664062-3.777344-12.425781-11.433594-12.425781-19.980469v-3.292968c-7.917969 4.957031-17.085937 7.613281-26.632813 7.613281h-4.578124c-10.625 0-20.785157-3.292969-29.273438-9.386719v5.066406c0 8.546875-4.761719 16.203125-12.425781 19.980469l-21.140625 10.425781c-.175782.085938-.355469.164063-.539063.226563-7.914062 2.800781-16.046875 5.261719-24.171875 7.304687l-15.601562 3.925782c-2.640625.664062-5.324219-.902344-6.039063-3.527344-4.066406-14.8125-2.8125-29.347656 3.730469-43.199219 11.84375-25.074219 6.644531-54.125 1.144531-84.878906-6.226562-34.800781-12.667969-70.785157 5-104.550781 31.460938-60.125 92.957031-53.34375 101.296875-52.113282 8.335938-1.230468 69.835938-8.015625 101.300782 52.113282 17.664062 33.765624 11.222656 69.75 5 104.550781-5.503907 30.757812-10.703126 59.808593 1.140624 84.878906 6.617188 14.007813 7.824219 28.710937 3.585938 43.707031-.625 2.203125-2.625 3.644532-4.816406 3.644532zm-38.214844-20.667969c6.824219 2.3125 13.824219 4.375 20.804688 6.132812l13.722656 3.453125c2.117187-10.96875.734375-21.710937-4.125-31.996094-13.210938-27.960937-7.484375-59.960937-1.949219-90.910156 5.929687-33.148437 12.0625-67.421875-4.015625-98.15625-30.222656-57.753906-90.890625-46.890625-91.5-46.773437-.617188.117187-1.257812.117187-1.875 0-2.484375-.46875-61.378906-10.792969-91.496094 46.773437-16.082031 30.734375-9.949218 65.007813-4.019531 98.15625 5.535156 30.945313 11.261719 62.949219-1.945313 90.910156-4.789062 10.140626-6.203124 20.71875-4.226562 31.511719l10.652344-2.679687c7.730468-1.945313 15.464844-4.277344 23-6.933594l20.875-10.292969c4.222656-2.085937 6.847656-6.300781 6.847656-11.011719v-16.125c0-2.007812 1.203125-3.824218 3.054688-4.605468 1.851562-.78125 3.992187-.378906 5.433593 1.023437l2.664063 2.597657c7.570312 7.371093 17.554687 11.429687 28.121094 11.429687h4.578124c10.5625 0 20.550782-4.058594 28.121094-11.429687 1.441406-1.402344 3.59375-1.820313 5.445313-1.039063 1.851562.785156 3.066406 2.585937 3.066406 4.597656v13.550781c0 4.710938 2.625 8.929688 6.847656 11.011719zm0 0"/></g></svg>