<svg height="511pt" viewBox="-89 0 511 511.99732" width="511pt" xmlns="http://www.w3.org/2000/svg"><path d="m328.390625 493.0625-9.640625-173.109375c-.730469-13.070313-9.875-24.152344-22.570312-27.347656l-41.421876-10.425781c-7.1875-1.808594-14.296874-3.910157-21.3125-6.296876l-18.328124-9.035156-3.683594-1.816406c-5.847656-2.886719-9.550782-8.839844-9.550782-15.359375v-10.828125c-6.785156 3.371094-12.421874 5.871094-19.203124 7.640625-5.332032 1.394531-10.855469 2.089844-16.378907 2.082031-.011719 0-.023437.003906-.035156.003906-.15625 0-.308594-.015624-.464844-.019531-1.316406-.011719-2.632812-.058593-3.949219-.148437-.25-.015625-.492187-.050782-.742187-.070313-3.742187-.300781-7.460937-.898437-11.085937-1.847656-6.375-1.664063-11.738282-3.972656-18-7.046875v10.234375c0 6.519531-3.699219 12.472656-9.550782 15.359375l-2.710937 1.335938-18.238281 8.992187c-7.722657 2.734375-15.566407 5.105469-23.507813 7.105469l-40.289063 10.136718c-12.695312 3.199219-21.839843 14.277344-22.566406 27.351563l-9.640625 173.109375c-.421875 7.566406 5.597657 13.933594 13.175781 13.933594h296.515626c7.578124 0 13.601562-6.367188 13.179687-13.933594zm0 0" fill="#e8e6e6"/><path d="m205.019531 330.140625 8.132813-64.261719-39.460938 47.105469 29.957032 19.210937zm0 0" fill="#e8e6e6"/><path d="m121.195312 265.660156-.4375.21875 7.984376 63.113282 2.136718 3.203124 29.960938-19.210937zm0 0" fill="#e8e6e6"/><path d="m211.433594 265.03125c-5.847656-2.886719-9.550782-8.839844-9.550782-15.359375v-10.828125c-6.785156 3.371094-12.421874 5.871094-19.203124 7.640625-5.332032 1.394531-10.855469 2.089844-16.378907 2.082031-.011719 0-.023437.003906-.035156.003906-.15625 0-.308594-.015624-.464844-.019531-1.316406-.011719-2.632812-.058593-3.949219-.148437-.246093-.015625-.492187-.050782-.738281-.070313-3.746093-.300781-7.464843-.898437-11.085937-1.847656-6.378906-1.664063-11.742188-3.972656-18-7.046875v10.234375c0 6.519531-3.703125 12.472656-9.550782 15.359375l-1.28125.628906 39.644532 47.324219h12.851562l39.460938-47.105469zm0 0" fill="#fcb275"/><path d="m315.210938 511.996094h-296.515626c-4.980468 0-9.796874-2.074219-13.21875-5.691406-3.421874-3.617188-5.226562-8.546876-4.949218-13.515626l9.640625-173.113281c.855469-15.339843 11.441406-28.167969 26.339843-31.917969l40.285157-10.140624c7.660156-1.929688 15.328125-4.238282 22.789062-6.871094l20.683594-10.199219c4.171875-2.058594 6.761719-6.222656 6.761719-10.875v-10.234375c0-1.726562.890625-3.332031 2.355468-4.246094 1.464844-.910156 3.296876-1.003906 4.847657-.242187 5.855469 2.871093 10.996093 5.109375 17.0625 6.695312 3.222656.84375 6.664062 1.417969 10.222656 1.703125l.707031.070313c1.1875.082031 2.40625.125 3.625.132812.136719 0 .289063.007813.441406.015625h.054688c5.125 0 10.195312-.644531 15.070312-1.917968 6.296876-1.648438 11.648438-4.007813 18.242188-7.28125 1.546875-.773438 3.386719-.6875 4.859375.226562 1.46875.910156 2.363281 2.519531 2.363281 4.25v10.828125c0 4.648437 2.589844 8.816406 6.761719 10.875l21.71875 10.707031c6.765625 2.292969 13.699219 4.332032 20.613281 6.074219l41.425782 10.425781c14.898437 3.75 25.484374 16.578125 26.339843 31.917969l9.640625 173.113281c.277344 4.96875-1.527344 9.898438-4.949218 13.515625-3.421876 3.617188-8.238282 5.695313-13.21875 5.695313zm-178.183594-264.734375v2.410156c0 8.484375-4.730469 16.085937-12.339844 19.839844l-20.953125 10.332031c-.175781.085938-.355469.164062-.539063.226562-7.84375 2.777344-15.90625 5.214844-23.960937 7.242188l-40.285156 10.140625c-10.632813 2.675781-18.1875 11.828125-18.796875 22.777344l-9.640625 173.109375c-.128907 2.273437.664062 4.433594 2.230469 6.089844 1.5625 1.652343 3.679687 2.5625 5.953124 2.5625h296.515626c2.273437 0 4.390624-.910157 5.957031-2.566407 1.5625-1.652343 2.355469-3.816406 2.230469-6.089843l-9.640626-173.109376c-.613281-10.945312-8.164062-20.101562-18.796874-22.777343l-41.425782-10.425781c-7.28125-1.835938-14.582031-3.988282-21.699218-6.410157-.207032-.070312-.40625-.152343-.601563-.25l-22.011719-10.855469c-7.613281-3.75-12.339844-11.351562-12.339844-19.839843v-2.933594c-4.246093 1.875-8.328124 3.378906-12.9375 4.585937-5.679687 1.484376-11.585937 2.242188-17.542968 2.246094-.230469.003906-.4375-.003906-.652344-.015625-1.40625-.011719-2.824219-.0625-4.238281-.160156l-.808594-.078125c-4.128906-.332031-8.148437-1-11.9375-1.992188-4.21875-1.097656-7.980469-2.449218-11.738281-4.058593zm0 0" fill="#231f20"/><path d="m203.644531 337.199219c-.925781 0-1.859375-.257813-2.695312-.792969l-29.957031-19.214844c-1.207032-.773437-2.027344-2.03125-2.242188-3.453125-.21875-1.417969.1875-2.863281 1.109375-3.964843l39.460937-47.105469c1.425782-1.699219 3.800782-2.261719 5.832032-1.371094 2.035156.886719 3.242187 3.007813 2.960937 5.207031l-8.132812 64.261719c-.09375.765625-.367188 1.5-.796875 2.144531l-1.371094 2.058594c-.964844 1.445312-2.550781 2.230469-4.167969 2.230469zm1.375-7.058594h.019531zm-23.847656-18.300781 19.539063 12.535156 5.34375-42.238281zm0 0" fill="#231f20"/><path d="m130.882812 337.199219c-1.617187 0-3.199218-.785157-4.164062-2.230469l-2.136719-3.207031c-.429687-.640625-.707031-1.375-.800781-2.144531l-7.988281-63.113282c-.265625-2.113281.832031-4.164062 2.746093-5.109375l.4375-.214843c2.066407-1.023438 4.566407-.5 6.046876 1.273437l39.644531 47.320313c.921875 1.101562 1.328125 2.546874 1.109375 3.964843-.214844 1.421875-1.03125 2.679688-2.242188 3.453125l-29.957031 19.214844c-.832031.535156-1.769531.792969-2.695313.792969zm-3.140624-55.9375 5.503906 43.476562 20.113281-12.898437zm0 0" fill="#231f20"/><path d="m173.691406 317.984375h-12.851562c-1.480469 0-2.882813-.65625-3.835938-1.792969l-39.644531-47.320312c-.984375-1.175782-1.375-2.742188-1.058594-4.242188.316407-1.503906 1.304688-2.777344 2.683594-3.457031l1.28125-.628906c4.167969-2.054688 6.761719-6.222657 6.761719-10.875v-10.234375c0-1.722656.890625-3.328125 2.355468-4.242188 1.464844-.914062 3.296876-1.007812 4.847657-.246094 5.855469 2.875 10.996093 5.113282 17.0625 6.699219 3.222656.839844 6.664062 1.414063 10.222656 1.703125l.707031.066406c1.1875.082032 2.40625.125 3.625.136719.136719 0 .289063.007813.441406.015625h.058594c5.125 0 10.191406-.648437 15.070313-1.921875 6.292969-1.644531 11.644531-4.003906 18.242187-7.28125 1.546875-.773437 3.382813-.683593 4.855469.226563 1.472656.914062 2.367187 2.519531 2.367187 4.25v10.828125c0 4.652343 2.589844 8.820312 6.761719 10.875l1.722657.847656c1.375.679687 2.363281 1.953125 2.679687 3.453125.316406 1.503906-.074219 3.066406-1.0625 4.242188l-39.460937 47.105468c-.949219 1.136719-2.351563 1.792969-3.832032 1.792969zm-10.519531-10h8.183594l34.15625-40.769531c-5.40625-4.132813-8.628907-10.539063-8.628907-17.542969v-2.933594c-4.25 1.878907-8.332031 3.378907-12.9375 4.585938-5.683593 1.484375-11.585937 2.242187-17.546874 2.246093-.226563.003907-.4375-.003906-.648438-.015624-1.410156-.011719-2.828125-.0625-4.242188-.160157l-.808593-.078125c-4.125-.332031-8.148438-1-11.933594-1.992187-4.21875-1.101563-7.980469-2.453125-11.738281-4.0625v2.410156c0 6.839844-3.074219 13.109375-8.253906 17.25zm0 0" fill="#231f20"/><path d="m315.210938 506.996094c7.578124 0 13.601562-6.367188 13.179687-13.933594l-9.640625-173.109375c-.730469-13.070313-9.875-24.152344-22.570312-27.347656l-41.421876-10.425781c-7.1875-1.808594-14.296874-3.910157-21.3125-6.296876l-18.328124-9.035156-1.964844-.96875-30.515625 241.117188zm0 0" fill="#754034"/><path d="m18.699219 506.996094c-7.578125 0-13.601563-6.367188-13.179688-13.933594l9.640625-173.109375c.726563-13.070313 9.871094-24.152344 22.566406-27.347656l41.425782-10.425781c7.1875-1.808594 14.296875-3.910157 21.3125-6.296876l18.324218-9.035156 1.96875-.96875 30.511719 241.117188zm0 0" fill="#754034"/><path d="m167.871094 5.007812c-50.8125-.695312-92.394532 41.953126-92.394532 92.769532v23.980468c.925782-1.195312 1.8125-2.183593 2.742188-3.09375 3.300781-3.230468 8.847656-1.984374 10.542969 2.308594l5.1875 13.117188c1.261719 3.199218 6.019531 2.261718 5.976562-1.175782l-.347656-27.628906c-.074219-5.84375 1.917969-11.640625 6-15.816406 4.859375-4.96875 11.484375-6.949219 18.34375-3.175781 27.09375 14.910156 60.089844 14.976562 87.3125-.003907 2.054687-1.128906 4.332031-1.785156 6.675781-1.785156-.203125-.042968 5.90625-.445312 10.292969 4.566406 4.730469 5.40625 6.199219 10.675782 6.132813 15.945313l-.351563 27.898437c-.042969 3.4375 4.714844 4.375 5.976563 1.179688l4.90625-12.410156c1.6875-4.261719 7.332031-5.6875 10.683593-2.144532.789063.839844 1.511719 1.738282 2.203125 2.664063v-26.066406c0-49.707031-40.332031-90.449219-89.882812-91.128907zm0 0" fill="#7c292e"/><path d="m255.546875 119.535156c-3.351563-3.539062-8.996094-2.113281-10.679687 2.148438l-4.90625 12.410156c-.78125 1.976562-2.898438 2.367188-4.386719 1.566406l.902343 34.914063c15.34375-1.554688 27.316407-14.507813 27.316407-30.261719 0-13.535156-9.195313-21.78125-8.246094-20.777344zm0 0" fill="#fcb275"/><path d="m93.945312 134.09375-5.183593-13.117188c-1.664063-4.214843-7.019531-5.464843-10.339844-2.464843-.679687.65625-1.636719 1.554687-2.945313 3.246093-3.972656 5.132813-6.359374 11.558594-6.359374 18.554688 0 15.753906 11.976562 28.707031 27.320312 30.261719l.894531-34.578125c-1.316406.222656-2.769531-.339844-3.386719-1.902344zm0 0" fill="#fcb275"/><path d="m235.773438 135.734375c-1.015626-.460937-1.804688-1.417969-1.789063-2.820313l.351563-27.898437c.074218-5.75-1.75-10.933594-6.132813-15.945313-4.382813-5.007812-10.5-4.609374-10.292969-4.566406-2.292968 0-4.570312.628906-6.675781 1.785156-27.378906 15.066407-60.378906 14.824219-87.3125.003907h-.003906c-11.125-6.121094-24.53125 3.863281-24.339844 18.992187l.34375 27.628906c.023437 1.804688-1.273437 2.894532-2.695313 3.085938l-1.507812 54.28125c-1.796875 17.609375 7.375 34.597656 23.191406 42.539062 13.121094 6.589844 20.78125 10.964844 31.101563 13.660157 10.71875 2.808593 21.960937 2.808593 32.683593 0 10.316407-2.699219 17.980469-7.070313 31.097657-13.660157 15.816406-7.941406 24.988281-24.929687 23.191406-42.539062zm0 0" fill="#fcb275"/><path d="m196.980469 190.980469c-13.53125-10.648438-25.609375-5.820313-29.203125-3.953125-.675782.351562-1.488282.351562-2.167969 0-3.59375-1.867188-15.667969-6.695313-29.199219 3.953125-1.191406.933593-1.238281 2.730469-.097656 3.726562 4.375 3.824219 15.488281 11.570313 29.617188 6.851563.496093-.167969 1.035156-.167969 1.53125 0 14.125 4.722656 25.238281-3.023438 29.617187-6.851563 1.136719-.996093 1.09375-2.792969-.097656-3.726562zm0 0" fill="#7c292e"/><path d="m173.691406 312.984375h-12.851562l-15.097656 9.679687c1.339843 10.507813 10.355468 18.707032 21.210937 18.707032 10.984375 0 20.09375-8.386719 21.269531-19.066406zm0 0" fill="#fcbd4c"/><path d="m178.492188 337.953125c-3.339844 2.152344-7.292969 3.417969-11.539063 3.417969s-8.199219-1.269532-11.535156-3.425782l-11.636719 109.890626 3.164062 24.984374 15.753907 15.753907c2.351562 2.351562 6.160156 2.351562 8.511719 0l15.753906-15.753907 3.164062-24.984374zm0 0" fill="#fcbd4c"/><path d="m205.675781 506.996094 32.890625-103.152344c.269532-.851562.234375-1.769531-.105468-2.59375l-12.675782-30.78125c-.636718-1.542969-.1875-3.320312 1.101563-4.375l18.59375-15.210938c1.03125-.839843 1.542969-2.164062 1.347656-3.480468l-10.324219-70.546875c-1.019531-.332031-2.046875-.628907-3.058594-.972657l-18.328124-9.035156-1.964844-.96875-30.515625 241.117188zm0 0" fill="#8c5046"/><path d="m128.230469 506.996094-32.886719-103.152344c-.269531-.851562-.234375-1.769531.105469-2.59375l12.675781-30.78125c.632812-1.542969.183594-3.320312-1.105469-4.375l-18.589843-15.210938c-1.03125-.839843-1.542969-2.164062-1.347657-3.480468l10.320313-70.546875c1.019531-.332031 2.050781-.628907 3.0625-.972657l18.324218-9.035156 1.96875-.96875 30.511719 241.117188zm0 0" fill="#8c5046"/><g fill="#231f20"><path d="m269.699219 509.160156c-2.761719 0-5-2.238281-5-5v-112.121094c0-2.765624 2.238281-5 5-5s5 2.234376 5 5v112.121094c0 2.761719-2.238281 5-5 5zm0 0"/><path d="m64.207031 509.160156c-2.761719 0-5-2.238281-5-5v-112.121094c0-2.765624 2.238281-5 5-5s5 2.234376 5 5v112.121094c0 2.761719-2.238281 5-5 5zm0 0"/><path d="m315.210938 511.996094h-132.574219c-1.433594 0-2.800781-.617188-3.75-1.691406-.949219-1.078126-1.386719-2.511719-1.207031-3.933594l30.511718-241.121094c.203125-1.605469 1.167969-3.011719 2.589844-3.777344 1.425781-.765625 3.132812-.796875 4.582031-.082031l19.996094 9.859375c6.765625 2.292969 13.699219 4.335938 20.617187 6.078125l41.421876 10.425781c14.902343 3.75 25.488281 16.578125 26.34375 31.917969l9.640624 173.109375c.277344 4.972656-1.527343 9.902344-4.949218 13.519531-3.421875 3.617188-8.242188 5.695313-13.222656 5.695313zm-126.898438-10h126.898438c2.273437 0 4.390624-.910156 5.957031-2.566406 1.5625-1.652344 2.355469-3.816407 2.230469-6.089844l-9.640626-173.109375c-.613281-10.945313-8.164062-20.101563-18.796874-22.777344l-41.425782-10.425781c-7.28125-1.835938-14.582031-3.988282-21.699218-6.410156-.207032-.070313-.40625-.152344-.601563-.25l-14-6.902344zm0 0"/><path d="m151.269531 511.996094h-132.570312c-4.980469 0-9.800781-2.074219-13.222657-5.691406-3.425781-3.621094-5.226562-8.546876-4.949218-13.519532l9.640625-173.109375c.855469-15.339843 11.441406-28.167969 26.339843-31.917969l41.425782-10.425781c6.914062-1.742187 13.847656-3.785156 20.613281-6.078125l20-9.859375c1.449219-.714843 3.152344-.683593 4.578125.082031 1.421875.765626 2.390625 2.171876 2.589844 3.777344l30.511718 241.121094c.183594 1.421875-.257812 2.855469-1.207031 3.933594-.949219 1.070312-2.316406 1.6875-3.75 1.6875zm-34.59375-238.53125-14 6.902344c-.195312.097656-.394531.179687-.601562.25-7.117188 2.421874-14.417969 4.578124-21.699219 6.410156l-41.425781 10.425781c-10.632813 2.675781-18.183594 11.832031-18.796875 22.777344l-9.640625 173.109375c-.125 2.277344.667969 4.4375 2.230469 6.089844 1.566406 1.65625 3.679687 2.566406 5.957031 2.566406h126.898437zm0 0"/><path d="m166.824219 220.453125c-8.960938 0-17.308594-4.4375-22.332031-11.871094-1.546876-2.289062-.945313-5.398437 1.34375-6.941406 2.289062-1.546875 5.394531-.945313 6.941406 1.34375 3.160156 4.675781 8.410156 7.46875 14.042968 7.46875 5.632813 0 10.882813-2.792969 14.042969-7.46875 1.546875-2.292969 4.652344-2.890625 6.941407-1.34375 2.289062 1.542969 2.890624 4.652344 1.34375 6.941406-5.019532 7.433594-13.367188 11.871094-22.324219 11.871094zm0 0"/><path d="m204.453125 140.191406c-.792969 0-1.597656-.1875-2.34375-.585937-1.191406-.632813-3.972656-1.371094-7.894531-1.371094-3.925782 0-6.703125.738281-7.890625 1.371094-2.441407 1.296875-5.464844.371093-6.765625-2.066407-1.292969-2.4375-.371094-5.464843 2.066406-6.761718 3.039062-1.617188 7.625-2.542969 12.589844-2.542969 4.960937 0 9.550781.925781 12.585937 2.542969 2.441407 1.296875 3.367188 4.324218 2.066407 6.761718-.894532 1.691407-2.625 2.652344-4.414063 2.652344zm0 0"/><path d="m149.410156 140.191406c-.792968 0-1.597656-.1875-2.34375-.585937-1.1875-.632813-3.96875-1.371094-7.890625-1.371094-3.925781 0-6.707031.738281-7.894531 1.371094-2.4375 1.296875-5.464844.371093-6.761719-2.066407s-.371093-5.464843 2.066407-6.761718c3.039062-1.617188 7.625-2.542969 12.589843-2.542969 4.960938 0 9.550781.925781 12.585938 2.542969 2.4375 1.296875 3.363281 4.324218 2.066406 6.761718-.898437 1.691407-2.628906 2.652344-4.417969 2.652344zm0 0"/><path d="m139.988281 159.980469c-3.3125 0-6-2.683594-6-6v-1.121094c0-3.3125 2.6875-6 6-6s6 2.6875 6 6v1.121094c0 3.3125-2.6875 6-6 6zm0 0"/><path d="m193.65625 160.835938c-3.3125 0-6-2.683594-6-6v-1.117188c0-3.316406 2.6875-6 6-6s6 2.683594 6 6v1.117188c0 3.316406-2.6875 6-6 6zm0 0"/><path d="m96.765625 141.058594c-3.273437 0-6.214844-1.957032-7.46875-5.128906l-5.183594-13.117188c-.261719-.660156-.8125-.871094-1.113281-.933594-.339844-.070312-.84375-.066406-1.285156.359375-.808594.792969-1.535156 1.613281-2.28125 2.578125-1.308594 1.691406-3.546875 2.367188-5.574219 1.671875-2.023437-.691406-3.382813-2.589843-3.382813-4.730469v-23.976562c0-26.074219 10.730469-51.617188 29.441407-70.070312 18.457031-18.210938 42.605469-28.058594 68.019531-27.7031255 52.28125.7187495 94.816406 43.8398435 94.816406 96.1289065v26.0625c0 2.152343-1.378906 4.066406-3.421875 4.746093-2.046875.675782-4.296875-.027343-5.582031-1.753906-.679688-.90625-1.265625-1.617187-1.847656-2.238281-.109375-.117187-.503906-.53125-1.210938-.394531-.199218.039062-.878906.222656-1.171875.960937l-4.90625 12.410157c-1.460937 3.691406-5.191406 5.738281-9.09375 4.964843-3.894531-.765625-6.582031-4.074219-6.535156-8.042969l.351563-27.898437c.058593-4.769531-1.453126-8.648437-4.898438-12.589844-2.308594-2.640625-5.410156-2.863281-6.039062-2.882812-.164063.015625-.324219.023437-.488282.023437-1.402344 0-2.875.40625-4.265625 1.167969-28.847656 15.875-63.289062 15.871094-92.132812 0-5.433594-2.996094-9.71875-.40625-12.359375 2.292969-2.964844 3.03125-4.628906 7.5-4.570313 12.253906l.34375 27.628906c.046875 3.972656-2.636719 7.28125-6.53125 8.046875-.550781.109375-1.097656.164063-1.628906.164063zm121.753906-61.53125c3.496094 0 9.207031 1.410156 13.441407 6.253906 5.050781 5.773438 7.460937 12.085938 7.375 19.296875l-.222657 17.558594 1.105469-2.792969c1.457031-3.691406 4.664062-6.347656 8.574219-7.101562 1.328125-.257813 2.667969-.273438 3.960937-.0625v-16.539063c0-46.851563-38.109375-85.488281-84.953125-86.128906-22.71875-.367188-44.320312 8.503906-60.859375 24.816406-16.816406 16.589844-26.464844 39.539063-26.464844 62.953125v14.28125c1.5-.296875 3.0625-.292969 4.609376.039062 3.789062.808594 6.902343 3.441407 8.328124 7.039063l1.382813 3.5-.214844-17.289063c-.09375-7.390624 2.613281-14.453124 7.421875-19.371093 6.949219-7.105469 16.042969-8.625 24.332032-4.066407 25.824218 14.214844 56.660156 14.214844 82.492187 0 2.859375-1.574218 6-2.402343 9.085937-2.402343v.035156c.191407-.011719.394532-.019531.605469-.019531zm2.058594 9.207031c-.597656.378906-1.28125.632813-2.011719.730469.675782-.070313 1.375-.320313 2.011719-.730469zm0 0"/><path d="m236.476562 175.574219c-1.210937 0-2.386718-.4375-3.304687-1.246094-1.042969-.921875-1.65625-2.234375-1.695313-3.625l-.902343-34.914063c-.046875-1.785156.859375-3.453124 2.375-4.386718.910156-.5625 1.953125-.808594 2.988281-.730469l4.28125-10.832031c1.460938-3.691406 4.664062-6.34375 8.574219-7.101563 3.8125-.738281 7.699219.515625 10.386719 3.355469.164062.171875.316406.355469.449218.542969 3.816406 3.796875 9.167969 12.542969 9.167969 23.671875 0 18.25-13.675781 33.402344-31.816406 35.238281-.167969.019531-.335938.027344-.503907.027344zm4.214844-35.347657.628906 24.25c10.257813-3.335937 17.472657-12.933593 17.472657-24.164062 0-9.480469-5.4375-15.839844-6.480469-16.964844-.132812-.117187-.265625-.242187-.390625-.375 0 0 0 0-.003906 0-.128907-.136718-.515625-.550781-1.230469-.414062-.199219.035156-.878906.222656-1.167969.957031l-4.910156 12.410156c-.757813 1.925781-2.132813 3.429688-3.917969 4.300781zm0 0"/><path d="m96.4375 175.574219c-.164062 0-.335938-.007813-.503906-.023438-18.136719-1.835937-31.8125-16.988281-31.8125-35.238281 0-7.882812 2.558594-15.359375 7.402344-21.613281 1.464843-1.894531 2.585937-2.972657 3.324218-3.6875.039063-.035157.183594-.171875.222656-.207031 2.773438-2.503907 6.609376-3.488282 10.261719-2.636719 3.671875.855469 6.695313 3.464843 8.082031 6.96875l4.710938 11.921875c.910156.148437 1.773438.542968 2.488281 1.164062 1.128907.980469 1.757813 2.410156 1.71875 3.90625l-.894531 34.578125c-.039062 1.390625-.652344 2.703125-1.695312 3.625-.914063.804688-2.09375 1.242188-3.304688 1.242188zm-13.734375-53.714844c-.273437 0-.613281.078125-.925781.359375-.617188.597656-1.324219 1.28125-2.34375 2.597656-3.476563 4.488282-5.3125 9.847656-5.3125 15.496094 0 11.230469 7.214844 20.824219 17.476562 24.164062l.644532-24.835937c-1.289063-.886719-2.328126-2.152344-2.941407-3.710937l-5.1875-13.117188c-.25-.632812-.769531-.839844-1.054687-.910156-.097656-.019532-.21875-.042969-.355469-.042969zm0 0"/><path d="m166.355469 253.578125c-5.925781 0-11.847657-.75-17.609375-2.257813-9.226563-2.414062-16.394532-6.0625-26.316406-11.109374-1.808594-.921876-3.71875-1.894532-5.761719-2.917969-17.453125-8.769531-27.855469-27.769531-25.941407-47.328125l1.503907-54.101563c.054687-1.851562 1.113281-3.46875 2.675781-4.289062l-.328125-26.226563c-.121094-9.632812 4.476563-18.421875 12.003906-22.9375 6.277344-3.765625 13.476563-3.949218 19.746094-.5 25.824219 14.214844 56.667969 14.214844 82.496094 0 2.859375-1.570312 6-2.402344 9.085937-2.402344v.035157c3.417969-.167969 9.558594 1.101562 14.050782 6.238281 5.050781 5.773438 7.460937 12.085938 7.375 19.296875l-.335938 26.832031c1.078125.914063 1.742188 2.257813 1.773438 3.710938l1.207031 54.355468c1.910156 19.558594-8.496094 38.550782-25.941407 47.3125-2.042968 1.027344-3.957031 2-5.765624 2.921876-9.917969 5.046874-17.085938 8.695312-26.3125 11.105468-5.757813 1.507813-11.683594 2.261719-17.605469 2.261719zm-64.210938-114.507813-1.425781 51.347657c-.003906.125-.011719.246093-.023438.371093-1.585937 15.523438 6.636719 30.621094 20.457032 37.5625 2.0625 1.035157 3.988281 2.015626 5.8125 2.945313 9.710937 4.941406 16.128906 8.207031 24.308594 10.347656 9.863281 2.578125 20.289062 2.582031 30.152343 0 8.183594-2.140625 14.597657-5.40625 24.308594-10.347656 1.824219-.925781 3.75-1.910156 5.8125-2.945313 13.824219-6.941406 22.046875-22.039062 20.464844-37.5625-.011719-.132812-.023438-.265624-.027344-.394531l-1.160156-52.285156c-1.199219-1.433594-1.867188-3.269531-1.839844-5.257813l.351563-27.898437c.054687-4.703125-1.5-8.703125-4.898438-12.585937-2.308594-2.640626-5.414062-2.867188-6.046875-2.882813-.160156.015625-.320313.023437-.480469.023437-1.40625 0-2.878906.402344-4.265625 1.164063-28.847656 15.878906-63.292969 15.878906-92.132812.003906-4.210938-2.316406-7.9375-.796875-9.789063.3125-4.480468 2.691407-7.21875 8.144531-7.144531 14.238281l.347656 27.628907c.027344 2.488281-1.03125 4.714843-2.78125 6.214843zm118.457031-50.351562c-.605468.386719-1.296874.648438-2.039062.746094.6875-.070313 1.394531-.328125 2.039062-.746094zm0 0"/><path d="m176.367188 208.042969c-3.042969 0-6.277344-.4375-9.671876-1.480469-16.285156 5.007812-28.9375-3.953125-33.671874-8.09375-1.667969-1.457031-2.589844-3.5625-2.535157-5.78125.054688-2.214844 1.089844-4.269531 2.828125-5.636719 14.625-11.5 28.097656-7.441406 33.375-5.050781 5.273438-2.386719 18.75-6.457031 33.378906 5.050781h.003907c1.738281 1.367188 2.769531 3.421875 2.824219 5.636719.058593 2.214844-.863282 4.324219-2.53125 5.78125-3.75 3.28125-12.460938 9.574219-24 9.574219zm-10.492188-1.742188h.003906zm1.644531-.003906c-.003906 0-.003906.003906-.007812.003906 0 0 .003906 0 .007812-.003906zm-.828125-9.863281c.800782 0 1.597656.128906 2.359375.382812 9.421875 3.148438 17.25-.351562 22.132813-3.820312-9.746094-6.136719-17.878906-3.203125-21.097656-1.53125-2.128907 1.101562-4.660157 1.101562-6.777344.003906-3.222656-1.679688-11.351563-4.609375-21.101563 1.527344 4.882813 3.46875 12.710938 6.972656 22.136719 3.820312.757812-.253906 1.550781-.382812 2.347656-.382812zm27.195313-1.523438"/><path d="m166.953125 346.371094c-13.242187 0-24.496094-9.917969-26.171875-23.070313-.246094-1.917969.636719-3.800781 2.257812-4.84375l15.097657-9.683593c.808593-.515626 1.742187-.789063 2.703125-.789063h12.851562c.957032 0 1.894532.273437 2.699219.789063l14.535156 9.320312c1.597657 1.027344 2.476563 2.871094 2.269531 4.757812-1.476562 13.40625-12.757812 23.519532-26.242187 23.519532zm-15.589844-21.371094c2.148438 6.652344 8.398438 11.371094 15.589844 11.371094 7.363281 0 13.671875-4.859375 15.710937-11.695313l-10.441406-6.691406h-9.917968zm0 0"/><path d="m166.953125 495.339844c-2.941406 0-5.707031-1.148438-7.789063-3.230469l-15.753906-15.753906c-.789062-.78125-1.289062-1.804688-1.425781-2.90625l-3.160156-24.984375c-.050781-.382813-.054688-.769532-.015625-1.152344l11.636718-109.894531c.183594-1.726563 1.25-3.234375 2.820313-3.984375 1.566406-.75 3.410156-.628906 4.871094.3125 5.304687 3.429687 12.339843 3.429687 17.644531.003906 1.460938-.941406 3.304688-1.058594 4.871094-.308594s2.632812 2.257813 2.816406 3.984375l11.632812 109.882813c.039063.382812.035157.773437-.011718 1.15625l-3.160156 24.984375c-.140626 1.097656-.640626 2.121093-1.425782 2.90625l-15.757812 15.753906c-2.082032 2.082031-4.847656 3.230469-7.792969 3.230469zm-15.261719-24.84375 14.542969 14.546875c.492187.492187.945313.492187 1.4375 0l14.546875-14.546875 2.875-22.707032-10.847656-102.457031c-4.71875 1.375-9.867188 1.375-14.582032 0l-10.847656 102.457031zm0 0"/><path d="m205.675781 511.996094h-23.035156c-1.4375 0-2.800781-.617188-3.75-1.691406-.949219-1.078126-1.390625-2.511719-1.207031-3.933594l30.511718-241.121094c.203126-1.605469 1.167969-3.011719 2.589844-3.777344 1.425782-.765625 3.132813-.796875 4.582032-.082031l19.988281 9.855469c.433593.144531.867187.277344 1.304687.414062.464844.144532.933594.289063 1.402344.441406 1.804688.589844 3.121094 2.152344 3.394531 4.03125l10.324219 70.546876c.445312 3.035156-.753906 6.125-3.128906 8.070312l-17.898438 14.644531 12.335938 29.953125c.785156 1.90625.875 4.042969.246094 6.011719l-32.890626 103.15625c-.667968 2.074219-2.59375 3.480469-4.769531 3.480469zm-17.363281-10h13.710938l31.644531-99.25-12.507813-30.375c-1.484375-3.601563-.457031-7.679688 2.558594-10.144532l18.0625-14.777343-9.769531-66.773438c-.058594-.019531-.121094-.039062-.175781-.058593-.207032-.070313-.410157-.152344-.605469-.25l-14-6.902344zm0 0"/><path d="m151.269531 511.996094h-23.039062c-2.175781 0-4.101563-1.40625-4.761719-3.480469l-32.890625-103.15625c-.628906-1.96875-.539063-4.105469.25-6.015625l12.332031-29.949219-17.898437-14.640625c-2.375-1.945312-3.574219-5.039062-3.128907-8.078125l10.324219-70.542969c.273438-1.878906 1.585938-3.441406 3.394531-4.03125.464844-.148437.933594-.292968 1.402344-.441406.4375-.132812.871094-.265625 1.304688-.410156l19.988281-9.855469c1.449219-.714843 3.152344-.683593 4.578125.082031 1.421875.765626 2.390625 2.171876 2.59375 3.773438l30.511719 241.121094c.179687 1.425781-.261719 2.859375-1.207031 3.933594-.953126 1.074218-2.320313 1.691406-3.753907 1.691406zm-19.382812-10h13.710937l-28.921875-228.53125-14 6.902344c-.195312.097656-.394531.179687-.601562.25-.058594.019531-.117188.039062-.175781.058593l-9.769532 66.773438 18.058594 14.773437c3.015625 2.46875 4.042969 6.546875 2.5625 10.148438l-12.507812 30.375zm0 0"/></g></svg>